G04 #@! TF.GenerationSoftware,KiCad,Pcbnew,5.1.5*
G04 #@! TF.CreationDate,2020-03-06T12:13:38+01:00*
G04 #@! TF.ProjectId,e-chessboard,652d6368-6573-4736-926f-6172642e6b69,0.1*
G04 #@! TF.SameCoordinates,Original*
G04 #@! TF.FileFunction,Soldermask,Bot*
G04 #@! TF.FilePolarity,Negative*
%FSLAX46Y46*%
G04 Gerber Fmt 4.6, Leading zero omitted, Abs format (unit mm)*
G04 Created by KiCad (PCBNEW 5.1.5) date 2020-03-06 12:13:38*
%MOMM*%
%LPD*%
G04 APERTURE LIST*
%ADD10C,0.100000*%
G04 APERTURE END LIST*
D10*
G36*
X210846189Y-207210483D02*
G01*
X210846192Y-207210484D01*
X210846191Y-207210484D01*
X211374139Y-207429167D01*
X211849280Y-207746646D01*
X212253354Y-208150720D01*
X212570833Y-208625861D01*
X212570834Y-208625863D01*
X212789517Y-209153811D01*
X212901000Y-209714275D01*
X212901000Y-210285725D01*
X212789517Y-210846189D01*
X212789516Y-210846191D01*
X212570833Y-211374139D01*
X212253354Y-211849280D01*
X211849280Y-212253354D01*
X211374139Y-212570833D01*
X211374138Y-212570834D01*
X211374137Y-212570834D01*
X210846189Y-212789517D01*
X210285725Y-212901000D01*
X209714275Y-212901000D01*
X209153811Y-212789517D01*
X208625863Y-212570834D01*
X208625862Y-212570834D01*
X208625861Y-212570833D01*
X208150720Y-212253354D01*
X207746646Y-211849280D01*
X207429167Y-211374139D01*
X207210484Y-210846191D01*
X207210483Y-210846189D01*
X207099000Y-210285725D01*
X207099000Y-209714275D01*
X207210483Y-209153811D01*
X207429166Y-208625863D01*
X207429167Y-208625861D01*
X207746646Y-208150720D01*
X208150720Y-207746646D01*
X208625861Y-207429167D01*
X209153809Y-207210484D01*
X209153808Y-207210484D01*
X209153811Y-207210483D01*
X209714275Y-207099000D01*
X210285725Y-207099000D01*
X210846189Y-207210483D01*
G37*
G36*
X60846189Y-207210483D02*
G01*
X60846192Y-207210484D01*
X60846191Y-207210484D01*
X61374139Y-207429167D01*
X61849280Y-207746646D01*
X62253354Y-208150720D01*
X62570833Y-208625861D01*
X62570834Y-208625863D01*
X62789517Y-209153811D01*
X62901000Y-209714275D01*
X62901000Y-210285725D01*
X62789517Y-210846189D01*
X62789516Y-210846191D01*
X62570833Y-211374139D01*
X62253354Y-211849280D01*
X61849280Y-212253354D01*
X61374139Y-212570833D01*
X61374138Y-212570834D01*
X61374137Y-212570834D01*
X60846189Y-212789517D01*
X60285725Y-212901000D01*
X59714275Y-212901000D01*
X59153811Y-212789517D01*
X58625863Y-212570834D01*
X58625862Y-212570834D01*
X58625861Y-212570833D01*
X58150720Y-212253354D01*
X57746646Y-211849280D01*
X57429167Y-211374139D01*
X57210484Y-210846191D01*
X57210483Y-210846189D01*
X57099000Y-210285725D01*
X57099000Y-209714275D01*
X57210483Y-209153811D01*
X57429166Y-208625863D01*
X57429167Y-208625861D01*
X57746646Y-208150720D01*
X58150720Y-207746646D01*
X58625861Y-207429167D01*
X59153809Y-207210484D01*
X59153808Y-207210484D01*
X59153811Y-207210483D01*
X59714275Y-207099000D01*
X60285725Y-207099000D01*
X60846189Y-207210483D01*
G37*
G36*
X135237142Y-195218242D02*
G01*
X135385101Y-195279529D01*
X135518255Y-195368499D01*
X135631501Y-195481745D01*
X135720471Y-195614899D01*
X135781758Y-195762858D01*
X135813000Y-195919925D01*
X135813000Y-196080075D01*
X135781758Y-196237142D01*
X135720471Y-196385101D01*
X135631501Y-196518255D01*
X135518255Y-196631501D01*
X135385101Y-196720471D01*
X135237142Y-196781758D01*
X135080075Y-196813000D01*
X134919925Y-196813000D01*
X134762858Y-196781758D01*
X134614899Y-196720471D01*
X134481745Y-196631501D01*
X134368499Y-196518255D01*
X134279529Y-196385101D01*
X134218242Y-196237142D01*
X134187000Y-196080075D01*
X134187000Y-195919925D01*
X134218242Y-195762858D01*
X134279529Y-195614899D01*
X134368499Y-195481745D01*
X134481745Y-195368499D01*
X134614899Y-195279529D01*
X134762858Y-195218242D01*
X134919925Y-195187000D01*
X135080075Y-195187000D01*
X135237142Y-195218242D01*
G37*
G36*
X185237142Y-195218242D02*
G01*
X185385101Y-195279529D01*
X185518255Y-195368499D01*
X185631501Y-195481745D01*
X185720471Y-195614899D01*
X185781758Y-195762858D01*
X185813000Y-195919925D01*
X185813000Y-196080075D01*
X185781758Y-196237142D01*
X185720471Y-196385101D01*
X185631501Y-196518255D01*
X185518255Y-196631501D01*
X185385101Y-196720471D01*
X185237142Y-196781758D01*
X185080075Y-196813000D01*
X184919925Y-196813000D01*
X184762858Y-196781758D01*
X184614899Y-196720471D01*
X184481745Y-196631501D01*
X184368499Y-196518255D01*
X184279529Y-196385101D01*
X184218242Y-196237142D01*
X184187000Y-196080075D01*
X184187000Y-195919925D01*
X184218242Y-195762858D01*
X184279529Y-195614899D01*
X184368499Y-195481745D01*
X184481745Y-195368499D01*
X184614899Y-195279529D01*
X184762858Y-195218242D01*
X184919925Y-195187000D01*
X185080075Y-195187000D01*
X185237142Y-195218242D01*
G37*
G36*
X85237142Y-195218242D02*
G01*
X85385101Y-195279529D01*
X85518255Y-195368499D01*
X85631501Y-195481745D01*
X85720471Y-195614899D01*
X85781758Y-195762858D01*
X85813000Y-195919925D01*
X85813000Y-196080075D01*
X85781758Y-196237142D01*
X85720471Y-196385101D01*
X85631501Y-196518255D01*
X85518255Y-196631501D01*
X85385101Y-196720471D01*
X85237142Y-196781758D01*
X85080075Y-196813000D01*
X84919925Y-196813000D01*
X84762858Y-196781758D01*
X84614899Y-196720471D01*
X84481745Y-196631501D01*
X84368499Y-196518255D01*
X84279529Y-196385101D01*
X84218242Y-196237142D01*
X84187000Y-196080075D01*
X84187000Y-195919925D01*
X84218242Y-195762858D01*
X84279529Y-195614899D01*
X84368499Y-195481745D01*
X84481745Y-195368499D01*
X84614899Y-195279529D01*
X84762858Y-195218242D01*
X84919925Y-195187000D01*
X85080075Y-195187000D01*
X85237142Y-195218242D01*
G37*
G36*
X85846189Y-182210483D02*
G01*
X85846192Y-182210484D01*
X85846191Y-182210484D01*
X86374139Y-182429167D01*
X86849280Y-182746646D01*
X87253354Y-183150720D01*
X87570833Y-183625861D01*
X87570834Y-183625863D01*
X87789517Y-184153811D01*
X87901000Y-184714275D01*
X87901000Y-185285725D01*
X87789517Y-185846189D01*
X87789516Y-185846191D01*
X87570833Y-186374139D01*
X87253354Y-186849280D01*
X86849280Y-187253354D01*
X86374139Y-187570833D01*
X86374138Y-187570834D01*
X86374137Y-187570834D01*
X85846189Y-187789517D01*
X85285725Y-187901000D01*
X84714275Y-187901000D01*
X84153811Y-187789517D01*
X83625863Y-187570834D01*
X83625862Y-187570834D01*
X83625861Y-187570833D01*
X83150720Y-187253354D01*
X82746646Y-186849280D01*
X82429167Y-186374139D01*
X82210484Y-185846191D01*
X82210483Y-185846189D01*
X82099000Y-185285725D01*
X82099000Y-184714275D01*
X82210483Y-184153811D01*
X82429166Y-183625863D01*
X82429167Y-183625861D01*
X82746646Y-183150720D01*
X83150720Y-182746646D01*
X83625861Y-182429167D01*
X84153809Y-182210484D01*
X84153808Y-182210484D01*
X84153811Y-182210483D01*
X84714275Y-182099000D01*
X85285725Y-182099000D01*
X85846189Y-182210483D01*
G37*
G36*
X185846189Y-182210483D02*
G01*
X185846192Y-182210484D01*
X185846191Y-182210484D01*
X186374139Y-182429167D01*
X186849280Y-182746646D01*
X187253354Y-183150720D01*
X187570833Y-183625861D01*
X187570834Y-183625863D01*
X187789517Y-184153811D01*
X187901000Y-184714275D01*
X187901000Y-185285725D01*
X187789517Y-185846189D01*
X187789516Y-185846191D01*
X187570833Y-186374139D01*
X187253354Y-186849280D01*
X186849280Y-187253354D01*
X186374139Y-187570833D01*
X186374138Y-187570834D01*
X186374137Y-187570834D01*
X185846189Y-187789517D01*
X185285725Y-187901000D01*
X184714275Y-187901000D01*
X184153811Y-187789517D01*
X183625863Y-187570834D01*
X183625862Y-187570834D01*
X183625861Y-187570833D01*
X183150720Y-187253354D01*
X182746646Y-186849280D01*
X182429167Y-186374139D01*
X182210484Y-185846191D01*
X182210483Y-185846189D01*
X182099000Y-185285725D01*
X182099000Y-184714275D01*
X182210483Y-184153811D01*
X182429166Y-183625863D01*
X182429167Y-183625861D01*
X182746646Y-183150720D01*
X183150720Y-182746646D01*
X183625861Y-182429167D01*
X184153809Y-182210484D01*
X184153808Y-182210484D01*
X184153811Y-182210483D01*
X184714275Y-182099000D01*
X185285725Y-182099000D01*
X185846189Y-182210483D01*
G37*
G36*
X135846189Y-182210483D02*
G01*
X135846192Y-182210484D01*
X135846191Y-182210484D01*
X136374139Y-182429167D01*
X136849280Y-182746646D01*
X137253354Y-183150720D01*
X137570833Y-183625861D01*
X137570834Y-183625863D01*
X137789517Y-184153811D01*
X137901000Y-184714275D01*
X137901000Y-185285725D01*
X137789517Y-185846189D01*
X137789516Y-185846191D01*
X137570833Y-186374139D01*
X137253354Y-186849280D01*
X136849280Y-187253354D01*
X136374139Y-187570833D01*
X136374138Y-187570834D01*
X136374137Y-187570834D01*
X135846189Y-187789517D01*
X135285725Y-187901000D01*
X134714275Y-187901000D01*
X134153811Y-187789517D01*
X133625863Y-187570834D01*
X133625862Y-187570834D01*
X133625861Y-187570833D01*
X133150720Y-187253354D01*
X132746646Y-186849280D01*
X132429167Y-186374139D01*
X132210484Y-185846191D01*
X132210483Y-185846189D01*
X132099000Y-185285725D01*
X132099000Y-184714275D01*
X132210483Y-184153811D01*
X132429166Y-183625863D01*
X132429167Y-183625861D01*
X132746646Y-183150720D01*
X133150720Y-182746646D01*
X133625861Y-182429167D01*
X134153809Y-182210484D01*
X134153808Y-182210484D01*
X134153811Y-182210483D01*
X134714275Y-182099000D01*
X135285725Y-182099000D01*
X135846189Y-182210483D01*
G37*
G36*
X185237142Y-173218242D02*
G01*
X185385101Y-173279529D01*
X185518255Y-173368499D01*
X185631501Y-173481745D01*
X185720471Y-173614899D01*
X185781758Y-173762858D01*
X185813000Y-173919925D01*
X185813000Y-174080075D01*
X185781758Y-174237142D01*
X185720471Y-174385101D01*
X185631501Y-174518255D01*
X185518255Y-174631501D01*
X185385101Y-174720471D01*
X185237142Y-174781758D01*
X185080075Y-174813000D01*
X184919925Y-174813000D01*
X184762858Y-174781758D01*
X184614899Y-174720471D01*
X184481745Y-174631501D01*
X184368499Y-174518255D01*
X184279529Y-174385101D01*
X184218242Y-174237142D01*
X184187000Y-174080075D01*
X184187000Y-173919925D01*
X184218242Y-173762858D01*
X184279529Y-173614899D01*
X184368499Y-173481745D01*
X184481745Y-173368499D01*
X184614899Y-173279529D01*
X184762858Y-173218242D01*
X184919925Y-173187000D01*
X185080075Y-173187000D01*
X185237142Y-173218242D01*
G37*
G36*
X135237142Y-173218242D02*
G01*
X135385101Y-173279529D01*
X135518255Y-173368499D01*
X135631501Y-173481745D01*
X135720471Y-173614899D01*
X135781758Y-173762858D01*
X135813000Y-173919925D01*
X135813000Y-174080075D01*
X135781758Y-174237142D01*
X135720471Y-174385101D01*
X135631501Y-174518255D01*
X135518255Y-174631501D01*
X135385101Y-174720471D01*
X135237142Y-174781758D01*
X135080075Y-174813000D01*
X134919925Y-174813000D01*
X134762858Y-174781758D01*
X134614899Y-174720471D01*
X134481745Y-174631501D01*
X134368499Y-174518255D01*
X134279529Y-174385101D01*
X134218242Y-174237142D01*
X134187000Y-174080075D01*
X134187000Y-173919925D01*
X134218242Y-173762858D01*
X134279529Y-173614899D01*
X134368499Y-173481745D01*
X134481745Y-173368499D01*
X134614899Y-173279529D01*
X134762858Y-173218242D01*
X134919925Y-173187000D01*
X135080075Y-173187000D01*
X135237142Y-173218242D01*
G37*
G36*
X85237142Y-173218242D02*
G01*
X85385101Y-173279529D01*
X85518255Y-173368499D01*
X85631501Y-173481745D01*
X85720471Y-173614899D01*
X85781758Y-173762858D01*
X85813000Y-173919925D01*
X85813000Y-174080075D01*
X85781758Y-174237142D01*
X85720471Y-174385101D01*
X85631501Y-174518255D01*
X85518255Y-174631501D01*
X85385101Y-174720471D01*
X85237142Y-174781758D01*
X85080075Y-174813000D01*
X84919925Y-174813000D01*
X84762858Y-174781758D01*
X84614899Y-174720471D01*
X84481745Y-174631501D01*
X84368499Y-174518255D01*
X84279529Y-174385101D01*
X84218242Y-174237142D01*
X84187000Y-174080075D01*
X84187000Y-173919925D01*
X84218242Y-173762858D01*
X84279529Y-173614899D01*
X84368499Y-173481745D01*
X84481745Y-173368499D01*
X84614899Y-173279529D01*
X84762858Y-173218242D01*
X84919925Y-173187000D01*
X85080075Y-173187000D01*
X85237142Y-173218242D01*
G37*
G36*
X154488674Y-168753465D02*
G01*
X154526367Y-168764899D01*
X154561103Y-168783466D01*
X154591548Y-168808452D01*
X154616534Y-168838897D01*
X154635101Y-168873633D01*
X154646535Y-168911326D01*
X154651000Y-168956661D01*
X154651000Y-170043339D01*
X154646535Y-170088674D01*
X154635101Y-170126367D01*
X154616534Y-170161103D01*
X154591548Y-170191548D01*
X154561103Y-170216534D01*
X154526367Y-170235101D01*
X154488674Y-170246535D01*
X154443339Y-170251000D01*
X153606661Y-170251000D01*
X153561326Y-170246535D01*
X153523633Y-170235101D01*
X153488897Y-170216534D01*
X153458452Y-170191548D01*
X153433466Y-170161103D01*
X153414899Y-170126367D01*
X153403465Y-170088674D01*
X153399000Y-170043339D01*
X153399000Y-168956661D01*
X153403465Y-168911326D01*
X153414899Y-168873633D01*
X153433466Y-168838897D01*
X153458452Y-168808452D01*
X153488897Y-168783466D01*
X153523633Y-168764899D01*
X153561326Y-168753465D01*
X153606661Y-168749000D01*
X154443339Y-168749000D01*
X154488674Y-168753465D01*
G37*
G36*
X152438674Y-168753465D02*
G01*
X152476367Y-168764899D01*
X152511103Y-168783466D01*
X152541548Y-168808452D01*
X152566534Y-168838897D01*
X152585101Y-168873633D01*
X152596535Y-168911326D01*
X152601000Y-168956661D01*
X152601000Y-170043339D01*
X152596535Y-170088674D01*
X152585101Y-170126367D01*
X152566534Y-170161103D01*
X152541548Y-170191548D01*
X152511103Y-170216534D01*
X152476367Y-170235101D01*
X152438674Y-170246535D01*
X152393339Y-170251000D01*
X151556661Y-170251000D01*
X151511326Y-170246535D01*
X151473633Y-170235101D01*
X151438897Y-170216534D01*
X151408452Y-170191548D01*
X151383466Y-170161103D01*
X151364899Y-170126367D01*
X151353465Y-170088674D01*
X151349000Y-170043339D01*
X151349000Y-168956661D01*
X151353465Y-168911326D01*
X151364899Y-168873633D01*
X151383466Y-168838897D01*
X151408452Y-168808452D01*
X151438897Y-168783466D01*
X151473633Y-168764899D01*
X151511326Y-168753465D01*
X151556661Y-168749000D01*
X152393339Y-168749000D01*
X152438674Y-168753465D01*
G37*
G36*
X124451000Y-167051000D02*
G01*
X122549000Y-167051000D01*
X122549000Y-164449000D01*
X124451000Y-164449000D01*
X124451000Y-167051000D01*
G37*
G36*
X128921811Y-164540771D02*
G01*
X128957603Y-164551629D01*
X128990595Y-164569263D01*
X129019508Y-164592992D01*
X129043237Y-164621905D01*
X129060871Y-164654897D01*
X129071729Y-164690689D01*
X129076000Y-164734055D01*
X129076000Y-165765945D01*
X129071729Y-165809311D01*
X129060871Y-165845103D01*
X129043237Y-165878095D01*
X129019508Y-165907008D01*
X128990595Y-165930737D01*
X128957603Y-165948371D01*
X128921811Y-165959229D01*
X128878445Y-165963500D01*
X126821555Y-165963500D01*
X126778189Y-165959229D01*
X126742397Y-165948371D01*
X126709405Y-165930737D01*
X126680492Y-165907008D01*
X126656763Y-165878095D01*
X126639129Y-165845103D01*
X126628271Y-165809311D01*
X126624000Y-165765945D01*
X126624000Y-164734055D01*
X126628271Y-164690689D01*
X126639129Y-164654897D01*
X126656763Y-164621905D01*
X126680492Y-164592992D01*
X126709405Y-164569263D01*
X126742397Y-164551629D01*
X126778189Y-164540771D01*
X126821555Y-164536500D01*
X128878445Y-164536500D01*
X128921811Y-164540771D01*
G37*
G36*
X160851000Y-165826000D02*
G01*
X157149000Y-165826000D01*
X157149000Y-164224000D01*
X160851000Y-164224000D01*
X160851000Y-165826000D01*
G37*
G36*
X134838674Y-164153465D02*
G01*
X134876367Y-164164899D01*
X134911103Y-164183466D01*
X134941548Y-164208452D01*
X134966534Y-164238897D01*
X134985101Y-164273633D01*
X134996535Y-164311326D01*
X135001000Y-164356661D01*
X135001000Y-165193339D01*
X134996535Y-165238674D01*
X134985101Y-165276367D01*
X134966534Y-165311103D01*
X134941548Y-165341548D01*
X134911103Y-165366534D01*
X134876367Y-165385101D01*
X134838674Y-165396535D01*
X134793339Y-165401000D01*
X133706661Y-165401000D01*
X133661326Y-165396535D01*
X133623633Y-165385101D01*
X133588897Y-165366534D01*
X133558452Y-165341548D01*
X133533466Y-165311103D01*
X133514899Y-165276367D01*
X133503465Y-165238674D01*
X133499000Y-165193339D01*
X133499000Y-164356661D01*
X133503465Y-164311326D01*
X133514899Y-164273633D01*
X133533466Y-164238897D01*
X133558452Y-164208452D01*
X133588897Y-164183466D01*
X133623633Y-164164899D01*
X133661326Y-164153465D01*
X133706661Y-164149000D01*
X134793339Y-164149000D01*
X134838674Y-164153465D01*
G37*
G36*
X131988674Y-164153465D02*
G01*
X132026367Y-164164899D01*
X132061103Y-164183466D01*
X132091548Y-164208452D01*
X132116534Y-164238897D01*
X132135101Y-164273633D01*
X132146535Y-164311326D01*
X132151000Y-164356661D01*
X132151000Y-165193339D01*
X132146535Y-165238674D01*
X132135101Y-165276367D01*
X132116534Y-165311103D01*
X132091548Y-165341548D01*
X132061103Y-165366534D01*
X132026367Y-165385101D01*
X131988674Y-165396535D01*
X131943339Y-165401000D01*
X130856661Y-165401000D01*
X130811326Y-165396535D01*
X130773633Y-165385101D01*
X130738897Y-165366534D01*
X130708452Y-165341548D01*
X130683466Y-165311103D01*
X130664899Y-165276367D01*
X130653465Y-165238674D01*
X130649000Y-165193339D01*
X130649000Y-164356661D01*
X130653465Y-164311326D01*
X130664899Y-164273633D01*
X130683466Y-164238897D01*
X130708452Y-164208452D01*
X130738897Y-164183466D01*
X130773633Y-164164899D01*
X130811326Y-164153465D01*
X130856661Y-164149000D01*
X131943339Y-164149000D01*
X131988674Y-164153465D01*
G37*
G36*
X148088674Y-163903465D02*
G01*
X148126367Y-163914899D01*
X148161103Y-163933466D01*
X148191548Y-163958452D01*
X148216534Y-163988897D01*
X148235101Y-164023633D01*
X148246535Y-164061326D01*
X148251000Y-164106661D01*
X148251000Y-164943339D01*
X148246535Y-164988674D01*
X148235101Y-165026367D01*
X148216534Y-165061103D01*
X148191548Y-165091548D01*
X148161103Y-165116534D01*
X148126367Y-165135101D01*
X148088674Y-165146535D01*
X148043339Y-165151000D01*
X146956661Y-165151000D01*
X146911326Y-165146535D01*
X146873633Y-165135101D01*
X146838897Y-165116534D01*
X146808452Y-165091548D01*
X146783466Y-165061103D01*
X146764899Y-165026367D01*
X146753465Y-164988674D01*
X146749000Y-164943339D01*
X146749000Y-164106661D01*
X146753465Y-164061326D01*
X146764899Y-164023633D01*
X146783466Y-163988897D01*
X146808452Y-163958452D01*
X146838897Y-163933466D01*
X146873633Y-163914899D01*
X146911326Y-163903465D01*
X146956661Y-163899000D01*
X148043339Y-163899000D01*
X148088674Y-163903465D01*
G37*
G36*
X154681000Y-164826000D02*
G01*
X153519000Y-164826000D01*
X153519000Y-162174000D01*
X154681000Y-162174000D01*
X154681000Y-164826000D01*
G37*
G36*
X152481000Y-164826000D02*
G01*
X151319000Y-164826000D01*
X151319000Y-162174000D01*
X152481000Y-162174000D01*
X152481000Y-164826000D01*
G37*
G36*
X134838674Y-162103465D02*
G01*
X134876367Y-162114899D01*
X134911103Y-162133466D01*
X134941548Y-162158452D01*
X134966534Y-162188897D01*
X134985101Y-162223633D01*
X134996535Y-162261326D01*
X135001000Y-162306661D01*
X135001000Y-163143339D01*
X134996535Y-163188674D01*
X134985101Y-163226367D01*
X134966534Y-163261103D01*
X134941548Y-163291548D01*
X134911103Y-163316534D01*
X134876367Y-163335101D01*
X134838674Y-163346535D01*
X134793339Y-163351000D01*
X133706661Y-163351000D01*
X133661326Y-163346535D01*
X133623633Y-163335101D01*
X133588897Y-163316534D01*
X133558452Y-163291548D01*
X133533466Y-163261103D01*
X133514899Y-163226367D01*
X133503465Y-163188674D01*
X133499000Y-163143339D01*
X133499000Y-162306661D01*
X133503465Y-162261326D01*
X133514899Y-162223633D01*
X133533466Y-162188897D01*
X133558452Y-162158452D01*
X133588897Y-162133466D01*
X133623633Y-162114899D01*
X133661326Y-162103465D01*
X133706661Y-162099000D01*
X134793339Y-162099000D01*
X134838674Y-162103465D01*
G37*
G36*
X131988674Y-162103465D02*
G01*
X132026367Y-162114899D01*
X132061103Y-162133466D01*
X132091548Y-162158452D01*
X132116534Y-162188897D01*
X132135101Y-162223633D01*
X132146535Y-162261326D01*
X132151000Y-162306661D01*
X132151000Y-163143339D01*
X132146535Y-163188674D01*
X132135101Y-163226367D01*
X132116534Y-163261103D01*
X132091548Y-163291548D01*
X132061103Y-163316534D01*
X132026367Y-163335101D01*
X131988674Y-163346535D01*
X131943339Y-163351000D01*
X130856661Y-163351000D01*
X130811326Y-163346535D01*
X130773633Y-163335101D01*
X130738897Y-163316534D01*
X130708452Y-163291548D01*
X130683466Y-163261103D01*
X130664899Y-163226367D01*
X130653465Y-163188674D01*
X130649000Y-163143339D01*
X130649000Y-162306661D01*
X130653465Y-162261326D01*
X130664899Y-162223633D01*
X130683466Y-162188897D01*
X130708452Y-162158452D01*
X130738897Y-162133466D01*
X130773633Y-162114899D01*
X130811326Y-162103465D01*
X130856661Y-162099000D01*
X131943339Y-162099000D01*
X131988674Y-162103465D01*
G37*
G36*
X148088674Y-161853465D02*
G01*
X148126367Y-161864899D01*
X148161103Y-161883466D01*
X148191548Y-161908452D01*
X148216534Y-161938897D01*
X148235101Y-161973633D01*
X148246535Y-162011326D01*
X148251000Y-162056661D01*
X148251000Y-162893339D01*
X148246535Y-162938674D01*
X148235101Y-162976367D01*
X148216534Y-163011103D01*
X148191548Y-163041548D01*
X148161103Y-163066534D01*
X148126367Y-163085101D01*
X148088674Y-163096535D01*
X148043339Y-163101000D01*
X146956661Y-163101000D01*
X146911326Y-163096535D01*
X146873633Y-163085101D01*
X146838897Y-163066534D01*
X146808452Y-163041548D01*
X146783466Y-163011103D01*
X146764899Y-162976367D01*
X146753465Y-162938674D01*
X146749000Y-162893339D01*
X146749000Y-162056661D01*
X146753465Y-162011326D01*
X146764899Y-161973633D01*
X146783466Y-161938897D01*
X146808452Y-161908452D01*
X146838897Y-161883466D01*
X146873633Y-161864899D01*
X146911326Y-161853465D01*
X146956661Y-161849000D01*
X148043339Y-161849000D01*
X148088674Y-161853465D01*
G37*
G36*
X124451000Y-163051000D02*
G01*
X122549000Y-163051000D01*
X122549000Y-160449000D01*
X124451000Y-160449000D01*
X124451000Y-163051000D01*
G37*
G36*
X128921811Y-161465771D02*
G01*
X128957603Y-161476629D01*
X128990595Y-161494263D01*
X129019508Y-161517992D01*
X129043237Y-161546905D01*
X129060871Y-161579897D01*
X129071729Y-161615689D01*
X129076000Y-161659055D01*
X129076000Y-162690945D01*
X129071729Y-162734311D01*
X129060871Y-162770103D01*
X129043237Y-162803095D01*
X129019508Y-162832008D01*
X128990595Y-162855737D01*
X128957603Y-162873371D01*
X128921811Y-162884229D01*
X128878445Y-162888500D01*
X126821555Y-162888500D01*
X126778189Y-162884229D01*
X126742397Y-162873371D01*
X126709405Y-162855737D01*
X126680492Y-162832008D01*
X126656763Y-162803095D01*
X126639129Y-162770103D01*
X126628271Y-162734311D01*
X126624000Y-162690945D01*
X126624000Y-161659055D01*
X126628271Y-161615689D01*
X126639129Y-161579897D01*
X126656763Y-161546905D01*
X126680492Y-161517992D01*
X126709405Y-161494263D01*
X126742397Y-161476629D01*
X126778189Y-161465771D01*
X126821555Y-161461500D01*
X128878445Y-161461500D01*
X128921811Y-161465771D01*
G37*
G36*
X160851000Y-162776000D02*
G01*
X157149000Y-162776000D01*
X157149000Y-161174000D01*
X160851000Y-161174000D01*
X160851000Y-162776000D01*
G37*
G36*
X177802585Y-158478802D02*
G01*
X177952410Y-158508604D01*
X178234674Y-158625521D01*
X178488705Y-158795259D01*
X178704741Y-159011295D01*
X178874479Y-159265326D01*
X178991396Y-159547590D01*
X179051000Y-159847240D01*
X179051000Y-160152760D01*
X178991396Y-160452410D01*
X178874479Y-160734674D01*
X178704741Y-160988705D01*
X178488705Y-161204741D01*
X178234674Y-161374479D01*
X177952410Y-161491396D01*
X177818703Y-161517992D01*
X177652761Y-161551000D01*
X177347239Y-161551000D01*
X177181297Y-161517992D01*
X177047590Y-161491396D01*
X176765326Y-161374479D01*
X176511295Y-161204741D01*
X176295259Y-160988705D01*
X176125521Y-160734674D01*
X176008604Y-160452410D01*
X175949000Y-160152760D01*
X175949000Y-159847240D01*
X176008604Y-159547590D01*
X176125521Y-159265326D01*
X176295259Y-159011295D01*
X176511295Y-158795259D01*
X176765326Y-158625521D01*
X177047590Y-158508604D01*
X177197415Y-158478802D01*
X177347239Y-158449000D01*
X177652761Y-158449000D01*
X177802585Y-158478802D01*
G37*
G36*
X200302585Y-158478802D02*
G01*
X200452410Y-158508604D01*
X200734674Y-158625521D01*
X200988705Y-158795259D01*
X201204741Y-159011295D01*
X201374479Y-159265326D01*
X201491396Y-159547590D01*
X201551000Y-159847240D01*
X201551000Y-160152760D01*
X201491396Y-160452410D01*
X201374479Y-160734674D01*
X201204741Y-160988705D01*
X200988705Y-161204741D01*
X200734674Y-161374479D01*
X200452410Y-161491396D01*
X200318703Y-161517992D01*
X200152761Y-161551000D01*
X199847239Y-161551000D01*
X199681297Y-161517992D01*
X199547590Y-161491396D01*
X199265326Y-161374479D01*
X199011295Y-161204741D01*
X198795259Y-160988705D01*
X198625521Y-160734674D01*
X198508604Y-160452410D01*
X198449000Y-160152760D01*
X198449000Y-159847240D01*
X198508604Y-159547590D01*
X198625521Y-159265326D01*
X198795259Y-159011295D01*
X199011295Y-158795259D01*
X199265326Y-158625521D01*
X199547590Y-158508604D01*
X199697415Y-158478802D01*
X199847239Y-158449000D01*
X200152761Y-158449000D01*
X200302585Y-158478802D01*
G37*
G36*
X189050558Y-158631337D02*
G01*
X189158657Y-158652839D01*
X189248412Y-158690017D01*
X189413621Y-158758449D01*
X189479934Y-158802758D01*
X189643086Y-158911772D01*
X189838228Y-159106914D01*
X189859525Y-159138788D01*
X189991551Y-159336379D01*
X190001360Y-159360061D01*
X190079038Y-159547590D01*
X190097161Y-159591344D01*
X190151000Y-159862012D01*
X190151000Y-160137988D01*
X190148061Y-160152761D01*
X190097161Y-160408657D01*
X190053415Y-160514267D01*
X189991551Y-160663621D01*
X189991550Y-160663622D01*
X189838228Y-160893086D01*
X189643086Y-161088228D01*
X189514718Y-161174000D01*
X189413621Y-161241551D01*
X189274729Y-161299082D01*
X189158657Y-161347161D01*
X189068433Y-161365107D01*
X188887988Y-161401000D01*
X188612012Y-161401000D01*
X188431567Y-161365107D01*
X188341343Y-161347161D01*
X188225271Y-161299082D01*
X188086379Y-161241551D01*
X187985282Y-161174000D01*
X187856914Y-161088228D01*
X187661772Y-160893086D01*
X187508450Y-160663622D01*
X187508449Y-160663621D01*
X187446585Y-160514267D01*
X187402839Y-160408657D01*
X187351939Y-160152761D01*
X187349000Y-160137988D01*
X187349000Y-159862012D01*
X187402839Y-159591344D01*
X187420963Y-159547590D01*
X187498640Y-159360061D01*
X187508449Y-159336379D01*
X187640475Y-159138788D01*
X187661772Y-159106914D01*
X187856914Y-158911772D01*
X188020066Y-158802758D01*
X188086379Y-158758449D01*
X188251588Y-158690017D01*
X188341343Y-158652839D01*
X188449442Y-158631337D01*
X188612012Y-158599000D01*
X188887988Y-158599000D01*
X189050558Y-158631337D01*
G37*
G36*
X211894072Y-158700918D02*
G01*
X212121833Y-158795259D01*
X212139939Y-158802759D01*
X212361212Y-158950610D01*
X212549390Y-159138788D01*
X212697241Y-159360061D01*
X212799082Y-159605928D01*
X212851000Y-159866938D01*
X212851000Y-160133062D01*
X212799082Y-160394072D01*
X212697241Y-160639939D01*
X212549390Y-160861212D01*
X212361212Y-161049390D01*
X212139939Y-161197241D01*
X212139938Y-161197242D01*
X212139937Y-161197242D01*
X211894072Y-161299082D01*
X211633063Y-161351000D01*
X211366937Y-161351000D01*
X211105928Y-161299082D01*
X210860063Y-161197242D01*
X210860062Y-161197242D01*
X210860061Y-161197241D01*
X210638788Y-161049390D01*
X210450610Y-160861212D01*
X210302759Y-160639939D01*
X210200918Y-160394072D01*
X210149000Y-160133062D01*
X210149000Y-159866938D01*
X210200918Y-159605928D01*
X210302759Y-159360061D01*
X210450610Y-159138788D01*
X210638788Y-158950610D01*
X210860061Y-158802759D01*
X210878168Y-158795259D01*
X211105928Y-158700918D01*
X211366937Y-158649000D01*
X211633063Y-158649000D01*
X211894072Y-158700918D01*
G37*
G36*
X206851000Y-161351000D02*
G01*
X204149000Y-161351000D01*
X204149000Y-158649000D01*
X206851000Y-158649000D01*
X206851000Y-161351000D01*
G37*
G36*
X156309468Y-157253565D02*
G01*
X156348138Y-157265296D01*
X156383777Y-157284346D01*
X156415017Y-157309983D01*
X156440654Y-157341223D01*
X156459704Y-157376862D01*
X156471435Y-157415532D01*
X156476000Y-157461888D01*
X156476000Y-158538112D01*
X156471435Y-158584468D01*
X156459704Y-158623138D01*
X156440654Y-158658777D01*
X156415017Y-158690017D01*
X156383777Y-158715654D01*
X156348138Y-158734704D01*
X156309468Y-158746435D01*
X156263112Y-158751000D01*
X155611888Y-158751000D01*
X155565532Y-158746435D01*
X155526862Y-158734704D01*
X155491223Y-158715654D01*
X155459983Y-158690017D01*
X155434346Y-158658777D01*
X155415296Y-158623138D01*
X155403565Y-158584468D01*
X155399000Y-158538112D01*
X155399000Y-157461888D01*
X155403565Y-157415532D01*
X155415296Y-157376862D01*
X155434346Y-157341223D01*
X155459983Y-157309983D01*
X155491223Y-157284346D01*
X155526862Y-157265296D01*
X155565532Y-157253565D01*
X155611888Y-157249000D01*
X156263112Y-157249000D01*
X156309468Y-157253565D01*
G37*
G36*
X154434468Y-157253565D02*
G01*
X154473138Y-157265296D01*
X154508777Y-157284346D01*
X154540017Y-157309983D01*
X154565654Y-157341223D01*
X154584704Y-157376862D01*
X154596435Y-157415532D01*
X154601000Y-157461888D01*
X154601000Y-158538112D01*
X154596435Y-158584468D01*
X154584704Y-158623138D01*
X154565654Y-158658777D01*
X154540017Y-158690017D01*
X154508777Y-158715654D01*
X154473138Y-158734704D01*
X154434468Y-158746435D01*
X154388112Y-158751000D01*
X153736888Y-158751000D01*
X153690532Y-158746435D01*
X153651862Y-158734704D01*
X153616223Y-158715654D01*
X153584983Y-158690017D01*
X153559346Y-158658777D01*
X153540296Y-158623138D01*
X153528565Y-158584468D01*
X153524000Y-158538112D01*
X153524000Y-157461888D01*
X153528565Y-157415532D01*
X153540296Y-157376862D01*
X153559346Y-157341223D01*
X153584983Y-157309983D01*
X153616223Y-157284346D01*
X153651862Y-157265296D01*
X153690532Y-157253565D01*
X153736888Y-157249000D01*
X154388112Y-157249000D01*
X154434468Y-157253565D01*
G37*
G36*
X160371968Y-157253565D02*
G01*
X160410638Y-157265296D01*
X160446277Y-157284346D01*
X160477517Y-157309983D01*
X160503154Y-157341223D01*
X160522204Y-157376862D01*
X160533935Y-157415532D01*
X160538500Y-157461888D01*
X160538500Y-158538112D01*
X160533935Y-158584468D01*
X160522204Y-158623138D01*
X160503154Y-158658777D01*
X160477517Y-158690017D01*
X160446277Y-158715654D01*
X160410638Y-158734704D01*
X160371968Y-158746435D01*
X160325612Y-158751000D01*
X159674388Y-158751000D01*
X159628032Y-158746435D01*
X159589362Y-158734704D01*
X159553723Y-158715654D01*
X159522483Y-158690017D01*
X159496846Y-158658777D01*
X159477796Y-158623138D01*
X159466065Y-158584468D01*
X159461500Y-158538112D01*
X159461500Y-157461888D01*
X159466065Y-157415532D01*
X159477796Y-157376862D01*
X159496846Y-157341223D01*
X159522483Y-157309983D01*
X159553723Y-157284346D01*
X159589362Y-157265296D01*
X159628032Y-157253565D01*
X159674388Y-157249000D01*
X160325612Y-157249000D01*
X160371968Y-157253565D01*
G37*
G36*
X158496968Y-157253565D02*
G01*
X158535638Y-157265296D01*
X158571277Y-157284346D01*
X158602517Y-157309983D01*
X158628154Y-157341223D01*
X158647204Y-157376862D01*
X158658935Y-157415532D01*
X158663500Y-157461888D01*
X158663500Y-158538112D01*
X158658935Y-158584468D01*
X158647204Y-158623138D01*
X158628154Y-158658777D01*
X158602517Y-158690017D01*
X158571277Y-158715654D01*
X158535638Y-158734704D01*
X158496968Y-158746435D01*
X158450612Y-158751000D01*
X157799388Y-158751000D01*
X157753032Y-158746435D01*
X157714362Y-158734704D01*
X157678723Y-158715654D01*
X157647483Y-158690017D01*
X157621846Y-158658777D01*
X157602796Y-158623138D01*
X157591065Y-158584468D01*
X157586500Y-158538112D01*
X157586500Y-157461888D01*
X157591065Y-157415532D01*
X157602796Y-157376862D01*
X157621846Y-157341223D01*
X157647483Y-157309983D01*
X157678723Y-157284346D01*
X157714362Y-157265296D01*
X157753032Y-157253565D01*
X157799388Y-157249000D01*
X158450612Y-157249000D01*
X158496968Y-157253565D01*
G37*
G36*
X151001000Y-158651000D02*
G01*
X149999000Y-158651000D01*
X149999000Y-157349000D01*
X151001000Y-157349000D01*
X151001000Y-158651000D01*
G37*
G36*
X147701000Y-158651000D02*
G01*
X146699000Y-158651000D01*
X146699000Y-157349000D01*
X147701000Y-157349000D01*
X147701000Y-158651000D01*
G37*
G36*
X208894072Y-154000918D02*
G01*
X209139939Y-154102759D01*
X209361212Y-154250610D01*
X209549390Y-154438788D01*
X209661346Y-154606340D01*
X209697242Y-154660063D01*
X209718287Y-154710871D01*
X209799082Y-154905928D01*
X209851000Y-155166938D01*
X209851000Y-155433062D01*
X209799082Y-155694072D01*
X209697241Y-155939939D01*
X209549390Y-156161212D01*
X209361212Y-156349390D01*
X209139939Y-156497241D01*
X209139938Y-156497242D01*
X209139937Y-156497242D01*
X208894072Y-156599082D01*
X208633063Y-156651000D01*
X208366937Y-156651000D01*
X208105928Y-156599082D01*
X207860063Y-156497242D01*
X207860062Y-156497242D01*
X207860061Y-156497241D01*
X207638788Y-156349390D01*
X207450610Y-156161212D01*
X207302759Y-155939939D01*
X207200918Y-155694072D01*
X207149000Y-155433062D01*
X207149000Y-155166938D01*
X207200918Y-154905928D01*
X207281713Y-154710871D01*
X207302758Y-154660063D01*
X207338655Y-154606340D01*
X207450610Y-154438788D01*
X207638788Y-154250610D01*
X207860061Y-154102759D01*
X208105928Y-154000918D01*
X208366937Y-153949000D01*
X208633063Y-153949000D01*
X208894072Y-154000918D01*
G37*
G36*
X157096811Y-152278271D02*
G01*
X157132603Y-152289129D01*
X157165595Y-152306763D01*
X157194508Y-152330492D01*
X157218237Y-152359405D01*
X157235871Y-152392397D01*
X157246729Y-152428189D01*
X157251000Y-152471555D01*
X157251000Y-154528445D01*
X157246729Y-154571811D01*
X157235871Y-154607603D01*
X157218237Y-154640595D01*
X157194508Y-154669508D01*
X157165595Y-154693237D01*
X157132603Y-154710871D01*
X157096811Y-154721729D01*
X157053445Y-154726000D01*
X156021555Y-154726000D01*
X155978189Y-154721729D01*
X155942397Y-154710871D01*
X155909405Y-154693237D01*
X155880492Y-154669508D01*
X155856763Y-154640595D01*
X155839129Y-154607603D01*
X155828271Y-154571811D01*
X155824000Y-154528445D01*
X155824000Y-152471555D01*
X155828271Y-152428189D01*
X155839129Y-152392397D01*
X155856763Y-152359405D01*
X155880492Y-152330492D01*
X155909405Y-152306763D01*
X155942397Y-152289129D01*
X155978189Y-152278271D01*
X156021555Y-152274000D01*
X157053445Y-152274000D01*
X157096811Y-152278271D01*
G37*
G36*
X154021811Y-152278271D02*
G01*
X154057603Y-152289129D01*
X154090595Y-152306763D01*
X154119508Y-152330492D01*
X154143237Y-152359405D01*
X154160871Y-152392397D01*
X154171729Y-152428189D01*
X154176000Y-152471555D01*
X154176000Y-154528445D01*
X154171729Y-154571811D01*
X154160871Y-154607603D01*
X154143237Y-154640595D01*
X154119508Y-154669508D01*
X154090595Y-154693237D01*
X154057603Y-154710871D01*
X154021811Y-154721729D01*
X153978445Y-154726000D01*
X152946555Y-154726000D01*
X152903189Y-154721729D01*
X152867397Y-154710871D01*
X152834405Y-154693237D01*
X152805492Y-154669508D01*
X152781763Y-154640595D01*
X152764129Y-154607603D01*
X152753271Y-154571811D01*
X152749000Y-154528445D01*
X152749000Y-152471555D01*
X152753271Y-152428189D01*
X152764129Y-152392397D01*
X152781763Y-152359405D01*
X152805492Y-152330492D01*
X152834405Y-152306763D01*
X152867397Y-152289129D01*
X152903189Y-152278271D01*
X152946555Y-152274000D01*
X153978445Y-152274000D01*
X154021811Y-152278271D01*
G37*
G36*
X85237142Y-145218242D02*
G01*
X85385101Y-145279529D01*
X85518255Y-145368499D01*
X85631501Y-145481745D01*
X85720471Y-145614899D01*
X85781758Y-145762858D01*
X85813000Y-145919925D01*
X85813000Y-146080075D01*
X85781758Y-146237142D01*
X85720471Y-146385101D01*
X85631501Y-146518255D01*
X85518255Y-146631501D01*
X85385101Y-146720471D01*
X85237142Y-146781758D01*
X85080075Y-146813000D01*
X84919925Y-146813000D01*
X84762858Y-146781758D01*
X84614899Y-146720471D01*
X84481745Y-146631501D01*
X84368499Y-146518255D01*
X84279529Y-146385101D01*
X84218242Y-146237142D01*
X84187000Y-146080075D01*
X84187000Y-145919925D01*
X84218242Y-145762858D01*
X84279529Y-145614899D01*
X84368499Y-145481745D01*
X84481745Y-145368499D01*
X84614899Y-145279529D01*
X84762858Y-145218242D01*
X84919925Y-145187000D01*
X85080075Y-145187000D01*
X85237142Y-145218242D01*
G37*
G36*
X135237142Y-145218242D02*
G01*
X135385101Y-145279529D01*
X135518255Y-145368499D01*
X135631501Y-145481745D01*
X135720471Y-145614899D01*
X135781758Y-145762858D01*
X135813000Y-145919925D01*
X135813000Y-146080075D01*
X135781758Y-146237142D01*
X135720471Y-146385101D01*
X135631501Y-146518255D01*
X135518255Y-146631501D01*
X135385101Y-146720471D01*
X135237142Y-146781758D01*
X135080075Y-146813000D01*
X134919925Y-146813000D01*
X134762858Y-146781758D01*
X134614899Y-146720471D01*
X134481745Y-146631501D01*
X134368499Y-146518255D01*
X134279529Y-146385101D01*
X134218242Y-146237142D01*
X134187000Y-146080075D01*
X134187000Y-145919925D01*
X134218242Y-145762858D01*
X134279529Y-145614899D01*
X134368499Y-145481745D01*
X134481745Y-145368499D01*
X134614899Y-145279529D01*
X134762858Y-145218242D01*
X134919925Y-145187000D01*
X135080075Y-145187000D01*
X135237142Y-145218242D01*
G37*
G36*
X185237142Y-145218242D02*
G01*
X185385101Y-145279529D01*
X185518255Y-145368499D01*
X185631501Y-145481745D01*
X185720471Y-145614899D01*
X185781758Y-145762858D01*
X185813000Y-145919925D01*
X185813000Y-146080075D01*
X185781758Y-146237142D01*
X185720471Y-146385101D01*
X185631501Y-146518255D01*
X185518255Y-146631501D01*
X185385101Y-146720471D01*
X185237142Y-146781758D01*
X185080075Y-146813000D01*
X184919925Y-146813000D01*
X184762858Y-146781758D01*
X184614899Y-146720471D01*
X184481745Y-146631501D01*
X184368499Y-146518255D01*
X184279529Y-146385101D01*
X184218242Y-146237142D01*
X184187000Y-146080075D01*
X184187000Y-145919925D01*
X184218242Y-145762858D01*
X184279529Y-145614899D01*
X184368499Y-145481745D01*
X184481745Y-145368499D01*
X184614899Y-145279529D01*
X184762858Y-145218242D01*
X184919925Y-145187000D01*
X185080075Y-145187000D01*
X185237142Y-145218242D01*
G37*
G36*
X135846189Y-132210483D02*
G01*
X135846192Y-132210484D01*
X135846191Y-132210484D01*
X136374139Y-132429167D01*
X136849280Y-132746646D01*
X137253354Y-133150720D01*
X137570833Y-133625861D01*
X137570834Y-133625863D01*
X137789517Y-134153811D01*
X137901000Y-134714275D01*
X137901000Y-135285725D01*
X137789517Y-135846189D01*
X137789516Y-135846191D01*
X137570833Y-136374139D01*
X137253354Y-136849280D01*
X136849280Y-137253354D01*
X136374139Y-137570833D01*
X136374138Y-137570834D01*
X136374137Y-137570834D01*
X135846189Y-137789517D01*
X135285725Y-137901000D01*
X134714275Y-137901000D01*
X134153811Y-137789517D01*
X133625863Y-137570834D01*
X133625862Y-137570834D01*
X133625861Y-137570833D01*
X133150720Y-137253354D01*
X132746646Y-136849280D01*
X132429167Y-136374139D01*
X132210484Y-135846191D01*
X132210483Y-135846189D01*
X132099000Y-135285725D01*
X132099000Y-134714275D01*
X132210483Y-134153811D01*
X132429166Y-133625863D01*
X132429167Y-133625861D01*
X132746646Y-133150720D01*
X133150720Y-132746646D01*
X133625861Y-132429167D01*
X134153809Y-132210484D01*
X134153808Y-132210484D01*
X134153811Y-132210483D01*
X134714275Y-132099000D01*
X135285725Y-132099000D01*
X135846189Y-132210483D01*
G37*
G36*
X85846189Y-132210483D02*
G01*
X85846192Y-132210484D01*
X85846191Y-132210484D01*
X86374139Y-132429167D01*
X86849280Y-132746646D01*
X87253354Y-133150720D01*
X87570833Y-133625861D01*
X87570834Y-133625863D01*
X87789517Y-134153811D01*
X87901000Y-134714275D01*
X87901000Y-135285725D01*
X87789517Y-135846189D01*
X87789516Y-135846191D01*
X87570833Y-136374139D01*
X87253354Y-136849280D01*
X86849280Y-137253354D01*
X86374139Y-137570833D01*
X86374138Y-137570834D01*
X86374137Y-137570834D01*
X85846189Y-137789517D01*
X85285725Y-137901000D01*
X84714275Y-137901000D01*
X84153811Y-137789517D01*
X83625863Y-137570834D01*
X83625862Y-137570834D01*
X83625861Y-137570833D01*
X83150720Y-137253354D01*
X82746646Y-136849280D01*
X82429167Y-136374139D01*
X82210484Y-135846191D01*
X82210483Y-135846189D01*
X82099000Y-135285725D01*
X82099000Y-134714275D01*
X82210483Y-134153811D01*
X82429166Y-133625863D01*
X82429167Y-133625861D01*
X82746646Y-133150720D01*
X83150720Y-132746646D01*
X83625861Y-132429167D01*
X84153809Y-132210484D01*
X84153808Y-132210484D01*
X84153811Y-132210483D01*
X84714275Y-132099000D01*
X85285725Y-132099000D01*
X85846189Y-132210483D01*
G37*
G36*
X185846189Y-132210483D02*
G01*
X185846192Y-132210484D01*
X185846191Y-132210484D01*
X186374139Y-132429167D01*
X186849280Y-132746646D01*
X187253354Y-133150720D01*
X187570833Y-133625861D01*
X187570834Y-133625863D01*
X187789517Y-134153811D01*
X187901000Y-134714275D01*
X187901000Y-135285725D01*
X187789517Y-135846189D01*
X187789516Y-135846191D01*
X187570833Y-136374139D01*
X187253354Y-136849280D01*
X186849280Y-137253354D01*
X186374139Y-137570833D01*
X186374138Y-137570834D01*
X186374137Y-137570834D01*
X185846189Y-137789517D01*
X185285725Y-137901000D01*
X184714275Y-137901000D01*
X184153811Y-137789517D01*
X183625863Y-137570834D01*
X183625862Y-137570834D01*
X183625861Y-137570833D01*
X183150720Y-137253354D01*
X182746646Y-136849280D01*
X182429167Y-136374139D01*
X182210484Y-135846191D01*
X182210483Y-135846189D01*
X182099000Y-135285725D01*
X182099000Y-134714275D01*
X182210483Y-134153811D01*
X182429166Y-133625863D01*
X182429167Y-133625861D01*
X182746646Y-133150720D01*
X183150720Y-132746646D01*
X183625861Y-132429167D01*
X184153809Y-132210484D01*
X184153808Y-132210484D01*
X184153811Y-132210483D01*
X184714275Y-132099000D01*
X185285725Y-132099000D01*
X185846189Y-132210483D01*
G37*
G36*
X185237142Y-123218242D02*
G01*
X185385101Y-123279529D01*
X185518255Y-123368499D01*
X185631501Y-123481745D01*
X185720471Y-123614899D01*
X185781758Y-123762858D01*
X185813000Y-123919925D01*
X185813000Y-124080075D01*
X185781758Y-124237142D01*
X185720471Y-124385101D01*
X185631501Y-124518255D01*
X185518255Y-124631501D01*
X185385101Y-124720471D01*
X185237142Y-124781758D01*
X185080075Y-124813000D01*
X184919925Y-124813000D01*
X184762858Y-124781758D01*
X184614899Y-124720471D01*
X184481745Y-124631501D01*
X184368499Y-124518255D01*
X184279529Y-124385101D01*
X184218242Y-124237142D01*
X184187000Y-124080075D01*
X184187000Y-123919925D01*
X184218242Y-123762858D01*
X184279529Y-123614899D01*
X184368499Y-123481745D01*
X184481745Y-123368499D01*
X184614899Y-123279529D01*
X184762858Y-123218242D01*
X184919925Y-123187000D01*
X185080075Y-123187000D01*
X185237142Y-123218242D01*
G37*
G36*
X85237142Y-123218242D02*
G01*
X85385101Y-123279529D01*
X85518255Y-123368499D01*
X85631501Y-123481745D01*
X85720471Y-123614899D01*
X85781758Y-123762858D01*
X85813000Y-123919925D01*
X85813000Y-124080075D01*
X85781758Y-124237142D01*
X85720471Y-124385101D01*
X85631501Y-124518255D01*
X85518255Y-124631501D01*
X85385101Y-124720471D01*
X85237142Y-124781758D01*
X85080075Y-124813000D01*
X84919925Y-124813000D01*
X84762858Y-124781758D01*
X84614899Y-124720471D01*
X84481745Y-124631501D01*
X84368499Y-124518255D01*
X84279529Y-124385101D01*
X84218242Y-124237142D01*
X84187000Y-124080075D01*
X84187000Y-123919925D01*
X84218242Y-123762858D01*
X84279529Y-123614899D01*
X84368499Y-123481745D01*
X84481745Y-123368499D01*
X84614899Y-123279529D01*
X84762858Y-123218242D01*
X84919925Y-123187000D01*
X85080075Y-123187000D01*
X85237142Y-123218242D01*
G37*
G36*
X135237142Y-123218242D02*
G01*
X135385101Y-123279529D01*
X135518255Y-123368499D01*
X135631501Y-123481745D01*
X135720471Y-123614899D01*
X135781758Y-123762858D01*
X135813000Y-123919925D01*
X135813000Y-124080075D01*
X135781758Y-124237142D01*
X135720471Y-124385101D01*
X135631501Y-124518255D01*
X135518255Y-124631501D01*
X135385101Y-124720471D01*
X135237142Y-124781758D01*
X135080075Y-124813000D01*
X134919925Y-124813000D01*
X134762858Y-124781758D01*
X134614899Y-124720471D01*
X134481745Y-124631501D01*
X134368499Y-124518255D01*
X134279529Y-124385101D01*
X134218242Y-124237142D01*
X134187000Y-124080075D01*
X134187000Y-123919925D01*
X134218242Y-123762858D01*
X134279529Y-123614899D01*
X134368499Y-123481745D01*
X134481745Y-123368499D01*
X134614899Y-123279529D01*
X134762858Y-123218242D01*
X134919925Y-123187000D01*
X135080075Y-123187000D01*
X135237142Y-123218242D01*
G37*
G36*
X129738674Y-120503465D02*
G01*
X129776367Y-120514899D01*
X129811103Y-120533466D01*
X129841548Y-120558452D01*
X129866534Y-120588897D01*
X129885101Y-120623633D01*
X129896535Y-120661326D01*
X129901000Y-120706661D01*
X129901000Y-121793339D01*
X129896535Y-121838674D01*
X129885101Y-121876367D01*
X129866534Y-121911103D01*
X129841548Y-121941548D01*
X129811103Y-121966534D01*
X129776367Y-121985101D01*
X129738674Y-121996535D01*
X129693339Y-122001000D01*
X128856661Y-122001000D01*
X128811326Y-121996535D01*
X128773633Y-121985101D01*
X128738897Y-121966534D01*
X128708452Y-121941548D01*
X128683466Y-121911103D01*
X128664899Y-121876367D01*
X128653465Y-121838674D01*
X128649000Y-121793339D01*
X128649000Y-120706661D01*
X128653465Y-120661326D01*
X128664899Y-120623633D01*
X128683466Y-120588897D01*
X128708452Y-120558452D01*
X128738897Y-120533466D01*
X128773633Y-120514899D01*
X128811326Y-120503465D01*
X128856661Y-120499000D01*
X129693339Y-120499000D01*
X129738674Y-120503465D01*
G37*
G36*
X127688674Y-120503465D02*
G01*
X127726367Y-120514899D01*
X127761103Y-120533466D01*
X127791548Y-120558452D01*
X127816534Y-120588897D01*
X127835101Y-120623633D01*
X127846535Y-120661326D01*
X127851000Y-120706661D01*
X127851000Y-121793339D01*
X127846535Y-121838674D01*
X127835101Y-121876367D01*
X127816534Y-121911103D01*
X127791548Y-121941548D01*
X127761103Y-121966534D01*
X127726367Y-121985101D01*
X127688674Y-121996535D01*
X127643339Y-122001000D01*
X126806661Y-122001000D01*
X126761326Y-121996535D01*
X126723633Y-121985101D01*
X126688897Y-121966534D01*
X126658452Y-121941548D01*
X126633466Y-121911103D01*
X126614899Y-121876367D01*
X126603465Y-121838674D01*
X126599000Y-121793339D01*
X126599000Y-120706661D01*
X126603465Y-120661326D01*
X126614899Y-120623633D01*
X126633466Y-120588897D01*
X126658452Y-120558452D01*
X126688897Y-120533466D01*
X126723633Y-120514899D01*
X126761326Y-120503465D01*
X126806661Y-120499000D01*
X127643339Y-120499000D01*
X127688674Y-120503465D01*
G37*
G36*
X127771811Y-117278271D02*
G01*
X127807603Y-117289129D01*
X127840595Y-117306763D01*
X127869508Y-117330492D01*
X127893237Y-117359405D01*
X127910871Y-117392397D01*
X127921729Y-117428189D01*
X127926000Y-117471555D01*
X127926000Y-119528445D01*
X127921729Y-119571811D01*
X127910871Y-119607603D01*
X127893237Y-119640595D01*
X127869508Y-119669508D01*
X127840595Y-119693237D01*
X127807603Y-119710871D01*
X127771811Y-119721729D01*
X127728445Y-119726000D01*
X126696555Y-119726000D01*
X126653189Y-119721729D01*
X126617397Y-119710871D01*
X126584405Y-119693237D01*
X126555492Y-119669508D01*
X126531763Y-119640595D01*
X126514129Y-119607603D01*
X126503271Y-119571811D01*
X126499000Y-119528445D01*
X126499000Y-117471555D01*
X126503271Y-117428189D01*
X126514129Y-117392397D01*
X126531763Y-117359405D01*
X126555492Y-117330492D01*
X126584405Y-117306763D01*
X126617397Y-117289129D01*
X126653189Y-117278271D01*
X126696555Y-117274000D01*
X127728445Y-117274000D01*
X127771811Y-117278271D01*
G37*
G36*
X130846811Y-117278271D02*
G01*
X130882603Y-117289129D01*
X130915595Y-117306763D01*
X130944508Y-117330492D01*
X130968237Y-117359405D01*
X130985871Y-117392397D01*
X130996729Y-117428189D01*
X131001000Y-117471555D01*
X131001000Y-119528445D01*
X130996729Y-119571811D01*
X130985871Y-119607603D01*
X130968237Y-119640595D01*
X130944508Y-119669508D01*
X130915595Y-119693237D01*
X130882603Y-119710871D01*
X130846811Y-119721729D01*
X130803445Y-119726000D01*
X129771555Y-119726000D01*
X129728189Y-119721729D01*
X129692397Y-119710871D01*
X129659405Y-119693237D01*
X129630492Y-119669508D01*
X129606763Y-119640595D01*
X129589129Y-119607603D01*
X129578271Y-119571811D01*
X129574000Y-119528445D01*
X129574000Y-117471555D01*
X129578271Y-117428189D01*
X129589129Y-117392397D01*
X129606763Y-117359405D01*
X129630492Y-117330492D01*
X129659405Y-117306763D01*
X129692397Y-117289129D01*
X129728189Y-117278271D01*
X129771555Y-117274000D01*
X130803445Y-117274000D01*
X130846811Y-117278271D01*
G37*
G36*
X183459333Y-116901000D02*
G01*
X182457333Y-116901000D01*
X182457333Y-115999000D01*
X183459333Y-115999000D01*
X183459333Y-116901000D01*
G37*
G36*
X188434468Y-114753565D02*
G01*
X188473138Y-114765296D01*
X188508777Y-114784346D01*
X188540017Y-114809983D01*
X188565654Y-114841223D01*
X188584704Y-114876862D01*
X188596435Y-114915532D01*
X188601000Y-114961888D01*
X188601000Y-116038112D01*
X188596435Y-116084468D01*
X188584704Y-116123138D01*
X188565654Y-116158777D01*
X188540017Y-116190017D01*
X188508777Y-116215654D01*
X188473138Y-116234704D01*
X188434468Y-116246435D01*
X188388112Y-116251000D01*
X187736888Y-116251000D01*
X187690532Y-116246435D01*
X187651862Y-116234704D01*
X187616223Y-116215654D01*
X187584983Y-116190017D01*
X187559346Y-116158777D01*
X187540296Y-116123138D01*
X187528565Y-116084468D01*
X187524000Y-116038112D01*
X187524000Y-114961888D01*
X187528565Y-114915532D01*
X187540296Y-114876862D01*
X187559346Y-114841223D01*
X187584983Y-114809983D01*
X187616223Y-114784346D01*
X187651862Y-114765296D01*
X187690532Y-114753565D01*
X187736888Y-114749000D01*
X188388112Y-114749000D01*
X188434468Y-114753565D01*
G37*
G36*
X190309468Y-114753565D02*
G01*
X190348138Y-114765296D01*
X190383777Y-114784346D01*
X190415017Y-114809983D01*
X190440654Y-114841223D01*
X190459704Y-114876862D01*
X190471435Y-114915532D01*
X190476000Y-114961888D01*
X190476000Y-116038112D01*
X190471435Y-116084468D01*
X190459704Y-116123138D01*
X190440654Y-116158777D01*
X190415017Y-116190017D01*
X190383777Y-116215654D01*
X190348138Y-116234704D01*
X190309468Y-116246435D01*
X190263112Y-116251000D01*
X189611888Y-116251000D01*
X189565532Y-116246435D01*
X189526862Y-116234704D01*
X189491223Y-116215654D01*
X189459983Y-116190017D01*
X189434346Y-116158777D01*
X189415296Y-116123138D01*
X189403565Y-116084468D01*
X189399000Y-116038112D01*
X189399000Y-114961888D01*
X189403565Y-114915532D01*
X189415296Y-114876862D01*
X189434346Y-114841223D01*
X189459983Y-114809983D01*
X189491223Y-114784346D01*
X189526862Y-114765296D01*
X189565532Y-114753565D01*
X189611888Y-114749000D01*
X190263112Y-114749000D01*
X190309468Y-114753565D01*
G37*
G36*
X185459333Y-115951000D02*
G01*
X184457333Y-115951000D01*
X184457333Y-115049000D01*
X185459333Y-115049000D01*
X185459333Y-115951000D01*
G37*
G36*
X119636000Y-115051000D02*
G01*
X118634000Y-115051000D01*
X118634000Y-112949000D01*
X119636000Y-112949000D01*
X119636000Y-115051000D01*
G37*
G36*
X110746000Y-115051000D02*
G01*
X109744000Y-115051000D01*
X109744000Y-112949000D01*
X110746000Y-112949000D01*
X110746000Y-115051000D01*
G37*
G36*
X113286000Y-115051000D02*
G01*
X112284000Y-115051000D01*
X112284000Y-112949000D01*
X113286000Y-112949000D01*
X113286000Y-115051000D01*
G37*
G36*
X112016000Y-115051000D02*
G01*
X111014000Y-115051000D01*
X111014000Y-112949000D01*
X112016000Y-112949000D01*
X112016000Y-115051000D01*
G37*
G36*
X114556000Y-115051000D02*
G01*
X113554000Y-115051000D01*
X113554000Y-112949000D01*
X114556000Y-112949000D01*
X114556000Y-115051000D01*
G37*
G36*
X115826000Y-115051000D02*
G01*
X114824000Y-115051000D01*
X114824000Y-112949000D01*
X115826000Y-112949000D01*
X115826000Y-115051000D01*
G37*
G36*
X117096000Y-115051000D02*
G01*
X116094000Y-115051000D01*
X116094000Y-112949000D01*
X117096000Y-112949000D01*
X117096000Y-115051000D01*
G37*
G36*
X118366000Y-115051000D02*
G01*
X117364000Y-115051000D01*
X117364000Y-112949000D01*
X118366000Y-112949000D01*
X118366000Y-115051000D01*
G37*
G36*
X120906000Y-115051000D02*
G01*
X119904000Y-115051000D01*
X119904000Y-112949000D01*
X120906000Y-112949000D01*
X120906000Y-115051000D01*
G37*
G36*
X122176000Y-115051000D02*
G01*
X121174000Y-115051000D01*
X121174000Y-112949000D01*
X122176000Y-112949000D01*
X122176000Y-115051000D01*
G37*
G36*
X123446000Y-115051000D02*
G01*
X122444000Y-115051000D01*
X122444000Y-112949000D01*
X123446000Y-112949000D01*
X123446000Y-115051000D01*
G37*
G36*
X124716000Y-115051000D02*
G01*
X123714000Y-115051000D01*
X123714000Y-112949000D01*
X124716000Y-112949000D01*
X124716000Y-115051000D01*
G37*
G36*
X125986000Y-115051000D02*
G01*
X124984000Y-115051000D01*
X124984000Y-112949000D01*
X125986000Y-112949000D01*
X125986000Y-115051000D01*
G37*
G36*
X127256000Y-115051000D02*
G01*
X126254000Y-115051000D01*
X126254000Y-112949000D01*
X127256000Y-112949000D01*
X127256000Y-115051000D01*
G37*
G36*
X183459333Y-115001000D02*
G01*
X182457333Y-115001000D01*
X182457333Y-114099000D01*
X183459333Y-114099000D01*
X183459333Y-115001000D01*
G37*
G36*
X185246968Y-111753565D02*
G01*
X185285638Y-111765296D01*
X185321277Y-111784346D01*
X185352517Y-111809983D01*
X185378154Y-111841223D01*
X185397204Y-111876862D01*
X185408935Y-111915532D01*
X185413500Y-111961888D01*
X185413500Y-113038112D01*
X185408935Y-113084468D01*
X185397204Y-113123138D01*
X185378154Y-113158777D01*
X185352517Y-113190017D01*
X185321277Y-113215654D01*
X185285638Y-113234704D01*
X185246968Y-113246435D01*
X185200612Y-113251000D01*
X184549388Y-113251000D01*
X184503032Y-113246435D01*
X184464362Y-113234704D01*
X184428723Y-113215654D01*
X184397483Y-113190017D01*
X184371846Y-113158777D01*
X184352796Y-113123138D01*
X184341065Y-113084468D01*
X184336500Y-113038112D01*
X184336500Y-111961888D01*
X184341065Y-111915532D01*
X184352796Y-111876862D01*
X184371846Y-111841223D01*
X184397483Y-111809983D01*
X184428723Y-111784346D01*
X184464362Y-111765296D01*
X184503032Y-111753565D01*
X184549388Y-111749000D01*
X185200612Y-111749000D01*
X185246968Y-111753565D01*
G37*
G36*
X183371968Y-111753565D02*
G01*
X183410638Y-111765296D01*
X183446277Y-111784346D01*
X183477517Y-111809983D01*
X183503154Y-111841223D01*
X183522204Y-111876862D01*
X183533935Y-111915532D01*
X183538500Y-111961888D01*
X183538500Y-113038112D01*
X183533935Y-113084468D01*
X183522204Y-113123138D01*
X183503154Y-113158777D01*
X183477517Y-113190017D01*
X183446277Y-113215654D01*
X183410638Y-113234704D01*
X183371968Y-113246435D01*
X183325612Y-113251000D01*
X182674388Y-113251000D01*
X182628032Y-113246435D01*
X182589362Y-113234704D01*
X182553723Y-113215654D01*
X182522483Y-113190017D01*
X182496846Y-113158777D01*
X182477796Y-113123138D01*
X182466065Y-113084468D01*
X182461500Y-113038112D01*
X182461500Y-111961888D01*
X182466065Y-111915532D01*
X182477796Y-111876862D01*
X182496846Y-111841223D01*
X182522483Y-111809983D01*
X182553723Y-111784346D01*
X182589362Y-111765296D01*
X182628032Y-111753565D01*
X182674388Y-111749000D01*
X183325612Y-111749000D01*
X183371968Y-111753565D01*
G37*
G36*
X188407424Y-111503465D02*
G01*
X188445117Y-111514899D01*
X188479853Y-111533466D01*
X188510298Y-111558452D01*
X188535284Y-111588897D01*
X188553851Y-111623633D01*
X188565285Y-111661326D01*
X188569750Y-111706661D01*
X188569750Y-112793339D01*
X188565285Y-112838674D01*
X188553851Y-112876367D01*
X188535284Y-112911103D01*
X188510298Y-112941548D01*
X188479853Y-112966534D01*
X188445117Y-112985101D01*
X188407424Y-112996535D01*
X188362089Y-113001000D01*
X187525411Y-113001000D01*
X187480076Y-112996535D01*
X187442383Y-112985101D01*
X187407647Y-112966534D01*
X187377202Y-112941548D01*
X187352216Y-112911103D01*
X187333649Y-112876367D01*
X187322215Y-112838674D01*
X187317750Y-112793339D01*
X187317750Y-111706661D01*
X187322215Y-111661326D01*
X187333649Y-111623633D01*
X187352216Y-111588897D01*
X187377202Y-111558452D01*
X187407647Y-111533466D01*
X187442383Y-111514899D01*
X187480076Y-111503465D01*
X187525411Y-111499000D01*
X188362089Y-111499000D01*
X188407424Y-111503465D01*
G37*
G36*
X190457424Y-111503465D02*
G01*
X190495117Y-111514899D01*
X190529853Y-111533466D01*
X190560298Y-111558452D01*
X190585284Y-111588897D01*
X190603851Y-111623633D01*
X190615285Y-111661326D01*
X190619750Y-111706661D01*
X190619750Y-112793339D01*
X190615285Y-112838674D01*
X190603851Y-112876367D01*
X190585284Y-112911103D01*
X190560298Y-112941548D01*
X190529853Y-112966534D01*
X190495117Y-112985101D01*
X190457424Y-112996535D01*
X190412089Y-113001000D01*
X189575411Y-113001000D01*
X189530076Y-112996535D01*
X189492383Y-112985101D01*
X189457647Y-112966534D01*
X189427202Y-112941548D01*
X189402216Y-112911103D01*
X189383649Y-112876367D01*
X189372215Y-112838674D01*
X189367750Y-112793339D01*
X189367750Y-111706661D01*
X189372215Y-111661326D01*
X189383649Y-111623633D01*
X189402216Y-111588897D01*
X189427202Y-111558452D01*
X189457647Y-111533466D01*
X189492383Y-111514899D01*
X189530076Y-111503465D01*
X189575411Y-111499000D01*
X190412089Y-111499000D01*
X190457424Y-111503465D01*
G37*
G36*
X215901000Y-112901000D02*
G01*
X214099000Y-112901000D01*
X214099000Y-111099000D01*
X215901000Y-111099000D01*
X215901000Y-112901000D01*
G37*
G36*
X212573512Y-111103927D02*
G01*
X212722812Y-111133624D01*
X212886784Y-111201544D01*
X213034354Y-111300147D01*
X213159853Y-111425646D01*
X213258456Y-111573216D01*
X213326376Y-111737188D01*
X213361000Y-111911259D01*
X213361000Y-112088741D01*
X213326376Y-112262812D01*
X213258456Y-112426784D01*
X213159853Y-112574354D01*
X213034354Y-112699853D01*
X212886784Y-112798456D01*
X212722812Y-112866376D01*
X212573512Y-112896073D01*
X212548742Y-112901000D01*
X212371258Y-112901000D01*
X212346488Y-112896073D01*
X212197188Y-112866376D01*
X212033216Y-112798456D01*
X211885646Y-112699853D01*
X211760147Y-112574354D01*
X211661544Y-112426784D01*
X211593624Y-112262812D01*
X211559000Y-112088741D01*
X211559000Y-111911259D01*
X211593624Y-111737188D01*
X211661544Y-111573216D01*
X211760147Y-111425646D01*
X211885646Y-111300147D01*
X212033216Y-111201544D01*
X212197188Y-111133624D01*
X212346488Y-111103927D01*
X212371258Y-111099000D01*
X212548742Y-111099000D01*
X212573512Y-111103927D01*
G37*
G36*
X110296000Y-111716000D02*
G01*
X108194000Y-111716000D01*
X108194000Y-110714000D01*
X110296000Y-110714000D01*
X110296000Y-111716000D01*
G37*
G36*
X110296000Y-110446000D02*
G01*
X108194000Y-110446000D01*
X108194000Y-109444000D01*
X110296000Y-109444000D01*
X110296000Y-110446000D01*
G37*
G36*
X183480166Y-110401000D02*
G01*
X182478166Y-110401000D01*
X182478166Y-109499000D01*
X183480166Y-109499000D01*
X183480166Y-110401000D01*
G37*
G36*
X215113512Y-108563927D02*
G01*
X215262812Y-108593624D01*
X215426784Y-108661544D01*
X215574354Y-108760147D01*
X215699853Y-108885646D01*
X215798456Y-109033216D01*
X215866376Y-109197188D01*
X215896073Y-109346488D01*
X215899759Y-109365017D01*
X215901000Y-109371259D01*
X215901000Y-109548741D01*
X215866376Y-109722812D01*
X215798456Y-109886784D01*
X215699853Y-110034354D01*
X215574354Y-110159853D01*
X215426784Y-110258456D01*
X215262812Y-110326376D01*
X215113512Y-110356073D01*
X215088742Y-110361000D01*
X214911258Y-110361000D01*
X214886488Y-110356073D01*
X214737188Y-110326376D01*
X214573216Y-110258456D01*
X214425646Y-110159853D01*
X214300147Y-110034354D01*
X214201544Y-109886784D01*
X214133624Y-109722812D01*
X214099000Y-109548741D01*
X214099000Y-109371259D01*
X214100242Y-109365017D01*
X214103927Y-109346488D01*
X214133624Y-109197188D01*
X214201544Y-109033216D01*
X214300147Y-108885646D01*
X214425646Y-108760147D01*
X214573216Y-108661544D01*
X214737188Y-108593624D01*
X214886488Y-108563927D01*
X214911258Y-108559000D01*
X215088742Y-108559000D01*
X215113512Y-108563927D01*
G37*
G36*
X212573512Y-108563927D02*
G01*
X212722812Y-108593624D01*
X212886784Y-108661544D01*
X213034354Y-108760147D01*
X213159853Y-108885646D01*
X213258456Y-109033216D01*
X213326376Y-109197188D01*
X213356073Y-109346488D01*
X213359759Y-109365017D01*
X213361000Y-109371259D01*
X213361000Y-109548741D01*
X213326376Y-109722812D01*
X213258456Y-109886784D01*
X213159853Y-110034354D01*
X213034354Y-110159853D01*
X212886784Y-110258456D01*
X212722812Y-110326376D01*
X212573512Y-110356073D01*
X212548742Y-110361000D01*
X212371258Y-110361000D01*
X212346488Y-110356073D01*
X212197188Y-110326376D01*
X212033216Y-110258456D01*
X211885646Y-110159853D01*
X211760147Y-110034354D01*
X211661544Y-109886784D01*
X211593624Y-109722812D01*
X211559000Y-109548741D01*
X211559000Y-109371259D01*
X211560242Y-109365017D01*
X211563927Y-109346488D01*
X211593624Y-109197188D01*
X211661544Y-109033216D01*
X211760147Y-108885646D01*
X211885646Y-108760147D01*
X212033216Y-108661544D01*
X212197188Y-108593624D01*
X212346488Y-108563927D01*
X212371258Y-108559000D01*
X212548742Y-108559000D01*
X212573512Y-108563927D01*
G37*
G36*
X190246968Y-108253565D02*
G01*
X190285638Y-108265296D01*
X190321277Y-108284346D01*
X190352517Y-108309983D01*
X190378154Y-108341223D01*
X190397204Y-108376862D01*
X190408935Y-108415532D01*
X190413500Y-108461888D01*
X190413500Y-109538112D01*
X190408935Y-109584468D01*
X190397204Y-109623138D01*
X190378154Y-109658777D01*
X190352517Y-109690017D01*
X190321277Y-109715654D01*
X190285638Y-109734704D01*
X190246968Y-109746435D01*
X190200612Y-109751000D01*
X189549388Y-109751000D01*
X189503032Y-109746435D01*
X189464362Y-109734704D01*
X189428723Y-109715654D01*
X189397483Y-109690017D01*
X189371846Y-109658777D01*
X189352796Y-109623138D01*
X189341065Y-109584468D01*
X189336500Y-109538112D01*
X189336500Y-108461888D01*
X189341065Y-108415532D01*
X189352796Y-108376862D01*
X189371846Y-108341223D01*
X189397483Y-108309983D01*
X189428723Y-108284346D01*
X189464362Y-108265296D01*
X189503032Y-108253565D01*
X189549388Y-108249000D01*
X190200612Y-108249000D01*
X190246968Y-108253565D01*
G37*
G36*
X188371968Y-108253565D02*
G01*
X188410638Y-108265296D01*
X188446277Y-108284346D01*
X188477517Y-108309983D01*
X188503154Y-108341223D01*
X188522204Y-108376862D01*
X188533935Y-108415532D01*
X188538500Y-108461888D01*
X188538500Y-109538112D01*
X188533935Y-109584468D01*
X188522204Y-109623138D01*
X188503154Y-109658777D01*
X188477517Y-109690017D01*
X188446277Y-109715654D01*
X188410638Y-109734704D01*
X188371968Y-109746435D01*
X188325612Y-109751000D01*
X187674388Y-109751000D01*
X187628032Y-109746435D01*
X187589362Y-109734704D01*
X187553723Y-109715654D01*
X187522483Y-109690017D01*
X187496846Y-109658777D01*
X187477796Y-109623138D01*
X187466065Y-109584468D01*
X187461500Y-109538112D01*
X187461500Y-108461888D01*
X187466065Y-108415532D01*
X187477796Y-108376862D01*
X187496846Y-108341223D01*
X187522483Y-108309983D01*
X187553723Y-108284346D01*
X187589362Y-108265296D01*
X187628032Y-108253565D01*
X187674388Y-108249000D01*
X188325612Y-108249000D01*
X188371968Y-108253565D01*
G37*
G36*
X185480166Y-109451000D02*
G01*
X184478166Y-109451000D01*
X184478166Y-108549000D01*
X185480166Y-108549000D01*
X185480166Y-109451000D01*
G37*
G36*
X175584468Y-108353565D02*
G01*
X175623138Y-108365296D01*
X175658777Y-108384346D01*
X175690017Y-108409983D01*
X175715654Y-108441223D01*
X175734704Y-108476862D01*
X175746435Y-108515532D01*
X175751000Y-108561888D01*
X175751000Y-109213112D01*
X175746435Y-109259468D01*
X175734704Y-109298138D01*
X175715654Y-109333777D01*
X175690017Y-109365017D01*
X175658777Y-109390654D01*
X175623138Y-109409704D01*
X175584468Y-109421435D01*
X175538112Y-109426000D01*
X174461888Y-109426000D01*
X174415532Y-109421435D01*
X174376862Y-109409704D01*
X174341223Y-109390654D01*
X174309983Y-109365017D01*
X174284346Y-109333777D01*
X174265296Y-109298138D01*
X174253565Y-109259468D01*
X174249000Y-109213112D01*
X174249000Y-108561888D01*
X174253565Y-108515532D01*
X174265296Y-108476862D01*
X174284346Y-108441223D01*
X174309983Y-108409983D01*
X174341223Y-108384346D01*
X174376862Y-108365296D01*
X174415532Y-108353565D01*
X174461888Y-108349000D01*
X175538112Y-108349000D01*
X175584468Y-108353565D01*
G37*
G36*
X164084468Y-108353565D02*
G01*
X164123138Y-108365296D01*
X164158777Y-108384346D01*
X164190017Y-108409983D01*
X164215654Y-108441223D01*
X164234704Y-108476862D01*
X164246435Y-108515532D01*
X164251000Y-108561888D01*
X164251000Y-109213112D01*
X164246435Y-109259468D01*
X164234704Y-109298138D01*
X164215654Y-109333777D01*
X164190017Y-109365017D01*
X164158777Y-109390654D01*
X164123138Y-109409704D01*
X164084468Y-109421435D01*
X164038112Y-109426000D01*
X162961888Y-109426000D01*
X162915532Y-109421435D01*
X162876862Y-109409704D01*
X162841223Y-109390654D01*
X162809983Y-109365017D01*
X162784346Y-109333777D01*
X162765296Y-109298138D01*
X162753565Y-109259468D01*
X162749000Y-109213112D01*
X162749000Y-108561888D01*
X162753565Y-108515532D01*
X162765296Y-108476862D01*
X162784346Y-108441223D01*
X162809983Y-108409983D01*
X162841223Y-108384346D01*
X162876862Y-108365296D01*
X162915532Y-108353565D01*
X162961888Y-108349000D01*
X164038112Y-108349000D01*
X164084468Y-108353565D01*
G37*
G36*
X162051000Y-109351000D02*
G01*
X160949000Y-109351000D01*
X160949000Y-108449000D01*
X162051000Y-108449000D01*
X162051000Y-109351000D01*
G37*
G36*
X173551000Y-109351000D02*
G01*
X172449000Y-109351000D01*
X172449000Y-108449000D01*
X173551000Y-108449000D01*
X173551000Y-109351000D01*
G37*
G36*
X160051000Y-109351000D02*
G01*
X158949000Y-109351000D01*
X158949000Y-108449000D01*
X160051000Y-108449000D01*
X160051000Y-109351000D01*
G37*
G36*
X171551000Y-109351000D02*
G01*
X170449000Y-109351000D01*
X170449000Y-108449000D01*
X171551000Y-108449000D01*
X171551000Y-109351000D01*
G37*
G36*
X110296000Y-109176000D02*
G01*
X108194000Y-109176000D01*
X108194000Y-108174000D01*
X110296000Y-108174000D01*
X110296000Y-109176000D01*
G37*
G36*
X121806000Y-109051000D02*
G01*
X116704000Y-109051000D01*
X116704000Y-103949000D01*
X121806000Y-103949000D01*
X121806000Y-109051000D01*
G37*
G36*
X183480166Y-108501000D02*
G01*
X182478166Y-108501000D01*
X182478166Y-107599000D01*
X183480166Y-107599000D01*
X183480166Y-108501000D01*
G37*
G36*
X110296000Y-107906000D02*
G01*
X108194000Y-107906000D01*
X108194000Y-106904000D01*
X110296000Y-106904000D01*
X110296000Y-107906000D01*
G37*
G36*
X215113512Y-106023927D02*
G01*
X215262812Y-106053624D01*
X215426784Y-106121544D01*
X215574354Y-106220147D01*
X215699853Y-106345646D01*
X215798456Y-106493216D01*
X215866376Y-106657188D01*
X215901000Y-106831259D01*
X215901000Y-107008741D01*
X215866376Y-107182812D01*
X215798456Y-107346784D01*
X215699853Y-107494354D01*
X215574354Y-107619853D01*
X215426784Y-107718456D01*
X215262812Y-107786376D01*
X215113512Y-107816073D01*
X215088742Y-107821000D01*
X214911258Y-107821000D01*
X214886488Y-107816073D01*
X214737188Y-107786376D01*
X214573216Y-107718456D01*
X214425646Y-107619853D01*
X214300147Y-107494354D01*
X214201544Y-107346784D01*
X214133624Y-107182812D01*
X214099000Y-107008741D01*
X214099000Y-106831259D01*
X214133624Y-106657188D01*
X214201544Y-106493216D01*
X214300147Y-106345646D01*
X214425646Y-106220147D01*
X214573216Y-106121544D01*
X214737188Y-106053624D01*
X214886488Y-106023927D01*
X214911258Y-106019000D01*
X215088742Y-106019000D01*
X215113512Y-106023927D01*
G37*
G36*
X212573512Y-106023927D02*
G01*
X212722812Y-106053624D01*
X212886784Y-106121544D01*
X213034354Y-106220147D01*
X213159853Y-106345646D01*
X213258456Y-106493216D01*
X213326376Y-106657188D01*
X213361000Y-106831259D01*
X213361000Y-107008741D01*
X213326376Y-107182812D01*
X213258456Y-107346784D01*
X213159853Y-107494354D01*
X213034354Y-107619853D01*
X212886784Y-107718456D01*
X212722812Y-107786376D01*
X212573512Y-107816073D01*
X212548742Y-107821000D01*
X212371258Y-107821000D01*
X212346488Y-107816073D01*
X212197188Y-107786376D01*
X212033216Y-107718456D01*
X211885646Y-107619853D01*
X211760147Y-107494354D01*
X211661544Y-107346784D01*
X211593624Y-107182812D01*
X211559000Y-107008741D01*
X211559000Y-106831259D01*
X211593624Y-106657188D01*
X211661544Y-106493216D01*
X211760147Y-106345646D01*
X211885646Y-106220147D01*
X212033216Y-106121544D01*
X212197188Y-106053624D01*
X212346488Y-106023927D01*
X212371258Y-106019000D01*
X212548742Y-106019000D01*
X212573512Y-106023927D01*
G37*
G36*
X175584468Y-106478565D02*
G01*
X175623138Y-106490296D01*
X175658777Y-106509346D01*
X175690017Y-106534983D01*
X175715654Y-106566223D01*
X175734704Y-106601862D01*
X175746435Y-106640532D01*
X175751000Y-106686888D01*
X175751000Y-107338112D01*
X175746435Y-107384468D01*
X175734704Y-107423138D01*
X175715654Y-107458777D01*
X175690017Y-107490017D01*
X175658777Y-107515654D01*
X175623138Y-107534704D01*
X175584468Y-107546435D01*
X175538112Y-107551000D01*
X174461888Y-107551000D01*
X174415532Y-107546435D01*
X174376862Y-107534704D01*
X174341223Y-107515654D01*
X174309983Y-107490017D01*
X174284346Y-107458777D01*
X174265296Y-107423138D01*
X174253565Y-107384468D01*
X174249000Y-107338112D01*
X174249000Y-106686888D01*
X174253565Y-106640532D01*
X174265296Y-106601862D01*
X174284346Y-106566223D01*
X174309983Y-106534983D01*
X174341223Y-106509346D01*
X174376862Y-106490296D01*
X174415532Y-106478565D01*
X174461888Y-106474000D01*
X175538112Y-106474000D01*
X175584468Y-106478565D01*
G37*
G36*
X164084468Y-106478565D02*
G01*
X164123138Y-106490296D01*
X164158777Y-106509346D01*
X164190017Y-106534983D01*
X164215654Y-106566223D01*
X164234704Y-106601862D01*
X164246435Y-106640532D01*
X164251000Y-106686888D01*
X164251000Y-107338112D01*
X164246435Y-107384468D01*
X164234704Y-107423138D01*
X164215654Y-107458777D01*
X164190017Y-107490017D01*
X164158777Y-107515654D01*
X164123138Y-107534704D01*
X164084468Y-107546435D01*
X164038112Y-107551000D01*
X162961888Y-107551000D01*
X162915532Y-107546435D01*
X162876862Y-107534704D01*
X162841223Y-107515654D01*
X162809983Y-107490017D01*
X162784346Y-107458777D01*
X162765296Y-107423138D01*
X162753565Y-107384468D01*
X162749000Y-107338112D01*
X162749000Y-106686888D01*
X162753565Y-106640532D01*
X162765296Y-106601862D01*
X162784346Y-106566223D01*
X162809983Y-106534983D01*
X162841223Y-106509346D01*
X162876862Y-106490296D01*
X162915532Y-106478565D01*
X162961888Y-106474000D01*
X164038112Y-106474000D01*
X164084468Y-106478565D01*
G37*
G36*
X160051000Y-107451000D02*
G01*
X158949000Y-107451000D01*
X158949000Y-106549000D01*
X160051000Y-106549000D01*
X160051000Y-107451000D01*
G37*
G36*
X162051000Y-107451000D02*
G01*
X160949000Y-107451000D01*
X160949000Y-106549000D01*
X162051000Y-106549000D01*
X162051000Y-107451000D01*
G37*
G36*
X173551000Y-107451000D02*
G01*
X172449000Y-107451000D01*
X172449000Y-106549000D01*
X173551000Y-106549000D01*
X173551000Y-107451000D01*
G37*
G36*
X171551000Y-107451000D02*
G01*
X170449000Y-107451000D01*
X170449000Y-106549000D01*
X171551000Y-106549000D01*
X171551000Y-107451000D01*
G37*
G36*
X110296000Y-106636000D02*
G01*
X108194000Y-106636000D01*
X108194000Y-105634000D01*
X110296000Y-105634000D01*
X110296000Y-106636000D01*
G37*
G36*
X185309467Y-104253565D02*
G01*
X185348137Y-104265296D01*
X185383776Y-104284346D01*
X185415016Y-104309983D01*
X185440653Y-104341223D01*
X185459703Y-104376862D01*
X185471434Y-104415532D01*
X185475999Y-104461888D01*
X185475999Y-105538112D01*
X185471434Y-105584468D01*
X185459703Y-105623138D01*
X185440653Y-105658777D01*
X185415016Y-105690017D01*
X185383776Y-105715654D01*
X185348137Y-105734704D01*
X185309467Y-105746435D01*
X185263111Y-105751000D01*
X184611887Y-105751000D01*
X184565531Y-105746435D01*
X184526861Y-105734704D01*
X184491222Y-105715654D01*
X184459982Y-105690017D01*
X184434345Y-105658777D01*
X184415295Y-105623138D01*
X184403564Y-105584468D01*
X184398999Y-105538112D01*
X184398999Y-104461888D01*
X184403564Y-104415532D01*
X184415295Y-104376862D01*
X184434345Y-104341223D01*
X184459982Y-104309983D01*
X184491222Y-104284346D01*
X184526861Y-104265296D01*
X184565531Y-104253565D01*
X184611887Y-104249000D01*
X185263111Y-104249000D01*
X185309467Y-104253565D01*
G37*
G36*
X183434467Y-104253565D02*
G01*
X183473137Y-104265296D01*
X183508776Y-104284346D01*
X183540016Y-104309983D01*
X183565653Y-104341223D01*
X183584703Y-104376862D01*
X183596434Y-104415532D01*
X183600999Y-104461888D01*
X183600999Y-105538112D01*
X183596434Y-105584468D01*
X183584703Y-105623138D01*
X183565653Y-105658777D01*
X183540016Y-105690017D01*
X183508776Y-105715654D01*
X183473137Y-105734704D01*
X183434467Y-105746435D01*
X183388111Y-105751000D01*
X182736887Y-105751000D01*
X182690531Y-105746435D01*
X182651861Y-105734704D01*
X182616222Y-105715654D01*
X182584982Y-105690017D01*
X182559345Y-105658777D01*
X182540295Y-105623138D01*
X182528564Y-105584468D01*
X182523999Y-105538112D01*
X182523999Y-104461888D01*
X182528564Y-104415532D01*
X182540295Y-104376862D01*
X182559345Y-104341223D01*
X182584982Y-104309983D01*
X182616222Y-104284346D01*
X182651861Y-104265296D01*
X182690531Y-104253565D01*
X182736887Y-104249000D01*
X183388111Y-104249000D01*
X183434467Y-104253565D01*
G37*
G36*
X110296000Y-105366000D02*
G01*
X108194000Y-105366000D01*
X108194000Y-104364000D01*
X110296000Y-104364000D01*
X110296000Y-105366000D01*
G37*
G36*
X110296000Y-104096000D02*
G01*
X108194000Y-104096000D01*
X108194000Y-103094000D01*
X110296000Y-103094000D01*
X110296000Y-104096000D01*
G37*
G36*
X160084468Y-101953565D02*
G01*
X160123138Y-101965296D01*
X160158777Y-101984346D01*
X160190017Y-102009983D01*
X160215654Y-102041223D01*
X160234704Y-102076862D01*
X160246435Y-102115532D01*
X160251000Y-102161888D01*
X160251000Y-102813112D01*
X160246435Y-102859468D01*
X160234704Y-102898138D01*
X160215654Y-102933777D01*
X160190017Y-102965017D01*
X160158777Y-102990654D01*
X160123138Y-103009704D01*
X160084468Y-103021435D01*
X160038112Y-103026000D01*
X158961888Y-103026000D01*
X158915532Y-103021435D01*
X158876862Y-103009704D01*
X158841223Y-102990654D01*
X158809983Y-102965017D01*
X158784346Y-102933777D01*
X158765296Y-102898138D01*
X158753565Y-102859468D01*
X158749000Y-102813112D01*
X158749000Y-102161888D01*
X158753565Y-102115532D01*
X158765296Y-102076862D01*
X158784346Y-102041223D01*
X158809983Y-102009983D01*
X158841223Y-101984346D01*
X158876862Y-101965296D01*
X158915532Y-101953565D01*
X158961888Y-101949000D01*
X160038112Y-101949000D01*
X160084468Y-101953565D01*
G37*
G36*
X164051000Y-102951000D02*
G01*
X162949000Y-102951000D01*
X162949000Y-102049000D01*
X164051000Y-102049000D01*
X164051000Y-102951000D01*
G37*
G36*
X162051000Y-102951000D02*
G01*
X160949000Y-102951000D01*
X160949000Y-102049000D01*
X162051000Y-102049000D01*
X162051000Y-102951000D01*
G37*
G36*
X110296000Y-102826000D02*
G01*
X108194000Y-102826000D01*
X108194000Y-101824000D01*
X110296000Y-101824000D01*
X110296000Y-102826000D01*
G37*
G36*
X110296000Y-101556000D02*
G01*
X108194000Y-101556000D01*
X108194000Y-100554000D01*
X110296000Y-100554000D01*
X110296000Y-101556000D01*
G37*
G36*
X160084468Y-100078565D02*
G01*
X160123138Y-100090296D01*
X160158777Y-100109346D01*
X160190017Y-100134983D01*
X160215654Y-100166223D01*
X160234704Y-100201862D01*
X160246435Y-100240532D01*
X160251000Y-100286888D01*
X160251000Y-100938112D01*
X160246435Y-100984468D01*
X160234704Y-101023138D01*
X160215654Y-101058777D01*
X160190017Y-101090017D01*
X160158777Y-101115654D01*
X160123138Y-101134704D01*
X160084468Y-101146435D01*
X160038112Y-101151000D01*
X158961888Y-101151000D01*
X158915532Y-101146435D01*
X158876862Y-101134704D01*
X158841223Y-101115654D01*
X158809983Y-101090017D01*
X158784346Y-101058777D01*
X158765296Y-101023138D01*
X158753565Y-100984468D01*
X158749000Y-100938112D01*
X158749000Y-100286888D01*
X158753565Y-100240532D01*
X158765296Y-100201862D01*
X158784346Y-100166223D01*
X158809983Y-100134983D01*
X158841223Y-100109346D01*
X158876862Y-100090296D01*
X158915532Y-100078565D01*
X158961888Y-100074000D01*
X160038112Y-100074000D01*
X160084468Y-100078565D01*
G37*
G36*
X164051000Y-101051000D02*
G01*
X162949000Y-101051000D01*
X162949000Y-100149000D01*
X164051000Y-100149000D01*
X164051000Y-101051000D01*
G37*
G36*
X162051000Y-101051000D02*
G01*
X160949000Y-101051000D01*
X160949000Y-100149000D01*
X162051000Y-100149000D01*
X162051000Y-101051000D01*
G37*
G36*
X110296000Y-100286000D02*
G01*
X108194000Y-100286000D01*
X108194000Y-99284000D01*
X110296000Y-99284000D01*
X110296000Y-100286000D01*
G37*
G36*
X115826000Y-98051000D02*
G01*
X114824000Y-98051000D01*
X114824000Y-95949000D01*
X115826000Y-95949000D01*
X115826000Y-98051000D01*
G37*
G36*
X114556000Y-98051000D02*
G01*
X113554000Y-98051000D01*
X113554000Y-95949000D01*
X114556000Y-95949000D01*
X114556000Y-98051000D01*
G37*
G36*
X113286000Y-98051000D02*
G01*
X112284000Y-98051000D01*
X112284000Y-95949000D01*
X113286000Y-95949000D01*
X113286000Y-98051000D01*
G37*
G36*
X112016000Y-98051000D02*
G01*
X111014000Y-98051000D01*
X111014000Y-95949000D01*
X112016000Y-95949000D01*
X112016000Y-98051000D01*
G37*
G36*
X110746000Y-98051000D02*
G01*
X109744000Y-98051000D01*
X109744000Y-95949000D01*
X110746000Y-95949000D01*
X110746000Y-98051000D01*
G37*
G36*
X117096000Y-98051000D02*
G01*
X116094000Y-98051000D01*
X116094000Y-95949000D01*
X117096000Y-95949000D01*
X117096000Y-98051000D01*
G37*
G36*
X118366000Y-98051000D02*
G01*
X117364000Y-98051000D01*
X117364000Y-95949000D01*
X118366000Y-95949000D01*
X118366000Y-98051000D01*
G37*
G36*
X120906000Y-98051000D02*
G01*
X119904000Y-98051000D01*
X119904000Y-95949000D01*
X120906000Y-95949000D01*
X120906000Y-98051000D01*
G37*
G36*
X122176000Y-98051000D02*
G01*
X121174000Y-98051000D01*
X121174000Y-95949000D01*
X122176000Y-95949000D01*
X122176000Y-98051000D01*
G37*
G36*
X123446000Y-98051000D02*
G01*
X122444000Y-98051000D01*
X122444000Y-95949000D01*
X123446000Y-95949000D01*
X123446000Y-98051000D01*
G37*
G36*
X127256000Y-98051000D02*
G01*
X126254000Y-98051000D01*
X126254000Y-95949000D01*
X127256000Y-95949000D01*
X127256000Y-98051000D01*
G37*
G36*
X125986000Y-98051000D02*
G01*
X124984000Y-98051000D01*
X124984000Y-95949000D01*
X125986000Y-95949000D01*
X125986000Y-98051000D01*
G37*
G36*
X124716000Y-98051000D02*
G01*
X123714000Y-98051000D01*
X123714000Y-95949000D01*
X124716000Y-95949000D01*
X124716000Y-98051000D01*
G37*
G36*
X119636000Y-98051000D02*
G01*
X118634000Y-98051000D01*
X118634000Y-95949000D01*
X119636000Y-95949000D01*
X119636000Y-98051000D01*
G37*
G36*
X85237142Y-95218242D02*
G01*
X85385101Y-95279529D01*
X85518255Y-95368499D01*
X85631501Y-95481745D01*
X85720471Y-95614899D01*
X85781758Y-95762858D01*
X85813000Y-95919925D01*
X85813000Y-96080075D01*
X85781758Y-96237142D01*
X85720471Y-96385101D01*
X85631501Y-96518255D01*
X85518255Y-96631501D01*
X85385101Y-96720471D01*
X85237142Y-96781758D01*
X85080075Y-96813000D01*
X84919925Y-96813000D01*
X84762858Y-96781758D01*
X84614899Y-96720471D01*
X84481745Y-96631501D01*
X84368499Y-96518255D01*
X84279529Y-96385101D01*
X84218242Y-96237142D01*
X84187000Y-96080075D01*
X84187000Y-95919925D01*
X84218242Y-95762858D01*
X84279529Y-95614899D01*
X84368499Y-95481745D01*
X84481745Y-95368499D01*
X84614899Y-95279529D01*
X84762858Y-95218242D01*
X84919925Y-95187000D01*
X85080075Y-95187000D01*
X85237142Y-95218242D01*
G37*
G36*
X185237142Y-95218242D02*
G01*
X185385101Y-95279529D01*
X185518255Y-95368499D01*
X185631501Y-95481745D01*
X185720471Y-95614899D01*
X185781758Y-95762858D01*
X185813000Y-95919925D01*
X185813000Y-96080075D01*
X185781758Y-96237142D01*
X185720471Y-96385101D01*
X185631501Y-96518255D01*
X185518255Y-96631501D01*
X185385101Y-96720471D01*
X185237142Y-96781758D01*
X185080075Y-96813000D01*
X184919925Y-96813000D01*
X184762858Y-96781758D01*
X184614899Y-96720471D01*
X184481745Y-96631501D01*
X184368499Y-96518255D01*
X184279529Y-96385101D01*
X184218242Y-96237142D01*
X184187000Y-96080075D01*
X184187000Y-95919925D01*
X184218242Y-95762858D01*
X184279529Y-95614899D01*
X184368499Y-95481745D01*
X184481745Y-95368499D01*
X184614899Y-95279529D01*
X184762858Y-95218242D01*
X184919925Y-95187000D01*
X185080075Y-95187000D01*
X185237142Y-95218242D01*
G37*
G36*
X135237142Y-95218242D02*
G01*
X135385101Y-95279529D01*
X135518255Y-95368499D01*
X135631501Y-95481745D01*
X135720471Y-95614899D01*
X135781758Y-95762858D01*
X135813000Y-95919925D01*
X135813000Y-96080075D01*
X135781758Y-96237142D01*
X135720471Y-96385101D01*
X135631501Y-96518255D01*
X135518255Y-96631501D01*
X135385101Y-96720471D01*
X135237142Y-96781758D01*
X135080075Y-96813000D01*
X134919925Y-96813000D01*
X134762858Y-96781758D01*
X134614899Y-96720471D01*
X134481745Y-96631501D01*
X134368499Y-96518255D01*
X134279529Y-96385101D01*
X134218242Y-96237142D01*
X134187000Y-96080075D01*
X134187000Y-95919925D01*
X134218242Y-95762858D01*
X134279529Y-95614899D01*
X134368499Y-95481745D01*
X134481745Y-95368499D01*
X134614899Y-95279529D01*
X134762858Y-95218242D01*
X134919925Y-95187000D01*
X135080075Y-95187000D01*
X135237142Y-95218242D01*
G37*
G36*
X135846189Y-82210483D02*
G01*
X135846192Y-82210484D01*
X135846191Y-82210484D01*
X136374139Y-82429167D01*
X136849280Y-82746646D01*
X137253354Y-83150720D01*
X137570833Y-83625861D01*
X137570834Y-83625863D01*
X137789517Y-84153811D01*
X137901000Y-84714275D01*
X137901000Y-85285725D01*
X137789517Y-85846189D01*
X137789516Y-85846191D01*
X137570833Y-86374139D01*
X137253354Y-86849280D01*
X136849280Y-87253354D01*
X136374139Y-87570833D01*
X136374138Y-87570834D01*
X136374137Y-87570834D01*
X135846189Y-87789517D01*
X135285725Y-87901000D01*
X134714275Y-87901000D01*
X134153811Y-87789517D01*
X133625863Y-87570834D01*
X133625862Y-87570834D01*
X133625861Y-87570833D01*
X133150720Y-87253354D01*
X132746646Y-86849280D01*
X132429167Y-86374139D01*
X132210484Y-85846191D01*
X132210483Y-85846189D01*
X132099000Y-85285725D01*
X132099000Y-84714275D01*
X132210483Y-84153811D01*
X132429166Y-83625863D01*
X132429167Y-83625861D01*
X132746646Y-83150720D01*
X133150720Y-82746646D01*
X133625861Y-82429167D01*
X134153809Y-82210484D01*
X134153808Y-82210484D01*
X134153811Y-82210483D01*
X134714275Y-82099000D01*
X135285725Y-82099000D01*
X135846189Y-82210483D01*
G37*
G36*
X185846189Y-82210483D02*
G01*
X185846192Y-82210484D01*
X185846191Y-82210484D01*
X186374139Y-82429167D01*
X186849280Y-82746646D01*
X187253354Y-83150720D01*
X187570833Y-83625861D01*
X187570834Y-83625863D01*
X187789517Y-84153811D01*
X187901000Y-84714275D01*
X187901000Y-85285725D01*
X187789517Y-85846189D01*
X187789516Y-85846191D01*
X187570833Y-86374139D01*
X187253354Y-86849280D01*
X186849280Y-87253354D01*
X186374139Y-87570833D01*
X186374138Y-87570834D01*
X186374137Y-87570834D01*
X185846189Y-87789517D01*
X185285725Y-87901000D01*
X184714275Y-87901000D01*
X184153811Y-87789517D01*
X183625863Y-87570834D01*
X183625862Y-87570834D01*
X183625861Y-87570833D01*
X183150720Y-87253354D01*
X182746646Y-86849280D01*
X182429167Y-86374139D01*
X182210484Y-85846191D01*
X182210483Y-85846189D01*
X182099000Y-85285725D01*
X182099000Y-84714275D01*
X182210483Y-84153811D01*
X182429166Y-83625863D01*
X182429167Y-83625861D01*
X182746646Y-83150720D01*
X183150720Y-82746646D01*
X183625861Y-82429167D01*
X184153809Y-82210484D01*
X184153808Y-82210484D01*
X184153811Y-82210483D01*
X184714275Y-82099000D01*
X185285725Y-82099000D01*
X185846189Y-82210483D01*
G37*
G36*
X85846189Y-82210483D02*
G01*
X85846192Y-82210484D01*
X85846191Y-82210484D01*
X86374139Y-82429167D01*
X86849280Y-82746646D01*
X87253354Y-83150720D01*
X87570833Y-83625861D01*
X87570834Y-83625863D01*
X87789517Y-84153811D01*
X87901000Y-84714275D01*
X87901000Y-85285725D01*
X87789517Y-85846189D01*
X87789516Y-85846191D01*
X87570833Y-86374139D01*
X87253354Y-86849280D01*
X86849280Y-87253354D01*
X86374139Y-87570833D01*
X86374138Y-87570834D01*
X86374137Y-87570834D01*
X85846189Y-87789517D01*
X85285725Y-87901000D01*
X84714275Y-87901000D01*
X84153811Y-87789517D01*
X83625863Y-87570834D01*
X83625862Y-87570834D01*
X83625861Y-87570833D01*
X83150720Y-87253354D01*
X82746646Y-86849280D01*
X82429167Y-86374139D01*
X82210484Y-85846191D01*
X82210483Y-85846189D01*
X82099000Y-85285725D01*
X82099000Y-84714275D01*
X82210483Y-84153811D01*
X82429166Y-83625863D01*
X82429167Y-83625861D01*
X82746646Y-83150720D01*
X83150720Y-82746646D01*
X83625861Y-82429167D01*
X84153809Y-82210484D01*
X84153808Y-82210484D01*
X84153811Y-82210483D01*
X84714275Y-82099000D01*
X85285725Y-82099000D01*
X85846189Y-82210483D01*
G37*
G36*
X85237142Y-73218242D02*
G01*
X85385101Y-73279529D01*
X85518255Y-73368499D01*
X85631501Y-73481745D01*
X85720471Y-73614899D01*
X85781758Y-73762858D01*
X85813000Y-73919925D01*
X85813000Y-74080075D01*
X85781758Y-74237142D01*
X85720471Y-74385101D01*
X85631501Y-74518255D01*
X85518255Y-74631501D01*
X85385101Y-74720471D01*
X85237142Y-74781758D01*
X85080075Y-74813000D01*
X84919925Y-74813000D01*
X84762858Y-74781758D01*
X84614899Y-74720471D01*
X84481745Y-74631501D01*
X84368499Y-74518255D01*
X84279529Y-74385101D01*
X84218242Y-74237142D01*
X84187000Y-74080075D01*
X84187000Y-73919925D01*
X84218242Y-73762858D01*
X84279529Y-73614899D01*
X84368499Y-73481745D01*
X84481745Y-73368499D01*
X84614899Y-73279529D01*
X84762858Y-73218242D01*
X84919925Y-73187000D01*
X85080075Y-73187000D01*
X85237142Y-73218242D01*
G37*
G36*
X185237142Y-73218242D02*
G01*
X185385101Y-73279529D01*
X185518255Y-73368499D01*
X185631501Y-73481745D01*
X185720471Y-73614899D01*
X185781758Y-73762858D01*
X185813000Y-73919925D01*
X185813000Y-74080075D01*
X185781758Y-74237142D01*
X185720471Y-74385101D01*
X185631501Y-74518255D01*
X185518255Y-74631501D01*
X185385101Y-74720471D01*
X185237142Y-74781758D01*
X185080075Y-74813000D01*
X184919925Y-74813000D01*
X184762858Y-74781758D01*
X184614899Y-74720471D01*
X184481745Y-74631501D01*
X184368499Y-74518255D01*
X184279529Y-74385101D01*
X184218242Y-74237142D01*
X184187000Y-74080075D01*
X184187000Y-73919925D01*
X184218242Y-73762858D01*
X184279529Y-73614899D01*
X184368499Y-73481745D01*
X184481745Y-73368499D01*
X184614899Y-73279529D01*
X184762858Y-73218242D01*
X184919925Y-73187000D01*
X185080075Y-73187000D01*
X185237142Y-73218242D01*
G37*
G36*
X135237142Y-73218242D02*
G01*
X135385101Y-73279529D01*
X135518255Y-73368499D01*
X135631501Y-73481745D01*
X135720471Y-73614899D01*
X135781758Y-73762858D01*
X135813000Y-73919925D01*
X135813000Y-74080075D01*
X135781758Y-74237142D01*
X135720471Y-74385101D01*
X135631501Y-74518255D01*
X135518255Y-74631501D01*
X135385101Y-74720471D01*
X135237142Y-74781758D01*
X135080075Y-74813000D01*
X134919925Y-74813000D01*
X134762858Y-74781758D01*
X134614899Y-74720471D01*
X134481745Y-74631501D01*
X134368499Y-74518255D01*
X134279529Y-74385101D01*
X134218242Y-74237142D01*
X134187000Y-74080075D01*
X134187000Y-73919925D01*
X134218242Y-73762858D01*
X134279529Y-73614899D01*
X134368499Y-73481745D01*
X134481745Y-73368499D01*
X134614899Y-73279529D01*
X134762858Y-73218242D01*
X134919925Y-73187000D01*
X135080075Y-73187000D01*
X135237142Y-73218242D01*
G37*
G36*
X60846189Y-57210483D02*
G01*
X60846192Y-57210484D01*
X60846191Y-57210484D01*
X61374139Y-57429167D01*
X61849280Y-57746646D01*
X62253354Y-58150720D01*
X62570833Y-58625861D01*
X62570834Y-58625863D01*
X62789517Y-59153811D01*
X62901000Y-59714275D01*
X62901000Y-60285725D01*
X62789517Y-60846189D01*
X62789516Y-60846191D01*
X62570833Y-61374139D01*
X62253354Y-61849280D01*
X61849280Y-62253354D01*
X61374139Y-62570833D01*
X61374138Y-62570834D01*
X61374137Y-62570834D01*
X60846189Y-62789517D01*
X60285725Y-62901000D01*
X59714275Y-62901000D01*
X59153811Y-62789517D01*
X58625863Y-62570834D01*
X58625862Y-62570834D01*
X58625861Y-62570833D01*
X58150720Y-62253354D01*
X57746646Y-61849280D01*
X57429167Y-61374139D01*
X57210484Y-60846191D01*
X57210483Y-60846189D01*
X57099000Y-60285725D01*
X57099000Y-59714275D01*
X57210483Y-59153811D01*
X57429166Y-58625863D01*
X57429167Y-58625861D01*
X57746646Y-58150720D01*
X58150720Y-57746646D01*
X58625861Y-57429167D01*
X59153809Y-57210484D01*
X59153808Y-57210484D01*
X59153811Y-57210483D01*
X59714275Y-57099000D01*
X60285725Y-57099000D01*
X60846189Y-57210483D01*
G37*
G36*
X210846189Y-57210483D02*
G01*
X210846192Y-57210484D01*
X210846191Y-57210484D01*
X211374139Y-57429167D01*
X211849280Y-57746646D01*
X212253354Y-58150720D01*
X212570833Y-58625861D01*
X212570834Y-58625863D01*
X212789517Y-59153811D01*
X212901000Y-59714275D01*
X212901000Y-60285725D01*
X212789517Y-60846189D01*
X212789516Y-60846191D01*
X212570833Y-61374139D01*
X212253354Y-61849280D01*
X211849280Y-62253354D01*
X211374139Y-62570833D01*
X211374138Y-62570834D01*
X211374137Y-62570834D01*
X210846189Y-62789517D01*
X210285725Y-62901000D01*
X209714275Y-62901000D01*
X209153811Y-62789517D01*
X208625863Y-62570834D01*
X208625862Y-62570834D01*
X208625861Y-62570833D01*
X208150720Y-62253354D01*
X207746646Y-61849280D01*
X207429167Y-61374139D01*
X207210484Y-60846191D01*
X207210483Y-60846189D01*
X207099000Y-60285725D01*
X207099000Y-59714275D01*
X207210483Y-59153811D01*
X207429166Y-58625863D01*
X207429167Y-58625861D01*
X207746646Y-58150720D01*
X208150720Y-57746646D01*
X208625861Y-57429167D01*
X209153809Y-57210484D01*
X209153808Y-57210484D01*
X209153811Y-57210483D01*
X209714275Y-57099000D01*
X210285725Y-57099000D01*
X210846189Y-57210483D01*
G37*
M02*
