G04 #@! TF.GenerationSoftware,KiCad,Pcbnew,5.1.5*
G04 #@! TF.CreationDate,2020-03-06T12:13:38+01:00*
G04 #@! TF.ProjectId,e-chessboard,652d6368-6573-4736-926f-6172642e6b69,0.1*
G04 #@! TF.SameCoordinates,Original*
G04 #@! TF.FileFunction,Soldermask,Top*
G04 #@! TF.FilePolarity,Negative*
%FSLAX46Y46*%
G04 Gerber Fmt 4.6, Leading zero omitted, Abs format (unit mm)*
G04 Created by KiCad (PCBNEW 5.1.5) date 2020-03-06 12:13:38*
%MOMM*%
%LPD*%
G04 APERTURE LIST*
%ADD10C,0.100000*%
G04 APERTURE END LIST*
D10*
G36*
X136338674Y-216153465D02*
G01*
X136376367Y-216164899D01*
X136411103Y-216183466D01*
X136441548Y-216208452D01*
X136466534Y-216238897D01*
X136485101Y-216273633D01*
X136496535Y-216311326D01*
X136501000Y-216356661D01*
X136501000Y-217193339D01*
X136496535Y-217238674D01*
X136485101Y-217276367D01*
X136466534Y-217311103D01*
X136441548Y-217341548D01*
X136411103Y-217366534D01*
X136376367Y-217385101D01*
X136338674Y-217396535D01*
X136293339Y-217401000D01*
X135206661Y-217401000D01*
X135161326Y-217396535D01*
X135123633Y-217385101D01*
X135088897Y-217366534D01*
X135058452Y-217341548D01*
X135033466Y-217311103D01*
X135014899Y-217276367D01*
X135003465Y-217238674D01*
X134999000Y-217193339D01*
X134999000Y-216356661D01*
X135003465Y-216311326D01*
X135014899Y-216273633D01*
X135033466Y-216238897D01*
X135058452Y-216208452D01*
X135088897Y-216183466D01*
X135123633Y-216164899D01*
X135161326Y-216153465D01*
X135206661Y-216149000D01*
X136293339Y-216149000D01*
X136338674Y-216153465D01*
G37*
G36*
X136338674Y-214103465D02*
G01*
X136376367Y-214114899D01*
X136411103Y-214133466D01*
X136441548Y-214158452D01*
X136466534Y-214188897D01*
X136485101Y-214223633D01*
X136496535Y-214261326D01*
X136501000Y-214306661D01*
X136501000Y-215143339D01*
X136496535Y-215188674D01*
X136485101Y-215226367D01*
X136466534Y-215261103D01*
X136441548Y-215291548D01*
X136411103Y-215316534D01*
X136376367Y-215335101D01*
X136338674Y-215346535D01*
X136293339Y-215351000D01*
X135206661Y-215351000D01*
X135161326Y-215346535D01*
X135123633Y-215335101D01*
X135088897Y-215316534D01*
X135058452Y-215291548D01*
X135033466Y-215261103D01*
X135014899Y-215226367D01*
X135003465Y-215188674D01*
X134999000Y-215143339D01*
X134999000Y-214306661D01*
X135003465Y-214261326D01*
X135014899Y-214223633D01*
X135033466Y-214188897D01*
X135058452Y-214158452D01*
X135088897Y-214133466D01*
X135123633Y-214114899D01*
X135161326Y-214103465D01*
X135206661Y-214099000D01*
X136293339Y-214099000D01*
X136338674Y-214103465D01*
G37*
G36*
X143514928Y-211076764D02*
G01*
X143536009Y-211083160D01*
X143555445Y-211093548D01*
X143572476Y-211107524D01*
X143586452Y-211124555D01*
X143596840Y-211143991D01*
X143603236Y-211165072D01*
X143606000Y-211193140D01*
X143606000Y-213106860D01*
X143603236Y-213134928D01*
X143596840Y-213156009D01*
X143586452Y-213175445D01*
X143572476Y-213192476D01*
X143555445Y-213206452D01*
X143536009Y-213216840D01*
X143514928Y-213223236D01*
X143486860Y-213226000D01*
X143023140Y-213226000D01*
X142995072Y-213223236D01*
X142973991Y-213216840D01*
X142954555Y-213206452D01*
X142937524Y-213192476D01*
X142923548Y-213175445D01*
X142913160Y-213156009D01*
X142906764Y-213134928D01*
X142904000Y-213106860D01*
X142904000Y-211193140D01*
X142906764Y-211165072D01*
X142913160Y-211143991D01*
X142923548Y-211124555D01*
X142937524Y-211107524D01*
X142954555Y-211093548D01*
X142973991Y-211083160D01*
X142995072Y-211076764D01*
X143023140Y-211074000D01*
X143486860Y-211074000D01*
X143514928Y-211076764D01*
G37*
G36*
X133354928Y-211076764D02*
G01*
X133376009Y-211083160D01*
X133395445Y-211093548D01*
X133412476Y-211107524D01*
X133426452Y-211124555D01*
X133436840Y-211143991D01*
X133443236Y-211165072D01*
X133446000Y-211193140D01*
X133446000Y-213106860D01*
X133443236Y-213134928D01*
X133436840Y-213156009D01*
X133426452Y-213175445D01*
X133412476Y-213192476D01*
X133395445Y-213206452D01*
X133376009Y-213216840D01*
X133354928Y-213223236D01*
X133326860Y-213226000D01*
X132863140Y-213226000D01*
X132835072Y-213223236D01*
X132813991Y-213216840D01*
X132794555Y-213206452D01*
X132777524Y-213192476D01*
X132763548Y-213175445D01*
X132753160Y-213156009D01*
X132746764Y-213134928D01*
X132744000Y-213106860D01*
X132744000Y-211193140D01*
X132746764Y-211165072D01*
X132753160Y-211143991D01*
X132763548Y-211124555D01*
X132777524Y-211107524D01*
X132794555Y-211093548D01*
X132813991Y-211083160D01*
X132835072Y-211076764D01*
X132863140Y-211074000D01*
X133326860Y-211074000D01*
X133354928Y-211076764D01*
G37*
G36*
X127004928Y-211076764D02*
G01*
X127026009Y-211083160D01*
X127045445Y-211093548D01*
X127062476Y-211107524D01*
X127076452Y-211124555D01*
X127086840Y-211143991D01*
X127093236Y-211165072D01*
X127096000Y-211193140D01*
X127096000Y-213106860D01*
X127093236Y-213134928D01*
X127086840Y-213156009D01*
X127076452Y-213175445D01*
X127062476Y-213192476D01*
X127045445Y-213206452D01*
X127026009Y-213216840D01*
X127004928Y-213223236D01*
X126976860Y-213226000D01*
X126513140Y-213226000D01*
X126485072Y-213223236D01*
X126463991Y-213216840D01*
X126444555Y-213206452D01*
X126427524Y-213192476D01*
X126413548Y-213175445D01*
X126403160Y-213156009D01*
X126396764Y-213134928D01*
X126394000Y-213106860D01*
X126394000Y-211193140D01*
X126396764Y-211165072D01*
X126403160Y-211143991D01*
X126413548Y-211124555D01*
X126427524Y-211107524D01*
X126444555Y-211093548D01*
X126463991Y-211083160D01*
X126485072Y-211076764D01*
X126513140Y-211074000D01*
X126976860Y-211074000D01*
X127004928Y-211076764D01*
G37*
G36*
X128274928Y-211076764D02*
G01*
X128296009Y-211083160D01*
X128315445Y-211093548D01*
X128332476Y-211107524D01*
X128346452Y-211124555D01*
X128356840Y-211143991D01*
X128363236Y-211165072D01*
X128366000Y-211193140D01*
X128366000Y-213106860D01*
X128363236Y-213134928D01*
X128356840Y-213156009D01*
X128346452Y-213175445D01*
X128332476Y-213192476D01*
X128315445Y-213206452D01*
X128296009Y-213216840D01*
X128274928Y-213223236D01*
X128246860Y-213226000D01*
X127783140Y-213226000D01*
X127755072Y-213223236D01*
X127733991Y-213216840D01*
X127714555Y-213206452D01*
X127697524Y-213192476D01*
X127683548Y-213175445D01*
X127673160Y-213156009D01*
X127666764Y-213134928D01*
X127664000Y-213106860D01*
X127664000Y-211193140D01*
X127666764Y-211165072D01*
X127673160Y-211143991D01*
X127683548Y-211124555D01*
X127697524Y-211107524D01*
X127714555Y-211093548D01*
X127733991Y-211083160D01*
X127755072Y-211076764D01*
X127783140Y-211074000D01*
X128246860Y-211074000D01*
X128274928Y-211076764D01*
G37*
G36*
X129544928Y-211076764D02*
G01*
X129566009Y-211083160D01*
X129585445Y-211093548D01*
X129602476Y-211107524D01*
X129616452Y-211124555D01*
X129626840Y-211143991D01*
X129633236Y-211165072D01*
X129636000Y-211193140D01*
X129636000Y-213106860D01*
X129633236Y-213134928D01*
X129626840Y-213156009D01*
X129616452Y-213175445D01*
X129602476Y-213192476D01*
X129585445Y-213206452D01*
X129566009Y-213216840D01*
X129544928Y-213223236D01*
X129516860Y-213226000D01*
X129053140Y-213226000D01*
X129025072Y-213223236D01*
X129003991Y-213216840D01*
X128984555Y-213206452D01*
X128967524Y-213192476D01*
X128953548Y-213175445D01*
X128943160Y-213156009D01*
X128936764Y-213134928D01*
X128934000Y-213106860D01*
X128934000Y-211193140D01*
X128936764Y-211165072D01*
X128943160Y-211143991D01*
X128953548Y-211124555D01*
X128967524Y-211107524D01*
X128984555Y-211093548D01*
X129003991Y-211083160D01*
X129025072Y-211076764D01*
X129053140Y-211074000D01*
X129516860Y-211074000D01*
X129544928Y-211076764D01*
G37*
G36*
X130814928Y-211076764D02*
G01*
X130836009Y-211083160D01*
X130855445Y-211093548D01*
X130872476Y-211107524D01*
X130886452Y-211124555D01*
X130896840Y-211143991D01*
X130903236Y-211165072D01*
X130906000Y-211193140D01*
X130906000Y-213106860D01*
X130903236Y-213134928D01*
X130896840Y-213156009D01*
X130886452Y-213175445D01*
X130872476Y-213192476D01*
X130855445Y-213206452D01*
X130836009Y-213216840D01*
X130814928Y-213223236D01*
X130786860Y-213226000D01*
X130323140Y-213226000D01*
X130295072Y-213223236D01*
X130273991Y-213216840D01*
X130254555Y-213206452D01*
X130237524Y-213192476D01*
X130223548Y-213175445D01*
X130213160Y-213156009D01*
X130206764Y-213134928D01*
X130204000Y-213106860D01*
X130204000Y-211193140D01*
X130206764Y-211165072D01*
X130213160Y-211143991D01*
X130223548Y-211124555D01*
X130237524Y-211107524D01*
X130254555Y-211093548D01*
X130273991Y-211083160D01*
X130295072Y-211076764D01*
X130323140Y-211074000D01*
X130786860Y-211074000D01*
X130814928Y-211076764D01*
G37*
G36*
X132084928Y-211076764D02*
G01*
X132106009Y-211083160D01*
X132125445Y-211093548D01*
X132142476Y-211107524D01*
X132156452Y-211124555D01*
X132166840Y-211143991D01*
X132173236Y-211165072D01*
X132176000Y-211193140D01*
X132176000Y-213106860D01*
X132173236Y-213134928D01*
X132166840Y-213156009D01*
X132156452Y-213175445D01*
X132142476Y-213192476D01*
X132125445Y-213206452D01*
X132106009Y-213216840D01*
X132084928Y-213223236D01*
X132056860Y-213226000D01*
X131593140Y-213226000D01*
X131565072Y-213223236D01*
X131543991Y-213216840D01*
X131524555Y-213206452D01*
X131507524Y-213192476D01*
X131493548Y-213175445D01*
X131483160Y-213156009D01*
X131476764Y-213134928D01*
X131474000Y-213106860D01*
X131474000Y-211193140D01*
X131476764Y-211165072D01*
X131483160Y-211143991D01*
X131493548Y-211124555D01*
X131507524Y-211107524D01*
X131524555Y-211093548D01*
X131543991Y-211083160D01*
X131565072Y-211076764D01*
X131593140Y-211074000D01*
X132056860Y-211074000D01*
X132084928Y-211076764D01*
G37*
G36*
X134624928Y-211076764D02*
G01*
X134646009Y-211083160D01*
X134665445Y-211093548D01*
X134682476Y-211107524D01*
X134696452Y-211124555D01*
X134706840Y-211143991D01*
X134713236Y-211165072D01*
X134716000Y-211193140D01*
X134716000Y-213106860D01*
X134713236Y-213134928D01*
X134706840Y-213156009D01*
X134696452Y-213175445D01*
X134682476Y-213192476D01*
X134665445Y-213206452D01*
X134646009Y-213216840D01*
X134624928Y-213223236D01*
X134596860Y-213226000D01*
X134133140Y-213226000D01*
X134105072Y-213223236D01*
X134083991Y-213216840D01*
X134064555Y-213206452D01*
X134047524Y-213192476D01*
X134033548Y-213175445D01*
X134023160Y-213156009D01*
X134016764Y-213134928D01*
X134014000Y-213106860D01*
X134014000Y-211193140D01*
X134016764Y-211165072D01*
X134023160Y-211143991D01*
X134033548Y-211124555D01*
X134047524Y-211107524D01*
X134064555Y-211093548D01*
X134083991Y-211083160D01*
X134105072Y-211076764D01*
X134133140Y-211074000D01*
X134596860Y-211074000D01*
X134624928Y-211076764D01*
G37*
G36*
X137164928Y-211076764D02*
G01*
X137186009Y-211083160D01*
X137205445Y-211093548D01*
X137222476Y-211107524D01*
X137236452Y-211124555D01*
X137246840Y-211143991D01*
X137253236Y-211165072D01*
X137256000Y-211193140D01*
X137256000Y-213106860D01*
X137253236Y-213134928D01*
X137246840Y-213156009D01*
X137236452Y-213175445D01*
X137222476Y-213192476D01*
X137205445Y-213206452D01*
X137186009Y-213216840D01*
X137164928Y-213223236D01*
X137136860Y-213226000D01*
X136673140Y-213226000D01*
X136645072Y-213223236D01*
X136623991Y-213216840D01*
X136604555Y-213206452D01*
X136587524Y-213192476D01*
X136573548Y-213175445D01*
X136563160Y-213156009D01*
X136556764Y-213134928D01*
X136554000Y-213106860D01*
X136554000Y-211193140D01*
X136556764Y-211165072D01*
X136563160Y-211143991D01*
X136573548Y-211124555D01*
X136587524Y-211107524D01*
X136604555Y-211093548D01*
X136623991Y-211083160D01*
X136645072Y-211076764D01*
X136673140Y-211074000D01*
X137136860Y-211074000D01*
X137164928Y-211076764D01*
G37*
G36*
X138434928Y-211076764D02*
G01*
X138456009Y-211083160D01*
X138475445Y-211093548D01*
X138492476Y-211107524D01*
X138506452Y-211124555D01*
X138516840Y-211143991D01*
X138523236Y-211165072D01*
X138526000Y-211193140D01*
X138526000Y-213106860D01*
X138523236Y-213134928D01*
X138516840Y-213156009D01*
X138506452Y-213175445D01*
X138492476Y-213192476D01*
X138475445Y-213206452D01*
X138456009Y-213216840D01*
X138434928Y-213223236D01*
X138406860Y-213226000D01*
X137943140Y-213226000D01*
X137915072Y-213223236D01*
X137893991Y-213216840D01*
X137874555Y-213206452D01*
X137857524Y-213192476D01*
X137843548Y-213175445D01*
X137833160Y-213156009D01*
X137826764Y-213134928D01*
X137824000Y-213106860D01*
X137824000Y-211193140D01*
X137826764Y-211165072D01*
X137833160Y-211143991D01*
X137843548Y-211124555D01*
X137857524Y-211107524D01*
X137874555Y-211093548D01*
X137893991Y-211083160D01*
X137915072Y-211076764D01*
X137943140Y-211074000D01*
X138406860Y-211074000D01*
X138434928Y-211076764D01*
G37*
G36*
X139704928Y-211076764D02*
G01*
X139726009Y-211083160D01*
X139745445Y-211093548D01*
X139762476Y-211107524D01*
X139776452Y-211124555D01*
X139786840Y-211143991D01*
X139793236Y-211165072D01*
X139796000Y-211193140D01*
X139796000Y-213106860D01*
X139793236Y-213134928D01*
X139786840Y-213156009D01*
X139776452Y-213175445D01*
X139762476Y-213192476D01*
X139745445Y-213206452D01*
X139726009Y-213216840D01*
X139704928Y-213223236D01*
X139676860Y-213226000D01*
X139213140Y-213226000D01*
X139185072Y-213223236D01*
X139163991Y-213216840D01*
X139144555Y-213206452D01*
X139127524Y-213192476D01*
X139113548Y-213175445D01*
X139103160Y-213156009D01*
X139096764Y-213134928D01*
X139094000Y-213106860D01*
X139094000Y-211193140D01*
X139096764Y-211165072D01*
X139103160Y-211143991D01*
X139113548Y-211124555D01*
X139127524Y-211107524D01*
X139144555Y-211093548D01*
X139163991Y-211083160D01*
X139185072Y-211076764D01*
X139213140Y-211074000D01*
X139676860Y-211074000D01*
X139704928Y-211076764D01*
G37*
G36*
X140974928Y-211076764D02*
G01*
X140996009Y-211083160D01*
X141015445Y-211093548D01*
X141032476Y-211107524D01*
X141046452Y-211124555D01*
X141056840Y-211143991D01*
X141063236Y-211165072D01*
X141066000Y-211193140D01*
X141066000Y-213106860D01*
X141063236Y-213134928D01*
X141056840Y-213156009D01*
X141046452Y-213175445D01*
X141032476Y-213192476D01*
X141015445Y-213206452D01*
X140996009Y-213216840D01*
X140974928Y-213223236D01*
X140946860Y-213226000D01*
X140483140Y-213226000D01*
X140455072Y-213223236D01*
X140433991Y-213216840D01*
X140414555Y-213206452D01*
X140397524Y-213192476D01*
X140383548Y-213175445D01*
X140373160Y-213156009D01*
X140366764Y-213134928D01*
X140364000Y-213106860D01*
X140364000Y-211193140D01*
X140366764Y-211165072D01*
X140373160Y-211143991D01*
X140383548Y-211124555D01*
X140397524Y-211107524D01*
X140414555Y-211093548D01*
X140433991Y-211083160D01*
X140455072Y-211076764D01*
X140483140Y-211074000D01*
X140946860Y-211074000D01*
X140974928Y-211076764D01*
G37*
G36*
X142244928Y-211076764D02*
G01*
X142266009Y-211083160D01*
X142285445Y-211093548D01*
X142302476Y-211107524D01*
X142316452Y-211124555D01*
X142326840Y-211143991D01*
X142333236Y-211165072D01*
X142336000Y-211193140D01*
X142336000Y-213106860D01*
X142333236Y-213134928D01*
X142326840Y-213156009D01*
X142316452Y-213175445D01*
X142302476Y-213192476D01*
X142285445Y-213206452D01*
X142266009Y-213216840D01*
X142244928Y-213223236D01*
X142216860Y-213226000D01*
X141753140Y-213226000D01*
X141725072Y-213223236D01*
X141703991Y-213216840D01*
X141684555Y-213206452D01*
X141667524Y-213192476D01*
X141653548Y-213175445D01*
X141643160Y-213156009D01*
X141636764Y-213134928D01*
X141634000Y-213106860D01*
X141634000Y-211193140D01*
X141636764Y-211165072D01*
X141643160Y-211143991D01*
X141653548Y-211124555D01*
X141667524Y-211107524D01*
X141684555Y-211093548D01*
X141703991Y-211083160D01*
X141725072Y-211076764D01*
X141753140Y-211074000D01*
X142216860Y-211074000D01*
X142244928Y-211076764D01*
G37*
G36*
X135894928Y-211076764D02*
G01*
X135916009Y-211083160D01*
X135935445Y-211093548D01*
X135952476Y-211107524D01*
X135966452Y-211124555D01*
X135976840Y-211143991D01*
X135983236Y-211165072D01*
X135986000Y-211193140D01*
X135986000Y-213106860D01*
X135983236Y-213134928D01*
X135976840Y-213156009D01*
X135966452Y-213175445D01*
X135952476Y-213192476D01*
X135935445Y-213206452D01*
X135916009Y-213216840D01*
X135894928Y-213223236D01*
X135866860Y-213226000D01*
X135403140Y-213226000D01*
X135375072Y-213223236D01*
X135353991Y-213216840D01*
X135334555Y-213206452D01*
X135317524Y-213192476D01*
X135303548Y-213175445D01*
X135293160Y-213156009D01*
X135286764Y-213134928D01*
X135284000Y-213106860D01*
X135284000Y-211193140D01*
X135286764Y-211165072D01*
X135293160Y-211143991D01*
X135303548Y-211124555D01*
X135317524Y-211107524D01*
X135334555Y-211093548D01*
X135353991Y-211083160D01*
X135375072Y-211076764D01*
X135403140Y-211074000D01*
X135866860Y-211074000D01*
X135894928Y-211076764D01*
G37*
G36*
X210846189Y-207210483D02*
G01*
X210846192Y-207210484D01*
X210846191Y-207210484D01*
X211374139Y-207429167D01*
X211849280Y-207746646D01*
X212253354Y-208150720D01*
X212570833Y-208625861D01*
X212570834Y-208625863D01*
X212789517Y-209153811D01*
X212901000Y-209714275D01*
X212901000Y-210285725D01*
X212789517Y-210846189D01*
X212674214Y-211124555D01*
X212570833Y-211374139D01*
X212253354Y-211849280D01*
X211849280Y-212253354D01*
X211374139Y-212570833D01*
X211374138Y-212570834D01*
X211374137Y-212570834D01*
X210846189Y-212789517D01*
X210285725Y-212901000D01*
X209714275Y-212901000D01*
X209153811Y-212789517D01*
X208625863Y-212570834D01*
X208625862Y-212570834D01*
X208625861Y-212570833D01*
X208150720Y-212253354D01*
X207746646Y-211849280D01*
X207429167Y-211374139D01*
X207325786Y-211124555D01*
X207210483Y-210846189D01*
X207099000Y-210285725D01*
X207099000Y-209714275D01*
X207210483Y-209153811D01*
X207429166Y-208625863D01*
X207429167Y-208625861D01*
X207746646Y-208150720D01*
X208150720Y-207746646D01*
X208625861Y-207429167D01*
X209153809Y-207210484D01*
X209153808Y-207210484D01*
X209153811Y-207210483D01*
X209714275Y-207099000D01*
X210285725Y-207099000D01*
X210846189Y-207210483D01*
G37*
G36*
X60846189Y-207210483D02*
G01*
X60846192Y-207210484D01*
X60846191Y-207210484D01*
X61374139Y-207429167D01*
X61849280Y-207746646D01*
X62253354Y-208150720D01*
X62570833Y-208625861D01*
X62570834Y-208625863D01*
X62789517Y-209153811D01*
X62901000Y-209714275D01*
X62901000Y-210285725D01*
X62789517Y-210846189D01*
X62674214Y-211124555D01*
X62570833Y-211374139D01*
X62253354Y-211849280D01*
X61849280Y-212253354D01*
X61374139Y-212570833D01*
X61374138Y-212570834D01*
X61374137Y-212570834D01*
X60846189Y-212789517D01*
X60285725Y-212901000D01*
X59714275Y-212901000D01*
X59153811Y-212789517D01*
X58625863Y-212570834D01*
X58625862Y-212570834D01*
X58625861Y-212570833D01*
X58150720Y-212253354D01*
X57746646Y-211849280D01*
X57429167Y-211374139D01*
X57325786Y-211124555D01*
X57210483Y-210846189D01*
X57099000Y-210285725D01*
X57099000Y-209714275D01*
X57210483Y-209153811D01*
X57429166Y-208625863D01*
X57429167Y-208625861D01*
X57746646Y-208150720D01*
X58150720Y-207746646D01*
X58625861Y-207429167D01*
X59153809Y-207210484D01*
X59153808Y-207210484D01*
X59153811Y-207210483D01*
X59714275Y-207099000D01*
X60285725Y-207099000D01*
X60846189Y-207210483D01*
G37*
G36*
X132084928Y-201776764D02*
G01*
X132106009Y-201783160D01*
X132125445Y-201793548D01*
X132142476Y-201807524D01*
X132156452Y-201824555D01*
X132166840Y-201843991D01*
X132173236Y-201865072D01*
X132176000Y-201893140D01*
X132176000Y-203806860D01*
X132173236Y-203834928D01*
X132166840Y-203856009D01*
X132156452Y-203875445D01*
X132142476Y-203892476D01*
X132125445Y-203906452D01*
X132106009Y-203916840D01*
X132084928Y-203923236D01*
X132056860Y-203926000D01*
X131593140Y-203926000D01*
X131565072Y-203923236D01*
X131543991Y-203916840D01*
X131524555Y-203906452D01*
X131507524Y-203892476D01*
X131493548Y-203875445D01*
X131483160Y-203856009D01*
X131476764Y-203834928D01*
X131474000Y-203806860D01*
X131474000Y-201893140D01*
X131476764Y-201865072D01*
X131483160Y-201843991D01*
X131493548Y-201824555D01*
X131507524Y-201807524D01*
X131524555Y-201793548D01*
X131543991Y-201783160D01*
X131565072Y-201776764D01*
X131593140Y-201774000D01*
X132056860Y-201774000D01*
X132084928Y-201776764D01*
G37*
G36*
X142244928Y-201776764D02*
G01*
X142266009Y-201783160D01*
X142285445Y-201793548D01*
X142302476Y-201807524D01*
X142316452Y-201824555D01*
X142326840Y-201843991D01*
X142333236Y-201865072D01*
X142336000Y-201893140D01*
X142336000Y-203806860D01*
X142333236Y-203834928D01*
X142326840Y-203856009D01*
X142316452Y-203875445D01*
X142302476Y-203892476D01*
X142285445Y-203906452D01*
X142266009Y-203916840D01*
X142244928Y-203923236D01*
X142216860Y-203926000D01*
X141753140Y-203926000D01*
X141725072Y-203923236D01*
X141703991Y-203916840D01*
X141684555Y-203906452D01*
X141667524Y-203892476D01*
X141653548Y-203875445D01*
X141643160Y-203856009D01*
X141636764Y-203834928D01*
X141634000Y-203806860D01*
X141634000Y-201893140D01*
X141636764Y-201865072D01*
X141643160Y-201843991D01*
X141653548Y-201824555D01*
X141667524Y-201807524D01*
X141684555Y-201793548D01*
X141703991Y-201783160D01*
X141725072Y-201776764D01*
X141753140Y-201774000D01*
X142216860Y-201774000D01*
X142244928Y-201776764D01*
G37*
G36*
X140974928Y-201776764D02*
G01*
X140996009Y-201783160D01*
X141015445Y-201793548D01*
X141032476Y-201807524D01*
X141046452Y-201824555D01*
X141056840Y-201843991D01*
X141063236Y-201865072D01*
X141066000Y-201893140D01*
X141066000Y-203806860D01*
X141063236Y-203834928D01*
X141056840Y-203856009D01*
X141046452Y-203875445D01*
X141032476Y-203892476D01*
X141015445Y-203906452D01*
X140996009Y-203916840D01*
X140974928Y-203923236D01*
X140946860Y-203926000D01*
X140483140Y-203926000D01*
X140455072Y-203923236D01*
X140433991Y-203916840D01*
X140414555Y-203906452D01*
X140397524Y-203892476D01*
X140383548Y-203875445D01*
X140373160Y-203856009D01*
X140366764Y-203834928D01*
X140364000Y-203806860D01*
X140364000Y-201893140D01*
X140366764Y-201865072D01*
X140373160Y-201843991D01*
X140383548Y-201824555D01*
X140397524Y-201807524D01*
X140414555Y-201793548D01*
X140433991Y-201783160D01*
X140455072Y-201776764D01*
X140483140Y-201774000D01*
X140946860Y-201774000D01*
X140974928Y-201776764D01*
G37*
G36*
X139704928Y-201776764D02*
G01*
X139726009Y-201783160D01*
X139745445Y-201793548D01*
X139762476Y-201807524D01*
X139776452Y-201824555D01*
X139786840Y-201843991D01*
X139793236Y-201865072D01*
X139796000Y-201893140D01*
X139796000Y-203806860D01*
X139793236Y-203834928D01*
X139786840Y-203856009D01*
X139776452Y-203875445D01*
X139762476Y-203892476D01*
X139745445Y-203906452D01*
X139726009Y-203916840D01*
X139704928Y-203923236D01*
X139676860Y-203926000D01*
X139213140Y-203926000D01*
X139185072Y-203923236D01*
X139163991Y-203916840D01*
X139144555Y-203906452D01*
X139127524Y-203892476D01*
X139113548Y-203875445D01*
X139103160Y-203856009D01*
X139096764Y-203834928D01*
X139094000Y-203806860D01*
X139094000Y-201893140D01*
X139096764Y-201865072D01*
X139103160Y-201843991D01*
X139113548Y-201824555D01*
X139127524Y-201807524D01*
X139144555Y-201793548D01*
X139163991Y-201783160D01*
X139185072Y-201776764D01*
X139213140Y-201774000D01*
X139676860Y-201774000D01*
X139704928Y-201776764D01*
G37*
G36*
X137164928Y-201776764D02*
G01*
X137186009Y-201783160D01*
X137205445Y-201793548D01*
X137222476Y-201807524D01*
X137236452Y-201824555D01*
X137246840Y-201843991D01*
X137253236Y-201865072D01*
X137256000Y-201893140D01*
X137256000Y-203806860D01*
X137253236Y-203834928D01*
X137246840Y-203856009D01*
X137236452Y-203875445D01*
X137222476Y-203892476D01*
X137205445Y-203906452D01*
X137186009Y-203916840D01*
X137164928Y-203923236D01*
X137136860Y-203926000D01*
X136673140Y-203926000D01*
X136645072Y-203923236D01*
X136623991Y-203916840D01*
X136604555Y-203906452D01*
X136587524Y-203892476D01*
X136573548Y-203875445D01*
X136563160Y-203856009D01*
X136556764Y-203834928D01*
X136554000Y-203806860D01*
X136554000Y-201893140D01*
X136556764Y-201865072D01*
X136563160Y-201843991D01*
X136573548Y-201824555D01*
X136587524Y-201807524D01*
X136604555Y-201793548D01*
X136623991Y-201783160D01*
X136645072Y-201776764D01*
X136673140Y-201774000D01*
X137136860Y-201774000D01*
X137164928Y-201776764D01*
G37*
G36*
X135894928Y-201776764D02*
G01*
X135916009Y-201783160D01*
X135935445Y-201793548D01*
X135952476Y-201807524D01*
X135966452Y-201824555D01*
X135976840Y-201843991D01*
X135983236Y-201865072D01*
X135986000Y-201893140D01*
X135986000Y-203806860D01*
X135983236Y-203834928D01*
X135976840Y-203856009D01*
X135966452Y-203875445D01*
X135952476Y-203892476D01*
X135935445Y-203906452D01*
X135916009Y-203916840D01*
X135894928Y-203923236D01*
X135866860Y-203926000D01*
X135403140Y-203926000D01*
X135375072Y-203923236D01*
X135353991Y-203916840D01*
X135334555Y-203906452D01*
X135317524Y-203892476D01*
X135303548Y-203875445D01*
X135293160Y-203856009D01*
X135286764Y-203834928D01*
X135284000Y-203806860D01*
X135284000Y-201893140D01*
X135286764Y-201865072D01*
X135293160Y-201843991D01*
X135303548Y-201824555D01*
X135317524Y-201807524D01*
X135334555Y-201793548D01*
X135353991Y-201783160D01*
X135375072Y-201776764D01*
X135403140Y-201774000D01*
X135866860Y-201774000D01*
X135894928Y-201776764D01*
G37*
G36*
X134624928Y-201776764D02*
G01*
X134646009Y-201783160D01*
X134665445Y-201793548D01*
X134682476Y-201807524D01*
X134696452Y-201824555D01*
X134706840Y-201843991D01*
X134713236Y-201865072D01*
X134716000Y-201893140D01*
X134716000Y-203806860D01*
X134713236Y-203834928D01*
X134706840Y-203856009D01*
X134696452Y-203875445D01*
X134682476Y-203892476D01*
X134665445Y-203906452D01*
X134646009Y-203916840D01*
X134624928Y-203923236D01*
X134596860Y-203926000D01*
X134133140Y-203926000D01*
X134105072Y-203923236D01*
X134083991Y-203916840D01*
X134064555Y-203906452D01*
X134047524Y-203892476D01*
X134033548Y-203875445D01*
X134023160Y-203856009D01*
X134016764Y-203834928D01*
X134014000Y-203806860D01*
X134014000Y-201893140D01*
X134016764Y-201865072D01*
X134023160Y-201843991D01*
X134033548Y-201824555D01*
X134047524Y-201807524D01*
X134064555Y-201793548D01*
X134083991Y-201783160D01*
X134105072Y-201776764D01*
X134133140Y-201774000D01*
X134596860Y-201774000D01*
X134624928Y-201776764D01*
G37*
G36*
X133354928Y-201776764D02*
G01*
X133376009Y-201783160D01*
X133395445Y-201793548D01*
X133412476Y-201807524D01*
X133426452Y-201824555D01*
X133436840Y-201843991D01*
X133443236Y-201865072D01*
X133446000Y-201893140D01*
X133446000Y-203806860D01*
X133443236Y-203834928D01*
X133436840Y-203856009D01*
X133426452Y-203875445D01*
X133412476Y-203892476D01*
X133395445Y-203906452D01*
X133376009Y-203916840D01*
X133354928Y-203923236D01*
X133326860Y-203926000D01*
X132863140Y-203926000D01*
X132835072Y-203923236D01*
X132813991Y-203916840D01*
X132794555Y-203906452D01*
X132777524Y-203892476D01*
X132763548Y-203875445D01*
X132753160Y-203856009D01*
X132746764Y-203834928D01*
X132744000Y-203806860D01*
X132744000Y-201893140D01*
X132746764Y-201865072D01*
X132753160Y-201843991D01*
X132763548Y-201824555D01*
X132777524Y-201807524D01*
X132794555Y-201793548D01*
X132813991Y-201783160D01*
X132835072Y-201776764D01*
X132863140Y-201774000D01*
X133326860Y-201774000D01*
X133354928Y-201776764D01*
G37*
G36*
X130814928Y-201776764D02*
G01*
X130836009Y-201783160D01*
X130855445Y-201793548D01*
X130872476Y-201807524D01*
X130886452Y-201824555D01*
X130896840Y-201843991D01*
X130903236Y-201865072D01*
X130906000Y-201893140D01*
X130906000Y-203806860D01*
X130903236Y-203834928D01*
X130896840Y-203856009D01*
X130886452Y-203875445D01*
X130872476Y-203892476D01*
X130855445Y-203906452D01*
X130836009Y-203916840D01*
X130814928Y-203923236D01*
X130786860Y-203926000D01*
X130323140Y-203926000D01*
X130295072Y-203923236D01*
X130273991Y-203916840D01*
X130254555Y-203906452D01*
X130237524Y-203892476D01*
X130223548Y-203875445D01*
X130213160Y-203856009D01*
X130206764Y-203834928D01*
X130204000Y-203806860D01*
X130204000Y-201893140D01*
X130206764Y-201865072D01*
X130213160Y-201843991D01*
X130223548Y-201824555D01*
X130237524Y-201807524D01*
X130254555Y-201793548D01*
X130273991Y-201783160D01*
X130295072Y-201776764D01*
X130323140Y-201774000D01*
X130786860Y-201774000D01*
X130814928Y-201776764D01*
G37*
G36*
X143514928Y-201776764D02*
G01*
X143536009Y-201783160D01*
X143555445Y-201793548D01*
X143572476Y-201807524D01*
X143586452Y-201824555D01*
X143596840Y-201843991D01*
X143603236Y-201865072D01*
X143606000Y-201893140D01*
X143606000Y-203806860D01*
X143603236Y-203834928D01*
X143596840Y-203856009D01*
X143586452Y-203875445D01*
X143572476Y-203892476D01*
X143555445Y-203906452D01*
X143536009Y-203916840D01*
X143514928Y-203923236D01*
X143486860Y-203926000D01*
X143023140Y-203926000D01*
X142995072Y-203923236D01*
X142973991Y-203916840D01*
X142954555Y-203906452D01*
X142937524Y-203892476D01*
X142923548Y-203875445D01*
X142913160Y-203856009D01*
X142906764Y-203834928D01*
X142904000Y-203806860D01*
X142904000Y-201893140D01*
X142906764Y-201865072D01*
X142913160Y-201843991D01*
X142923548Y-201824555D01*
X142937524Y-201807524D01*
X142954555Y-201793548D01*
X142973991Y-201783160D01*
X142995072Y-201776764D01*
X143023140Y-201774000D01*
X143486860Y-201774000D01*
X143514928Y-201776764D01*
G37*
G36*
X127004928Y-201776764D02*
G01*
X127026009Y-201783160D01*
X127045445Y-201793548D01*
X127062476Y-201807524D01*
X127076452Y-201824555D01*
X127086840Y-201843991D01*
X127093236Y-201865072D01*
X127096000Y-201893140D01*
X127096000Y-203806860D01*
X127093236Y-203834928D01*
X127086840Y-203856009D01*
X127076452Y-203875445D01*
X127062476Y-203892476D01*
X127045445Y-203906452D01*
X127026009Y-203916840D01*
X127004928Y-203923236D01*
X126976860Y-203926000D01*
X126513140Y-203926000D01*
X126485072Y-203923236D01*
X126463991Y-203916840D01*
X126444555Y-203906452D01*
X126427524Y-203892476D01*
X126413548Y-203875445D01*
X126403160Y-203856009D01*
X126396764Y-203834928D01*
X126394000Y-203806860D01*
X126394000Y-201893140D01*
X126396764Y-201865072D01*
X126403160Y-201843991D01*
X126413548Y-201824555D01*
X126427524Y-201807524D01*
X126444555Y-201793548D01*
X126463991Y-201783160D01*
X126485072Y-201776764D01*
X126513140Y-201774000D01*
X126976860Y-201774000D01*
X127004928Y-201776764D01*
G37*
G36*
X138434928Y-201776764D02*
G01*
X138456009Y-201783160D01*
X138475445Y-201793548D01*
X138492476Y-201807524D01*
X138506452Y-201824555D01*
X138516840Y-201843991D01*
X138523236Y-201865072D01*
X138526000Y-201893140D01*
X138526000Y-203806860D01*
X138523236Y-203834928D01*
X138516840Y-203856009D01*
X138506452Y-203875445D01*
X138492476Y-203892476D01*
X138475445Y-203906452D01*
X138456009Y-203916840D01*
X138434928Y-203923236D01*
X138406860Y-203926000D01*
X137943140Y-203926000D01*
X137915072Y-203923236D01*
X137893991Y-203916840D01*
X137874555Y-203906452D01*
X137857524Y-203892476D01*
X137843548Y-203875445D01*
X137833160Y-203856009D01*
X137826764Y-203834928D01*
X137824000Y-203806860D01*
X137824000Y-201893140D01*
X137826764Y-201865072D01*
X137833160Y-201843991D01*
X137843548Y-201824555D01*
X137857524Y-201807524D01*
X137874555Y-201793548D01*
X137893991Y-201783160D01*
X137915072Y-201776764D01*
X137943140Y-201774000D01*
X138406860Y-201774000D01*
X138434928Y-201776764D01*
G37*
G36*
X128274928Y-201776764D02*
G01*
X128296009Y-201783160D01*
X128315445Y-201793548D01*
X128332476Y-201807524D01*
X128346452Y-201824555D01*
X128356840Y-201843991D01*
X128363236Y-201865072D01*
X128366000Y-201893140D01*
X128366000Y-203806860D01*
X128363236Y-203834928D01*
X128356840Y-203856009D01*
X128346452Y-203875445D01*
X128332476Y-203892476D01*
X128315445Y-203906452D01*
X128296009Y-203916840D01*
X128274928Y-203923236D01*
X128246860Y-203926000D01*
X127783140Y-203926000D01*
X127755072Y-203923236D01*
X127733991Y-203916840D01*
X127714555Y-203906452D01*
X127697524Y-203892476D01*
X127683548Y-203875445D01*
X127673160Y-203856009D01*
X127666764Y-203834928D01*
X127664000Y-203806860D01*
X127664000Y-201893140D01*
X127666764Y-201865072D01*
X127673160Y-201843991D01*
X127683548Y-201824555D01*
X127697524Y-201807524D01*
X127714555Y-201793548D01*
X127733991Y-201783160D01*
X127755072Y-201776764D01*
X127783140Y-201774000D01*
X128246860Y-201774000D01*
X128274928Y-201776764D01*
G37*
G36*
X129544928Y-201776764D02*
G01*
X129566009Y-201783160D01*
X129585445Y-201793548D01*
X129602476Y-201807524D01*
X129616452Y-201824555D01*
X129626840Y-201843991D01*
X129633236Y-201865072D01*
X129636000Y-201893140D01*
X129636000Y-203806860D01*
X129633236Y-203834928D01*
X129626840Y-203856009D01*
X129616452Y-203875445D01*
X129602476Y-203892476D01*
X129585445Y-203906452D01*
X129566009Y-203916840D01*
X129544928Y-203923236D01*
X129516860Y-203926000D01*
X129053140Y-203926000D01*
X129025072Y-203923236D01*
X129003991Y-203916840D01*
X128984555Y-203906452D01*
X128967524Y-203892476D01*
X128953548Y-203875445D01*
X128943160Y-203856009D01*
X128936764Y-203834928D01*
X128934000Y-203806860D01*
X128934000Y-201893140D01*
X128936764Y-201865072D01*
X128943160Y-201843991D01*
X128953548Y-201824555D01*
X128967524Y-201807524D01*
X128984555Y-201793548D01*
X129003991Y-201783160D01*
X129025072Y-201776764D01*
X129053140Y-201774000D01*
X129516860Y-201774000D01*
X129544928Y-201776764D01*
G37*
G36*
X132338674Y-199653465D02*
G01*
X132376367Y-199664899D01*
X132411103Y-199683466D01*
X132441548Y-199708452D01*
X132466534Y-199738897D01*
X132485101Y-199773633D01*
X132496535Y-199811326D01*
X132501000Y-199856661D01*
X132501000Y-200693339D01*
X132496535Y-200738674D01*
X132485101Y-200776367D01*
X132466534Y-200811103D01*
X132441548Y-200841548D01*
X132411103Y-200866534D01*
X132376367Y-200885101D01*
X132338674Y-200896535D01*
X132293339Y-200901000D01*
X131206661Y-200901000D01*
X131161326Y-200896535D01*
X131123633Y-200885101D01*
X131088897Y-200866534D01*
X131058452Y-200841548D01*
X131033466Y-200811103D01*
X131014899Y-200776367D01*
X131003465Y-200738674D01*
X130999000Y-200693339D01*
X130999000Y-199856661D01*
X131003465Y-199811326D01*
X131014899Y-199773633D01*
X131033466Y-199738897D01*
X131058452Y-199708452D01*
X131088897Y-199683466D01*
X131123633Y-199664899D01*
X131161326Y-199653465D01*
X131206661Y-199649000D01*
X132293339Y-199649000D01*
X132338674Y-199653465D01*
G37*
G36*
X132338674Y-197603465D02*
G01*
X132376367Y-197614899D01*
X132411103Y-197633466D01*
X132441548Y-197658452D01*
X132466534Y-197688897D01*
X132485101Y-197723633D01*
X132496535Y-197761326D01*
X132501000Y-197806661D01*
X132501000Y-198643339D01*
X132496535Y-198688674D01*
X132485101Y-198726367D01*
X132466534Y-198761103D01*
X132441548Y-198791548D01*
X132411103Y-198816534D01*
X132376367Y-198835101D01*
X132338674Y-198846535D01*
X132293339Y-198851000D01*
X131206661Y-198851000D01*
X131161326Y-198846535D01*
X131123633Y-198835101D01*
X131088897Y-198816534D01*
X131058452Y-198791548D01*
X131033466Y-198761103D01*
X131014899Y-198726367D01*
X131003465Y-198688674D01*
X130999000Y-198643339D01*
X130999000Y-197806661D01*
X131003465Y-197761326D01*
X131014899Y-197723633D01*
X131033466Y-197688897D01*
X131058452Y-197658452D01*
X131088897Y-197633466D01*
X131123633Y-197614899D01*
X131161326Y-197603465D01*
X131206661Y-197599000D01*
X132293339Y-197599000D01*
X132338674Y-197603465D01*
G37*
G36*
X185237142Y-195218242D02*
G01*
X185385101Y-195279529D01*
X185518255Y-195368499D01*
X185631501Y-195481745D01*
X185720471Y-195614899D01*
X185781758Y-195762858D01*
X185813000Y-195919925D01*
X185813000Y-196080075D01*
X185781758Y-196237142D01*
X185720471Y-196385101D01*
X185631501Y-196518255D01*
X185518255Y-196631501D01*
X185385101Y-196720471D01*
X185237142Y-196781758D01*
X185080075Y-196813000D01*
X184919925Y-196813000D01*
X184762858Y-196781758D01*
X184614899Y-196720471D01*
X184481745Y-196631501D01*
X184368499Y-196518255D01*
X184279529Y-196385101D01*
X184218242Y-196237142D01*
X184187000Y-196080075D01*
X184187000Y-195919925D01*
X184218242Y-195762858D01*
X184279529Y-195614899D01*
X184368499Y-195481745D01*
X184481745Y-195368499D01*
X184614899Y-195279529D01*
X184762858Y-195218242D01*
X184919925Y-195187000D01*
X185080075Y-195187000D01*
X185237142Y-195218242D01*
G37*
G36*
X135237142Y-195218242D02*
G01*
X135385101Y-195279529D01*
X135518255Y-195368499D01*
X135631501Y-195481745D01*
X135720471Y-195614899D01*
X135781758Y-195762858D01*
X135813000Y-195919925D01*
X135813000Y-196080075D01*
X135781758Y-196237142D01*
X135720471Y-196385101D01*
X135631501Y-196518255D01*
X135518255Y-196631501D01*
X135385101Y-196720471D01*
X135237142Y-196781758D01*
X135080075Y-196813000D01*
X134919925Y-196813000D01*
X134762858Y-196781758D01*
X134614899Y-196720471D01*
X134481745Y-196631501D01*
X134368499Y-196518255D01*
X134279529Y-196385101D01*
X134218242Y-196237142D01*
X134187000Y-196080075D01*
X134187000Y-195919925D01*
X134218242Y-195762858D01*
X134279529Y-195614899D01*
X134368499Y-195481745D01*
X134481745Y-195368499D01*
X134614899Y-195279529D01*
X134762858Y-195218242D01*
X134919925Y-195187000D01*
X135080075Y-195187000D01*
X135237142Y-195218242D01*
G37*
G36*
X85237142Y-195218242D02*
G01*
X85385101Y-195279529D01*
X85518255Y-195368499D01*
X85631501Y-195481745D01*
X85720471Y-195614899D01*
X85781758Y-195762858D01*
X85813000Y-195919925D01*
X85813000Y-196080075D01*
X85781758Y-196237142D01*
X85720471Y-196385101D01*
X85631501Y-196518255D01*
X85518255Y-196631501D01*
X85385101Y-196720471D01*
X85237142Y-196781758D01*
X85080075Y-196813000D01*
X84919925Y-196813000D01*
X84762858Y-196781758D01*
X84614899Y-196720471D01*
X84481745Y-196631501D01*
X84368499Y-196518255D01*
X84279529Y-196385101D01*
X84218242Y-196237142D01*
X84187000Y-196080075D01*
X84187000Y-195919925D01*
X84218242Y-195762858D01*
X84279529Y-195614899D01*
X84368499Y-195481745D01*
X84481745Y-195368499D01*
X84614899Y-195279529D01*
X84762858Y-195218242D01*
X84919925Y-195187000D01*
X85080075Y-195187000D01*
X85237142Y-195218242D01*
G37*
G36*
X108051000Y-190551000D02*
G01*
X97949000Y-190551000D01*
X97949000Y-185449000D01*
X108051000Y-185449000D01*
X108051000Y-190551000D01*
G37*
G36*
X208051000Y-190551000D02*
G01*
X197949000Y-190551000D01*
X197949000Y-185449000D01*
X208051000Y-185449000D01*
X208051000Y-190551000D01*
G37*
G36*
X158051000Y-190551000D02*
G01*
X147949000Y-190551000D01*
X147949000Y-185449000D01*
X158051000Y-185449000D01*
X158051000Y-190551000D01*
G37*
G36*
X161201000Y-188301000D02*
G01*
X159299000Y-188301000D01*
X159299000Y-185699000D01*
X161201000Y-185699000D01*
X161201000Y-188301000D01*
G37*
G36*
X110951000Y-188301000D02*
G01*
X109049000Y-188301000D01*
X109049000Y-185699000D01*
X110951000Y-185699000D01*
X110951000Y-188301000D01*
G37*
G36*
X211201000Y-188301000D02*
G01*
X209299000Y-188301000D01*
X209299000Y-185699000D01*
X211201000Y-185699000D01*
X211201000Y-188301000D01*
G37*
G36*
X85846189Y-182210483D02*
G01*
X85846192Y-182210484D01*
X85846191Y-182210484D01*
X86374139Y-182429167D01*
X86849280Y-182746646D01*
X87253354Y-183150720D01*
X87570833Y-183625861D01*
X87570834Y-183625863D01*
X87789517Y-184153811D01*
X87901000Y-184714275D01*
X87901000Y-185285725D01*
X87789517Y-185846189D01*
X87789516Y-185846191D01*
X87570833Y-186374139D01*
X87253354Y-186849280D01*
X86849280Y-187253354D01*
X86374139Y-187570833D01*
X86374138Y-187570834D01*
X86374137Y-187570834D01*
X85846189Y-187789517D01*
X85285725Y-187901000D01*
X84714275Y-187901000D01*
X84153811Y-187789517D01*
X83625863Y-187570834D01*
X83625862Y-187570834D01*
X83625861Y-187570833D01*
X83150720Y-187253354D01*
X82746646Y-186849280D01*
X82429167Y-186374139D01*
X82210484Y-185846191D01*
X82210483Y-185846189D01*
X82099000Y-185285725D01*
X82099000Y-184714275D01*
X82210483Y-184153811D01*
X82429166Y-183625863D01*
X82429167Y-183625861D01*
X82746646Y-183150720D01*
X83150720Y-182746646D01*
X83625861Y-182429167D01*
X84153809Y-182210484D01*
X84153808Y-182210484D01*
X84153811Y-182210483D01*
X84714275Y-182099000D01*
X85285725Y-182099000D01*
X85846189Y-182210483D01*
G37*
G36*
X135846189Y-182210483D02*
G01*
X135846192Y-182210484D01*
X135846191Y-182210484D01*
X136374139Y-182429167D01*
X136849280Y-182746646D01*
X137253354Y-183150720D01*
X137570833Y-183625861D01*
X137570834Y-183625863D01*
X137789517Y-184153811D01*
X137901000Y-184714275D01*
X137901000Y-185285725D01*
X137789517Y-185846189D01*
X137789516Y-185846191D01*
X137570833Y-186374139D01*
X137253354Y-186849280D01*
X136849280Y-187253354D01*
X136374139Y-187570833D01*
X136374138Y-187570834D01*
X136374137Y-187570834D01*
X135846189Y-187789517D01*
X135285725Y-187901000D01*
X134714275Y-187901000D01*
X134153811Y-187789517D01*
X133625863Y-187570834D01*
X133625862Y-187570834D01*
X133625861Y-187570833D01*
X133150720Y-187253354D01*
X132746646Y-186849280D01*
X132429167Y-186374139D01*
X132210484Y-185846191D01*
X132210483Y-185846189D01*
X132099000Y-185285725D01*
X132099000Y-184714275D01*
X132210483Y-184153811D01*
X132429166Y-183625863D01*
X132429167Y-183625861D01*
X132746646Y-183150720D01*
X133150720Y-182746646D01*
X133625861Y-182429167D01*
X134153809Y-182210484D01*
X134153808Y-182210484D01*
X134153811Y-182210483D01*
X134714275Y-182099000D01*
X135285725Y-182099000D01*
X135846189Y-182210483D01*
G37*
G36*
X185846189Y-182210483D02*
G01*
X185846192Y-182210484D01*
X185846191Y-182210484D01*
X186374139Y-182429167D01*
X186849280Y-182746646D01*
X187253354Y-183150720D01*
X187570833Y-183625861D01*
X187570834Y-183625863D01*
X187789517Y-184153811D01*
X187901000Y-184714275D01*
X187901000Y-185285725D01*
X187789517Y-185846189D01*
X187789516Y-185846191D01*
X187570833Y-186374139D01*
X187253354Y-186849280D01*
X186849280Y-187253354D01*
X186374139Y-187570833D01*
X186374138Y-187570834D01*
X186374137Y-187570834D01*
X185846189Y-187789517D01*
X185285725Y-187901000D01*
X184714275Y-187901000D01*
X184153811Y-187789517D01*
X183625863Y-187570834D01*
X183625862Y-187570834D01*
X183625861Y-187570833D01*
X183150720Y-187253354D01*
X182746646Y-186849280D01*
X182429167Y-186374139D01*
X182210484Y-185846191D01*
X182210483Y-185846189D01*
X182099000Y-185285725D01*
X182099000Y-184714275D01*
X182210483Y-184153811D01*
X182429166Y-183625863D01*
X182429167Y-183625861D01*
X182746646Y-183150720D01*
X183150720Y-182746646D01*
X183625861Y-182429167D01*
X184153809Y-182210484D01*
X184153808Y-182210484D01*
X184153811Y-182210483D01*
X184714275Y-182099000D01*
X185285725Y-182099000D01*
X185846189Y-182210483D01*
G37*
G36*
X108051000Y-184551000D02*
G01*
X97949000Y-184551000D01*
X97949000Y-179449000D01*
X108051000Y-179449000D01*
X108051000Y-184551000D01*
G37*
G36*
X158051000Y-184551000D02*
G01*
X147949000Y-184551000D01*
X147949000Y-179449000D01*
X158051000Y-179449000D01*
X158051000Y-184551000D01*
G37*
G36*
X208051000Y-184551000D02*
G01*
X197949000Y-184551000D01*
X197949000Y-179449000D01*
X208051000Y-179449000D01*
X208051000Y-184551000D01*
G37*
G36*
X211201000Y-184301000D02*
G01*
X209299000Y-184301000D01*
X209299000Y-181699000D01*
X211201000Y-181699000D01*
X211201000Y-184301000D01*
G37*
G36*
X161201000Y-184301000D02*
G01*
X159299000Y-184301000D01*
X159299000Y-181699000D01*
X161201000Y-181699000D01*
X161201000Y-184301000D01*
G37*
G36*
X110951000Y-184301000D02*
G01*
X109049000Y-184301000D01*
X109049000Y-181699000D01*
X110951000Y-181699000D01*
X110951000Y-184301000D01*
G37*
G36*
X185237142Y-173218242D02*
G01*
X185385101Y-173279529D01*
X185518255Y-173368499D01*
X185631501Y-173481745D01*
X185720471Y-173614899D01*
X185781758Y-173762858D01*
X185813000Y-173919925D01*
X185813000Y-174080075D01*
X185781758Y-174237142D01*
X185720471Y-174385101D01*
X185631501Y-174518255D01*
X185518255Y-174631501D01*
X185385101Y-174720471D01*
X185237142Y-174781758D01*
X185080075Y-174813000D01*
X184919925Y-174813000D01*
X184762858Y-174781758D01*
X184614899Y-174720471D01*
X184481745Y-174631501D01*
X184368499Y-174518255D01*
X184279529Y-174385101D01*
X184218242Y-174237142D01*
X184187000Y-174080075D01*
X184187000Y-173919925D01*
X184218242Y-173762858D01*
X184279529Y-173614899D01*
X184368499Y-173481745D01*
X184481745Y-173368499D01*
X184614899Y-173279529D01*
X184762858Y-173218242D01*
X184919925Y-173187000D01*
X185080075Y-173187000D01*
X185237142Y-173218242D01*
G37*
G36*
X135237142Y-173218242D02*
G01*
X135385101Y-173279529D01*
X135518255Y-173368499D01*
X135631501Y-173481745D01*
X135720471Y-173614899D01*
X135781758Y-173762858D01*
X135813000Y-173919925D01*
X135813000Y-174080075D01*
X135781758Y-174237142D01*
X135720471Y-174385101D01*
X135631501Y-174518255D01*
X135518255Y-174631501D01*
X135385101Y-174720471D01*
X135237142Y-174781758D01*
X135080075Y-174813000D01*
X134919925Y-174813000D01*
X134762858Y-174781758D01*
X134614899Y-174720471D01*
X134481745Y-174631501D01*
X134368499Y-174518255D01*
X134279529Y-174385101D01*
X134218242Y-174237142D01*
X134187000Y-174080075D01*
X134187000Y-173919925D01*
X134218242Y-173762858D01*
X134279529Y-173614899D01*
X134368499Y-173481745D01*
X134481745Y-173368499D01*
X134614899Y-173279529D01*
X134762858Y-173218242D01*
X134919925Y-173187000D01*
X135080075Y-173187000D01*
X135237142Y-173218242D01*
G37*
G36*
X85237142Y-173218242D02*
G01*
X85385101Y-173279529D01*
X85518255Y-173368499D01*
X85631501Y-173481745D01*
X85720471Y-173614899D01*
X85781758Y-173762858D01*
X85813000Y-173919925D01*
X85813000Y-174080075D01*
X85781758Y-174237142D01*
X85720471Y-174385101D01*
X85631501Y-174518255D01*
X85518255Y-174631501D01*
X85385101Y-174720471D01*
X85237142Y-174781758D01*
X85080075Y-174813000D01*
X84919925Y-174813000D01*
X84762858Y-174781758D01*
X84614899Y-174720471D01*
X84481745Y-174631501D01*
X84368499Y-174518255D01*
X84279529Y-174385101D01*
X84218242Y-174237142D01*
X84187000Y-174080075D01*
X84187000Y-173919925D01*
X84218242Y-173762858D01*
X84279529Y-173614899D01*
X84368499Y-173481745D01*
X84481745Y-173368499D01*
X84614899Y-173279529D01*
X84762858Y-173218242D01*
X84919925Y-173187000D01*
X85080075Y-173187000D01*
X85237142Y-173218242D01*
G37*
G36*
X200302585Y-158478802D02*
G01*
X200452410Y-158508604D01*
X200734674Y-158625521D01*
X200988705Y-158795259D01*
X201204741Y-159011295D01*
X201374479Y-159265326D01*
X201491396Y-159547590D01*
X201551000Y-159847240D01*
X201551000Y-160152760D01*
X201491396Y-160452410D01*
X201374479Y-160734674D01*
X201204741Y-160988705D01*
X200988705Y-161204741D01*
X200734674Y-161374479D01*
X200452410Y-161491396D01*
X200302585Y-161521198D01*
X200152761Y-161551000D01*
X199847239Y-161551000D01*
X199697415Y-161521198D01*
X199547590Y-161491396D01*
X199265326Y-161374479D01*
X199011295Y-161204741D01*
X198795259Y-160988705D01*
X198625521Y-160734674D01*
X198508604Y-160452410D01*
X198449000Y-160152760D01*
X198449000Y-159847240D01*
X198508604Y-159547590D01*
X198625521Y-159265326D01*
X198795259Y-159011295D01*
X199011295Y-158795259D01*
X199265326Y-158625521D01*
X199547590Y-158508604D01*
X199697415Y-158478802D01*
X199847239Y-158449000D01*
X200152761Y-158449000D01*
X200302585Y-158478802D01*
G37*
G36*
X177802585Y-158478802D02*
G01*
X177952410Y-158508604D01*
X178234674Y-158625521D01*
X178488705Y-158795259D01*
X178704741Y-159011295D01*
X178874479Y-159265326D01*
X178991396Y-159547590D01*
X179051000Y-159847240D01*
X179051000Y-160152760D01*
X178991396Y-160452410D01*
X178874479Y-160734674D01*
X178704741Y-160988705D01*
X178488705Y-161204741D01*
X178234674Y-161374479D01*
X177952410Y-161491396D01*
X177802585Y-161521198D01*
X177652761Y-161551000D01*
X177347239Y-161551000D01*
X177197415Y-161521198D01*
X177047590Y-161491396D01*
X176765326Y-161374479D01*
X176511295Y-161204741D01*
X176295259Y-160988705D01*
X176125521Y-160734674D01*
X176008604Y-160452410D01*
X175949000Y-160152760D01*
X175949000Y-159847240D01*
X176008604Y-159547590D01*
X176125521Y-159265326D01*
X176295259Y-159011295D01*
X176511295Y-158795259D01*
X176765326Y-158625521D01*
X177047590Y-158508604D01*
X177197415Y-158478802D01*
X177347239Y-158449000D01*
X177652761Y-158449000D01*
X177802585Y-158478802D01*
G37*
G36*
X189068433Y-158634893D02*
G01*
X189158657Y-158652839D01*
X189264267Y-158696585D01*
X189413621Y-158758449D01*
X189479934Y-158802758D01*
X189643086Y-158911772D01*
X189838228Y-159106914D01*
X189859525Y-159138788D01*
X189991551Y-159336379D01*
X190001360Y-159360061D01*
X190079038Y-159547590D01*
X190097161Y-159591344D01*
X190151000Y-159862012D01*
X190151000Y-160137988D01*
X190148061Y-160152761D01*
X190097161Y-160408657D01*
X190053415Y-160514267D01*
X189991551Y-160663621D01*
X189991550Y-160663622D01*
X189838228Y-160893086D01*
X189643086Y-161088228D01*
X189489763Y-161190675D01*
X189413621Y-161241551D01*
X189274729Y-161299082D01*
X189158657Y-161347161D01*
X189068433Y-161365107D01*
X188887988Y-161401000D01*
X188612012Y-161401000D01*
X188431567Y-161365107D01*
X188341343Y-161347161D01*
X188225271Y-161299082D01*
X188086379Y-161241551D01*
X188010237Y-161190675D01*
X187856914Y-161088228D01*
X187661772Y-160893086D01*
X187508450Y-160663622D01*
X187508449Y-160663621D01*
X187446585Y-160514267D01*
X187402839Y-160408657D01*
X187351939Y-160152761D01*
X187349000Y-160137988D01*
X187349000Y-159862012D01*
X187402839Y-159591344D01*
X187420963Y-159547590D01*
X187498640Y-159360061D01*
X187508449Y-159336379D01*
X187640475Y-159138788D01*
X187661772Y-159106914D01*
X187856914Y-158911772D01*
X188020066Y-158802758D01*
X188086379Y-158758449D01*
X188235733Y-158696585D01*
X188341343Y-158652839D01*
X188431567Y-158634893D01*
X188612012Y-158599000D01*
X188887988Y-158599000D01*
X189068433Y-158634893D01*
G37*
G36*
X211894072Y-158700918D02*
G01*
X212121833Y-158795259D01*
X212139939Y-158802759D01*
X212361212Y-158950610D01*
X212549390Y-159138788D01*
X212697241Y-159360061D01*
X212799082Y-159605928D01*
X212851000Y-159866938D01*
X212851000Y-160133062D01*
X212799082Y-160394072D01*
X212697241Y-160639939D01*
X212549390Y-160861212D01*
X212361212Y-161049390D01*
X212139939Y-161197241D01*
X212139938Y-161197242D01*
X212139937Y-161197242D01*
X211894072Y-161299082D01*
X211633063Y-161351000D01*
X211366937Y-161351000D01*
X211105928Y-161299082D01*
X210860063Y-161197242D01*
X210860062Y-161197242D01*
X210860061Y-161197241D01*
X210638788Y-161049390D01*
X210450610Y-160861212D01*
X210302759Y-160639939D01*
X210200918Y-160394072D01*
X210149000Y-160133062D01*
X210149000Y-159866938D01*
X210200918Y-159605928D01*
X210302759Y-159360061D01*
X210450610Y-159138788D01*
X210638788Y-158950610D01*
X210860061Y-158802759D01*
X210878168Y-158795259D01*
X211105928Y-158700918D01*
X211366937Y-158649000D01*
X211633063Y-158649000D01*
X211894072Y-158700918D01*
G37*
G36*
X206851000Y-161351000D02*
G01*
X204149000Y-161351000D01*
X204149000Y-158649000D01*
X206851000Y-158649000D01*
X206851000Y-161351000D01*
G37*
G36*
X208894072Y-154000918D02*
G01*
X209139939Y-154102759D01*
X209361212Y-154250610D01*
X209549390Y-154438788D01*
X209697241Y-154660061D01*
X209799082Y-154905928D01*
X209851000Y-155166938D01*
X209851000Y-155433062D01*
X209799082Y-155694072D01*
X209697241Y-155939939D01*
X209549390Y-156161212D01*
X209361212Y-156349390D01*
X209139939Y-156497241D01*
X209139938Y-156497242D01*
X209139937Y-156497242D01*
X208894072Y-156599082D01*
X208633063Y-156651000D01*
X208366937Y-156651000D01*
X208105928Y-156599082D01*
X207860063Y-156497242D01*
X207860062Y-156497242D01*
X207860061Y-156497241D01*
X207638788Y-156349390D01*
X207450610Y-156161212D01*
X207302759Y-155939939D01*
X207200918Y-155694072D01*
X207149000Y-155433062D01*
X207149000Y-155166938D01*
X207200918Y-154905928D01*
X207302759Y-154660061D01*
X207450610Y-154438788D01*
X207638788Y-154250610D01*
X207860061Y-154102759D01*
X208105928Y-154000918D01*
X208366937Y-153949000D01*
X208633063Y-153949000D01*
X208894072Y-154000918D01*
G37*
G36*
X185237142Y-145218242D02*
G01*
X185385101Y-145279529D01*
X185518255Y-145368499D01*
X185631501Y-145481745D01*
X185720471Y-145614899D01*
X185781758Y-145762858D01*
X185813000Y-145919925D01*
X185813000Y-146080075D01*
X185781758Y-146237142D01*
X185720471Y-146385101D01*
X185631501Y-146518255D01*
X185518255Y-146631501D01*
X185385101Y-146720471D01*
X185237142Y-146781758D01*
X185080075Y-146813000D01*
X184919925Y-146813000D01*
X184762858Y-146781758D01*
X184614899Y-146720471D01*
X184481745Y-146631501D01*
X184368499Y-146518255D01*
X184279529Y-146385101D01*
X184218242Y-146237142D01*
X184187000Y-146080075D01*
X184187000Y-145919925D01*
X184218242Y-145762858D01*
X184279529Y-145614899D01*
X184368499Y-145481745D01*
X184481745Y-145368499D01*
X184614899Y-145279529D01*
X184762858Y-145218242D01*
X184919925Y-145187000D01*
X185080075Y-145187000D01*
X185237142Y-145218242D01*
G37*
G36*
X85237142Y-145218242D02*
G01*
X85385101Y-145279529D01*
X85518255Y-145368499D01*
X85631501Y-145481745D01*
X85720471Y-145614899D01*
X85781758Y-145762858D01*
X85813000Y-145919925D01*
X85813000Y-146080075D01*
X85781758Y-146237142D01*
X85720471Y-146385101D01*
X85631501Y-146518255D01*
X85518255Y-146631501D01*
X85385101Y-146720471D01*
X85237142Y-146781758D01*
X85080075Y-146813000D01*
X84919925Y-146813000D01*
X84762858Y-146781758D01*
X84614899Y-146720471D01*
X84481745Y-146631501D01*
X84368499Y-146518255D01*
X84279529Y-146385101D01*
X84218242Y-146237142D01*
X84187000Y-146080075D01*
X84187000Y-145919925D01*
X84218242Y-145762858D01*
X84279529Y-145614899D01*
X84368499Y-145481745D01*
X84481745Y-145368499D01*
X84614899Y-145279529D01*
X84762858Y-145218242D01*
X84919925Y-145187000D01*
X85080075Y-145187000D01*
X85237142Y-145218242D01*
G37*
G36*
X135237142Y-145218242D02*
G01*
X135385101Y-145279529D01*
X135518255Y-145368499D01*
X135631501Y-145481745D01*
X135720471Y-145614899D01*
X135781758Y-145762858D01*
X135813000Y-145919925D01*
X135813000Y-146080075D01*
X135781758Y-146237142D01*
X135720471Y-146385101D01*
X135631501Y-146518255D01*
X135518255Y-146631501D01*
X135385101Y-146720471D01*
X135237142Y-146781758D01*
X135080075Y-146813000D01*
X134919925Y-146813000D01*
X134762858Y-146781758D01*
X134614899Y-146720471D01*
X134481745Y-146631501D01*
X134368499Y-146518255D01*
X134279529Y-146385101D01*
X134218242Y-146237142D01*
X134187000Y-146080075D01*
X134187000Y-145919925D01*
X134218242Y-145762858D01*
X134279529Y-145614899D01*
X134368499Y-145481745D01*
X134481745Y-145368499D01*
X134614899Y-145279529D01*
X134762858Y-145218242D01*
X134919925Y-145187000D01*
X135080075Y-145187000D01*
X135237142Y-145218242D01*
G37*
G36*
X58834928Y-142906764D02*
G01*
X58856009Y-142913160D01*
X58875445Y-142923548D01*
X58892476Y-142937524D01*
X58906452Y-142954555D01*
X58916840Y-142973991D01*
X58923236Y-142995072D01*
X58926000Y-143023140D01*
X58926000Y-143486860D01*
X58923236Y-143514928D01*
X58916840Y-143536009D01*
X58906452Y-143555445D01*
X58892476Y-143572476D01*
X58875445Y-143586452D01*
X58856009Y-143596840D01*
X58834928Y-143603236D01*
X58806860Y-143606000D01*
X56893140Y-143606000D01*
X56865072Y-143603236D01*
X56843991Y-143596840D01*
X56824555Y-143586452D01*
X56807524Y-143572476D01*
X56793548Y-143555445D01*
X56783160Y-143536009D01*
X56776764Y-143514928D01*
X56774000Y-143486860D01*
X56774000Y-143023140D01*
X56776764Y-142995072D01*
X56783160Y-142973991D01*
X56793548Y-142954555D01*
X56807524Y-142937524D01*
X56824555Y-142923548D01*
X56843991Y-142913160D01*
X56865072Y-142906764D01*
X56893140Y-142904000D01*
X58806860Y-142904000D01*
X58834928Y-142906764D01*
G37*
G36*
X68134928Y-142906764D02*
G01*
X68156009Y-142913160D01*
X68175445Y-142923548D01*
X68192476Y-142937524D01*
X68206452Y-142954555D01*
X68216840Y-142973991D01*
X68223236Y-142995072D01*
X68226000Y-143023140D01*
X68226000Y-143486860D01*
X68223236Y-143514928D01*
X68216840Y-143536009D01*
X68206452Y-143555445D01*
X68192476Y-143572476D01*
X68175445Y-143586452D01*
X68156009Y-143596840D01*
X68134928Y-143603236D01*
X68106860Y-143606000D01*
X66193140Y-143606000D01*
X66165072Y-143603236D01*
X66143991Y-143596840D01*
X66124555Y-143586452D01*
X66107524Y-143572476D01*
X66093548Y-143555445D01*
X66083160Y-143536009D01*
X66076764Y-143514928D01*
X66074000Y-143486860D01*
X66074000Y-143023140D01*
X66076764Y-142995072D01*
X66083160Y-142973991D01*
X66093548Y-142954555D01*
X66107524Y-142937524D01*
X66124555Y-142923548D01*
X66143991Y-142913160D01*
X66165072Y-142906764D01*
X66193140Y-142904000D01*
X68106860Y-142904000D01*
X68134928Y-142906764D01*
G37*
G36*
X58834928Y-141636764D02*
G01*
X58856009Y-141643160D01*
X58875445Y-141653548D01*
X58892476Y-141667524D01*
X58906452Y-141684555D01*
X58916840Y-141703991D01*
X58923236Y-141725072D01*
X58926000Y-141753140D01*
X58926000Y-142216860D01*
X58923236Y-142244928D01*
X58916840Y-142266009D01*
X58906452Y-142285445D01*
X58892476Y-142302476D01*
X58875445Y-142316452D01*
X58856009Y-142326840D01*
X58834928Y-142333236D01*
X58806860Y-142336000D01*
X56893140Y-142336000D01*
X56865072Y-142333236D01*
X56843991Y-142326840D01*
X56824555Y-142316452D01*
X56807524Y-142302476D01*
X56793548Y-142285445D01*
X56783160Y-142266009D01*
X56776764Y-142244928D01*
X56774000Y-142216860D01*
X56774000Y-141753140D01*
X56776764Y-141725072D01*
X56783160Y-141703991D01*
X56793548Y-141684555D01*
X56807524Y-141667524D01*
X56824555Y-141653548D01*
X56843991Y-141643160D01*
X56865072Y-141636764D01*
X56893140Y-141634000D01*
X58806860Y-141634000D01*
X58834928Y-141636764D01*
G37*
G36*
X68134928Y-141636764D02*
G01*
X68156009Y-141643160D01*
X68175445Y-141653548D01*
X68192476Y-141667524D01*
X68206452Y-141684555D01*
X68216840Y-141703991D01*
X68223236Y-141725072D01*
X68226000Y-141753140D01*
X68226000Y-142216860D01*
X68223236Y-142244928D01*
X68216840Y-142266009D01*
X68206452Y-142285445D01*
X68192476Y-142302476D01*
X68175445Y-142316452D01*
X68156009Y-142326840D01*
X68134928Y-142333236D01*
X68106860Y-142336000D01*
X66193140Y-142336000D01*
X66165072Y-142333236D01*
X66143991Y-142326840D01*
X66124555Y-142316452D01*
X66107524Y-142302476D01*
X66093548Y-142285445D01*
X66083160Y-142266009D01*
X66076764Y-142244928D01*
X66074000Y-142216860D01*
X66074000Y-141753140D01*
X66076764Y-141725072D01*
X66083160Y-141703991D01*
X66093548Y-141684555D01*
X66107524Y-141667524D01*
X66124555Y-141653548D01*
X66143991Y-141643160D01*
X66165072Y-141636764D01*
X66193140Y-141634000D01*
X68106860Y-141634000D01*
X68134928Y-141636764D01*
G37*
G36*
X68134928Y-140366764D02*
G01*
X68156009Y-140373160D01*
X68175445Y-140383548D01*
X68192476Y-140397524D01*
X68206452Y-140414555D01*
X68216840Y-140433991D01*
X68223236Y-140455072D01*
X68226000Y-140483140D01*
X68226000Y-140946860D01*
X68223236Y-140974928D01*
X68216840Y-140996009D01*
X68206452Y-141015445D01*
X68192476Y-141032476D01*
X68175445Y-141046452D01*
X68156009Y-141056840D01*
X68134928Y-141063236D01*
X68106860Y-141066000D01*
X66193140Y-141066000D01*
X66165072Y-141063236D01*
X66143991Y-141056840D01*
X66124555Y-141046452D01*
X66107524Y-141032476D01*
X66093548Y-141015445D01*
X66083160Y-140996009D01*
X66076764Y-140974928D01*
X66074000Y-140946860D01*
X66074000Y-140483140D01*
X66076764Y-140455072D01*
X66083160Y-140433991D01*
X66093548Y-140414555D01*
X66107524Y-140397524D01*
X66124555Y-140383548D01*
X66143991Y-140373160D01*
X66165072Y-140366764D01*
X66193140Y-140364000D01*
X68106860Y-140364000D01*
X68134928Y-140366764D01*
G37*
G36*
X58834928Y-140366764D02*
G01*
X58856009Y-140373160D01*
X58875445Y-140383548D01*
X58892476Y-140397524D01*
X58906452Y-140414555D01*
X58916840Y-140433991D01*
X58923236Y-140455072D01*
X58926000Y-140483140D01*
X58926000Y-140946860D01*
X58923236Y-140974928D01*
X58916840Y-140996009D01*
X58906452Y-141015445D01*
X58892476Y-141032476D01*
X58875445Y-141046452D01*
X58856009Y-141056840D01*
X58834928Y-141063236D01*
X58806860Y-141066000D01*
X56893140Y-141066000D01*
X56865072Y-141063236D01*
X56843991Y-141056840D01*
X56824555Y-141046452D01*
X56807524Y-141032476D01*
X56793548Y-141015445D01*
X56783160Y-140996009D01*
X56776764Y-140974928D01*
X56774000Y-140946860D01*
X56774000Y-140483140D01*
X56776764Y-140455072D01*
X56783160Y-140433991D01*
X56793548Y-140414555D01*
X56807524Y-140397524D01*
X56824555Y-140383548D01*
X56843991Y-140373160D01*
X56865072Y-140366764D01*
X56893140Y-140364000D01*
X58806860Y-140364000D01*
X58834928Y-140366764D01*
G37*
G36*
X108051000Y-140551000D02*
G01*
X97949000Y-140551000D01*
X97949000Y-135449000D01*
X108051000Y-135449000D01*
X108051000Y-140551000D01*
G37*
G36*
X158051000Y-140551000D02*
G01*
X147949000Y-140551000D01*
X147949000Y-135449000D01*
X158051000Y-135449000D01*
X158051000Y-140551000D01*
G37*
G36*
X208051000Y-140551000D02*
G01*
X197949000Y-140551000D01*
X197949000Y-135449000D01*
X208051000Y-135449000D01*
X208051000Y-140551000D01*
G37*
G36*
X68134928Y-139096764D02*
G01*
X68156009Y-139103160D01*
X68175445Y-139113548D01*
X68192476Y-139127524D01*
X68206452Y-139144555D01*
X68216840Y-139163991D01*
X68223236Y-139185072D01*
X68226000Y-139213140D01*
X68226000Y-139676860D01*
X68223236Y-139704928D01*
X68216840Y-139726009D01*
X68206452Y-139745445D01*
X68192476Y-139762476D01*
X68175445Y-139776452D01*
X68156009Y-139786840D01*
X68134928Y-139793236D01*
X68106860Y-139796000D01*
X66193140Y-139796000D01*
X66165072Y-139793236D01*
X66143991Y-139786840D01*
X66124555Y-139776452D01*
X66107524Y-139762476D01*
X66093548Y-139745445D01*
X66083160Y-139726009D01*
X66076764Y-139704928D01*
X66074000Y-139676860D01*
X66074000Y-139213140D01*
X66076764Y-139185072D01*
X66083160Y-139163991D01*
X66093548Y-139144555D01*
X66107524Y-139127524D01*
X66124555Y-139113548D01*
X66143991Y-139103160D01*
X66165072Y-139096764D01*
X66193140Y-139094000D01*
X68106860Y-139094000D01*
X68134928Y-139096764D01*
G37*
G36*
X58834928Y-139096764D02*
G01*
X58856009Y-139103160D01*
X58875445Y-139113548D01*
X58892476Y-139127524D01*
X58906452Y-139144555D01*
X58916840Y-139163991D01*
X58923236Y-139185072D01*
X58926000Y-139213140D01*
X58926000Y-139676860D01*
X58923236Y-139704928D01*
X58916840Y-139726009D01*
X58906452Y-139745445D01*
X58892476Y-139762476D01*
X58875445Y-139776452D01*
X58856009Y-139786840D01*
X58834928Y-139793236D01*
X58806860Y-139796000D01*
X56893140Y-139796000D01*
X56865072Y-139793236D01*
X56843991Y-139786840D01*
X56824555Y-139776452D01*
X56807524Y-139762476D01*
X56793548Y-139745445D01*
X56783160Y-139726009D01*
X56776764Y-139704928D01*
X56774000Y-139676860D01*
X56774000Y-139213140D01*
X56776764Y-139185072D01*
X56783160Y-139163991D01*
X56793548Y-139144555D01*
X56807524Y-139127524D01*
X56824555Y-139113548D01*
X56843991Y-139103160D01*
X56865072Y-139096764D01*
X56893140Y-139094000D01*
X58806860Y-139094000D01*
X58834928Y-139096764D01*
G37*
G36*
X56088674Y-137378465D02*
G01*
X56126367Y-137389899D01*
X56161103Y-137408466D01*
X56191548Y-137433452D01*
X56216534Y-137463897D01*
X56235101Y-137498633D01*
X56246535Y-137536326D01*
X56251000Y-137581661D01*
X56251000Y-138418339D01*
X56246535Y-138463674D01*
X56235101Y-138501367D01*
X56216534Y-138536103D01*
X56191548Y-138566548D01*
X56161103Y-138591534D01*
X56126367Y-138610101D01*
X56088674Y-138621535D01*
X56043339Y-138626000D01*
X54956661Y-138626000D01*
X54911326Y-138621535D01*
X54873633Y-138610101D01*
X54838897Y-138591534D01*
X54808452Y-138566548D01*
X54783466Y-138536103D01*
X54764899Y-138501367D01*
X54753465Y-138463674D01*
X54749000Y-138418339D01*
X54749000Y-137581661D01*
X54753465Y-137536326D01*
X54764899Y-137498633D01*
X54783466Y-137463897D01*
X54808452Y-137433452D01*
X54838897Y-137408466D01*
X54873633Y-137389899D01*
X54911326Y-137378465D01*
X54956661Y-137374000D01*
X56043339Y-137374000D01*
X56088674Y-137378465D01*
G37*
G36*
X68134928Y-137826764D02*
G01*
X68156009Y-137833160D01*
X68175445Y-137843548D01*
X68192476Y-137857524D01*
X68206452Y-137874555D01*
X68216840Y-137893991D01*
X68223236Y-137915072D01*
X68226000Y-137943140D01*
X68226000Y-138406860D01*
X68223236Y-138434928D01*
X68216840Y-138456009D01*
X68206452Y-138475445D01*
X68192476Y-138492476D01*
X68175445Y-138506452D01*
X68156009Y-138516840D01*
X68134928Y-138523236D01*
X68106860Y-138526000D01*
X66193140Y-138526000D01*
X66165072Y-138523236D01*
X66143991Y-138516840D01*
X66124555Y-138506452D01*
X66107524Y-138492476D01*
X66093548Y-138475445D01*
X66083160Y-138456009D01*
X66076764Y-138434928D01*
X66074000Y-138406860D01*
X66074000Y-137943140D01*
X66076764Y-137915072D01*
X66083160Y-137893991D01*
X66093548Y-137874555D01*
X66107524Y-137857524D01*
X66124555Y-137843548D01*
X66143991Y-137833160D01*
X66165072Y-137826764D01*
X66193140Y-137824000D01*
X68106860Y-137824000D01*
X68134928Y-137826764D01*
G37*
G36*
X58834928Y-137826764D02*
G01*
X58856009Y-137833160D01*
X58875445Y-137843548D01*
X58892476Y-137857524D01*
X58906452Y-137874555D01*
X58916840Y-137893991D01*
X58923236Y-137915072D01*
X58926000Y-137943140D01*
X58926000Y-138406860D01*
X58923236Y-138434928D01*
X58916840Y-138456009D01*
X58906452Y-138475445D01*
X58892476Y-138492476D01*
X58875445Y-138506452D01*
X58856009Y-138516840D01*
X58834928Y-138523236D01*
X58806860Y-138526000D01*
X56893140Y-138526000D01*
X56865072Y-138523236D01*
X56843991Y-138516840D01*
X56824555Y-138506452D01*
X56807524Y-138492476D01*
X56793548Y-138475445D01*
X56783160Y-138456009D01*
X56776764Y-138434928D01*
X56774000Y-138406860D01*
X56774000Y-137943140D01*
X56776764Y-137915072D01*
X56783160Y-137893991D01*
X56793548Y-137874555D01*
X56807524Y-137857524D01*
X56824555Y-137843548D01*
X56843991Y-137833160D01*
X56865072Y-137826764D01*
X56893140Y-137824000D01*
X58806860Y-137824000D01*
X58834928Y-137826764D01*
G37*
G36*
X110951000Y-138301000D02*
G01*
X109049000Y-138301000D01*
X109049000Y-135699000D01*
X110951000Y-135699000D01*
X110951000Y-138301000D01*
G37*
G36*
X210951000Y-138301000D02*
G01*
X209049000Y-138301000D01*
X209049000Y-135699000D01*
X210951000Y-135699000D01*
X210951000Y-138301000D01*
G37*
G36*
X160951000Y-138301000D02*
G01*
X159049000Y-138301000D01*
X159049000Y-135699000D01*
X160951000Y-135699000D01*
X160951000Y-138301000D01*
G37*
G36*
X185846189Y-132210483D02*
G01*
X185846192Y-132210484D01*
X185846191Y-132210484D01*
X186374139Y-132429167D01*
X186849280Y-132746646D01*
X187253354Y-133150720D01*
X187548219Y-133592017D01*
X187570834Y-133625863D01*
X187789517Y-134153811D01*
X187901000Y-134714275D01*
X187901000Y-135285725D01*
X187789517Y-135846189D01*
X187570834Y-136374137D01*
X187570833Y-136374139D01*
X187253354Y-136849280D01*
X186849280Y-137253354D01*
X186374139Y-137570833D01*
X186374138Y-137570834D01*
X186374137Y-137570834D01*
X185846189Y-137789517D01*
X185285725Y-137901000D01*
X184714275Y-137901000D01*
X184153811Y-137789517D01*
X183625863Y-137570834D01*
X183625862Y-137570834D01*
X183625861Y-137570833D01*
X183150720Y-137253354D01*
X182746646Y-136849280D01*
X182429167Y-136374139D01*
X182429166Y-136374137D01*
X182210483Y-135846189D01*
X182099000Y-135285725D01*
X182099000Y-134714275D01*
X182210483Y-134153811D01*
X182429166Y-133625863D01*
X182451781Y-133592017D01*
X182746646Y-133150720D01*
X183150720Y-132746646D01*
X183625861Y-132429167D01*
X184153809Y-132210484D01*
X184153808Y-132210484D01*
X184153811Y-132210483D01*
X184714275Y-132099000D01*
X185285725Y-132099000D01*
X185846189Y-132210483D01*
G37*
G36*
X85846189Y-132210483D02*
G01*
X85846192Y-132210484D01*
X85846191Y-132210484D01*
X86374139Y-132429167D01*
X86849280Y-132746646D01*
X87253354Y-133150720D01*
X87548219Y-133592017D01*
X87570834Y-133625863D01*
X87789517Y-134153811D01*
X87901000Y-134714275D01*
X87901000Y-135285725D01*
X87789517Y-135846189D01*
X87570834Y-136374137D01*
X87570833Y-136374139D01*
X87253354Y-136849280D01*
X86849280Y-137253354D01*
X86374139Y-137570833D01*
X86374138Y-137570834D01*
X86374137Y-137570834D01*
X85846189Y-137789517D01*
X85285725Y-137901000D01*
X84714275Y-137901000D01*
X84153811Y-137789517D01*
X83625863Y-137570834D01*
X83625862Y-137570834D01*
X83625861Y-137570833D01*
X83150720Y-137253354D01*
X82746646Y-136849280D01*
X82429167Y-136374139D01*
X82429166Y-136374137D01*
X82210483Y-135846189D01*
X82099000Y-135285725D01*
X82099000Y-134714275D01*
X82210483Y-134153811D01*
X82429166Y-133625863D01*
X82451781Y-133592017D01*
X82746646Y-133150720D01*
X83150720Y-132746646D01*
X83625861Y-132429167D01*
X84153809Y-132210484D01*
X84153808Y-132210484D01*
X84153811Y-132210483D01*
X84714275Y-132099000D01*
X85285725Y-132099000D01*
X85846189Y-132210483D01*
G37*
G36*
X135846189Y-132210483D02*
G01*
X135846192Y-132210484D01*
X135846191Y-132210484D01*
X136374139Y-132429167D01*
X136849280Y-132746646D01*
X137253354Y-133150720D01*
X137548219Y-133592017D01*
X137570834Y-133625863D01*
X137789517Y-134153811D01*
X137901000Y-134714275D01*
X137901000Y-135285725D01*
X137789517Y-135846189D01*
X137570834Y-136374137D01*
X137570833Y-136374139D01*
X137253354Y-136849280D01*
X136849280Y-137253354D01*
X136374139Y-137570833D01*
X136374138Y-137570834D01*
X136374137Y-137570834D01*
X135846189Y-137789517D01*
X135285725Y-137901000D01*
X134714275Y-137901000D01*
X134153811Y-137789517D01*
X133625863Y-137570834D01*
X133625862Y-137570834D01*
X133625861Y-137570833D01*
X133150720Y-137253354D01*
X132746646Y-136849280D01*
X132429167Y-136374139D01*
X132429166Y-136374137D01*
X132210483Y-135846189D01*
X132099000Y-135285725D01*
X132099000Y-134714275D01*
X132210483Y-134153811D01*
X132429166Y-133625863D01*
X132451781Y-133592017D01*
X132746646Y-133150720D01*
X133150720Y-132746646D01*
X133625861Y-132429167D01*
X134153809Y-132210484D01*
X134153808Y-132210484D01*
X134153811Y-132210483D01*
X134714275Y-132099000D01*
X135285725Y-132099000D01*
X135846189Y-132210483D01*
G37*
G36*
X58834928Y-136556764D02*
G01*
X58856009Y-136563160D01*
X58875445Y-136573548D01*
X58892476Y-136587524D01*
X58906452Y-136604555D01*
X58916840Y-136623991D01*
X58923236Y-136645072D01*
X58926000Y-136673140D01*
X58926000Y-137136860D01*
X58923236Y-137164928D01*
X58916840Y-137186009D01*
X58906452Y-137205445D01*
X58892476Y-137222476D01*
X58875445Y-137236452D01*
X58856009Y-137246840D01*
X58834928Y-137253236D01*
X58806860Y-137256000D01*
X56893140Y-137256000D01*
X56865072Y-137253236D01*
X56843991Y-137246840D01*
X56824555Y-137236452D01*
X56807524Y-137222476D01*
X56793548Y-137205445D01*
X56783160Y-137186009D01*
X56776764Y-137164928D01*
X56774000Y-137136860D01*
X56774000Y-136673140D01*
X56776764Y-136645072D01*
X56783160Y-136623991D01*
X56793548Y-136604555D01*
X56807524Y-136587524D01*
X56824555Y-136573548D01*
X56843991Y-136563160D01*
X56865072Y-136556764D01*
X56893140Y-136554000D01*
X58806860Y-136554000D01*
X58834928Y-136556764D01*
G37*
G36*
X68134928Y-136556764D02*
G01*
X68156009Y-136563160D01*
X68175445Y-136573548D01*
X68192476Y-136587524D01*
X68206452Y-136604555D01*
X68216840Y-136623991D01*
X68223236Y-136645072D01*
X68226000Y-136673140D01*
X68226000Y-137136860D01*
X68223236Y-137164928D01*
X68216840Y-137186009D01*
X68206452Y-137205445D01*
X68192476Y-137222476D01*
X68175445Y-137236452D01*
X68156009Y-137246840D01*
X68134928Y-137253236D01*
X68106860Y-137256000D01*
X66193140Y-137256000D01*
X66165072Y-137253236D01*
X66143991Y-137246840D01*
X66124555Y-137236452D01*
X66107524Y-137222476D01*
X66093548Y-137205445D01*
X66083160Y-137186009D01*
X66076764Y-137164928D01*
X66074000Y-137136860D01*
X66074000Y-136673140D01*
X66076764Y-136645072D01*
X66083160Y-136623991D01*
X66093548Y-136604555D01*
X66107524Y-136587524D01*
X66124555Y-136573548D01*
X66143991Y-136563160D01*
X66165072Y-136556764D01*
X66193140Y-136554000D01*
X68106860Y-136554000D01*
X68134928Y-136556764D01*
G37*
G36*
X56088674Y-135328465D02*
G01*
X56126367Y-135339899D01*
X56161103Y-135358466D01*
X56191548Y-135383452D01*
X56216534Y-135413897D01*
X56235101Y-135448633D01*
X56246535Y-135486326D01*
X56251000Y-135531661D01*
X56251000Y-136368339D01*
X56246535Y-136413674D01*
X56235101Y-136451367D01*
X56216534Y-136486103D01*
X56191548Y-136516548D01*
X56161103Y-136541534D01*
X56126367Y-136560101D01*
X56088674Y-136571535D01*
X56043339Y-136576000D01*
X54956661Y-136576000D01*
X54911326Y-136571535D01*
X54873633Y-136560101D01*
X54838897Y-136541534D01*
X54808452Y-136516548D01*
X54783466Y-136486103D01*
X54764899Y-136451367D01*
X54753465Y-136413674D01*
X54749000Y-136368339D01*
X54749000Y-135531661D01*
X54753465Y-135486326D01*
X54764899Y-135448633D01*
X54783466Y-135413897D01*
X54808452Y-135383452D01*
X54838897Y-135358466D01*
X54873633Y-135339899D01*
X54911326Y-135328465D01*
X54956661Y-135324000D01*
X56043339Y-135324000D01*
X56088674Y-135328465D01*
G37*
G36*
X68134928Y-135286764D02*
G01*
X68156009Y-135293160D01*
X68175445Y-135303548D01*
X68192476Y-135317524D01*
X68206452Y-135334555D01*
X68216840Y-135353991D01*
X68223236Y-135375072D01*
X68226000Y-135403140D01*
X68226000Y-135866860D01*
X68223236Y-135894928D01*
X68216840Y-135916009D01*
X68206452Y-135935445D01*
X68192476Y-135952476D01*
X68175445Y-135966452D01*
X68156009Y-135976840D01*
X68134928Y-135983236D01*
X68106860Y-135986000D01*
X66193140Y-135986000D01*
X66165072Y-135983236D01*
X66143991Y-135976840D01*
X66124555Y-135966452D01*
X66107524Y-135952476D01*
X66093548Y-135935445D01*
X66083160Y-135916009D01*
X66076764Y-135894928D01*
X66074000Y-135866860D01*
X66074000Y-135403140D01*
X66076764Y-135375072D01*
X66083160Y-135353991D01*
X66093548Y-135334555D01*
X66107524Y-135317524D01*
X66124555Y-135303548D01*
X66143991Y-135293160D01*
X66165072Y-135286764D01*
X66193140Y-135284000D01*
X68106860Y-135284000D01*
X68134928Y-135286764D01*
G37*
G36*
X58834928Y-135286764D02*
G01*
X58856009Y-135293160D01*
X58875445Y-135303548D01*
X58892476Y-135317524D01*
X58906452Y-135334555D01*
X58916840Y-135353991D01*
X58923236Y-135375072D01*
X58926000Y-135403140D01*
X58926000Y-135866860D01*
X58923236Y-135894928D01*
X58916840Y-135916009D01*
X58906452Y-135935445D01*
X58892476Y-135952476D01*
X58875445Y-135966452D01*
X58856009Y-135976840D01*
X58834928Y-135983236D01*
X58806860Y-135986000D01*
X56893140Y-135986000D01*
X56865072Y-135983236D01*
X56843991Y-135976840D01*
X56824555Y-135966452D01*
X56807524Y-135952476D01*
X56793548Y-135935445D01*
X56783160Y-135916009D01*
X56776764Y-135894928D01*
X56774000Y-135866860D01*
X56774000Y-135403140D01*
X56776764Y-135375072D01*
X56783160Y-135353991D01*
X56793548Y-135334555D01*
X56807524Y-135317524D01*
X56824555Y-135303548D01*
X56843991Y-135293160D01*
X56865072Y-135286764D01*
X56893140Y-135284000D01*
X58806860Y-135284000D01*
X58834928Y-135286764D01*
G37*
G36*
X58834928Y-134016764D02*
G01*
X58856009Y-134023160D01*
X58875445Y-134033548D01*
X58892476Y-134047524D01*
X58906452Y-134064555D01*
X58916840Y-134083991D01*
X58923236Y-134105072D01*
X58926000Y-134133140D01*
X58926000Y-134596860D01*
X58923236Y-134624928D01*
X58916840Y-134646009D01*
X58906452Y-134665445D01*
X58892476Y-134682476D01*
X58875445Y-134696452D01*
X58856009Y-134706840D01*
X58834928Y-134713236D01*
X58806860Y-134716000D01*
X56893140Y-134716000D01*
X56865072Y-134713236D01*
X56843991Y-134706840D01*
X56824555Y-134696452D01*
X56807524Y-134682476D01*
X56793548Y-134665445D01*
X56783160Y-134646009D01*
X56776764Y-134624928D01*
X56774000Y-134596860D01*
X56774000Y-134133140D01*
X56776764Y-134105072D01*
X56783160Y-134083991D01*
X56793548Y-134064555D01*
X56807524Y-134047524D01*
X56824555Y-134033548D01*
X56843991Y-134023160D01*
X56865072Y-134016764D01*
X56893140Y-134014000D01*
X58806860Y-134014000D01*
X58834928Y-134016764D01*
G37*
G36*
X68134928Y-134016764D02*
G01*
X68156009Y-134023160D01*
X68175445Y-134033548D01*
X68192476Y-134047524D01*
X68206452Y-134064555D01*
X68216840Y-134083991D01*
X68223236Y-134105072D01*
X68226000Y-134133140D01*
X68226000Y-134596860D01*
X68223236Y-134624928D01*
X68216840Y-134646009D01*
X68206452Y-134665445D01*
X68192476Y-134682476D01*
X68175445Y-134696452D01*
X68156009Y-134706840D01*
X68134928Y-134713236D01*
X68106860Y-134716000D01*
X66193140Y-134716000D01*
X66165072Y-134713236D01*
X66143991Y-134706840D01*
X66124555Y-134696452D01*
X66107524Y-134682476D01*
X66093548Y-134665445D01*
X66083160Y-134646009D01*
X66076764Y-134624928D01*
X66074000Y-134596860D01*
X66074000Y-134133140D01*
X66076764Y-134105072D01*
X66083160Y-134083991D01*
X66093548Y-134064555D01*
X66107524Y-134047524D01*
X66124555Y-134033548D01*
X66143991Y-134023160D01*
X66165072Y-134016764D01*
X66193140Y-134014000D01*
X68106860Y-134014000D01*
X68134928Y-134016764D01*
G37*
G36*
X70088674Y-133428465D02*
G01*
X70126367Y-133439899D01*
X70161103Y-133458466D01*
X70191548Y-133483452D01*
X70216534Y-133513897D01*
X70235101Y-133548633D01*
X70246535Y-133586326D01*
X70251000Y-133631661D01*
X70251000Y-134468339D01*
X70246535Y-134513674D01*
X70235101Y-134551367D01*
X70216534Y-134586103D01*
X70191548Y-134616548D01*
X70161103Y-134641534D01*
X70126367Y-134660101D01*
X70088674Y-134671535D01*
X70043339Y-134676000D01*
X68956661Y-134676000D01*
X68911326Y-134671535D01*
X68873633Y-134660101D01*
X68838897Y-134641534D01*
X68808452Y-134616548D01*
X68783466Y-134586103D01*
X68764899Y-134551367D01*
X68753465Y-134513674D01*
X68749000Y-134468339D01*
X68749000Y-133631661D01*
X68753465Y-133586326D01*
X68764899Y-133548633D01*
X68783466Y-133513897D01*
X68808452Y-133483452D01*
X68838897Y-133458466D01*
X68873633Y-133439899D01*
X68911326Y-133428465D01*
X68956661Y-133424000D01*
X70043339Y-133424000D01*
X70088674Y-133428465D01*
G37*
G36*
X158051000Y-134551000D02*
G01*
X147949000Y-134551000D01*
X147949000Y-129449000D01*
X158051000Y-129449000D01*
X158051000Y-134551000D01*
G37*
G36*
X108051000Y-134551000D02*
G01*
X97949000Y-134551000D01*
X97949000Y-129449000D01*
X108051000Y-129449000D01*
X108051000Y-134551000D01*
G37*
G36*
X208051000Y-134551000D02*
G01*
X197949000Y-134551000D01*
X197949000Y-129449000D01*
X208051000Y-129449000D01*
X208051000Y-134551000D01*
G37*
G36*
X110951000Y-134301000D02*
G01*
X109049000Y-134301000D01*
X109049000Y-131699000D01*
X110951000Y-131699000D01*
X110951000Y-134301000D01*
G37*
G36*
X160951000Y-134301000D02*
G01*
X159049000Y-134301000D01*
X159049000Y-131699000D01*
X160951000Y-131699000D01*
X160951000Y-134301000D01*
G37*
G36*
X210951000Y-134301000D02*
G01*
X209049000Y-134301000D01*
X209049000Y-131699000D01*
X210951000Y-131699000D01*
X210951000Y-134301000D01*
G37*
G36*
X58834928Y-132746764D02*
G01*
X58856009Y-132753160D01*
X58875445Y-132763548D01*
X58892476Y-132777524D01*
X58906452Y-132794555D01*
X58916840Y-132813991D01*
X58923236Y-132835072D01*
X58926000Y-132863140D01*
X58926000Y-133326860D01*
X58923236Y-133354928D01*
X58916840Y-133376009D01*
X58906452Y-133395445D01*
X58892476Y-133412476D01*
X58875445Y-133426452D01*
X58856009Y-133436840D01*
X58834928Y-133443236D01*
X58806860Y-133446000D01*
X56893140Y-133446000D01*
X56865072Y-133443236D01*
X56843991Y-133436840D01*
X56824555Y-133426452D01*
X56807524Y-133412476D01*
X56793548Y-133395445D01*
X56783160Y-133376009D01*
X56776764Y-133354928D01*
X56774000Y-133326860D01*
X56774000Y-132863140D01*
X56776764Y-132835072D01*
X56783160Y-132813991D01*
X56793548Y-132794555D01*
X56807524Y-132777524D01*
X56824555Y-132763548D01*
X56843991Y-132753160D01*
X56865072Y-132746764D01*
X56893140Y-132744000D01*
X58806860Y-132744000D01*
X58834928Y-132746764D01*
G37*
G36*
X68134928Y-132746764D02*
G01*
X68156009Y-132753160D01*
X68175445Y-132763548D01*
X68192476Y-132777524D01*
X68206452Y-132794555D01*
X68216840Y-132813991D01*
X68223236Y-132835072D01*
X68226000Y-132863140D01*
X68226000Y-133326860D01*
X68223236Y-133354928D01*
X68216840Y-133376009D01*
X68206452Y-133395445D01*
X68192476Y-133412476D01*
X68175445Y-133426452D01*
X68156009Y-133436840D01*
X68134928Y-133443236D01*
X68106860Y-133446000D01*
X66193140Y-133446000D01*
X66165072Y-133443236D01*
X66143991Y-133436840D01*
X66124555Y-133426452D01*
X66107524Y-133412476D01*
X66093548Y-133395445D01*
X66083160Y-133376009D01*
X66076764Y-133354928D01*
X66074000Y-133326860D01*
X66074000Y-132863140D01*
X66076764Y-132835072D01*
X66083160Y-132813991D01*
X66093548Y-132794555D01*
X66107524Y-132777524D01*
X66124555Y-132763548D01*
X66143991Y-132753160D01*
X66165072Y-132746764D01*
X66193140Y-132744000D01*
X68106860Y-132744000D01*
X68134928Y-132746764D01*
G37*
G36*
X70088674Y-131378465D02*
G01*
X70126367Y-131389899D01*
X70161103Y-131408466D01*
X70191548Y-131433452D01*
X70216534Y-131463897D01*
X70235101Y-131498633D01*
X70246535Y-131536326D01*
X70251000Y-131581661D01*
X70251000Y-132418339D01*
X70246535Y-132463674D01*
X70235101Y-132501367D01*
X70216534Y-132536103D01*
X70191548Y-132566548D01*
X70161103Y-132591534D01*
X70126367Y-132610101D01*
X70088674Y-132621535D01*
X70043339Y-132626000D01*
X68956661Y-132626000D01*
X68911326Y-132621535D01*
X68873633Y-132610101D01*
X68838897Y-132591534D01*
X68808452Y-132566548D01*
X68783466Y-132536103D01*
X68764899Y-132501367D01*
X68753465Y-132463674D01*
X68749000Y-132418339D01*
X68749000Y-131581661D01*
X68753465Y-131536326D01*
X68764899Y-131498633D01*
X68783466Y-131463897D01*
X68808452Y-131433452D01*
X68838897Y-131408466D01*
X68873633Y-131389899D01*
X68911326Y-131378465D01*
X68956661Y-131374000D01*
X70043339Y-131374000D01*
X70088674Y-131378465D01*
G37*
G36*
X68134928Y-131476764D02*
G01*
X68156009Y-131483160D01*
X68175445Y-131493548D01*
X68192476Y-131507524D01*
X68206452Y-131524555D01*
X68216840Y-131543991D01*
X68223236Y-131565072D01*
X68226000Y-131593140D01*
X68226000Y-132056860D01*
X68223236Y-132084928D01*
X68216840Y-132106009D01*
X68206452Y-132125445D01*
X68192476Y-132142476D01*
X68175445Y-132156452D01*
X68156009Y-132166840D01*
X68134928Y-132173236D01*
X68106860Y-132176000D01*
X66193140Y-132176000D01*
X66165072Y-132173236D01*
X66143991Y-132166840D01*
X66124555Y-132156452D01*
X66107524Y-132142476D01*
X66093548Y-132125445D01*
X66083160Y-132106009D01*
X66076764Y-132084928D01*
X66074000Y-132056860D01*
X66074000Y-131593140D01*
X66076764Y-131565072D01*
X66083160Y-131543991D01*
X66093548Y-131524555D01*
X66107524Y-131507524D01*
X66124555Y-131493548D01*
X66143991Y-131483160D01*
X66165072Y-131476764D01*
X66193140Y-131474000D01*
X68106860Y-131474000D01*
X68134928Y-131476764D01*
G37*
G36*
X58834928Y-131476764D02*
G01*
X58856009Y-131483160D01*
X58875445Y-131493548D01*
X58892476Y-131507524D01*
X58906452Y-131524555D01*
X58916840Y-131543991D01*
X58923236Y-131565072D01*
X58926000Y-131593140D01*
X58926000Y-132056860D01*
X58923236Y-132084928D01*
X58916840Y-132106009D01*
X58906452Y-132125445D01*
X58892476Y-132142476D01*
X58875445Y-132156452D01*
X58856009Y-132166840D01*
X58834928Y-132173236D01*
X58806860Y-132176000D01*
X56893140Y-132176000D01*
X56865072Y-132173236D01*
X56843991Y-132166840D01*
X56824555Y-132156452D01*
X56807524Y-132142476D01*
X56793548Y-132125445D01*
X56783160Y-132106009D01*
X56776764Y-132084928D01*
X56774000Y-132056860D01*
X56774000Y-131593140D01*
X56776764Y-131565072D01*
X56783160Y-131543991D01*
X56793548Y-131524555D01*
X56807524Y-131507524D01*
X56824555Y-131493548D01*
X56843991Y-131483160D01*
X56865072Y-131476764D01*
X56893140Y-131474000D01*
X58806860Y-131474000D01*
X58834928Y-131476764D01*
G37*
G36*
X68134928Y-130206764D02*
G01*
X68156009Y-130213160D01*
X68175445Y-130223548D01*
X68192476Y-130237524D01*
X68206452Y-130254555D01*
X68216840Y-130273991D01*
X68223236Y-130295072D01*
X68226000Y-130323140D01*
X68226000Y-130786860D01*
X68223236Y-130814928D01*
X68216840Y-130836009D01*
X68206452Y-130855445D01*
X68192476Y-130872476D01*
X68175445Y-130886452D01*
X68156009Y-130896840D01*
X68134928Y-130903236D01*
X68106860Y-130906000D01*
X66193140Y-130906000D01*
X66165072Y-130903236D01*
X66143991Y-130896840D01*
X66124555Y-130886452D01*
X66107524Y-130872476D01*
X66093548Y-130855445D01*
X66083160Y-130836009D01*
X66076764Y-130814928D01*
X66074000Y-130786860D01*
X66074000Y-130323140D01*
X66076764Y-130295072D01*
X66083160Y-130273991D01*
X66093548Y-130254555D01*
X66107524Y-130237524D01*
X66124555Y-130223548D01*
X66143991Y-130213160D01*
X66165072Y-130206764D01*
X66193140Y-130204000D01*
X68106860Y-130204000D01*
X68134928Y-130206764D01*
G37*
G36*
X58834928Y-130206764D02*
G01*
X58856009Y-130213160D01*
X58875445Y-130223548D01*
X58892476Y-130237524D01*
X58906452Y-130254555D01*
X58916840Y-130273991D01*
X58923236Y-130295072D01*
X58926000Y-130323140D01*
X58926000Y-130786860D01*
X58923236Y-130814928D01*
X58916840Y-130836009D01*
X58906452Y-130855445D01*
X58892476Y-130872476D01*
X58875445Y-130886452D01*
X58856009Y-130896840D01*
X58834928Y-130903236D01*
X58806860Y-130906000D01*
X56893140Y-130906000D01*
X56865072Y-130903236D01*
X56843991Y-130896840D01*
X56824555Y-130886452D01*
X56807524Y-130872476D01*
X56793548Y-130855445D01*
X56783160Y-130836009D01*
X56776764Y-130814928D01*
X56774000Y-130786860D01*
X56774000Y-130323140D01*
X56776764Y-130295072D01*
X56783160Y-130273991D01*
X56793548Y-130254555D01*
X56807524Y-130237524D01*
X56824555Y-130223548D01*
X56843991Y-130213160D01*
X56865072Y-130206764D01*
X56893140Y-130204000D01*
X58806860Y-130204000D01*
X58834928Y-130206764D01*
G37*
G36*
X68134928Y-128936764D02*
G01*
X68156009Y-128943160D01*
X68175445Y-128953548D01*
X68192476Y-128967524D01*
X68206452Y-128984555D01*
X68216840Y-129003991D01*
X68223236Y-129025072D01*
X68226000Y-129053140D01*
X68226000Y-129516860D01*
X68223236Y-129544928D01*
X68216840Y-129566009D01*
X68206452Y-129585445D01*
X68192476Y-129602476D01*
X68175445Y-129616452D01*
X68156009Y-129626840D01*
X68134928Y-129633236D01*
X68106860Y-129636000D01*
X66193140Y-129636000D01*
X66165072Y-129633236D01*
X66143991Y-129626840D01*
X66124555Y-129616452D01*
X66107524Y-129602476D01*
X66093548Y-129585445D01*
X66083160Y-129566009D01*
X66076764Y-129544928D01*
X66074000Y-129516860D01*
X66074000Y-129053140D01*
X66076764Y-129025072D01*
X66083160Y-129003991D01*
X66093548Y-128984555D01*
X66107524Y-128967524D01*
X66124555Y-128953548D01*
X66143991Y-128943160D01*
X66165072Y-128936764D01*
X66193140Y-128934000D01*
X68106860Y-128934000D01*
X68134928Y-128936764D01*
G37*
G36*
X58834928Y-128936764D02*
G01*
X58856009Y-128943160D01*
X58875445Y-128953548D01*
X58892476Y-128967524D01*
X58906452Y-128984555D01*
X58916840Y-129003991D01*
X58923236Y-129025072D01*
X58926000Y-129053140D01*
X58926000Y-129516860D01*
X58923236Y-129544928D01*
X58916840Y-129566009D01*
X58906452Y-129585445D01*
X58892476Y-129602476D01*
X58875445Y-129616452D01*
X58856009Y-129626840D01*
X58834928Y-129633236D01*
X58806860Y-129636000D01*
X56893140Y-129636000D01*
X56865072Y-129633236D01*
X56843991Y-129626840D01*
X56824555Y-129616452D01*
X56807524Y-129602476D01*
X56793548Y-129585445D01*
X56783160Y-129566009D01*
X56776764Y-129544928D01*
X56774000Y-129516860D01*
X56774000Y-129053140D01*
X56776764Y-129025072D01*
X56783160Y-129003991D01*
X56793548Y-128984555D01*
X56807524Y-128967524D01*
X56824555Y-128953548D01*
X56843991Y-128943160D01*
X56865072Y-128936764D01*
X56893140Y-128934000D01*
X58806860Y-128934000D01*
X58834928Y-128936764D01*
G37*
G36*
X68134928Y-127666764D02*
G01*
X68156009Y-127673160D01*
X68175445Y-127683548D01*
X68192476Y-127697524D01*
X68206452Y-127714555D01*
X68216840Y-127733991D01*
X68223236Y-127755072D01*
X68226000Y-127783140D01*
X68226000Y-128246860D01*
X68223236Y-128274928D01*
X68216840Y-128296009D01*
X68206452Y-128315445D01*
X68192476Y-128332476D01*
X68175445Y-128346452D01*
X68156009Y-128356840D01*
X68134928Y-128363236D01*
X68106860Y-128366000D01*
X66193140Y-128366000D01*
X66165072Y-128363236D01*
X66143991Y-128356840D01*
X66124555Y-128346452D01*
X66107524Y-128332476D01*
X66093548Y-128315445D01*
X66083160Y-128296009D01*
X66076764Y-128274928D01*
X66074000Y-128246860D01*
X66074000Y-127783140D01*
X66076764Y-127755072D01*
X66083160Y-127733991D01*
X66093548Y-127714555D01*
X66107524Y-127697524D01*
X66124555Y-127683548D01*
X66143991Y-127673160D01*
X66165072Y-127666764D01*
X66193140Y-127664000D01*
X68106860Y-127664000D01*
X68134928Y-127666764D01*
G37*
G36*
X58834928Y-127666764D02*
G01*
X58856009Y-127673160D01*
X58875445Y-127683548D01*
X58892476Y-127697524D01*
X58906452Y-127714555D01*
X58916840Y-127733991D01*
X58923236Y-127755072D01*
X58926000Y-127783140D01*
X58926000Y-128246860D01*
X58923236Y-128274928D01*
X58916840Y-128296009D01*
X58906452Y-128315445D01*
X58892476Y-128332476D01*
X58875445Y-128346452D01*
X58856009Y-128356840D01*
X58834928Y-128363236D01*
X58806860Y-128366000D01*
X56893140Y-128366000D01*
X56865072Y-128363236D01*
X56843991Y-128356840D01*
X56824555Y-128346452D01*
X56807524Y-128332476D01*
X56793548Y-128315445D01*
X56783160Y-128296009D01*
X56776764Y-128274928D01*
X56774000Y-128246860D01*
X56774000Y-127783140D01*
X56776764Y-127755072D01*
X56783160Y-127733991D01*
X56793548Y-127714555D01*
X56807524Y-127697524D01*
X56824555Y-127683548D01*
X56843991Y-127673160D01*
X56865072Y-127666764D01*
X56893140Y-127664000D01*
X58806860Y-127664000D01*
X58834928Y-127666764D01*
G37*
G36*
X68134928Y-126396764D02*
G01*
X68156009Y-126403160D01*
X68175445Y-126413548D01*
X68192476Y-126427524D01*
X68206452Y-126444555D01*
X68216840Y-126463991D01*
X68223236Y-126485072D01*
X68226000Y-126513140D01*
X68226000Y-126976860D01*
X68223236Y-127004928D01*
X68216840Y-127026009D01*
X68206452Y-127045445D01*
X68192476Y-127062476D01*
X68175445Y-127076452D01*
X68156009Y-127086840D01*
X68134928Y-127093236D01*
X68106860Y-127096000D01*
X66193140Y-127096000D01*
X66165072Y-127093236D01*
X66143991Y-127086840D01*
X66124555Y-127076452D01*
X66107524Y-127062476D01*
X66093548Y-127045445D01*
X66083160Y-127026009D01*
X66076764Y-127004928D01*
X66074000Y-126976860D01*
X66074000Y-126513140D01*
X66076764Y-126485072D01*
X66083160Y-126463991D01*
X66093548Y-126444555D01*
X66107524Y-126427524D01*
X66124555Y-126413548D01*
X66143991Y-126403160D01*
X66165072Y-126396764D01*
X66193140Y-126394000D01*
X68106860Y-126394000D01*
X68134928Y-126396764D01*
G37*
G36*
X58834928Y-126396764D02*
G01*
X58856009Y-126403160D01*
X58875445Y-126413548D01*
X58892476Y-126427524D01*
X58906452Y-126444555D01*
X58916840Y-126463991D01*
X58923236Y-126485072D01*
X58926000Y-126513140D01*
X58926000Y-126976860D01*
X58923236Y-127004928D01*
X58916840Y-127026009D01*
X58906452Y-127045445D01*
X58892476Y-127062476D01*
X58875445Y-127076452D01*
X58856009Y-127086840D01*
X58834928Y-127093236D01*
X58806860Y-127096000D01*
X56893140Y-127096000D01*
X56865072Y-127093236D01*
X56843991Y-127086840D01*
X56824555Y-127076452D01*
X56807524Y-127062476D01*
X56793548Y-127045445D01*
X56783160Y-127026009D01*
X56776764Y-127004928D01*
X56774000Y-126976860D01*
X56774000Y-126513140D01*
X56776764Y-126485072D01*
X56783160Y-126463991D01*
X56793548Y-126444555D01*
X56807524Y-126427524D01*
X56824555Y-126413548D01*
X56843991Y-126403160D01*
X56865072Y-126396764D01*
X56893140Y-126394000D01*
X58806860Y-126394000D01*
X58834928Y-126396764D01*
G37*
G36*
X85237142Y-123218242D02*
G01*
X85385101Y-123279529D01*
X85518255Y-123368499D01*
X85631501Y-123481745D01*
X85720471Y-123614899D01*
X85781758Y-123762858D01*
X85813000Y-123919925D01*
X85813000Y-124080075D01*
X85781758Y-124237142D01*
X85720471Y-124385101D01*
X85631501Y-124518255D01*
X85518255Y-124631501D01*
X85385101Y-124720471D01*
X85237142Y-124781758D01*
X85080075Y-124813000D01*
X84919925Y-124813000D01*
X84762858Y-124781758D01*
X84614899Y-124720471D01*
X84481745Y-124631501D01*
X84368499Y-124518255D01*
X84279529Y-124385101D01*
X84218242Y-124237142D01*
X84187000Y-124080075D01*
X84187000Y-123919925D01*
X84218242Y-123762858D01*
X84279529Y-123614899D01*
X84368499Y-123481745D01*
X84481745Y-123368499D01*
X84614899Y-123279529D01*
X84762858Y-123218242D01*
X84919925Y-123187000D01*
X85080075Y-123187000D01*
X85237142Y-123218242D01*
G37*
G36*
X185237142Y-123218242D02*
G01*
X185385101Y-123279529D01*
X185518255Y-123368499D01*
X185631501Y-123481745D01*
X185720471Y-123614899D01*
X185781758Y-123762858D01*
X185813000Y-123919925D01*
X185813000Y-124080075D01*
X185781758Y-124237142D01*
X185720471Y-124385101D01*
X185631501Y-124518255D01*
X185518255Y-124631501D01*
X185385101Y-124720471D01*
X185237142Y-124781758D01*
X185080075Y-124813000D01*
X184919925Y-124813000D01*
X184762858Y-124781758D01*
X184614899Y-124720471D01*
X184481745Y-124631501D01*
X184368499Y-124518255D01*
X184279529Y-124385101D01*
X184218242Y-124237142D01*
X184187000Y-124080075D01*
X184187000Y-123919925D01*
X184218242Y-123762858D01*
X184279529Y-123614899D01*
X184368499Y-123481745D01*
X184481745Y-123368499D01*
X184614899Y-123279529D01*
X184762858Y-123218242D01*
X184919925Y-123187000D01*
X185080075Y-123187000D01*
X185237142Y-123218242D01*
G37*
G36*
X135237142Y-123218242D02*
G01*
X135385101Y-123279529D01*
X135518255Y-123368499D01*
X135631501Y-123481745D01*
X135720471Y-123614899D01*
X135781758Y-123762858D01*
X135813000Y-123919925D01*
X135813000Y-124080075D01*
X135781758Y-124237142D01*
X135720471Y-124385101D01*
X135631501Y-124518255D01*
X135518255Y-124631501D01*
X135385101Y-124720471D01*
X135237142Y-124781758D01*
X135080075Y-124813000D01*
X134919925Y-124813000D01*
X134762858Y-124781758D01*
X134614899Y-124720471D01*
X134481745Y-124631501D01*
X134368499Y-124518255D01*
X134279529Y-124385101D01*
X134218242Y-124237142D01*
X134187000Y-124080075D01*
X134187000Y-123919925D01*
X134218242Y-123762858D01*
X134279529Y-123614899D01*
X134368499Y-123481745D01*
X134481745Y-123368499D01*
X134614899Y-123279529D01*
X134762858Y-123218242D01*
X134919925Y-123187000D01*
X135080075Y-123187000D01*
X135237142Y-123218242D01*
G37*
G36*
X203488674Y-114753465D02*
G01*
X203526367Y-114764899D01*
X203561103Y-114783466D01*
X203591548Y-114808452D01*
X203616534Y-114838897D01*
X203635101Y-114873633D01*
X203646535Y-114911326D01*
X203651000Y-114956661D01*
X203651000Y-116043339D01*
X203646535Y-116088674D01*
X203635101Y-116126367D01*
X203616534Y-116161103D01*
X203591548Y-116191548D01*
X203561103Y-116216534D01*
X203526367Y-116235101D01*
X203488674Y-116246535D01*
X203443339Y-116251000D01*
X202606661Y-116251000D01*
X202561326Y-116246535D01*
X202523633Y-116235101D01*
X202488897Y-116216534D01*
X202458452Y-116191548D01*
X202433466Y-116161103D01*
X202414899Y-116126367D01*
X202403465Y-116088674D01*
X202399000Y-116043339D01*
X202399000Y-114956661D01*
X202403465Y-114911326D01*
X202414899Y-114873633D01*
X202433466Y-114838897D01*
X202458452Y-114808452D01*
X202488897Y-114783466D01*
X202523633Y-114764899D01*
X202561326Y-114753465D01*
X202606661Y-114749000D01*
X203443339Y-114749000D01*
X203488674Y-114753465D01*
G37*
G36*
X201438674Y-114753465D02*
G01*
X201476367Y-114764899D01*
X201511103Y-114783466D01*
X201541548Y-114808452D01*
X201566534Y-114838897D01*
X201585101Y-114873633D01*
X201596535Y-114911326D01*
X201601000Y-114956661D01*
X201601000Y-116043339D01*
X201596535Y-116088674D01*
X201585101Y-116126367D01*
X201566534Y-116161103D01*
X201541548Y-116191548D01*
X201511103Y-116216534D01*
X201476367Y-116235101D01*
X201438674Y-116246535D01*
X201393339Y-116251000D01*
X200556661Y-116251000D01*
X200511326Y-116246535D01*
X200473633Y-116235101D01*
X200438897Y-116216534D01*
X200408452Y-116191548D01*
X200383466Y-116161103D01*
X200364899Y-116126367D01*
X200353465Y-116088674D01*
X200349000Y-116043339D01*
X200349000Y-114956661D01*
X200353465Y-114911326D01*
X200364899Y-114873633D01*
X200383466Y-114838897D01*
X200408452Y-114808452D01*
X200438897Y-114783466D01*
X200473633Y-114764899D01*
X200511326Y-114753465D01*
X200556661Y-114749000D01*
X201393339Y-114749000D01*
X201438674Y-114753465D01*
G37*
G36*
X212573512Y-111103927D02*
G01*
X212722812Y-111133624D01*
X212886784Y-111201544D01*
X213034354Y-111300147D01*
X213159853Y-111425646D01*
X213258456Y-111573216D01*
X213326376Y-111737188D01*
X213361000Y-111911259D01*
X213361000Y-112088741D01*
X213326376Y-112262812D01*
X213258456Y-112426784D01*
X213159853Y-112574354D01*
X213034354Y-112699853D01*
X212886784Y-112798456D01*
X212722812Y-112866376D01*
X212573512Y-112896073D01*
X212548742Y-112901000D01*
X212371258Y-112901000D01*
X212346488Y-112896073D01*
X212197188Y-112866376D01*
X212033216Y-112798456D01*
X211885646Y-112699853D01*
X211760147Y-112574354D01*
X211661544Y-112426784D01*
X211593624Y-112262812D01*
X211559000Y-112088741D01*
X211559000Y-111911259D01*
X211593624Y-111737188D01*
X211661544Y-111573216D01*
X211760147Y-111425646D01*
X211885646Y-111300147D01*
X212033216Y-111201544D01*
X212197188Y-111133624D01*
X212346488Y-111103927D01*
X212371258Y-111099000D01*
X212548742Y-111099000D01*
X212573512Y-111103927D01*
G37*
G36*
X215901000Y-112901000D02*
G01*
X214099000Y-112901000D01*
X214099000Y-111099000D01*
X215901000Y-111099000D01*
X215901000Y-112901000D01*
G37*
G36*
X205751000Y-112851000D02*
G01*
X203649000Y-112851000D01*
X203649000Y-111149000D01*
X205751000Y-111149000D01*
X205751000Y-112851000D01*
G37*
G36*
X200351000Y-112851000D02*
G01*
X198249000Y-112851000D01*
X198249000Y-111149000D01*
X200351000Y-111149000D01*
X200351000Y-112851000D01*
G37*
G36*
X212573512Y-108563927D02*
G01*
X212722812Y-108593624D01*
X212886784Y-108661544D01*
X213034354Y-108760147D01*
X213159853Y-108885646D01*
X213258456Y-109033216D01*
X213326376Y-109197188D01*
X213361000Y-109371259D01*
X213361000Y-109548741D01*
X213326376Y-109722812D01*
X213258456Y-109886784D01*
X213159853Y-110034354D01*
X213034354Y-110159853D01*
X212886784Y-110258456D01*
X212722812Y-110326376D01*
X212573512Y-110356073D01*
X212548742Y-110361000D01*
X212371258Y-110361000D01*
X212346488Y-110356073D01*
X212197188Y-110326376D01*
X212033216Y-110258456D01*
X211885646Y-110159853D01*
X211760147Y-110034354D01*
X211661544Y-109886784D01*
X211593624Y-109722812D01*
X211559000Y-109548741D01*
X211559000Y-109371259D01*
X211593624Y-109197188D01*
X211661544Y-109033216D01*
X211760147Y-108885646D01*
X211885646Y-108760147D01*
X212033216Y-108661544D01*
X212197188Y-108593624D01*
X212346488Y-108563927D01*
X212371258Y-108559000D01*
X212548742Y-108559000D01*
X212573512Y-108563927D01*
G37*
G36*
X215113512Y-108563927D02*
G01*
X215262812Y-108593624D01*
X215426784Y-108661544D01*
X215574354Y-108760147D01*
X215699853Y-108885646D01*
X215798456Y-109033216D01*
X215866376Y-109197188D01*
X215901000Y-109371259D01*
X215901000Y-109548741D01*
X215866376Y-109722812D01*
X215798456Y-109886784D01*
X215699853Y-110034354D01*
X215574354Y-110159853D01*
X215426784Y-110258456D01*
X215262812Y-110326376D01*
X215113512Y-110356073D01*
X215088742Y-110361000D01*
X214911258Y-110361000D01*
X214886488Y-110356073D01*
X214737188Y-110326376D01*
X214573216Y-110258456D01*
X214425646Y-110159853D01*
X214300147Y-110034354D01*
X214201544Y-109886784D01*
X214133624Y-109722812D01*
X214099000Y-109548741D01*
X214099000Y-109371259D01*
X214133624Y-109197188D01*
X214201544Y-109033216D01*
X214300147Y-108885646D01*
X214425646Y-108760147D01*
X214573216Y-108661544D01*
X214737188Y-108593624D01*
X214886488Y-108563927D01*
X214911258Y-108559000D01*
X215088742Y-108559000D01*
X215113512Y-108563927D01*
G37*
G36*
X205751000Y-107851000D02*
G01*
X203649000Y-107851000D01*
X203649000Y-106149000D01*
X205751000Y-106149000D01*
X205751000Y-107851000D01*
G37*
G36*
X200351000Y-107851000D02*
G01*
X198249000Y-107851000D01*
X198249000Y-106149000D01*
X200351000Y-106149000D01*
X200351000Y-107851000D01*
G37*
G36*
X212573512Y-106023927D02*
G01*
X212722812Y-106053624D01*
X212886784Y-106121544D01*
X213034354Y-106220147D01*
X213159853Y-106345646D01*
X213258456Y-106493216D01*
X213326376Y-106657188D01*
X213361000Y-106831259D01*
X213361000Y-107008741D01*
X213326376Y-107182812D01*
X213258456Y-107346784D01*
X213159853Y-107494354D01*
X213034354Y-107619853D01*
X212886784Y-107718456D01*
X212722812Y-107786376D01*
X212573512Y-107816073D01*
X212548742Y-107821000D01*
X212371258Y-107821000D01*
X212346488Y-107816073D01*
X212197188Y-107786376D01*
X212033216Y-107718456D01*
X211885646Y-107619853D01*
X211760147Y-107494354D01*
X211661544Y-107346784D01*
X211593624Y-107182812D01*
X211559000Y-107008741D01*
X211559000Y-106831259D01*
X211593624Y-106657188D01*
X211661544Y-106493216D01*
X211760147Y-106345646D01*
X211885646Y-106220147D01*
X212033216Y-106121544D01*
X212197188Y-106053624D01*
X212346488Y-106023927D01*
X212371258Y-106019000D01*
X212548742Y-106019000D01*
X212573512Y-106023927D01*
G37*
G36*
X215113512Y-106023927D02*
G01*
X215262812Y-106053624D01*
X215426784Y-106121544D01*
X215574354Y-106220147D01*
X215699853Y-106345646D01*
X215798456Y-106493216D01*
X215866376Y-106657188D01*
X215901000Y-106831259D01*
X215901000Y-107008741D01*
X215866376Y-107182812D01*
X215798456Y-107346784D01*
X215699853Y-107494354D01*
X215574354Y-107619853D01*
X215426784Y-107718456D01*
X215262812Y-107786376D01*
X215113512Y-107816073D01*
X215088742Y-107821000D01*
X214911258Y-107821000D01*
X214886488Y-107816073D01*
X214737188Y-107786376D01*
X214573216Y-107718456D01*
X214425646Y-107619853D01*
X214300147Y-107494354D01*
X214201544Y-107346784D01*
X214133624Y-107182812D01*
X214099000Y-107008741D01*
X214099000Y-106831259D01*
X214133624Y-106657188D01*
X214201544Y-106493216D01*
X214300147Y-106345646D01*
X214425646Y-106220147D01*
X214573216Y-106121544D01*
X214737188Y-106053624D01*
X214886488Y-106023927D01*
X214911258Y-106019000D01*
X215088742Y-106019000D01*
X215113512Y-106023927D01*
G37*
G36*
X201438674Y-102753465D02*
G01*
X201476367Y-102764899D01*
X201511103Y-102783466D01*
X201541548Y-102808452D01*
X201566534Y-102838897D01*
X201585101Y-102873633D01*
X201596535Y-102911326D01*
X201601000Y-102956661D01*
X201601000Y-104043339D01*
X201596535Y-104088674D01*
X201585101Y-104126367D01*
X201566534Y-104161103D01*
X201541548Y-104191548D01*
X201511103Y-104216534D01*
X201476367Y-104235101D01*
X201438674Y-104246535D01*
X201393339Y-104251000D01*
X200556661Y-104251000D01*
X200511326Y-104246535D01*
X200473633Y-104235101D01*
X200438897Y-104216534D01*
X200408452Y-104191548D01*
X200383466Y-104161103D01*
X200364899Y-104126367D01*
X200353465Y-104088674D01*
X200349000Y-104043339D01*
X200349000Y-102956661D01*
X200353465Y-102911326D01*
X200364899Y-102873633D01*
X200383466Y-102838897D01*
X200408452Y-102808452D01*
X200438897Y-102783466D01*
X200473633Y-102764899D01*
X200511326Y-102753465D01*
X200556661Y-102749000D01*
X201393339Y-102749000D01*
X201438674Y-102753465D01*
G37*
G36*
X203488674Y-102753465D02*
G01*
X203526367Y-102764899D01*
X203561103Y-102783466D01*
X203591548Y-102808452D01*
X203616534Y-102838897D01*
X203635101Y-102873633D01*
X203646535Y-102911326D01*
X203651000Y-102956661D01*
X203651000Y-104043339D01*
X203646535Y-104088674D01*
X203635101Y-104126367D01*
X203616534Y-104161103D01*
X203591548Y-104191548D01*
X203561103Y-104216534D01*
X203526367Y-104235101D01*
X203488674Y-104246535D01*
X203443339Y-104251000D01*
X202606661Y-104251000D01*
X202561326Y-104246535D01*
X202523633Y-104235101D01*
X202488897Y-104216534D01*
X202458452Y-104191548D01*
X202433466Y-104161103D01*
X202414899Y-104126367D01*
X202403465Y-104088674D01*
X202399000Y-104043339D01*
X202399000Y-102956661D01*
X202403465Y-102911326D01*
X202414899Y-102873633D01*
X202433466Y-102838897D01*
X202458452Y-102808452D01*
X202488897Y-102783466D01*
X202523633Y-102764899D01*
X202561326Y-102753465D01*
X202606661Y-102749000D01*
X203443339Y-102749000D01*
X203488674Y-102753465D01*
G37*
G36*
X135237142Y-95218242D02*
G01*
X135385101Y-95279529D01*
X135518255Y-95368499D01*
X135631501Y-95481745D01*
X135720471Y-95614899D01*
X135781758Y-95762858D01*
X135813000Y-95919925D01*
X135813000Y-96080075D01*
X135781758Y-96237142D01*
X135720471Y-96385101D01*
X135631501Y-96518255D01*
X135518255Y-96631501D01*
X135385101Y-96720471D01*
X135237142Y-96781758D01*
X135080075Y-96813000D01*
X134919925Y-96813000D01*
X134762858Y-96781758D01*
X134614899Y-96720471D01*
X134481745Y-96631501D01*
X134368499Y-96518255D01*
X134279529Y-96385101D01*
X134218242Y-96237142D01*
X134187000Y-96080075D01*
X134187000Y-95919925D01*
X134218242Y-95762858D01*
X134279529Y-95614899D01*
X134368499Y-95481745D01*
X134481745Y-95368499D01*
X134614899Y-95279529D01*
X134762858Y-95218242D01*
X134919925Y-95187000D01*
X135080075Y-95187000D01*
X135237142Y-95218242D01*
G37*
G36*
X85237142Y-95218242D02*
G01*
X85385101Y-95279529D01*
X85518255Y-95368499D01*
X85631501Y-95481745D01*
X85720471Y-95614899D01*
X85781758Y-95762858D01*
X85813000Y-95919925D01*
X85813000Y-96080075D01*
X85781758Y-96237142D01*
X85720471Y-96385101D01*
X85631501Y-96518255D01*
X85518255Y-96631501D01*
X85385101Y-96720471D01*
X85237142Y-96781758D01*
X85080075Y-96813000D01*
X84919925Y-96813000D01*
X84762858Y-96781758D01*
X84614899Y-96720471D01*
X84481745Y-96631501D01*
X84368499Y-96518255D01*
X84279529Y-96385101D01*
X84218242Y-96237142D01*
X84187000Y-96080075D01*
X84187000Y-95919925D01*
X84218242Y-95762858D01*
X84279529Y-95614899D01*
X84368499Y-95481745D01*
X84481745Y-95368499D01*
X84614899Y-95279529D01*
X84762858Y-95218242D01*
X84919925Y-95187000D01*
X85080075Y-95187000D01*
X85237142Y-95218242D01*
G37*
G36*
X185237142Y-95218242D02*
G01*
X185385101Y-95279529D01*
X185518255Y-95368499D01*
X185631501Y-95481745D01*
X185720471Y-95614899D01*
X185781758Y-95762858D01*
X185813000Y-95919925D01*
X185813000Y-96080075D01*
X185781758Y-96237142D01*
X185720471Y-96385101D01*
X185631501Y-96518255D01*
X185518255Y-96631501D01*
X185385101Y-96720471D01*
X185237142Y-96781758D01*
X185080075Y-96813000D01*
X184919925Y-96813000D01*
X184762858Y-96781758D01*
X184614899Y-96720471D01*
X184481745Y-96631501D01*
X184368499Y-96518255D01*
X184279529Y-96385101D01*
X184218242Y-96237142D01*
X184187000Y-96080075D01*
X184187000Y-95919925D01*
X184218242Y-95762858D01*
X184279529Y-95614899D01*
X184368499Y-95481745D01*
X184481745Y-95368499D01*
X184614899Y-95279529D01*
X184762858Y-95218242D01*
X184919925Y-95187000D01*
X185080075Y-95187000D01*
X185237142Y-95218242D01*
G37*
G36*
X208051000Y-90551000D02*
G01*
X197949000Y-90551000D01*
X197949000Y-85449000D01*
X208051000Y-85449000D01*
X208051000Y-90551000D01*
G37*
G36*
X108051000Y-90551000D02*
G01*
X97949000Y-90551000D01*
X97949000Y-85449000D01*
X108051000Y-85449000D01*
X108051000Y-90551000D01*
G37*
G36*
X158051000Y-90551000D02*
G01*
X147949000Y-90551000D01*
X147949000Y-85449000D01*
X158051000Y-85449000D01*
X158051000Y-90551000D01*
G37*
G36*
X160951000Y-88301000D02*
G01*
X159049000Y-88301000D01*
X159049000Y-85699000D01*
X160951000Y-85699000D01*
X160951000Y-88301000D01*
G37*
G36*
X110951000Y-88301000D02*
G01*
X109049000Y-88301000D01*
X109049000Y-85699000D01*
X110951000Y-85699000D01*
X110951000Y-88301000D01*
G37*
G36*
X210951000Y-88301000D02*
G01*
X209049000Y-88301000D01*
X209049000Y-85699000D01*
X210951000Y-85699000D01*
X210951000Y-88301000D01*
G37*
G36*
X135846189Y-82210483D02*
G01*
X135846192Y-82210484D01*
X135846191Y-82210484D01*
X136374139Y-82429167D01*
X136849280Y-82746646D01*
X137253354Y-83150720D01*
X137570833Y-83625861D01*
X137570834Y-83625863D01*
X137789517Y-84153811D01*
X137901000Y-84714275D01*
X137901000Y-85285725D01*
X137789517Y-85846189D01*
X137789516Y-85846191D01*
X137570833Y-86374139D01*
X137253354Y-86849280D01*
X136849280Y-87253354D01*
X136374139Y-87570833D01*
X136374138Y-87570834D01*
X136374137Y-87570834D01*
X135846189Y-87789517D01*
X135285725Y-87901000D01*
X134714275Y-87901000D01*
X134153811Y-87789517D01*
X133625863Y-87570834D01*
X133625862Y-87570834D01*
X133625861Y-87570833D01*
X133150720Y-87253354D01*
X132746646Y-86849280D01*
X132429167Y-86374139D01*
X132210484Y-85846191D01*
X132210483Y-85846189D01*
X132099000Y-85285725D01*
X132099000Y-84714275D01*
X132210483Y-84153811D01*
X132429166Y-83625863D01*
X132429167Y-83625861D01*
X132746646Y-83150720D01*
X133150720Y-82746646D01*
X133625861Y-82429167D01*
X134153809Y-82210484D01*
X134153808Y-82210484D01*
X134153811Y-82210483D01*
X134714275Y-82099000D01*
X135285725Y-82099000D01*
X135846189Y-82210483D01*
G37*
G36*
X185846189Y-82210483D02*
G01*
X185846192Y-82210484D01*
X185846191Y-82210484D01*
X186374139Y-82429167D01*
X186849280Y-82746646D01*
X187253354Y-83150720D01*
X187570833Y-83625861D01*
X187570834Y-83625863D01*
X187789517Y-84153811D01*
X187901000Y-84714275D01*
X187901000Y-85285725D01*
X187789517Y-85846189D01*
X187789516Y-85846191D01*
X187570833Y-86374139D01*
X187253354Y-86849280D01*
X186849280Y-87253354D01*
X186374139Y-87570833D01*
X186374138Y-87570834D01*
X186374137Y-87570834D01*
X185846189Y-87789517D01*
X185285725Y-87901000D01*
X184714275Y-87901000D01*
X184153811Y-87789517D01*
X183625863Y-87570834D01*
X183625862Y-87570834D01*
X183625861Y-87570833D01*
X183150720Y-87253354D01*
X182746646Y-86849280D01*
X182429167Y-86374139D01*
X182210484Y-85846191D01*
X182210483Y-85846189D01*
X182099000Y-85285725D01*
X182099000Y-84714275D01*
X182210483Y-84153811D01*
X182429166Y-83625863D01*
X182429167Y-83625861D01*
X182746646Y-83150720D01*
X183150720Y-82746646D01*
X183625861Y-82429167D01*
X184153809Y-82210484D01*
X184153808Y-82210484D01*
X184153811Y-82210483D01*
X184714275Y-82099000D01*
X185285725Y-82099000D01*
X185846189Y-82210483D01*
G37*
G36*
X85846189Y-82210483D02*
G01*
X85846192Y-82210484D01*
X85846191Y-82210484D01*
X86374139Y-82429167D01*
X86849280Y-82746646D01*
X87253354Y-83150720D01*
X87570833Y-83625861D01*
X87570834Y-83625863D01*
X87789517Y-84153811D01*
X87901000Y-84714275D01*
X87901000Y-85285725D01*
X87789517Y-85846189D01*
X87789516Y-85846191D01*
X87570833Y-86374139D01*
X87253354Y-86849280D01*
X86849280Y-87253354D01*
X86374139Y-87570833D01*
X86374138Y-87570834D01*
X86374137Y-87570834D01*
X85846189Y-87789517D01*
X85285725Y-87901000D01*
X84714275Y-87901000D01*
X84153811Y-87789517D01*
X83625863Y-87570834D01*
X83625862Y-87570834D01*
X83625861Y-87570833D01*
X83150720Y-87253354D01*
X82746646Y-86849280D01*
X82429167Y-86374139D01*
X82210484Y-85846191D01*
X82210483Y-85846189D01*
X82099000Y-85285725D01*
X82099000Y-84714275D01*
X82210483Y-84153811D01*
X82429166Y-83625863D01*
X82429167Y-83625861D01*
X82746646Y-83150720D01*
X83150720Y-82746646D01*
X83625861Y-82429167D01*
X84153809Y-82210484D01*
X84153808Y-82210484D01*
X84153811Y-82210483D01*
X84714275Y-82099000D01*
X85285725Y-82099000D01*
X85846189Y-82210483D01*
G37*
G36*
X158051000Y-84551000D02*
G01*
X147949000Y-84551000D01*
X147949000Y-79449000D01*
X158051000Y-79449000D01*
X158051000Y-84551000D01*
G37*
G36*
X208051000Y-84551000D02*
G01*
X197949000Y-84551000D01*
X197949000Y-79449000D01*
X208051000Y-79449000D01*
X208051000Y-84551000D01*
G37*
G36*
X108051000Y-84551000D02*
G01*
X97949000Y-84551000D01*
X97949000Y-79449000D01*
X108051000Y-79449000D01*
X108051000Y-84551000D01*
G37*
G36*
X160951000Y-84301000D02*
G01*
X159049000Y-84301000D01*
X159049000Y-81699000D01*
X160951000Y-81699000D01*
X160951000Y-84301000D01*
G37*
G36*
X210951000Y-84301000D02*
G01*
X209049000Y-84301000D01*
X209049000Y-81699000D01*
X210951000Y-81699000D01*
X210951000Y-84301000D01*
G37*
G36*
X110951000Y-84301000D02*
G01*
X109049000Y-84301000D01*
X109049000Y-81699000D01*
X110951000Y-81699000D01*
X110951000Y-84301000D01*
G37*
G36*
X185237142Y-73218242D02*
G01*
X185385101Y-73279529D01*
X185518255Y-73368499D01*
X185631501Y-73481745D01*
X185720471Y-73614899D01*
X185781758Y-73762858D01*
X185813000Y-73919925D01*
X185813000Y-74080075D01*
X185781758Y-74237142D01*
X185720471Y-74385101D01*
X185631501Y-74518255D01*
X185518255Y-74631501D01*
X185385101Y-74720471D01*
X185237142Y-74781758D01*
X185080075Y-74813000D01*
X184919925Y-74813000D01*
X184762858Y-74781758D01*
X184614899Y-74720471D01*
X184481745Y-74631501D01*
X184368499Y-74518255D01*
X184279529Y-74385101D01*
X184218242Y-74237142D01*
X184187000Y-74080075D01*
X184187000Y-73919925D01*
X184218242Y-73762858D01*
X184279529Y-73614899D01*
X184368499Y-73481745D01*
X184481745Y-73368499D01*
X184614899Y-73279529D01*
X184762858Y-73218242D01*
X184919925Y-73187000D01*
X185080075Y-73187000D01*
X185237142Y-73218242D01*
G37*
G36*
X135237142Y-73218242D02*
G01*
X135385101Y-73279529D01*
X135518255Y-73368499D01*
X135631501Y-73481745D01*
X135720471Y-73614899D01*
X135781758Y-73762858D01*
X135813000Y-73919925D01*
X135813000Y-74080075D01*
X135781758Y-74237142D01*
X135720471Y-74385101D01*
X135631501Y-74518255D01*
X135518255Y-74631501D01*
X135385101Y-74720471D01*
X135237142Y-74781758D01*
X135080075Y-74813000D01*
X134919925Y-74813000D01*
X134762858Y-74781758D01*
X134614899Y-74720471D01*
X134481745Y-74631501D01*
X134368499Y-74518255D01*
X134279529Y-74385101D01*
X134218242Y-74237142D01*
X134187000Y-74080075D01*
X134187000Y-73919925D01*
X134218242Y-73762858D01*
X134279529Y-73614899D01*
X134368499Y-73481745D01*
X134481745Y-73368499D01*
X134614899Y-73279529D01*
X134762858Y-73218242D01*
X134919925Y-73187000D01*
X135080075Y-73187000D01*
X135237142Y-73218242D01*
G37*
G36*
X85237142Y-73218242D02*
G01*
X85385101Y-73279529D01*
X85518255Y-73368499D01*
X85631501Y-73481745D01*
X85720471Y-73614899D01*
X85781758Y-73762858D01*
X85813000Y-73919925D01*
X85813000Y-74080075D01*
X85781758Y-74237142D01*
X85720471Y-74385101D01*
X85631501Y-74518255D01*
X85518255Y-74631501D01*
X85385101Y-74720471D01*
X85237142Y-74781758D01*
X85080075Y-74813000D01*
X84919925Y-74813000D01*
X84762858Y-74781758D01*
X84614899Y-74720471D01*
X84481745Y-74631501D01*
X84368499Y-74518255D01*
X84279529Y-74385101D01*
X84218242Y-74237142D01*
X84187000Y-74080075D01*
X84187000Y-73919925D01*
X84218242Y-73762858D01*
X84279529Y-73614899D01*
X84368499Y-73481745D01*
X84481745Y-73368499D01*
X84614899Y-73279529D01*
X84762858Y-73218242D01*
X84919925Y-73187000D01*
X85080075Y-73187000D01*
X85237142Y-73218242D01*
G37*
G36*
X210846189Y-57210483D02*
G01*
X210846192Y-57210484D01*
X210846191Y-57210484D01*
X211374139Y-57429167D01*
X211849280Y-57746646D01*
X212253354Y-58150720D01*
X212570833Y-58625861D01*
X212570834Y-58625863D01*
X212789517Y-59153811D01*
X212901000Y-59714275D01*
X212901000Y-60285725D01*
X212789517Y-60846189D01*
X212789516Y-60846191D01*
X212570833Y-61374139D01*
X212253354Y-61849280D01*
X211849280Y-62253354D01*
X211374139Y-62570833D01*
X211374138Y-62570834D01*
X211374137Y-62570834D01*
X210846189Y-62789517D01*
X210285725Y-62901000D01*
X209714275Y-62901000D01*
X209153811Y-62789517D01*
X208625863Y-62570834D01*
X208625862Y-62570834D01*
X208625861Y-62570833D01*
X208150720Y-62253354D01*
X207746646Y-61849280D01*
X207429167Y-61374139D01*
X207210484Y-60846191D01*
X207210483Y-60846189D01*
X207099000Y-60285725D01*
X207099000Y-59714275D01*
X207210483Y-59153811D01*
X207429166Y-58625863D01*
X207429167Y-58625861D01*
X207746646Y-58150720D01*
X208150720Y-57746646D01*
X208625861Y-57429167D01*
X209153809Y-57210484D01*
X209153808Y-57210484D01*
X209153811Y-57210483D01*
X209714275Y-57099000D01*
X210285725Y-57099000D01*
X210846189Y-57210483D01*
G37*
G36*
X60846189Y-57210483D02*
G01*
X60846192Y-57210484D01*
X60846191Y-57210484D01*
X61374139Y-57429167D01*
X61849280Y-57746646D01*
X62253354Y-58150720D01*
X62570833Y-58625861D01*
X62570834Y-58625863D01*
X62789517Y-59153811D01*
X62901000Y-59714275D01*
X62901000Y-60285725D01*
X62789517Y-60846189D01*
X62789516Y-60846191D01*
X62570833Y-61374139D01*
X62253354Y-61849280D01*
X61849280Y-62253354D01*
X61374139Y-62570833D01*
X61374138Y-62570834D01*
X61374137Y-62570834D01*
X60846189Y-62789517D01*
X60285725Y-62901000D01*
X59714275Y-62901000D01*
X59153811Y-62789517D01*
X58625863Y-62570834D01*
X58625862Y-62570834D01*
X58625861Y-62570833D01*
X58150720Y-62253354D01*
X57746646Y-61849280D01*
X57429167Y-61374139D01*
X57210484Y-60846191D01*
X57210483Y-60846189D01*
X57099000Y-60285725D01*
X57099000Y-59714275D01*
X57210483Y-59153811D01*
X57429166Y-58625863D01*
X57429167Y-58625861D01*
X57746646Y-58150720D01*
X58150720Y-57746646D01*
X58625861Y-57429167D01*
X59153809Y-57210484D01*
X59153808Y-57210484D01*
X59153811Y-57210483D01*
X59714275Y-57099000D01*
X60285725Y-57099000D01*
X60846189Y-57210483D01*
G37*
M02*
