G04 #@! TF.GenerationSoftware,KiCad,Pcbnew,5.1.5*
G04 #@! TF.CreationDate,2020-03-07T10:52:19+01:00*
G04 #@! TF.ProjectId,e-chessboard,652d6368-6573-4736-926f-6172642e6b69,0.2*
G04 #@! TF.SameCoordinates,Original*
G04 #@! TF.FileFunction,Soldermask,Bot*
G04 #@! TF.FilePolarity,Negative*
%FSLAX46Y46*%
G04 Gerber Fmt 4.6, Leading zero omitted, Abs format (unit mm)*
G04 Created by KiCad (PCBNEW 5.1.5) date 2020-03-07 10:52:19*
%MOMM*%
%LPD*%
G04 APERTURE LIST*
%ADD10C,0.100000*%
G04 APERTURE END LIST*
D10*
G36*
X210846189Y-207210483D02*
G01*
X210846192Y-207210484D01*
X210846191Y-207210484D01*
X211374139Y-207429167D01*
X211849280Y-207746646D01*
X212253354Y-208150720D01*
X212570833Y-208625861D01*
X212570834Y-208625863D01*
X212789517Y-209153811D01*
X212901000Y-209714275D01*
X212901000Y-210285725D01*
X212789517Y-210846189D01*
X212789516Y-210846191D01*
X212570833Y-211374139D01*
X212253354Y-211849280D01*
X211849280Y-212253354D01*
X211374139Y-212570833D01*
X211374138Y-212570834D01*
X211374137Y-212570834D01*
X210846189Y-212789517D01*
X210285725Y-212901000D01*
X209714275Y-212901000D01*
X209153811Y-212789517D01*
X208625863Y-212570834D01*
X208625862Y-212570834D01*
X208625861Y-212570833D01*
X208150720Y-212253354D01*
X207746646Y-211849280D01*
X207429167Y-211374139D01*
X207210484Y-210846191D01*
X207210483Y-210846189D01*
X207099000Y-210285725D01*
X207099000Y-209714275D01*
X207210483Y-209153811D01*
X207429166Y-208625863D01*
X207429167Y-208625861D01*
X207746646Y-208150720D01*
X208150720Y-207746646D01*
X208625861Y-207429167D01*
X209153809Y-207210484D01*
X209153808Y-207210484D01*
X209153811Y-207210483D01*
X209714275Y-207099000D01*
X210285725Y-207099000D01*
X210846189Y-207210483D01*
G37*
G36*
X60846189Y-207210483D02*
G01*
X60846192Y-207210484D01*
X60846191Y-207210484D01*
X61374139Y-207429167D01*
X61849280Y-207746646D01*
X62253354Y-208150720D01*
X62570833Y-208625861D01*
X62570834Y-208625863D01*
X62789517Y-209153811D01*
X62901000Y-209714275D01*
X62901000Y-210285725D01*
X62789517Y-210846189D01*
X62789516Y-210846191D01*
X62570833Y-211374139D01*
X62253354Y-211849280D01*
X61849280Y-212253354D01*
X61374139Y-212570833D01*
X61374138Y-212570834D01*
X61374137Y-212570834D01*
X60846189Y-212789517D01*
X60285725Y-212901000D01*
X59714275Y-212901000D01*
X59153811Y-212789517D01*
X58625863Y-212570834D01*
X58625862Y-212570834D01*
X58625861Y-212570833D01*
X58150720Y-212253354D01*
X57746646Y-211849280D01*
X57429167Y-211374139D01*
X57210484Y-210846191D01*
X57210483Y-210846189D01*
X57099000Y-210285725D01*
X57099000Y-209714275D01*
X57210483Y-209153811D01*
X57429166Y-208625863D01*
X57429167Y-208625861D01*
X57746646Y-208150720D01*
X58150720Y-207746646D01*
X58625861Y-207429167D01*
X59153809Y-207210484D01*
X59153808Y-207210484D01*
X59153811Y-207210483D01*
X59714275Y-207099000D01*
X60285725Y-207099000D01*
X60846189Y-207210483D01*
G37*
G36*
X185846189Y-182210483D02*
G01*
X185846192Y-182210484D01*
X185846191Y-182210484D01*
X186374139Y-182429167D01*
X186849280Y-182746646D01*
X187253354Y-183150720D01*
X187570833Y-183625861D01*
X187570834Y-183625863D01*
X187789517Y-184153811D01*
X187901000Y-184714275D01*
X187901000Y-185285725D01*
X187789517Y-185846189D01*
X187789516Y-185846191D01*
X187570833Y-186374139D01*
X187253354Y-186849280D01*
X186849280Y-187253354D01*
X186374139Y-187570833D01*
X186374138Y-187570834D01*
X186374137Y-187570834D01*
X185846189Y-187789517D01*
X185285725Y-187901000D01*
X184714275Y-187901000D01*
X184153811Y-187789517D01*
X183625863Y-187570834D01*
X183625862Y-187570834D01*
X183625861Y-187570833D01*
X183150720Y-187253354D01*
X182746646Y-186849280D01*
X182429167Y-186374139D01*
X182210484Y-185846191D01*
X182210483Y-185846189D01*
X182099000Y-185285725D01*
X182099000Y-184714275D01*
X182210483Y-184153811D01*
X182429166Y-183625863D01*
X182429167Y-183625861D01*
X182746646Y-183150720D01*
X183150720Y-182746646D01*
X183625861Y-182429167D01*
X184153809Y-182210484D01*
X184153808Y-182210484D01*
X184153811Y-182210483D01*
X184714275Y-182099000D01*
X185285725Y-182099000D01*
X185846189Y-182210483D01*
G37*
G36*
X135846189Y-182210483D02*
G01*
X135846192Y-182210484D01*
X135846191Y-182210484D01*
X136374139Y-182429167D01*
X136849280Y-182746646D01*
X137253354Y-183150720D01*
X137570833Y-183625861D01*
X137570834Y-183625863D01*
X137789517Y-184153811D01*
X137901000Y-184714275D01*
X137901000Y-185285725D01*
X137789517Y-185846189D01*
X137789516Y-185846191D01*
X137570833Y-186374139D01*
X137253354Y-186849280D01*
X136849280Y-187253354D01*
X136374139Y-187570833D01*
X136374138Y-187570834D01*
X136374137Y-187570834D01*
X135846189Y-187789517D01*
X135285725Y-187901000D01*
X134714275Y-187901000D01*
X134153811Y-187789517D01*
X133625863Y-187570834D01*
X133625862Y-187570834D01*
X133625861Y-187570833D01*
X133150720Y-187253354D01*
X132746646Y-186849280D01*
X132429167Y-186374139D01*
X132210484Y-185846191D01*
X132210483Y-185846189D01*
X132099000Y-185285725D01*
X132099000Y-184714275D01*
X132210483Y-184153811D01*
X132429166Y-183625863D01*
X132429167Y-183625861D01*
X132746646Y-183150720D01*
X133150720Y-182746646D01*
X133625861Y-182429167D01*
X134153809Y-182210484D01*
X134153808Y-182210484D01*
X134153811Y-182210483D01*
X134714275Y-182099000D01*
X135285725Y-182099000D01*
X135846189Y-182210483D01*
G37*
G36*
X85846189Y-182210483D02*
G01*
X85846192Y-182210484D01*
X85846191Y-182210484D01*
X86374139Y-182429167D01*
X86849280Y-182746646D01*
X87253354Y-183150720D01*
X87570833Y-183625861D01*
X87570834Y-183625863D01*
X87789517Y-184153811D01*
X87901000Y-184714275D01*
X87901000Y-185285725D01*
X87789517Y-185846189D01*
X87789516Y-185846191D01*
X87570833Y-186374139D01*
X87253354Y-186849280D01*
X86849280Y-187253354D01*
X86374139Y-187570833D01*
X86374138Y-187570834D01*
X86374137Y-187570834D01*
X85846189Y-187789517D01*
X85285725Y-187901000D01*
X84714275Y-187901000D01*
X84153811Y-187789517D01*
X83625863Y-187570834D01*
X83625862Y-187570834D01*
X83625861Y-187570833D01*
X83150720Y-187253354D01*
X82746646Y-186849280D01*
X82429167Y-186374139D01*
X82210484Y-185846191D01*
X82210483Y-185846189D01*
X82099000Y-185285725D01*
X82099000Y-184714275D01*
X82210483Y-184153811D01*
X82429166Y-183625863D01*
X82429167Y-183625861D01*
X82746646Y-183150720D01*
X83150720Y-182746646D01*
X83625861Y-182429167D01*
X84153809Y-182210484D01*
X84153808Y-182210484D01*
X84153811Y-182210483D01*
X84714275Y-182099000D01*
X85285725Y-182099000D01*
X85846189Y-182210483D01*
G37*
G36*
X206351000Y-178851000D02*
G01*
X203649000Y-178851000D01*
X203649000Y-176149000D01*
X206351000Y-176149000D01*
X206351000Y-178851000D01*
G37*
G36*
X211394072Y-176200918D02*
G01*
X211639939Y-176302759D01*
X211861212Y-176450610D01*
X212049390Y-176638788D01*
X212197241Y-176860061D01*
X212299082Y-177105928D01*
X212351000Y-177366938D01*
X212351000Y-177633062D01*
X212299082Y-177894072D01*
X212197241Y-178139939D01*
X212049390Y-178361212D01*
X211861212Y-178549390D01*
X211639939Y-178697241D01*
X211639938Y-178697242D01*
X211639937Y-178697242D01*
X211394072Y-178799082D01*
X211133063Y-178851000D01*
X210866937Y-178851000D01*
X210605928Y-178799082D01*
X210360063Y-178697242D01*
X210360062Y-178697242D01*
X210360061Y-178697241D01*
X210138788Y-178549390D01*
X209950610Y-178361212D01*
X209802759Y-178139939D01*
X209700918Y-177894072D01*
X209649000Y-177633062D01*
X209649000Y-177366938D01*
X209700918Y-177105928D01*
X209802759Y-176860061D01*
X209950610Y-176638788D01*
X210138788Y-176450610D01*
X210360061Y-176302759D01*
X210605928Y-176200918D01*
X210866937Y-176149000D01*
X211133063Y-176149000D01*
X211394072Y-176200918D01*
G37*
G36*
X208394072Y-171500918D02*
G01*
X208639939Y-171602759D01*
X208861212Y-171750610D01*
X209049390Y-171938788D01*
X209197241Y-172160061D01*
X209299082Y-172405928D01*
X209351000Y-172666938D01*
X209351000Y-172933062D01*
X209299082Y-173194072D01*
X209197241Y-173439939D01*
X209049390Y-173661212D01*
X208861212Y-173849390D01*
X208639939Y-173997241D01*
X208639938Y-173997242D01*
X208639937Y-173997242D01*
X208394072Y-174099082D01*
X208133063Y-174151000D01*
X207866937Y-174151000D01*
X207605928Y-174099082D01*
X207360063Y-173997242D01*
X207360062Y-173997242D01*
X207360061Y-173997241D01*
X207138788Y-173849390D01*
X206950610Y-173661212D01*
X206802759Y-173439939D01*
X206700918Y-173194072D01*
X206649000Y-172933062D01*
X206649000Y-172666938D01*
X206700918Y-172405928D01*
X206802759Y-172160061D01*
X206950610Y-171938788D01*
X207138788Y-171750610D01*
X207360061Y-171602759D01*
X207605928Y-171500918D01*
X207866937Y-171449000D01*
X208133063Y-171449000D01*
X208394072Y-171500918D01*
G37*
G36*
X209052585Y-166778802D02*
G01*
X209202410Y-166808604D01*
X209484674Y-166925521D01*
X209738705Y-167095259D01*
X209954741Y-167311295D01*
X210124479Y-167565326D01*
X210241396Y-167847590D01*
X210301000Y-168147240D01*
X210301000Y-168452760D01*
X210241396Y-168752410D01*
X210124479Y-169034674D01*
X209954741Y-169288705D01*
X209738705Y-169504741D01*
X209484674Y-169674479D01*
X209202410Y-169791396D01*
X209052585Y-169821198D01*
X208902761Y-169851000D01*
X208597239Y-169851000D01*
X208447415Y-169821198D01*
X208297590Y-169791396D01*
X208015326Y-169674479D01*
X207761295Y-169504741D01*
X207545259Y-169288705D01*
X207375521Y-169034674D01*
X207258604Y-168752410D01*
X207199000Y-168452760D01*
X207199000Y-168147240D01*
X207258604Y-167847590D01*
X207375521Y-167565326D01*
X207545259Y-167311295D01*
X207761295Y-167095259D01*
X208015326Y-166925521D01*
X208297590Y-166808604D01*
X208447415Y-166778802D01*
X208597239Y-166749000D01*
X208902761Y-166749000D01*
X209052585Y-166778802D01*
G37*
G36*
X192451000Y-161801000D02*
G01*
X190549000Y-161801000D01*
X190549000Y-159199000D01*
X192451000Y-159199000D01*
X192451000Y-161801000D01*
G37*
G36*
X188571811Y-159328271D02*
G01*
X188607603Y-159339129D01*
X188640595Y-159356763D01*
X188669508Y-159380492D01*
X188693237Y-159409405D01*
X188710871Y-159442397D01*
X188721729Y-159478189D01*
X188726000Y-159521555D01*
X188726000Y-160553445D01*
X188721729Y-160596811D01*
X188710871Y-160632603D01*
X188693237Y-160665595D01*
X188669508Y-160694508D01*
X188640595Y-160718237D01*
X188607603Y-160735871D01*
X188571811Y-160746729D01*
X188528445Y-160751000D01*
X186471555Y-160751000D01*
X186428189Y-160746729D01*
X186392397Y-160735871D01*
X186359405Y-160718237D01*
X186330492Y-160694508D01*
X186306763Y-160665595D01*
X186289129Y-160632603D01*
X186278271Y-160596811D01*
X186274000Y-160553445D01*
X186274000Y-159521555D01*
X186278271Y-159478189D01*
X186289129Y-159442397D01*
X186306763Y-159409405D01*
X186330492Y-159380492D01*
X186359405Y-159356763D01*
X186392397Y-159339129D01*
X186428189Y-159328271D01*
X186471555Y-159324000D01*
X188528445Y-159324000D01*
X188571811Y-159328271D01*
G37*
G36*
X185088674Y-158928465D02*
G01*
X185126367Y-158939899D01*
X185161103Y-158958466D01*
X185191548Y-158983452D01*
X185216534Y-159013897D01*
X185235101Y-159048633D01*
X185246535Y-159086326D01*
X185251000Y-159131661D01*
X185251000Y-159968339D01*
X185246535Y-160013674D01*
X185235101Y-160051367D01*
X185216534Y-160086103D01*
X185191548Y-160116548D01*
X185161103Y-160141534D01*
X185126367Y-160160101D01*
X185088674Y-160171535D01*
X185043339Y-160176000D01*
X183956661Y-160176000D01*
X183911326Y-160171535D01*
X183873633Y-160160101D01*
X183838897Y-160141534D01*
X183808452Y-160116548D01*
X183783466Y-160086103D01*
X183764899Y-160051367D01*
X183753465Y-160013674D01*
X183749000Y-159968339D01*
X183749000Y-159131661D01*
X183753465Y-159086326D01*
X183764899Y-159048633D01*
X183783466Y-159013897D01*
X183808452Y-158983452D01*
X183838897Y-158958466D01*
X183873633Y-158939899D01*
X183911326Y-158928465D01*
X183956661Y-158924000D01*
X185043339Y-158924000D01*
X185088674Y-158928465D01*
G37*
G36*
X183088674Y-158903465D02*
G01*
X183126367Y-158914899D01*
X183161103Y-158933466D01*
X183191548Y-158958452D01*
X183216534Y-158988897D01*
X183235101Y-159023633D01*
X183246535Y-159061326D01*
X183251000Y-159106661D01*
X183251000Y-159943339D01*
X183246535Y-159988674D01*
X183235101Y-160026367D01*
X183216534Y-160061103D01*
X183191548Y-160091548D01*
X183161103Y-160116534D01*
X183126367Y-160135101D01*
X183088674Y-160146535D01*
X183043339Y-160151000D01*
X181956661Y-160151000D01*
X181911326Y-160146535D01*
X181873633Y-160135101D01*
X181838897Y-160116534D01*
X181808452Y-160091548D01*
X181783466Y-160061103D01*
X181764899Y-160026367D01*
X181753465Y-159988674D01*
X181749000Y-159943339D01*
X181749000Y-159106661D01*
X181753465Y-159061326D01*
X181764899Y-159023633D01*
X181783466Y-158988897D01*
X181808452Y-158958452D01*
X181838897Y-158933466D01*
X181873633Y-158914899D01*
X181911326Y-158903465D01*
X181956661Y-158899000D01*
X183043339Y-158899000D01*
X183088674Y-158903465D01*
G37*
G36*
X209068433Y-155684893D02*
G01*
X209158657Y-155702839D01*
X209264267Y-155746585D01*
X209413621Y-155808449D01*
X209413622Y-155808450D01*
X209643086Y-155961772D01*
X209838228Y-156156914D01*
X209902611Y-156253271D01*
X209991551Y-156386379D01*
X210097161Y-156641344D01*
X210150295Y-156908466D01*
X210151000Y-156912014D01*
X210151000Y-157187986D01*
X210097161Y-157458657D01*
X210088964Y-157478445D01*
X209991551Y-157713621D01*
X209991550Y-157713622D01*
X209838228Y-157943086D01*
X209643086Y-158138228D01*
X209489763Y-158240675D01*
X209413621Y-158291551D01*
X209264267Y-158353415D01*
X209158657Y-158397161D01*
X209068433Y-158415107D01*
X208887988Y-158451000D01*
X208612012Y-158451000D01*
X208431567Y-158415107D01*
X208341343Y-158397161D01*
X208235733Y-158353415D01*
X208086379Y-158291551D01*
X208010237Y-158240675D01*
X207856914Y-158138228D01*
X207661772Y-157943086D01*
X207508450Y-157713622D01*
X207508449Y-157713621D01*
X207411036Y-157478445D01*
X207402839Y-157458657D01*
X207349000Y-157187986D01*
X207349000Y-156912014D01*
X207349706Y-156908466D01*
X207402839Y-156641344D01*
X207508449Y-156386379D01*
X207597389Y-156253271D01*
X207661772Y-156156914D01*
X207856914Y-155961772D01*
X208086378Y-155808450D01*
X208086379Y-155808449D01*
X208235733Y-155746585D01*
X208341343Y-155702839D01*
X208431567Y-155684893D01*
X208612012Y-155649000D01*
X208887988Y-155649000D01*
X209068433Y-155684893D01*
G37*
G36*
X185088674Y-156878465D02*
G01*
X185126367Y-156889899D01*
X185161103Y-156908466D01*
X185191548Y-156933452D01*
X185216534Y-156963897D01*
X185235101Y-156998633D01*
X185246535Y-157036326D01*
X185251000Y-157081661D01*
X185251000Y-157918339D01*
X185246535Y-157963674D01*
X185235101Y-158001367D01*
X185216534Y-158036103D01*
X185191548Y-158066548D01*
X185161103Y-158091534D01*
X185126367Y-158110101D01*
X185088674Y-158121535D01*
X185043339Y-158126000D01*
X183956661Y-158126000D01*
X183911326Y-158121535D01*
X183873633Y-158110101D01*
X183838897Y-158091534D01*
X183808452Y-158066548D01*
X183783466Y-158036103D01*
X183764899Y-158001367D01*
X183753465Y-157963674D01*
X183749000Y-157918339D01*
X183749000Y-157081661D01*
X183753465Y-157036326D01*
X183764899Y-156998633D01*
X183783466Y-156963897D01*
X183808452Y-156933452D01*
X183838897Y-156908466D01*
X183873633Y-156889899D01*
X183911326Y-156878465D01*
X183956661Y-156874000D01*
X185043339Y-156874000D01*
X185088674Y-156878465D01*
G37*
G36*
X183088674Y-156853465D02*
G01*
X183126367Y-156864899D01*
X183161103Y-156883466D01*
X183191548Y-156908452D01*
X183216534Y-156938897D01*
X183235101Y-156973633D01*
X183246535Y-157011326D01*
X183251000Y-157056661D01*
X183251000Y-157893339D01*
X183246535Y-157938674D01*
X183235101Y-157976367D01*
X183216534Y-158011103D01*
X183191548Y-158041548D01*
X183161103Y-158066534D01*
X183126367Y-158085101D01*
X183088674Y-158096535D01*
X183043339Y-158101000D01*
X181956661Y-158101000D01*
X181911326Y-158096535D01*
X181873633Y-158085101D01*
X181838897Y-158066534D01*
X181808452Y-158041548D01*
X181783466Y-158011103D01*
X181764899Y-157976367D01*
X181753465Y-157938674D01*
X181749000Y-157893339D01*
X181749000Y-157056661D01*
X181753465Y-157011326D01*
X181764899Y-156973633D01*
X181783466Y-156938897D01*
X181808452Y-156908452D01*
X181838897Y-156883466D01*
X181873633Y-156864899D01*
X181911326Y-156853465D01*
X181956661Y-156849000D01*
X183043339Y-156849000D01*
X183088674Y-156853465D01*
G37*
G36*
X192451000Y-157801000D02*
G01*
X190549000Y-157801000D01*
X190549000Y-155199000D01*
X192451000Y-155199000D01*
X192451000Y-157801000D01*
G37*
G36*
X188571811Y-156253271D02*
G01*
X188607603Y-156264129D01*
X188640595Y-156281763D01*
X188669508Y-156305492D01*
X188693237Y-156334405D01*
X188710871Y-156367397D01*
X188721729Y-156403189D01*
X188726000Y-156446555D01*
X188726000Y-157478445D01*
X188721729Y-157521811D01*
X188710871Y-157557603D01*
X188693237Y-157590595D01*
X188669508Y-157619508D01*
X188640595Y-157643237D01*
X188607603Y-157660871D01*
X188571811Y-157671729D01*
X188528445Y-157676000D01*
X186471555Y-157676000D01*
X186428189Y-157671729D01*
X186392397Y-157660871D01*
X186359405Y-157643237D01*
X186330492Y-157619508D01*
X186306763Y-157590595D01*
X186289129Y-157557603D01*
X186278271Y-157521811D01*
X186274000Y-157478445D01*
X186274000Y-156446555D01*
X186278271Y-156403189D01*
X186289129Y-156367397D01*
X186306763Y-156334405D01*
X186330492Y-156305492D01*
X186359405Y-156281763D01*
X186392397Y-156264129D01*
X186428189Y-156253271D01*
X186471555Y-156249000D01*
X188528445Y-156249000D01*
X188571811Y-156253271D01*
G37*
G36*
X209052585Y-144278802D02*
G01*
X209202410Y-144308604D01*
X209484674Y-144425521D01*
X209738705Y-144595259D01*
X209954741Y-144811295D01*
X210124479Y-145065326D01*
X210241396Y-145347590D01*
X210301000Y-145647240D01*
X210301000Y-145952760D01*
X210241396Y-146252410D01*
X210124479Y-146534674D01*
X209954741Y-146788705D01*
X209738705Y-147004741D01*
X209484674Y-147174479D01*
X209202410Y-147291396D01*
X209052585Y-147321198D01*
X208902761Y-147351000D01*
X208597239Y-147351000D01*
X208447415Y-147321198D01*
X208297590Y-147291396D01*
X208015326Y-147174479D01*
X207761295Y-147004741D01*
X207545259Y-146788705D01*
X207375521Y-146534674D01*
X207258604Y-146252410D01*
X207199000Y-145952760D01*
X207199000Y-145647240D01*
X207258604Y-145347590D01*
X207375521Y-145065326D01*
X207545259Y-144811295D01*
X207761295Y-144595259D01*
X208015326Y-144425521D01*
X208297590Y-144308604D01*
X208447415Y-144278802D01*
X208597239Y-144249000D01*
X208902761Y-144249000D01*
X209052585Y-144278802D01*
G37*
G36*
X85846189Y-132210483D02*
G01*
X85846192Y-132210484D01*
X85846191Y-132210484D01*
X86374139Y-132429167D01*
X86849280Y-132746646D01*
X87253354Y-133150720D01*
X87570833Y-133625861D01*
X87570834Y-133625863D01*
X87789517Y-134153811D01*
X87901000Y-134714275D01*
X87901000Y-135285725D01*
X87789517Y-135846189D01*
X87789516Y-135846191D01*
X87570833Y-136374139D01*
X87253354Y-136849280D01*
X86849280Y-137253354D01*
X86374139Y-137570833D01*
X86374138Y-137570834D01*
X86374137Y-137570834D01*
X85846189Y-137789517D01*
X85285725Y-137901000D01*
X84714275Y-137901000D01*
X84153811Y-137789517D01*
X83625863Y-137570834D01*
X83625862Y-137570834D01*
X83625861Y-137570833D01*
X83150720Y-137253354D01*
X82746646Y-136849280D01*
X82429167Y-136374139D01*
X82210484Y-135846191D01*
X82210483Y-135846189D01*
X82099000Y-135285725D01*
X82099000Y-134714275D01*
X82210483Y-134153811D01*
X82429166Y-133625863D01*
X82429167Y-133625861D01*
X82746646Y-133150720D01*
X83150720Y-132746646D01*
X83625861Y-132429167D01*
X84153809Y-132210484D01*
X84153808Y-132210484D01*
X84153811Y-132210483D01*
X84714275Y-132099000D01*
X85285725Y-132099000D01*
X85846189Y-132210483D01*
G37*
G36*
X135846189Y-132210483D02*
G01*
X135846192Y-132210484D01*
X135846191Y-132210484D01*
X136374139Y-132429167D01*
X136849280Y-132746646D01*
X137253354Y-133150720D01*
X137570833Y-133625861D01*
X137570834Y-133625863D01*
X137789517Y-134153811D01*
X137901000Y-134714275D01*
X137901000Y-135285725D01*
X137789517Y-135846189D01*
X137789516Y-135846191D01*
X137570833Y-136374139D01*
X137253354Y-136849280D01*
X136849280Y-137253354D01*
X136374139Y-137570833D01*
X136374138Y-137570834D01*
X136374137Y-137570834D01*
X135846189Y-137789517D01*
X135285725Y-137901000D01*
X134714275Y-137901000D01*
X134153811Y-137789517D01*
X133625863Y-137570834D01*
X133625862Y-137570834D01*
X133625861Y-137570833D01*
X133150720Y-137253354D01*
X132746646Y-136849280D01*
X132429167Y-136374139D01*
X132210484Y-135846191D01*
X132210483Y-135846189D01*
X132099000Y-135285725D01*
X132099000Y-134714275D01*
X132210483Y-134153811D01*
X132429166Y-133625863D01*
X132429167Y-133625861D01*
X132746646Y-133150720D01*
X133150720Y-132746646D01*
X133625861Y-132429167D01*
X134153809Y-132210484D01*
X134153808Y-132210484D01*
X134153811Y-132210483D01*
X134714275Y-132099000D01*
X135285725Y-132099000D01*
X135846189Y-132210483D01*
G37*
G36*
X185846189Y-132210483D02*
G01*
X185846192Y-132210484D01*
X185846191Y-132210484D01*
X186374139Y-132429167D01*
X186849280Y-132746646D01*
X187253354Y-133150720D01*
X187570833Y-133625861D01*
X187570834Y-133625863D01*
X187789517Y-134153811D01*
X187901000Y-134714275D01*
X187901000Y-135285725D01*
X187789517Y-135846189D01*
X187789516Y-135846191D01*
X187570833Y-136374139D01*
X187253354Y-136849280D01*
X186849280Y-137253354D01*
X186374139Y-137570833D01*
X186374138Y-137570834D01*
X186374137Y-137570834D01*
X185846189Y-137789517D01*
X185285725Y-137901000D01*
X184714275Y-137901000D01*
X184153811Y-137789517D01*
X183625863Y-137570834D01*
X183625862Y-137570834D01*
X183625861Y-137570833D01*
X183150720Y-137253354D01*
X182746646Y-136849280D01*
X182429167Y-136374139D01*
X182210484Y-135846191D01*
X182210483Y-135846189D01*
X182099000Y-135285725D01*
X182099000Y-134714275D01*
X182210483Y-134153811D01*
X182429166Y-133625863D01*
X182429167Y-133625861D01*
X182746646Y-133150720D01*
X183150720Y-132746646D01*
X183625861Y-132429167D01*
X184153809Y-132210484D01*
X184153808Y-132210484D01*
X184153811Y-132210483D01*
X184714275Y-132099000D01*
X185285725Y-132099000D01*
X185846189Y-132210483D01*
G37*
G36*
X196959468Y-124903565D02*
G01*
X196998138Y-124915296D01*
X197033777Y-124934346D01*
X197065017Y-124959983D01*
X197090654Y-124991223D01*
X197109704Y-125026862D01*
X197121435Y-125065532D01*
X197126000Y-125111888D01*
X197126000Y-126188112D01*
X197121435Y-126234468D01*
X197109704Y-126273138D01*
X197090654Y-126308777D01*
X197065017Y-126340017D01*
X197033777Y-126365654D01*
X196998138Y-126384704D01*
X196959468Y-126396435D01*
X196913112Y-126401000D01*
X196261888Y-126401000D01*
X196215532Y-126396435D01*
X196176862Y-126384704D01*
X196141223Y-126365654D01*
X196109983Y-126340017D01*
X196084346Y-126308777D01*
X196065296Y-126273138D01*
X196053565Y-126234468D01*
X196049000Y-126188112D01*
X196049000Y-125111888D01*
X196053565Y-125065532D01*
X196065296Y-125026862D01*
X196084346Y-124991223D01*
X196109983Y-124959983D01*
X196141223Y-124934346D01*
X196176862Y-124915296D01*
X196215532Y-124903565D01*
X196261888Y-124899000D01*
X196913112Y-124899000D01*
X196959468Y-124903565D01*
G37*
G36*
X195084468Y-124903565D02*
G01*
X195123138Y-124915296D01*
X195158777Y-124934346D01*
X195190017Y-124959983D01*
X195215654Y-124991223D01*
X195234704Y-125026862D01*
X195246435Y-125065532D01*
X195251000Y-125111888D01*
X195251000Y-126188112D01*
X195246435Y-126234468D01*
X195234704Y-126273138D01*
X195215654Y-126308777D01*
X195190017Y-126340017D01*
X195158777Y-126365654D01*
X195123138Y-126384704D01*
X195084468Y-126396435D01*
X195038112Y-126401000D01*
X194386888Y-126401000D01*
X194340532Y-126396435D01*
X194301862Y-126384704D01*
X194266223Y-126365654D01*
X194234983Y-126340017D01*
X194209346Y-126308777D01*
X194190296Y-126273138D01*
X194178565Y-126234468D01*
X194174000Y-126188112D01*
X194174000Y-125111888D01*
X194178565Y-125065532D01*
X194190296Y-125026862D01*
X194209346Y-124991223D01*
X194234983Y-124959983D01*
X194266223Y-124934346D01*
X194301862Y-124915296D01*
X194340532Y-124903565D01*
X194386888Y-124899000D01*
X195038112Y-124899000D01*
X195084468Y-124903565D01*
G37*
G36*
X148161000Y-121456000D02*
G01*
X147159000Y-121456000D01*
X147159000Y-119354000D01*
X148161000Y-119354000D01*
X148161000Y-121456000D01*
G37*
G36*
X145621000Y-121456000D02*
G01*
X144619000Y-121456000D01*
X144619000Y-119354000D01*
X145621000Y-119354000D01*
X145621000Y-121456000D01*
G37*
G36*
X144351000Y-121456000D02*
G01*
X143349000Y-121456000D01*
X143349000Y-119354000D01*
X144351000Y-119354000D01*
X144351000Y-121456000D01*
G37*
G36*
X143081000Y-121456000D02*
G01*
X142079000Y-121456000D01*
X142079000Y-119354000D01*
X143081000Y-119354000D01*
X143081000Y-121456000D01*
G37*
G36*
X151971000Y-121456000D02*
G01*
X150969000Y-121456000D01*
X150969000Y-119354000D01*
X151971000Y-119354000D01*
X151971000Y-121456000D01*
G37*
G36*
X140541000Y-121456000D02*
G01*
X139539000Y-121456000D01*
X139539000Y-119354000D01*
X140541000Y-119354000D01*
X140541000Y-121456000D01*
G37*
G36*
X139271000Y-121456000D02*
G01*
X138269000Y-121456000D01*
X138269000Y-119354000D01*
X139271000Y-119354000D01*
X139271000Y-121456000D01*
G37*
G36*
X154511000Y-121456000D02*
G01*
X153509000Y-121456000D01*
X153509000Y-119354000D01*
X154511000Y-119354000D01*
X154511000Y-121456000D01*
G37*
G36*
X153241000Y-121456000D02*
G01*
X152239000Y-121456000D01*
X152239000Y-119354000D01*
X153241000Y-119354000D01*
X153241000Y-121456000D01*
G37*
G36*
X146891000Y-121456000D02*
G01*
X145889000Y-121456000D01*
X145889000Y-119354000D01*
X146891000Y-119354000D01*
X146891000Y-121456000D01*
G37*
G36*
X150701000Y-121456000D02*
G01*
X149699000Y-121456000D01*
X149699000Y-119354000D01*
X150701000Y-119354000D01*
X150701000Y-121456000D01*
G37*
G36*
X149431000Y-121456000D02*
G01*
X148429000Y-121456000D01*
X148429000Y-119354000D01*
X149431000Y-119354000D01*
X149431000Y-121456000D01*
G37*
G36*
X141811000Y-121456000D02*
G01*
X140809000Y-121456000D01*
X140809000Y-119354000D01*
X141811000Y-119354000D01*
X141811000Y-121456000D01*
G37*
G36*
X138001000Y-121456000D02*
G01*
X136999000Y-121456000D01*
X136999000Y-119354000D01*
X138001000Y-119354000D01*
X138001000Y-121456000D01*
G37*
G36*
X156061000Y-118121000D02*
G01*
X153959000Y-118121000D01*
X153959000Y-117119000D01*
X156061000Y-117119000D01*
X156061000Y-118121000D01*
G37*
G36*
X156061000Y-116851000D02*
G01*
X153959000Y-116851000D01*
X153959000Y-115849000D01*
X156061000Y-115849000D01*
X156061000Y-116851000D01*
G37*
G36*
X156061000Y-115581000D02*
G01*
X153959000Y-115581000D01*
X153959000Y-114579000D01*
X156061000Y-114579000D01*
X156061000Y-115581000D01*
G37*
G36*
X102988674Y-113253465D02*
G01*
X103026367Y-113264899D01*
X103061103Y-113283466D01*
X103091548Y-113308452D01*
X103116534Y-113338897D01*
X103135101Y-113373633D01*
X103146535Y-113411326D01*
X103151000Y-113456661D01*
X103151000Y-114543339D01*
X103146535Y-114588674D01*
X103135101Y-114626367D01*
X103116534Y-114661103D01*
X103091548Y-114691548D01*
X103061103Y-114716534D01*
X103026367Y-114735101D01*
X102988674Y-114746535D01*
X102943339Y-114751000D01*
X102106661Y-114751000D01*
X102061326Y-114746535D01*
X102023633Y-114735101D01*
X101988897Y-114716534D01*
X101958452Y-114691548D01*
X101933466Y-114661103D01*
X101914899Y-114626367D01*
X101903465Y-114588674D01*
X101899000Y-114543339D01*
X101899000Y-113456661D01*
X101903465Y-113411326D01*
X101914899Y-113373633D01*
X101933466Y-113338897D01*
X101958452Y-113308452D01*
X101988897Y-113283466D01*
X102023633Y-113264899D01*
X102061326Y-113253465D01*
X102106661Y-113249000D01*
X102943339Y-113249000D01*
X102988674Y-113253465D01*
G37*
G36*
X100938674Y-113253465D02*
G01*
X100976367Y-113264899D01*
X101011103Y-113283466D01*
X101041548Y-113308452D01*
X101066534Y-113338897D01*
X101085101Y-113373633D01*
X101096535Y-113411326D01*
X101101000Y-113456661D01*
X101101000Y-114543339D01*
X101096535Y-114588674D01*
X101085101Y-114626367D01*
X101066534Y-114661103D01*
X101041548Y-114691548D01*
X101011103Y-114716534D01*
X100976367Y-114735101D01*
X100938674Y-114746535D01*
X100893339Y-114751000D01*
X100056661Y-114751000D01*
X100011326Y-114746535D01*
X99973633Y-114735101D01*
X99938897Y-114716534D01*
X99908452Y-114691548D01*
X99883466Y-114661103D01*
X99864899Y-114626367D01*
X99853465Y-114588674D01*
X99849000Y-114543339D01*
X99849000Y-113456661D01*
X99853465Y-113411326D01*
X99864899Y-113373633D01*
X99883466Y-113338897D01*
X99908452Y-113308452D01*
X99938897Y-113283466D01*
X99973633Y-113264899D01*
X100011326Y-113253465D01*
X100056661Y-113249000D01*
X100893339Y-113249000D01*
X100938674Y-113253465D01*
G37*
G36*
X106084468Y-113341065D02*
G01*
X106123138Y-113352796D01*
X106158777Y-113371846D01*
X106190017Y-113397483D01*
X106215654Y-113428723D01*
X106234704Y-113464362D01*
X106246435Y-113503032D01*
X106251000Y-113549388D01*
X106251000Y-114200612D01*
X106246435Y-114246968D01*
X106234704Y-114285638D01*
X106215654Y-114321277D01*
X106190017Y-114352517D01*
X106158777Y-114378154D01*
X106123138Y-114397204D01*
X106084468Y-114408935D01*
X106038112Y-114413500D01*
X104961888Y-114413500D01*
X104915532Y-114408935D01*
X104876862Y-114397204D01*
X104841223Y-114378154D01*
X104809983Y-114352517D01*
X104784346Y-114321277D01*
X104765296Y-114285638D01*
X104753565Y-114246968D01*
X104749000Y-114200612D01*
X104749000Y-113549388D01*
X104753565Y-113503032D01*
X104765296Y-113464362D01*
X104784346Y-113428723D01*
X104809983Y-113397483D01*
X104841223Y-113371846D01*
X104876862Y-113352796D01*
X104915532Y-113341065D01*
X104961888Y-113336500D01*
X106038112Y-113336500D01*
X106084468Y-113341065D01*
G37*
G36*
X156061000Y-114311000D02*
G01*
X153959000Y-114311000D01*
X153959000Y-113309000D01*
X156061000Y-113309000D01*
X156061000Y-114311000D01*
G37*
G36*
X186371968Y-112253565D02*
G01*
X186410638Y-112265296D01*
X186446277Y-112284346D01*
X186477517Y-112309983D01*
X186503154Y-112341223D01*
X186522204Y-112376862D01*
X186533935Y-112415532D01*
X186538500Y-112461888D01*
X186538500Y-113538112D01*
X186533935Y-113584468D01*
X186522204Y-113623138D01*
X186503154Y-113658777D01*
X186477517Y-113690017D01*
X186446277Y-113715654D01*
X186410638Y-113734704D01*
X186371968Y-113746435D01*
X186325612Y-113751000D01*
X185674388Y-113751000D01*
X185628032Y-113746435D01*
X185589362Y-113734704D01*
X185553723Y-113715654D01*
X185522483Y-113690017D01*
X185496846Y-113658777D01*
X185477796Y-113623138D01*
X185466065Y-113584468D01*
X185461500Y-113538112D01*
X185461500Y-112461888D01*
X185466065Y-112415532D01*
X185477796Y-112376862D01*
X185496846Y-112341223D01*
X185522483Y-112309983D01*
X185553723Y-112284346D01*
X185589362Y-112265296D01*
X185628032Y-112253565D01*
X185674388Y-112249000D01*
X186325612Y-112249000D01*
X186371968Y-112253565D01*
G37*
G36*
X184488674Y-112253465D02*
G01*
X184526367Y-112264899D01*
X184561103Y-112283466D01*
X184591548Y-112308452D01*
X184616534Y-112338897D01*
X184635101Y-112373633D01*
X184646535Y-112411326D01*
X184651000Y-112456661D01*
X184651000Y-113543339D01*
X184646535Y-113588674D01*
X184635101Y-113626367D01*
X184616534Y-113661103D01*
X184591548Y-113691548D01*
X184561103Y-113716534D01*
X184526367Y-113735101D01*
X184488674Y-113746535D01*
X184443339Y-113751000D01*
X183606661Y-113751000D01*
X183561326Y-113746535D01*
X183523633Y-113735101D01*
X183488897Y-113716534D01*
X183458452Y-113691548D01*
X183433466Y-113661103D01*
X183414899Y-113626367D01*
X183403465Y-113588674D01*
X183399000Y-113543339D01*
X183399000Y-112456661D01*
X183403465Y-112411326D01*
X183414899Y-112373633D01*
X183433466Y-112338897D01*
X183458452Y-112308452D01*
X183488897Y-112283466D01*
X183523633Y-112264899D01*
X183561326Y-112253465D01*
X183606661Y-112249000D01*
X184443339Y-112249000D01*
X184488674Y-112253465D01*
G37*
G36*
X188246968Y-112253565D02*
G01*
X188285638Y-112265296D01*
X188321277Y-112284346D01*
X188352517Y-112309983D01*
X188378154Y-112341223D01*
X188397204Y-112376862D01*
X188408935Y-112415532D01*
X188413500Y-112461888D01*
X188413500Y-113538112D01*
X188408935Y-113584468D01*
X188397204Y-113623138D01*
X188378154Y-113658777D01*
X188352517Y-113690017D01*
X188321277Y-113715654D01*
X188285638Y-113734704D01*
X188246968Y-113746435D01*
X188200612Y-113751000D01*
X187549388Y-113751000D01*
X187503032Y-113746435D01*
X187464362Y-113734704D01*
X187428723Y-113715654D01*
X187397483Y-113690017D01*
X187371846Y-113658777D01*
X187352796Y-113623138D01*
X187341065Y-113584468D01*
X187336500Y-113538112D01*
X187336500Y-112461888D01*
X187341065Y-112415532D01*
X187352796Y-112376862D01*
X187371846Y-112341223D01*
X187397483Y-112309983D01*
X187428723Y-112284346D01*
X187464362Y-112265296D01*
X187503032Y-112253565D01*
X187549388Y-112249000D01*
X188200612Y-112249000D01*
X188246968Y-112253565D01*
G37*
G36*
X182438674Y-112253465D02*
G01*
X182476367Y-112264899D01*
X182511103Y-112283466D01*
X182541548Y-112308452D01*
X182566534Y-112338897D01*
X182585101Y-112373633D01*
X182596535Y-112411326D01*
X182601000Y-112456661D01*
X182601000Y-113543339D01*
X182596535Y-113588674D01*
X182585101Y-113626367D01*
X182566534Y-113661103D01*
X182541548Y-113691548D01*
X182511103Y-113716534D01*
X182476367Y-113735101D01*
X182438674Y-113746535D01*
X182393339Y-113751000D01*
X181556661Y-113751000D01*
X181511326Y-113746535D01*
X181473633Y-113735101D01*
X181438897Y-113716534D01*
X181408452Y-113691548D01*
X181383466Y-113661103D01*
X181364899Y-113626367D01*
X181353465Y-113588674D01*
X181349000Y-113543339D01*
X181349000Y-112456661D01*
X181353465Y-112411326D01*
X181364899Y-112373633D01*
X181383466Y-112338897D01*
X181408452Y-112308452D01*
X181438897Y-112283466D01*
X181473633Y-112264899D01*
X181511326Y-112253465D01*
X181556661Y-112249000D01*
X182393339Y-112249000D01*
X182438674Y-112253465D01*
G37*
G36*
X147551000Y-113456000D02*
G01*
X142449000Y-113456000D01*
X142449000Y-108354000D01*
X147551000Y-108354000D01*
X147551000Y-113456000D01*
G37*
G36*
X200073512Y-111603927D02*
G01*
X200222812Y-111633624D01*
X200386784Y-111701544D01*
X200534354Y-111800147D01*
X200659853Y-111925646D01*
X200758456Y-112073216D01*
X200826376Y-112237188D01*
X200847069Y-112341223D01*
X200860877Y-112410638D01*
X200861000Y-112411259D01*
X200861000Y-112588741D01*
X200826376Y-112762812D01*
X200758456Y-112926784D01*
X200659853Y-113074354D01*
X200534354Y-113199853D01*
X200386784Y-113298456D01*
X200222812Y-113366376D01*
X200073512Y-113396073D01*
X200048742Y-113401000D01*
X199871258Y-113401000D01*
X199846488Y-113396073D01*
X199697188Y-113366376D01*
X199533216Y-113298456D01*
X199385646Y-113199853D01*
X199260147Y-113074354D01*
X199161544Y-112926784D01*
X199093624Y-112762812D01*
X199059000Y-112588741D01*
X199059000Y-112411259D01*
X199059124Y-112410638D01*
X199072931Y-112341223D01*
X199093624Y-112237188D01*
X199161544Y-112073216D01*
X199260147Y-111925646D01*
X199385646Y-111800147D01*
X199533216Y-111701544D01*
X199697188Y-111633624D01*
X199846488Y-111603927D01*
X199871258Y-111599000D01*
X200048742Y-111599000D01*
X200073512Y-111603927D01*
G37*
G36*
X203401000Y-113401000D02*
G01*
X201599000Y-113401000D01*
X201599000Y-111599000D01*
X203401000Y-111599000D01*
X203401000Y-113401000D01*
G37*
G36*
X156061000Y-113041000D02*
G01*
X153959000Y-113041000D01*
X153959000Y-112039000D01*
X156061000Y-112039000D01*
X156061000Y-113041000D01*
G37*
G36*
X106084468Y-111466065D02*
G01*
X106123138Y-111477796D01*
X106158777Y-111496846D01*
X106190017Y-111522483D01*
X106215654Y-111553723D01*
X106234704Y-111589362D01*
X106246435Y-111628032D01*
X106251000Y-111674388D01*
X106251000Y-112325612D01*
X106246435Y-112371968D01*
X106234704Y-112410638D01*
X106215654Y-112446277D01*
X106190017Y-112477517D01*
X106158777Y-112503154D01*
X106123138Y-112522204D01*
X106084468Y-112533935D01*
X106038112Y-112538500D01*
X104961888Y-112538500D01*
X104915532Y-112533935D01*
X104876862Y-112522204D01*
X104841223Y-112503154D01*
X104809983Y-112477517D01*
X104784346Y-112446277D01*
X104765296Y-112410638D01*
X104753565Y-112371968D01*
X104749000Y-112325612D01*
X104749000Y-111674388D01*
X104753565Y-111628032D01*
X104765296Y-111589362D01*
X104784346Y-111553723D01*
X104809983Y-111522483D01*
X104841223Y-111496846D01*
X104876862Y-111477796D01*
X104915532Y-111466065D01*
X104961888Y-111461500D01*
X106038112Y-111461500D01*
X106084468Y-111466065D01*
G37*
G36*
X97826000Y-111851000D02*
G01*
X96224000Y-111851000D01*
X96224000Y-108149000D01*
X97826000Y-108149000D01*
X97826000Y-111851000D01*
G37*
G36*
X94776000Y-111851000D02*
G01*
X93174000Y-111851000D01*
X93174000Y-108149000D01*
X94776000Y-108149000D01*
X94776000Y-111851000D01*
G37*
G36*
X156061000Y-111771000D02*
G01*
X153959000Y-111771000D01*
X153959000Y-110769000D01*
X156061000Y-110769000D01*
X156061000Y-111771000D01*
G37*
G36*
X190584468Y-110403565D02*
G01*
X190623138Y-110415296D01*
X190658777Y-110434346D01*
X190690017Y-110459983D01*
X190715654Y-110491223D01*
X190734704Y-110526862D01*
X190746435Y-110565532D01*
X190751000Y-110611888D01*
X190751000Y-111263112D01*
X190746435Y-111309468D01*
X190734704Y-111348138D01*
X190715654Y-111383777D01*
X190690017Y-111415017D01*
X190658777Y-111440654D01*
X190623138Y-111459704D01*
X190584468Y-111471435D01*
X190538112Y-111476000D01*
X189461888Y-111476000D01*
X189415532Y-111471435D01*
X189376862Y-111459704D01*
X189341223Y-111440654D01*
X189309983Y-111415017D01*
X189284346Y-111383777D01*
X189265296Y-111348138D01*
X189253565Y-111309468D01*
X189249000Y-111263112D01*
X189249000Y-110611888D01*
X189253565Y-110565532D01*
X189265296Y-110526862D01*
X189284346Y-110491223D01*
X189309983Y-110459983D01*
X189341223Y-110434346D01*
X189376862Y-110415296D01*
X189415532Y-110403565D01*
X189461888Y-110399000D01*
X190538112Y-110399000D01*
X190584468Y-110403565D01*
G37*
G36*
X184501000Y-111401000D02*
G01*
X183499000Y-111401000D01*
X183499000Y-110499000D01*
X184501000Y-110499000D01*
X184501000Y-111401000D01*
G37*
G36*
X186501000Y-111401000D02*
G01*
X185499000Y-111401000D01*
X185499000Y-110499000D01*
X186501000Y-110499000D01*
X186501000Y-111401000D01*
G37*
G36*
X100981000Y-111326000D02*
G01*
X99819000Y-111326000D01*
X99819000Y-108674000D01*
X100981000Y-108674000D01*
X100981000Y-111326000D01*
G37*
G36*
X103181000Y-111326000D02*
G01*
X102019000Y-111326000D01*
X102019000Y-108674000D01*
X103181000Y-108674000D01*
X103181000Y-111326000D01*
G37*
G36*
X200073512Y-109063927D02*
G01*
X200222812Y-109093624D01*
X200386784Y-109161544D01*
X200534354Y-109260147D01*
X200659853Y-109385646D01*
X200758456Y-109533216D01*
X200826376Y-109697188D01*
X200856073Y-109846488D01*
X200861000Y-109871258D01*
X200861000Y-110048742D01*
X200856073Y-110073512D01*
X200826376Y-110222812D01*
X200758456Y-110386784D01*
X200659853Y-110534354D01*
X200534354Y-110659853D01*
X200386784Y-110758456D01*
X200222812Y-110826376D01*
X200073512Y-110856073D01*
X200048742Y-110861000D01*
X199871258Y-110861000D01*
X199846488Y-110856073D01*
X199697188Y-110826376D01*
X199533216Y-110758456D01*
X199385646Y-110659853D01*
X199260147Y-110534354D01*
X199161544Y-110386784D01*
X199093624Y-110222812D01*
X199063927Y-110073512D01*
X199059000Y-110048742D01*
X199059000Y-109871258D01*
X199063927Y-109846488D01*
X199093624Y-109697188D01*
X199161544Y-109533216D01*
X199260147Y-109385646D01*
X199385646Y-109260147D01*
X199533216Y-109161544D01*
X199697188Y-109093624D01*
X199846488Y-109063927D01*
X199871258Y-109059000D01*
X200048742Y-109059000D01*
X200073512Y-109063927D01*
G37*
G36*
X202613512Y-109063927D02*
G01*
X202762812Y-109093624D01*
X202926784Y-109161544D01*
X203074354Y-109260147D01*
X203199853Y-109385646D01*
X203298456Y-109533216D01*
X203366376Y-109697188D01*
X203396073Y-109846488D01*
X203401000Y-109871258D01*
X203401000Y-110048742D01*
X203396073Y-110073512D01*
X203366376Y-110222812D01*
X203298456Y-110386784D01*
X203199853Y-110534354D01*
X203074354Y-110659853D01*
X202926784Y-110758456D01*
X202762812Y-110826376D01*
X202613512Y-110856073D01*
X202588742Y-110861000D01*
X202411258Y-110861000D01*
X202386488Y-110856073D01*
X202237188Y-110826376D01*
X202073216Y-110758456D01*
X201925646Y-110659853D01*
X201800147Y-110534354D01*
X201701544Y-110386784D01*
X201633624Y-110222812D01*
X201603927Y-110073512D01*
X201599000Y-110048742D01*
X201599000Y-109871258D01*
X201603927Y-109846488D01*
X201633624Y-109697188D01*
X201701544Y-109533216D01*
X201800147Y-109385646D01*
X201925646Y-109260147D01*
X202073216Y-109161544D01*
X202237188Y-109093624D01*
X202386488Y-109063927D01*
X202411258Y-109059000D01*
X202588742Y-109059000D01*
X202613512Y-109063927D01*
G37*
G36*
X156061000Y-110501000D02*
G01*
X153959000Y-110501000D01*
X153959000Y-109499000D01*
X156061000Y-109499000D01*
X156061000Y-110501000D01*
G37*
G36*
X106084468Y-109403565D02*
G01*
X106123138Y-109415296D01*
X106158777Y-109434346D01*
X106190017Y-109459983D01*
X106215654Y-109491223D01*
X106234704Y-109526862D01*
X106246435Y-109565532D01*
X106251000Y-109611888D01*
X106251000Y-110263112D01*
X106246435Y-110309468D01*
X106234704Y-110348138D01*
X106215654Y-110383777D01*
X106190017Y-110415017D01*
X106158777Y-110440654D01*
X106123138Y-110459704D01*
X106084468Y-110471435D01*
X106038112Y-110476000D01*
X104961888Y-110476000D01*
X104915532Y-110471435D01*
X104876862Y-110459704D01*
X104841223Y-110440654D01*
X104809983Y-110415017D01*
X104784346Y-110383777D01*
X104765296Y-110348138D01*
X104753565Y-110309468D01*
X104749000Y-110263112D01*
X104749000Y-109611888D01*
X104753565Y-109565532D01*
X104765296Y-109526862D01*
X104784346Y-109491223D01*
X104809983Y-109459983D01*
X104841223Y-109434346D01*
X104876862Y-109415296D01*
X104915532Y-109403565D01*
X104961888Y-109399000D01*
X106038112Y-109399000D01*
X106084468Y-109403565D01*
G37*
G36*
X182501000Y-110451000D02*
G01*
X181499000Y-110451000D01*
X181499000Y-109549000D01*
X182501000Y-109549000D01*
X182501000Y-110451000D01*
G37*
G36*
X188501000Y-110451000D02*
G01*
X187499000Y-110451000D01*
X187499000Y-109549000D01*
X188501000Y-109549000D01*
X188501000Y-110451000D01*
G37*
G36*
X90571811Y-108828271D02*
G01*
X90607603Y-108839129D01*
X90640595Y-108856763D01*
X90669508Y-108880492D01*
X90693237Y-108909405D01*
X90710871Y-108942397D01*
X90721729Y-108978189D01*
X90726000Y-109021555D01*
X90726000Y-110053445D01*
X90721729Y-110096811D01*
X90710871Y-110132603D01*
X90693237Y-110165595D01*
X90669508Y-110194508D01*
X90640595Y-110218237D01*
X90607603Y-110235871D01*
X90571811Y-110246729D01*
X90528445Y-110251000D01*
X88471555Y-110251000D01*
X88428189Y-110246729D01*
X88392397Y-110235871D01*
X88359405Y-110218237D01*
X88330492Y-110194508D01*
X88306763Y-110165595D01*
X88289129Y-110132603D01*
X88278271Y-110096811D01*
X88274000Y-110053445D01*
X88274000Y-109021555D01*
X88278271Y-108978189D01*
X88289129Y-108942397D01*
X88306763Y-108909405D01*
X88330492Y-108880492D01*
X88359405Y-108856763D01*
X88392397Y-108839129D01*
X88428189Y-108828271D01*
X88471555Y-108824000D01*
X90528445Y-108824000D01*
X90571811Y-108828271D01*
G37*
G36*
X190584468Y-108528565D02*
G01*
X190623138Y-108540296D01*
X190658777Y-108559346D01*
X190690017Y-108584983D01*
X190715654Y-108616223D01*
X190734704Y-108651862D01*
X190746435Y-108690532D01*
X190751000Y-108736888D01*
X190751000Y-109388112D01*
X190746435Y-109434468D01*
X190734704Y-109473138D01*
X190715654Y-109508777D01*
X190690017Y-109540017D01*
X190658777Y-109565654D01*
X190623138Y-109584704D01*
X190584468Y-109596435D01*
X190538112Y-109601000D01*
X189461888Y-109601000D01*
X189415532Y-109596435D01*
X189376862Y-109584704D01*
X189341223Y-109565654D01*
X189309983Y-109540017D01*
X189284346Y-109508777D01*
X189265296Y-109473138D01*
X189253565Y-109434468D01*
X189249000Y-109388112D01*
X189249000Y-108736888D01*
X189253565Y-108690532D01*
X189265296Y-108651862D01*
X189284346Y-108616223D01*
X189309983Y-108584983D01*
X189341223Y-108559346D01*
X189376862Y-108540296D01*
X189415532Y-108528565D01*
X189461888Y-108524000D01*
X190538112Y-108524000D01*
X190584468Y-108528565D01*
G37*
G36*
X186501000Y-109501000D02*
G01*
X185499000Y-109501000D01*
X185499000Y-108599000D01*
X186501000Y-108599000D01*
X186501000Y-109501000D01*
G37*
G36*
X184501000Y-109501000D02*
G01*
X183499000Y-109501000D01*
X183499000Y-108599000D01*
X184501000Y-108599000D01*
X184501000Y-109501000D01*
G37*
G36*
X156061000Y-109231000D02*
G01*
X153959000Y-109231000D01*
X153959000Y-108229000D01*
X156061000Y-108229000D01*
X156061000Y-109231000D01*
G37*
G36*
X106084468Y-107528565D02*
G01*
X106123138Y-107540296D01*
X106158777Y-107559346D01*
X106190017Y-107584983D01*
X106215654Y-107616223D01*
X106234704Y-107651862D01*
X106246435Y-107690532D01*
X106251000Y-107736888D01*
X106251000Y-108388112D01*
X106246435Y-108434468D01*
X106234704Y-108473138D01*
X106215654Y-108508777D01*
X106190017Y-108540017D01*
X106158777Y-108565654D01*
X106123138Y-108584704D01*
X106084468Y-108596435D01*
X106038112Y-108601000D01*
X104961888Y-108601000D01*
X104915532Y-108596435D01*
X104876862Y-108584704D01*
X104841223Y-108565654D01*
X104809983Y-108540017D01*
X104784346Y-108508777D01*
X104765296Y-108473138D01*
X104753565Y-108434468D01*
X104749000Y-108388112D01*
X104749000Y-107736888D01*
X104753565Y-107690532D01*
X104765296Y-107651862D01*
X104784346Y-107616223D01*
X104809983Y-107584983D01*
X104841223Y-107559346D01*
X104876862Y-107540296D01*
X104915532Y-107528565D01*
X104961888Y-107524000D01*
X106038112Y-107524000D01*
X106084468Y-107528565D01*
G37*
G36*
X200073512Y-106523927D02*
G01*
X200222812Y-106553624D01*
X200386784Y-106621544D01*
X200534354Y-106720147D01*
X200659853Y-106845646D01*
X200758456Y-106993216D01*
X200826376Y-107157188D01*
X200861000Y-107331259D01*
X200861000Y-107508741D01*
X200826376Y-107682812D01*
X200758456Y-107846784D01*
X200659853Y-107994354D01*
X200534354Y-108119853D01*
X200386784Y-108218456D01*
X200222812Y-108286376D01*
X200073512Y-108316073D01*
X200048742Y-108321000D01*
X199871258Y-108321000D01*
X199846488Y-108316073D01*
X199697188Y-108286376D01*
X199533216Y-108218456D01*
X199385646Y-108119853D01*
X199260147Y-107994354D01*
X199161544Y-107846784D01*
X199093624Y-107682812D01*
X199059000Y-107508741D01*
X199059000Y-107331259D01*
X199093624Y-107157188D01*
X199161544Y-106993216D01*
X199260147Y-106845646D01*
X199385646Y-106720147D01*
X199533216Y-106621544D01*
X199697188Y-106553624D01*
X199846488Y-106523927D01*
X199871258Y-106519000D01*
X200048742Y-106519000D01*
X200073512Y-106523927D01*
G37*
G36*
X202613512Y-106523927D02*
G01*
X202762812Y-106553624D01*
X202926784Y-106621544D01*
X203074354Y-106720147D01*
X203199853Y-106845646D01*
X203298456Y-106993216D01*
X203366376Y-107157188D01*
X203401000Y-107331259D01*
X203401000Y-107508741D01*
X203366376Y-107682812D01*
X203298456Y-107846784D01*
X203199853Y-107994354D01*
X203074354Y-108119853D01*
X202926784Y-108218456D01*
X202762812Y-108286376D01*
X202613512Y-108316073D01*
X202588742Y-108321000D01*
X202411258Y-108321000D01*
X202386488Y-108316073D01*
X202237188Y-108286376D01*
X202073216Y-108218456D01*
X201925646Y-108119853D01*
X201800147Y-107994354D01*
X201701544Y-107846784D01*
X201633624Y-107682812D01*
X201599000Y-107508741D01*
X201599000Y-107331259D01*
X201633624Y-107157188D01*
X201701544Y-106993216D01*
X201800147Y-106845646D01*
X201925646Y-106720147D01*
X202073216Y-106621544D01*
X202237188Y-106553624D01*
X202386488Y-106523927D01*
X202411258Y-106519000D01*
X202588742Y-106519000D01*
X202613512Y-106523927D01*
G37*
G36*
X156061000Y-107961000D02*
G01*
X153959000Y-107961000D01*
X153959000Y-106959000D01*
X156061000Y-106959000D01*
X156061000Y-107961000D01*
G37*
G36*
X182434468Y-106253565D02*
G01*
X182473138Y-106265296D01*
X182508777Y-106284346D01*
X182540017Y-106309983D01*
X182565654Y-106341223D01*
X182584704Y-106376862D01*
X182596435Y-106415532D01*
X182601000Y-106461888D01*
X182601000Y-107538112D01*
X182596435Y-107584468D01*
X182584704Y-107623138D01*
X182565654Y-107658777D01*
X182540017Y-107690017D01*
X182508777Y-107715654D01*
X182473138Y-107734704D01*
X182434468Y-107746435D01*
X182388112Y-107751000D01*
X181736888Y-107751000D01*
X181690532Y-107746435D01*
X181651862Y-107734704D01*
X181616223Y-107715654D01*
X181584983Y-107690017D01*
X181559346Y-107658777D01*
X181540296Y-107623138D01*
X181528565Y-107584468D01*
X181524000Y-107538112D01*
X181524000Y-106461888D01*
X181528565Y-106415532D01*
X181540296Y-106376862D01*
X181559346Y-106341223D01*
X181584983Y-106309983D01*
X181616223Y-106284346D01*
X181651862Y-106265296D01*
X181690532Y-106253565D01*
X181736888Y-106249000D01*
X182388112Y-106249000D01*
X182434468Y-106253565D01*
G37*
G36*
X184309468Y-106253565D02*
G01*
X184348138Y-106265296D01*
X184383777Y-106284346D01*
X184415017Y-106309983D01*
X184440654Y-106341223D01*
X184459704Y-106376862D01*
X184471435Y-106415532D01*
X184476000Y-106461888D01*
X184476000Y-107538112D01*
X184471435Y-107584468D01*
X184459704Y-107623138D01*
X184440654Y-107658777D01*
X184415017Y-107690017D01*
X184383777Y-107715654D01*
X184348138Y-107734704D01*
X184309468Y-107746435D01*
X184263112Y-107751000D01*
X183611888Y-107751000D01*
X183565532Y-107746435D01*
X183526862Y-107734704D01*
X183491223Y-107715654D01*
X183459983Y-107690017D01*
X183434346Y-107658777D01*
X183415296Y-107623138D01*
X183403565Y-107584468D01*
X183399000Y-107538112D01*
X183399000Y-106461888D01*
X183403565Y-106415532D01*
X183415296Y-106376862D01*
X183434346Y-106341223D01*
X183459983Y-106309983D01*
X183491223Y-106284346D01*
X183526862Y-106265296D01*
X183565532Y-106253565D01*
X183611888Y-106249000D01*
X184263112Y-106249000D01*
X184309468Y-106253565D01*
G37*
G36*
X186434468Y-106253565D02*
G01*
X186473138Y-106265296D01*
X186508777Y-106284346D01*
X186540017Y-106309983D01*
X186565654Y-106341223D01*
X186584704Y-106376862D01*
X186596435Y-106415532D01*
X186601000Y-106461888D01*
X186601000Y-107538112D01*
X186596435Y-107584468D01*
X186584704Y-107623138D01*
X186565654Y-107658777D01*
X186540017Y-107690017D01*
X186508777Y-107715654D01*
X186473138Y-107734704D01*
X186434468Y-107746435D01*
X186388112Y-107751000D01*
X185736888Y-107751000D01*
X185690532Y-107746435D01*
X185651862Y-107734704D01*
X185616223Y-107715654D01*
X185584983Y-107690017D01*
X185559346Y-107658777D01*
X185540296Y-107623138D01*
X185528565Y-107584468D01*
X185524000Y-107538112D01*
X185524000Y-106461888D01*
X185528565Y-106415532D01*
X185540296Y-106376862D01*
X185559346Y-106341223D01*
X185584983Y-106309983D01*
X185616223Y-106284346D01*
X185651862Y-106265296D01*
X185690532Y-106253565D01*
X185736888Y-106249000D01*
X186388112Y-106249000D01*
X186434468Y-106253565D01*
G37*
G36*
X188309468Y-106253565D02*
G01*
X188348138Y-106265296D01*
X188383777Y-106284346D01*
X188415017Y-106309983D01*
X188440654Y-106341223D01*
X188459704Y-106376862D01*
X188471435Y-106415532D01*
X188476000Y-106461888D01*
X188476000Y-107538112D01*
X188471435Y-107584468D01*
X188459704Y-107623138D01*
X188440654Y-107658777D01*
X188415017Y-107690017D01*
X188383777Y-107715654D01*
X188348138Y-107734704D01*
X188309468Y-107746435D01*
X188263112Y-107751000D01*
X187611888Y-107751000D01*
X187565532Y-107746435D01*
X187526862Y-107734704D01*
X187491223Y-107715654D01*
X187459983Y-107690017D01*
X187434346Y-107658777D01*
X187415296Y-107623138D01*
X187403565Y-107584468D01*
X187399000Y-107538112D01*
X187399000Y-106461888D01*
X187403565Y-106415532D01*
X187415296Y-106376862D01*
X187434346Y-106341223D01*
X187459983Y-106309983D01*
X187491223Y-106284346D01*
X187526862Y-106265296D01*
X187565532Y-106253565D01*
X187611888Y-106249000D01*
X188263112Y-106249000D01*
X188309468Y-106253565D01*
G37*
G36*
X90571811Y-105753271D02*
G01*
X90607603Y-105764129D01*
X90640595Y-105781763D01*
X90669508Y-105805492D01*
X90693237Y-105834405D01*
X90710871Y-105867397D01*
X90721729Y-105903189D01*
X90726000Y-105946555D01*
X90726000Y-106978445D01*
X90721729Y-107021811D01*
X90710871Y-107057603D01*
X90693237Y-107090595D01*
X90669508Y-107119508D01*
X90640595Y-107143237D01*
X90607603Y-107160871D01*
X90571811Y-107171729D01*
X90528445Y-107176000D01*
X88471555Y-107176000D01*
X88428189Y-107171729D01*
X88392397Y-107160871D01*
X88359405Y-107143237D01*
X88330492Y-107119508D01*
X88306763Y-107090595D01*
X88289129Y-107057603D01*
X88278271Y-107021811D01*
X88274000Y-106978445D01*
X88274000Y-105946555D01*
X88278271Y-105903189D01*
X88289129Y-105867397D01*
X88306763Y-105834405D01*
X88330492Y-105805492D01*
X88359405Y-105781763D01*
X88392397Y-105764129D01*
X88428189Y-105753271D01*
X88471555Y-105749000D01*
X90528445Y-105749000D01*
X90571811Y-105753271D01*
G37*
G36*
X103013674Y-105253465D02*
G01*
X103051367Y-105264899D01*
X103086103Y-105283466D01*
X103116548Y-105308452D01*
X103141534Y-105338897D01*
X103160101Y-105373633D01*
X103171535Y-105411326D01*
X103176000Y-105456661D01*
X103176000Y-106543339D01*
X103171535Y-106588674D01*
X103160101Y-106626367D01*
X103141534Y-106661103D01*
X103116548Y-106691548D01*
X103086103Y-106716534D01*
X103051367Y-106735101D01*
X103013674Y-106746535D01*
X102968339Y-106751000D01*
X102131661Y-106751000D01*
X102086326Y-106746535D01*
X102048633Y-106735101D01*
X102013897Y-106716534D01*
X101983452Y-106691548D01*
X101958466Y-106661103D01*
X101939899Y-106626367D01*
X101928465Y-106588674D01*
X101924000Y-106543339D01*
X101924000Y-105456661D01*
X101928465Y-105411326D01*
X101939899Y-105373633D01*
X101958466Y-105338897D01*
X101983452Y-105308452D01*
X102013897Y-105283466D01*
X102048633Y-105264899D01*
X102086326Y-105253465D01*
X102131661Y-105249000D01*
X102968339Y-105249000D01*
X103013674Y-105253465D01*
G37*
G36*
X100963674Y-105253465D02*
G01*
X101001367Y-105264899D01*
X101036103Y-105283466D01*
X101066548Y-105308452D01*
X101091534Y-105338897D01*
X101110101Y-105373633D01*
X101121535Y-105411326D01*
X101126000Y-105456661D01*
X101126000Y-106543339D01*
X101121535Y-106588674D01*
X101110101Y-106626367D01*
X101091534Y-106661103D01*
X101066548Y-106691548D01*
X101036103Y-106716534D01*
X101001367Y-106735101D01*
X100963674Y-106746535D01*
X100918339Y-106751000D01*
X100081661Y-106751000D01*
X100036326Y-106746535D01*
X99998633Y-106735101D01*
X99963897Y-106716534D01*
X99933452Y-106691548D01*
X99908466Y-106661103D01*
X99889899Y-106626367D01*
X99878465Y-106588674D01*
X99874000Y-106543339D01*
X99874000Y-105456661D01*
X99878465Y-105411326D01*
X99889899Y-105373633D01*
X99908466Y-105338897D01*
X99933452Y-105308452D01*
X99963897Y-105283466D01*
X99998633Y-105264899D01*
X100036326Y-105253465D01*
X100081661Y-105249000D01*
X100918339Y-105249000D01*
X100963674Y-105253465D01*
G37*
G36*
X156061000Y-106691000D02*
G01*
X153959000Y-106691000D01*
X153959000Y-105689000D01*
X156061000Y-105689000D01*
X156061000Y-106691000D01*
G37*
G36*
X98651000Y-106651000D02*
G01*
X97649000Y-106651000D01*
X97649000Y-105349000D01*
X98651000Y-105349000D01*
X98651000Y-106651000D01*
G37*
G36*
X95351000Y-106651000D02*
G01*
X94349000Y-106651000D01*
X94349000Y-105349000D01*
X95351000Y-105349000D01*
X95351000Y-106651000D01*
G37*
G36*
X144351000Y-104456000D02*
G01*
X143349000Y-104456000D01*
X143349000Y-102354000D01*
X144351000Y-102354000D01*
X144351000Y-104456000D01*
G37*
G36*
X140541000Y-104456000D02*
G01*
X139539000Y-104456000D01*
X139539000Y-102354000D01*
X140541000Y-102354000D01*
X140541000Y-104456000D01*
G37*
G36*
X139271000Y-104456000D02*
G01*
X138269000Y-104456000D01*
X138269000Y-102354000D01*
X139271000Y-102354000D01*
X139271000Y-104456000D01*
G37*
G36*
X138001000Y-104456000D02*
G01*
X136999000Y-104456000D01*
X136999000Y-102354000D01*
X138001000Y-102354000D01*
X138001000Y-104456000D01*
G37*
G36*
X143081000Y-104456000D02*
G01*
X142079000Y-104456000D01*
X142079000Y-102354000D01*
X143081000Y-102354000D01*
X143081000Y-104456000D01*
G37*
G36*
X145621000Y-104456000D02*
G01*
X144619000Y-104456000D01*
X144619000Y-102354000D01*
X145621000Y-102354000D01*
X145621000Y-104456000D01*
G37*
G36*
X146891000Y-104456000D02*
G01*
X145889000Y-104456000D01*
X145889000Y-102354000D01*
X146891000Y-102354000D01*
X146891000Y-104456000D01*
G37*
G36*
X148161000Y-104456000D02*
G01*
X147159000Y-104456000D01*
X147159000Y-102354000D01*
X148161000Y-102354000D01*
X148161000Y-104456000D01*
G37*
G36*
X141811000Y-104456000D02*
G01*
X140809000Y-104456000D01*
X140809000Y-102354000D01*
X141811000Y-102354000D01*
X141811000Y-104456000D01*
G37*
G36*
X150701000Y-104456000D02*
G01*
X149699000Y-104456000D01*
X149699000Y-102354000D01*
X150701000Y-102354000D01*
X150701000Y-104456000D01*
G37*
G36*
X151971000Y-104456000D02*
G01*
X150969000Y-104456000D01*
X150969000Y-102354000D01*
X151971000Y-102354000D01*
X151971000Y-104456000D01*
G37*
G36*
X153241000Y-104456000D02*
G01*
X152239000Y-104456000D01*
X152239000Y-102354000D01*
X153241000Y-102354000D01*
X153241000Y-104456000D01*
G37*
G36*
X154511000Y-104456000D02*
G01*
X153509000Y-104456000D01*
X153509000Y-102354000D01*
X154511000Y-102354000D01*
X154511000Y-104456000D01*
G37*
G36*
X149431000Y-104456000D02*
G01*
X148429000Y-104456000D01*
X148429000Y-102354000D01*
X149431000Y-102354000D01*
X149431000Y-104456000D01*
G37*
G36*
X136938674Y-100253465D02*
G01*
X136976367Y-100264899D01*
X137011103Y-100283466D01*
X137041548Y-100308452D01*
X137066534Y-100338897D01*
X137085101Y-100373633D01*
X137096535Y-100411326D01*
X137101000Y-100456661D01*
X137101000Y-101543339D01*
X137096535Y-101588674D01*
X137085101Y-101626367D01*
X137066534Y-101661103D01*
X137041548Y-101691548D01*
X137011103Y-101716534D01*
X136976367Y-101735101D01*
X136938674Y-101746535D01*
X136893339Y-101751000D01*
X136056661Y-101751000D01*
X136011326Y-101746535D01*
X135973633Y-101735101D01*
X135938897Y-101716534D01*
X135908452Y-101691548D01*
X135883466Y-101661103D01*
X135864899Y-101626367D01*
X135853465Y-101588674D01*
X135849000Y-101543339D01*
X135849000Y-100456661D01*
X135853465Y-100411326D01*
X135864899Y-100373633D01*
X135883466Y-100338897D01*
X135908452Y-100308452D01*
X135938897Y-100283466D01*
X135973633Y-100264899D01*
X136011326Y-100253465D01*
X136056661Y-100249000D01*
X136893339Y-100249000D01*
X136938674Y-100253465D01*
G37*
G36*
X138988674Y-100253465D02*
G01*
X139026367Y-100264899D01*
X139061103Y-100283466D01*
X139091548Y-100308452D01*
X139116534Y-100338897D01*
X139135101Y-100373633D01*
X139146535Y-100411326D01*
X139151000Y-100456661D01*
X139151000Y-101543339D01*
X139146535Y-101588674D01*
X139135101Y-101626367D01*
X139116534Y-101661103D01*
X139091548Y-101691548D01*
X139061103Y-101716534D01*
X139026367Y-101735101D01*
X138988674Y-101746535D01*
X138943339Y-101751000D01*
X138106661Y-101751000D01*
X138061326Y-101746535D01*
X138023633Y-101735101D01*
X137988897Y-101716534D01*
X137958452Y-101691548D01*
X137933466Y-101661103D01*
X137914899Y-101626367D01*
X137903465Y-101588674D01*
X137899000Y-101543339D01*
X137899000Y-100456661D01*
X137903465Y-100411326D01*
X137914899Y-100373633D01*
X137933466Y-100338897D01*
X137958452Y-100308452D01*
X137988897Y-100283466D01*
X138023633Y-100264899D01*
X138061326Y-100253465D01*
X138106661Y-100249000D01*
X138943339Y-100249000D01*
X138988674Y-100253465D01*
G37*
G36*
X139096811Y-97028271D02*
G01*
X139132603Y-97039129D01*
X139165595Y-97056763D01*
X139194508Y-97080492D01*
X139218237Y-97109405D01*
X139235871Y-97142397D01*
X139246729Y-97178189D01*
X139251000Y-97221555D01*
X139251000Y-99278445D01*
X139246729Y-99321811D01*
X139235871Y-99357603D01*
X139218237Y-99390595D01*
X139194508Y-99419508D01*
X139165595Y-99443237D01*
X139132603Y-99460871D01*
X139096811Y-99471729D01*
X139053445Y-99476000D01*
X138021555Y-99476000D01*
X137978189Y-99471729D01*
X137942397Y-99460871D01*
X137909405Y-99443237D01*
X137880492Y-99419508D01*
X137856763Y-99390595D01*
X137839129Y-99357603D01*
X137828271Y-99321811D01*
X137824000Y-99278445D01*
X137824000Y-97221555D01*
X137828271Y-97178189D01*
X137839129Y-97142397D01*
X137856763Y-97109405D01*
X137880492Y-97080492D01*
X137909405Y-97056763D01*
X137942397Y-97039129D01*
X137978189Y-97028271D01*
X138021555Y-97024000D01*
X139053445Y-97024000D01*
X139096811Y-97028271D01*
G37*
G36*
X136021811Y-97028271D02*
G01*
X136057603Y-97039129D01*
X136090595Y-97056763D01*
X136119508Y-97080492D01*
X136143237Y-97109405D01*
X136160871Y-97142397D01*
X136171729Y-97178189D01*
X136176000Y-97221555D01*
X136176000Y-99278445D01*
X136171729Y-99321811D01*
X136160871Y-99357603D01*
X136143237Y-99390595D01*
X136119508Y-99419508D01*
X136090595Y-99443237D01*
X136057603Y-99460871D01*
X136021811Y-99471729D01*
X135978445Y-99476000D01*
X134946555Y-99476000D01*
X134903189Y-99471729D01*
X134867397Y-99460871D01*
X134834405Y-99443237D01*
X134805492Y-99419508D01*
X134781763Y-99390595D01*
X134764129Y-99357603D01*
X134753271Y-99321811D01*
X134749000Y-99278445D01*
X134749000Y-97221555D01*
X134753271Y-97178189D01*
X134764129Y-97142397D01*
X134781763Y-97109405D01*
X134805492Y-97080492D01*
X134834405Y-97056763D01*
X134867397Y-97039129D01*
X134903189Y-97028271D01*
X134946555Y-97024000D01*
X135978445Y-97024000D01*
X136021811Y-97028271D01*
G37*
G36*
X185846189Y-82210483D02*
G01*
X185846192Y-82210484D01*
X185846191Y-82210484D01*
X186374139Y-82429167D01*
X186849280Y-82746646D01*
X187253354Y-83150720D01*
X187570833Y-83625861D01*
X187570834Y-83625863D01*
X187789517Y-84153811D01*
X187901000Y-84714275D01*
X187901000Y-85285725D01*
X187789517Y-85846189D01*
X187789516Y-85846191D01*
X187570833Y-86374139D01*
X187253354Y-86849280D01*
X186849280Y-87253354D01*
X186374139Y-87570833D01*
X186374138Y-87570834D01*
X186374137Y-87570834D01*
X185846189Y-87789517D01*
X185285725Y-87901000D01*
X184714275Y-87901000D01*
X184153811Y-87789517D01*
X183625863Y-87570834D01*
X183625862Y-87570834D01*
X183625861Y-87570833D01*
X183150720Y-87253354D01*
X182746646Y-86849280D01*
X182429167Y-86374139D01*
X182210484Y-85846191D01*
X182210483Y-85846189D01*
X182099000Y-85285725D01*
X182099000Y-84714275D01*
X182210483Y-84153811D01*
X182429166Y-83625863D01*
X182429167Y-83625861D01*
X182746646Y-83150720D01*
X183150720Y-82746646D01*
X183625861Y-82429167D01*
X184153809Y-82210484D01*
X184153808Y-82210484D01*
X184153811Y-82210483D01*
X184714275Y-82099000D01*
X185285725Y-82099000D01*
X185846189Y-82210483D01*
G37*
G36*
X135846189Y-82210483D02*
G01*
X135846192Y-82210484D01*
X135846191Y-82210484D01*
X136374139Y-82429167D01*
X136849280Y-82746646D01*
X137253354Y-83150720D01*
X137570833Y-83625861D01*
X137570834Y-83625863D01*
X137789517Y-84153811D01*
X137901000Y-84714275D01*
X137901000Y-85285725D01*
X137789517Y-85846189D01*
X137789516Y-85846191D01*
X137570833Y-86374139D01*
X137253354Y-86849280D01*
X136849280Y-87253354D01*
X136374139Y-87570833D01*
X136374138Y-87570834D01*
X136374137Y-87570834D01*
X135846189Y-87789517D01*
X135285725Y-87901000D01*
X134714275Y-87901000D01*
X134153811Y-87789517D01*
X133625863Y-87570834D01*
X133625862Y-87570834D01*
X133625861Y-87570833D01*
X133150720Y-87253354D01*
X132746646Y-86849280D01*
X132429167Y-86374139D01*
X132210484Y-85846191D01*
X132210483Y-85846189D01*
X132099000Y-85285725D01*
X132099000Y-84714275D01*
X132210483Y-84153811D01*
X132429166Y-83625863D01*
X132429167Y-83625861D01*
X132746646Y-83150720D01*
X133150720Y-82746646D01*
X133625861Y-82429167D01*
X134153809Y-82210484D01*
X134153808Y-82210484D01*
X134153811Y-82210483D01*
X134714275Y-82099000D01*
X135285725Y-82099000D01*
X135846189Y-82210483D01*
G37*
G36*
X85846189Y-82210483D02*
G01*
X85846192Y-82210484D01*
X85846191Y-82210484D01*
X86374139Y-82429167D01*
X86849280Y-82746646D01*
X87253354Y-83150720D01*
X87570833Y-83625861D01*
X87570834Y-83625863D01*
X87789517Y-84153811D01*
X87901000Y-84714275D01*
X87901000Y-85285725D01*
X87789517Y-85846189D01*
X87789516Y-85846191D01*
X87570833Y-86374139D01*
X87253354Y-86849280D01*
X86849280Y-87253354D01*
X86374139Y-87570833D01*
X86374138Y-87570834D01*
X86374137Y-87570834D01*
X85846189Y-87789517D01*
X85285725Y-87901000D01*
X84714275Y-87901000D01*
X84153811Y-87789517D01*
X83625863Y-87570834D01*
X83625862Y-87570834D01*
X83625861Y-87570833D01*
X83150720Y-87253354D01*
X82746646Y-86849280D01*
X82429167Y-86374139D01*
X82210484Y-85846191D01*
X82210483Y-85846189D01*
X82099000Y-85285725D01*
X82099000Y-84714275D01*
X82210483Y-84153811D01*
X82429166Y-83625863D01*
X82429167Y-83625861D01*
X82746646Y-83150720D01*
X83150720Y-82746646D01*
X83625861Y-82429167D01*
X84153809Y-82210484D01*
X84153808Y-82210484D01*
X84153811Y-82210483D01*
X84714275Y-82099000D01*
X85285725Y-82099000D01*
X85846189Y-82210483D01*
G37*
G36*
X210846189Y-57210483D02*
G01*
X210846192Y-57210484D01*
X210846191Y-57210484D01*
X211374139Y-57429167D01*
X211849280Y-57746646D01*
X212253354Y-58150720D01*
X212570833Y-58625861D01*
X212570834Y-58625863D01*
X212789517Y-59153811D01*
X212901000Y-59714275D01*
X212901000Y-60285725D01*
X212789517Y-60846189D01*
X212789516Y-60846191D01*
X212570833Y-61374139D01*
X212253354Y-61849280D01*
X211849280Y-62253354D01*
X211374139Y-62570833D01*
X211374138Y-62570834D01*
X211374137Y-62570834D01*
X210846189Y-62789517D01*
X210285725Y-62901000D01*
X209714275Y-62901000D01*
X209153811Y-62789517D01*
X208625863Y-62570834D01*
X208625862Y-62570834D01*
X208625861Y-62570833D01*
X208150720Y-62253354D01*
X207746646Y-61849280D01*
X207429167Y-61374139D01*
X207210484Y-60846191D01*
X207210483Y-60846189D01*
X207099000Y-60285725D01*
X207099000Y-59714275D01*
X207210483Y-59153811D01*
X207429166Y-58625863D01*
X207429167Y-58625861D01*
X207746646Y-58150720D01*
X208150720Y-57746646D01*
X208625861Y-57429167D01*
X209153809Y-57210484D01*
X209153808Y-57210484D01*
X209153811Y-57210483D01*
X209714275Y-57099000D01*
X210285725Y-57099000D01*
X210846189Y-57210483D01*
G37*
G36*
X60846189Y-57210483D02*
G01*
X60846192Y-57210484D01*
X60846191Y-57210484D01*
X61374139Y-57429167D01*
X61849280Y-57746646D01*
X62253354Y-58150720D01*
X62570833Y-58625861D01*
X62570834Y-58625863D01*
X62789517Y-59153811D01*
X62901000Y-59714275D01*
X62901000Y-60285725D01*
X62789517Y-60846189D01*
X62789516Y-60846191D01*
X62570833Y-61374139D01*
X62253354Y-61849280D01*
X61849280Y-62253354D01*
X61374139Y-62570833D01*
X61374138Y-62570834D01*
X61374137Y-62570834D01*
X60846189Y-62789517D01*
X60285725Y-62901000D01*
X59714275Y-62901000D01*
X59153811Y-62789517D01*
X58625863Y-62570834D01*
X58625862Y-62570834D01*
X58625861Y-62570833D01*
X58150720Y-62253354D01*
X57746646Y-61849280D01*
X57429167Y-61374139D01*
X57210484Y-60846191D01*
X57210483Y-60846189D01*
X57099000Y-60285725D01*
X57099000Y-59714275D01*
X57210483Y-59153811D01*
X57429166Y-58625863D01*
X57429167Y-58625861D01*
X57746646Y-58150720D01*
X58150720Y-57746646D01*
X58625861Y-57429167D01*
X59153809Y-57210484D01*
X59153808Y-57210484D01*
X59153811Y-57210483D01*
X59714275Y-57099000D01*
X60285725Y-57099000D01*
X60846189Y-57210483D01*
G37*
M02*
