G04 #@! TF.GenerationSoftware,KiCad,Pcbnew,5.1.5*
G04 #@! TF.CreationDate,2020-03-06T12:13:38+01:00*
G04 #@! TF.ProjectId,e-chessboard,652d6368-6573-4736-926f-6172642e6b69,0.1*
G04 #@! TF.SameCoordinates,Original*
G04 #@! TF.FileFunction,Paste,Top*
G04 #@! TF.FilePolarity,Positive*
%FSLAX46Y46*%
G04 Gerber Fmt 4.6, Leading zero omitted, Abs format (unit mm)*
G04 Created by KiCad (PCBNEW 5.1.5) date 2020-03-06 12:13:38*
%MOMM*%
%LPD*%
G04 APERTURE LIST*
%ADD10C,0.100000*%
%ADD11R,1.800000X2.500000*%
%ADD12R,2.000000X1.600000*%
G04 APERTURE END LIST*
D10*
G36*
X203374505Y-102801204D02*
G01*
X203398773Y-102804804D01*
X203422572Y-102810765D01*
X203445671Y-102819030D01*
X203467850Y-102829520D01*
X203488893Y-102842132D01*
X203508599Y-102856747D01*
X203526777Y-102873223D01*
X203543253Y-102891401D01*
X203557868Y-102911107D01*
X203570480Y-102932150D01*
X203580970Y-102954329D01*
X203589235Y-102977428D01*
X203595196Y-103001227D01*
X203598796Y-103025495D01*
X203600000Y-103049999D01*
X203600000Y-103950001D01*
X203598796Y-103974505D01*
X203595196Y-103998773D01*
X203589235Y-104022572D01*
X203580970Y-104045671D01*
X203570480Y-104067850D01*
X203557868Y-104088893D01*
X203543253Y-104108599D01*
X203526777Y-104126777D01*
X203508599Y-104143253D01*
X203488893Y-104157868D01*
X203467850Y-104170480D01*
X203445671Y-104180970D01*
X203422572Y-104189235D01*
X203398773Y-104195196D01*
X203374505Y-104198796D01*
X203350001Y-104200000D01*
X202699999Y-104200000D01*
X202675495Y-104198796D01*
X202651227Y-104195196D01*
X202627428Y-104189235D01*
X202604329Y-104180970D01*
X202582150Y-104170480D01*
X202561107Y-104157868D01*
X202541401Y-104143253D01*
X202523223Y-104126777D01*
X202506747Y-104108599D01*
X202492132Y-104088893D01*
X202479520Y-104067850D01*
X202469030Y-104045671D01*
X202460765Y-104022572D01*
X202454804Y-103998773D01*
X202451204Y-103974505D01*
X202450000Y-103950001D01*
X202450000Y-103049999D01*
X202451204Y-103025495D01*
X202454804Y-103001227D01*
X202460765Y-102977428D01*
X202469030Y-102954329D01*
X202479520Y-102932150D01*
X202492132Y-102911107D01*
X202506747Y-102891401D01*
X202523223Y-102873223D01*
X202541401Y-102856747D01*
X202561107Y-102842132D01*
X202582150Y-102829520D01*
X202604329Y-102819030D01*
X202627428Y-102810765D01*
X202651227Y-102804804D01*
X202675495Y-102801204D01*
X202699999Y-102800000D01*
X203350001Y-102800000D01*
X203374505Y-102801204D01*
G37*
G36*
X201324505Y-102801204D02*
G01*
X201348773Y-102804804D01*
X201372572Y-102810765D01*
X201395671Y-102819030D01*
X201417850Y-102829520D01*
X201438893Y-102842132D01*
X201458599Y-102856747D01*
X201476777Y-102873223D01*
X201493253Y-102891401D01*
X201507868Y-102911107D01*
X201520480Y-102932150D01*
X201530970Y-102954329D01*
X201539235Y-102977428D01*
X201545196Y-103001227D01*
X201548796Y-103025495D01*
X201550000Y-103049999D01*
X201550000Y-103950001D01*
X201548796Y-103974505D01*
X201545196Y-103998773D01*
X201539235Y-104022572D01*
X201530970Y-104045671D01*
X201520480Y-104067850D01*
X201507868Y-104088893D01*
X201493253Y-104108599D01*
X201476777Y-104126777D01*
X201458599Y-104143253D01*
X201438893Y-104157868D01*
X201417850Y-104170480D01*
X201395671Y-104180970D01*
X201372572Y-104189235D01*
X201348773Y-104195196D01*
X201324505Y-104198796D01*
X201300001Y-104200000D01*
X200649999Y-104200000D01*
X200625495Y-104198796D01*
X200601227Y-104195196D01*
X200577428Y-104189235D01*
X200554329Y-104180970D01*
X200532150Y-104170480D01*
X200511107Y-104157868D01*
X200491401Y-104143253D01*
X200473223Y-104126777D01*
X200456747Y-104108599D01*
X200442132Y-104088893D01*
X200429520Y-104067850D01*
X200419030Y-104045671D01*
X200410765Y-104022572D01*
X200404804Y-103998773D01*
X200401204Y-103974505D01*
X200400000Y-103950001D01*
X200400000Y-103049999D01*
X200401204Y-103025495D01*
X200404804Y-103001227D01*
X200410765Y-102977428D01*
X200419030Y-102954329D01*
X200429520Y-102932150D01*
X200442132Y-102911107D01*
X200456747Y-102891401D01*
X200473223Y-102873223D01*
X200491401Y-102856747D01*
X200511107Y-102842132D01*
X200532150Y-102829520D01*
X200554329Y-102819030D01*
X200577428Y-102810765D01*
X200601227Y-102804804D01*
X200625495Y-102801204D01*
X200649999Y-102800000D01*
X201300001Y-102800000D01*
X201324505Y-102801204D01*
G37*
G36*
X201324505Y-114801204D02*
G01*
X201348773Y-114804804D01*
X201372572Y-114810765D01*
X201395671Y-114819030D01*
X201417850Y-114829520D01*
X201438893Y-114842132D01*
X201458599Y-114856747D01*
X201476777Y-114873223D01*
X201493253Y-114891401D01*
X201507868Y-114911107D01*
X201520480Y-114932150D01*
X201530970Y-114954329D01*
X201539235Y-114977428D01*
X201545196Y-115001227D01*
X201548796Y-115025495D01*
X201550000Y-115049999D01*
X201550000Y-115950001D01*
X201548796Y-115974505D01*
X201545196Y-115998773D01*
X201539235Y-116022572D01*
X201530970Y-116045671D01*
X201520480Y-116067850D01*
X201507868Y-116088893D01*
X201493253Y-116108599D01*
X201476777Y-116126777D01*
X201458599Y-116143253D01*
X201438893Y-116157868D01*
X201417850Y-116170480D01*
X201395671Y-116180970D01*
X201372572Y-116189235D01*
X201348773Y-116195196D01*
X201324505Y-116198796D01*
X201300001Y-116200000D01*
X200649999Y-116200000D01*
X200625495Y-116198796D01*
X200601227Y-116195196D01*
X200577428Y-116189235D01*
X200554329Y-116180970D01*
X200532150Y-116170480D01*
X200511107Y-116157868D01*
X200491401Y-116143253D01*
X200473223Y-116126777D01*
X200456747Y-116108599D01*
X200442132Y-116088893D01*
X200429520Y-116067850D01*
X200419030Y-116045671D01*
X200410765Y-116022572D01*
X200404804Y-115998773D01*
X200401204Y-115974505D01*
X200400000Y-115950001D01*
X200400000Y-115049999D01*
X200401204Y-115025495D01*
X200404804Y-115001227D01*
X200410765Y-114977428D01*
X200419030Y-114954329D01*
X200429520Y-114932150D01*
X200442132Y-114911107D01*
X200456747Y-114891401D01*
X200473223Y-114873223D01*
X200491401Y-114856747D01*
X200511107Y-114842132D01*
X200532150Y-114829520D01*
X200554329Y-114819030D01*
X200577428Y-114810765D01*
X200601227Y-114804804D01*
X200625495Y-114801204D01*
X200649999Y-114800000D01*
X201300001Y-114800000D01*
X201324505Y-114801204D01*
G37*
G36*
X203374505Y-114801204D02*
G01*
X203398773Y-114804804D01*
X203422572Y-114810765D01*
X203445671Y-114819030D01*
X203467850Y-114829520D01*
X203488893Y-114842132D01*
X203508599Y-114856747D01*
X203526777Y-114873223D01*
X203543253Y-114891401D01*
X203557868Y-114911107D01*
X203570480Y-114932150D01*
X203580970Y-114954329D01*
X203589235Y-114977428D01*
X203595196Y-115001227D01*
X203598796Y-115025495D01*
X203600000Y-115049999D01*
X203600000Y-115950001D01*
X203598796Y-115974505D01*
X203595196Y-115998773D01*
X203589235Y-116022572D01*
X203580970Y-116045671D01*
X203570480Y-116067850D01*
X203557868Y-116088893D01*
X203543253Y-116108599D01*
X203526777Y-116126777D01*
X203508599Y-116143253D01*
X203488893Y-116157868D01*
X203467850Y-116170480D01*
X203445671Y-116180970D01*
X203422572Y-116189235D01*
X203398773Y-116195196D01*
X203374505Y-116198796D01*
X203350001Y-116200000D01*
X202699999Y-116200000D01*
X202675495Y-116198796D01*
X202651227Y-116195196D01*
X202627428Y-116189235D01*
X202604329Y-116180970D01*
X202582150Y-116170480D01*
X202561107Y-116157868D01*
X202541401Y-116143253D01*
X202523223Y-116126777D01*
X202506747Y-116108599D01*
X202492132Y-116088893D01*
X202479520Y-116067850D01*
X202469030Y-116045671D01*
X202460765Y-116022572D01*
X202454804Y-115998773D01*
X202451204Y-115974505D01*
X202450000Y-115950001D01*
X202450000Y-115049999D01*
X202451204Y-115025495D01*
X202454804Y-115001227D01*
X202460765Y-114977428D01*
X202469030Y-114954329D01*
X202479520Y-114932150D01*
X202492132Y-114911107D01*
X202506747Y-114891401D01*
X202523223Y-114873223D01*
X202541401Y-114856747D01*
X202561107Y-114842132D01*
X202582150Y-114829520D01*
X202604329Y-114819030D01*
X202627428Y-114810765D01*
X202651227Y-114804804D01*
X202675495Y-114801204D01*
X202699999Y-114800000D01*
X203350001Y-114800000D01*
X203374505Y-114801204D01*
G37*
G36*
X136224505Y-216201204D02*
G01*
X136248773Y-216204804D01*
X136272572Y-216210765D01*
X136295671Y-216219030D01*
X136317850Y-216229520D01*
X136338893Y-216242132D01*
X136358599Y-216256747D01*
X136376777Y-216273223D01*
X136393253Y-216291401D01*
X136407868Y-216311107D01*
X136420480Y-216332150D01*
X136430970Y-216354329D01*
X136439235Y-216377428D01*
X136445196Y-216401227D01*
X136448796Y-216425495D01*
X136450000Y-216449999D01*
X136450000Y-217100001D01*
X136448796Y-217124505D01*
X136445196Y-217148773D01*
X136439235Y-217172572D01*
X136430970Y-217195671D01*
X136420480Y-217217850D01*
X136407868Y-217238893D01*
X136393253Y-217258599D01*
X136376777Y-217276777D01*
X136358599Y-217293253D01*
X136338893Y-217307868D01*
X136317850Y-217320480D01*
X136295671Y-217330970D01*
X136272572Y-217339235D01*
X136248773Y-217345196D01*
X136224505Y-217348796D01*
X136200001Y-217350000D01*
X135299999Y-217350000D01*
X135275495Y-217348796D01*
X135251227Y-217345196D01*
X135227428Y-217339235D01*
X135204329Y-217330970D01*
X135182150Y-217320480D01*
X135161107Y-217307868D01*
X135141401Y-217293253D01*
X135123223Y-217276777D01*
X135106747Y-217258599D01*
X135092132Y-217238893D01*
X135079520Y-217217850D01*
X135069030Y-217195671D01*
X135060765Y-217172572D01*
X135054804Y-217148773D01*
X135051204Y-217124505D01*
X135050000Y-217100001D01*
X135050000Y-216449999D01*
X135051204Y-216425495D01*
X135054804Y-216401227D01*
X135060765Y-216377428D01*
X135069030Y-216354329D01*
X135079520Y-216332150D01*
X135092132Y-216311107D01*
X135106747Y-216291401D01*
X135123223Y-216273223D01*
X135141401Y-216256747D01*
X135161107Y-216242132D01*
X135182150Y-216229520D01*
X135204329Y-216219030D01*
X135227428Y-216210765D01*
X135251227Y-216204804D01*
X135275495Y-216201204D01*
X135299999Y-216200000D01*
X136200001Y-216200000D01*
X136224505Y-216201204D01*
G37*
G36*
X136224505Y-214151204D02*
G01*
X136248773Y-214154804D01*
X136272572Y-214160765D01*
X136295671Y-214169030D01*
X136317850Y-214179520D01*
X136338893Y-214192132D01*
X136358599Y-214206747D01*
X136376777Y-214223223D01*
X136393253Y-214241401D01*
X136407868Y-214261107D01*
X136420480Y-214282150D01*
X136430970Y-214304329D01*
X136439235Y-214327428D01*
X136445196Y-214351227D01*
X136448796Y-214375495D01*
X136450000Y-214399999D01*
X136450000Y-215050001D01*
X136448796Y-215074505D01*
X136445196Y-215098773D01*
X136439235Y-215122572D01*
X136430970Y-215145671D01*
X136420480Y-215167850D01*
X136407868Y-215188893D01*
X136393253Y-215208599D01*
X136376777Y-215226777D01*
X136358599Y-215243253D01*
X136338893Y-215257868D01*
X136317850Y-215270480D01*
X136295671Y-215280970D01*
X136272572Y-215289235D01*
X136248773Y-215295196D01*
X136224505Y-215298796D01*
X136200001Y-215300000D01*
X135299999Y-215300000D01*
X135275495Y-215298796D01*
X135251227Y-215295196D01*
X135227428Y-215289235D01*
X135204329Y-215280970D01*
X135182150Y-215270480D01*
X135161107Y-215257868D01*
X135141401Y-215243253D01*
X135123223Y-215226777D01*
X135106747Y-215208599D01*
X135092132Y-215188893D01*
X135079520Y-215167850D01*
X135069030Y-215145671D01*
X135060765Y-215122572D01*
X135054804Y-215098773D01*
X135051204Y-215074505D01*
X135050000Y-215050001D01*
X135050000Y-214399999D01*
X135051204Y-214375495D01*
X135054804Y-214351227D01*
X135060765Y-214327428D01*
X135069030Y-214304329D01*
X135079520Y-214282150D01*
X135092132Y-214261107D01*
X135106747Y-214241401D01*
X135123223Y-214223223D01*
X135141401Y-214206747D01*
X135161107Y-214192132D01*
X135182150Y-214179520D01*
X135204329Y-214169030D01*
X135227428Y-214160765D01*
X135251227Y-214154804D01*
X135275495Y-214151204D01*
X135299999Y-214150000D01*
X136200001Y-214150000D01*
X136224505Y-214151204D01*
G37*
G36*
X132224505Y-199701204D02*
G01*
X132248773Y-199704804D01*
X132272572Y-199710765D01*
X132295671Y-199719030D01*
X132317850Y-199729520D01*
X132338893Y-199742132D01*
X132358599Y-199756747D01*
X132376777Y-199773223D01*
X132393253Y-199791401D01*
X132407868Y-199811107D01*
X132420480Y-199832150D01*
X132430970Y-199854329D01*
X132439235Y-199877428D01*
X132445196Y-199901227D01*
X132448796Y-199925495D01*
X132450000Y-199949999D01*
X132450000Y-200600001D01*
X132448796Y-200624505D01*
X132445196Y-200648773D01*
X132439235Y-200672572D01*
X132430970Y-200695671D01*
X132420480Y-200717850D01*
X132407868Y-200738893D01*
X132393253Y-200758599D01*
X132376777Y-200776777D01*
X132358599Y-200793253D01*
X132338893Y-200807868D01*
X132317850Y-200820480D01*
X132295671Y-200830970D01*
X132272572Y-200839235D01*
X132248773Y-200845196D01*
X132224505Y-200848796D01*
X132200001Y-200850000D01*
X131299999Y-200850000D01*
X131275495Y-200848796D01*
X131251227Y-200845196D01*
X131227428Y-200839235D01*
X131204329Y-200830970D01*
X131182150Y-200820480D01*
X131161107Y-200807868D01*
X131141401Y-200793253D01*
X131123223Y-200776777D01*
X131106747Y-200758599D01*
X131092132Y-200738893D01*
X131079520Y-200717850D01*
X131069030Y-200695671D01*
X131060765Y-200672572D01*
X131054804Y-200648773D01*
X131051204Y-200624505D01*
X131050000Y-200600001D01*
X131050000Y-199949999D01*
X131051204Y-199925495D01*
X131054804Y-199901227D01*
X131060765Y-199877428D01*
X131069030Y-199854329D01*
X131079520Y-199832150D01*
X131092132Y-199811107D01*
X131106747Y-199791401D01*
X131123223Y-199773223D01*
X131141401Y-199756747D01*
X131161107Y-199742132D01*
X131182150Y-199729520D01*
X131204329Y-199719030D01*
X131227428Y-199710765D01*
X131251227Y-199704804D01*
X131275495Y-199701204D01*
X131299999Y-199700000D01*
X132200001Y-199700000D01*
X132224505Y-199701204D01*
G37*
G36*
X132224505Y-197651204D02*
G01*
X132248773Y-197654804D01*
X132272572Y-197660765D01*
X132295671Y-197669030D01*
X132317850Y-197679520D01*
X132338893Y-197692132D01*
X132358599Y-197706747D01*
X132376777Y-197723223D01*
X132393253Y-197741401D01*
X132407868Y-197761107D01*
X132420480Y-197782150D01*
X132430970Y-197804329D01*
X132439235Y-197827428D01*
X132445196Y-197851227D01*
X132448796Y-197875495D01*
X132450000Y-197899999D01*
X132450000Y-198550001D01*
X132448796Y-198574505D01*
X132445196Y-198598773D01*
X132439235Y-198622572D01*
X132430970Y-198645671D01*
X132420480Y-198667850D01*
X132407868Y-198688893D01*
X132393253Y-198708599D01*
X132376777Y-198726777D01*
X132358599Y-198743253D01*
X132338893Y-198757868D01*
X132317850Y-198770480D01*
X132295671Y-198780970D01*
X132272572Y-198789235D01*
X132248773Y-198795196D01*
X132224505Y-198798796D01*
X132200001Y-198800000D01*
X131299999Y-198800000D01*
X131275495Y-198798796D01*
X131251227Y-198795196D01*
X131227428Y-198789235D01*
X131204329Y-198780970D01*
X131182150Y-198770480D01*
X131161107Y-198757868D01*
X131141401Y-198743253D01*
X131123223Y-198726777D01*
X131106747Y-198708599D01*
X131092132Y-198688893D01*
X131079520Y-198667850D01*
X131069030Y-198645671D01*
X131060765Y-198622572D01*
X131054804Y-198598773D01*
X131051204Y-198574505D01*
X131050000Y-198550001D01*
X131050000Y-197899999D01*
X131051204Y-197875495D01*
X131054804Y-197851227D01*
X131060765Y-197827428D01*
X131069030Y-197804329D01*
X131079520Y-197782150D01*
X131092132Y-197761107D01*
X131106747Y-197741401D01*
X131123223Y-197723223D01*
X131141401Y-197706747D01*
X131161107Y-197692132D01*
X131182150Y-197679520D01*
X131204329Y-197669030D01*
X131227428Y-197660765D01*
X131251227Y-197654804D01*
X131275495Y-197651204D01*
X131299999Y-197650000D01*
X132200001Y-197650000D01*
X132224505Y-197651204D01*
G37*
G36*
X55974505Y-137426204D02*
G01*
X55998773Y-137429804D01*
X56022572Y-137435765D01*
X56045671Y-137444030D01*
X56067850Y-137454520D01*
X56088893Y-137467132D01*
X56108599Y-137481747D01*
X56126777Y-137498223D01*
X56143253Y-137516401D01*
X56157868Y-137536107D01*
X56170480Y-137557150D01*
X56180970Y-137579329D01*
X56189235Y-137602428D01*
X56195196Y-137626227D01*
X56198796Y-137650495D01*
X56200000Y-137674999D01*
X56200000Y-138325001D01*
X56198796Y-138349505D01*
X56195196Y-138373773D01*
X56189235Y-138397572D01*
X56180970Y-138420671D01*
X56170480Y-138442850D01*
X56157868Y-138463893D01*
X56143253Y-138483599D01*
X56126777Y-138501777D01*
X56108599Y-138518253D01*
X56088893Y-138532868D01*
X56067850Y-138545480D01*
X56045671Y-138555970D01*
X56022572Y-138564235D01*
X55998773Y-138570196D01*
X55974505Y-138573796D01*
X55950001Y-138575000D01*
X55049999Y-138575000D01*
X55025495Y-138573796D01*
X55001227Y-138570196D01*
X54977428Y-138564235D01*
X54954329Y-138555970D01*
X54932150Y-138545480D01*
X54911107Y-138532868D01*
X54891401Y-138518253D01*
X54873223Y-138501777D01*
X54856747Y-138483599D01*
X54842132Y-138463893D01*
X54829520Y-138442850D01*
X54819030Y-138420671D01*
X54810765Y-138397572D01*
X54804804Y-138373773D01*
X54801204Y-138349505D01*
X54800000Y-138325001D01*
X54800000Y-137674999D01*
X54801204Y-137650495D01*
X54804804Y-137626227D01*
X54810765Y-137602428D01*
X54819030Y-137579329D01*
X54829520Y-137557150D01*
X54842132Y-137536107D01*
X54856747Y-137516401D01*
X54873223Y-137498223D01*
X54891401Y-137481747D01*
X54911107Y-137467132D01*
X54932150Y-137454520D01*
X54954329Y-137444030D01*
X54977428Y-137435765D01*
X55001227Y-137429804D01*
X55025495Y-137426204D01*
X55049999Y-137425000D01*
X55950001Y-137425000D01*
X55974505Y-137426204D01*
G37*
G36*
X55974505Y-135376204D02*
G01*
X55998773Y-135379804D01*
X56022572Y-135385765D01*
X56045671Y-135394030D01*
X56067850Y-135404520D01*
X56088893Y-135417132D01*
X56108599Y-135431747D01*
X56126777Y-135448223D01*
X56143253Y-135466401D01*
X56157868Y-135486107D01*
X56170480Y-135507150D01*
X56180970Y-135529329D01*
X56189235Y-135552428D01*
X56195196Y-135576227D01*
X56198796Y-135600495D01*
X56200000Y-135624999D01*
X56200000Y-136275001D01*
X56198796Y-136299505D01*
X56195196Y-136323773D01*
X56189235Y-136347572D01*
X56180970Y-136370671D01*
X56170480Y-136392850D01*
X56157868Y-136413893D01*
X56143253Y-136433599D01*
X56126777Y-136451777D01*
X56108599Y-136468253D01*
X56088893Y-136482868D01*
X56067850Y-136495480D01*
X56045671Y-136505970D01*
X56022572Y-136514235D01*
X55998773Y-136520196D01*
X55974505Y-136523796D01*
X55950001Y-136525000D01*
X55049999Y-136525000D01*
X55025495Y-136523796D01*
X55001227Y-136520196D01*
X54977428Y-136514235D01*
X54954329Y-136505970D01*
X54932150Y-136495480D01*
X54911107Y-136482868D01*
X54891401Y-136468253D01*
X54873223Y-136451777D01*
X54856747Y-136433599D01*
X54842132Y-136413893D01*
X54829520Y-136392850D01*
X54819030Y-136370671D01*
X54810765Y-136347572D01*
X54804804Y-136323773D01*
X54801204Y-136299505D01*
X54800000Y-136275001D01*
X54800000Y-135624999D01*
X54801204Y-135600495D01*
X54804804Y-135576227D01*
X54810765Y-135552428D01*
X54819030Y-135529329D01*
X54829520Y-135507150D01*
X54842132Y-135486107D01*
X54856747Y-135466401D01*
X54873223Y-135448223D01*
X54891401Y-135431747D01*
X54911107Y-135417132D01*
X54932150Y-135404520D01*
X54954329Y-135394030D01*
X54977428Y-135385765D01*
X55001227Y-135379804D01*
X55025495Y-135376204D01*
X55049999Y-135375000D01*
X55950001Y-135375000D01*
X55974505Y-135376204D01*
G37*
G36*
X69974505Y-131426204D02*
G01*
X69998773Y-131429804D01*
X70022572Y-131435765D01*
X70045671Y-131444030D01*
X70067850Y-131454520D01*
X70088893Y-131467132D01*
X70108599Y-131481747D01*
X70126777Y-131498223D01*
X70143253Y-131516401D01*
X70157868Y-131536107D01*
X70170480Y-131557150D01*
X70180970Y-131579329D01*
X70189235Y-131602428D01*
X70195196Y-131626227D01*
X70198796Y-131650495D01*
X70200000Y-131674999D01*
X70200000Y-132325001D01*
X70198796Y-132349505D01*
X70195196Y-132373773D01*
X70189235Y-132397572D01*
X70180970Y-132420671D01*
X70170480Y-132442850D01*
X70157868Y-132463893D01*
X70143253Y-132483599D01*
X70126777Y-132501777D01*
X70108599Y-132518253D01*
X70088893Y-132532868D01*
X70067850Y-132545480D01*
X70045671Y-132555970D01*
X70022572Y-132564235D01*
X69998773Y-132570196D01*
X69974505Y-132573796D01*
X69950001Y-132575000D01*
X69049999Y-132575000D01*
X69025495Y-132573796D01*
X69001227Y-132570196D01*
X68977428Y-132564235D01*
X68954329Y-132555970D01*
X68932150Y-132545480D01*
X68911107Y-132532868D01*
X68891401Y-132518253D01*
X68873223Y-132501777D01*
X68856747Y-132483599D01*
X68842132Y-132463893D01*
X68829520Y-132442850D01*
X68819030Y-132420671D01*
X68810765Y-132397572D01*
X68804804Y-132373773D01*
X68801204Y-132349505D01*
X68800000Y-132325001D01*
X68800000Y-131674999D01*
X68801204Y-131650495D01*
X68804804Y-131626227D01*
X68810765Y-131602428D01*
X68819030Y-131579329D01*
X68829520Y-131557150D01*
X68842132Y-131536107D01*
X68856747Y-131516401D01*
X68873223Y-131498223D01*
X68891401Y-131481747D01*
X68911107Y-131467132D01*
X68932150Y-131454520D01*
X68954329Y-131444030D01*
X68977428Y-131435765D01*
X69001227Y-131429804D01*
X69025495Y-131426204D01*
X69049999Y-131425000D01*
X69950001Y-131425000D01*
X69974505Y-131426204D01*
G37*
G36*
X69974505Y-133476204D02*
G01*
X69998773Y-133479804D01*
X70022572Y-133485765D01*
X70045671Y-133494030D01*
X70067850Y-133504520D01*
X70088893Y-133517132D01*
X70108599Y-133531747D01*
X70126777Y-133548223D01*
X70143253Y-133566401D01*
X70157868Y-133586107D01*
X70170480Y-133607150D01*
X70180970Y-133629329D01*
X70189235Y-133652428D01*
X70195196Y-133676227D01*
X70198796Y-133700495D01*
X70200000Y-133724999D01*
X70200000Y-134375001D01*
X70198796Y-134399505D01*
X70195196Y-134423773D01*
X70189235Y-134447572D01*
X70180970Y-134470671D01*
X70170480Y-134492850D01*
X70157868Y-134513893D01*
X70143253Y-134533599D01*
X70126777Y-134551777D01*
X70108599Y-134568253D01*
X70088893Y-134582868D01*
X70067850Y-134595480D01*
X70045671Y-134605970D01*
X70022572Y-134614235D01*
X69998773Y-134620196D01*
X69974505Y-134623796D01*
X69950001Y-134625000D01*
X69049999Y-134625000D01*
X69025495Y-134623796D01*
X69001227Y-134620196D01*
X68977428Y-134614235D01*
X68954329Y-134605970D01*
X68932150Y-134595480D01*
X68911107Y-134582868D01*
X68891401Y-134568253D01*
X68873223Y-134551777D01*
X68856747Y-134533599D01*
X68842132Y-134513893D01*
X68829520Y-134492850D01*
X68819030Y-134470671D01*
X68810765Y-134447572D01*
X68804804Y-134423773D01*
X68801204Y-134399505D01*
X68800000Y-134375001D01*
X68800000Y-133724999D01*
X68801204Y-133700495D01*
X68804804Y-133676227D01*
X68810765Y-133652428D01*
X68819030Y-133629329D01*
X68829520Y-133607150D01*
X68842132Y-133586107D01*
X68856747Y-133566401D01*
X68873223Y-133548223D01*
X68891401Y-133531747D01*
X68911107Y-133517132D01*
X68932150Y-133504520D01*
X68954329Y-133494030D01*
X68977428Y-133485765D01*
X69001227Y-133479804D01*
X69025495Y-133476204D01*
X69049999Y-133475000D01*
X69950001Y-133475000D01*
X69974505Y-133476204D01*
G37*
D11*
X110000000Y-83000000D03*
X110000000Y-87000000D03*
X110000000Y-137000000D03*
X110000000Y-133000000D03*
X110000000Y-187000000D03*
X110000000Y-183000000D03*
X160000000Y-87000000D03*
X160000000Y-83000000D03*
X160000000Y-133000000D03*
X160000000Y-137000000D03*
X160250000Y-183000000D03*
X160250000Y-187000000D03*
X210000000Y-83000000D03*
X210000000Y-87000000D03*
X210000000Y-137000000D03*
X210000000Y-133000000D03*
X210250000Y-187000000D03*
X210250000Y-183000000D03*
D12*
X204700000Y-107000000D03*
X199300000Y-107000000D03*
X199300000Y-112000000D03*
X204700000Y-112000000D03*
D10*
G36*
X126909703Y-211125722D02*
G01*
X126924264Y-211127882D01*
X126938543Y-211131459D01*
X126952403Y-211136418D01*
X126965710Y-211142712D01*
X126978336Y-211150280D01*
X126990159Y-211159048D01*
X127001066Y-211168934D01*
X127010952Y-211179841D01*
X127019720Y-211191664D01*
X127027288Y-211204290D01*
X127033582Y-211217597D01*
X127038541Y-211231457D01*
X127042118Y-211245736D01*
X127044278Y-211260297D01*
X127045000Y-211275000D01*
X127045000Y-213025000D01*
X127044278Y-213039703D01*
X127042118Y-213054264D01*
X127038541Y-213068543D01*
X127033582Y-213082403D01*
X127027288Y-213095710D01*
X127019720Y-213108336D01*
X127010952Y-213120159D01*
X127001066Y-213131066D01*
X126990159Y-213140952D01*
X126978336Y-213149720D01*
X126965710Y-213157288D01*
X126952403Y-213163582D01*
X126938543Y-213168541D01*
X126924264Y-213172118D01*
X126909703Y-213174278D01*
X126895000Y-213175000D01*
X126595000Y-213175000D01*
X126580297Y-213174278D01*
X126565736Y-213172118D01*
X126551457Y-213168541D01*
X126537597Y-213163582D01*
X126524290Y-213157288D01*
X126511664Y-213149720D01*
X126499841Y-213140952D01*
X126488934Y-213131066D01*
X126479048Y-213120159D01*
X126470280Y-213108336D01*
X126462712Y-213095710D01*
X126456418Y-213082403D01*
X126451459Y-213068543D01*
X126447882Y-213054264D01*
X126445722Y-213039703D01*
X126445000Y-213025000D01*
X126445000Y-211275000D01*
X126445722Y-211260297D01*
X126447882Y-211245736D01*
X126451459Y-211231457D01*
X126456418Y-211217597D01*
X126462712Y-211204290D01*
X126470280Y-211191664D01*
X126479048Y-211179841D01*
X126488934Y-211168934D01*
X126499841Y-211159048D01*
X126511664Y-211150280D01*
X126524290Y-211142712D01*
X126537597Y-211136418D01*
X126551457Y-211131459D01*
X126565736Y-211127882D01*
X126580297Y-211125722D01*
X126595000Y-211125000D01*
X126895000Y-211125000D01*
X126909703Y-211125722D01*
G37*
G36*
X128179703Y-211125722D02*
G01*
X128194264Y-211127882D01*
X128208543Y-211131459D01*
X128222403Y-211136418D01*
X128235710Y-211142712D01*
X128248336Y-211150280D01*
X128260159Y-211159048D01*
X128271066Y-211168934D01*
X128280952Y-211179841D01*
X128289720Y-211191664D01*
X128297288Y-211204290D01*
X128303582Y-211217597D01*
X128308541Y-211231457D01*
X128312118Y-211245736D01*
X128314278Y-211260297D01*
X128315000Y-211275000D01*
X128315000Y-213025000D01*
X128314278Y-213039703D01*
X128312118Y-213054264D01*
X128308541Y-213068543D01*
X128303582Y-213082403D01*
X128297288Y-213095710D01*
X128289720Y-213108336D01*
X128280952Y-213120159D01*
X128271066Y-213131066D01*
X128260159Y-213140952D01*
X128248336Y-213149720D01*
X128235710Y-213157288D01*
X128222403Y-213163582D01*
X128208543Y-213168541D01*
X128194264Y-213172118D01*
X128179703Y-213174278D01*
X128165000Y-213175000D01*
X127865000Y-213175000D01*
X127850297Y-213174278D01*
X127835736Y-213172118D01*
X127821457Y-213168541D01*
X127807597Y-213163582D01*
X127794290Y-213157288D01*
X127781664Y-213149720D01*
X127769841Y-213140952D01*
X127758934Y-213131066D01*
X127749048Y-213120159D01*
X127740280Y-213108336D01*
X127732712Y-213095710D01*
X127726418Y-213082403D01*
X127721459Y-213068543D01*
X127717882Y-213054264D01*
X127715722Y-213039703D01*
X127715000Y-213025000D01*
X127715000Y-211275000D01*
X127715722Y-211260297D01*
X127717882Y-211245736D01*
X127721459Y-211231457D01*
X127726418Y-211217597D01*
X127732712Y-211204290D01*
X127740280Y-211191664D01*
X127749048Y-211179841D01*
X127758934Y-211168934D01*
X127769841Y-211159048D01*
X127781664Y-211150280D01*
X127794290Y-211142712D01*
X127807597Y-211136418D01*
X127821457Y-211131459D01*
X127835736Y-211127882D01*
X127850297Y-211125722D01*
X127865000Y-211125000D01*
X128165000Y-211125000D01*
X128179703Y-211125722D01*
G37*
G36*
X129449703Y-211125722D02*
G01*
X129464264Y-211127882D01*
X129478543Y-211131459D01*
X129492403Y-211136418D01*
X129505710Y-211142712D01*
X129518336Y-211150280D01*
X129530159Y-211159048D01*
X129541066Y-211168934D01*
X129550952Y-211179841D01*
X129559720Y-211191664D01*
X129567288Y-211204290D01*
X129573582Y-211217597D01*
X129578541Y-211231457D01*
X129582118Y-211245736D01*
X129584278Y-211260297D01*
X129585000Y-211275000D01*
X129585000Y-213025000D01*
X129584278Y-213039703D01*
X129582118Y-213054264D01*
X129578541Y-213068543D01*
X129573582Y-213082403D01*
X129567288Y-213095710D01*
X129559720Y-213108336D01*
X129550952Y-213120159D01*
X129541066Y-213131066D01*
X129530159Y-213140952D01*
X129518336Y-213149720D01*
X129505710Y-213157288D01*
X129492403Y-213163582D01*
X129478543Y-213168541D01*
X129464264Y-213172118D01*
X129449703Y-213174278D01*
X129435000Y-213175000D01*
X129135000Y-213175000D01*
X129120297Y-213174278D01*
X129105736Y-213172118D01*
X129091457Y-213168541D01*
X129077597Y-213163582D01*
X129064290Y-213157288D01*
X129051664Y-213149720D01*
X129039841Y-213140952D01*
X129028934Y-213131066D01*
X129019048Y-213120159D01*
X129010280Y-213108336D01*
X129002712Y-213095710D01*
X128996418Y-213082403D01*
X128991459Y-213068543D01*
X128987882Y-213054264D01*
X128985722Y-213039703D01*
X128985000Y-213025000D01*
X128985000Y-211275000D01*
X128985722Y-211260297D01*
X128987882Y-211245736D01*
X128991459Y-211231457D01*
X128996418Y-211217597D01*
X129002712Y-211204290D01*
X129010280Y-211191664D01*
X129019048Y-211179841D01*
X129028934Y-211168934D01*
X129039841Y-211159048D01*
X129051664Y-211150280D01*
X129064290Y-211142712D01*
X129077597Y-211136418D01*
X129091457Y-211131459D01*
X129105736Y-211127882D01*
X129120297Y-211125722D01*
X129135000Y-211125000D01*
X129435000Y-211125000D01*
X129449703Y-211125722D01*
G37*
G36*
X130719703Y-211125722D02*
G01*
X130734264Y-211127882D01*
X130748543Y-211131459D01*
X130762403Y-211136418D01*
X130775710Y-211142712D01*
X130788336Y-211150280D01*
X130800159Y-211159048D01*
X130811066Y-211168934D01*
X130820952Y-211179841D01*
X130829720Y-211191664D01*
X130837288Y-211204290D01*
X130843582Y-211217597D01*
X130848541Y-211231457D01*
X130852118Y-211245736D01*
X130854278Y-211260297D01*
X130855000Y-211275000D01*
X130855000Y-213025000D01*
X130854278Y-213039703D01*
X130852118Y-213054264D01*
X130848541Y-213068543D01*
X130843582Y-213082403D01*
X130837288Y-213095710D01*
X130829720Y-213108336D01*
X130820952Y-213120159D01*
X130811066Y-213131066D01*
X130800159Y-213140952D01*
X130788336Y-213149720D01*
X130775710Y-213157288D01*
X130762403Y-213163582D01*
X130748543Y-213168541D01*
X130734264Y-213172118D01*
X130719703Y-213174278D01*
X130705000Y-213175000D01*
X130405000Y-213175000D01*
X130390297Y-213174278D01*
X130375736Y-213172118D01*
X130361457Y-213168541D01*
X130347597Y-213163582D01*
X130334290Y-213157288D01*
X130321664Y-213149720D01*
X130309841Y-213140952D01*
X130298934Y-213131066D01*
X130289048Y-213120159D01*
X130280280Y-213108336D01*
X130272712Y-213095710D01*
X130266418Y-213082403D01*
X130261459Y-213068543D01*
X130257882Y-213054264D01*
X130255722Y-213039703D01*
X130255000Y-213025000D01*
X130255000Y-211275000D01*
X130255722Y-211260297D01*
X130257882Y-211245736D01*
X130261459Y-211231457D01*
X130266418Y-211217597D01*
X130272712Y-211204290D01*
X130280280Y-211191664D01*
X130289048Y-211179841D01*
X130298934Y-211168934D01*
X130309841Y-211159048D01*
X130321664Y-211150280D01*
X130334290Y-211142712D01*
X130347597Y-211136418D01*
X130361457Y-211131459D01*
X130375736Y-211127882D01*
X130390297Y-211125722D01*
X130405000Y-211125000D01*
X130705000Y-211125000D01*
X130719703Y-211125722D01*
G37*
G36*
X131989703Y-211125722D02*
G01*
X132004264Y-211127882D01*
X132018543Y-211131459D01*
X132032403Y-211136418D01*
X132045710Y-211142712D01*
X132058336Y-211150280D01*
X132070159Y-211159048D01*
X132081066Y-211168934D01*
X132090952Y-211179841D01*
X132099720Y-211191664D01*
X132107288Y-211204290D01*
X132113582Y-211217597D01*
X132118541Y-211231457D01*
X132122118Y-211245736D01*
X132124278Y-211260297D01*
X132125000Y-211275000D01*
X132125000Y-213025000D01*
X132124278Y-213039703D01*
X132122118Y-213054264D01*
X132118541Y-213068543D01*
X132113582Y-213082403D01*
X132107288Y-213095710D01*
X132099720Y-213108336D01*
X132090952Y-213120159D01*
X132081066Y-213131066D01*
X132070159Y-213140952D01*
X132058336Y-213149720D01*
X132045710Y-213157288D01*
X132032403Y-213163582D01*
X132018543Y-213168541D01*
X132004264Y-213172118D01*
X131989703Y-213174278D01*
X131975000Y-213175000D01*
X131675000Y-213175000D01*
X131660297Y-213174278D01*
X131645736Y-213172118D01*
X131631457Y-213168541D01*
X131617597Y-213163582D01*
X131604290Y-213157288D01*
X131591664Y-213149720D01*
X131579841Y-213140952D01*
X131568934Y-213131066D01*
X131559048Y-213120159D01*
X131550280Y-213108336D01*
X131542712Y-213095710D01*
X131536418Y-213082403D01*
X131531459Y-213068543D01*
X131527882Y-213054264D01*
X131525722Y-213039703D01*
X131525000Y-213025000D01*
X131525000Y-211275000D01*
X131525722Y-211260297D01*
X131527882Y-211245736D01*
X131531459Y-211231457D01*
X131536418Y-211217597D01*
X131542712Y-211204290D01*
X131550280Y-211191664D01*
X131559048Y-211179841D01*
X131568934Y-211168934D01*
X131579841Y-211159048D01*
X131591664Y-211150280D01*
X131604290Y-211142712D01*
X131617597Y-211136418D01*
X131631457Y-211131459D01*
X131645736Y-211127882D01*
X131660297Y-211125722D01*
X131675000Y-211125000D01*
X131975000Y-211125000D01*
X131989703Y-211125722D01*
G37*
G36*
X133259703Y-211125722D02*
G01*
X133274264Y-211127882D01*
X133288543Y-211131459D01*
X133302403Y-211136418D01*
X133315710Y-211142712D01*
X133328336Y-211150280D01*
X133340159Y-211159048D01*
X133351066Y-211168934D01*
X133360952Y-211179841D01*
X133369720Y-211191664D01*
X133377288Y-211204290D01*
X133383582Y-211217597D01*
X133388541Y-211231457D01*
X133392118Y-211245736D01*
X133394278Y-211260297D01*
X133395000Y-211275000D01*
X133395000Y-213025000D01*
X133394278Y-213039703D01*
X133392118Y-213054264D01*
X133388541Y-213068543D01*
X133383582Y-213082403D01*
X133377288Y-213095710D01*
X133369720Y-213108336D01*
X133360952Y-213120159D01*
X133351066Y-213131066D01*
X133340159Y-213140952D01*
X133328336Y-213149720D01*
X133315710Y-213157288D01*
X133302403Y-213163582D01*
X133288543Y-213168541D01*
X133274264Y-213172118D01*
X133259703Y-213174278D01*
X133245000Y-213175000D01*
X132945000Y-213175000D01*
X132930297Y-213174278D01*
X132915736Y-213172118D01*
X132901457Y-213168541D01*
X132887597Y-213163582D01*
X132874290Y-213157288D01*
X132861664Y-213149720D01*
X132849841Y-213140952D01*
X132838934Y-213131066D01*
X132829048Y-213120159D01*
X132820280Y-213108336D01*
X132812712Y-213095710D01*
X132806418Y-213082403D01*
X132801459Y-213068543D01*
X132797882Y-213054264D01*
X132795722Y-213039703D01*
X132795000Y-213025000D01*
X132795000Y-211275000D01*
X132795722Y-211260297D01*
X132797882Y-211245736D01*
X132801459Y-211231457D01*
X132806418Y-211217597D01*
X132812712Y-211204290D01*
X132820280Y-211191664D01*
X132829048Y-211179841D01*
X132838934Y-211168934D01*
X132849841Y-211159048D01*
X132861664Y-211150280D01*
X132874290Y-211142712D01*
X132887597Y-211136418D01*
X132901457Y-211131459D01*
X132915736Y-211127882D01*
X132930297Y-211125722D01*
X132945000Y-211125000D01*
X133245000Y-211125000D01*
X133259703Y-211125722D01*
G37*
G36*
X134529703Y-211125722D02*
G01*
X134544264Y-211127882D01*
X134558543Y-211131459D01*
X134572403Y-211136418D01*
X134585710Y-211142712D01*
X134598336Y-211150280D01*
X134610159Y-211159048D01*
X134621066Y-211168934D01*
X134630952Y-211179841D01*
X134639720Y-211191664D01*
X134647288Y-211204290D01*
X134653582Y-211217597D01*
X134658541Y-211231457D01*
X134662118Y-211245736D01*
X134664278Y-211260297D01*
X134665000Y-211275000D01*
X134665000Y-213025000D01*
X134664278Y-213039703D01*
X134662118Y-213054264D01*
X134658541Y-213068543D01*
X134653582Y-213082403D01*
X134647288Y-213095710D01*
X134639720Y-213108336D01*
X134630952Y-213120159D01*
X134621066Y-213131066D01*
X134610159Y-213140952D01*
X134598336Y-213149720D01*
X134585710Y-213157288D01*
X134572403Y-213163582D01*
X134558543Y-213168541D01*
X134544264Y-213172118D01*
X134529703Y-213174278D01*
X134515000Y-213175000D01*
X134215000Y-213175000D01*
X134200297Y-213174278D01*
X134185736Y-213172118D01*
X134171457Y-213168541D01*
X134157597Y-213163582D01*
X134144290Y-213157288D01*
X134131664Y-213149720D01*
X134119841Y-213140952D01*
X134108934Y-213131066D01*
X134099048Y-213120159D01*
X134090280Y-213108336D01*
X134082712Y-213095710D01*
X134076418Y-213082403D01*
X134071459Y-213068543D01*
X134067882Y-213054264D01*
X134065722Y-213039703D01*
X134065000Y-213025000D01*
X134065000Y-211275000D01*
X134065722Y-211260297D01*
X134067882Y-211245736D01*
X134071459Y-211231457D01*
X134076418Y-211217597D01*
X134082712Y-211204290D01*
X134090280Y-211191664D01*
X134099048Y-211179841D01*
X134108934Y-211168934D01*
X134119841Y-211159048D01*
X134131664Y-211150280D01*
X134144290Y-211142712D01*
X134157597Y-211136418D01*
X134171457Y-211131459D01*
X134185736Y-211127882D01*
X134200297Y-211125722D01*
X134215000Y-211125000D01*
X134515000Y-211125000D01*
X134529703Y-211125722D01*
G37*
G36*
X135799703Y-211125722D02*
G01*
X135814264Y-211127882D01*
X135828543Y-211131459D01*
X135842403Y-211136418D01*
X135855710Y-211142712D01*
X135868336Y-211150280D01*
X135880159Y-211159048D01*
X135891066Y-211168934D01*
X135900952Y-211179841D01*
X135909720Y-211191664D01*
X135917288Y-211204290D01*
X135923582Y-211217597D01*
X135928541Y-211231457D01*
X135932118Y-211245736D01*
X135934278Y-211260297D01*
X135935000Y-211275000D01*
X135935000Y-213025000D01*
X135934278Y-213039703D01*
X135932118Y-213054264D01*
X135928541Y-213068543D01*
X135923582Y-213082403D01*
X135917288Y-213095710D01*
X135909720Y-213108336D01*
X135900952Y-213120159D01*
X135891066Y-213131066D01*
X135880159Y-213140952D01*
X135868336Y-213149720D01*
X135855710Y-213157288D01*
X135842403Y-213163582D01*
X135828543Y-213168541D01*
X135814264Y-213172118D01*
X135799703Y-213174278D01*
X135785000Y-213175000D01*
X135485000Y-213175000D01*
X135470297Y-213174278D01*
X135455736Y-213172118D01*
X135441457Y-213168541D01*
X135427597Y-213163582D01*
X135414290Y-213157288D01*
X135401664Y-213149720D01*
X135389841Y-213140952D01*
X135378934Y-213131066D01*
X135369048Y-213120159D01*
X135360280Y-213108336D01*
X135352712Y-213095710D01*
X135346418Y-213082403D01*
X135341459Y-213068543D01*
X135337882Y-213054264D01*
X135335722Y-213039703D01*
X135335000Y-213025000D01*
X135335000Y-211275000D01*
X135335722Y-211260297D01*
X135337882Y-211245736D01*
X135341459Y-211231457D01*
X135346418Y-211217597D01*
X135352712Y-211204290D01*
X135360280Y-211191664D01*
X135369048Y-211179841D01*
X135378934Y-211168934D01*
X135389841Y-211159048D01*
X135401664Y-211150280D01*
X135414290Y-211142712D01*
X135427597Y-211136418D01*
X135441457Y-211131459D01*
X135455736Y-211127882D01*
X135470297Y-211125722D01*
X135485000Y-211125000D01*
X135785000Y-211125000D01*
X135799703Y-211125722D01*
G37*
G36*
X137069703Y-211125722D02*
G01*
X137084264Y-211127882D01*
X137098543Y-211131459D01*
X137112403Y-211136418D01*
X137125710Y-211142712D01*
X137138336Y-211150280D01*
X137150159Y-211159048D01*
X137161066Y-211168934D01*
X137170952Y-211179841D01*
X137179720Y-211191664D01*
X137187288Y-211204290D01*
X137193582Y-211217597D01*
X137198541Y-211231457D01*
X137202118Y-211245736D01*
X137204278Y-211260297D01*
X137205000Y-211275000D01*
X137205000Y-213025000D01*
X137204278Y-213039703D01*
X137202118Y-213054264D01*
X137198541Y-213068543D01*
X137193582Y-213082403D01*
X137187288Y-213095710D01*
X137179720Y-213108336D01*
X137170952Y-213120159D01*
X137161066Y-213131066D01*
X137150159Y-213140952D01*
X137138336Y-213149720D01*
X137125710Y-213157288D01*
X137112403Y-213163582D01*
X137098543Y-213168541D01*
X137084264Y-213172118D01*
X137069703Y-213174278D01*
X137055000Y-213175000D01*
X136755000Y-213175000D01*
X136740297Y-213174278D01*
X136725736Y-213172118D01*
X136711457Y-213168541D01*
X136697597Y-213163582D01*
X136684290Y-213157288D01*
X136671664Y-213149720D01*
X136659841Y-213140952D01*
X136648934Y-213131066D01*
X136639048Y-213120159D01*
X136630280Y-213108336D01*
X136622712Y-213095710D01*
X136616418Y-213082403D01*
X136611459Y-213068543D01*
X136607882Y-213054264D01*
X136605722Y-213039703D01*
X136605000Y-213025000D01*
X136605000Y-211275000D01*
X136605722Y-211260297D01*
X136607882Y-211245736D01*
X136611459Y-211231457D01*
X136616418Y-211217597D01*
X136622712Y-211204290D01*
X136630280Y-211191664D01*
X136639048Y-211179841D01*
X136648934Y-211168934D01*
X136659841Y-211159048D01*
X136671664Y-211150280D01*
X136684290Y-211142712D01*
X136697597Y-211136418D01*
X136711457Y-211131459D01*
X136725736Y-211127882D01*
X136740297Y-211125722D01*
X136755000Y-211125000D01*
X137055000Y-211125000D01*
X137069703Y-211125722D01*
G37*
G36*
X138339703Y-211125722D02*
G01*
X138354264Y-211127882D01*
X138368543Y-211131459D01*
X138382403Y-211136418D01*
X138395710Y-211142712D01*
X138408336Y-211150280D01*
X138420159Y-211159048D01*
X138431066Y-211168934D01*
X138440952Y-211179841D01*
X138449720Y-211191664D01*
X138457288Y-211204290D01*
X138463582Y-211217597D01*
X138468541Y-211231457D01*
X138472118Y-211245736D01*
X138474278Y-211260297D01*
X138475000Y-211275000D01*
X138475000Y-213025000D01*
X138474278Y-213039703D01*
X138472118Y-213054264D01*
X138468541Y-213068543D01*
X138463582Y-213082403D01*
X138457288Y-213095710D01*
X138449720Y-213108336D01*
X138440952Y-213120159D01*
X138431066Y-213131066D01*
X138420159Y-213140952D01*
X138408336Y-213149720D01*
X138395710Y-213157288D01*
X138382403Y-213163582D01*
X138368543Y-213168541D01*
X138354264Y-213172118D01*
X138339703Y-213174278D01*
X138325000Y-213175000D01*
X138025000Y-213175000D01*
X138010297Y-213174278D01*
X137995736Y-213172118D01*
X137981457Y-213168541D01*
X137967597Y-213163582D01*
X137954290Y-213157288D01*
X137941664Y-213149720D01*
X137929841Y-213140952D01*
X137918934Y-213131066D01*
X137909048Y-213120159D01*
X137900280Y-213108336D01*
X137892712Y-213095710D01*
X137886418Y-213082403D01*
X137881459Y-213068543D01*
X137877882Y-213054264D01*
X137875722Y-213039703D01*
X137875000Y-213025000D01*
X137875000Y-211275000D01*
X137875722Y-211260297D01*
X137877882Y-211245736D01*
X137881459Y-211231457D01*
X137886418Y-211217597D01*
X137892712Y-211204290D01*
X137900280Y-211191664D01*
X137909048Y-211179841D01*
X137918934Y-211168934D01*
X137929841Y-211159048D01*
X137941664Y-211150280D01*
X137954290Y-211142712D01*
X137967597Y-211136418D01*
X137981457Y-211131459D01*
X137995736Y-211127882D01*
X138010297Y-211125722D01*
X138025000Y-211125000D01*
X138325000Y-211125000D01*
X138339703Y-211125722D01*
G37*
G36*
X139609703Y-211125722D02*
G01*
X139624264Y-211127882D01*
X139638543Y-211131459D01*
X139652403Y-211136418D01*
X139665710Y-211142712D01*
X139678336Y-211150280D01*
X139690159Y-211159048D01*
X139701066Y-211168934D01*
X139710952Y-211179841D01*
X139719720Y-211191664D01*
X139727288Y-211204290D01*
X139733582Y-211217597D01*
X139738541Y-211231457D01*
X139742118Y-211245736D01*
X139744278Y-211260297D01*
X139745000Y-211275000D01*
X139745000Y-213025000D01*
X139744278Y-213039703D01*
X139742118Y-213054264D01*
X139738541Y-213068543D01*
X139733582Y-213082403D01*
X139727288Y-213095710D01*
X139719720Y-213108336D01*
X139710952Y-213120159D01*
X139701066Y-213131066D01*
X139690159Y-213140952D01*
X139678336Y-213149720D01*
X139665710Y-213157288D01*
X139652403Y-213163582D01*
X139638543Y-213168541D01*
X139624264Y-213172118D01*
X139609703Y-213174278D01*
X139595000Y-213175000D01*
X139295000Y-213175000D01*
X139280297Y-213174278D01*
X139265736Y-213172118D01*
X139251457Y-213168541D01*
X139237597Y-213163582D01*
X139224290Y-213157288D01*
X139211664Y-213149720D01*
X139199841Y-213140952D01*
X139188934Y-213131066D01*
X139179048Y-213120159D01*
X139170280Y-213108336D01*
X139162712Y-213095710D01*
X139156418Y-213082403D01*
X139151459Y-213068543D01*
X139147882Y-213054264D01*
X139145722Y-213039703D01*
X139145000Y-213025000D01*
X139145000Y-211275000D01*
X139145722Y-211260297D01*
X139147882Y-211245736D01*
X139151459Y-211231457D01*
X139156418Y-211217597D01*
X139162712Y-211204290D01*
X139170280Y-211191664D01*
X139179048Y-211179841D01*
X139188934Y-211168934D01*
X139199841Y-211159048D01*
X139211664Y-211150280D01*
X139224290Y-211142712D01*
X139237597Y-211136418D01*
X139251457Y-211131459D01*
X139265736Y-211127882D01*
X139280297Y-211125722D01*
X139295000Y-211125000D01*
X139595000Y-211125000D01*
X139609703Y-211125722D01*
G37*
G36*
X140879703Y-211125722D02*
G01*
X140894264Y-211127882D01*
X140908543Y-211131459D01*
X140922403Y-211136418D01*
X140935710Y-211142712D01*
X140948336Y-211150280D01*
X140960159Y-211159048D01*
X140971066Y-211168934D01*
X140980952Y-211179841D01*
X140989720Y-211191664D01*
X140997288Y-211204290D01*
X141003582Y-211217597D01*
X141008541Y-211231457D01*
X141012118Y-211245736D01*
X141014278Y-211260297D01*
X141015000Y-211275000D01*
X141015000Y-213025000D01*
X141014278Y-213039703D01*
X141012118Y-213054264D01*
X141008541Y-213068543D01*
X141003582Y-213082403D01*
X140997288Y-213095710D01*
X140989720Y-213108336D01*
X140980952Y-213120159D01*
X140971066Y-213131066D01*
X140960159Y-213140952D01*
X140948336Y-213149720D01*
X140935710Y-213157288D01*
X140922403Y-213163582D01*
X140908543Y-213168541D01*
X140894264Y-213172118D01*
X140879703Y-213174278D01*
X140865000Y-213175000D01*
X140565000Y-213175000D01*
X140550297Y-213174278D01*
X140535736Y-213172118D01*
X140521457Y-213168541D01*
X140507597Y-213163582D01*
X140494290Y-213157288D01*
X140481664Y-213149720D01*
X140469841Y-213140952D01*
X140458934Y-213131066D01*
X140449048Y-213120159D01*
X140440280Y-213108336D01*
X140432712Y-213095710D01*
X140426418Y-213082403D01*
X140421459Y-213068543D01*
X140417882Y-213054264D01*
X140415722Y-213039703D01*
X140415000Y-213025000D01*
X140415000Y-211275000D01*
X140415722Y-211260297D01*
X140417882Y-211245736D01*
X140421459Y-211231457D01*
X140426418Y-211217597D01*
X140432712Y-211204290D01*
X140440280Y-211191664D01*
X140449048Y-211179841D01*
X140458934Y-211168934D01*
X140469841Y-211159048D01*
X140481664Y-211150280D01*
X140494290Y-211142712D01*
X140507597Y-211136418D01*
X140521457Y-211131459D01*
X140535736Y-211127882D01*
X140550297Y-211125722D01*
X140565000Y-211125000D01*
X140865000Y-211125000D01*
X140879703Y-211125722D01*
G37*
G36*
X142149703Y-211125722D02*
G01*
X142164264Y-211127882D01*
X142178543Y-211131459D01*
X142192403Y-211136418D01*
X142205710Y-211142712D01*
X142218336Y-211150280D01*
X142230159Y-211159048D01*
X142241066Y-211168934D01*
X142250952Y-211179841D01*
X142259720Y-211191664D01*
X142267288Y-211204290D01*
X142273582Y-211217597D01*
X142278541Y-211231457D01*
X142282118Y-211245736D01*
X142284278Y-211260297D01*
X142285000Y-211275000D01*
X142285000Y-213025000D01*
X142284278Y-213039703D01*
X142282118Y-213054264D01*
X142278541Y-213068543D01*
X142273582Y-213082403D01*
X142267288Y-213095710D01*
X142259720Y-213108336D01*
X142250952Y-213120159D01*
X142241066Y-213131066D01*
X142230159Y-213140952D01*
X142218336Y-213149720D01*
X142205710Y-213157288D01*
X142192403Y-213163582D01*
X142178543Y-213168541D01*
X142164264Y-213172118D01*
X142149703Y-213174278D01*
X142135000Y-213175000D01*
X141835000Y-213175000D01*
X141820297Y-213174278D01*
X141805736Y-213172118D01*
X141791457Y-213168541D01*
X141777597Y-213163582D01*
X141764290Y-213157288D01*
X141751664Y-213149720D01*
X141739841Y-213140952D01*
X141728934Y-213131066D01*
X141719048Y-213120159D01*
X141710280Y-213108336D01*
X141702712Y-213095710D01*
X141696418Y-213082403D01*
X141691459Y-213068543D01*
X141687882Y-213054264D01*
X141685722Y-213039703D01*
X141685000Y-213025000D01*
X141685000Y-211275000D01*
X141685722Y-211260297D01*
X141687882Y-211245736D01*
X141691459Y-211231457D01*
X141696418Y-211217597D01*
X141702712Y-211204290D01*
X141710280Y-211191664D01*
X141719048Y-211179841D01*
X141728934Y-211168934D01*
X141739841Y-211159048D01*
X141751664Y-211150280D01*
X141764290Y-211142712D01*
X141777597Y-211136418D01*
X141791457Y-211131459D01*
X141805736Y-211127882D01*
X141820297Y-211125722D01*
X141835000Y-211125000D01*
X142135000Y-211125000D01*
X142149703Y-211125722D01*
G37*
G36*
X143419703Y-211125722D02*
G01*
X143434264Y-211127882D01*
X143448543Y-211131459D01*
X143462403Y-211136418D01*
X143475710Y-211142712D01*
X143488336Y-211150280D01*
X143500159Y-211159048D01*
X143511066Y-211168934D01*
X143520952Y-211179841D01*
X143529720Y-211191664D01*
X143537288Y-211204290D01*
X143543582Y-211217597D01*
X143548541Y-211231457D01*
X143552118Y-211245736D01*
X143554278Y-211260297D01*
X143555000Y-211275000D01*
X143555000Y-213025000D01*
X143554278Y-213039703D01*
X143552118Y-213054264D01*
X143548541Y-213068543D01*
X143543582Y-213082403D01*
X143537288Y-213095710D01*
X143529720Y-213108336D01*
X143520952Y-213120159D01*
X143511066Y-213131066D01*
X143500159Y-213140952D01*
X143488336Y-213149720D01*
X143475710Y-213157288D01*
X143462403Y-213163582D01*
X143448543Y-213168541D01*
X143434264Y-213172118D01*
X143419703Y-213174278D01*
X143405000Y-213175000D01*
X143105000Y-213175000D01*
X143090297Y-213174278D01*
X143075736Y-213172118D01*
X143061457Y-213168541D01*
X143047597Y-213163582D01*
X143034290Y-213157288D01*
X143021664Y-213149720D01*
X143009841Y-213140952D01*
X142998934Y-213131066D01*
X142989048Y-213120159D01*
X142980280Y-213108336D01*
X142972712Y-213095710D01*
X142966418Y-213082403D01*
X142961459Y-213068543D01*
X142957882Y-213054264D01*
X142955722Y-213039703D01*
X142955000Y-213025000D01*
X142955000Y-211275000D01*
X142955722Y-211260297D01*
X142957882Y-211245736D01*
X142961459Y-211231457D01*
X142966418Y-211217597D01*
X142972712Y-211204290D01*
X142980280Y-211191664D01*
X142989048Y-211179841D01*
X142998934Y-211168934D01*
X143009841Y-211159048D01*
X143021664Y-211150280D01*
X143034290Y-211142712D01*
X143047597Y-211136418D01*
X143061457Y-211131459D01*
X143075736Y-211127882D01*
X143090297Y-211125722D01*
X143105000Y-211125000D01*
X143405000Y-211125000D01*
X143419703Y-211125722D01*
G37*
G36*
X143419703Y-201825722D02*
G01*
X143434264Y-201827882D01*
X143448543Y-201831459D01*
X143462403Y-201836418D01*
X143475710Y-201842712D01*
X143488336Y-201850280D01*
X143500159Y-201859048D01*
X143511066Y-201868934D01*
X143520952Y-201879841D01*
X143529720Y-201891664D01*
X143537288Y-201904290D01*
X143543582Y-201917597D01*
X143548541Y-201931457D01*
X143552118Y-201945736D01*
X143554278Y-201960297D01*
X143555000Y-201975000D01*
X143555000Y-203725000D01*
X143554278Y-203739703D01*
X143552118Y-203754264D01*
X143548541Y-203768543D01*
X143543582Y-203782403D01*
X143537288Y-203795710D01*
X143529720Y-203808336D01*
X143520952Y-203820159D01*
X143511066Y-203831066D01*
X143500159Y-203840952D01*
X143488336Y-203849720D01*
X143475710Y-203857288D01*
X143462403Y-203863582D01*
X143448543Y-203868541D01*
X143434264Y-203872118D01*
X143419703Y-203874278D01*
X143405000Y-203875000D01*
X143105000Y-203875000D01*
X143090297Y-203874278D01*
X143075736Y-203872118D01*
X143061457Y-203868541D01*
X143047597Y-203863582D01*
X143034290Y-203857288D01*
X143021664Y-203849720D01*
X143009841Y-203840952D01*
X142998934Y-203831066D01*
X142989048Y-203820159D01*
X142980280Y-203808336D01*
X142972712Y-203795710D01*
X142966418Y-203782403D01*
X142961459Y-203768543D01*
X142957882Y-203754264D01*
X142955722Y-203739703D01*
X142955000Y-203725000D01*
X142955000Y-201975000D01*
X142955722Y-201960297D01*
X142957882Y-201945736D01*
X142961459Y-201931457D01*
X142966418Y-201917597D01*
X142972712Y-201904290D01*
X142980280Y-201891664D01*
X142989048Y-201879841D01*
X142998934Y-201868934D01*
X143009841Y-201859048D01*
X143021664Y-201850280D01*
X143034290Y-201842712D01*
X143047597Y-201836418D01*
X143061457Y-201831459D01*
X143075736Y-201827882D01*
X143090297Y-201825722D01*
X143105000Y-201825000D01*
X143405000Y-201825000D01*
X143419703Y-201825722D01*
G37*
G36*
X142149703Y-201825722D02*
G01*
X142164264Y-201827882D01*
X142178543Y-201831459D01*
X142192403Y-201836418D01*
X142205710Y-201842712D01*
X142218336Y-201850280D01*
X142230159Y-201859048D01*
X142241066Y-201868934D01*
X142250952Y-201879841D01*
X142259720Y-201891664D01*
X142267288Y-201904290D01*
X142273582Y-201917597D01*
X142278541Y-201931457D01*
X142282118Y-201945736D01*
X142284278Y-201960297D01*
X142285000Y-201975000D01*
X142285000Y-203725000D01*
X142284278Y-203739703D01*
X142282118Y-203754264D01*
X142278541Y-203768543D01*
X142273582Y-203782403D01*
X142267288Y-203795710D01*
X142259720Y-203808336D01*
X142250952Y-203820159D01*
X142241066Y-203831066D01*
X142230159Y-203840952D01*
X142218336Y-203849720D01*
X142205710Y-203857288D01*
X142192403Y-203863582D01*
X142178543Y-203868541D01*
X142164264Y-203872118D01*
X142149703Y-203874278D01*
X142135000Y-203875000D01*
X141835000Y-203875000D01*
X141820297Y-203874278D01*
X141805736Y-203872118D01*
X141791457Y-203868541D01*
X141777597Y-203863582D01*
X141764290Y-203857288D01*
X141751664Y-203849720D01*
X141739841Y-203840952D01*
X141728934Y-203831066D01*
X141719048Y-203820159D01*
X141710280Y-203808336D01*
X141702712Y-203795710D01*
X141696418Y-203782403D01*
X141691459Y-203768543D01*
X141687882Y-203754264D01*
X141685722Y-203739703D01*
X141685000Y-203725000D01*
X141685000Y-201975000D01*
X141685722Y-201960297D01*
X141687882Y-201945736D01*
X141691459Y-201931457D01*
X141696418Y-201917597D01*
X141702712Y-201904290D01*
X141710280Y-201891664D01*
X141719048Y-201879841D01*
X141728934Y-201868934D01*
X141739841Y-201859048D01*
X141751664Y-201850280D01*
X141764290Y-201842712D01*
X141777597Y-201836418D01*
X141791457Y-201831459D01*
X141805736Y-201827882D01*
X141820297Y-201825722D01*
X141835000Y-201825000D01*
X142135000Y-201825000D01*
X142149703Y-201825722D01*
G37*
G36*
X140879703Y-201825722D02*
G01*
X140894264Y-201827882D01*
X140908543Y-201831459D01*
X140922403Y-201836418D01*
X140935710Y-201842712D01*
X140948336Y-201850280D01*
X140960159Y-201859048D01*
X140971066Y-201868934D01*
X140980952Y-201879841D01*
X140989720Y-201891664D01*
X140997288Y-201904290D01*
X141003582Y-201917597D01*
X141008541Y-201931457D01*
X141012118Y-201945736D01*
X141014278Y-201960297D01*
X141015000Y-201975000D01*
X141015000Y-203725000D01*
X141014278Y-203739703D01*
X141012118Y-203754264D01*
X141008541Y-203768543D01*
X141003582Y-203782403D01*
X140997288Y-203795710D01*
X140989720Y-203808336D01*
X140980952Y-203820159D01*
X140971066Y-203831066D01*
X140960159Y-203840952D01*
X140948336Y-203849720D01*
X140935710Y-203857288D01*
X140922403Y-203863582D01*
X140908543Y-203868541D01*
X140894264Y-203872118D01*
X140879703Y-203874278D01*
X140865000Y-203875000D01*
X140565000Y-203875000D01*
X140550297Y-203874278D01*
X140535736Y-203872118D01*
X140521457Y-203868541D01*
X140507597Y-203863582D01*
X140494290Y-203857288D01*
X140481664Y-203849720D01*
X140469841Y-203840952D01*
X140458934Y-203831066D01*
X140449048Y-203820159D01*
X140440280Y-203808336D01*
X140432712Y-203795710D01*
X140426418Y-203782403D01*
X140421459Y-203768543D01*
X140417882Y-203754264D01*
X140415722Y-203739703D01*
X140415000Y-203725000D01*
X140415000Y-201975000D01*
X140415722Y-201960297D01*
X140417882Y-201945736D01*
X140421459Y-201931457D01*
X140426418Y-201917597D01*
X140432712Y-201904290D01*
X140440280Y-201891664D01*
X140449048Y-201879841D01*
X140458934Y-201868934D01*
X140469841Y-201859048D01*
X140481664Y-201850280D01*
X140494290Y-201842712D01*
X140507597Y-201836418D01*
X140521457Y-201831459D01*
X140535736Y-201827882D01*
X140550297Y-201825722D01*
X140565000Y-201825000D01*
X140865000Y-201825000D01*
X140879703Y-201825722D01*
G37*
G36*
X139609703Y-201825722D02*
G01*
X139624264Y-201827882D01*
X139638543Y-201831459D01*
X139652403Y-201836418D01*
X139665710Y-201842712D01*
X139678336Y-201850280D01*
X139690159Y-201859048D01*
X139701066Y-201868934D01*
X139710952Y-201879841D01*
X139719720Y-201891664D01*
X139727288Y-201904290D01*
X139733582Y-201917597D01*
X139738541Y-201931457D01*
X139742118Y-201945736D01*
X139744278Y-201960297D01*
X139745000Y-201975000D01*
X139745000Y-203725000D01*
X139744278Y-203739703D01*
X139742118Y-203754264D01*
X139738541Y-203768543D01*
X139733582Y-203782403D01*
X139727288Y-203795710D01*
X139719720Y-203808336D01*
X139710952Y-203820159D01*
X139701066Y-203831066D01*
X139690159Y-203840952D01*
X139678336Y-203849720D01*
X139665710Y-203857288D01*
X139652403Y-203863582D01*
X139638543Y-203868541D01*
X139624264Y-203872118D01*
X139609703Y-203874278D01*
X139595000Y-203875000D01*
X139295000Y-203875000D01*
X139280297Y-203874278D01*
X139265736Y-203872118D01*
X139251457Y-203868541D01*
X139237597Y-203863582D01*
X139224290Y-203857288D01*
X139211664Y-203849720D01*
X139199841Y-203840952D01*
X139188934Y-203831066D01*
X139179048Y-203820159D01*
X139170280Y-203808336D01*
X139162712Y-203795710D01*
X139156418Y-203782403D01*
X139151459Y-203768543D01*
X139147882Y-203754264D01*
X139145722Y-203739703D01*
X139145000Y-203725000D01*
X139145000Y-201975000D01*
X139145722Y-201960297D01*
X139147882Y-201945736D01*
X139151459Y-201931457D01*
X139156418Y-201917597D01*
X139162712Y-201904290D01*
X139170280Y-201891664D01*
X139179048Y-201879841D01*
X139188934Y-201868934D01*
X139199841Y-201859048D01*
X139211664Y-201850280D01*
X139224290Y-201842712D01*
X139237597Y-201836418D01*
X139251457Y-201831459D01*
X139265736Y-201827882D01*
X139280297Y-201825722D01*
X139295000Y-201825000D01*
X139595000Y-201825000D01*
X139609703Y-201825722D01*
G37*
G36*
X138339703Y-201825722D02*
G01*
X138354264Y-201827882D01*
X138368543Y-201831459D01*
X138382403Y-201836418D01*
X138395710Y-201842712D01*
X138408336Y-201850280D01*
X138420159Y-201859048D01*
X138431066Y-201868934D01*
X138440952Y-201879841D01*
X138449720Y-201891664D01*
X138457288Y-201904290D01*
X138463582Y-201917597D01*
X138468541Y-201931457D01*
X138472118Y-201945736D01*
X138474278Y-201960297D01*
X138475000Y-201975000D01*
X138475000Y-203725000D01*
X138474278Y-203739703D01*
X138472118Y-203754264D01*
X138468541Y-203768543D01*
X138463582Y-203782403D01*
X138457288Y-203795710D01*
X138449720Y-203808336D01*
X138440952Y-203820159D01*
X138431066Y-203831066D01*
X138420159Y-203840952D01*
X138408336Y-203849720D01*
X138395710Y-203857288D01*
X138382403Y-203863582D01*
X138368543Y-203868541D01*
X138354264Y-203872118D01*
X138339703Y-203874278D01*
X138325000Y-203875000D01*
X138025000Y-203875000D01*
X138010297Y-203874278D01*
X137995736Y-203872118D01*
X137981457Y-203868541D01*
X137967597Y-203863582D01*
X137954290Y-203857288D01*
X137941664Y-203849720D01*
X137929841Y-203840952D01*
X137918934Y-203831066D01*
X137909048Y-203820159D01*
X137900280Y-203808336D01*
X137892712Y-203795710D01*
X137886418Y-203782403D01*
X137881459Y-203768543D01*
X137877882Y-203754264D01*
X137875722Y-203739703D01*
X137875000Y-203725000D01*
X137875000Y-201975000D01*
X137875722Y-201960297D01*
X137877882Y-201945736D01*
X137881459Y-201931457D01*
X137886418Y-201917597D01*
X137892712Y-201904290D01*
X137900280Y-201891664D01*
X137909048Y-201879841D01*
X137918934Y-201868934D01*
X137929841Y-201859048D01*
X137941664Y-201850280D01*
X137954290Y-201842712D01*
X137967597Y-201836418D01*
X137981457Y-201831459D01*
X137995736Y-201827882D01*
X138010297Y-201825722D01*
X138025000Y-201825000D01*
X138325000Y-201825000D01*
X138339703Y-201825722D01*
G37*
G36*
X137069703Y-201825722D02*
G01*
X137084264Y-201827882D01*
X137098543Y-201831459D01*
X137112403Y-201836418D01*
X137125710Y-201842712D01*
X137138336Y-201850280D01*
X137150159Y-201859048D01*
X137161066Y-201868934D01*
X137170952Y-201879841D01*
X137179720Y-201891664D01*
X137187288Y-201904290D01*
X137193582Y-201917597D01*
X137198541Y-201931457D01*
X137202118Y-201945736D01*
X137204278Y-201960297D01*
X137205000Y-201975000D01*
X137205000Y-203725000D01*
X137204278Y-203739703D01*
X137202118Y-203754264D01*
X137198541Y-203768543D01*
X137193582Y-203782403D01*
X137187288Y-203795710D01*
X137179720Y-203808336D01*
X137170952Y-203820159D01*
X137161066Y-203831066D01*
X137150159Y-203840952D01*
X137138336Y-203849720D01*
X137125710Y-203857288D01*
X137112403Y-203863582D01*
X137098543Y-203868541D01*
X137084264Y-203872118D01*
X137069703Y-203874278D01*
X137055000Y-203875000D01*
X136755000Y-203875000D01*
X136740297Y-203874278D01*
X136725736Y-203872118D01*
X136711457Y-203868541D01*
X136697597Y-203863582D01*
X136684290Y-203857288D01*
X136671664Y-203849720D01*
X136659841Y-203840952D01*
X136648934Y-203831066D01*
X136639048Y-203820159D01*
X136630280Y-203808336D01*
X136622712Y-203795710D01*
X136616418Y-203782403D01*
X136611459Y-203768543D01*
X136607882Y-203754264D01*
X136605722Y-203739703D01*
X136605000Y-203725000D01*
X136605000Y-201975000D01*
X136605722Y-201960297D01*
X136607882Y-201945736D01*
X136611459Y-201931457D01*
X136616418Y-201917597D01*
X136622712Y-201904290D01*
X136630280Y-201891664D01*
X136639048Y-201879841D01*
X136648934Y-201868934D01*
X136659841Y-201859048D01*
X136671664Y-201850280D01*
X136684290Y-201842712D01*
X136697597Y-201836418D01*
X136711457Y-201831459D01*
X136725736Y-201827882D01*
X136740297Y-201825722D01*
X136755000Y-201825000D01*
X137055000Y-201825000D01*
X137069703Y-201825722D01*
G37*
G36*
X135799703Y-201825722D02*
G01*
X135814264Y-201827882D01*
X135828543Y-201831459D01*
X135842403Y-201836418D01*
X135855710Y-201842712D01*
X135868336Y-201850280D01*
X135880159Y-201859048D01*
X135891066Y-201868934D01*
X135900952Y-201879841D01*
X135909720Y-201891664D01*
X135917288Y-201904290D01*
X135923582Y-201917597D01*
X135928541Y-201931457D01*
X135932118Y-201945736D01*
X135934278Y-201960297D01*
X135935000Y-201975000D01*
X135935000Y-203725000D01*
X135934278Y-203739703D01*
X135932118Y-203754264D01*
X135928541Y-203768543D01*
X135923582Y-203782403D01*
X135917288Y-203795710D01*
X135909720Y-203808336D01*
X135900952Y-203820159D01*
X135891066Y-203831066D01*
X135880159Y-203840952D01*
X135868336Y-203849720D01*
X135855710Y-203857288D01*
X135842403Y-203863582D01*
X135828543Y-203868541D01*
X135814264Y-203872118D01*
X135799703Y-203874278D01*
X135785000Y-203875000D01*
X135485000Y-203875000D01*
X135470297Y-203874278D01*
X135455736Y-203872118D01*
X135441457Y-203868541D01*
X135427597Y-203863582D01*
X135414290Y-203857288D01*
X135401664Y-203849720D01*
X135389841Y-203840952D01*
X135378934Y-203831066D01*
X135369048Y-203820159D01*
X135360280Y-203808336D01*
X135352712Y-203795710D01*
X135346418Y-203782403D01*
X135341459Y-203768543D01*
X135337882Y-203754264D01*
X135335722Y-203739703D01*
X135335000Y-203725000D01*
X135335000Y-201975000D01*
X135335722Y-201960297D01*
X135337882Y-201945736D01*
X135341459Y-201931457D01*
X135346418Y-201917597D01*
X135352712Y-201904290D01*
X135360280Y-201891664D01*
X135369048Y-201879841D01*
X135378934Y-201868934D01*
X135389841Y-201859048D01*
X135401664Y-201850280D01*
X135414290Y-201842712D01*
X135427597Y-201836418D01*
X135441457Y-201831459D01*
X135455736Y-201827882D01*
X135470297Y-201825722D01*
X135485000Y-201825000D01*
X135785000Y-201825000D01*
X135799703Y-201825722D01*
G37*
G36*
X134529703Y-201825722D02*
G01*
X134544264Y-201827882D01*
X134558543Y-201831459D01*
X134572403Y-201836418D01*
X134585710Y-201842712D01*
X134598336Y-201850280D01*
X134610159Y-201859048D01*
X134621066Y-201868934D01*
X134630952Y-201879841D01*
X134639720Y-201891664D01*
X134647288Y-201904290D01*
X134653582Y-201917597D01*
X134658541Y-201931457D01*
X134662118Y-201945736D01*
X134664278Y-201960297D01*
X134665000Y-201975000D01*
X134665000Y-203725000D01*
X134664278Y-203739703D01*
X134662118Y-203754264D01*
X134658541Y-203768543D01*
X134653582Y-203782403D01*
X134647288Y-203795710D01*
X134639720Y-203808336D01*
X134630952Y-203820159D01*
X134621066Y-203831066D01*
X134610159Y-203840952D01*
X134598336Y-203849720D01*
X134585710Y-203857288D01*
X134572403Y-203863582D01*
X134558543Y-203868541D01*
X134544264Y-203872118D01*
X134529703Y-203874278D01*
X134515000Y-203875000D01*
X134215000Y-203875000D01*
X134200297Y-203874278D01*
X134185736Y-203872118D01*
X134171457Y-203868541D01*
X134157597Y-203863582D01*
X134144290Y-203857288D01*
X134131664Y-203849720D01*
X134119841Y-203840952D01*
X134108934Y-203831066D01*
X134099048Y-203820159D01*
X134090280Y-203808336D01*
X134082712Y-203795710D01*
X134076418Y-203782403D01*
X134071459Y-203768543D01*
X134067882Y-203754264D01*
X134065722Y-203739703D01*
X134065000Y-203725000D01*
X134065000Y-201975000D01*
X134065722Y-201960297D01*
X134067882Y-201945736D01*
X134071459Y-201931457D01*
X134076418Y-201917597D01*
X134082712Y-201904290D01*
X134090280Y-201891664D01*
X134099048Y-201879841D01*
X134108934Y-201868934D01*
X134119841Y-201859048D01*
X134131664Y-201850280D01*
X134144290Y-201842712D01*
X134157597Y-201836418D01*
X134171457Y-201831459D01*
X134185736Y-201827882D01*
X134200297Y-201825722D01*
X134215000Y-201825000D01*
X134515000Y-201825000D01*
X134529703Y-201825722D01*
G37*
G36*
X133259703Y-201825722D02*
G01*
X133274264Y-201827882D01*
X133288543Y-201831459D01*
X133302403Y-201836418D01*
X133315710Y-201842712D01*
X133328336Y-201850280D01*
X133340159Y-201859048D01*
X133351066Y-201868934D01*
X133360952Y-201879841D01*
X133369720Y-201891664D01*
X133377288Y-201904290D01*
X133383582Y-201917597D01*
X133388541Y-201931457D01*
X133392118Y-201945736D01*
X133394278Y-201960297D01*
X133395000Y-201975000D01*
X133395000Y-203725000D01*
X133394278Y-203739703D01*
X133392118Y-203754264D01*
X133388541Y-203768543D01*
X133383582Y-203782403D01*
X133377288Y-203795710D01*
X133369720Y-203808336D01*
X133360952Y-203820159D01*
X133351066Y-203831066D01*
X133340159Y-203840952D01*
X133328336Y-203849720D01*
X133315710Y-203857288D01*
X133302403Y-203863582D01*
X133288543Y-203868541D01*
X133274264Y-203872118D01*
X133259703Y-203874278D01*
X133245000Y-203875000D01*
X132945000Y-203875000D01*
X132930297Y-203874278D01*
X132915736Y-203872118D01*
X132901457Y-203868541D01*
X132887597Y-203863582D01*
X132874290Y-203857288D01*
X132861664Y-203849720D01*
X132849841Y-203840952D01*
X132838934Y-203831066D01*
X132829048Y-203820159D01*
X132820280Y-203808336D01*
X132812712Y-203795710D01*
X132806418Y-203782403D01*
X132801459Y-203768543D01*
X132797882Y-203754264D01*
X132795722Y-203739703D01*
X132795000Y-203725000D01*
X132795000Y-201975000D01*
X132795722Y-201960297D01*
X132797882Y-201945736D01*
X132801459Y-201931457D01*
X132806418Y-201917597D01*
X132812712Y-201904290D01*
X132820280Y-201891664D01*
X132829048Y-201879841D01*
X132838934Y-201868934D01*
X132849841Y-201859048D01*
X132861664Y-201850280D01*
X132874290Y-201842712D01*
X132887597Y-201836418D01*
X132901457Y-201831459D01*
X132915736Y-201827882D01*
X132930297Y-201825722D01*
X132945000Y-201825000D01*
X133245000Y-201825000D01*
X133259703Y-201825722D01*
G37*
G36*
X131989703Y-201825722D02*
G01*
X132004264Y-201827882D01*
X132018543Y-201831459D01*
X132032403Y-201836418D01*
X132045710Y-201842712D01*
X132058336Y-201850280D01*
X132070159Y-201859048D01*
X132081066Y-201868934D01*
X132090952Y-201879841D01*
X132099720Y-201891664D01*
X132107288Y-201904290D01*
X132113582Y-201917597D01*
X132118541Y-201931457D01*
X132122118Y-201945736D01*
X132124278Y-201960297D01*
X132125000Y-201975000D01*
X132125000Y-203725000D01*
X132124278Y-203739703D01*
X132122118Y-203754264D01*
X132118541Y-203768543D01*
X132113582Y-203782403D01*
X132107288Y-203795710D01*
X132099720Y-203808336D01*
X132090952Y-203820159D01*
X132081066Y-203831066D01*
X132070159Y-203840952D01*
X132058336Y-203849720D01*
X132045710Y-203857288D01*
X132032403Y-203863582D01*
X132018543Y-203868541D01*
X132004264Y-203872118D01*
X131989703Y-203874278D01*
X131975000Y-203875000D01*
X131675000Y-203875000D01*
X131660297Y-203874278D01*
X131645736Y-203872118D01*
X131631457Y-203868541D01*
X131617597Y-203863582D01*
X131604290Y-203857288D01*
X131591664Y-203849720D01*
X131579841Y-203840952D01*
X131568934Y-203831066D01*
X131559048Y-203820159D01*
X131550280Y-203808336D01*
X131542712Y-203795710D01*
X131536418Y-203782403D01*
X131531459Y-203768543D01*
X131527882Y-203754264D01*
X131525722Y-203739703D01*
X131525000Y-203725000D01*
X131525000Y-201975000D01*
X131525722Y-201960297D01*
X131527882Y-201945736D01*
X131531459Y-201931457D01*
X131536418Y-201917597D01*
X131542712Y-201904290D01*
X131550280Y-201891664D01*
X131559048Y-201879841D01*
X131568934Y-201868934D01*
X131579841Y-201859048D01*
X131591664Y-201850280D01*
X131604290Y-201842712D01*
X131617597Y-201836418D01*
X131631457Y-201831459D01*
X131645736Y-201827882D01*
X131660297Y-201825722D01*
X131675000Y-201825000D01*
X131975000Y-201825000D01*
X131989703Y-201825722D01*
G37*
G36*
X130719703Y-201825722D02*
G01*
X130734264Y-201827882D01*
X130748543Y-201831459D01*
X130762403Y-201836418D01*
X130775710Y-201842712D01*
X130788336Y-201850280D01*
X130800159Y-201859048D01*
X130811066Y-201868934D01*
X130820952Y-201879841D01*
X130829720Y-201891664D01*
X130837288Y-201904290D01*
X130843582Y-201917597D01*
X130848541Y-201931457D01*
X130852118Y-201945736D01*
X130854278Y-201960297D01*
X130855000Y-201975000D01*
X130855000Y-203725000D01*
X130854278Y-203739703D01*
X130852118Y-203754264D01*
X130848541Y-203768543D01*
X130843582Y-203782403D01*
X130837288Y-203795710D01*
X130829720Y-203808336D01*
X130820952Y-203820159D01*
X130811066Y-203831066D01*
X130800159Y-203840952D01*
X130788336Y-203849720D01*
X130775710Y-203857288D01*
X130762403Y-203863582D01*
X130748543Y-203868541D01*
X130734264Y-203872118D01*
X130719703Y-203874278D01*
X130705000Y-203875000D01*
X130405000Y-203875000D01*
X130390297Y-203874278D01*
X130375736Y-203872118D01*
X130361457Y-203868541D01*
X130347597Y-203863582D01*
X130334290Y-203857288D01*
X130321664Y-203849720D01*
X130309841Y-203840952D01*
X130298934Y-203831066D01*
X130289048Y-203820159D01*
X130280280Y-203808336D01*
X130272712Y-203795710D01*
X130266418Y-203782403D01*
X130261459Y-203768543D01*
X130257882Y-203754264D01*
X130255722Y-203739703D01*
X130255000Y-203725000D01*
X130255000Y-201975000D01*
X130255722Y-201960297D01*
X130257882Y-201945736D01*
X130261459Y-201931457D01*
X130266418Y-201917597D01*
X130272712Y-201904290D01*
X130280280Y-201891664D01*
X130289048Y-201879841D01*
X130298934Y-201868934D01*
X130309841Y-201859048D01*
X130321664Y-201850280D01*
X130334290Y-201842712D01*
X130347597Y-201836418D01*
X130361457Y-201831459D01*
X130375736Y-201827882D01*
X130390297Y-201825722D01*
X130405000Y-201825000D01*
X130705000Y-201825000D01*
X130719703Y-201825722D01*
G37*
G36*
X129449703Y-201825722D02*
G01*
X129464264Y-201827882D01*
X129478543Y-201831459D01*
X129492403Y-201836418D01*
X129505710Y-201842712D01*
X129518336Y-201850280D01*
X129530159Y-201859048D01*
X129541066Y-201868934D01*
X129550952Y-201879841D01*
X129559720Y-201891664D01*
X129567288Y-201904290D01*
X129573582Y-201917597D01*
X129578541Y-201931457D01*
X129582118Y-201945736D01*
X129584278Y-201960297D01*
X129585000Y-201975000D01*
X129585000Y-203725000D01*
X129584278Y-203739703D01*
X129582118Y-203754264D01*
X129578541Y-203768543D01*
X129573582Y-203782403D01*
X129567288Y-203795710D01*
X129559720Y-203808336D01*
X129550952Y-203820159D01*
X129541066Y-203831066D01*
X129530159Y-203840952D01*
X129518336Y-203849720D01*
X129505710Y-203857288D01*
X129492403Y-203863582D01*
X129478543Y-203868541D01*
X129464264Y-203872118D01*
X129449703Y-203874278D01*
X129435000Y-203875000D01*
X129135000Y-203875000D01*
X129120297Y-203874278D01*
X129105736Y-203872118D01*
X129091457Y-203868541D01*
X129077597Y-203863582D01*
X129064290Y-203857288D01*
X129051664Y-203849720D01*
X129039841Y-203840952D01*
X129028934Y-203831066D01*
X129019048Y-203820159D01*
X129010280Y-203808336D01*
X129002712Y-203795710D01*
X128996418Y-203782403D01*
X128991459Y-203768543D01*
X128987882Y-203754264D01*
X128985722Y-203739703D01*
X128985000Y-203725000D01*
X128985000Y-201975000D01*
X128985722Y-201960297D01*
X128987882Y-201945736D01*
X128991459Y-201931457D01*
X128996418Y-201917597D01*
X129002712Y-201904290D01*
X129010280Y-201891664D01*
X129019048Y-201879841D01*
X129028934Y-201868934D01*
X129039841Y-201859048D01*
X129051664Y-201850280D01*
X129064290Y-201842712D01*
X129077597Y-201836418D01*
X129091457Y-201831459D01*
X129105736Y-201827882D01*
X129120297Y-201825722D01*
X129135000Y-201825000D01*
X129435000Y-201825000D01*
X129449703Y-201825722D01*
G37*
G36*
X128179703Y-201825722D02*
G01*
X128194264Y-201827882D01*
X128208543Y-201831459D01*
X128222403Y-201836418D01*
X128235710Y-201842712D01*
X128248336Y-201850280D01*
X128260159Y-201859048D01*
X128271066Y-201868934D01*
X128280952Y-201879841D01*
X128289720Y-201891664D01*
X128297288Y-201904290D01*
X128303582Y-201917597D01*
X128308541Y-201931457D01*
X128312118Y-201945736D01*
X128314278Y-201960297D01*
X128315000Y-201975000D01*
X128315000Y-203725000D01*
X128314278Y-203739703D01*
X128312118Y-203754264D01*
X128308541Y-203768543D01*
X128303582Y-203782403D01*
X128297288Y-203795710D01*
X128289720Y-203808336D01*
X128280952Y-203820159D01*
X128271066Y-203831066D01*
X128260159Y-203840952D01*
X128248336Y-203849720D01*
X128235710Y-203857288D01*
X128222403Y-203863582D01*
X128208543Y-203868541D01*
X128194264Y-203872118D01*
X128179703Y-203874278D01*
X128165000Y-203875000D01*
X127865000Y-203875000D01*
X127850297Y-203874278D01*
X127835736Y-203872118D01*
X127821457Y-203868541D01*
X127807597Y-203863582D01*
X127794290Y-203857288D01*
X127781664Y-203849720D01*
X127769841Y-203840952D01*
X127758934Y-203831066D01*
X127749048Y-203820159D01*
X127740280Y-203808336D01*
X127732712Y-203795710D01*
X127726418Y-203782403D01*
X127721459Y-203768543D01*
X127717882Y-203754264D01*
X127715722Y-203739703D01*
X127715000Y-203725000D01*
X127715000Y-201975000D01*
X127715722Y-201960297D01*
X127717882Y-201945736D01*
X127721459Y-201931457D01*
X127726418Y-201917597D01*
X127732712Y-201904290D01*
X127740280Y-201891664D01*
X127749048Y-201879841D01*
X127758934Y-201868934D01*
X127769841Y-201859048D01*
X127781664Y-201850280D01*
X127794290Y-201842712D01*
X127807597Y-201836418D01*
X127821457Y-201831459D01*
X127835736Y-201827882D01*
X127850297Y-201825722D01*
X127865000Y-201825000D01*
X128165000Y-201825000D01*
X128179703Y-201825722D01*
G37*
G36*
X126909703Y-201825722D02*
G01*
X126924264Y-201827882D01*
X126938543Y-201831459D01*
X126952403Y-201836418D01*
X126965710Y-201842712D01*
X126978336Y-201850280D01*
X126990159Y-201859048D01*
X127001066Y-201868934D01*
X127010952Y-201879841D01*
X127019720Y-201891664D01*
X127027288Y-201904290D01*
X127033582Y-201917597D01*
X127038541Y-201931457D01*
X127042118Y-201945736D01*
X127044278Y-201960297D01*
X127045000Y-201975000D01*
X127045000Y-203725000D01*
X127044278Y-203739703D01*
X127042118Y-203754264D01*
X127038541Y-203768543D01*
X127033582Y-203782403D01*
X127027288Y-203795710D01*
X127019720Y-203808336D01*
X127010952Y-203820159D01*
X127001066Y-203831066D01*
X126990159Y-203840952D01*
X126978336Y-203849720D01*
X126965710Y-203857288D01*
X126952403Y-203863582D01*
X126938543Y-203868541D01*
X126924264Y-203872118D01*
X126909703Y-203874278D01*
X126895000Y-203875000D01*
X126595000Y-203875000D01*
X126580297Y-203874278D01*
X126565736Y-203872118D01*
X126551457Y-203868541D01*
X126537597Y-203863582D01*
X126524290Y-203857288D01*
X126511664Y-203849720D01*
X126499841Y-203840952D01*
X126488934Y-203831066D01*
X126479048Y-203820159D01*
X126470280Y-203808336D01*
X126462712Y-203795710D01*
X126456418Y-203782403D01*
X126451459Y-203768543D01*
X126447882Y-203754264D01*
X126445722Y-203739703D01*
X126445000Y-203725000D01*
X126445000Y-201975000D01*
X126445722Y-201960297D01*
X126447882Y-201945736D01*
X126451459Y-201931457D01*
X126456418Y-201917597D01*
X126462712Y-201904290D01*
X126470280Y-201891664D01*
X126479048Y-201879841D01*
X126488934Y-201868934D01*
X126499841Y-201859048D01*
X126511664Y-201850280D01*
X126524290Y-201842712D01*
X126537597Y-201836418D01*
X126551457Y-201831459D01*
X126565736Y-201827882D01*
X126580297Y-201825722D01*
X126595000Y-201825000D01*
X126895000Y-201825000D01*
X126909703Y-201825722D01*
G37*
G36*
X68039703Y-126445722D02*
G01*
X68054264Y-126447882D01*
X68068543Y-126451459D01*
X68082403Y-126456418D01*
X68095710Y-126462712D01*
X68108336Y-126470280D01*
X68120159Y-126479048D01*
X68131066Y-126488934D01*
X68140952Y-126499841D01*
X68149720Y-126511664D01*
X68157288Y-126524290D01*
X68163582Y-126537597D01*
X68168541Y-126551457D01*
X68172118Y-126565736D01*
X68174278Y-126580297D01*
X68175000Y-126595000D01*
X68175000Y-126895000D01*
X68174278Y-126909703D01*
X68172118Y-126924264D01*
X68168541Y-126938543D01*
X68163582Y-126952403D01*
X68157288Y-126965710D01*
X68149720Y-126978336D01*
X68140952Y-126990159D01*
X68131066Y-127001066D01*
X68120159Y-127010952D01*
X68108336Y-127019720D01*
X68095710Y-127027288D01*
X68082403Y-127033582D01*
X68068543Y-127038541D01*
X68054264Y-127042118D01*
X68039703Y-127044278D01*
X68025000Y-127045000D01*
X66275000Y-127045000D01*
X66260297Y-127044278D01*
X66245736Y-127042118D01*
X66231457Y-127038541D01*
X66217597Y-127033582D01*
X66204290Y-127027288D01*
X66191664Y-127019720D01*
X66179841Y-127010952D01*
X66168934Y-127001066D01*
X66159048Y-126990159D01*
X66150280Y-126978336D01*
X66142712Y-126965710D01*
X66136418Y-126952403D01*
X66131459Y-126938543D01*
X66127882Y-126924264D01*
X66125722Y-126909703D01*
X66125000Y-126895000D01*
X66125000Y-126595000D01*
X66125722Y-126580297D01*
X66127882Y-126565736D01*
X66131459Y-126551457D01*
X66136418Y-126537597D01*
X66142712Y-126524290D01*
X66150280Y-126511664D01*
X66159048Y-126499841D01*
X66168934Y-126488934D01*
X66179841Y-126479048D01*
X66191664Y-126470280D01*
X66204290Y-126462712D01*
X66217597Y-126456418D01*
X66231457Y-126451459D01*
X66245736Y-126447882D01*
X66260297Y-126445722D01*
X66275000Y-126445000D01*
X68025000Y-126445000D01*
X68039703Y-126445722D01*
G37*
G36*
X68039703Y-127715722D02*
G01*
X68054264Y-127717882D01*
X68068543Y-127721459D01*
X68082403Y-127726418D01*
X68095710Y-127732712D01*
X68108336Y-127740280D01*
X68120159Y-127749048D01*
X68131066Y-127758934D01*
X68140952Y-127769841D01*
X68149720Y-127781664D01*
X68157288Y-127794290D01*
X68163582Y-127807597D01*
X68168541Y-127821457D01*
X68172118Y-127835736D01*
X68174278Y-127850297D01*
X68175000Y-127865000D01*
X68175000Y-128165000D01*
X68174278Y-128179703D01*
X68172118Y-128194264D01*
X68168541Y-128208543D01*
X68163582Y-128222403D01*
X68157288Y-128235710D01*
X68149720Y-128248336D01*
X68140952Y-128260159D01*
X68131066Y-128271066D01*
X68120159Y-128280952D01*
X68108336Y-128289720D01*
X68095710Y-128297288D01*
X68082403Y-128303582D01*
X68068543Y-128308541D01*
X68054264Y-128312118D01*
X68039703Y-128314278D01*
X68025000Y-128315000D01*
X66275000Y-128315000D01*
X66260297Y-128314278D01*
X66245736Y-128312118D01*
X66231457Y-128308541D01*
X66217597Y-128303582D01*
X66204290Y-128297288D01*
X66191664Y-128289720D01*
X66179841Y-128280952D01*
X66168934Y-128271066D01*
X66159048Y-128260159D01*
X66150280Y-128248336D01*
X66142712Y-128235710D01*
X66136418Y-128222403D01*
X66131459Y-128208543D01*
X66127882Y-128194264D01*
X66125722Y-128179703D01*
X66125000Y-128165000D01*
X66125000Y-127865000D01*
X66125722Y-127850297D01*
X66127882Y-127835736D01*
X66131459Y-127821457D01*
X66136418Y-127807597D01*
X66142712Y-127794290D01*
X66150280Y-127781664D01*
X66159048Y-127769841D01*
X66168934Y-127758934D01*
X66179841Y-127749048D01*
X66191664Y-127740280D01*
X66204290Y-127732712D01*
X66217597Y-127726418D01*
X66231457Y-127721459D01*
X66245736Y-127717882D01*
X66260297Y-127715722D01*
X66275000Y-127715000D01*
X68025000Y-127715000D01*
X68039703Y-127715722D01*
G37*
G36*
X68039703Y-128985722D02*
G01*
X68054264Y-128987882D01*
X68068543Y-128991459D01*
X68082403Y-128996418D01*
X68095710Y-129002712D01*
X68108336Y-129010280D01*
X68120159Y-129019048D01*
X68131066Y-129028934D01*
X68140952Y-129039841D01*
X68149720Y-129051664D01*
X68157288Y-129064290D01*
X68163582Y-129077597D01*
X68168541Y-129091457D01*
X68172118Y-129105736D01*
X68174278Y-129120297D01*
X68175000Y-129135000D01*
X68175000Y-129435000D01*
X68174278Y-129449703D01*
X68172118Y-129464264D01*
X68168541Y-129478543D01*
X68163582Y-129492403D01*
X68157288Y-129505710D01*
X68149720Y-129518336D01*
X68140952Y-129530159D01*
X68131066Y-129541066D01*
X68120159Y-129550952D01*
X68108336Y-129559720D01*
X68095710Y-129567288D01*
X68082403Y-129573582D01*
X68068543Y-129578541D01*
X68054264Y-129582118D01*
X68039703Y-129584278D01*
X68025000Y-129585000D01*
X66275000Y-129585000D01*
X66260297Y-129584278D01*
X66245736Y-129582118D01*
X66231457Y-129578541D01*
X66217597Y-129573582D01*
X66204290Y-129567288D01*
X66191664Y-129559720D01*
X66179841Y-129550952D01*
X66168934Y-129541066D01*
X66159048Y-129530159D01*
X66150280Y-129518336D01*
X66142712Y-129505710D01*
X66136418Y-129492403D01*
X66131459Y-129478543D01*
X66127882Y-129464264D01*
X66125722Y-129449703D01*
X66125000Y-129435000D01*
X66125000Y-129135000D01*
X66125722Y-129120297D01*
X66127882Y-129105736D01*
X66131459Y-129091457D01*
X66136418Y-129077597D01*
X66142712Y-129064290D01*
X66150280Y-129051664D01*
X66159048Y-129039841D01*
X66168934Y-129028934D01*
X66179841Y-129019048D01*
X66191664Y-129010280D01*
X66204290Y-129002712D01*
X66217597Y-128996418D01*
X66231457Y-128991459D01*
X66245736Y-128987882D01*
X66260297Y-128985722D01*
X66275000Y-128985000D01*
X68025000Y-128985000D01*
X68039703Y-128985722D01*
G37*
G36*
X68039703Y-130255722D02*
G01*
X68054264Y-130257882D01*
X68068543Y-130261459D01*
X68082403Y-130266418D01*
X68095710Y-130272712D01*
X68108336Y-130280280D01*
X68120159Y-130289048D01*
X68131066Y-130298934D01*
X68140952Y-130309841D01*
X68149720Y-130321664D01*
X68157288Y-130334290D01*
X68163582Y-130347597D01*
X68168541Y-130361457D01*
X68172118Y-130375736D01*
X68174278Y-130390297D01*
X68175000Y-130405000D01*
X68175000Y-130705000D01*
X68174278Y-130719703D01*
X68172118Y-130734264D01*
X68168541Y-130748543D01*
X68163582Y-130762403D01*
X68157288Y-130775710D01*
X68149720Y-130788336D01*
X68140952Y-130800159D01*
X68131066Y-130811066D01*
X68120159Y-130820952D01*
X68108336Y-130829720D01*
X68095710Y-130837288D01*
X68082403Y-130843582D01*
X68068543Y-130848541D01*
X68054264Y-130852118D01*
X68039703Y-130854278D01*
X68025000Y-130855000D01*
X66275000Y-130855000D01*
X66260297Y-130854278D01*
X66245736Y-130852118D01*
X66231457Y-130848541D01*
X66217597Y-130843582D01*
X66204290Y-130837288D01*
X66191664Y-130829720D01*
X66179841Y-130820952D01*
X66168934Y-130811066D01*
X66159048Y-130800159D01*
X66150280Y-130788336D01*
X66142712Y-130775710D01*
X66136418Y-130762403D01*
X66131459Y-130748543D01*
X66127882Y-130734264D01*
X66125722Y-130719703D01*
X66125000Y-130705000D01*
X66125000Y-130405000D01*
X66125722Y-130390297D01*
X66127882Y-130375736D01*
X66131459Y-130361457D01*
X66136418Y-130347597D01*
X66142712Y-130334290D01*
X66150280Y-130321664D01*
X66159048Y-130309841D01*
X66168934Y-130298934D01*
X66179841Y-130289048D01*
X66191664Y-130280280D01*
X66204290Y-130272712D01*
X66217597Y-130266418D01*
X66231457Y-130261459D01*
X66245736Y-130257882D01*
X66260297Y-130255722D01*
X66275000Y-130255000D01*
X68025000Y-130255000D01*
X68039703Y-130255722D01*
G37*
G36*
X68039703Y-131525722D02*
G01*
X68054264Y-131527882D01*
X68068543Y-131531459D01*
X68082403Y-131536418D01*
X68095710Y-131542712D01*
X68108336Y-131550280D01*
X68120159Y-131559048D01*
X68131066Y-131568934D01*
X68140952Y-131579841D01*
X68149720Y-131591664D01*
X68157288Y-131604290D01*
X68163582Y-131617597D01*
X68168541Y-131631457D01*
X68172118Y-131645736D01*
X68174278Y-131660297D01*
X68175000Y-131675000D01*
X68175000Y-131975000D01*
X68174278Y-131989703D01*
X68172118Y-132004264D01*
X68168541Y-132018543D01*
X68163582Y-132032403D01*
X68157288Y-132045710D01*
X68149720Y-132058336D01*
X68140952Y-132070159D01*
X68131066Y-132081066D01*
X68120159Y-132090952D01*
X68108336Y-132099720D01*
X68095710Y-132107288D01*
X68082403Y-132113582D01*
X68068543Y-132118541D01*
X68054264Y-132122118D01*
X68039703Y-132124278D01*
X68025000Y-132125000D01*
X66275000Y-132125000D01*
X66260297Y-132124278D01*
X66245736Y-132122118D01*
X66231457Y-132118541D01*
X66217597Y-132113582D01*
X66204290Y-132107288D01*
X66191664Y-132099720D01*
X66179841Y-132090952D01*
X66168934Y-132081066D01*
X66159048Y-132070159D01*
X66150280Y-132058336D01*
X66142712Y-132045710D01*
X66136418Y-132032403D01*
X66131459Y-132018543D01*
X66127882Y-132004264D01*
X66125722Y-131989703D01*
X66125000Y-131975000D01*
X66125000Y-131675000D01*
X66125722Y-131660297D01*
X66127882Y-131645736D01*
X66131459Y-131631457D01*
X66136418Y-131617597D01*
X66142712Y-131604290D01*
X66150280Y-131591664D01*
X66159048Y-131579841D01*
X66168934Y-131568934D01*
X66179841Y-131559048D01*
X66191664Y-131550280D01*
X66204290Y-131542712D01*
X66217597Y-131536418D01*
X66231457Y-131531459D01*
X66245736Y-131527882D01*
X66260297Y-131525722D01*
X66275000Y-131525000D01*
X68025000Y-131525000D01*
X68039703Y-131525722D01*
G37*
G36*
X68039703Y-132795722D02*
G01*
X68054264Y-132797882D01*
X68068543Y-132801459D01*
X68082403Y-132806418D01*
X68095710Y-132812712D01*
X68108336Y-132820280D01*
X68120159Y-132829048D01*
X68131066Y-132838934D01*
X68140952Y-132849841D01*
X68149720Y-132861664D01*
X68157288Y-132874290D01*
X68163582Y-132887597D01*
X68168541Y-132901457D01*
X68172118Y-132915736D01*
X68174278Y-132930297D01*
X68175000Y-132945000D01*
X68175000Y-133245000D01*
X68174278Y-133259703D01*
X68172118Y-133274264D01*
X68168541Y-133288543D01*
X68163582Y-133302403D01*
X68157288Y-133315710D01*
X68149720Y-133328336D01*
X68140952Y-133340159D01*
X68131066Y-133351066D01*
X68120159Y-133360952D01*
X68108336Y-133369720D01*
X68095710Y-133377288D01*
X68082403Y-133383582D01*
X68068543Y-133388541D01*
X68054264Y-133392118D01*
X68039703Y-133394278D01*
X68025000Y-133395000D01*
X66275000Y-133395000D01*
X66260297Y-133394278D01*
X66245736Y-133392118D01*
X66231457Y-133388541D01*
X66217597Y-133383582D01*
X66204290Y-133377288D01*
X66191664Y-133369720D01*
X66179841Y-133360952D01*
X66168934Y-133351066D01*
X66159048Y-133340159D01*
X66150280Y-133328336D01*
X66142712Y-133315710D01*
X66136418Y-133302403D01*
X66131459Y-133288543D01*
X66127882Y-133274264D01*
X66125722Y-133259703D01*
X66125000Y-133245000D01*
X66125000Y-132945000D01*
X66125722Y-132930297D01*
X66127882Y-132915736D01*
X66131459Y-132901457D01*
X66136418Y-132887597D01*
X66142712Y-132874290D01*
X66150280Y-132861664D01*
X66159048Y-132849841D01*
X66168934Y-132838934D01*
X66179841Y-132829048D01*
X66191664Y-132820280D01*
X66204290Y-132812712D01*
X66217597Y-132806418D01*
X66231457Y-132801459D01*
X66245736Y-132797882D01*
X66260297Y-132795722D01*
X66275000Y-132795000D01*
X68025000Y-132795000D01*
X68039703Y-132795722D01*
G37*
G36*
X68039703Y-134065722D02*
G01*
X68054264Y-134067882D01*
X68068543Y-134071459D01*
X68082403Y-134076418D01*
X68095710Y-134082712D01*
X68108336Y-134090280D01*
X68120159Y-134099048D01*
X68131066Y-134108934D01*
X68140952Y-134119841D01*
X68149720Y-134131664D01*
X68157288Y-134144290D01*
X68163582Y-134157597D01*
X68168541Y-134171457D01*
X68172118Y-134185736D01*
X68174278Y-134200297D01*
X68175000Y-134215000D01*
X68175000Y-134515000D01*
X68174278Y-134529703D01*
X68172118Y-134544264D01*
X68168541Y-134558543D01*
X68163582Y-134572403D01*
X68157288Y-134585710D01*
X68149720Y-134598336D01*
X68140952Y-134610159D01*
X68131066Y-134621066D01*
X68120159Y-134630952D01*
X68108336Y-134639720D01*
X68095710Y-134647288D01*
X68082403Y-134653582D01*
X68068543Y-134658541D01*
X68054264Y-134662118D01*
X68039703Y-134664278D01*
X68025000Y-134665000D01*
X66275000Y-134665000D01*
X66260297Y-134664278D01*
X66245736Y-134662118D01*
X66231457Y-134658541D01*
X66217597Y-134653582D01*
X66204290Y-134647288D01*
X66191664Y-134639720D01*
X66179841Y-134630952D01*
X66168934Y-134621066D01*
X66159048Y-134610159D01*
X66150280Y-134598336D01*
X66142712Y-134585710D01*
X66136418Y-134572403D01*
X66131459Y-134558543D01*
X66127882Y-134544264D01*
X66125722Y-134529703D01*
X66125000Y-134515000D01*
X66125000Y-134215000D01*
X66125722Y-134200297D01*
X66127882Y-134185736D01*
X66131459Y-134171457D01*
X66136418Y-134157597D01*
X66142712Y-134144290D01*
X66150280Y-134131664D01*
X66159048Y-134119841D01*
X66168934Y-134108934D01*
X66179841Y-134099048D01*
X66191664Y-134090280D01*
X66204290Y-134082712D01*
X66217597Y-134076418D01*
X66231457Y-134071459D01*
X66245736Y-134067882D01*
X66260297Y-134065722D01*
X66275000Y-134065000D01*
X68025000Y-134065000D01*
X68039703Y-134065722D01*
G37*
G36*
X68039703Y-135335722D02*
G01*
X68054264Y-135337882D01*
X68068543Y-135341459D01*
X68082403Y-135346418D01*
X68095710Y-135352712D01*
X68108336Y-135360280D01*
X68120159Y-135369048D01*
X68131066Y-135378934D01*
X68140952Y-135389841D01*
X68149720Y-135401664D01*
X68157288Y-135414290D01*
X68163582Y-135427597D01*
X68168541Y-135441457D01*
X68172118Y-135455736D01*
X68174278Y-135470297D01*
X68175000Y-135485000D01*
X68175000Y-135785000D01*
X68174278Y-135799703D01*
X68172118Y-135814264D01*
X68168541Y-135828543D01*
X68163582Y-135842403D01*
X68157288Y-135855710D01*
X68149720Y-135868336D01*
X68140952Y-135880159D01*
X68131066Y-135891066D01*
X68120159Y-135900952D01*
X68108336Y-135909720D01*
X68095710Y-135917288D01*
X68082403Y-135923582D01*
X68068543Y-135928541D01*
X68054264Y-135932118D01*
X68039703Y-135934278D01*
X68025000Y-135935000D01*
X66275000Y-135935000D01*
X66260297Y-135934278D01*
X66245736Y-135932118D01*
X66231457Y-135928541D01*
X66217597Y-135923582D01*
X66204290Y-135917288D01*
X66191664Y-135909720D01*
X66179841Y-135900952D01*
X66168934Y-135891066D01*
X66159048Y-135880159D01*
X66150280Y-135868336D01*
X66142712Y-135855710D01*
X66136418Y-135842403D01*
X66131459Y-135828543D01*
X66127882Y-135814264D01*
X66125722Y-135799703D01*
X66125000Y-135785000D01*
X66125000Y-135485000D01*
X66125722Y-135470297D01*
X66127882Y-135455736D01*
X66131459Y-135441457D01*
X66136418Y-135427597D01*
X66142712Y-135414290D01*
X66150280Y-135401664D01*
X66159048Y-135389841D01*
X66168934Y-135378934D01*
X66179841Y-135369048D01*
X66191664Y-135360280D01*
X66204290Y-135352712D01*
X66217597Y-135346418D01*
X66231457Y-135341459D01*
X66245736Y-135337882D01*
X66260297Y-135335722D01*
X66275000Y-135335000D01*
X68025000Y-135335000D01*
X68039703Y-135335722D01*
G37*
G36*
X68039703Y-136605722D02*
G01*
X68054264Y-136607882D01*
X68068543Y-136611459D01*
X68082403Y-136616418D01*
X68095710Y-136622712D01*
X68108336Y-136630280D01*
X68120159Y-136639048D01*
X68131066Y-136648934D01*
X68140952Y-136659841D01*
X68149720Y-136671664D01*
X68157288Y-136684290D01*
X68163582Y-136697597D01*
X68168541Y-136711457D01*
X68172118Y-136725736D01*
X68174278Y-136740297D01*
X68175000Y-136755000D01*
X68175000Y-137055000D01*
X68174278Y-137069703D01*
X68172118Y-137084264D01*
X68168541Y-137098543D01*
X68163582Y-137112403D01*
X68157288Y-137125710D01*
X68149720Y-137138336D01*
X68140952Y-137150159D01*
X68131066Y-137161066D01*
X68120159Y-137170952D01*
X68108336Y-137179720D01*
X68095710Y-137187288D01*
X68082403Y-137193582D01*
X68068543Y-137198541D01*
X68054264Y-137202118D01*
X68039703Y-137204278D01*
X68025000Y-137205000D01*
X66275000Y-137205000D01*
X66260297Y-137204278D01*
X66245736Y-137202118D01*
X66231457Y-137198541D01*
X66217597Y-137193582D01*
X66204290Y-137187288D01*
X66191664Y-137179720D01*
X66179841Y-137170952D01*
X66168934Y-137161066D01*
X66159048Y-137150159D01*
X66150280Y-137138336D01*
X66142712Y-137125710D01*
X66136418Y-137112403D01*
X66131459Y-137098543D01*
X66127882Y-137084264D01*
X66125722Y-137069703D01*
X66125000Y-137055000D01*
X66125000Y-136755000D01*
X66125722Y-136740297D01*
X66127882Y-136725736D01*
X66131459Y-136711457D01*
X66136418Y-136697597D01*
X66142712Y-136684290D01*
X66150280Y-136671664D01*
X66159048Y-136659841D01*
X66168934Y-136648934D01*
X66179841Y-136639048D01*
X66191664Y-136630280D01*
X66204290Y-136622712D01*
X66217597Y-136616418D01*
X66231457Y-136611459D01*
X66245736Y-136607882D01*
X66260297Y-136605722D01*
X66275000Y-136605000D01*
X68025000Y-136605000D01*
X68039703Y-136605722D01*
G37*
G36*
X68039703Y-137875722D02*
G01*
X68054264Y-137877882D01*
X68068543Y-137881459D01*
X68082403Y-137886418D01*
X68095710Y-137892712D01*
X68108336Y-137900280D01*
X68120159Y-137909048D01*
X68131066Y-137918934D01*
X68140952Y-137929841D01*
X68149720Y-137941664D01*
X68157288Y-137954290D01*
X68163582Y-137967597D01*
X68168541Y-137981457D01*
X68172118Y-137995736D01*
X68174278Y-138010297D01*
X68175000Y-138025000D01*
X68175000Y-138325000D01*
X68174278Y-138339703D01*
X68172118Y-138354264D01*
X68168541Y-138368543D01*
X68163582Y-138382403D01*
X68157288Y-138395710D01*
X68149720Y-138408336D01*
X68140952Y-138420159D01*
X68131066Y-138431066D01*
X68120159Y-138440952D01*
X68108336Y-138449720D01*
X68095710Y-138457288D01*
X68082403Y-138463582D01*
X68068543Y-138468541D01*
X68054264Y-138472118D01*
X68039703Y-138474278D01*
X68025000Y-138475000D01*
X66275000Y-138475000D01*
X66260297Y-138474278D01*
X66245736Y-138472118D01*
X66231457Y-138468541D01*
X66217597Y-138463582D01*
X66204290Y-138457288D01*
X66191664Y-138449720D01*
X66179841Y-138440952D01*
X66168934Y-138431066D01*
X66159048Y-138420159D01*
X66150280Y-138408336D01*
X66142712Y-138395710D01*
X66136418Y-138382403D01*
X66131459Y-138368543D01*
X66127882Y-138354264D01*
X66125722Y-138339703D01*
X66125000Y-138325000D01*
X66125000Y-138025000D01*
X66125722Y-138010297D01*
X66127882Y-137995736D01*
X66131459Y-137981457D01*
X66136418Y-137967597D01*
X66142712Y-137954290D01*
X66150280Y-137941664D01*
X66159048Y-137929841D01*
X66168934Y-137918934D01*
X66179841Y-137909048D01*
X66191664Y-137900280D01*
X66204290Y-137892712D01*
X66217597Y-137886418D01*
X66231457Y-137881459D01*
X66245736Y-137877882D01*
X66260297Y-137875722D01*
X66275000Y-137875000D01*
X68025000Y-137875000D01*
X68039703Y-137875722D01*
G37*
G36*
X68039703Y-139145722D02*
G01*
X68054264Y-139147882D01*
X68068543Y-139151459D01*
X68082403Y-139156418D01*
X68095710Y-139162712D01*
X68108336Y-139170280D01*
X68120159Y-139179048D01*
X68131066Y-139188934D01*
X68140952Y-139199841D01*
X68149720Y-139211664D01*
X68157288Y-139224290D01*
X68163582Y-139237597D01*
X68168541Y-139251457D01*
X68172118Y-139265736D01*
X68174278Y-139280297D01*
X68175000Y-139295000D01*
X68175000Y-139595000D01*
X68174278Y-139609703D01*
X68172118Y-139624264D01*
X68168541Y-139638543D01*
X68163582Y-139652403D01*
X68157288Y-139665710D01*
X68149720Y-139678336D01*
X68140952Y-139690159D01*
X68131066Y-139701066D01*
X68120159Y-139710952D01*
X68108336Y-139719720D01*
X68095710Y-139727288D01*
X68082403Y-139733582D01*
X68068543Y-139738541D01*
X68054264Y-139742118D01*
X68039703Y-139744278D01*
X68025000Y-139745000D01*
X66275000Y-139745000D01*
X66260297Y-139744278D01*
X66245736Y-139742118D01*
X66231457Y-139738541D01*
X66217597Y-139733582D01*
X66204290Y-139727288D01*
X66191664Y-139719720D01*
X66179841Y-139710952D01*
X66168934Y-139701066D01*
X66159048Y-139690159D01*
X66150280Y-139678336D01*
X66142712Y-139665710D01*
X66136418Y-139652403D01*
X66131459Y-139638543D01*
X66127882Y-139624264D01*
X66125722Y-139609703D01*
X66125000Y-139595000D01*
X66125000Y-139295000D01*
X66125722Y-139280297D01*
X66127882Y-139265736D01*
X66131459Y-139251457D01*
X66136418Y-139237597D01*
X66142712Y-139224290D01*
X66150280Y-139211664D01*
X66159048Y-139199841D01*
X66168934Y-139188934D01*
X66179841Y-139179048D01*
X66191664Y-139170280D01*
X66204290Y-139162712D01*
X66217597Y-139156418D01*
X66231457Y-139151459D01*
X66245736Y-139147882D01*
X66260297Y-139145722D01*
X66275000Y-139145000D01*
X68025000Y-139145000D01*
X68039703Y-139145722D01*
G37*
G36*
X68039703Y-140415722D02*
G01*
X68054264Y-140417882D01*
X68068543Y-140421459D01*
X68082403Y-140426418D01*
X68095710Y-140432712D01*
X68108336Y-140440280D01*
X68120159Y-140449048D01*
X68131066Y-140458934D01*
X68140952Y-140469841D01*
X68149720Y-140481664D01*
X68157288Y-140494290D01*
X68163582Y-140507597D01*
X68168541Y-140521457D01*
X68172118Y-140535736D01*
X68174278Y-140550297D01*
X68175000Y-140565000D01*
X68175000Y-140865000D01*
X68174278Y-140879703D01*
X68172118Y-140894264D01*
X68168541Y-140908543D01*
X68163582Y-140922403D01*
X68157288Y-140935710D01*
X68149720Y-140948336D01*
X68140952Y-140960159D01*
X68131066Y-140971066D01*
X68120159Y-140980952D01*
X68108336Y-140989720D01*
X68095710Y-140997288D01*
X68082403Y-141003582D01*
X68068543Y-141008541D01*
X68054264Y-141012118D01*
X68039703Y-141014278D01*
X68025000Y-141015000D01*
X66275000Y-141015000D01*
X66260297Y-141014278D01*
X66245736Y-141012118D01*
X66231457Y-141008541D01*
X66217597Y-141003582D01*
X66204290Y-140997288D01*
X66191664Y-140989720D01*
X66179841Y-140980952D01*
X66168934Y-140971066D01*
X66159048Y-140960159D01*
X66150280Y-140948336D01*
X66142712Y-140935710D01*
X66136418Y-140922403D01*
X66131459Y-140908543D01*
X66127882Y-140894264D01*
X66125722Y-140879703D01*
X66125000Y-140865000D01*
X66125000Y-140565000D01*
X66125722Y-140550297D01*
X66127882Y-140535736D01*
X66131459Y-140521457D01*
X66136418Y-140507597D01*
X66142712Y-140494290D01*
X66150280Y-140481664D01*
X66159048Y-140469841D01*
X66168934Y-140458934D01*
X66179841Y-140449048D01*
X66191664Y-140440280D01*
X66204290Y-140432712D01*
X66217597Y-140426418D01*
X66231457Y-140421459D01*
X66245736Y-140417882D01*
X66260297Y-140415722D01*
X66275000Y-140415000D01*
X68025000Y-140415000D01*
X68039703Y-140415722D01*
G37*
G36*
X68039703Y-141685722D02*
G01*
X68054264Y-141687882D01*
X68068543Y-141691459D01*
X68082403Y-141696418D01*
X68095710Y-141702712D01*
X68108336Y-141710280D01*
X68120159Y-141719048D01*
X68131066Y-141728934D01*
X68140952Y-141739841D01*
X68149720Y-141751664D01*
X68157288Y-141764290D01*
X68163582Y-141777597D01*
X68168541Y-141791457D01*
X68172118Y-141805736D01*
X68174278Y-141820297D01*
X68175000Y-141835000D01*
X68175000Y-142135000D01*
X68174278Y-142149703D01*
X68172118Y-142164264D01*
X68168541Y-142178543D01*
X68163582Y-142192403D01*
X68157288Y-142205710D01*
X68149720Y-142218336D01*
X68140952Y-142230159D01*
X68131066Y-142241066D01*
X68120159Y-142250952D01*
X68108336Y-142259720D01*
X68095710Y-142267288D01*
X68082403Y-142273582D01*
X68068543Y-142278541D01*
X68054264Y-142282118D01*
X68039703Y-142284278D01*
X68025000Y-142285000D01*
X66275000Y-142285000D01*
X66260297Y-142284278D01*
X66245736Y-142282118D01*
X66231457Y-142278541D01*
X66217597Y-142273582D01*
X66204290Y-142267288D01*
X66191664Y-142259720D01*
X66179841Y-142250952D01*
X66168934Y-142241066D01*
X66159048Y-142230159D01*
X66150280Y-142218336D01*
X66142712Y-142205710D01*
X66136418Y-142192403D01*
X66131459Y-142178543D01*
X66127882Y-142164264D01*
X66125722Y-142149703D01*
X66125000Y-142135000D01*
X66125000Y-141835000D01*
X66125722Y-141820297D01*
X66127882Y-141805736D01*
X66131459Y-141791457D01*
X66136418Y-141777597D01*
X66142712Y-141764290D01*
X66150280Y-141751664D01*
X66159048Y-141739841D01*
X66168934Y-141728934D01*
X66179841Y-141719048D01*
X66191664Y-141710280D01*
X66204290Y-141702712D01*
X66217597Y-141696418D01*
X66231457Y-141691459D01*
X66245736Y-141687882D01*
X66260297Y-141685722D01*
X66275000Y-141685000D01*
X68025000Y-141685000D01*
X68039703Y-141685722D01*
G37*
G36*
X68039703Y-142955722D02*
G01*
X68054264Y-142957882D01*
X68068543Y-142961459D01*
X68082403Y-142966418D01*
X68095710Y-142972712D01*
X68108336Y-142980280D01*
X68120159Y-142989048D01*
X68131066Y-142998934D01*
X68140952Y-143009841D01*
X68149720Y-143021664D01*
X68157288Y-143034290D01*
X68163582Y-143047597D01*
X68168541Y-143061457D01*
X68172118Y-143075736D01*
X68174278Y-143090297D01*
X68175000Y-143105000D01*
X68175000Y-143405000D01*
X68174278Y-143419703D01*
X68172118Y-143434264D01*
X68168541Y-143448543D01*
X68163582Y-143462403D01*
X68157288Y-143475710D01*
X68149720Y-143488336D01*
X68140952Y-143500159D01*
X68131066Y-143511066D01*
X68120159Y-143520952D01*
X68108336Y-143529720D01*
X68095710Y-143537288D01*
X68082403Y-143543582D01*
X68068543Y-143548541D01*
X68054264Y-143552118D01*
X68039703Y-143554278D01*
X68025000Y-143555000D01*
X66275000Y-143555000D01*
X66260297Y-143554278D01*
X66245736Y-143552118D01*
X66231457Y-143548541D01*
X66217597Y-143543582D01*
X66204290Y-143537288D01*
X66191664Y-143529720D01*
X66179841Y-143520952D01*
X66168934Y-143511066D01*
X66159048Y-143500159D01*
X66150280Y-143488336D01*
X66142712Y-143475710D01*
X66136418Y-143462403D01*
X66131459Y-143448543D01*
X66127882Y-143434264D01*
X66125722Y-143419703D01*
X66125000Y-143405000D01*
X66125000Y-143105000D01*
X66125722Y-143090297D01*
X66127882Y-143075736D01*
X66131459Y-143061457D01*
X66136418Y-143047597D01*
X66142712Y-143034290D01*
X66150280Y-143021664D01*
X66159048Y-143009841D01*
X66168934Y-142998934D01*
X66179841Y-142989048D01*
X66191664Y-142980280D01*
X66204290Y-142972712D01*
X66217597Y-142966418D01*
X66231457Y-142961459D01*
X66245736Y-142957882D01*
X66260297Y-142955722D01*
X66275000Y-142955000D01*
X68025000Y-142955000D01*
X68039703Y-142955722D01*
G37*
G36*
X58739703Y-142955722D02*
G01*
X58754264Y-142957882D01*
X58768543Y-142961459D01*
X58782403Y-142966418D01*
X58795710Y-142972712D01*
X58808336Y-142980280D01*
X58820159Y-142989048D01*
X58831066Y-142998934D01*
X58840952Y-143009841D01*
X58849720Y-143021664D01*
X58857288Y-143034290D01*
X58863582Y-143047597D01*
X58868541Y-143061457D01*
X58872118Y-143075736D01*
X58874278Y-143090297D01*
X58875000Y-143105000D01*
X58875000Y-143405000D01*
X58874278Y-143419703D01*
X58872118Y-143434264D01*
X58868541Y-143448543D01*
X58863582Y-143462403D01*
X58857288Y-143475710D01*
X58849720Y-143488336D01*
X58840952Y-143500159D01*
X58831066Y-143511066D01*
X58820159Y-143520952D01*
X58808336Y-143529720D01*
X58795710Y-143537288D01*
X58782403Y-143543582D01*
X58768543Y-143548541D01*
X58754264Y-143552118D01*
X58739703Y-143554278D01*
X58725000Y-143555000D01*
X56975000Y-143555000D01*
X56960297Y-143554278D01*
X56945736Y-143552118D01*
X56931457Y-143548541D01*
X56917597Y-143543582D01*
X56904290Y-143537288D01*
X56891664Y-143529720D01*
X56879841Y-143520952D01*
X56868934Y-143511066D01*
X56859048Y-143500159D01*
X56850280Y-143488336D01*
X56842712Y-143475710D01*
X56836418Y-143462403D01*
X56831459Y-143448543D01*
X56827882Y-143434264D01*
X56825722Y-143419703D01*
X56825000Y-143405000D01*
X56825000Y-143105000D01*
X56825722Y-143090297D01*
X56827882Y-143075736D01*
X56831459Y-143061457D01*
X56836418Y-143047597D01*
X56842712Y-143034290D01*
X56850280Y-143021664D01*
X56859048Y-143009841D01*
X56868934Y-142998934D01*
X56879841Y-142989048D01*
X56891664Y-142980280D01*
X56904290Y-142972712D01*
X56917597Y-142966418D01*
X56931457Y-142961459D01*
X56945736Y-142957882D01*
X56960297Y-142955722D01*
X56975000Y-142955000D01*
X58725000Y-142955000D01*
X58739703Y-142955722D01*
G37*
G36*
X58739703Y-141685722D02*
G01*
X58754264Y-141687882D01*
X58768543Y-141691459D01*
X58782403Y-141696418D01*
X58795710Y-141702712D01*
X58808336Y-141710280D01*
X58820159Y-141719048D01*
X58831066Y-141728934D01*
X58840952Y-141739841D01*
X58849720Y-141751664D01*
X58857288Y-141764290D01*
X58863582Y-141777597D01*
X58868541Y-141791457D01*
X58872118Y-141805736D01*
X58874278Y-141820297D01*
X58875000Y-141835000D01*
X58875000Y-142135000D01*
X58874278Y-142149703D01*
X58872118Y-142164264D01*
X58868541Y-142178543D01*
X58863582Y-142192403D01*
X58857288Y-142205710D01*
X58849720Y-142218336D01*
X58840952Y-142230159D01*
X58831066Y-142241066D01*
X58820159Y-142250952D01*
X58808336Y-142259720D01*
X58795710Y-142267288D01*
X58782403Y-142273582D01*
X58768543Y-142278541D01*
X58754264Y-142282118D01*
X58739703Y-142284278D01*
X58725000Y-142285000D01*
X56975000Y-142285000D01*
X56960297Y-142284278D01*
X56945736Y-142282118D01*
X56931457Y-142278541D01*
X56917597Y-142273582D01*
X56904290Y-142267288D01*
X56891664Y-142259720D01*
X56879841Y-142250952D01*
X56868934Y-142241066D01*
X56859048Y-142230159D01*
X56850280Y-142218336D01*
X56842712Y-142205710D01*
X56836418Y-142192403D01*
X56831459Y-142178543D01*
X56827882Y-142164264D01*
X56825722Y-142149703D01*
X56825000Y-142135000D01*
X56825000Y-141835000D01*
X56825722Y-141820297D01*
X56827882Y-141805736D01*
X56831459Y-141791457D01*
X56836418Y-141777597D01*
X56842712Y-141764290D01*
X56850280Y-141751664D01*
X56859048Y-141739841D01*
X56868934Y-141728934D01*
X56879841Y-141719048D01*
X56891664Y-141710280D01*
X56904290Y-141702712D01*
X56917597Y-141696418D01*
X56931457Y-141691459D01*
X56945736Y-141687882D01*
X56960297Y-141685722D01*
X56975000Y-141685000D01*
X58725000Y-141685000D01*
X58739703Y-141685722D01*
G37*
G36*
X58739703Y-140415722D02*
G01*
X58754264Y-140417882D01*
X58768543Y-140421459D01*
X58782403Y-140426418D01*
X58795710Y-140432712D01*
X58808336Y-140440280D01*
X58820159Y-140449048D01*
X58831066Y-140458934D01*
X58840952Y-140469841D01*
X58849720Y-140481664D01*
X58857288Y-140494290D01*
X58863582Y-140507597D01*
X58868541Y-140521457D01*
X58872118Y-140535736D01*
X58874278Y-140550297D01*
X58875000Y-140565000D01*
X58875000Y-140865000D01*
X58874278Y-140879703D01*
X58872118Y-140894264D01*
X58868541Y-140908543D01*
X58863582Y-140922403D01*
X58857288Y-140935710D01*
X58849720Y-140948336D01*
X58840952Y-140960159D01*
X58831066Y-140971066D01*
X58820159Y-140980952D01*
X58808336Y-140989720D01*
X58795710Y-140997288D01*
X58782403Y-141003582D01*
X58768543Y-141008541D01*
X58754264Y-141012118D01*
X58739703Y-141014278D01*
X58725000Y-141015000D01*
X56975000Y-141015000D01*
X56960297Y-141014278D01*
X56945736Y-141012118D01*
X56931457Y-141008541D01*
X56917597Y-141003582D01*
X56904290Y-140997288D01*
X56891664Y-140989720D01*
X56879841Y-140980952D01*
X56868934Y-140971066D01*
X56859048Y-140960159D01*
X56850280Y-140948336D01*
X56842712Y-140935710D01*
X56836418Y-140922403D01*
X56831459Y-140908543D01*
X56827882Y-140894264D01*
X56825722Y-140879703D01*
X56825000Y-140865000D01*
X56825000Y-140565000D01*
X56825722Y-140550297D01*
X56827882Y-140535736D01*
X56831459Y-140521457D01*
X56836418Y-140507597D01*
X56842712Y-140494290D01*
X56850280Y-140481664D01*
X56859048Y-140469841D01*
X56868934Y-140458934D01*
X56879841Y-140449048D01*
X56891664Y-140440280D01*
X56904290Y-140432712D01*
X56917597Y-140426418D01*
X56931457Y-140421459D01*
X56945736Y-140417882D01*
X56960297Y-140415722D01*
X56975000Y-140415000D01*
X58725000Y-140415000D01*
X58739703Y-140415722D01*
G37*
G36*
X58739703Y-139145722D02*
G01*
X58754264Y-139147882D01*
X58768543Y-139151459D01*
X58782403Y-139156418D01*
X58795710Y-139162712D01*
X58808336Y-139170280D01*
X58820159Y-139179048D01*
X58831066Y-139188934D01*
X58840952Y-139199841D01*
X58849720Y-139211664D01*
X58857288Y-139224290D01*
X58863582Y-139237597D01*
X58868541Y-139251457D01*
X58872118Y-139265736D01*
X58874278Y-139280297D01*
X58875000Y-139295000D01*
X58875000Y-139595000D01*
X58874278Y-139609703D01*
X58872118Y-139624264D01*
X58868541Y-139638543D01*
X58863582Y-139652403D01*
X58857288Y-139665710D01*
X58849720Y-139678336D01*
X58840952Y-139690159D01*
X58831066Y-139701066D01*
X58820159Y-139710952D01*
X58808336Y-139719720D01*
X58795710Y-139727288D01*
X58782403Y-139733582D01*
X58768543Y-139738541D01*
X58754264Y-139742118D01*
X58739703Y-139744278D01*
X58725000Y-139745000D01*
X56975000Y-139745000D01*
X56960297Y-139744278D01*
X56945736Y-139742118D01*
X56931457Y-139738541D01*
X56917597Y-139733582D01*
X56904290Y-139727288D01*
X56891664Y-139719720D01*
X56879841Y-139710952D01*
X56868934Y-139701066D01*
X56859048Y-139690159D01*
X56850280Y-139678336D01*
X56842712Y-139665710D01*
X56836418Y-139652403D01*
X56831459Y-139638543D01*
X56827882Y-139624264D01*
X56825722Y-139609703D01*
X56825000Y-139595000D01*
X56825000Y-139295000D01*
X56825722Y-139280297D01*
X56827882Y-139265736D01*
X56831459Y-139251457D01*
X56836418Y-139237597D01*
X56842712Y-139224290D01*
X56850280Y-139211664D01*
X56859048Y-139199841D01*
X56868934Y-139188934D01*
X56879841Y-139179048D01*
X56891664Y-139170280D01*
X56904290Y-139162712D01*
X56917597Y-139156418D01*
X56931457Y-139151459D01*
X56945736Y-139147882D01*
X56960297Y-139145722D01*
X56975000Y-139145000D01*
X58725000Y-139145000D01*
X58739703Y-139145722D01*
G37*
G36*
X58739703Y-137875722D02*
G01*
X58754264Y-137877882D01*
X58768543Y-137881459D01*
X58782403Y-137886418D01*
X58795710Y-137892712D01*
X58808336Y-137900280D01*
X58820159Y-137909048D01*
X58831066Y-137918934D01*
X58840952Y-137929841D01*
X58849720Y-137941664D01*
X58857288Y-137954290D01*
X58863582Y-137967597D01*
X58868541Y-137981457D01*
X58872118Y-137995736D01*
X58874278Y-138010297D01*
X58875000Y-138025000D01*
X58875000Y-138325000D01*
X58874278Y-138339703D01*
X58872118Y-138354264D01*
X58868541Y-138368543D01*
X58863582Y-138382403D01*
X58857288Y-138395710D01*
X58849720Y-138408336D01*
X58840952Y-138420159D01*
X58831066Y-138431066D01*
X58820159Y-138440952D01*
X58808336Y-138449720D01*
X58795710Y-138457288D01*
X58782403Y-138463582D01*
X58768543Y-138468541D01*
X58754264Y-138472118D01*
X58739703Y-138474278D01*
X58725000Y-138475000D01*
X56975000Y-138475000D01*
X56960297Y-138474278D01*
X56945736Y-138472118D01*
X56931457Y-138468541D01*
X56917597Y-138463582D01*
X56904290Y-138457288D01*
X56891664Y-138449720D01*
X56879841Y-138440952D01*
X56868934Y-138431066D01*
X56859048Y-138420159D01*
X56850280Y-138408336D01*
X56842712Y-138395710D01*
X56836418Y-138382403D01*
X56831459Y-138368543D01*
X56827882Y-138354264D01*
X56825722Y-138339703D01*
X56825000Y-138325000D01*
X56825000Y-138025000D01*
X56825722Y-138010297D01*
X56827882Y-137995736D01*
X56831459Y-137981457D01*
X56836418Y-137967597D01*
X56842712Y-137954290D01*
X56850280Y-137941664D01*
X56859048Y-137929841D01*
X56868934Y-137918934D01*
X56879841Y-137909048D01*
X56891664Y-137900280D01*
X56904290Y-137892712D01*
X56917597Y-137886418D01*
X56931457Y-137881459D01*
X56945736Y-137877882D01*
X56960297Y-137875722D01*
X56975000Y-137875000D01*
X58725000Y-137875000D01*
X58739703Y-137875722D01*
G37*
G36*
X58739703Y-136605722D02*
G01*
X58754264Y-136607882D01*
X58768543Y-136611459D01*
X58782403Y-136616418D01*
X58795710Y-136622712D01*
X58808336Y-136630280D01*
X58820159Y-136639048D01*
X58831066Y-136648934D01*
X58840952Y-136659841D01*
X58849720Y-136671664D01*
X58857288Y-136684290D01*
X58863582Y-136697597D01*
X58868541Y-136711457D01*
X58872118Y-136725736D01*
X58874278Y-136740297D01*
X58875000Y-136755000D01*
X58875000Y-137055000D01*
X58874278Y-137069703D01*
X58872118Y-137084264D01*
X58868541Y-137098543D01*
X58863582Y-137112403D01*
X58857288Y-137125710D01*
X58849720Y-137138336D01*
X58840952Y-137150159D01*
X58831066Y-137161066D01*
X58820159Y-137170952D01*
X58808336Y-137179720D01*
X58795710Y-137187288D01*
X58782403Y-137193582D01*
X58768543Y-137198541D01*
X58754264Y-137202118D01*
X58739703Y-137204278D01*
X58725000Y-137205000D01*
X56975000Y-137205000D01*
X56960297Y-137204278D01*
X56945736Y-137202118D01*
X56931457Y-137198541D01*
X56917597Y-137193582D01*
X56904290Y-137187288D01*
X56891664Y-137179720D01*
X56879841Y-137170952D01*
X56868934Y-137161066D01*
X56859048Y-137150159D01*
X56850280Y-137138336D01*
X56842712Y-137125710D01*
X56836418Y-137112403D01*
X56831459Y-137098543D01*
X56827882Y-137084264D01*
X56825722Y-137069703D01*
X56825000Y-137055000D01*
X56825000Y-136755000D01*
X56825722Y-136740297D01*
X56827882Y-136725736D01*
X56831459Y-136711457D01*
X56836418Y-136697597D01*
X56842712Y-136684290D01*
X56850280Y-136671664D01*
X56859048Y-136659841D01*
X56868934Y-136648934D01*
X56879841Y-136639048D01*
X56891664Y-136630280D01*
X56904290Y-136622712D01*
X56917597Y-136616418D01*
X56931457Y-136611459D01*
X56945736Y-136607882D01*
X56960297Y-136605722D01*
X56975000Y-136605000D01*
X58725000Y-136605000D01*
X58739703Y-136605722D01*
G37*
G36*
X58739703Y-135335722D02*
G01*
X58754264Y-135337882D01*
X58768543Y-135341459D01*
X58782403Y-135346418D01*
X58795710Y-135352712D01*
X58808336Y-135360280D01*
X58820159Y-135369048D01*
X58831066Y-135378934D01*
X58840952Y-135389841D01*
X58849720Y-135401664D01*
X58857288Y-135414290D01*
X58863582Y-135427597D01*
X58868541Y-135441457D01*
X58872118Y-135455736D01*
X58874278Y-135470297D01*
X58875000Y-135485000D01*
X58875000Y-135785000D01*
X58874278Y-135799703D01*
X58872118Y-135814264D01*
X58868541Y-135828543D01*
X58863582Y-135842403D01*
X58857288Y-135855710D01*
X58849720Y-135868336D01*
X58840952Y-135880159D01*
X58831066Y-135891066D01*
X58820159Y-135900952D01*
X58808336Y-135909720D01*
X58795710Y-135917288D01*
X58782403Y-135923582D01*
X58768543Y-135928541D01*
X58754264Y-135932118D01*
X58739703Y-135934278D01*
X58725000Y-135935000D01*
X56975000Y-135935000D01*
X56960297Y-135934278D01*
X56945736Y-135932118D01*
X56931457Y-135928541D01*
X56917597Y-135923582D01*
X56904290Y-135917288D01*
X56891664Y-135909720D01*
X56879841Y-135900952D01*
X56868934Y-135891066D01*
X56859048Y-135880159D01*
X56850280Y-135868336D01*
X56842712Y-135855710D01*
X56836418Y-135842403D01*
X56831459Y-135828543D01*
X56827882Y-135814264D01*
X56825722Y-135799703D01*
X56825000Y-135785000D01*
X56825000Y-135485000D01*
X56825722Y-135470297D01*
X56827882Y-135455736D01*
X56831459Y-135441457D01*
X56836418Y-135427597D01*
X56842712Y-135414290D01*
X56850280Y-135401664D01*
X56859048Y-135389841D01*
X56868934Y-135378934D01*
X56879841Y-135369048D01*
X56891664Y-135360280D01*
X56904290Y-135352712D01*
X56917597Y-135346418D01*
X56931457Y-135341459D01*
X56945736Y-135337882D01*
X56960297Y-135335722D01*
X56975000Y-135335000D01*
X58725000Y-135335000D01*
X58739703Y-135335722D01*
G37*
G36*
X58739703Y-134065722D02*
G01*
X58754264Y-134067882D01*
X58768543Y-134071459D01*
X58782403Y-134076418D01*
X58795710Y-134082712D01*
X58808336Y-134090280D01*
X58820159Y-134099048D01*
X58831066Y-134108934D01*
X58840952Y-134119841D01*
X58849720Y-134131664D01*
X58857288Y-134144290D01*
X58863582Y-134157597D01*
X58868541Y-134171457D01*
X58872118Y-134185736D01*
X58874278Y-134200297D01*
X58875000Y-134215000D01*
X58875000Y-134515000D01*
X58874278Y-134529703D01*
X58872118Y-134544264D01*
X58868541Y-134558543D01*
X58863582Y-134572403D01*
X58857288Y-134585710D01*
X58849720Y-134598336D01*
X58840952Y-134610159D01*
X58831066Y-134621066D01*
X58820159Y-134630952D01*
X58808336Y-134639720D01*
X58795710Y-134647288D01*
X58782403Y-134653582D01*
X58768543Y-134658541D01*
X58754264Y-134662118D01*
X58739703Y-134664278D01*
X58725000Y-134665000D01*
X56975000Y-134665000D01*
X56960297Y-134664278D01*
X56945736Y-134662118D01*
X56931457Y-134658541D01*
X56917597Y-134653582D01*
X56904290Y-134647288D01*
X56891664Y-134639720D01*
X56879841Y-134630952D01*
X56868934Y-134621066D01*
X56859048Y-134610159D01*
X56850280Y-134598336D01*
X56842712Y-134585710D01*
X56836418Y-134572403D01*
X56831459Y-134558543D01*
X56827882Y-134544264D01*
X56825722Y-134529703D01*
X56825000Y-134515000D01*
X56825000Y-134215000D01*
X56825722Y-134200297D01*
X56827882Y-134185736D01*
X56831459Y-134171457D01*
X56836418Y-134157597D01*
X56842712Y-134144290D01*
X56850280Y-134131664D01*
X56859048Y-134119841D01*
X56868934Y-134108934D01*
X56879841Y-134099048D01*
X56891664Y-134090280D01*
X56904290Y-134082712D01*
X56917597Y-134076418D01*
X56931457Y-134071459D01*
X56945736Y-134067882D01*
X56960297Y-134065722D01*
X56975000Y-134065000D01*
X58725000Y-134065000D01*
X58739703Y-134065722D01*
G37*
G36*
X58739703Y-132795722D02*
G01*
X58754264Y-132797882D01*
X58768543Y-132801459D01*
X58782403Y-132806418D01*
X58795710Y-132812712D01*
X58808336Y-132820280D01*
X58820159Y-132829048D01*
X58831066Y-132838934D01*
X58840952Y-132849841D01*
X58849720Y-132861664D01*
X58857288Y-132874290D01*
X58863582Y-132887597D01*
X58868541Y-132901457D01*
X58872118Y-132915736D01*
X58874278Y-132930297D01*
X58875000Y-132945000D01*
X58875000Y-133245000D01*
X58874278Y-133259703D01*
X58872118Y-133274264D01*
X58868541Y-133288543D01*
X58863582Y-133302403D01*
X58857288Y-133315710D01*
X58849720Y-133328336D01*
X58840952Y-133340159D01*
X58831066Y-133351066D01*
X58820159Y-133360952D01*
X58808336Y-133369720D01*
X58795710Y-133377288D01*
X58782403Y-133383582D01*
X58768543Y-133388541D01*
X58754264Y-133392118D01*
X58739703Y-133394278D01*
X58725000Y-133395000D01*
X56975000Y-133395000D01*
X56960297Y-133394278D01*
X56945736Y-133392118D01*
X56931457Y-133388541D01*
X56917597Y-133383582D01*
X56904290Y-133377288D01*
X56891664Y-133369720D01*
X56879841Y-133360952D01*
X56868934Y-133351066D01*
X56859048Y-133340159D01*
X56850280Y-133328336D01*
X56842712Y-133315710D01*
X56836418Y-133302403D01*
X56831459Y-133288543D01*
X56827882Y-133274264D01*
X56825722Y-133259703D01*
X56825000Y-133245000D01*
X56825000Y-132945000D01*
X56825722Y-132930297D01*
X56827882Y-132915736D01*
X56831459Y-132901457D01*
X56836418Y-132887597D01*
X56842712Y-132874290D01*
X56850280Y-132861664D01*
X56859048Y-132849841D01*
X56868934Y-132838934D01*
X56879841Y-132829048D01*
X56891664Y-132820280D01*
X56904290Y-132812712D01*
X56917597Y-132806418D01*
X56931457Y-132801459D01*
X56945736Y-132797882D01*
X56960297Y-132795722D01*
X56975000Y-132795000D01*
X58725000Y-132795000D01*
X58739703Y-132795722D01*
G37*
G36*
X58739703Y-131525722D02*
G01*
X58754264Y-131527882D01*
X58768543Y-131531459D01*
X58782403Y-131536418D01*
X58795710Y-131542712D01*
X58808336Y-131550280D01*
X58820159Y-131559048D01*
X58831066Y-131568934D01*
X58840952Y-131579841D01*
X58849720Y-131591664D01*
X58857288Y-131604290D01*
X58863582Y-131617597D01*
X58868541Y-131631457D01*
X58872118Y-131645736D01*
X58874278Y-131660297D01*
X58875000Y-131675000D01*
X58875000Y-131975000D01*
X58874278Y-131989703D01*
X58872118Y-132004264D01*
X58868541Y-132018543D01*
X58863582Y-132032403D01*
X58857288Y-132045710D01*
X58849720Y-132058336D01*
X58840952Y-132070159D01*
X58831066Y-132081066D01*
X58820159Y-132090952D01*
X58808336Y-132099720D01*
X58795710Y-132107288D01*
X58782403Y-132113582D01*
X58768543Y-132118541D01*
X58754264Y-132122118D01*
X58739703Y-132124278D01*
X58725000Y-132125000D01*
X56975000Y-132125000D01*
X56960297Y-132124278D01*
X56945736Y-132122118D01*
X56931457Y-132118541D01*
X56917597Y-132113582D01*
X56904290Y-132107288D01*
X56891664Y-132099720D01*
X56879841Y-132090952D01*
X56868934Y-132081066D01*
X56859048Y-132070159D01*
X56850280Y-132058336D01*
X56842712Y-132045710D01*
X56836418Y-132032403D01*
X56831459Y-132018543D01*
X56827882Y-132004264D01*
X56825722Y-131989703D01*
X56825000Y-131975000D01*
X56825000Y-131675000D01*
X56825722Y-131660297D01*
X56827882Y-131645736D01*
X56831459Y-131631457D01*
X56836418Y-131617597D01*
X56842712Y-131604290D01*
X56850280Y-131591664D01*
X56859048Y-131579841D01*
X56868934Y-131568934D01*
X56879841Y-131559048D01*
X56891664Y-131550280D01*
X56904290Y-131542712D01*
X56917597Y-131536418D01*
X56931457Y-131531459D01*
X56945736Y-131527882D01*
X56960297Y-131525722D01*
X56975000Y-131525000D01*
X58725000Y-131525000D01*
X58739703Y-131525722D01*
G37*
G36*
X58739703Y-130255722D02*
G01*
X58754264Y-130257882D01*
X58768543Y-130261459D01*
X58782403Y-130266418D01*
X58795710Y-130272712D01*
X58808336Y-130280280D01*
X58820159Y-130289048D01*
X58831066Y-130298934D01*
X58840952Y-130309841D01*
X58849720Y-130321664D01*
X58857288Y-130334290D01*
X58863582Y-130347597D01*
X58868541Y-130361457D01*
X58872118Y-130375736D01*
X58874278Y-130390297D01*
X58875000Y-130405000D01*
X58875000Y-130705000D01*
X58874278Y-130719703D01*
X58872118Y-130734264D01*
X58868541Y-130748543D01*
X58863582Y-130762403D01*
X58857288Y-130775710D01*
X58849720Y-130788336D01*
X58840952Y-130800159D01*
X58831066Y-130811066D01*
X58820159Y-130820952D01*
X58808336Y-130829720D01*
X58795710Y-130837288D01*
X58782403Y-130843582D01*
X58768543Y-130848541D01*
X58754264Y-130852118D01*
X58739703Y-130854278D01*
X58725000Y-130855000D01*
X56975000Y-130855000D01*
X56960297Y-130854278D01*
X56945736Y-130852118D01*
X56931457Y-130848541D01*
X56917597Y-130843582D01*
X56904290Y-130837288D01*
X56891664Y-130829720D01*
X56879841Y-130820952D01*
X56868934Y-130811066D01*
X56859048Y-130800159D01*
X56850280Y-130788336D01*
X56842712Y-130775710D01*
X56836418Y-130762403D01*
X56831459Y-130748543D01*
X56827882Y-130734264D01*
X56825722Y-130719703D01*
X56825000Y-130705000D01*
X56825000Y-130405000D01*
X56825722Y-130390297D01*
X56827882Y-130375736D01*
X56831459Y-130361457D01*
X56836418Y-130347597D01*
X56842712Y-130334290D01*
X56850280Y-130321664D01*
X56859048Y-130309841D01*
X56868934Y-130298934D01*
X56879841Y-130289048D01*
X56891664Y-130280280D01*
X56904290Y-130272712D01*
X56917597Y-130266418D01*
X56931457Y-130261459D01*
X56945736Y-130257882D01*
X56960297Y-130255722D01*
X56975000Y-130255000D01*
X58725000Y-130255000D01*
X58739703Y-130255722D01*
G37*
G36*
X58739703Y-128985722D02*
G01*
X58754264Y-128987882D01*
X58768543Y-128991459D01*
X58782403Y-128996418D01*
X58795710Y-129002712D01*
X58808336Y-129010280D01*
X58820159Y-129019048D01*
X58831066Y-129028934D01*
X58840952Y-129039841D01*
X58849720Y-129051664D01*
X58857288Y-129064290D01*
X58863582Y-129077597D01*
X58868541Y-129091457D01*
X58872118Y-129105736D01*
X58874278Y-129120297D01*
X58875000Y-129135000D01*
X58875000Y-129435000D01*
X58874278Y-129449703D01*
X58872118Y-129464264D01*
X58868541Y-129478543D01*
X58863582Y-129492403D01*
X58857288Y-129505710D01*
X58849720Y-129518336D01*
X58840952Y-129530159D01*
X58831066Y-129541066D01*
X58820159Y-129550952D01*
X58808336Y-129559720D01*
X58795710Y-129567288D01*
X58782403Y-129573582D01*
X58768543Y-129578541D01*
X58754264Y-129582118D01*
X58739703Y-129584278D01*
X58725000Y-129585000D01*
X56975000Y-129585000D01*
X56960297Y-129584278D01*
X56945736Y-129582118D01*
X56931457Y-129578541D01*
X56917597Y-129573582D01*
X56904290Y-129567288D01*
X56891664Y-129559720D01*
X56879841Y-129550952D01*
X56868934Y-129541066D01*
X56859048Y-129530159D01*
X56850280Y-129518336D01*
X56842712Y-129505710D01*
X56836418Y-129492403D01*
X56831459Y-129478543D01*
X56827882Y-129464264D01*
X56825722Y-129449703D01*
X56825000Y-129435000D01*
X56825000Y-129135000D01*
X56825722Y-129120297D01*
X56827882Y-129105736D01*
X56831459Y-129091457D01*
X56836418Y-129077597D01*
X56842712Y-129064290D01*
X56850280Y-129051664D01*
X56859048Y-129039841D01*
X56868934Y-129028934D01*
X56879841Y-129019048D01*
X56891664Y-129010280D01*
X56904290Y-129002712D01*
X56917597Y-128996418D01*
X56931457Y-128991459D01*
X56945736Y-128987882D01*
X56960297Y-128985722D01*
X56975000Y-128985000D01*
X58725000Y-128985000D01*
X58739703Y-128985722D01*
G37*
G36*
X58739703Y-127715722D02*
G01*
X58754264Y-127717882D01*
X58768543Y-127721459D01*
X58782403Y-127726418D01*
X58795710Y-127732712D01*
X58808336Y-127740280D01*
X58820159Y-127749048D01*
X58831066Y-127758934D01*
X58840952Y-127769841D01*
X58849720Y-127781664D01*
X58857288Y-127794290D01*
X58863582Y-127807597D01*
X58868541Y-127821457D01*
X58872118Y-127835736D01*
X58874278Y-127850297D01*
X58875000Y-127865000D01*
X58875000Y-128165000D01*
X58874278Y-128179703D01*
X58872118Y-128194264D01*
X58868541Y-128208543D01*
X58863582Y-128222403D01*
X58857288Y-128235710D01*
X58849720Y-128248336D01*
X58840952Y-128260159D01*
X58831066Y-128271066D01*
X58820159Y-128280952D01*
X58808336Y-128289720D01*
X58795710Y-128297288D01*
X58782403Y-128303582D01*
X58768543Y-128308541D01*
X58754264Y-128312118D01*
X58739703Y-128314278D01*
X58725000Y-128315000D01*
X56975000Y-128315000D01*
X56960297Y-128314278D01*
X56945736Y-128312118D01*
X56931457Y-128308541D01*
X56917597Y-128303582D01*
X56904290Y-128297288D01*
X56891664Y-128289720D01*
X56879841Y-128280952D01*
X56868934Y-128271066D01*
X56859048Y-128260159D01*
X56850280Y-128248336D01*
X56842712Y-128235710D01*
X56836418Y-128222403D01*
X56831459Y-128208543D01*
X56827882Y-128194264D01*
X56825722Y-128179703D01*
X56825000Y-128165000D01*
X56825000Y-127865000D01*
X56825722Y-127850297D01*
X56827882Y-127835736D01*
X56831459Y-127821457D01*
X56836418Y-127807597D01*
X56842712Y-127794290D01*
X56850280Y-127781664D01*
X56859048Y-127769841D01*
X56868934Y-127758934D01*
X56879841Y-127749048D01*
X56891664Y-127740280D01*
X56904290Y-127732712D01*
X56917597Y-127726418D01*
X56931457Y-127721459D01*
X56945736Y-127717882D01*
X56960297Y-127715722D01*
X56975000Y-127715000D01*
X58725000Y-127715000D01*
X58739703Y-127715722D01*
G37*
G36*
X58739703Y-126445722D02*
G01*
X58754264Y-126447882D01*
X58768543Y-126451459D01*
X58782403Y-126456418D01*
X58795710Y-126462712D01*
X58808336Y-126470280D01*
X58820159Y-126479048D01*
X58831066Y-126488934D01*
X58840952Y-126499841D01*
X58849720Y-126511664D01*
X58857288Y-126524290D01*
X58863582Y-126537597D01*
X58868541Y-126551457D01*
X58872118Y-126565736D01*
X58874278Y-126580297D01*
X58875000Y-126595000D01*
X58875000Y-126895000D01*
X58874278Y-126909703D01*
X58872118Y-126924264D01*
X58868541Y-126938543D01*
X58863582Y-126952403D01*
X58857288Y-126965710D01*
X58849720Y-126978336D01*
X58840952Y-126990159D01*
X58831066Y-127001066D01*
X58820159Y-127010952D01*
X58808336Y-127019720D01*
X58795710Y-127027288D01*
X58782403Y-127033582D01*
X58768543Y-127038541D01*
X58754264Y-127042118D01*
X58739703Y-127044278D01*
X58725000Y-127045000D01*
X56975000Y-127045000D01*
X56960297Y-127044278D01*
X56945736Y-127042118D01*
X56931457Y-127038541D01*
X56917597Y-127033582D01*
X56904290Y-127027288D01*
X56891664Y-127019720D01*
X56879841Y-127010952D01*
X56868934Y-127001066D01*
X56859048Y-126990159D01*
X56850280Y-126978336D01*
X56842712Y-126965710D01*
X56836418Y-126952403D01*
X56831459Y-126938543D01*
X56827882Y-126924264D01*
X56825722Y-126909703D01*
X56825000Y-126895000D01*
X56825000Y-126595000D01*
X56825722Y-126580297D01*
X56827882Y-126565736D01*
X56831459Y-126551457D01*
X56836418Y-126537597D01*
X56842712Y-126524290D01*
X56850280Y-126511664D01*
X56859048Y-126499841D01*
X56868934Y-126488934D01*
X56879841Y-126479048D01*
X56891664Y-126470280D01*
X56904290Y-126462712D01*
X56917597Y-126456418D01*
X56931457Y-126451459D01*
X56945736Y-126447882D01*
X56960297Y-126445722D01*
X56975000Y-126445000D01*
X58725000Y-126445000D01*
X58739703Y-126445722D01*
G37*
M02*
