G04 #@! TF.GenerationSoftware,KiCad,Pcbnew,5.1.5*
G04 #@! TF.CreationDate,2020-03-06T12:13:38+01:00*
G04 #@! TF.ProjectId,e-chessboard,652d6368-6573-4736-926f-6172642e6b69,0.1*
G04 #@! TF.SameCoordinates,Original*
G04 #@! TF.FileFunction,Paste,Bot*
G04 #@! TF.FilePolarity,Positive*
%FSLAX46Y46*%
G04 Gerber Fmt 4.6, Leading zero omitted, Abs format (unit mm)*
G04 Created by KiCad (PCBNEW 5.1.5) date 2020-03-06 12:13:38*
%MOMM*%
%LPD*%
G04 APERTURE LIST*
%ADD10C,0.100000*%
%ADD11R,1.000000X0.800000*%
%ADD12R,1.800000X2.500000*%
%ADD13R,0.900000X1.200000*%
%ADD14R,3.600000X1.500000*%
%ADD15R,0.900000X0.800000*%
%ADD16R,5.000000X5.000000*%
%ADD17R,0.900000X2.000000*%
%ADD18R,2.000000X0.900000*%
%ADD19R,1.060000X0.650000*%
G04 APERTURE END LIST*
D10*
G36*
X128799505Y-161513704D02*
G01*
X128823773Y-161517304D01*
X128847572Y-161523265D01*
X128870671Y-161531530D01*
X128892850Y-161542020D01*
X128913893Y-161554632D01*
X128933599Y-161569247D01*
X128951777Y-161585723D01*
X128968253Y-161603901D01*
X128982868Y-161623607D01*
X128995480Y-161644650D01*
X129005970Y-161666829D01*
X129014235Y-161689928D01*
X129020196Y-161713727D01*
X129023796Y-161737995D01*
X129025000Y-161762499D01*
X129025000Y-162587501D01*
X129023796Y-162612005D01*
X129020196Y-162636273D01*
X129014235Y-162660072D01*
X129005970Y-162683171D01*
X128995480Y-162705350D01*
X128982868Y-162726393D01*
X128968253Y-162746099D01*
X128951777Y-162764277D01*
X128933599Y-162780753D01*
X128913893Y-162795368D01*
X128892850Y-162807980D01*
X128870671Y-162818470D01*
X128847572Y-162826735D01*
X128823773Y-162832696D01*
X128799505Y-162836296D01*
X128775001Y-162837500D01*
X126924999Y-162837500D01*
X126900495Y-162836296D01*
X126876227Y-162832696D01*
X126852428Y-162826735D01*
X126829329Y-162818470D01*
X126807150Y-162807980D01*
X126786107Y-162795368D01*
X126766401Y-162780753D01*
X126748223Y-162764277D01*
X126731747Y-162746099D01*
X126717132Y-162726393D01*
X126704520Y-162705350D01*
X126694030Y-162683171D01*
X126685765Y-162660072D01*
X126679804Y-162636273D01*
X126676204Y-162612005D01*
X126675000Y-162587501D01*
X126675000Y-161762499D01*
X126676204Y-161737995D01*
X126679804Y-161713727D01*
X126685765Y-161689928D01*
X126694030Y-161666829D01*
X126704520Y-161644650D01*
X126717132Y-161623607D01*
X126731747Y-161603901D01*
X126748223Y-161585723D01*
X126766401Y-161569247D01*
X126786107Y-161554632D01*
X126807150Y-161542020D01*
X126829329Y-161531530D01*
X126852428Y-161523265D01*
X126876227Y-161517304D01*
X126900495Y-161513704D01*
X126924999Y-161512500D01*
X128775001Y-161512500D01*
X128799505Y-161513704D01*
G37*
G36*
X128799505Y-164588704D02*
G01*
X128823773Y-164592304D01*
X128847572Y-164598265D01*
X128870671Y-164606530D01*
X128892850Y-164617020D01*
X128913893Y-164629632D01*
X128933599Y-164644247D01*
X128951777Y-164660723D01*
X128968253Y-164678901D01*
X128982868Y-164698607D01*
X128995480Y-164719650D01*
X129005970Y-164741829D01*
X129014235Y-164764928D01*
X129020196Y-164788727D01*
X129023796Y-164812995D01*
X129025000Y-164837499D01*
X129025000Y-165662501D01*
X129023796Y-165687005D01*
X129020196Y-165711273D01*
X129014235Y-165735072D01*
X129005970Y-165758171D01*
X128995480Y-165780350D01*
X128982868Y-165801393D01*
X128968253Y-165821099D01*
X128951777Y-165839277D01*
X128933599Y-165855753D01*
X128913893Y-165870368D01*
X128892850Y-165882980D01*
X128870671Y-165893470D01*
X128847572Y-165901735D01*
X128823773Y-165907696D01*
X128799505Y-165911296D01*
X128775001Y-165912500D01*
X126924999Y-165912500D01*
X126900495Y-165911296D01*
X126876227Y-165907696D01*
X126852428Y-165901735D01*
X126829329Y-165893470D01*
X126807150Y-165882980D01*
X126786107Y-165870368D01*
X126766401Y-165855753D01*
X126748223Y-165839277D01*
X126731747Y-165821099D01*
X126717132Y-165801393D01*
X126704520Y-165780350D01*
X126694030Y-165758171D01*
X126685765Y-165735072D01*
X126679804Y-165711273D01*
X126676204Y-165687005D01*
X126675000Y-165662501D01*
X126675000Y-164837499D01*
X126676204Y-164812995D01*
X126679804Y-164788727D01*
X126685765Y-164764928D01*
X126694030Y-164741829D01*
X126704520Y-164719650D01*
X126717132Y-164698607D01*
X126731747Y-164678901D01*
X126748223Y-164660723D01*
X126766401Y-164644247D01*
X126786107Y-164629632D01*
X126807150Y-164617020D01*
X126829329Y-164606530D01*
X126852428Y-164598265D01*
X126876227Y-164592304D01*
X126900495Y-164588704D01*
X126924999Y-164587500D01*
X128775001Y-164587500D01*
X128799505Y-164588704D01*
G37*
G36*
X131874505Y-162151204D02*
G01*
X131898773Y-162154804D01*
X131922572Y-162160765D01*
X131945671Y-162169030D01*
X131967850Y-162179520D01*
X131988893Y-162192132D01*
X132008599Y-162206747D01*
X132026777Y-162223223D01*
X132043253Y-162241401D01*
X132057868Y-162261107D01*
X132070480Y-162282150D01*
X132080970Y-162304329D01*
X132089235Y-162327428D01*
X132095196Y-162351227D01*
X132098796Y-162375495D01*
X132100000Y-162399999D01*
X132100000Y-163050001D01*
X132098796Y-163074505D01*
X132095196Y-163098773D01*
X132089235Y-163122572D01*
X132080970Y-163145671D01*
X132070480Y-163167850D01*
X132057868Y-163188893D01*
X132043253Y-163208599D01*
X132026777Y-163226777D01*
X132008599Y-163243253D01*
X131988893Y-163257868D01*
X131967850Y-163270480D01*
X131945671Y-163280970D01*
X131922572Y-163289235D01*
X131898773Y-163295196D01*
X131874505Y-163298796D01*
X131850001Y-163300000D01*
X130949999Y-163300000D01*
X130925495Y-163298796D01*
X130901227Y-163295196D01*
X130877428Y-163289235D01*
X130854329Y-163280970D01*
X130832150Y-163270480D01*
X130811107Y-163257868D01*
X130791401Y-163243253D01*
X130773223Y-163226777D01*
X130756747Y-163208599D01*
X130742132Y-163188893D01*
X130729520Y-163167850D01*
X130719030Y-163145671D01*
X130710765Y-163122572D01*
X130704804Y-163098773D01*
X130701204Y-163074505D01*
X130700000Y-163050001D01*
X130700000Y-162399999D01*
X130701204Y-162375495D01*
X130704804Y-162351227D01*
X130710765Y-162327428D01*
X130719030Y-162304329D01*
X130729520Y-162282150D01*
X130742132Y-162261107D01*
X130756747Y-162241401D01*
X130773223Y-162223223D01*
X130791401Y-162206747D01*
X130811107Y-162192132D01*
X130832150Y-162179520D01*
X130854329Y-162169030D01*
X130877428Y-162160765D01*
X130901227Y-162154804D01*
X130925495Y-162151204D01*
X130949999Y-162150000D01*
X131850001Y-162150000D01*
X131874505Y-162151204D01*
G37*
G36*
X131874505Y-164201204D02*
G01*
X131898773Y-164204804D01*
X131922572Y-164210765D01*
X131945671Y-164219030D01*
X131967850Y-164229520D01*
X131988893Y-164242132D01*
X132008599Y-164256747D01*
X132026777Y-164273223D01*
X132043253Y-164291401D01*
X132057868Y-164311107D01*
X132070480Y-164332150D01*
X132080970Y-164354329D01*
X132089235Y-164377428D01*
X132095196Y-164401227D01*
X132098796Y-164425495D01*
X132100000Y-164449999D01*
X132100000Y-165100001D01*
X132098796Y-165124505D01*
X132095196Y-165148773D01*
X132089235Y-165172572D01*
X132080970Y-165195671D01*
X132070480Y-165217850D01*
X132057868Y-165238893D01*
X132043253Y-165258599D01*
X132026777Y-165276777D01*
X132008599Y-165293253D01*
X131988893Y-165307868D01*
X131967850Y-165320480D01*
X131945671Y-165330970D01*
X131922572Y-165339235D01*
X131898773Y-165345196D01*
X131874505Y-165348796D01*
X131850001Y-165350000D01*
X130949999Y-165350000D01*
X130925495Y-165348796D01*
X130901227Y-165345196D01*
X130877428Y-165339235D01*
X130854329Y-165330970D01*
X130832150Y-165320480D01*
X130811107Y-165307868D01*
X130791401Y-165293253D01*
X130773223Y-165276777D01*
X130756747Y-165258599D01*
X130742132Y-165238893D01*
X130729520Y-165217850D01*
X130719030Y-165195671D01*
X130710765Y-165172572D01*
X130704804Y-165148773D01*
X130701204Y-165124505D01*
X130700000Y-165100001D01*
X130700000Y-164449999D01*
X130701204Y-164425495D01*
X130704804Y-164401227D01*
X130710765Y-164377428D01*
X130719030Y-164354329D01*
X130729520Y-164332150D01*
X130742132Y-164311107D01*
X130756747Y-164291401D01*
X130773223Y-164273223D01*
X130791401Y-164256747D01*
X130811107Y-164242132D01*
X130832150Y-164229520D01*
X130854329Y-164219030D01*
X130877428Y-164210765D01*
X130901227Y-164204804D01*
X130925495Y-164201204D01*
X130949999Y-164200000D01*
X131850001Y-164200000D01*
X131874505Y-164201204D01*
G37*
G36*
X130724505Y-117326204D02*
G01*
X130748773Y-117329804D01*
X130772572Y-117335765D01*
X130795671Y-117344030D01*
X130817850Y-117354520D01*
X130838893Y-117367132D01*
X130858599Y-117381747D01*
X130876777Y-117398223D01*
X130893253Y-117416401D01*
X130907868Y-117436107D01*
X130920480Y-117457150D01*
X130930970Y-117479329D01*
X130939235Y-117502428D01*
X130945196Y-117526227D01*
X130948796Y-117550495D01*
X130950000Y-117574999D01*
X130950000Y-119425001D01*
X130948796Y-119449505D01*
X130945196Y-119473773D01*
X130939235Y-119497572D01*
X130930970Y-119520671D01*
X130920480Y-119542850D01*
X130907868Y-119563893D01*
X130893253Y-119583599D01*
X130876777Y-119601777D01*
X130858599Y-119618253D01*
X130838893Y-119632868D01*
X130817850Y-119645480D01*
X130795671Y-119655970D01*
X130772572Y-119664235D01*
X130748773Y-119670196D01*
X130724505Y-119673796D01*
X130700001Y-119675000D01*
X129874999Y-119675000D01*
X129850495Y-119673796D01*
X129826227Y-119670196D01*
X129802428Y-119664235D01*
X129779329Y-119655970D01*
X129757150Y-119645480D01*
X129736107Y-119632868D01*
X129716401Y-119618253D01*
X129698223Y-119601777D01*
X129681747Y-119583599D01*
X129667132Y-119563893D01*
X129654520Y-119542850D01*
X129644030Y-119520671D01*
X129635765Y-119497572D01*
X129629804Y-119473773D01*
X129626204Y-119449505D01*
X129625000Y-119425001D01*
X129625000Y-117574999D01*
X129626204Y-117550495D01*
X129629804Y-117526227D01*
X129635765Y-117502428D01*
X129644030Y-117479329D01*
X129654520Y-117457150D01*
X129667132Y-117436107D01*
X129681747Y-117416401D01*
X129698223Y-117398223D01*
X129716401Y-117381747D01*
X129736107Y-117367132D01*
X129757150Y-117354520D01*
X129779329Y-117344030D01*
X129802428Y-117335765D01*
X129826227Y-117329804D01*
X129850495Y-117326204D01*
X129874999Y-117325000D01*
X130700001Y-117325000D01*
X130724505Y-117326204D01*
G37*
G36*
X127649505Y-117326204D02*
G01*
X127673773Y-117329804D01*
X127697572Y-117335765D01*
X127720671Y-117344030D01*
X127742850Y-117354520D01*
X127763893Y-117367132D01*
X127783599Y-117381747D01*
X127801777Y-117398223D01*
X127818253Y-117416401D01*
X127832868Y-117436107D01*
X127845480Y-117457150D01*
X127855970Y-117479329D01*
X127864235Y-117502428D01*
X127870196Y-117526227D01*
X127873796Y-117550495D01*
X127875000Y-117574999D01*
X127875000Y-119425001D01*
X127873796Y-119449505D01*
X127870196Y-119473773D01*
X127864235Y-119497572D01*
X127855970Y-119520671D01*
X127845480Y-119542850D01*
X127832868Y-119563893D01*
X127818253Y-119583599D01*
X127801777Y-119601777D01*
X127783599Y-119618253D01*
X127763893Y-119632868D01*
X127742850Y-119645480D01*
X127720671Y-119655970D01*
X127697572Y-119664235D01*
X127673773Y-119670196D01*
X127649505Y-119673796D01*
X127625001Y-119675000D01*
X126799999Y-119675000D01*
X126775495Y-119673796D01*
X126751227Y-119670196D01*
X126727428Y-119664235D01*
X126704329Y-119655970D01*
X126682150Y-119645480D01*
X126661107Y-119632868D01*
X126641401Y-119618253D01*
X126623223Y-119601777D01*
X126606747Y-119583599D01*
X126592132Y-119563893D01*
X126579520Y-119542850D01*
X126569030Y-119520671D01*
X126560765Y-119497572D01*
X126554804Y-119473773D01*
X126551204Y-119449505D01*
X126550000Y-119425001D01*
X126550000Y-117574999D01*
X126551204Y-117550495D01*
X126554804Y-117526227D01*
X126560765Y-117502428D01*
X126569030Y-117479329D01*
X126579520Y-117457150D01*
X126592132Y-117436107D01*
X126606747Y-117416401D01*
X126623223Y-117398223D01*
X126641401Y-117381747D01*
X126661107Y-117367132D01*
X126682150Y-117354520D01*
X126704329Y-117344030D01*
X126727428Y-117335765D01*
X126751227Y-117329804D01*
X126775495Y-117326204D01*
X126799999Y-117325000D01*
X127625001Y-117325000D01*
X127649505Y-117326204D01*
G37*
G36*
X129624505Y-120551204D02*
G01*
X129648773Y-120554804D01*
X129672572Y-120560765D01*
X129695671Y-120569030D01*
X129717850Y-120579520D01*
X129738893Y-120592132D01*
X129758599Y-120606747D01*
X129776777Y-120623223D01*
X129793253Y-120641401D01*
X129807868Y-120661107D01*
X129820480Y-120682150D01*
X129830970Y-120704329D01*
X129839235Y-120727428D01*
X129845196Y-120751227D01*
X129848796Y-120775495D01*
X129850000Y-120799999D01*
X129850000Y-121700001D01*
X129848796Y-121724505D01*
X129845196Y-121748773D01*
X129839235Y-121772572D01*
X129830970Y-121795671D01*
X129820480Y-121817850D01*
X129807868Y-121838893D01*
X129793253Y-121858599D01*
X129776777Y-121876777D01*
X129758599Y-121893253D01*
X129738893Y-121907868D01*
X129717850Y-121920480D01*
X129695671Y-121930970D01*
X129672572Y-121939235D01*
X129648773Y-121945196D01*
X129624505Y-121948796D01*
X129600001Y-121950000D01*
X128949999Y-121950000D01*
X128925495Y-121948796D01*
X128901227Y-121945196D01*
X128877428Y-121939235D01*
X128854329Y-121930970D01*
X128832150Y-121920480D01*
X128811107Y-121907868D01*
X128791401Y-121893253D01*
X128773223Y-121876777D01*
X128756747Y-121858599D01*
X128742132Y-121838893D01*
X128729520Y-121817850D01*
X128719030Y-121795671D01*
X128710765Y-121772572D01*
X128704804Y-121748773D01*
X128701204Y-121724505D01*
X128700000Y-121700001D01*
X128700000Y-120799999D01*
X128701204Y-120775495D01*
X128704804Y-120751227D01*
X128710765Y-120727428D01*
X128719030Y-120704329D01*
X128729520Y-120682150D01*
X128742132Y-120661107D01*
X128756747Y-120641401D01*
X128773223Y-120623223D01*
X128791401Y-120606747D01*
X128811107Y-120592132D01*
X128832150Y-120579520D01*
X128854329Y-120569030D01*
X128877428Y-120560765D01*
X128901227Y-120554804D01*
X128925495Y-120551204D01*
X128949999Y-120550000D01*
X129600001Y-120550000D01*
X129624505Y-120551204D01*
G37*
G36*
X127574505Y-120551204D02*
G01*
X127598773Y-120554804D01*
X127622572Y-120560765D01*
X127645671Y-120569030D01*
X127667850Y-120579520D01*
X127688893Y-120592132D01*
X127708599Y-120606747D01*
X127726777Y-120623223D01*
X127743253Y-120641401D01*
X127757868Y-120661107D01*
X127770480Y-120682150D01*
X127780970Y-120704329D01*
X127789235Y-120727428D01*
X127795196Y-120751227D01*
X127798796Y-120775495D01*
X127800000Y-120799999D01*
X127800000Y-121700001D01*
X127798796Y-121724505D01*
X127795196Y-121748773D01*
X127789235Y-121772572D01*
X127780970Y-121795671D01*
X127770480Y-121817850D01*
X127757868Y-121838893D01*
X127743253Y-121858599D01*
X127726777Y-121876777D01*
X127708599Y-121893253D01*
X127688893Y-121907868D01*
X127667850Y-121920480D01*
X127645671Y-121930970D01*
X127622572Y-121939235D01*
X127598773Y-121945196D01*
X127574505Y-121948796D01*
X127550001Y-121950000D01*
X126899999Y-121950000D01*
X126875495Y-121948796D01*
X126851227Y-121945196D01*
X126827428Y-121939235D01*
X126804329Y-121930970D01*
X126782150Y-121920480D01*
X126761107Y-121907868D01*
X126741401Y-121893253D01*
X126723223Y-121876777D01*
X126706747Y-121858599D01*
X126692132Y-121838893D01*
X126679520Y-121817850D01*
X126669030Y-121795671D01*
X126660765Y-121772572D01*
X126654804Y-121748773D01*
X126651204Y-121724505D01*
X126650000Y-121700001D01*
X126650000Y-120799999D01*
X126651204Y-120775495D01*
X126654804Y-120751227D01*
X126660765Y-120727428D01*
X126669030Y-120704329D01*
X126679520Y-120682150D01*
X126692132Y-120661107D01*
X126706747Y-120641401D01*
X126723223Y-120623223D01*
X126741401Y-120606747D01*
X126761107Y-120592132D01*
X126782150Y-120579520D01*
X126804329Y-120569030D01*
X126827428Y-120560765D01*
X126851227Y-120554804D01*
X126875495Y-120551204D01*
X126899999Y-120550000D01*
X127550001Y-120550000D01*
X127574505Y-120551204D01*
G37*
G36*
X134724505Y-162151204D02*
G01*
X134748773Y-162154804D01*
X134772572Y-162160765D01*
X134795671Y-162169030D01*
X134817850Y-162179520D01*
X134838893Y-162192132D01*
X134858599Y-162206747D01*
X134876777Y-162223223D01*
X134893253Y-162241401D01*
X134907868Y-162261107D01*
X134920480Y-162282150D01*
X134930970Y-162304329D01*
X134939235Y-162327428D01*
X134945196Y-162351227D01*
X134948796Y-162375495D01*
X134950000Y-162399999D01*
X134950000Y-163050001D01*
X134948796Y-163074505D01*
X134945196Y-163098773D01*
X134939235Y-163122572D01*
X134930970Y-163145671D01*
X134920480Y-163167850D01*
X134907868Y-163188893D01*
X134893253Y-163208599D01*
X134876777Y-163226777D01*
X134858599Y-163243253D01*
X134838893Y-163257868D01*
X134817850Y-163270480D01*
X134795671Y-163280970D01*
X134772572Y-163289235D01*
X134748773Y-163295196D01*
X134724505Y-163298796D01*
X134700001Y-163300000D01*
X133799999Y-163300000D01*
X133775495Y-163298796D01*
X133751227Y-163295196D01*
X133727428Y-163289235D01*
X133704329Y-163280970D01*
X133682150Y-163270480D01*
X133661107Y-163257868D01*
X133641401Y-163243253D01*
X133623223Y-163226777D01*
X133606747Y-163208599D01*
X133592132Y-163188893D01*
X133579520Y-163167850D01*
X133569030Y-163145671D01*
X133560765Y-163122572D01*
X133554804Y-163098773D01*
X133551204Y-163074505D01*
X133550000Y-163050001D01*
X133550000Y-162399999D01*
X133551204Y-162375495D01*
X133554804Y-162351227D01*
X133560765Y-162327428D01*
X133569030Y-162304329D01*
X133579520Y-162282150D01*
X133592132Y-162261107D01*
X133606747Y-162241401D01*
X133623223Y-162223223D01*
X133641401Y-162206747D01*
X133661107Y-162192132D01*
X133682150Y-162179520D01*
X133704329Y-162169030D01*
X133727428Y-162160765D01*
X133751227Y-162154804D01*
X133775495Y-162151204D01*
X133799999Y-162150000D01*
X134700001Y-162150000D01*
X134724505Y-162151204D01*
G37*
G36*
X134724505Y-164201204D02*
G01*
X134748773Y-164204804D01*
X134772572Y-164210765D01*
X134795671Y-164219030D01*
X134817850Y-164229520D01*
X134838893Y-164242132D01*
X134858599Y-164256747D01*
X134876777Y-164273223D01*
X134893253Y-164291401D01*
X134907868Y-164311107D01*
X134920480Y-164332150D01*
X134930970Y-164354329D01*
X134939235Y-164377428D01*
X134945196Y-164401227D01*
X134948796Y-164425495D01*
X134950000Y-164449999D01*
X134950000Y-165100001D01*
X134948796Y-165124505D01*
X134945196Y-165148773D01*
X134939235Y-165172572D01*
X134930970Y-165195671D01*
X134920480Y-165217850D01*
X134907868Y-165238893D01*
X134893253Y-165258599D01*
X134876777Y-165276777D01*
X134858599Y-165293253D01*
X134838893Y-165307868D01*
X134817850Y-165320480D01*
X134795671Y-165330970D01*
X134772572Y-165339235D01*
X134748773Y-165345196D01*
X134724505Y-165348796D01*
X134700001Y-165350000D01*
X133799999Y-165350000D01*
X133775495Y-165348796D01*
X133751227Y-165345196D01*
X133727428Y-165339235D01*
X133704329Y-165330970D01*
X133682150Y-165320480D01*
X133661107Y-165307868D01*
X133641401Y-165293253D01*
X133623223Y-165276777D01*
X133606747Y-165258599D01*
X133592132Y-165238893D01*
X133579520Y-165217850D01*
X133569030Y-165195671D01*
X133560765Y-165172572D01*
X133554804Y-165148773D01*
X133551204Y-165124505D01*
X133550000Y-165100001D01*
X133550000Y-164449999D01*
X133551204Y-164425495D01*
X133554804Y-164401227D01*
X133560765Y-164377428D01*
X133569030Y-164354329D01*
X133579520Y-164332150D01*
X133592132Y-164311107D01*
X133606747Y-164291401D01*
X133623223Y-164273223D01*
X133641401Y-164256747D01*
X133661107Y-164242132D01*
X133682150Y-164229520D01*
X133704329Y-164219030D01*
X133727428Y-164210765D01*
X133751227Y-164204804D01*
X133775495Y-164201204D01*
X133799999Y-164200000D01*
X134700001Y-164200000D01*
X134724505Y-164201204D01*
G37*
G36*
X152324505Y-168801204D02*
G01*
X152348773Y-168804804D01*
X152372572Y-168810765D01*
X152395671Y-168819030D01*
X152417850Y-168829520D01*
X152438893Y-168842132D01*
X152458599Y-168856747D01*
X152476777Y-168873223D01*
X152493253Y-168891401D01*
X152507868Y-168911107D01*
X152520480Y-168932150D01*
X152530970Y-168954329D01*
X152539235Y-168977428D01*
X152545196Y-169001227D01*
X152548796Y-169025495D01*
X152550000Y-169049999D01*
X152550000Y-169950001D01*
X152548796Y-169974505D01*
X152545196Y-169998773D01*
X152539235Y-170022572D01*
X152530970Y-170045671D01*
X152520480Y-170067850D01*
X152507868Y-170088893D01*
X152493253Y-170108599D01*
X152476777Y-170126777D01*
X152458599Y-170143253D01*
X152438893Y-170157868D01*
X152417850Y-170170480D01*
X152395671Y-170180970D01*
X152372572Y-170189235D01*
X152348773Y-170195196D01*
X152324505Y-170198796D01*
X152300001Y-170200000D01*
X151649999Y-170200000D01*
X151625495Y-170198796D01*
X151601227Y-170195196D01*
X151577428Y-170189235D01*
X151554329Y-170180970D01*
X151532150Y-170170480D01*
X151511107Y-170157868D01*
X151491401Y-170143253D01*
X151473223Y-170126777D01*
X151456747Y-170108599D01*
X151442132Y-170088893D01*
X151429520Y-170067850D01*
X151419030Y-170045671D01*
X151410765Y-170022572D01*
X151404804Y-169998773D01*
X151401204Y-169974505D01*
X151400000Y-169950001D01*
X151400000Y-169049999D01*
X151401204Y-169025495D01*
X151404804Y-169001227D01*
X151410765Y-168977428D01*
X151419030Y-168954329D01*
X151429520Y-168932150D01*
X151442132Y-168911107D01*
X151456747Y-168891401D01*
X151473223Y-168873223D01*
X151491401Y-168856747D01*
X151511107Y-168842132D01*
X151532150Y-168829520D01*
X151554329Y-168819030D01*
X151577428Y-168810765D01*
X151601227Y-168804804D01*
X151625495Y-168801204D01*
X151649999Y-168800000D01*
X152300001Y-168800000D01*
X152324505Y-168801204D01*
G37*
G36*
X154374505Y-168801204D02*
G01*
X154398773Y-168804804D01*
X154422572Y-168810765D01*
X154445671Y-168819030D01*
X154467850Y-168829520D01*
X154488893Y-168842132D01*
X154508599Y-168856747D01*
X154526777Y-168873223D01*
X154543253Y-168891401D01*
X154557868Y-168911107D01*
X154570480Y-168932150D01*
X154580970Y-168954329D01*
X154589235Y-168977428D01*
X154595196Y-169001227D01*
X154598796Y-169025495D01*
X154600000Y-169049999D01*
X154600000Y-169950001D01*
X154598796Y-169974505D01*
X154595196Y-169998773D01*
X154589235Y-170022572D01*
X154580970Y-170045671D01*
X154570480Y-170067850D01*
X154557868Y-170088893D01*
X154543253Y-170108599D01*
X154526777Y-170126777D01*
X154508599Y-170143253D01*
X154488893Y-170157868D01*
X154467850Y-170170480D01*
X154445671Y-170180970D01*
X154422572Y-170189235D01*
X154398773Y-170195196D01*
X154374505Y-170198796D01*
X154350001Y-170200000D01*
X153699999Y-170200000D01*
X153675495Y-170198796D01*
X153651227Y-170195196D01*
X153627428Y-170189235D01*
X153604329Y-170180970D01*
X153582150Y-170170480D01*
X153561107Y-170157868D01*
X153541401Y-170143253D01*
X153523223Y-170126777D01*
X153506747Y-170108599D01*
X153492132Y-170088893D01*
X153479520Y-170067850D01*
X153469030Y-170045671D01*
X153460765Y-170022572D01*
X153454804Y-169998773D01*
X153451204Y-169974505D01*
X153450000Y-169950001D01*
X153450000Y-169049999D01*
X153451204Y-169025495D01*
X153454804Y-169001227D01*
X153460765Y-168977428D01*
X153469030Y-168954329D01*
X153479520Y-168932150D01*
X153492132Y-168911107D01*
X153506747Y-168891401D01*
X153523223Y-168873223D01*
X153541401Y-168856747D01*
X153561107Y-168842132D01*
X153582150Y-168829520D01*
X153604329Y-168819030D01*
X153627428Y-168810765D01*
X153651227Y-168804804D01*
X153675495Y-168801204D01*
X153699999Y-168800000D01*
X154350001Y-168800000D01*
X154374505Y-168801204D01*
G37*
G36*
X147974505Y-161901204D02*
G01*
X147998773Y-161904804D01*
X148022572Y-161910765D01*
X148045671Y-161919030D01*
X148067850Y-161929520D01*
X148088893Y-161942132D01*
X148108599Y-161956747D01*
X148126777Y-161973223D01*
X148143253Y-161991401D01*
X148157868Y-162011107D01*
X148170480Y-162032150D01*
X148180970Y-162054329D01*
X148189235Y-162077428D01*
X148195196Y-162101227D01*
X148198796Y-162125495D01*
X148200000Y-162149999D01*
X148200000Y-162800001D01*
X148198796Y-162824505D01*
X148195196Y-162848773D01*
X148189235Y-162872572D01*
X148180970Y-162895671D01*
X148170480Y-162917850D01*
X148157868Y-162938893D01*
X148143253Y-162958599D01*
X148126777Y-162976777D01*
X148108599Y-162993253D01*
X148088893Y-163007868D01*
X148067850Y-163020480D01*
X148045671Y-163030970D01*
X148022572Y-163039235D01*
X147998773Y-163045196D01*
X147974505Y-163048796D01*
X147950001Y-163050000D01*
X147049999Y-163050000D01*
X147025495Y-163048796D01*
X147001227Y-163045196D01*
X146977428Y-163039235D01*
X146954329Y-163030970D01*
X146932150Y-163020480D01*
X146911107Y-163007868D01*
X146891401Y-162993253D01*
X146873223Y-162976777D01*
X146856747Y-162958599D01*
X146842132Y-162938893D01*
X146829520Y-162917850D01*
X146819030Y-162895671D01*
X146810765Y-162872572D01*
X146804804Y-162848773D01*
X146801204Y-162824505D01*
X146800000Y-162800001D01*
X146800000Y-162149999D01*
X146801204Y-162125495D01*
X146804804Y-162101227D01*
X146810765Y-162077428D01*
X146819030Y-162054329D01*
X146829520Y-162032150D01*
X146842132Y-162011107D01*
X146856747Y-161991401D01*
X146873223Y-161973223D01*
X146891401Y-161956747D01*
X146911107Y-161942132D01*
X146932150Y-161929520D01*
X146954329Y-161919030D01*
X146977428Y-161910765D01*
X147001227Y-161904804D01*
X147025495Y-161901204D01*
X147049999Y-161900000D01*
X147950001Y-161900000D01*
X147974505Y-161901204D01*
G37*
G36*
X147974505Y-163951204D02*
G01*
X147998773Y-163954804D01*
X148022572Y-163960765D01*
X148045671Y-163969030D01*
X148067850Y-163979520D01*
X148088893Y-163992132D01*
X148108599Y-164006747D01*
X148126777Y-164023223D01*
X148143253Y-164041401D01*
X148157868Y-164061107D01*
X148170480Y-164082150D01*
X148180970Y-164104329D01*
X148189235Y-164127428D01*
X148195196Y-164151227D01*
X148198796Y-164175495D01*
X148200000Y-164199999D01*
X148200000Y-164850001D01*
X148198796Y-164874505D01*
X148195196Y-164898773D01*
X148189235Y-164922572D01*
X148180970Y-164945671D01*
X148170480Y-164967850D01*
X148157868Y-164988893D01*
X148143253Y-165008599D01*
X148126777Y-165026777D01*
X148108599Y-165043253D01*
X148088893Y-165057868D01*
X148067850Y-165070480D01*
X148045671Y-165080970D01*
X148022572Y-165089235D01*
X147998773Y-165095196D01*
X147974505Y-165098796D01*
X147950001Y-165100000D01*
X147049999Y-165100000D01*
X147025495Y-165098796D01*
X147001227Y-165095196D01*
X146977428Y-165089235D01*
X146954329Y-165080970D01*
X146932150Y-165070480D01*
X146911107Y-165057868D01*
X146891401Y-165043253D01*
X146873223Y-165026777D01*
X146856747Y-165008599D01*
X146842132Y-164988893D01*
X146829520Y-164967850D01*
X146819030Y-164945671D01*
X146810765Y-164922572D01*
X146804804Y-164898773D01*
X146801204Y-164874505D01*
X146800000Y-164850001D01*
X146800000Y-164199999D01*
X146801204Y-164175495D01*
X146804804Y-164151227D01*
X146810765Y-164127428D01*
X146819030Y-164104329D01*
X146829520Y-164082150D01*
X146842132Y-164061107D01*
X146856747Y-164041401D01*
X146873223Y-164023223D01*
X146891401Y-164006747D01*
X146911107Y-163992132D01*
X146932150Y-163979520D01*
X146954329Y-163969030D01*
X146977428Y-163960765D01*
X147001227Y-163954804D01*
X147025495Y-163951204D01*
X147049999Y-163950000D01*
X147950001Y-163950000D01*
X147974505Y-163951204D01*
G37*
G36*
X153899505Y-152326204D02*
G01*
X153923773Y-152329804D01*
X153947572Y-152335765D01*
X153970671Y-152344030D01*
X153992850Y-152354520D01*
X154013893Y-152367132D01*
X154033599Y-152381747D01*
X154051777Y-152398223D01*
X154068253Y-152416401D01*
X154082868Y-152436107D01*
X154095480Y-152457150D01*
X154105970Y-152479329D01*
X154114235Y-152502428D01*
X154120196Y-152526227D01*
X154123796Y-152550495D01*
X154125000Y-152574999D01*
X154125000Y-154425001D01*
X154123796Y-154449505D01*
X154120196Y-154473773D01*
X154114235Y-154497572D01*
X154105970Y-154520671D01*
X154095480Y-154542850D01*
X154082868Y-154563893D01*
X154068253Y-154583599D01*
X154051777Y-154601777D01*
X154033599Y-154618253D01*
X154013893Y-154632868D01*
X153992850Y-154645480D01*
X153970671Y-154655970D01*
X153947572Y-154664235D01*
X153923773Y-154670196D01*
X153899505Y-154673796D01*
X153875001Y-154675000D01*
X153049999Y-154675000D01*
X153025495Y-154673796D01*
X153001227Y-154670196D01*
X152977428Y-154664235D01*
X152954329Y-154655970D01*
X152932150Y-154645480D01*
X152911107Y-154632868D01*
X152891401Y-154618253D01*
X152873223Y-154601777D01*
X152856747Y-154583599D01*
X152842132Y-154563893D01*
X152829520Y-154542850D01*
X152819030Y-154520671D01*
X152810765Y-154497572D01*
X152804804Y-154473773D01*
X152801204Y-154449505D01*
X152800000Y-154425001D01*
X152800000Y-152574999D01*
X152801204Y-152550495D01*
X152804804Y-152526227D01*
X152810765Y-152502428D01*
X152819030Y-152479329D01*
X152829520Y-152457150D01*
X152842132Y-152436107D01*
X152856747Y-152416401D01*
X152873223Y-152398223D01*
X152891401Y-152381747D01*
X152911107Y-152367132D01*
X152932150Y-152354520D01*
X152954329Y-152344030D01*
X152977428Y-152335765D01*
X153001227Y-152329804D01*
X153025495Y-152326204D01*
X153049999Y-152325000D01*
X153875001Y-152325000D01*
X153899505Y-152326204D01*
G37*
G36*
X156974505Y-152326204D02*
G01*
X156998773Y-152329804D01*
X157022572Y-152335765D01*
X157045671Y-152344030D01*
X157067850Y-152354520D01*
X157088893Y-152367132D01*
X157108599Y-152381747D01*
X157126777Y-152398223D01*
X157143253Y-152416401D01*
X157157868Y-152436107D01*
X157170480Y-152457150D01*
X157180970Y-152479329D01*
X157189235Y-152502428D01*
X157195196Y-152526227D01*
X157198796Y-152550495D01*
X157200000Y-152574999D01*
X157200000Y-154425001D01*
X157198796Y-154449505D01*
X157195196Y-154473773D01*
X157189235Y-154497572D01*
X157180970Y-154520671D01*
X157170480Y-154542850D01*
X157157868Y-154563893D01*
X157143253Y-154583599D01*
X157126777Y-154601777D01*
X157108599Y-154618253D01*
X157088893Y-154632868D01*
X157067850Y-154645480D01*
X157045671Y-154655970D01*
X157022572Y-154664235D01*
X156998773Y-154670196D01*
X156974505Y-154673796D01*
X156950001Y-154675000D01*
X156124999Y-154675000D01*
X156100495Y-154673796D01*
X156076227Y-154670196D01*
X156052428Y-154664235D01*
X156029329Y-154655970D01*
X156007150Y-154645480D01*
X155986107Y-154632868D01*
X155966401Y-154618253D01*
X155948223Y-154601777D01*
X155931747Y-154583599D01*
X155917132Y-154563893D01*
X155904520Y-154542850D01*
X155894030Y-154520671D01*
X155885765Y-154497572D01*
X155879804Y-154473773D01*
X155876204Y-154449505D01*
X155875000Y-154425001D01*
X155875000Y-152574999D01*
X155876204Y-152550495D01*
X155879804Y-152526227D01*
X155885765Y-152502428D01*
X155894030Y-152479329D01*
X155904520Y-152457150D01*
X155917132Y-152436107D01*
X155931747Y-152416401D01*
X155948223Y-152398223D01*
X155966401Y-152381747D01*
X155986107Y-152367132D01*
X156007150Y-152354520D01*
X156029329Y-152344030D01*
X156052428Y-152335765D01*
X156076227Y-152329804D01*
X156100495Y-152326204D01*
X156124999Y-152325000D01*
X156950001Y-152325000D01*
X156974505Y-152326204D01*
G37*
G36*
X190343255Y-111551204D02*
G01*
X190367523Y-111554804D01*
X190391322Y-111560765D01*
X190414421Y-111569030D01*
X190436600Y-111579520D01*
X190457643Y-111592132D01*
X190477349Y-111606747D01*
X190495527Y-111623223D01*
X190512003Y-111641401D01*
X190526618Y-111661107D01*
X190539230Y-111682150D01*
X190549720Y-111704329D01*
X190557985Y-111727428D01*
X190563946Y-111751227D01*
X190567546Y-111775495D01*
X190568750Y-111799999D01*
X190568750Y-112700001D01*
X190567546Y-112724505D01*
X190563946Y-112748773D01*
X190557985Y-112772572D01*
X190549720Y-112795671D01*
X190539230Y-112817850D01*
X190526618Y-112838893D01*
X190512003Y-112858599D01*
X190495527Y-112876777D01*
X190477349Y-112893253D01*
X190457643Y-112907868D01*
X190436600Y-112920480D01*
X190414421Y-112930970D01*
X190391322Y-112939235D01*
X190367523Y-112945196D01*
X190343255Y-112948796D01*
X190318751Y-112950000D01*
X189668749Y-112950000D01*
X189644245Y-112948796D01*
X189619977Y-112945196D01*
X189596178Y-112939235D01*
X189573079Y-112930970D01*
X189550900Y-112920480D01*
X189529857Y-112907868D01*
X189510151Y-112893253D01*
X189491973Y-112876777D01*
X189475497Y-112858599D01*
X189460882Y-112838893D01*
X189448270Y-112817850D01*
X189437780Y-112795671D01*
X189429515Y-112772572D01*
X189423554Y-112748773D01*
X189419954Y-112724505D01*
X189418750Y-112700001D01*
X189418750Y-111799999D01*
X189419954Y-111775495D01*
X189423554Y-111751227D01*
X189429515Y-111727428D01*
X189437780Y-111704329D01*
X189448270Y-111682150D01*
X189460882Y-111661107D01*
X189475497Y-111641401D01*
X189491973Y-111623223D01*
X189510151Y-111606747D01*
X189529857Y-111592132D01*
X189550900Y-111579520D01*
X189573079Y-111569030D01*
X189596178Y-111560765D01*
X189619977Y-111554804D01*
X189644245Y-111551204D01*
X189668749Y-111550000D01*
X190318751Y-111550000D01*
X190343255Y-111551204D01*
G37*
G36*
X188293255Y-111551204D02*
G01*
X188317523Y-111554804D01*
X188341322Y-111560765D01*
X188364421Y-111569030D01*
X188386600Y-111579520D01*
X188407643Y-111592132D01*
X188427349Y-111606747D01*
X188445527Y-111623223D01*
X188462003Y-111641401D01*
X188476618Y-111661107D01*
X188489230Y-111682150D01*
X188499720Y-111704329D01*
X188507985Y-111727428D01*
X188513946Y-111751227D01*
X188517546Y-111775495D01*
X188518750Y-111799999D01*
X188518750Y-112700001D01*
X188517546Y-112724505D01*
X188513946Y-112748773D01*
X188507985Y-112772572D01*
X188499720Y-112795671D01*
X188489230Y-112817850D01*
X188476618Y-112838893D01*
X188462003Y-112858599D01*
X188445527Y-112876777D01*
X188427349Y-112893253D01*
X188407643Y-112907868D01*
X188386600Y-112920480D01*
X188364421Y-112930970D01*
X188341322Y-112939235D01*
X188317523Y-112945196D01*
X188293255Y-112948796D01*
X188268751Y-112950000D01*
X187618749Y-112950000D01*
X187594245Y-112948796D01*
X187569977Y-112945196D01*
X187546178Y-112939235D01*
X187523079Y-112930970D01*
X187500900Y-112920480D01*
X187479857Y-112907868D01*
X187460151Y-112893253D01*
X187441973Y-112876777D01*
X187425497Y-112858599D01*
X187410882Y-112838893D01*
X187398270Y-112817850D01*
X187387780Y-112795671D01*
X187379515Y-112772572D01*
X187373554Y-112748773D01*
X187369954Y-112724505D01*
X187368750Y-112700001D01*
X187368750Y-111799999D01*
X187369954Y-111775495D01*
X187373554Y-111751227D01*
X187379515Y-111727428D01*
X187387780Y-111704329D01*
X187398270Y-111682150D01*
X187410882Y-111661107D01*
X187425497Y-111641401D01*
X187441973Y-111623223D01*
X187460151Y-111606747D01*
X187479857Y-111592132D01*
X187500900Y-111579520D01*
X187523079Y-111569030D01*
X187546178Y-111560765D01*
X187569977Y-111554804D01*
X187594245Y-111551204D01*
X187618749Y-111550000D01*
X188268751Y-111550000D01*
X188293255Y-111551204D01*
G37*
D11*
X173000000Y-107000000D03*
X173000000Y-108900000D03*
X171000000Y-107000000D03*
X171000000Y-108900000D03*
D12*
X123500000Y-165750000D03*
X123500000Y-161750000D03*
D11*
X161500000Y-100600000D03*
X161500000Y-102500000D03*
X163500000Y-100600000D03*
X163500000Y-102500000D03*
X161500000Y-108900000D03*
X161500000Y-107000000D03*
X159500000Y-108900000D03*
X159500000Y-107000000D03*
D13*
X147200000Y-158000000D03*
X150500000Y-158000000D03*
D14*
X159000000Y-165025000D03*
X159000000Y-161975000D03*
D15*
X182958333Y-116450000D03*
X182958333Y-114550000D03*
X184958333Y-115500000D03*
X184979166Y-109000000D03*
X182979166Y-108050000D03*
X182979166Y-109950000D03*
D10*
G36*
X185205141Y-104301174D02*
G01*
X185228802Y-104304684D01*
X185252006Y-104310496D01*
X185274528Y-104318554D01*
X185296152Y-104328782D01*
X185316669Y-104341079D01*
X185335882Y-104355329D01*
X185353606Y-104371393D01*
X185369670Y-104389117D01*
X185383920Y-104408330D01*
X185396217Y-104428847D01*
X185406445Y-104450471D01*
X185414503Y-104472993D01*
X185420315Y-104496197D01*
X185423825Y-104519858D01*
X185424999Y-104543750D01*
X185424999Y-105456250D01*
X185423825Y-105480142D01*
X185420315Y-105503803D01*
X185414503Y-105527007D01*
X185406445Y-105549529D01*
X185396217Y-105571153D01*
X185383920Y-105591670D01*
X185369670Y-105610883D01*
X185353606Y-105628607D01*
X185335882Y-105644671D01*
X185316669Y-105658921D01*
X185296152Y-105671218D01*
X185274528Y-105681446D01*
X185252006Y-105689504D01*
X185228802Y-105695316D01*
X185205141Y-105698826D01*
X185181249Y-105700000D01*
X184693749Y-105700000D01*
X184669857Y-105698826D01*
X184646196Y-105695316D01*
X184622992Y-105689504D01*
X184600470Y-105681446D01*
X184578846Y-105671218D01*
X184558329Y-105658921D01*
X184539116Y-105644671D01*
X184521392Y-105628607D01*
X184505328Y-105610883D01*
X184491078Y-105591670D01*
X184478781Y-105571153D01*
X184468553Y-105549529D01*
X184460495Y-105527007D01*
X184454683Y-105503803D01*
X184451173Y-105480142D01*
X184449999Y-105456250D01*
X184449999Y-104543750D01*
X184451173Y-104519858D01*
X184454683Y-104496197D01*
X184460495Y-104472993D01*
X184468553Y-104450471D01*
X184478781Y-104428847D01*
X184491078Y-104408330D01*
X184505328Y-104389117D01*
X184521392Y-104371393D01*
X184539116Y-104355329D01*
X184558329Y-104341079D01*
X184578846Y-104328782D01*
X184600470Y-104318554D01*
X184622992Y-104310496D01*
X184646196Y-104304684D01*
X184669857Y-104301174D01*
X184693749Y-104300000D01*
X185181249Y-104300000D01*
X185205141Y-104301174D01*
G37*
G36*
X183330141Y-104301174D02*
G01*
X183353802Y-104304684D01*
X183377006Y-104310496D01*
X183399528Y-104318554D01*
X183421152Y-104328782D01*
X183441669Y-104341079D01*
X183460882Y-104355329D01*
X183478606Y-104371393D01*
X183494670Y-104389117D01*
X183508920Y-104408330D01*
X183521217Y-104428847D01*
X183531445Y-104450471D01*
X183539503Y-104472993D01*
X183545315Y-104496197D01*
X183548825Y-104519858D01*
X183549999Y-104543750D01*
X183549999Y-105456250D01*
X183548825Y-105480142D01*
X183545315Y-105503803D01*
X183539503Y-105527007D01*
X183531445Y-105549529D01*
X183521217Y-105571153D01*
X183508920Y-105591670D01*
X183494670Y-105610883D01*
X183478606Y-105628607D01*
X183460882Y-105644671D01*
X183441669Y-105658921D01*
X183421152Y-105671218D01*
X183399528Y-105681446D01*
X183377006Y-105689504D01*
X183353802Y-105695316D01*
X183330141Y-105698826D01*
X183306249Y-105700000D01*
X182818749Y-105700000D01*
X182794857Y-105698826D01*
X182771196Y-105695316D01*
X182747992Y-105689504D01*
X182725470Y-105681446D01*
X182703846Y-105671218D01*
X182683329Y-105658921D01*
X182664116Y-105644671D01*
X182646392Y-105628607D01*
X182630328Y-105610883D01*
X182616078Y-105591670D01*
X182603781Y-105571153D01*
X182593553Y-105549529D01*
X182585495Y-105527007D01*
X182579683Y-105503803D01*
X182576173Y-105480142D01*
X182574999Y-105456250D01*
X182574999Y-104543750D01*
X182576173Y-104519858D01*
X182579683Y-104496197D01*
X182585495Y-104472993D01*
X182593553Y-104450471D01*
X182603781Y-104428847D01*
X182616078Y-104408330D01*
X182630328Y-104389117D01*
X182646392Y-104371393D01*
X182664116Y-104355329D01*
X182683329Y-104341079D01*
X182703846Y-104328782D01*
X182725470Y-104318554D01*
X182747992Y-104310496D01*
X182771196Y-104304684D01*
X182794857Y-104301174D01*
X182818749Y-104300000D01*
X183306249Y-104300000D01*
X183330141Y-104301174D01*
G37*
G36*
X183267642Y-111801174D02*
G01*
X183291303Y-111804684D01*
X183314507Y-111810496D01*
X183337029Y-111818554D01*
X183358653Y-111828782D01*
X183379170Y-111841079D01*
X183398383Y-111855329D01*
X183416107Y-111871393D01*
X183432171Y-111889117D01*
X183446421Y-111908330D01*
X183458718Y-111928847D01*
X183468946Y-111950471D01*
X183477004Y-111972993D01*
X183482816Y-111996197D01*
X183486326Y-112019858D01*
X183487500Y-112043750D01*
X183487500Y-112956250D01*
X183486326Y-112980142D01*
X183482816Y-113003803D01*
X183477004Y-113027007D01*
X183468946Y-113049529D01*
X183458718Y-113071153D01*
X183446421Y-113091670D01*
X183432171Y-113110883D01*
X183416107Y-113128607D01*
X183398383Y-113144671D01*
X183379170Y-113158921D01*
X183358653Y-113171218D01*
X183337029Y-113181446D01*
X183314507Y-113189504D01*
X183291303Y-113195316D01*
X183267642Y-113198826D01*
X183243750Y-113200000D01*
X182756250Y-113200000D01*
X182732358Y-113198826D01*
X182708697Y-113195316D01*
X182685493Y-113189504D01*
X182662971Y-113181446D01*
X182641347Y-113171218D01*
X182620830Y-113158921D01*
X182601617Y-113144671D01*
X182583893Y-113128607D01*
X182567829Y-113110883D01*
X182553579Y-113091670D01*
X182541282Y-113071153D01*
X182531054Y-113049529D01*
X182522996Y-113027007D01*
X182517184Y-113003803D01*
X182513674Y-112980142D01*
X182512500Y-112956250D01*
X182512500Y-112043750D01*
X182513674Y-112019858D01*
X182517184Y-111996197D01*
X182522996Y-111972993D01*
X182531054Y-111950471D01*
X182541282Y-111928847D01*
X182553579Y-111908330D01*
X182567829Y-111889117D01*
X182583893Y-111871393D01*
X182601617Y-111855329D01*
X182620830Y-111841079D01*
X182641347Y-111828782D01*
X182662971Y-111818554D01*
X182685493Y-111810496D01*
X182708697Y-111804684D01*
X182732358Y-111801174D01*
X182756250Y-111800000D01*
X183243750Y-111800000D01*
X183267642Y-111801174D01*
G37*
G36*
X185142642Y-111801174D02*
G01*
X185166303Y-111804684D01*
X185189507Y-111810496D01*
X185212029Y-111818554D01*
X185233653Y-111828782D01*
X185254170Y-111841079D01*
X185273383Y-111855329D01*
X185291107Y-111871393D01*
X185307171Y-111889117D01*
X185321421Y-111908330D01*
X185333718Y-111928847D01*
X185343946Y-111950471D01*
X185352004Y-111972993D01*
X185357816Y-111996197D01*
X185361326Y-112019858D01*
X185362500Y-112043750D01*
X185362500Y-112956250D01*
X185361326Y-112980142D01*
X185357816Y-113003803D01*
X185352004Y-113027007D01*
X185343946Y-113049529D01*
X185333718Y-113071153D01*
X185321421Y-113091670D01*
X185307171Y-113110883D01*
X185291107Y-113128607D01*
X185273383Y-113144671D01*
X185254170Y-113158921D01*
X185233653Y-113171218D01*
X185212029Y-113181446D01*
X185189507Y-113189504D01*
X185166303Y-113195316D01*
X185142642Y-113198826D01*
X185118750Y-113200000D01*
X184631250Y-113200000D01*
X184607358Y-113198826D01*
X184583697Y-113195316D01*
X184560493Y-113189504D01*
X184537971Y-113181446D01*
X184516347Y-113171218D01*
X184495830Y-113158921D01*
X184476617Y-113144671D01*
X184458893Y-113128607D01*
X184442829Y-113110883D01*
X184428579Y-113091670D01*
X184416282Y-113071153D01*
X184406054Y-113049529D01*
X184397996Y-113027007D01*
X184392184Y-113003803D01*
X184388674Y-112980142D01*
X184387500Y-112956250D01*
X184387500Y-112043750D01*
X184388674Y-112019858D01*
X184392184Y-111996197D01*
X184397996Y-111972993D01*
X184406054Y-111950471D01*
X184416282Y-111928847D01*
X184428579Y-111908330D01*
X184442829Y-111889117D01*
X184458893Y-111871393D01*
X184476617Y-111855329D01*
X184495830Y-111841079D01*
X184516347Y-111828782D01*
X184537971Y-111818554D01*
X184560493Y-111810496D01*
X184583697Y-111804684D01*
X184607358Y-111801174D01*
X184631250Y-111800000D01*
X185118750Y-111800000D01*
X185142642Y-111801174D01*
G37*
G36*
X160267642Y-157301174D02*
G01*
X160291303Y-157304684D01*
X160314507Y-157310496D01*
X160337029Y-157318554D01*
X160358653Y-157328782D01*
X160379170Y-157341079D01*
X160398383Y-157355329D01*
X160416107Y-157371393D01*
X160432171Y-157389117D01*
X160446421Y-157408330D01*
X160458718Y-157428847D01*
X160468946Y-157450471D01*
X160477004Y-157472993D01*
X160482816Y-157496197D01*
X160486326Y-157519858D01*
X160487500Y-157543750D01*
X160487500Y-158456250D01*
X160486326Y-158480142D01*
X160482816Y-158503803D01*
X160477004Y-158527007D01*
X160468946Y-158549529D01*
X160458718Y-158571153D01*
X160446421Y-158591670D01*
X160432171Y-158610883D01*
X160416107Y-158628607D01*
X160398383Y-158644671D01*
X160379170Y-158658921D01*
X160358653Y-158671218D01*
X160337029Y-158681446D01*
X160314507Y-158689504D01*
X160291303Y-158695316D01*
X160267642Y-158698826D01*
X160243750Y-158700000D01*
X159756250Y-158700000D01*
X159732358Y-158698826D01*
X159708697Y-158695316D01*
X159685493Y-158689504D01*
X159662971Y-158681446D01*
X159641347Y-158671218D01*
X159620830Y-158658921D01*
X159601617Y-158644671D01*
X159583893Y-158628607D01*
X159567829Y-158610883D01*
X159553579Y-158591670D01*
X159541282Y-158571153D01*
X159531054Y-158549529D01*
X159522996Y-158527007D01*
X159517184Y-158503803D01*
X159513674Y-158480142D01*
X159512500Y-158456250D01*
X159512500Y-157543750D01*
X159513674Y-157519858D01*
X159517184Y-157496197D01*
X159522996Y-157472993D01*
X159531054Y-157450471D01*
X159541282Y-157428847D01*
X159553579Y-157408330D01*
X159567829Y-157389117D01*
X159583893Y-157371393D01*
X159601617Y-157355329D01*
X159620830Y-157341079D01*
X159641347Y-157328782D01*
X159662971Y-157318554D01*
X159685493Y-157310496D01*
X159708697Y-157304684D01*
X159732358Y-157301174D01*
X159756250Y-157300000D01*
X160243750Y-157300000D01*
X160267642Y-157301174D01*
G37*
G36*
X158392642Y-157301174D02*
G01*
X158416303Y-157304684D01*
X158439507Y-157310496D01*
X158462029Y-157318554D01*
X158483653Y-157328782D01*
X158504170Y-157341079D01*
X158523383Y-157355329D01*
X158541107Y-157371393D01*
X158557171Y-157389117D01*
X158571421Y-157408330D01*
X158583718Y-157428847D01*
X158593946Y-157450471D01*
X158602004Y-157472993D01*
X158607816Y-157496197D01*
X158611326Y-157519858D01*
X158612500Y-157543750D01*
X158612500Y-158456250D01*
X158611326Y-158480142D01*
X158607816Y-158503803D01*
X158602004Y-158527007D01*
X158593946Y-158549529D01*
X158583718Y-158571153D01*
X158571421Y-158591670D01*
X158557171Y-158610883D01*
X158541107Y-158628607D01*
X158523383Y-158644671D01*
X158504170Y-158658921D01*
X158483653Y-158671218D01*
X158462029Y-158681446D01*
X158439507Y-158689504D01*
X158416303Y-158695316D01*
X158392642Y-158698826D01*
X158368750Y-158700000D01*
X157881250Y-158700000D01*
X157857358Y-158698826D01*
X157833697Y-158695316D01*
X157810493Y-158689504D01*
X157787971Y-158681446D01*
X157766347Y-158671218D01*
X157745830Y-158658921D01*
X157726617Y-158644671D01*
X157708893Y-158628607D01*
X157692829Y-158610883D01*
X157678579Y-158591670D01*
X157666282Y-158571153D01*
X157656054Y-158549529D01*
X157647996Y-158527007D01*
X157642184Y-158503803D01*
X157638674Y-158480142D01*
X157637500Y-158456250D01*
X157637500Y-157543750D01*
X157638674Y-157519858D01*
X157642184Y-157496197D01*
X157647996Y-157472993D01*
X157656054Y-157450471D01*
X157666282Y-157428847D01*
X157678579Y-157408330D01*
X157692829Y-157389117D01*
X157708893Y-157371393D01*
X157726617Y-157355329D01*
X157745830Y-157341079D01*
X157766347Y-157328782D01*
X157787971Y-157318554D01*
X157810493Y-157310496D01*
X157833697Y-157304684D01*
X157857358Y-157301174D01*
X157881250Y-157300000D01*
X158368750Y-157300000D01*
X158392642Y-157301174D01*
G37*
G36*
X154330142Y-157301174D02*
G01*
X154353803Y-157304684D01*
X154377007Y-157310496D01*
X154399529Y-157318554D01*
X154421153Y-157328782D01*
X154441670Y-157341079D01*
X154460883Y-157355329D01*
X154478607Y-157371393D01*
X154494671Y-157389117D01*
X154508921Y-157408330D01*
X154521218Y-157428847D01*
X154531446Y-157450471D01*
X154539504Y-157472993D01*
X154545316Y-157496197D01*
X154548826Y-157519858D01*
X154550000Y-157543750D01*
X154550000Y-158456250D01*
X154548826Y-158480142D01*
X154545316Y-158503803D01*
X154539504Y-158527007D01*
X154531446Y-158549529D01*
X154521218Y-158571153D01*
X154508921Y-158591670D01*
X154494671Y-158610883D01*
X154478607Y-158628607D01*
X154460883Y-158644671D01*
X154441670Y-158658921D01*
X154421153Y-158671218D01*
X154399529Y-158681446D01*
X154377007Y-158689504D01*
X154353803Y-158695316D01*
X154330142Y-158698826D01*
X154306250Y-158700000D01*
X153818750Y-158700000D01*
X153794858Y-158698826D01*
X153771197Y-158695316D01*
X153747993Y-158689504D01*
X153725471Y-158681446D01*
X153703847Y-158671218D01*
X153683330Y-158658921D01*
X153664117Y-158644671D01*
X153646393Y-158628607D01*
X153630329Y-158610883D01*
X153616079Y-158591670D01*
X153603782Y-158571153D01*
X153593554Y-158549529D01*
X153585496Y-158527007D01*
X153579684Y-158503803D01*
X153576174Y-158480142D01*
X153575000Y-158456250D01*
X153575000Y-157543750D01*
X153576174Y-157519858D01*
X153579684Y-157496197D01*
X153585496Y-157472993D01*
X153593554Y-157450471D01*
X153603782Y-157428847D01*
X153616079Y-157408330D01*
X153630329Y-157389117D01*
X153646393Y-157371393D01*
X153664117Y-157355329D01*
X153683330Y-157341079D01*
X153703847Y-157328782D01*
X153725471Y-157318554D01*
X153747993Y-157310496D01*
X153771197Y-157304684D01*
X153794858Y-157301174D01*
X153818750Y-157300000D01*
X154306250Y-157300000D01*
X154330142Y-157301174D01*
G37*
G36*
X156205142Y-157301174D02*
G01*
X156228803Y-157304684D01*
X156252007Y-157310496D01*
X156274529Y-157318554D01*
X156296153Y-157328782D01*
X156316670Y-157341079D01*
X156335883Y-157355329D01*
X156353607Y-157371393D01*
X156369671Y-157389117D01*
X156383921Y-157408330D01*
X156396218Y-157428847D01*
X156406446Y-157450471D01*
X156414504Y-157472993D01*
X156420316Y-157496197D01*
X156423826Y-157519858D01*
X156425000Y-157543750D01*
X156425000Y-158456250D01*
X156423826Y-158480142D01*
X156420316Y-158503803D01*
X156414504Y-158527007D01*
X156406446Y-158549529D01*
X156396218Y-158571153D01*
X156383921Y-158591670D01*
X156369671Y-158610883D01*
X156353607Y-158628607D01*
X156335883Y-158644671D01*
X156316670Y-158658921D01*
X156296153Y-158671218D01*
X156274529Y-158681446D01*
X156252007Y-158689504D01*
X156228803Y-158695316D01*
X156205142Y-158698826D01*
X156181250Y-158700000D01*
X155693750Y-158700000D01*
X155669858Y-158698826D01*
X155646197Y-158695316D01*
X155622993Y-158689504D01*
X155600471Y-158681446D01*
X155578847Y-158671218D01*
X155558330Y-158658921D01*
X155539117Y-158644671D01*
X155521393Y-158628607D01*
X155505329Y-158610883D01*
X155491079Y-158591670D01*
X155478782Y-158571153D01*
X155468554Y-158549529D01*
X155460496Y-158527007D01*
X155454684Y-158503803D01*
X155451174Y-158480142D01*
X155450000Y-158456250D01*
X155450000Y-157543750D01*
X155451174Y-157519858D01*
X155454684Y-157496197D01*
X155460496Y-157472993D01*
X155468554Y-157450471D01*
X155478782Y-157428847D01*
X155491079Y-157408330D01*
X155505329Y-157389117D01*
X155521393Y-157371393D01*
X155539117Y-157355329D01*
X155558330Y-157341079D01*
X155578847Y-157328782D01*
X155600471Y-157318554D01*
X155622993Y-157310496D01*
X155646197Y-157304684D01*
X155669858Y-157301174D01*
X155693750Y-157300000D01*
X156181250Y-157300000D01*
X156205142Y-157301174D01*
G37*
G36*
X190205142Y-114801174D02*
G01*
X190228803Y-114804684D01*
X190252007Y-114810496D01*
X190274529Y-114818554D01*
X190296153Y-114828782D01*
X190316670Y-114841079D01*
X190335883Y-114855329D01*
X190353607Y-114871393D01*
X190369671Y-114889117D01*
X190383921Y-114908330D01*
X190396218Y-114928847D01*
X190406446Y-114950471D01*
X190414504Y-114972993D01*
X190420316Y-114996197D01*
X190423826Y-115019858D01*
X190425000Y-115043750D01*
X190425000Y-115956250D01*
X190423826Y-115980142D01*
X190420316Y-116003803D01*
X190414504Y-116027007D01*
X190406446Y-116049529D01*
X190396218Y-116071153D01*
X190383921Y-116091670D01*
X190369671Y-116110883D01*
X190353607Y-116128607D01*
X190335883Y-116144671D01*
X190316670Y-116158921D01*
X190296153Y-116171218D01*
X190274529Y-116181446D01*
X190252007Y-116189504D01*
X190228803Y-116195316D01*
X190205142Y-116198826D01*
X190181250Y-116200000D01*
X189693750Y-116200000D01*
X189669858Y-116198826D01*
X189646197Y-116195316D01*
X189622993Y-116189504D01*
X189600471Y-116181446D01*
X189578847Y-116171218D01*
X189558330Y-116158921D01*
X189539117Y-116144671D01*
X189521393Y-116128607D01*
X189505329Y-116110883D01*
X189491079Y-116091670D01*
X189478782Y-116071153D01*
X189468554Y-116049529D01*
X189460496Y-116027007D01*
X189454684Y-116003803D01*
X189451174Y-115980142D01*
X189450000Y-115956250D01*
X189450000Y-115043750D01*
X189451174Y-115019858D01*
X189454684Y-114996197D01*
X189460496Y-114972993D01*
X189468554Y-114950471D01*
X189478782Y-114928847D01*
X189491079Y-114908330D01*
X189505329Y-114889117D01*
X189521393Y-114871393D01*
X189539117Y-114855329D01*
X189558330Y-114841079D01*
X189578847Y-114828782D01*
X189600471Y-114818554D01*
X189622993Y-114810496D01*
X189646197Y-114804684D01*
X189669858Y-114801174D01*
X189693750Y-114800000D01*
X190181250Y-114800000D01*
X190205142Y-114801174D01*
G37*
G36*
X188330142Y-114801174D02*
G01*
X188353803Y-114804684D01*
X188377007Y-114810496D01*
X188399529Y-114818554D01*
X188421153Y-114828782D01*
X188441670Y-114841079D01*
X188460883Y-114855329D01*
X188478607Y-114871393D01*
X188494671Y-114889117D01*
X188508921Y-114908330D01*
X188521218Y-114928847D01*
X188531446Y-114950471D01*
X188539504Y-114972993D01*
X188545316Y-114996197D01*
X188548826Y-115019858D01*
X188550000Y-115043750D01*
X188550000Y-115956250D01*
X188548826Y-115980142D01*
X188545316Y-116003803D01*
X188539504Y-116027007D01*
X188531446Y-116049529D01*
X188521218Y-116071153D01*
X188508921Y-116091670D01*
X188494671Y-116110883D01*
X188478607Y-116128607D01*
X188460883Y-116144671D01*
X188441670Y-116158921D01*
X188421153Y-116171218D01*
X188399529Y-116181446D01*
X188377007Y-116189504D01*
X188353803Y-116195316D01*
X188330142Y-116198826D01*
X188306250Y-116200000D01*
X187818750Y-116200000D01*
X187794858Y-116198826D01*
X187771197Y-116195316D01*
X187747993Y-116189504D01*
X187725471Y-116181446D01*
X187703847Y-116171218D01*
X187683330Y-116158921D01*
X187664117Y-116144671D01*
X187646393Y-116128607D01*
X187630329Y-116110883D01*
X187616079Y-116091670D01*
X187603782Y-116071153D01*
X187593554Y-116049529D01*
X187585496Y-116027007D01*
X187579684Y-116003803D01*
X187576174Y-115980142D01*
X187575000Y-115956250D01*
X187575000Y-115043750D01*
X187576174Y-115019858D01*
X187579684Y-114996197D01*
X187585496Y-114972993D01*
X187593554Y-114950471D01*
X187603782Y-114928847D01*
X187616079Y-114908330D01*
X187630329Y-114889117D01*
X187646393Y-114871393D01*
X187664117Y-114855329D01*
X187683330Y-114841079D01*
X187703847Y-114828782D01*
X187725471Y-114818554D01*
X187747993Y-114810496D01*
X187771197Y-114804684D01*
X187794858Y-114801174D01*
X187818750Y-114800000D01*
X188306250Y-114800000D01*
X188330142Y-114801174D01*
G37*
G36*
X188267642Y-108301174D02*
G01*
X188291303Y-108304684D01*
X188314507Y-108310496D01*
X188337029Y-108318554D01*
X188358653Y-108328782D01*
X188379170Y-108341079D01*
X188398383Y-108355329D01*
X188416107Y-108371393D01*
X188432171Y-108389117D01*
X188446421Y-108408330D01*
X188458718Y-108428847D01*
X188468946Y-108450471D01*
X188477004Y-108472993D01*
X188482816Y-108496197D01*
X188486326Y-108519858D01*
X188487500Y-108543750D01*
X188487500Y-109456250D01*
X188486326Y-109480142D01*
X188482816Y-109503803D01*
X188477004Y-109527007D01*
X188468946Y-109549529D01*
X188458718Y-109571153D01*
X188446421Y-109591670D01*
X188432171Y-109610883D01*
X188416107Y-109628607D01*
X188398383Y-109644671D01*
X188379170Y-109658921D01*
X188358653Y-109671218D01*
X188337029Y-109681446D01*
X188314507Y-109689504D01*
X188291303Y-109695316D01*
X188267642Y-109698826D01*
X188243750Y-109700000D01*
X187756250Y-109700000D01*
X187732358Y-109698826D01*
X187708697Y-109695316D01*
X187685493Y-109689504D01*
X187662971Y-109681446D01*
X187641347Y-109671218D01*
X187620830Y-109658921D01*
X187601617Y-109644671D01*
X187583893Y-109628607D01*
X187567829Y-109610883D01*
X187553579Y-109591670D01*
X187541282Y-109571153D01*
X187531054Y-109549529D01*
X187522996Y-109527007D01*
X187517184Y-109503803D01*
X187513674Y-109480142D01*
X187512500Y-109456250D01*
X187512500Y-108543750D01*
X187513674Y-108519858D01*
X187517184Y-108496197D01*
X187522996Y-108472993D01*
X187531054Y-108450471D01*
X187541282Y-108428847D01*
X187553579Y-108408330D01*
X187567829Y-108389117D01*
X187583893Y-108371393D01*
X187601617Y-108355329D01*
X187620830Y-108341079D01*
X187641347Y-108328782D01*
X187662971Y-108318554D01*
X187685493Y-108310496D01*
X187708697Y-108304684D01*
X187732358Y-108301174D01*
X187756250Y-108300000D01*
X188243750Y-108300000D01*
X188267642Y-108301174D01*
G37*
G36*
X190142642Y-108301174D02*
G01*
X190166303Y-108304684D01*
X190189507Y-108310496D01*
X190212029Y-108318554D01*
X190233653Y-108328782D01*
X190254170Y-108341079D01*
X190273383Y-108355329D01*
X190291107Y-108371393D01*
X190307171Y-108389117D01*
X190321421Y-108408330D01*
X190333718Y-108428847D01*
X190343946Y-108450471D01*
X190352004Y-108472993D01*
X190357816Y-108496197D01*
X190361326Y-108519858D01*
X190362500Y-108543750D01*
X190362500Y-109456250D01*
X190361326Y-109480142D01*
X190357816Y-109503803D01*
X190352004Y-109527007D01*
X190343946Y-109549529D01*
X190333718Y-109571153D01*
X190321421Y-109591670D01*
X190307171Y-109610883D01*
X190291107Y-109628607D01*
X190273383Y-109644671D01*
X190254170Y-109658921D01*
X190233653Y-109671218D01*
X190212029Y-109681446D01*
X190189507Y-109689504D01*
X190166303Y-109695316D01*
X190142642Y-109698826D01*
X190118750Y-109700000D01*
X189631250Y-109700000D01*
X189607358Y-109698826D01*
X189583697Y-109695316D01*
X189560493Y-109689504D01*
X189537971Y-109681446D01*
X189516347Y-109671218D01*
X189495830Y-109658921D01*
X189476617Y-109644671D01*
X189458893Y-109628607D01*
X189442829Y-109610883D01*
X189428579Y-109591670D01*
X189416282Y-109571153D01*
X189406054Y-109549529D01*
X189397996Y-109527007D01*
X189392184Y-109503803D01*
X189388674Y-109480142D01*
X189387500Y-109456250D01*
X189387500Y-108543750D01*
X189388674Y-108519858D01*
X189392184Y-108496197D01*
X189397996Y-108472993D01*
X189406054Y-108450471D01*
X189416282Y-108428847D01*
X189428579Y-108408330D01*
X189442829Y-108389117D01*
X189458893Y-108371393D01*
X189476617Y-108355329D01*
X189495830Y-108341079D01*
X189516347Y-108328782D01*
X189537971Y-108318554D01*
X189560493Y-108310496D01*
X189583697Y-108304684D01*
X189607358Y-108301174D01*
X189631250Y-108300000D01*
X190118750Y-108300000D01*
X190142642Y-108301174D01*
G37*
G36*
X159980142Y-100126174D02*
G01*
X160003803Y-100129684D01*
X160027007Y-100135496D01*
X160049529Y-100143554D01*
X160071153Y-100153782D01*
X160091670Y-100166079D01*
X160110883Y-100180329D01*
X160128607Y-100196393D01*
X160144671Y-100214117D01*
X160158921Y-100233330D01*
X160171218Y-100253847D01*
X160181446Y-100275471D01*
X160189504Y-100297993D01*
X160195316Y-100321197D01*
X160198826Y-100344858D01*
X160200000Y-100368750D01*
X160200000Y-100856250D01*
X160198826Y-100880142D01*
X160195316Y-100903803D01*
X160189504Y-100927007D01*
X160181446Y-100949529D01*
X160171218Y-100971153D01*
X160158921Y-100991670D01*
X160144671Y-101010883D01*
X160128607Y-101028607D01*
X160110883Y-101044671D01*
X160091670Y-101058921D01*
X160071153Y-101071218D01*
X160049529Y-101081446D01*
X160027007Y-101089504D01*
X160003803Y-101095316D01*
X159980142Y-101098826D01*
X159956250Y-101100000D01*
X159043750Y-101100000D01*
X159019858Y-101098826D01*
X158996197Y-101095316D01*
X158972993Y-101089504D01*
X158950471Y-101081446D01*
X158928847Y-101071218D01*
X158908330Y-101058921D01*
X158889117Y-101044671D01*
X158871393Y-101028607D01*
X158855329Y-101010883D01*
X158841079Y-100991670D01*
X158828782Y-100971153D01*
X158818554Y-100949529D01*
X158810496Y-100927007D01*
X158804684Y-100903803D01*
X158801174Y-100880142D01*
X158800000Y-100856250D01*
X158800000Y-100368750D01*
X158801174Y-100344858D01*
X158804684Y-100321197D01*
X158810496Y-100297993D01*
X158818554Y-100275471D01*
X158828782Y-100253847D01*
X158841079Y-100233330D01*
X158855329Y-100214117D01*
X158871393Y-100196393D01*
X158889117Y-100180329D01*
X158908330Y-100166079D01*
X158928847Y-100153782D01*
X158950471Y-100143554D01*
X158972993Y-100135496D01*
X158996197Y-100129684D01*
X159019858Y-100126174D01*
X159043750Y-100125000D01*
X159956250Y-100125000D01*
X159980142Y-100126174D01*
G37*
G36*
X159980142Y-102001174D02*
G01*
X160003803Y-102004684D01*
X160027007Y-102010496D01*
X160049529Y-102018554D01*
X160071153Y-102028782D01*
X160091670Y-102041079D01*
X160110883Y-102055329D01*
X160128607Y-102071393D01*
X160144671Y-102089117D01*
X160158921Y-102108330D01*
X160171218Y-102128847D01*
X160181446Y-102150471D01*
X160189504Y-102172993D01*
X160195316Y-102196197D01*
X160198826Y-102219858D01*
X160200000Y-102243750D01*
X160200000Y-102731250D01*
X160198826Y-102755142D01*
X160195316Y-102778803D01*
X160189504Y-102802007D01*
X160181446Y-102824529D01*
X160171218Y-102846153D01*
X160158921Y-102866670D01*
X160144671Y-102885883D01*
X160128607Y-102903607D01*
X160110883Y-102919671D01*
X160091670Y-102933921D01*
X160071153Y-102946218D01*
X160049529Y-102956446D01*
X160027007Y-102964504D01*
X160003803Y-102970316D01*
X159980142Y-102973826D01*
X159956250Y-102975000D01*
X159043750Y-102975000D01*
X159019858Y-102973826D01*
X158996197Y-102970316D01*
X158972993Y-102964504D01*
X158950471Y-102956446D01*
X158928847Y-102946218D01*
X158908330Y-102933921D01*
X158889117Y-102919671D01*
X158871393Y-102903607D01*
X158855329Y-102885883D01*
X158841079Y-102866670D01*
X158828782Y-102846153D01*
X158818554Y-102824529D01*
X158810496Y-102802007D01*
X158804684Y-102778803D01*
X158801174Y-102755142D01*
X158800000Y-102731250D01*
X158800000Y-102243750D01*
X158801174Y-102219858D01*
X158804684Y-102196197D01*
X158810496Y-102172993D01*
X158818554Y-102150471D01*
X158828782Y-102128847D01*
X158841079Y-102108330D01*
X158855329Y-102089117D01*
X158871393Y-102071393D01*
X158889117Y-102055329D01*
X158908330Y-102041079D01*
X158928847Y-102028782D01*
X158950471Y-102018554D01*
X158972993Y-102010496D01*
X158996197Y-102004684D01*
X159019858Y-102001174D01*
X159043750Y-102000000D01*
X159956250Y-102000000D01*
X159980142Y-102001174D01*
G37*
G36*
X163980142Y-106526174D02*
G01*
X164003803Y-106529684D01*
X164027007Y-106535496D01*
X164049529Y-106543554D01*
X164071153Y-106553782D01*
X164091670Y-106566079D01*
X164110883Y-106580329D01*
X164128607Y-106596393D01*
X164144671Y-106614117D01*
X164158921Y-106633330D01*
X164171218Y-106653847D01*
X164181446Y-106675471D01*
X164189504Y-106697993D01*
X164195316Y-106721197D01*
X164198826Y-106744858D01*
X164200000Y-106768750D01*
X164200000Y-107256250D01*
X164198826Y-107280142D01*
X164195316Y-107303803D01*
X164189504Y-107327007D01*
X164181446Y-107349529D01*
X164171218Y-107371153D01*
X164158921Y-107391670D01*
X164144671Y-107410883D01*
X164128607Y-107428607D01*
X164110883Y-107444671D01*
X164091670Y-107458921D01*
X164071153Y-107471218D01*
X164049529Y-107481446D01*
X164027007Y-107489504D01*
X164003803Y-107495316D01*
X163980142Y-107498826D01*
X163956250Y-107500000D01*
X163043750Y-107500000D01*
X163019858Y-107498826D01*
X162996197Y-107495316D01*
X162972993Y-107489504D01*
X162950471Y-107481446D01*
X162928847Y-107471218D01*
X162908330Y-107458921D01*
X162889117Y-107444671D01*
X162871393Y-107428607D01*
X162855329Y-107410883D01*
X162841079Y-107391670D01*
X162828782Y-107371153D01*
X162818554Y-107349529D01*
X162810496Y-107327007D01*
X162804684Y-107303803D01*
X162801174Y-107280142D01*
X162800000Y-107256250D01*
X162800000Y-106768750D01*
X162801174Y-106744858D01*
X162804684Y-106721197D01*
X162810496Y-106697993D01*
X162818554Y-106675471D01*
X162828782Y-106653847D01*
X162841079Y-106633330D01*
X162855329Y-106614117D01*
X162871393Y-106596393D01*
X162889117Y-106580329D01*
X162908330Y-106566079D01*
X162928847Y-106553782D01*
X162950471Y-106543554D01*
X162972993Y-106535496D01*
X162996197Y-106529684D01*
X163019858Y-106526174D01*
X163043750Y-106525000D01*
X163956250Y-106525000D01*
X163980142Y-106526174D01*
G37*
G36*
X163980142Y-108401174D02*
G01*
X164003803Y-108404684D01*
X164027007Y-108410496D01*
X164049529Y-108418554D01*
X164071153Y-108428782D01*
X164091670Y-108441079D01*
X164110883Y-108455329D01*
X164128607Y-108471393D01*
X164144671Y-108489117D01*
X164158921Y-108508330D01*
X164171218Y-108528847D01*
X164181446Y-108550471D01*
X164189504Y-108572993D01*
X164195316Y-108596197D01*
X164198826Y-108619858D01*
X164200000Y-108643750D01*
X164200000Y-109131250D01*
X164198826Y-109155142D01*
X164195316Y-109178803D01*
X164189504Y-109202007D01*
X164181446Y-109224529D01*
X164171218Y-109246153D01*
X164158921Y-109266670D01*
X164144671Y-109285883D01*
X164128607Y-109303607D01*
X164110883Y-109319671D01*
X164091670Y-109333921D01*
X164071153Y-109346218D01*
X164049529Y-109356446D01*
X164027007Y-109364504D01*
X164003803Y-109370316D01*
X163980142Y-109373826D01*
X163956250Y-109375000D01*
X163043750Y-109375000D01*
X163019858Y-109373826D01*
X162996197Y-109370316D01*
X162972993Y-109364504D01*
X162950471Y-109356446D01*
X162928847Y-109346218D01*
X162908330Y-109333921D01*
X162889117Y-109319671D01*
X162871393Y-109303607D01*
X162855329Y-109285883D01*
X162841079Y-109266670D01*
X162828782Y-109246153D01*
X162818554Y-109224529D01*
X162810496Y-109202007D01*
X162804684Y-109178803D01*
X162801174Y-109155142D01*
X162800000Y-109131250D01*
X162800000Y-108643750D01*
X162801174Y-108619858D01*
X162804684Y-108596197D01*
X162810496Y-108572993D01*
X162818554Y-108550471D01*
X162828782Y-108528847D01*
X162841079Y-108508330D01*
X162855329Y-108489117D01*
X162871393Y-108471393D01*
X162889117Y-108455329D01*
X162908330Y-108441079D01*
X162928847Y-108428782D01*
X162950471Y-108418554D01*
X162972993Y-108410496D01*
X162996197Y-108404684D01*
X163019858Y-108401174D01*
X163043750Y-108400000D01*
X163956250Y-108400000D01*
X163980142Y-108401174D01*
G37*
G36*
X175480142Y-108401174D02*
G01*
X175503803Y-108404684D01*
X175527007Y-108410496D01*
X175549529Y-108418554D01*
X175571153Y-108428782D01*
X175591670Y-108441079D01*
X175610883Y-108455329D01*
X175628607Y-108471393D01*
X175644671Y-108489117D01*
X175658921Y-108508330D01*
X175671218Y-108528847D01*
X175681446Y-108550471D01*
X175689504Y-108572993D01*
X175695316Y-108596197D01*
X175698826Y-108619858D01*
X175700000Y-108643750D01*
X175700000Y-109131250D01*
X175698826Y-109155142D01*
X175695316Y-109178803D01*
X175689504Y-109202007D01*
X175681446Y-109224529D01*
X175671218Y-109246153D01*
X175658921Y-109266670D01*
X175644671Y-109285883D01*
X175628607Y-109303607D01*
X175610883Y-109319671D01*
X175591670Y-109333921D01*
X175571153Y-109346218D01*
X175549529Y-109356446D01*
X175527007Y-109364504D01*
X175503803Y-109370316D01*
X175480142Y-109373826D01*
X175456250Y-109375000D01*
X174543750Y-109375000D01*
X174519858Y-109373826D01*
X174496197Y-109370316D01*
X174472993Y-109364504D01*
X174450471Y-109356446D01*
X174428847Y-109346218D01*
X174408330Y-109333921D01*
X174389117Y-109319671D01*
X174371393Y-109303607D01*
X174355329Y-109285883D01*
X174341079Y-109266670D01*
X174328782Y-109246153D01*
X174318554Y-109224529D01*
X174310496Y-109202007D01*
X174304684Y-109178803D01*
X174301174Y-109155142D01*
X174300000Y-109131250D01*
X174300000Y-108643750D01*
X174301174Y-108619858D01*
X174304684Y-108596197D01*
X174310496Y-108572993D01*
X174318554Y-108550471D01*
X174328782Y-108528847D01*
X174341079Y-108508330D01*
X174355329Y-108489117D01*
X174371393Y-108471393D01*
X174389117Y-108455329D01*
X174408330Y-108441079D01*
X174428847Y-108428782D01*
X174450471Y-108418554D01*
X174472993Y-108410496D01*
X174496197Y-108404684D01*
X174519858Y-108401174D01*
X174543750Y-108400000D01*
X175456250Y-108400000D01*
X175480142Y-108401174D01*
G37*
G36*
X175480142Y-106526174D02*
G01*
X175503803Y-106529684D01*
X175527007Y-106535496D01*
X175549529Y-106543554D01*
X175571153Y-106553782D01*
X175591670Y-106566079D01*
X175610883Y-106580329D01*
X175628607Y-106596393D01*
X175644671Y-106614117D01*
X175658921Y-106633330D01*
X175671218Y-106653847D01*
X175681446Y-106675471D01*
X175689504Y-106697993D01*
X175695316Y-106721197D01*
X175698826Y-106744858D01*
X175700000Y-106768750D01*
X175700000Y-107256250D01*
X175698826Y-107280142D01*
X175695316Y-107303803D01*
X175689504Y-107327007D01*
X175681446Y-107349529D01*
X175671218Y-107371153D01*
X175658921Y-107391670D01*
X175644671Y-107410883D01*
X175628607Y-107428607D01*
X175610883Y-107444671D01*
X175591670Y-107458921D01*
X175571153Y-107471218D01*
X175549529Y-107481446D01*
X175527007Y-107489504D01*
X175503803Y-107495316D01*
X175480142Y-107498826D01*
X175456250Y-107500000D01*
X174543750Y-107500000D01*
X174519858Y-107498826D01*
X174496197Y-107495316D01*
X174472993Y-107489504D01*
X174450471Y-107481446D01*
X174428847Y-107471218D01*
X174408330Y-107458921D01*
X174389117Y-107444671D01*
X174371393Y-107428607D01*
X174355329Y-107410883D01*
X174341079Y-107391670D01*
X174328782Y-107371153D01*
X174318554Y-107349529D01*
X174310496Y-107327007D01*
X174304684Y-107303803D01*
X174301174Y-107280142D01*
X174300000Y-107256250D01*
X174300000Y-106768750D01*
X174301174Y-106744858D01*
X174304684Y-106721197D01*
X174310496Y-106697993D01*
X174318554Y-106675471D01*
X174328782Y-106653847D01*
X174341079Y-106633330D01*
X174355329Y-106614117D01*
X174371393Y-106596393D01*
X174389117Y-106580329D01*
X174408330Y-106566079D01*
X174428847Y-106553782D01*
X174450471Y-106543554D01*
X174472993Y-106535496D01*
X174496197Y-106529684D01*
X174519858Y-106526174D01*
X174543750Y-106525000D01*
X175456250Y-106525000D01*
X175480142Y-106526174D01*
G37*
D16*
X119255000Y-106500000D03*
D17*
X126755000Y-114000000D03*
X125485000Y-114000000D03*
X124215000Y-114000000D03*
X122945000Y-114000000D03*
X121675000Y-114000000D03*
X120405000Y-114000000D03*
X119135000Y-114000000D03*
X117865000Y-114000000D03*
X116595000Y-114000000D03*
X115325000Y-114000000D03*
X114055000Y-114000000D03*
X112785000Y-114000000D03*
X111515000Y-114000000D03*
X110245000Y-114000000D03*
D18*
X109245000Y-111215000D03*
X109245000Y-109945000D03*
X109245000Y-108675000D03*
X109245000Y-107405000D03*
X109245000Y-106135000D03*
X109245000Y-104865000D03*
X109245000Y-103595000D03*
X109245000Y-102325000D03*
X109245000Y-101055000D03*
X109245000Y-99785000D03*
D17*
X110245000Y-97000000D03*
X111515000Y-97000000D03*
X112785000Y-97000000D03*
X114055000Y-97000000D03*
X115325000Y-97000000D03*
X116595000Y-97000000D03*
X117865000Y-97000000D03*
X119135000Y-97000000D03*
X120405000Y-97000000D03*
X121675000Y-97000000D03*
X122945000Y-97000000D03*
X124215000Y-97000000D03*
X125485000Y-97000000D03*
X126755000Y-97000000D03*
D19*
X151900000Y-164450000D03*
X151900000Y-163500000D03*
X151900000Y-162550000D03*
X154100000Y-162550000D03*
X154100000Y-164450000D03*
X154100000Y-163500000D03*
M02*
