G04 #@! TF.GenerationSoftware,KiCad,Pcbnew,5.1.5*
G04 #@! TF.CreationDate,2020-03-07T10:52:19+01:00*
G04 #@! TF.ProjectId,e-chessboard,652d6368-6573-4736-926f-6172642e6b69,0.2*
G04 #@! TF.SameCoordinates,Original*
G04 #@! TF.FileFunction,Paste,Bot*
G04 #@! TF.FilePolarity,Positive*
%FSLAX46Y46*%
G04 Gerber Fmt 4.6, Leading zero omitted, Abs format (unit mm)*
G04 Created by KiCad (PCBNEW 5.1.5) date 2020-03-07 10:52:19*
%MOMM*%
%LPD*%
G04 APERTURE LIST*
%ADD10C,0.100000*%
%ADD11R,1.800000X2.500000*%
%ADD12R,0.900000X1.200000*%
%ADD13R,1.500000X3.600000*%
%ADD14R,0.900000X0.800000*%
%ADD15R,5.000000X5.000000*%
%ADD16R,0.900000X2.000000*%
%ADD17R,2.000000X0.900000*%
%ADD18R,1.060000X0.650000*%
G04 APERTURE END LIST*
D10*
G36*
X188449505Y-156301204D02*
G01*
X188473773Y-156304804D01*
X188497572Y-156310765D01*
X188520671Y-156319030D01*
X188542850Y-156329520D01*
X188563893Y-156342132D01*
X188583599Y-156356747D01*
X188601777Y-156373223D01*
X188618253Y-156391401D01*
X188632868Y-156411107D01*
X188645480Y-156432150D01*
X188655970Y-156454329D01*
X188664235Y-156477428D01*
X188670196Y-156501227D01*
X188673796Y-156525495D01*
X188675000Y-156549999D01*
X188675000Y-157375001D01*
X188673796Y-157399505D01*
X188670196Y-157423773D01*
X188664235Y-157447572D01*
X188655970Y-157470671D01*
X188645480Y-157492850D01*
X188632868Y-157513893D01*
X188618253Y-157533599D01*
X188601777Y-157551777D01*
X188583599Y-157568253D01*
X188563893Y-157582868D01*
X188542850Y-157595480D01*
X188520671Y-157605970D01*
X188497572Y-157614235D01*
X188473773Y-157620196D01*
X188449505Y-157623796D01*
X188425001Y-157625000D01*
X186574999Y-157625000D01*
X186550495Y-157623796D01*
X186526227Y-157620196D01*
X186502428Y-157614235D01*
X186479329Y-157605970D01*
X186457150Y-157595480D01*
X186436107Y-157582868D01*
X186416401Y-157568253D01*
X186398223Y-157551777D01*
X186381747Y-157533599D01*
X186367132Y-157513893D01*
X186354520Y-157492850D01*
X186344030Y-157470671D01*
X186335765Y-157447572D01*
X186329804Y-157423773D01*
X186326204Y-157399505D01*
X186325000Y-157375001D01*
X186325000Y-156549999D01*
X186326204Y-156525495D01*
X186329804Y-156501227D01*
X186335765Y-156477428D01*
X186344030Y-156454329D01*
X186354520Y-156432150D01*
X186367132Y-156411107D01*
X186381747Y-156391401D01*
X186398223Y-156373223D01*
X186416401Y-156356747D01*
X186436107Y-156342132D01*
X186457150Y-156329520D01*
X186479329Y-156319030D01*
X186502428Y-156310765D01*
X186526227Y-156304804D01*
X186550495Y-156301204D01*
X186574999Y-156300000D01*
X188425001Y-156300000D01*
X188449505Y-156301204D01*
G37*
G36*
X188449505Y-159376204D02*
G01*
X188473773Y-159379804D01*
X188497572Y-159385765D01*
X188520671Y-159394030D01*
X188542850Y-159404520D01*
X188563893Y-159417132D01*
X188583599Y-159431747D01*
X188601777Y-159448223D01*
X188618253Y-159466401D01*
X188632868Y-159486107D01*
X188645480Y-159507150D01*
X188655970Y-159529329D01*
X188664235Y-159552428D01*
X188670196Y-159576227D01*
X188673796Y-159600495D01*
X188675000Y-159624999D01*
X188675000Y-160450001D01*
X188673796Y-160474505D01*
X188670196Y-160498773D01*
X188664235Y-160522572D01*
X188655970Y-160545671D01*
X188645480Y-160567850D01*
X188632868Y-160588893D01*
X188618253Y-160608599D01*
X188601777Y-160626777D01*
X188583599Y-160643253D01*
X188563893Y-160657868D01*
X188542850Y-160670480D01*
X188520671Y-160680970D01*
X188497572Y-160689235D01*
X188473773Y-160695196D01*
X188449505Y-160698796D01*
X188425001Y-160700000D01*
X186574999Y-160700000D01*
X186550495Y-160698796D01*
X186526227Y-160695196D01*
X186502428Y-160689235D01*
X186479329Y-160680970D01*
X186457150Y-160670480D01*
X186436107Y-160657868D01*
X186416401Y-160643253D01*
X186398223Y-160626777D01*
X186381747Y-160608599D01*
X186367132Y-160588893D01*
X186354520Y-160567850D01*
X186344030Y-160545671D01*
X186335765Y-160522572D01*
X186329804Y-160498773D01*
X186326204Y-160474505D01*
X186325000Y-160450001D01*
X186325000Y-159624999D01*
X186326204Y-159600495D01*
X186329804Y-159576227D01*
X186335765Y-159552428D01*
X186344030Y-159529329D01*
X186354520Y-159507150D01*
X186367132Y-159486107D01*
X186381747Y-159466401D01*
X186398223Y-159448223D01*
X186416401Y-159431747D01*
X186436107Y-159417132D01*
X186457150Y-159404520D01*
X186479329Y-159394030D01*
X186502428Y-159385765D01*
X186526227Y-159379804D01*
X186550495Y-159376204D01*
X186574999Y-159375000D01*
X188425001Y-159375000D01*
X188449505Y-159376204D01*
G37*
G36*
X184974505Y-156926204D02*
G01*
X184998773Y-156929804D01*
X185022572Y-156935765D01*
X185045671Y-156944030D01*
X185067850Y-156954520D01*
X185088893Y-156967132D01*
X185108599Y-156981747D01*
X185126777Y-156998223D01*
X185143253Y-157016401D01*
X185157868Y-157036107D01*
X185170480Y-157057150D01*
X185180970Y-157079329D01*
X185189235Y-157102428D01*
X185195196Y-157126227D01*
X185198796Y-157150495D01*
X185200000Y-157174999D01*
X185200000Y-157825001D01*
X185198796Y-157849505D01*
X185195196Y-157873773D01*
X185189235Y-157897572D01*
X185180970Y-157920671D01*
X185170480Y-157942850D01*
X185157868Y-157963893D01*
X185143253Y-157983599D01*
X185126777Y-158001777D01*
X185108599Y-158018253D01*
X185088893Y-158032868D01*
X185067850Y-158045480D01*
X185045671Y-158055970D01*
X185022572Y-158064235D01*
X184998773Y-158070196D01*
X184974505Y-158073796D01*
X184950001Y-158075000D01*
X184049999Y-158075000D01*
X184025495Y-158073796D01*
X184001227Y-158070196D01*
X183977428Y-158064235D01*
X183954329Y-158055970D01*
X183932150Y-158045480D01*
X183911107Y-158032868D01*
X183891401Y-158018253D01*
X183873223Y-158001777D01*
X183856747Y-157983599D01*
X183842132Y-157963893D01*
X183829520Y-157942850D01*
X183819030Y-157920671D01*
X183810765Y-157897572D01*
X183804804Y-157873773D01*
X183801204Y-157849505D01*
X183800000Y-157825001D01*
X183800000Y-157174999D01*
X183801204Y-157150495D01*
X183804804Y-157126227D01*
X183810765Y-157102428D01*
X183819030Y-157079329D01*
X183829520Y-157057150D01*
X183842132Y-157036107D01*
X183856747Y-157016401D01*
X183873223Y-156998223D01*
X183891401Y-156981747D01*
X183911107Y-156967132D01*
X183932150Y-156954520D01*
X183954329Y-156944030D01*
X183977428Y-156935765D01*
X184001227Y-156929804D01*
X184025495Y-156926204D01*
X184049999Y-156925000D01*
X184950001Y-156925000D01*
X184974505Y-156926204D01*
G37*
G36*
X184974505Y-158976204D02*
G01*
X184998773Y-158979804D01*
X185022572Y-158985765D01*
X185045671Y-158994030D01*
X185067850Y-159004520D01*
X185088893Y-159017132D01*
X185108599Y-159031747D01*
X185126777Y-159048223D01*
X185143253Y-159066401D01*
X185157868Y-159086107D01*
X185170480Y-159107150D01*
X185180970Y-159129329D01*
X185189235Y-159152428D01*
X185195196Y-159176227D01*
X185198796Y-159200495D01*
X185200000Y-159224999D01*
X185200000Y-159875001D01*
X185198796Y-159899505D01*
X185195196Y-159923773D01*
X185189235Y-159947572D01*
X185180970Y-159970671D01*
X185170480Y-159992850D01*
X185157868Y-160013893D01*
X185143253Y-160033599D01*
X185126777Y-160051777D01*
X185108599Y-160068253D01*
X185088893Y-160082868D01*
X185067850Y-160095480D01*
X185045671Y-160105970D01*
X185022572Y-160114235D01*
X184998773Y-160120196D01*
X184974505Y-160123796D01*
X184950001Y-160125000D01*
X184049999Y-160125000D01*
X184025495Y-160123796D01*
X184001227Y-160120196D01*
X183977428Y-160114235D01*
X183954329Y-160105970D01*
X183932150Y-160095480D01*
X183911107Y-160082868D01*
X183891401Y-160068253D01*
X183873223Y-160051777D01*
X183856747Y-160033599D01*
X183842132Y-160013893D01*
X183829520Y-159992850D01*
X183819030Y-159970671D01*
X183810765Y-159947572D01*
X183804804Y-159923773D01*
X183801204Y-159899505D01*
X183800000Y-159875001D01*
X183800000Y-159224999D01*
X183801204Y-159200495D01*
X183804804Y-159176227D01*
X183810765Y-159152428D01*
X183819030Y-159129329D01*
X183829520Y-159107150D01*
X183842132Y-159086107D01*
X183856747Y-159066401D01*
X183873223Y-159048223D01*
X183891401Y-159031747D01*
X183911107Y-159017132D01*
X183932150Y-159004520D01*
X183954329Y-158994030D01*
X183977428Y-158985765D01*
X184001227Y-158979804D01*
X184025495Y-158976204D01*
X184049999Y-158975000D01*
X184950001Y-158975000D01*
X184974505Y-158976204D01*
G37*
G36*
X138974505Y-97076204D02*
G01*
X138998773Y-97079804D01*
X139022572Y-97085765D01*
X139045671Y-97094030D01*
X139067850Y-97104520D01*
X139088893Y-97117132D01*
X139108599Y-97131747D01*
X139126777Y-97148223D01*
X139143253Y-97166401D01*
X139157868Y-97186107D01*
X139170480Y-97207150D01*
X139180970Y-97229329D01*
X139189235Y-97252428D01*
X139195196Y-97276227D01*
X139198796Y-97300495D01*
X139200000Y-97324999D01*
X139200000Y-99175001D01*
X139198796Y-99199505D01*
X139195196Y-99223773D01*
X139189235Y-99247572D01*
X139180970Y-99270671D01*
X139170480Y-99292850D01*
X139157868Y-99313893D01*
X139143253Y-99333599D01*
X139126777Y-99351777D01*
X139108599Y-99368253D01*
X139088893Y-99382868D01*
X139067850Y-99395480D01*
X139045671Y-99405970D01*
X139022572Y-99414235D01*
X138998773Y-99420196D01*
X138974505Y-99423796D01*
X138950001Y-99425000D01*
X138124999Y-99425000D01*
X138100495Y-99423796D01*
X138076227Y-99420196D01*
X138052428Y-99414235D01*
X138029329Y-99405970D01*
X138007150Y-99395480D01*
X137986107Y-99382868D01*
X137966401Y-99368253D01*
X137948223Y-99351777D01*
X137931747Y-99333599D01*
X137917132Y-99313893D01*
X137904520Y-99292850D01*
X137894030Y-99270671D01*
X137885765Y-99247572D01*
X137879804Y-99223773D01*
X137876204Y-99199505D01*
X137875000Y-99175001D01*
X137875000Y-97324999D01*
X137876204Y-97300495D01*
X137879804Y-97276227D01*
X137885765Y-97252428D01*
X137894030Y-97229329D01*
X137904520Y-97207150D01*
X137917132Y-97186107D01*
X137931747Y-97166401D01*
X137948223Y-97148223D01*
X137966401Y-97131747D01*
X137986107Y-97117132D01*
X138007150Y-97104520D01*
X138029329Y-97094030D01*
X138052428Y-97085765D01*
X138076227Y-97079804D01*
X138100495Y-97076204D01*
X138124999Y-97075000D01*
X138950001Y-97075000D01*
X138974505Y-97076204D01*
G37*
G36*
X135899505Y-97076204D02*
G01*
X135923773Y-97079804D01*
X135947572Y-97085765D01*
X135970671Y-97094030D01*
X135992850Y-97104520D01*
X136013893Y-97117132D01*
X136033599Y-97131747D01*
X136051777Y-97148223D01*
X136068253Y-97166401D01*
X136082868Y-97186107D01*
X136095480Y-97207150D01*
X136105970Y-97229329D01*
X136114235Y-97252428D01*
X136120196Y-97276227D01*
X136123796Y-97300495D01*
X136125000Y-97324999D01*
X136125000Y-99175001D01*
X136123796Y-99199505D01*
X136120196Y-99223773D01*
X136114235Y-99247572D01*
X136105970Y-99270671D01*
X136095480Y-99292850D01*
X136082868Y-99313893D01*
X136068253Y-99333599D01*
X136051777Y-99351777D01*
X136033599Y-99368253D01*
X136013893Y-99382868D01*
X135992850Y-99395480D01*
X135970671Y-99405970D01*
X135947572Y-99414235D01*
X135923773Y-99420196D01*
X135899505Y-99423796D01*
X135875001Y-99425000D01*
X135049999Y-99425000D01*
X135025495Y-99423796D01*
X135001227Y-99420196D01*
X134977428Y-99414235D01*
X134954329Y-99405970D01*
X134932150Y-99395480D01*
X134911107Y-99382868D01*
X134891401Y-99368253D01*
X134873223Y-99351777D01*
X134856747Y-99333599D01*
X134842132Y-99313893D01*
X134829520Y-99292850D01*
X134819030Y-99270671D01*
X134810765Y-99247572D01*
X134804804Y-99223773D01*
X134801204Y-99199505D01*
X134800000Y-99175001D01*
X134800000Y-97324999D01*
X134801204Y-97300495D01*
X134804804Y-97276227D01*
X134810765Y-97252428D01*
X134819030Y-97229329D01*
X134829520Y-97207150D01*
X134842132Y-97186107D01*
X134856747Y-97166401D01*
X134873223Y-97148223D01*
X134891401Y-97131747D01*
X134911107Y-97117132D01*
X134932150Y-97104520D01*
X134954329Y-97094030D01*
X134977428Y-97085765D01*
X135001227Y-97079804D01*
X135025495Y-97076204D01*
X135049999Y-97075000D01*
X135875001Y-97075000D01*
X135899505Y-97076204D01*
G37*
G36*
X138874505Y-100301204D02*
G01*
X138898773Y-100304804D01*
X138922572Y-100310765D01*
X138945671Y-100319030D01*
X138967850Y-100329520D01*
X138988893Y-100342132D01*
X139008599Y-100356747D01*
X139026777Y-100373223D01*
X139043253Y-100391401D01*
X139057868Y-100411107D01*
X139070480Y-100432150D01*
X139080970Y-100454329D01*
X139089235Y-100477428D01*
X139095196Y-100501227D01*
X139098796Y-100525495D01*
X139100000Y-100549999D01*
X139100000Y-101450001D01*
X139098796Y-101474505D01*
X139095196Y-101498773D01*
X139089235Y-101522572D01*
X139080970Y-101545671D01*
X139070480Y-101567850D01*
X139057868Y-101588893D01*
X139043253Y-101608599D01*
X139026777Y-101626777D01*
X139008599Y-101643253D01*
X138988893Y-101657868D01*
X138967850Y-101670480D01*
X138945671Y-101680970D01*
X138922572Y-101689235D01*
X138898773Y-101695196D01*
X138874505Y-101698796D01*
X138850001Y-101700000D01*
X138199999Y-101700000D01*
X138175495Y-101698796D01*
X138151227Y-101695196D01*
X138127428Y-101689235D01*
X138104329Y-101680970D01*
X138082150Y-101670480D01*
X138061107Y-101657868D01*
X138041401Y-101643253D01*
X138023223Y-101626777D01*
X138006747Y-101608599D01*
X137992132Y-101588893D01*
X137979520Y-101567850D01*
X137969030Y-101545671D01*
X137960765Y-101522572D01*
X137954804Y-101498773D01*
X137951204Y-101474505D01*
X137950000Y-101450001D01*
X137950000Y-100549999D01*
X137951204Y-100525495D01*
X137954804Y-100501227D01*
X137960765Y-100477428D01*
X137969030Y-100454329D01*
X137979520Y-100432150D01*
X137992132Y-100411107D01*
X138006747Y-100391401D01*
X138023223Y-100373223D01*
X138041401Y-100356747D01*
X138061107Y-100342132D01*
X138082150Y-100329520D01*
X138104329Y-100319030D01*
X138127428Y-100310765D01*
X138151227Y-100304804D01*
X138175495Y-100301204D01*
X138199999Y-100300000D01*
X138850001Y-100300000D01*
X138874505Y-100301204D01*
G37*
G36*
X136824505Y-100301204D02*
G01*
X136848773Y-100304804D01*
X136872572Y-100310765D01*
X136895671Y-100319030D01*
X136917850Y-100329520D01*
X136938893Y-100342132D01*
X136958599Y-100356747D01*
X136976777Y-100373223D01*
X136993253Y-100391401D01*
X137007868Y-100411107D01*
X137020480Y-100432150D01*
X137030970Y-100454329D01*
X137039235Y-100477428D01*
X137045196Y-100501227D01*
X137048796Y-100525495D01*
X137050000Y-100549999D01*
X137050000Y-101450001D01*
X137048796Y-101474505D01*
X137045196Y-101498773D01*
X137039235Y-101522572D01*
X137030970Y-101545671D01*
X137020480Y-101567850D01*
X137007868Y-101588893D01*
X136993253Y-101608599D01*
X136976777Y-101626777D01*
X136958599Y-101643253D01*
X136938893Y-101657868D01*
X136917850Y-101670480D01*
X136895671Y-101680970D01*
X136872572Y-101689235D01*
X136848773Y-101695196D01*
X136824505Y-101698796D01*
X136800001Y-101700000D01*
X136149999Y-101700000D01*
X136125495Y-101698796D01*
X136101227Y-101695196D01*
X136077428Y-101689235D01*
X136054329Y-101680970D01*
X136032150Y-101670480D01*
X136011107Y-101657868D01*
X135991401Y-101643253D01*
X135973223Y-101626777D01*
X135956747Y-101608599D01*
X135942132Y-101588893D01*
X135929520Y-101567850D01*
X135919030Y-101545671D01*
X135910765Y-101522572D01*
X135904804Y-101498773D01*
X135901204Y-101474505D01*
X135900000Y-101450001D01*
X135900000Y-100549999D01*
X135901204Y-100525495D01*
X135904804Y-100501227D01*
X135910765Y-100477428D01*
X135919030Y-100454329D01*
X135929520Y-100432150D01*
X135942132Y-100411107D01*
X135956747Y-100391401D01*
X135973223Y-100373223D01*
X135991401Y-100356747D01*
X136011107Y-100342132D01*
X136032150Y-100329520D01*
X136054329Y-100319030D01*
X136077428Y-100310765D01*
X136101227Y-100304804D01*
X136125495Y-100301204D01*
X136149999Y-100300000D01*
X136800001Y-100300000D01*
X136824505Y-100301204D01*
G37*
G36*
X182974505Y-158951204D02*
G01*
X182998773Y-158954804D01*
X183022572Y-158960765D01*
X183045671Y-158969030D01*
X183067850Y-158979520D01*
X183088893Y-158992132D01*
X183108599Y-159006747D01*
X183126777Y-159023223D01*
X183143253Y-159041401D01*
X183157868Y-159061107D01*
X183170480Y-159082150D01*
X183180970Y-159104329D01*
X183189235Y-159127428D01*
X183195196Y-159151227D01*
X183198796Y-159175495D01*
X183200000Y-159199999D01*
X183200000Y-159850001D01*
X183198796Y-159874505D01*
X183195196Y-159898773D01*
X183189235Y-159922572D01*
X183180970Y-159945671D01*
X183170480Y-159967850D01*
X183157868Y-159988893D01*
X183143253Y-160008599D01*
X183126777Y-160026777D01*
X183108599Y-160043253D01*
X183088893Y-160057868D01*
X183067850Y-160070480D01*
X183045671Y-160080970D01*
X183022572Y-160089235D01*
X182998773Y-160095196D01*
X182974505Y-160098796D01*
X182950001Y-160100000D01*
X182049999Y-160100000D01*
X182025495Y-160098796D01*
X182001227Y-160095196D01*
X181977428Y-160089235D01*
X181954329Y-160080970D01*
X181932150Y-160070480D01*
X181911107Y-160057868D01*
X181891401Y-160043253D01*
X181873223Y-160026777D01*
X181856747Y-160008599D01*
X181842132Y-159988893D01*
X181829520Y-159967850D01*
X181819030Y-159945671D01*
X181810765Y-159922572D01*
X181804804Y-159898773D01*
X181801204Y-159874505D01*
X181800000Y-159850001D01*
X181800000Y-159199999D01*
X181801204Y-159175495D01*
X181804804Y-159151227D01*
X181810765Y-159127428D01*
X181819030Y-159104329D01*
X181829520Y-159082150D01*
X181842132Y-159061107D01*
X181856747Y-159041401D01*
X181873223Y-159023223D01*
X181891401Y-159006747D01*
X181911107Y-158992132D01*
X181932150Y-158979520D01*
X181954329Y-158969030D01*
X181977428Y-158960765D01*
X182001227Y-158954804D01*
X182025495Y-158951204D01*
X182049999Y-158950000D01*
X182950001Y-158950000D01*
X182974505Y-158951204D01*
G37*
G36*
X182974505Y-156901204D02*
G01*
X182998773Y-156904804D01*
X183022572Y-156910765D01*
X183045671Y-156919030D01*
X183067850Y-156929520D01*
X183088893Y-156942132D01*
X183108599Y-156956747D01*
X183126777Y-156973223D01*
X183143253Y-156991401D01*
X183157868Y-157011107D01*
X183170480Y-157032150D01*
X183180970Y-157054329D01*
X183189235Y-157077428D01*
X183195196Y-157101227D01*
X183198796Y-157125495D01*
X183200000Y-157149999D01*
X183200000Y-157800001D01*
X183198796Y-157824505D01*
X183195196Y-157848773D01*
X183189235Y-157872572D01*
X183180970Y-157895671D01*
X183170480Y-157917850D01*
X183157868Y-157938893D01*
X183143253Y-157958599D01*
X183126777Y-157976777D01*
X183108599Y-157993253D01*
X183088893Y-158007868D01*
X183067850Y-158020480D01*
X183045671Y-158030970D01*
X183022572Y-158039235D01*
X182998773Y-158045196D01*
X182974505Y-158048796D01*
X182950001Y-158050000D01*
X182049999Y-158050000D01*
X182025495Y-158048796D01*
X182001227Y-158045196D01*
X181977428Y-158039235D01*
X181954329Y-158030970D01*
X181932150Y-158020480D01*
X181911107Y-158007868D01*
X181891401Y-157993253D01*
X181873223Y-157976777D01*
X181856747Y-157958599D01*
X181842132Y-157938893D01*
X181829520Y-157917850D01*
X181819030Y-157895671D01*
X181810765Y-157872572D01*
X181804804Y-157848773D01*
X181801204Y-157824505D01*
X181800000Y-157800001D01*
X181800000Y-157149999D01*
X181801204Y-157125495D01*
X181804804Y-157101227D01*
X181810765Y-157077428D01*
X181819030Y-157054329D01*
X181829520Y-157032150D01*
X181842132Y-157011107D01*
X181856747Y-156991401D01*
X181873223Y-156973223D01*
X181891401Y-156956747D01*
X181911107Y-156942132D01*
X181932150Y-156929520D01*
X181954329Y-156919030D01*
X181977428Y-156910765D01*
X182001227Y-156904804D01*
X182025495Y-156901204D01*
X182049999Y-156900000D01*
X182950001Y-156900000D01*
X182974505Y-156901204D01*
G37*
G36*
X100824505Y-113301204D02*
G01*
X100848773Y-113304804D01*
X100872572Y-113310765D01*
X100895671Y-113319030D01*
X100917850Y-113329520D01*
X100938893Y-113342132D01*
X100958599Y-113356747D01*
X100976777Y-113373223D01*
X100993253Y-113391401D01*
X101007868Y-113411107D01*
X101020480Y-113432150D01*
X101030970Y-113454329D01*
X101039235Y-113477428D01*
X101045196Y-113501227D01*
X101048796Y-113525495D01*
X101050000Y-113549999D01*
X101050000Y-114450001D01*
X101048796Y-114474505D01*
X101045196Y-114498773D01*
X101039235Y-114522572D01*
X101030970Y-114545671D01*
X101020480Y-114567850D01*
X101007868Y-114588893D01*
X100993253Y-114608599D01*
X100976777Y-114626777D01*
X100958599Y-114643253D01*
X100938893Y-114657868D01*
X100917850Y-114670480D01*
X100895671Y-114680970D01*
X100872572Y-114689235D01*
X100848773Y-114695196D01*
X100824505Y-114698796D01*
X100800001Y-114700000D01*
X100149999Y-114700000D01*
X100125495Y-114698796D01*
X100101227Y-114695196D01*
X100077428Y-114689235D01*
X100054329Y-114680970D01*
X100032150Y-114670480D01*
X100011107Y-114657868D01*
X99991401Y-114643253D01*
X99973223Y-114626777D01*
X99956747Y-114608599D01*
X99942132Y-114588893D01*
X99929520Y-114567850D01*
X99919030Y-114545671D01*
X99910765Y-114522572D01*
X99904804Y-114498773D01*
X99901204Y-114474505D01*
X99900000Y-114450001D01*
X99900000Y-113549999D01*
X99901204Y-113525495D01*
X99904804Y-113501227D01*
X99910765Y-113477428D01*
X99919030Y-113454329D01*
X99929520Y-113432150D01*
X99942132Y-113411107D01*
X99956747Y-113391401D01*
X99973223Y-113373223D01*
X99991401Y-113356747D01*
X100011107Y-113342132D01*
X100032150Y-113329520D01*
X100054329Y-113319030D01*
X100077428Y-113310765D01*
X100101227Y-113304804D01*
X100125495Y-113301204D01*
X100149999Y-113300000D01*
X100800001Y-113300000D01*
X100824505Y-113301204D01*
G37*
G36*
X102874505Y-113301204D02*
G01*
X102898773Y-113304804D01*
X102922572Y-113310765D01*
X102945671Y-113319030D01*
X102967850Y-113329520D01*
X102988893Y-113342132D01*
X103008599Y-113356747D01*
X103026777Y-113373223D01*
X103043253Y-113391401D01*
X103057868Y-113411107D01*
X103070480Y-113432150D01*
X103080970Y-113454329D01*
X103089235Y-113477428D01*
X103095196Y-113501227D01*
X103098796Y-113525495D01*
X103100000Y-113549999D01*
X103100000Y-114450001D01*
X103098796Y-114474505D01*
X103095196Y-114498773D01*
X103089235Y-114522572D01*
X103080970Y-114545671D01*
X103070480Y-114567850D01*
X103057868Y-114588893D01*
X103043253Y-114608599D01*
X103026777Y-114626777D01*
X103008599Y-114643253D01*
X102988893Y-114657868D01*
X102967850Y-114670480D01*
X102945671Y-114680970D01*
X102922572Y-114689235D01*
X102898773Y-114695196D01*
X102874505Y-114698796D01*
X102850001Y-114700000D01*
X102199999Y-114700000D01*
X102175495Y-114698796D01*
X102151227Y-114695196D01*
X102127428Y-114689235D01*
X102104329Y-114680970D01*
X102082150Y-114670480D01*
X102061107Y-114657868D01*
X102041401Y-114643253D01*
X102023223Y-114626777D01*
X102006747Y-114608599D01*
X101992132Y-114588893D01*
X101979520Y-114567850D01*
X101969030Y-114545671D01*
X101960765Y-114522572D01*
X101954804Y-114498773D01*
X101951204Y-114474505D01*
X101950000Y-114450001D01*
X101950000Y-113549999D01*
X101951204Y-113525495D01*
X101954804Y-113501227D01*
X101960765Y-113477428D01*
X101969030Y-113454329D01*
X101979520Y-113432150D01*
X101992132Y-113411107D01*
X102006747Y-113391401D01*
X102023223Y-113373223D01*
X102041401Y-113356747D01*
X102061107Y-113342132D01*
X102082150Y-113329520D01*
X102104329Y-113319030D01*
X102127428Y-113310765D01*
X102151227Y-113304804D01*
X102175495Y-113301204D01*
X102199999Y-113300000D01*
X102850001Y-113300000D01*
X102874505Y-113301204D01*
G37*
G36*
X102899505Y-105301204D02*
G01*
X102923773Y-105304804D01*
X102947572Y-105310765D01*
X102970671Y-105319030D01*
X102992850Y-105329520D01*
X103013893Y-105342132D01*
X103033599Y-105356747D01*
X103051777Y-105373223D01*
X103068253Y-105391401D01*
X103082868Y-105411107D01*
X103095480Y-105432150D01*
X103105970Y-105454329D01*
X103114235Y-105477428D01*
X103120196Y-105501227D01*
X103123796Y-105525495D01*
X103125000Y-105549999D01*
X103125000Y-106450001D01*
X103123796Y-106474505D01*
X103120196Y-106498773D01*
X103114235Y-106522572D01*
X103105970Y-106545671D01*
X103095480Y-106567850D01*
X103082868Y-106588893D01*
X103068253Y-106608599D01*
X103051777Y-106626777D01*
X103033599Y-106643253D01*
X103013893Y-106657868D01*
X102992850Y-106670480D01*
X102970671Y-106680970D01*
X102947572Y-106689235D01*
X102923773Y-106695196D01*
X102899505Y-106698796D01*
X102875001Y-106700000D01*
X102224999Y-106700000D01*
X102200495Y-106698796D01*
X102176227Y-106695196D01*
X102152428Y-106689235D01*
X102129329Y-106680970D01*
X102107150Y-106670480D01*
X102086107Y-106657868D01*
X102066401Y-106643253D01*
X102048223Y-106626777D01*
X102031747Y-106608599D01*
X102017132Y-106588893D01*
X102004520Y-106567850D01*
X101994030Y-106545671D01*
X101985765Y-106522572D01*
X101979804Y-106498773D01*
X101976204Y-106474505D01*
X101975000Y-106450001D01*
X101975000Y-105549999D01*
X101976204Y-105525495D01*
X101979804Y-105501227D01*
X101985765Y-105477428D01*
X101994030Y-105454329D01*
X102004520Y-105432150D01*
X102017132Y-105411107D01*
X102031747Y-105391401D01*
X102048223Y-105373223D01*
X102066401Y-105356747D01*
X102086107Y-105342132D01*
X102107150Y-105329520D01*
X102129329Y-105319030D01*
X102152428Y-105310765D01*
X102176227Y-105304804D01*
X102200495Y-105301204D01*
X102224999Y-105300000D01*
X102875001Y-105300000D01*
X102899505Y-105301204D01*
G37*
G36*
X100849505Y-105301204D02*
G01*
X100873773Y-105304804D01*
X100897572Y-105310765D01*
X100920671Y-105319030D01*
X100942850Y-105329520D01*
X100963893Y-105342132D01*
X100983599Y-105356747D01*
X101001777Y-105373223D01*
X101018253Y-105391401D01*
X101032868Y-105411107D01*
X101045480Y-105432150D01*
X101055970Y-105454329D01*
X101064235Y-105477428D01*
X101070196Y-105501227D01*
X101073796Y-105525495D01*
X101075000Y-105549999D01*
X101075000Y-106450001D01*
X101073796Y-106474505D01*
X101070196Y-106498773D01*
X101064235Y-106522572D01*
X101055970Y-106545671D01*
X101045480Y-106567850D01*
X101032868Y-106588893D01*
X101018253Y-106608599D01*
X101001777Y-106626777D01*
X100983599Y-106643253D01*
X100963893Y-106657868D01*
X100942850Y-106670480D01*
X100920671Y-106680970D01*
X100897572Y-106689235D01*
X100873773Y-106695196D01*
X100849505Y-106698796D01*
X100825001Y-106700000D01*
X100174999Y-106700000D01*
X100150495Y-106698796D01*
X100126227Y-106695196D01*
X100102428Y-106689235D01*
X100079329Y-106680970D01*
X100057150Y-106670480D01*
X100036107Y-106657868D01*
X100016401Y-106643253D01*
X99998223Y-106626777D01*
X99981747Y-106608599D01*
X99967132Y-106588893D01*
X99954520Y-106567850D01*
X99944030Y-106545671D01*
X99935765Y-106522572D01*
X99929804Y-106498773D01*
X99926204Y-106474505D01*
X99925000Y-106450001D01*
X99925000Y-105549999D01*
X99926204Y-105525495D01*
X99929804Y-105501227D01*
X99935765Y-105477428D01*
X99944030Y-105454329D01*
X99954520Y-105432150D01*
X99967132Y-105411107D01*
X99981747Y-105391401D01*
X99998223Y-105373223D01*
X100016401Y-105356747D01*
X100036107Y-105342132D01*
X100057150Y-105329520D01*
X100079329Y-105319030D01*
X100102428Y-105310765D01*
X100126227Y-105304804D01*
X100150495Y-105301204D01*
X100174999Y-105300000D01*
X100825001Y-105300000D01*
X100849505Y-105301204D01*
G37*
G36*
X90449505Y-105801204D02*
G01*
X90473773Y-105804804D01*
X90497572Y-105810765D01*
X90520671Y-105819030D01*
X90542850Y-105829520D01*
X90563893Y-105842132D01*
X90583599Y-105856747D01*
X90601777Y-105873223D01*
X90618253Y-105891401D01*
X90632868Y-105911107D01*
X90645480Y-105932150D01*
X90655970Y-105954329D01*
X90664235Y-105977428D01*
X90670196Y-106001227D01*
X90673796Y-106025495D01*
X90675000Y-106049999D01*
X90675000Y-106875001D01*
X90673796Y-106899505D01*
X90670196Y-106923773D01*
X90664235Y-106947572D01*
X90655970Y-106970671D01*
X90645480Y-106992850D01*
X90632868Y-107013893D01*
X90618253Y-107033599D01*
X90601777Y-107051777D01*
X90583599Y-107068253D01*
X90563893Y-107082868D01*
X90542850Y-107095480D01*
X90520671Y-107105970D01*
X90497572Y-107114235D01*
X90473773Y-107120196D01*
X90449505Y-107123796D01*
X90425001Y-107125000D01*
X88574999Y-107125000D01*
X88550495Y-107123796D01*
X88526227Y-107120196D01*
X88502428Y-107114235D01*
X88479329Y-107105970D01*
X88457150Y-107095480D01*
X88436107Y-107082868D01*
X88416401Y-107068253D01*
X88398223Y-107051777D01*
X88381747Y-107033599D01*
X88367132Y-107013893D01*
X88354520Y-106992850D01*
X88344030Y-106970671D01*
X88335765Y-106947572D01*
X88329804Y-106923773D01*
X88326204Y-106899505D01*
X88325000Y-106875001D01*
X88325000Y-106049999D01*
X88326204Y-106025495D01*
X88329804Y-106001227D01*
X88335765Y-105977428D01*
X88344030Y-105954329D01*
X88354520Y-105932150D01*
X88367132Y-105911107D01*
X88381747Y-105891401D01*
X88398223Y-105873223D01*
X88416401Y-105856747D01*
X88436107Y-105842132D01*
X88457150Y-105829520D01*
X88479329Y-105819030D01*
X88502428Y-105810765D01*
X88526227Y-105804804D01*
X88550495Y-105801204D01*
X88574999Y-105800000D01*
X90425001Y-105800000D01*
X90449505Y-105801204D01*
G37*
G36*
X90449505Y-108876204D02*
G01*
X90473773Y-108879804D01*
X90497572Y-108885765D01*
X90520671Y-108894030D01*
X90542850Y-108904520D01*
X90563893Y-108917132D01*
X90583599Y-108931747D01*
X90601777Y-108948223D01*
X90618253Y-108966401D01*
X90632868Y-108986107D01*
X90645480Y-109007150D01*
X90655970Y-109029329D01*
X90664235Y-109052428D01*
X90670196Y-109076227D01*
X90673796Y-109100495D01*
X90675000Y-109124999D01*
X90675000Y-109950001D01*
X90673796Y-109974505D01*
X90670196Y-109998773D01*
X90664235Y-110022572D01*
X90655970Y-110045671D01*
X90645480Y-110067850D01*
X90632868Y-110088893D01*
X90618253Y-110108599D01*
X90601777Y-110126777D01*
X90583599Y-110143253D01*
X90563893Y-110157868D01*
X90542850Y-110170480D01*
X90520671Y-110180970D01*
X90497572Y-110189235D01*
X90473773Y-110195196D01*
X90449505Y-110198796D01*
X90425001Y-110200000D01*
X88574999Y-110200000D01*
X88550495Y-110198796D01*
X88526227Y-110195196D01*
X88502428Y-110189235D01*
X88479329Y-110180970D01*
X88457150Y-110170480D01*
X88436107Y-110157868D01*
X88416401Y-110143253D01*
X88398223Y-110126777D01*
X88381747Y-110108599D01*
X88367132Y-110088893D01*
X88354520Y-110067850D01*
X88344030Y-110045671D01*
X88335765Y-110022572D01*
X88329804Y-109998773D01*
X88326204Y-109974505D01*
X88325000Y-109950001D01*
X88325000Y-109124999D01*
X88326204Y-109100495D01*
X88329804Y-109076227D01*
X88335765Y-109052428D01*
X88344030Y-109029329D01*
X88354520Y-109007150D01*
X88367132Y-108986107D01*
X88381747Y-108966401D01*
X88398223Y-108948223D01*
X88416401Y-108931747D01*
X88436107Y-108917132D01*
X88457150Y-108904520D01*
X88479329Y-108894030D01*
X88502428Y-108885765D01*
X88526227Y-108879804D01*
X88550495Y-108876204D01*
X88574999Y-108875000D01*
X90425001Y-108875000D01*
X90449505Y-108876204D01*
G37*
G36*
X182324505Y-112301204D02*
G01*
X182348773Y-112304804D01*
X182372572Y-112310765D01*
X182395671Y-112319030D01*
X182417850Y-112329520D01*
X182438893Y-112342132D01*
X182458599Y-112356747D01*
X182476777Y-112373223D01*
X182493253Y-112391401D01*
X182507868Y-112411107D01*
X182520480Y-112432150D01*
X182530970Y-112454329D01*
X182539235Y-112477428D01*
X182545196Y-112501227D01*
X182548796Y-112525495D01*
X182550000Y-112549999D01*
X182550000Y-113450001D01*
X182548796Y-113474505D01*
X182545196Y-113498773D01*
X182539235Y-113522572D01*
X182530970Y-113545671D01*
X182520480Y-113567850D01*
X182507868Y-113588893D01*
X182493253Y-113608599D01*
X182476777Y-113626777D01*
X182458599Y-113643253D01*
X182438893Y-113657868D01*
X182417850Y-113670480D01*
X182395671Y-113680970D01*
X182372572Y-113689235D01*
X182348773Y-113695196D01*
X182324505Y-113698796D01*
X182300001Y-113700000D01*
X181649999Y-113700000D01*
X181625495Y-113698796D01*
X181601227Y-113695196D01*
X181577428Y-113689235D01*
X181554329Y-113680970D01*
X181532150Y-113670480D01*
X181511107Y-113657868D01*
X181491401Y-113643253D01*
X181473223Y-113626777D01*
X181456747Y-113608599D01*
X181442132Y-113588893D01*
X181429520Y-113567850D01*
X181419030Y-113545671D01*
X181410765Y-113522572D01*
X181404804Y-113498773D01*
X181401204Y-113474505D01*
X181400000Y-113450001D01*
X181400000Y-112549999D01*
X181401204Y-112525495D01*
X181404804Y-112501227D01*
X181410765Y-112477428D01*
X181419030Y-112454329D01*
X181429520Y-112432150D01*
X181442132Y-112411107D01*
X181456747Y-112391401D01*
X181473223Y-112373223D01*
X181491401Y-112356747D01*
X181511107Y-112342132D01*
X181532150Y-112329520D01*
X181554329Y-112319030D01*
X181577428Y-112310765D01*
X181601227Y-112304804D01*
X181625495Y-112301204D01*
X181649999Y-112300000D01*
X182300001Y-112300000D01*
X182324505Y-112301204D01*
G37*
G36*
X184374505Y-112301204D02*
G01*
X184398773Y-112304804D01*
X184422572Y-112310765D01*
X184445671Y-112319030D01*
X184467850Y-112329520D01*
X184488893Y-112342132D01*
X184508599Y-112356747D01*
X184526777Y-112373223D01*
X184543253Y-112391401D01*
X184557868Y-112411107D01*
X184570480Y-112432150D01*
X184580970Y-112454329D01*
X184589235Y-112477428D01*
X184595196Y-112501227D01*
X184598796Y-112525495D01*
X184600000Y-112549999D01*
X184600000Y-113450001D01*
X184598796Y-113474505D01*
X184595196Y-113498773D01*
X184589235Y-113522572D01*
X184580970Y-113545671D01*
X184570480Y-113567850D01*
X184557868Y-113588893D01*
X184543253Y-113608599D01*
X184526777Y-113626777D01*
X184508599Y-113643253D01*
X184488893Y-113657868D01*
X184467850Y-113670480D01*
X184445671Y-113680970D01*
X184422572Y-113689235D01*
X184398773Y-113695196D01*
X184374505Y-113698796D01*
X184350001Y-113700000D01*
X183699999Y-113700000D01*
X183675495Y-113698796D01*
X183651227Y-113695196D01*
X183627428Y-113689235D01*
X183604329Y-113680970D01*
X183582150Y-113670480D01*
X183561107Y-113657868D01*
X183541401Y-113643253D01*
X183523223Y-113626777D01*
X183506747Y-113608599D01*
X183492132Y-113588893D01*
X183479520Y-113567850D01*
X183469030Y-113545671D01*
X183460765Y-113522572D01*
X183454804Y-113498773D01*
X183451204Y-113474505D01*
X183450000Y-113450001D01*
X183450000Y-112549999D01*
X183451204Y-112525495D01*
X183454804Y-112501227D01*
X183460765Y-112477428D01*
X183469030Y-112454329D01*
X183479520Y-112432150D01*
X183492132Y-112411107D01*
X183506747Y-112391401D01*
X183523223Y-112373223D01*
X183541401Y-112356747D01*
X183561107Y-112342132D01*
X183582150Y-112329520D01*
X183604329Y-112319030D01*
X183627428Y-112310765D01*
X183651227Y-112304804D01*
X183675495Y-112301204D01*
X183699999Y-112300000D01*
X184350001Y-112300000D01*
X184374505Y-112301204D01*
G37*
D11*
X191500000Y-156500000D03*
X191500000Y-160500000D03*
D12*
X98150000Y-106000000D03*
X94850000Y-106000000D03*
D13*
X97025000Y-110000000D03*
X93975000Y-110000000D03*
D14*
X184000000Y-109050000D03*
X184000000Y-110950000D03*
X182000000Y-110000000D03*
X188000000Y-110000000D03*
X186000000Y-109050000D03*
X186000000Y-110950000D03*
D10*
G36*
X188205142Y-106301174D02*
G01*
X188228803Y-106304684D01*
X188252007Y-106310496D01*
X188274529Y-106318554D01*
X188296153Y-106328782D01*
X188316670Y-106341079D01*
X188335883Y-106355329D01*
X188353607Y-106371393D01*
X188369671Y-106389117D01*
X188383921Y-106408330D01*
X188396218Y-106428847D01*
X188406446Y-106450471D01*
X188414504Y-106472993D01*
X188420316Y-106496197D01*
X188423826Y-106519858D01*
X188425000Y-106543750D01*
X188425000Y-107456250D01*
X188423826Y-107480142D01*
X188420316Y-107503803D01*
X188414504Y-107527007D01*
X188406446Y-107549529D01*
X188396218Y-107571153D01*
X188383921Y-107591670D01*
X188369671Y-107610883D01*
X188353607Y-107628607D01*
X188335883Y-107644671D01*
X188316670Y-107658921D01*
X188296153Y-107671218D01*
X188274529Y-107681446D01*
X188252007Y-107689504D01*
X188228803Y-107695316D01*
X188205142Y-107698826D01*
X188181250Y-107700000D01*
X187693750Y-107700000D01*
X187669858Y-107698826D01*
X187646197Y-107695316D01*
X187622993Y-107689504D01*
X187600471Y-107681446D01*
X187578847Y-107671218D01*
X187558330Y-107658921D01*
X187539117Y-107644671D01*
X187521393Y-107628607D01*
X187505329Y-107610883D01*
X187491079Y-107591670D01*
X187478782Y-107571153D01*
X187468554Y-107549529D01*
X187460496Y-107527007D01*
X187454684Y-107503803D01*
X187451174Y-107480142D01*
X187450000Y-107456250D01*
X187450000Y-106543750D01*
X187451174Y-106519858D01*
X187454684Y-106496197D01*
X187460496Y-106472993D01*
X187468554Y-106450471D01*
X187478782Y-106428847D01*
X187491079Y-106408330D01*
X187505329Y-106389117D01*
X187521393Y-106371393D01*
X187539117Y-106355329D01*
X187558330Y-106341079D01*
X187578847Y-106328782D01*
X187600471Y-106318554D01*
X187622993Y-106310496D01*
X187646197Y-106304684D01*
X187669858Y-106301174D01*
X187693750Y-106300000D01*
X188181250Y-106300000D01*
X188205142Y-106301174D01*
G37*
G36*
X186330142Y-106301174D02*
G01*
X186353803Y-106304684D01*
X186377007Y-106310496D01*
X186399529Y-106318554D01*
X186421153Y-106328782D01*
X186441670Y-106341079D01*
X186460883Y-106355329D01*
X186478607Y-106371393D01*
X186494671Y-106389117D01*
X186508921Y-106408330D01*
X186521218Y-106428847D01*
X186531446Y-106450471D01*
X186539504Y-106472993D01*
X186545316Y-106496197D01*
X186548826Y-106519858D01*
X186550000Y-106543750D01*
X186550000Y-107456250D01*
X186548826Y-107480142D01*
X186545316Y-107503803D01*
X186539504Y-107527007D01*
X186531446Y-107549529D01*
X186521218Y-107571153D01*
X186508921Y-107591670D01*
X186494671Y-107610883D01*
X186478607Y-107628607D01*
X186460883Y-107644671D01*
X186441670Y-107658921D01*
X186421153Y-107671218D01*
X186399529Y-107681446D01*
X186377007Y-107689504D01*
X186353803Y-107695316D01*
X186330142Y-107698826D01*
X186306250Y-107700000D01*
X185818750Y-107700000D01*
X185794858Y-107698826D01*
X185771197Y-107695316D01*
X185747993Y-107689504D01*
X185725471Y-107681446D01*
X185703847Y-107671218D01*
X185683330Y-107658921D01*
X185664117Y-107644671D01*
X185646393Y-107628607D01*
X185630329Y-107610883D01*
X185616079Y-107591670D01*
X185603782Y-107571153D01*
X185593554Y-107549529D01*
X185585496Y-107527007D01*
X185579684Y-107503803D01*
X185576174Y-107480142D01*
X185575000Y-107456250D01*
X185575000Y-106543750D01*
X185576174Y-106519858D01*
X185579684Y-106496197D01*
X185585496Y-106472993D01*
X185593554Y-106450471D01*
X185603782Y-106428847D01*
X185616079Y-106408330D01*
X185630329Y-106389117D01*
X185646393Y-106371393D01*
X185664117Y-106355329D01*
X185683330Y-106341079D01*
X185703847Y-106328782D01*
X185725471Y-106318554D01*
X185747993Y-106310496D01*
X185771197Y-106304684D01*
X185794858Y-106301174D01*
X185818750Y-106300000D01*
X186306250Y-106300000D01*
X186330142Y-106301174D01*
G37*
G36*
X186267642Y-112301174D02*
G01*
X186291303Y-112304684D01*
X186314507Y-112310496D01*
X186337029Y-112318554D01*
X186358653Y-112328782D01*
X186379170Y-112341079D01*
X186398383Y-112355329D01*
X186416107Y-112371393D01*
X186432171Y-112389117D01*
X186446421Y-112408330D01*
X186458718Y-112428847D01*
X186468946Y-112450471D01*
X186477004Y-112472993D01*
X186482816Y-112496197D01*
X186486326Y-112519858D01*
X186487500Y-112543750D01*
X186487500Y-113456250D01*
X186486326Y-113480142D01*
X186482816Y-113503803D01*
X186477004Y-113527007D01*
X186468946Y-113549529D01*
X186458718Y-113571153D01*
X186446421Y-113591670D01*
X186432171Y-113610883D01*
X186416107Y-113628607D01*
X186398383Y-113644671D01*
X186379170Y-113658921D01*
X186358653Y-113671218D01*
X186337029Y-113681446D01*
X186314507Y-113689504D01*
X186291303Y-113695316D01*
X186267642Y-113698826D01*
X186243750Y-113700000D01*
X185756250Y-113700000D01*
X185732358Y-113698826D01*
X185708697Y-113695316D01*
X185685493Y-113689504D01*
X185662971Y-113681446D01*
X185641347Y-113671218D01*
X185620830Y-113658921D01*
X185601617Y-113644671D01*
X185583893Y-113628607D01*
X185567829Y-113610883D01*
X185553579Y-113591670D01*
X185541282Y-113571153D01*
X185531054Y-113549529D01*
X185522996Y-113527007D01*
X185517184Y-113503803D01*
X185513674Y-113480142D01*
X185512500Y-113456250D01*
X185512500Y-112543750D01*
X185513674Y-112519858D01*
X185517184Y-112496197D01*
X185522996Y-112472993D01*
X185531054Y-112450471D01*
X185541282Y-112428847D01*
X185553579Y-112408330D01*
X185567829Y-112389117D01*
X185583893Y-112371393D01*
X185601617Y-112355329D01*
X185620830Y-112341079D01*
X185641347Y-112328782D01*
X185662971Y-112318554D01*
X185685493Y-112310496D01*
X185708697Y-112304684D01*
X185732358Y-112301174D01*
X185756250Y-112300000D01*
X186243750Y-112300000D01*
X186267642Y-112301174D01*
G37*
G36*
X188142642Y-112301174D02*
G01*
X188166303Y-112304684D01*
X188189507Y-112310496D01*
X188212029Y-112318554D01*
X188233653Y-112328782D01*
X188254170Y-112341079D01*
X188273383Y-112355329D01*
X188291107Y-112371393D01*
X188307171Y-112389117D01*
X188321421Y-112408330D01*
X188333718Y-112428847D01*
X188343946Y-112450471D01*
X188352004Y-112472993D01*
X188357816Y-112496197D01*
X188361326Y-112519858D01*
X188362500Y-112543750D01*
X188362500Y-113456250D01*
X188361326Y-113480142D01*
X188357816Y-113503803D01*
X188352004Y-113527007D01*
X188343946Y-113549529D01*
X188333718Y-113571153D01*
X188321421Y-113591670D01*
X188307171Y-113610883D01*
X188291107Y-113628607D01*
X188273383Y-113644671D01*
X188254170Y-113658921D01*
X188233653Y-113671218D01*
X188212029Y-113681446D01*
X188189507Y-113689504D01*
X188166303Y-113695316D01*
X188142642Y-113698826D01*
X188118750Y-113700000D01*
X187631250Y-113700000D01*
X187607358Y-113698826D01*
X187583697Y-113695316D01*
X187560493Y-113689504D01*
X187537971Y-113681446D01*
X187516347Y-113671218D01*
X187495830Y-113658921D01*
X187476617Y-113644671D01*
X187458893Y-113628607D01*
X187442829Y-113610883D01*
X187428579Y-113591670D01*
X187416282Y-113571153D01*
X187406054Y-113549529D01*
X187397996Y-113527007D01*
X187392184Y-113503803D01*
X187388674Y-113480142D01*
X187387500Y-113456250D01*
X187387500Y-112543750D01*
X187388674Y-112519858D01*
X187392184Y-112496197D01*
X187397996Y-112472993D01*
X187406054Y-112450471D01*
X187416282Y-112428847D01*
X187428579Y-112408330D01*
X187442829Y-112389117D01*
X187458893Y-112371393D01*
X187476617Y-112355329D01*
X187495830Y-112341079D01*
X187516347Y-112328782D01*
X187537971Y-112318554D01*
X187560493Y-112310496D01*
X187583697Y-112304684D01*
X187607358Y-112301174D01*
X187631250Y-112300000D01*
X188118750Y-112300000D01*
X188142642Y-112301174D01*
G37*
G36*
X105980142Y-113388674D02*
G01*
X106003803Y-113392184D01*
X106027007Y-113397996D01*
X106049529Y-113406054D01*
X106071153Y-113416282D01*
X106091670Y-113428579D01*
X106110883Y-113442829D01*
X106128607Y-113458893D01*
X106144671Y-113476617D01*
X106158921Y-113495830D01*
X106171218Y-113516347D01*
X106181446Y-113537971D01*
X106189504Y-113560493D01*
X106195316Y-113583697D01*
X106198826Y-113607358D01*
X106200000Y-113631250D01*
X106200000Y-114118750D01*
X106198826Y-114142642D01*
X106195316Y-114166303D01*
X106189504Y-114189507D01*
X106181446Y-114212029D01*
X106171218Y-114233653D01*
X106158921Y-114254170D01*
X106144671Y-114273383D01*
X106128607Y-114291107D01*
X106110883Y-114307171D01*
X106091670Y-114321421D01*
X106071153Y-114333718D01*
X106049529Y-114343946D01*
X106027007Y-114352004D01*
X106003803Y-114357816D01*
X105980142Y-114361326D01*
X105956250Y-114362500D01*
X105043750Y-114362500D01*
X105019858Y-114361326D01*
X104996197Y-114357816D01*
X104972993Y-114352004D01*
X104950471Y-114343946D01*
X104928847Y-114333718D01*
X104908330Y-114321421D01*
X104889117Y-114307171D01*
X104871393Y-114291107D01*
X104855329Y-114273383D01*
X104841079Y-114254170D01*
X104828782Y-114233653D01*
X104818554Y-114212029D01*
X104810496Y-114189507D01*
X104804684Y-114166303D01*
X104801174Y-114142642D01*
X104800000Y-114118750D01*
X104800000Y-113631250D01*
X104801174Y-113607358D01*
X104804684Y-113583697D01*
X104810496Y-113560493D01*
X104818554Y-113537971D01*
X104828782Y-113516347D01*
X104841079Y-113495830D01*
X104855329Y-113476617D01*
X104871393Y-113458893D01*
X104889117Y-113442829D01*
X104908330Y-113428579D01*
X104928847Y-113416282D01*
X104950471Y-113406054D01*
X104972993Y-113397996D01*
X104996197Y-113392184D01*
X105019858Y-113388674D01*
X105043750Y-113387500D01*
X105956250Y-113387500D01*
X105980142Y-113388674D01*
G37*
G36*
X105980142Y-111513674D02*
G01*
X106003803Y-111517184D01*
X106027007Y-111522996D01*
X106049529Y-111531054D01*
X106071153Y-111541282D01*
X106091670Y-111553579D01*
X106110883Y-111567829D01*
X106128607Y-111583893D01*
X106144671Y-111601617D01*
X106158921Y-111620830D01*
X106171218Y-111641347D01*
X106181446Y-111662971D01*
X106189504Y-111685493D01*
X106195316Y-111708697D01*
X106198826Y-111732358D01*
X106200000Y-111756250D01*
X106200000Y-112243750D01*
X106198826Y-112267642D01*
X106195316Y-112291303D01*
X106189504Y-112314507D01*
X106181446Y-112337029D01*
X106171218Y-112358653D01*
X106158921Y-112379170D01*
X106144671Y-112398383D01*
X106128607Y-112416107D01*
X106110883Y-112432171D01*
X106091670Y-112446421D01*
X106071153Y-112458718D01*
X106049529Y-112468946D01*
X106027007Y-112477004D01*
X106003803Y-112482816D01*
X105980142Y-112486326D01*
X105956250Y-112487500D01*
X105043750Y-112487500D01*
X105019858Y-112486326D01*
X104996197Y-112482816D01*
X104972993Y-112477004D01*
X104950471Y-112468946D01*
X104928847Y-112458718D01*
X104908330Y-112446421D01*
X104889117Y-112432171D01*
X104871393Y-112416107D01*
X104855329Y-112398383D01*
X104841079Y-112379170D01*
X104828782Y-112358653D01*
X104818554Y-112337029D01*
X104810496Y-112314507D01*
X104804684Y-112291303D01*
X104801174Y-112267642D01*
X104800000Y-112243750D01*
X104800000Y-111756250D01*
X104801174Y-111732358D01*
X104804684Y-111708697D01*
X104810496Y-111685493D01*
X104818554Y-111662971D01*
X104828782Y-111641347D01*
X104841079Y-111620830D01*
X104855329Y-111601617D01*
X104871393Y-111583893D01*
X104889117Y-111567829D01*
X104908330Y-111553579D01*
X104928847Y-111541282D01*
X104950471Y-111531054D01*
X104972993Y-111522996D01*
X104996197Y-111517184D01*
X105019858Y-111513674D01*
X105043750Y-111512500D01*
X105956250Y-111512500D01*
X105980142Y-111513674D01*
G37*
G36*
X105980142Y-107576174D02*
G01*
X106003803Y-107579684D01*
X106027007Y-107585496D01*
X106049529Y-107593554D01*
X106071153Y-107603782D01*
X106091670Y-107616079D01*
X106110883Y-107630329D01*
X106128607Y-107646393D01*
X106144671Y-107664117D01*
X106158921Y-107683330D01*
X106171218Y-107703847D01*
X106181446Y-107725471D01*
X106189504Y-107747993D01*
X106195316Y-107771197D01*
X106198826Y-107794858D01*
X106200000Y-107818750D01*
X106200000Y-108306250D01*
X106198826Y-108330142D01*
X106195316Y-108353803D01*
X106189504Y-108377007D01*
X106181446Y-108399529D01*
X106171218Y-108421153D01*
X106158921Y-108441670D01*
X106144671Y-108460883D01*
X106128607Y-108478607D01*
X106110883Y-108494671D01*
X106091670Y-108508921D01*
X106071153Y-108521218D01*
X106049529Y-108531446D01*
X106027007Y-108539504D01*
X106003803Y-108545316D01*
X105980142Y-108548826D01*
X105956250Y-108550000D01*
X105043750Y-108550000D01*
X105019858Y-108548826D01*
X104996197Y-108545316D01*
X104972993Y-108539504D01*
X104950471Y-108531446D01*
X104928847Y-108521218D01*
X104908330Y-108508921D01*
X104889117Y-108494671D01*
X104871393Y-108478607D01*
X104855329Y-108460883D01*
X104841079Y-108441670D01*
X104828782Y-108421153D01*
X104818554Y-108399529D01*
X104810496Y-108377007D01*
X104804684Y-108353803D01*
X104801174Y-108330142D01*
X104800000Y-108306250D01*
X104800000Y-107818750D01*
X104801174Y-107794858D01*
X104804684Y-107771197D01*
X104810496Y-107747993D01*
X104818554Y-107725471D01*
X104828782Y-107703847D01*
X104841079Y-107683330D01*
X104855329Y-107664117D01*
X104871393Y-107646393D01*
X104889117Y-107630329D01*
X104908330Y-107616079D01*
X104928847Y-107603782D01*
X104950471Y-107593554D01*
X104972993Y-107585496D01*
X104996197Y-107579684D01*
X105019858Y-107576174D01*
X105043750Y-107575000D01*
X105956250Y-107575000D01*
X105980142Y-107576174D01*
G37*
G36*
X105980142Y-109451174D02*
G01*
X106003803Y-109454684D01*
X106027007Y-109460496D01*
X106049529Y-109468554D01*
X106071153Y-109478782D01*
X106091670Y-109491079D01*
X106110883Y-109505329D01*
X106128607Y-109521393D01*
X106144671Y-109539117D01*
X106158921Y-109558330D01*
X106171218Y-109578847D01*
X106181446Y-109600471D01*
X106189504Y-109622993D01*
X106195316Y-109646197D01*
X106198826Y-109669858D01*
X106200000Y-109693750D01*
X106200000Y-110181250D01*
X106198826Y-110205142D01*
X106195316Y-110228803D01*
X106189504Y-110252007D01*
X106181446Y-110274529D01*
X106171218Y-110296153D01*
X106158921Y-110316670D01*
X106144671Y-110335883D01*
X106128607Y-110353607D01*
X106110883Y-110369671D01*
X106091670Y-110383921D01*
X106071153Y-110396218D01*
X106049529Y-110406446D01*
X106027007Y-110414504D01*
X106003803Y-110420316D01*
X105980142Y-110423826D01*
X105956250Y-110425000D01*
X105043750Y-110425000D01*
X105019858Y-110423826D01*
X104996197Y-110420316D01*
X104972993Y-110414504D01*
X104950471Y-110406446D01*
X104928847Y-110396218D01*
X104908330Y-110383921D01*
X104889117Y-110369671D01*
X104871393Y-110353607D01*
X104855329Y-110335883D01*
X104841079Y-110316670D01*
X104828782Y-110296153D01*
X104818554Y-110274529D01*
X104810496Y-110252007D01*
X104804684Y-110228803D01*
X104801174Y-110205142D01*
X104800000Y-110181250D01*
X104800000Y-109693750D01*
X104801174Y-109669858D01*
X104804684Y-109646197D01*
X104810496Y-109622993D01*
X104818554Y-109600471D01*
X104828782Y-109578847D01*
X104841079Y-109558330D01*
X104855329Y-109539117D01*
X104871393Y-109521393D01*
X104889117Y-109505329D01*
X104908330Y-109491079D01*
X104928847Y-109478782D01*
X104950471Y-109468554D01*
X104972993Y-109460496D01*
X104996197Y-109454684D01*
X105019858Y-109451174D01*
X105043750Y-109450000D01*
X105956250Y-109450000D01*
X105980142Y-109451174D01*
G37*
G36*
X182330142Y-106301174D02*
G01*
X182353803Y-106304684D01*
X182377007Y-106310496D01*
X182399529Y-106318554D01*
X182421153Y-106328782D01*
X182441670Y-106341079D01*
X182460883Y-106355329D01*
X182478607Y-106371393D01*
X182494671Y-106389117D01*
X182508921Y-106408330D01*
X182521218Y-106428847D01*
X182531446Y-106450471D01*
X182539504Y-106472993D01*
X182545316Y-106496197D01*
X182548826Y-106519858D01*
X182550000Y-106543750D01*
X182550000Y-107456250D01*
X182548826Y-107480142D01*
X182545316Y-107503803D01*
X182539504Y-107527007D01*
X182531446Y-107549529D01*
X182521218Y-107571153D01*
X182508921Y-107591670D01*
X182494671Y-107610883D01*
X182478607Y-107628607D01*
X182460883Y-107644671D01*
X182441670Y-107658921D01*
X182421153Y-107671218D01*
X182399529Y-107681446D01*
X182377007Y-107689504D01*
X182353803Y-107695316D01*
X182330142Y-107698826D01*
X182306250Y-107700000D01*
X181818750Y-107700000D01*
X181794858Y-107698826D01*
X181771197Y-107695316D01*
X181747993Y-107689504D01*
X181725471Y-107681446D01*
X181703847Y-107671218D01*
X181683330Y-107658921D01*
X181664117Y-107644671D01*
X181646393Y-107628607D01*
X181630329Y-107610883D01*
X181616079Y-107591670D01*
X181603782Y-107571153D01*
X181593554Y-107549529D01*
X181585496Y-107527007D01*
X181579684Y-107503803D01*
X181576174Y-107480142D01*
X181575000Y-107456250D01*
X181575000Y-106543750D01*
X181576174Y-106519858D01*
X181579684Y-106496197D01*
X181585496Y-106472993D01*
X181593554Y-106450471D01*
X181603782Y-106428847D01*
X181616079Y-106408330D01*
X181630329Y-106389117D01*
X181646393Y-106371393D01*
X181664117Y-106355329D01*
X181683330Y-106341079D01*
X181703847Y-106328782D01*
X181725471Y-106318554D01*
X181747993Y-106310496D01*
X181771197Y-106304684D01*
X181794858Y-106301174D01*
X181818750Y-106300000D01*
X182306250Y-106300000D01*
X182330142Y-106301174D01*
G37*
G36*
X184205142Y-106301174D02*
G01*
X184228803Y-106304684D01*
X184252007Y-106310496D01*
X184274529Y-106318554D01*
X184296153Y-106328782D01*
X184316670Y-106341079D01*
X184335883Y-106355329D01*
X184353607Y-106371393D01*
X184369671Y-106389117D01*
X184383921Y-106408330D01*
X184396218Y-106428847D01*
X184406446Y-106450471D01*
X184414504Y-106472993D01*
X184420316Y-106496197D01*
X184423826Y-106519858D01*
X184425000Y-106543750D01*
X184425000Y-107456250D01*
X184423826Y-107480142D01*
X184420316Y-107503803D01*
X184414504Y-107527007D01*
X184406446Y-107549529D01*
X184396218Y-107571153D01*
X184383921Y-107591670D01*
X184369671Y-107610883D01*
X184353607Y-107628607D01*
X184335883Y-107644671D01*
X184316670Y-107658921D01*
X184296153Y-107671218D01*
X184274529Y-107681446D01*
X184252007Y-107689504D01*
X184228803Y-107695316D01*
X184205142Y-107698826D01*
X184181250Y-107700000D01*
X183693750Y-107700000D01*
X183669858Y-107698826D01*
X183646197Y-107695316D01*
X183622993Y-107689504D01*
X183600471Y-107681446D01*
X183578847Y-107671218D01*
X183558330Y-107658921D01*
X183539117Y-107644671D01*
X183521393Y-107628607D01*
X183505329Y-107610883D01*
X183491079Y-107591670D01*
X183478782Y-107571153D01*
X183468554Y-107549529D01*
X183460496Y-107527007D01*
X183454684Y-107503803D01*
X183451174Y-107480142D01*
X183450000Y-107456250D01*
X183450000Y-106543750D01*
X183451174Y-106519858D01*
X183454684Y-106496197D01*
X183460496Y-106472993D01*
X183468554Y-106450471D01*
X183478782Y-106428847D01*
X183491079Y-106408330D01*
X183505329Y-106389117D01*
X183521393Y-106371393D01*
X183539117Y-106355329D01*
X183558330Y-106341079D01*
X183578847Y-106328782D01*
X183600471Y-106318554D01*
X183622993Y-106310496D01*
X183646197Y-106304684D01*
X183669858Y-106301174D01*
X183693750Y-106300000D01*
X184181250Y-106300000D01*
X184205142Y-106301174D01*
G37*
G36*
X190480142Y-108576174D02*
G01*
X190503803Y-108579684D01*
X190527007Y-108585496D01*
X190549529Y-108593554D01*
X190571153Y-108603782D01*
X190591670Y-108616079D01*
X190610883Y-108630329D01*
X190628607Y-108646393D01*
X190644671Y-108664117D01*
X190658921Y-108683330D01*
X190671218Y-108703847D01*
X190681446Y-108725471D01*
X190689504Y-108747993D01*
X190695316Y-108771197D01*
X190698826Y-108794858D01*
X190700000Y-108818750D01*
X190700000Y-109306250D01*
X190698826Y-109330142D01*
X190695316Y-109353803D01*
X190689504Y-109377007D01*
X190681446Y-109399529D01*
X190671218Y-109421153D01*
X190658921Y-109441670D01*
X190644671Y-109460883D01*
X190628607Y-109478607D01*
X190610883Y-109494671D01*
X190591670Y-109508921D01*
X190571153Y-109521218D01*
X190549529Y-109531446D01*
X190527007Y-109539504D01*
X190503803Y-109545316D01*
X190480142Y-109548826D01*
X190456250Y-109550000D01*
X189543750Y-109550000D01*
X189519858Y-109548826D01*
X189496197Y-109545316D01*
X189472993Y-109539504D01*
X189450471Y-109531446D01*
X189428847Y-109521218D01*
X189408330Y-109508921D01*
X189389117Y-109494671D01*
X189371393Y-109478607D01*
X189355329Y-109460883D01*
X189341079Y-109441670D01*
X189328782Y-109421153D01*
X189318554Y-109399529D01*
X189310496Y-109377007D01*
X189304684Y-109353803D01*
X189301174Y-109330142D01*
X189300000Y-109306250D01*
X189300000Y-108818750D01*
X189301174Y-108794858D01*
X189304684Y-108771197D01*
X189310496Y-108747993D01*
X189318554Y-108725471D01*
X189328782Y-108703847D01*
X189341079Y-108683330D01*
X189355329Y-108664117D01*
X189371393Y-108646393D01*
X189389117Y-108630329D01*
X189408330Y-108616079D01*
X189428847Y-108603782D01*
X189450471Y-108593554D01*
X189472993Y-108585496D01*
X189496197Y-108579684D01*
X189519858Y-108576174D01*
X189543750Y-108575000D01*
X190456250Y-108575000D01*
X190480142Y-108576174D01*
G37*
G36*
X190480142Y-110451174D02*
G01*
X190503803Y-110454684D01*
X190527007Y-110460496D01*
X190549529Y-110468554D01*
X190571153Y-110478782D01*
X190591670Y-110491079D01*
X190610883Y-110505329D01*
X190628607Y-110521393D01*
X190644671Y-110539117D01*
X190658921Y-110558330D01*
X190671218Y-110578847D01*
X190681446Y-110600471D01*
X190689504Y-110622993D01*
X190695316Y-110646197D01*
X190698826Y-110669858D01*
X190700000Y-110693750D01*
X190700000Y-111181250D01*
X190698826Y-111205142D01*
X190695316Y-111228803D01*
X190689504Y-111252007D01*
X190681446Y-111274529D01*
X190671218Y-111296153D01*
X190658921Y-111316670D01*
X190644671Y-111335883D01*
X190628607Y-111353607D01*
X190610883Y-111369671D01*
X190591670Y-111383921D01*
X190571153Y-111396218D01*
X190549529Y-111406446D01*
X190527007Y-111414504D01*
X190503803Y-111420316D01*
X190480142Y-111423826D01*
X190456250Y-111425000D01*
X189543750Y-111425000D01*
X189519858Y-111423826D01*
X189496197Y-111420316D01*
X189472993Y-111414504D01*
X189450471Y-111406446D01*
X189428847Y-111396218D01*
X189408330Y-111383921D01*
X189389117Y-111369671D01*
X189371393Y-111353607D01*
X189355329Y-111335883D01*
X189341079Y-111316670D01*
X189328782Y-111296153D01*
X189318554Y-111274529D01*
X189310496Y-111252007D01*
X189304684Y-111228803D01*
X189301174Y-111205142D01*
X189300000Y-111181250D01*
X189300000Y-110693750D01*
X189301174Y-110669858D01*
X189304684Y-110646197D01*
X189310496Y-110622993D01*
X189318554Y-110600471D01*
X189328782Y-110578847D01*
X189341079Y-110558330D01*
X189355329Y-110539117D01*
X189371393Y-110521393D01*
X189389117Y-110505329D01*
X189408330Y-110491079D01*
X189428847Y-110478782D01*
X189450471Y-110468554D01*
X189472993Y-110460496D01*
X189496197Y-110454684D01*
X189519858Y-110451174D01*
X189543750Y-110450000D01*
X190456250Y-110450000D01*
X190480142Y-110451174D01*
G37*
D15*
X145000000Y-110905000D03*
D16*
X137500000Y-103405000D03*
X138770000Y-103405000D03*
X140040000Y-103405000D03*
X141310000Y-103405000D03*
X142580000Y-103405000D03*
X143850000Y-103405000D03*
X145120000Y-103405000D03*
X146390000Y-103405000D03*
X147660000Y-103405000D03*
X148930000Y-103405000D03*
X150200000Y-103405000D03*
X151470000Y-103405000D03*
X152740000Y-103405000D03*
X154010000Y-103405000D03*
D17*
X155010000Y-106190000D03*
X155010000Y-107460000D03*
X155010000Y-108730000D03*
X155010000Y-110000000D03*
X155010000Y-111270000D03*
X155010000Y-112540000D03*
X155010000Y-113810000D03*
X155010000Y-115080000D03*
X155010000Y-116350000D03*
X155010000Y-117620000D03*
D16*
X154010000Y-120405000D03*
X152740000Y-120405000D03*
X151470000Y-120405000D03*
X150200000Y-120405000D03*
X148930000Y-120405000D03*
X147660000Y-120405000D03*
X146390000Y-120405000D03*
X145120000Y-120405000D03*
X143850000Y-120405000D03*
X142580000Y-120405000D03*
X141310000Y-120405000D03*
X140040000Y-120405000D03*
X138770000Y-120405000D03*
X137500000Y-120405000D03*
D18*
X102600000Y-109050000D03*
X102600000Y-110000000D03*
X102600000Y-110950000D03*
X100400000Y-110950000D03*
X100400000Y-109050000D03*
X100400000Y-110000000D03*
D10*
G36*
X196855142Y-124951174D02*
G01*
X196878803Y-124954684D01*
X196902007Y-124960496D01*
X196924529Y-124968554D01*
X196946153Y-124978782D01*
X196966670Y-124991079D01*
X196985883Y-125005329D01*
X197003607Y-125021393D01*
X197019671Y-125039117D01*
X197033921Y-125058330D01*
X197046218Y-125078847D01*
X197056446Y-125100471D01*
X197064504Y-125122993D01*
X197070316Y-125146197D01*
X197073826Y-125169858D01*
X197075000Y-125193750D01*
X197075000Y-126106250D01*
X197073826Y-126130142D01*
X197070316Y-126153803D01*
X197064504Y-126177007D01*
X197056446Y-126199529D01*
X197046218Y-126221153D01*
X197033921Y-126241670D01*
X197019671Y-126260883D01*
X197003607Y-126278607D01*
X196985883Y-126294671D01*
X196966670Y-126308921D01*
X196946153Y-126321218D01*
X196924529Y-126331446D01*
X196902007Y-126339504D01*
X196878803Y-126345316D01*
X196855142Y-126348826D01*
X196831250Y-126350000D01*
X196343750Y-126350000D01*
X196319858Y-126348826D01*
X196296197Y-126345316D01*
X196272993Y-126339504D01*
X196250471Y-126331446D01*
X196228847Y-126321218D01*
X196208330Y-126308921D01*
X196189117Y-126294671D01*
X196171393Y-126278607D01*
X196155329Y-126260883D01*
X196141079Y-126241670D01*
X196128782Y-126221153D01*
X196118554Y-126199529D01*
X196110496Y-126177007D01*
X196104684Y-126153803D01*
X196101174Y-126130142D01*
X196100000Y-126106250D01*
X196100000Y-125193750D01*
X196101174Y-125169858D01*
X196104684Y-125146197D01*
X196110496Y-125122993D01*
X196118554Y-125100471D01*
X196128782Y-125078847D01*
X196141079Y-125058330D01*
X196155329Y-125039117D01*
X196171393Y-125021393D01*
X196189117Y-125005329D01*
X196208330Y-124991079D01*
X196228847Y-124978782D01*
X196250471Y-124968554D01*
X196272993Y-124960496D01*
X196296197Y-124954684D01*
X196319858Y-124951174D01*
X196343750Y-124950000D01*
X196831250Y-124950000D01*
X196855142Y-124951174D01*
G37*
G36*
X194980142Y-124951174D02*
G01*
X195003803Y-124954684D01*
X195027007Y-124960496D01*
X195049529Y-124968554D01*
X195071153Y-124978782D01*
X195091670Y-124991079D01*
X195110883Y-125005329D01*
X195128607Y-125021393D01*
X195144671Y-125039117D01*
X195158921Y-125058330D01*
X195171218Y-125078847D01*
X195181446Y-125100471D01*
X195189504Y-125122993D01*
X195195316Y-125146197D01*
X195198826Y-125169858D01*
X195200000Y-125193750D01*
X195200000Y-126106250D01*
X195198826Y-126130142D01*
X195195316Y-126153803D01*
X195189504Y-126177007D01*
X195181446Y-126199529D01*
X195171218Y-126221153D01*
X195158921Y-126241670D01*
X195144671Y-126260883D01*
X195128607Y-126278607D01*
X195110883Y-126294671D01*
X195091670Y-126308921D01*
X195071153Y-126321218D01*
X195049529Y-126331446D01*
X195027007Y-126339504D01*
X195003803Y-126345316D01*
X194980142Y-126348826D01*
X194956250Y-126350000D01*
X194468750Y-126350000D01*
X194444858Y-126348826D01*
X194421197Y-126345316D01*
X194397993Y-126339504D01*
X194375471Y-126331446D01*
X194353847Y-126321218D01*
X194333330Y-126308921D01*
X194314117Y-126294671D01*
X194296393Y-126278607D01*
X194280329Y-126260883D01*
X194266079Y-126241670D01*
X194253782Y-126221153D01*
X194243554Y-126199529D01*
X194235496Y-126177007D01*
X194229684Y-126153803D01*
X194226174Y-126130142D01*
X194225000Y-126106250D01*
X194225000Y-125193750D01*
X194226174Y-125169858D01*
X194229684Y-125146197D01*
X194235496Y-125122993D01*
X194243554Y-125100471D01*
X194253782Y-125078847D01*
X194266079Y-125058330D01*
X194280329Y-125039117D01*
X194296393Y-125021393D01*
X194314117Y-125005329D01*
X194333330Y-124991079D01*
X194353847Y-124978782D01*
X194375471Y-124968554D01*
X194397993Y-124960496D01*
X194421197Y-124954684D01*
X194444858Y-124951174D01*
X194468750Y-124950000D01*
X194956250Y-124950000D01*
X194980142Y-124951174D01*
G37*
M02*
