G04 #@! TF.GenerationSoftware,KiCad,Pcbnew,5.1.5*
G04 #@! TF.CreationDate,2020-03-06T12:13:38+01:00*
G04 #@! TF.ProjectId,e-chessboard,652d6368-6573-4736-926f-6172642e6b69,0.1*
G04 #@! TF.SameCoordinates,Original*
G04 #@! TF.FileFunction,Legend,Bot*
G04 #@! TF.FilePolarity,Positive*
%FSLAX46Y46*%
G04 Gerber Fmt 4.6, Leading zero omitted, Abs format (unit mm)*
G04 Created by KiCad (PCBNEW 5.1.5) date 2020-03-06 12:13:38*
%MOMM*%
%LPD*%
G04 APERTURE LIST*
%ADD10C,0.120000*%
%ADD11C,0.150000*%
G04 APERTURE END LIST*
D10*
X126340000Y-165462500D02*
X126340000Y-161252500D01*
X126340000Y-161252500D02*
X129360000Y-161252500D01*
X129360000Y-161252500D02*
X129360000Y-165462500D01*
X130690000Y-163488748D02*
X130690000Y-164011252D01*
X132110000Y-163488748D02*
X132110000Y-164011252D01*
X127000000Y-116990000D02*
X131210000Y-116990000D01*
X131210000Y-116990000D02*
X131210000Y-120010000D01*
X131210000Y-120010000D02*
X127000000Y-120010000D01*
X127988748Y-120540000D02*
X128511252Y-120540000D01*
X127988748Y-121960000D02*
X128511252Y-121960000D01*
X133540000Y-163488748D02*
X133540000Y-164011252D01*
X134960000Y-163488748D02*
X134960000Y-164011252D01*
X153261252Y-170210000D02*
X152738748Y-170210000D01*
X153261252Y-168790000D02*
X152738748Y-168790000D01*
X146790000Y-163238748D02*
X146790000Y-163761252D01*
X148210000Y-163238748D02*
X148210000Y-163761252D01*
X157460000Y-155010000D02*
X153250000Y-155010000D01*
X157460000Y-151990000D02*
X157460000Y-155010000D01*
X153250000Y-151990000D02*
X157460000Y-151990000D01*
X188707498Y-111540000D02*
X189230002Y-111540000D01*
X188707498Y-112960000D02*
X189230002Y-112960000D01*
X173800000Y-109450000D02*
X173800000Y-106900000D01*
X172200000Y-109450000D02*
X172200000Y-106900000D01*
X173800000Y-109450000D02*
X172200000Y-109450000D01*
X170200000Y-106450000D02*
X171800000Y-106450000D01*
X171800000Y-106450000D02*
X171800000Y-109000000D01*
X170200000Y-106450000D02*
X170200000Y-109000000D01*
X121850000Y-160350000D02*
X121850000Y-165750000D01*
X125150000Y-160350000D02*
X125150000Y-165750000D01*
X121850000Y-160350000D02*
X125150000Y-160350000D01*
X160700000Y-100050000D02*
X162300000Y-100050000D01*
X162300000Y-100050000D02*
X162300000Y-102600000D01*
X160700000Y-100050000D02*
X160700000Y-102600000D01*
X164300000Y-103050000D02*
X164300000Y-100500000D01*
X162700000Y-103050000D02*
X162700000Y-100500000D01*
X164300000Y-103050000D02*
X162700000Y-103050000D01*
X162300000Y-109450000D02*
X160700000Y-109450000D01*
X160700000Y-109450000D02*
X160700000Y-106900000D01*
X162300000Y-109450000D02*
X162300000Y-106900000D01*
X158700000Y-106450000D02*
X158700000Y-109000000D01*
X160300000Y-106450000D02*
X160300000Y-109000000D01*
X158700000Y-106450000D02*
X160300000Y-106450000D01*
X146600000Y-159000000D02*
X146600000Y-157000000D01*
X146600000Y-157000000D02*
X150500000Y-157000000D01*
X146600000Y-159000000D02*
X150500000Y-159000000D01*
X161110000Y-165885000D02*
X160085000Y-165885000D01*
X161110000Y-165885000D02*
X161110000Y-164860000D01*
X161110000Y-161115000D02*
X161110000Y-162140000D01*
X161110000Y-161115000D02*
X160085000Y-161115000D01*
X156890000Y-161115000D02*
X157915000Y-161115000D01*
X156890000Y-165885000D02*
X157915000Y-165885000D01*
X156890000Y-161115000D02*
X156890000Y-162140000D01*
X156890000Y-165885000D02*
X156890000Y-164860000D01*
X184718333Y-113920000D02*
X184718333Y-114850000D01*
X184718333Y-117080000D02*
X184718333Y-116150000D01*
X184718333Y-117080000D02*
X182558333Y-117080000D01*
X184718333Y-113920000D02*
X183258333Y-113920000D01*
X184739166Y-107420000D02*
X183279166Y-107420000D01*
X184739166Y-110580000D02*
X182579166Y-110580000D01*
X184739166Y-110580000D02*
X184739166Y-109650000D01*
X184739166Y-107420000D02*
X184739166Y-108350000D01*
X183741421Y-104290000D02*
X184258577Y-104290000D01*
X183741421Y-105710000D02*
X184258577Y-105710000D01*
X183678922Y-113210000D02*
X184196078Y-113210000D01*
X183678922Y-111790000D02*
X184196078Y-111790000D01*
X159321078Y-157290000D02*
X158803922Y-157290000D01*
X159321078Y-158710000D02*
X158803922Y-158710000D01*
X155258578Y-158710000D02*
X154741422Y-158710000D01*
X155258578Y-157290000D02*
X154741422Y-157290000D01*
X188741422Y-114790000D02*
X189258578Y-114790000D01*
X188741422Y-116210000D02*
X189258578Y-116210000D01*
X188678922Y-109710000D02*
X189196078Y-109710000D01*
X188678922Y-108290000D02*
X189196078Y-108290000D01*
X158790000Y-101291422D02*
X158790000Y-101808578D01*
X160210000Y-101291422D02*
X160210000Y-101808578D01*
X162790000Y-108208578D02*
X162790000Y-107691422D01*
X164210000Y-108208578D02*
X164210000Y-107691422D01*
X175710000Y-108208578D02*
X175710000Y-107691422D01*
X174290000Y-108208578D02*
X174290000Y-107691422D01*
X109400000Y-114620000D02*
X108780000Y-114620000D01*
X108780000Y-114620000D02*
X108780000Y-113620000D01*
X109400000Y-96380000D02*
X108780000Y-96380000D01*
X108780000Y-96380000D02*
X108780000Y-97380000D01*
X128220000Y-114620000D02*
X128220000Y-96380000D01*
X128220000Y-96380000D02*
X127800000Y-96380000D01*
X128220000Y-114620000D02*
X127800000Y-114620000D01*
X127800000Y-114620000D02*
X127800000Y-115000000D01*
X152100000Y-161890000D02*
X153900000Y-161890000D01*
X153900000Y-165110000D02*
X151450000Y-165110000D01*
D11*
X128207142Y-160045833D02*
X128254761Y-159998214D01*
X128302380Y-159855357D01*
X128302380Y-159760119D01*
X128254761Y-159617261D01*
X128159523Y-159522023D01*
X128064285Y-159474404D01*
X127873809Y-159426785D01*
X127730952Y-159426785D01*
X127540476Y-159474404D01*
X127445238Y-159522023D01*
X127350000Y-159617261D01*
X127302380Y-159760119D01*
X127302380Y-159855357D01*
X127350000Y-159998214D01*
X127397619Y-160045833D01*
X128302380Y-160998214D02*
X128302380Y-160426785D01*
X128302380Y-160712500D02*
X127302380Y-160712500D01*
X127445238Y-160617261D01*
X127540476Y-160522023D01*
X127588095Y-160426785D01*
X131757142Y-160608333D02*
X131804761Y-160560714D01*
X131852380Y-160417857D01*
X131852380Y-160322619D01*
X131804761Y-160179761D01*
X131709523Y-160084523D01*
X131614285Y-160036904D01*
X131423809Y-159989285D01*
X131280952Y-159989285D01*
X131090476Y-160036904D01*
X130995238Y-160084523D01*
X130900000Y-160179761D01*
X130852380Y-160322619D01*
X130852380Y-160417857D01*
X130900000Y-160560714D01*
X130947619Y-160608333D01*
X130947619Y-160989285D02*
X130900000Y-161036904D01*
X130852380Y-161132142D01*
X130852380Y-161370238D01*
X130900000Y-161465476D01*
X130947619Y-161513095D01*
X131042857Y-161560714D01*
X131138095Y-161560714D01*
X131280952Y-161513095D01*
X131852380Y-160941666D01*
X131852380Y-161560714D01*
X125416666Y-118857142D02*
X125464285Y-118904761D01*
X125607142Y-118952380D01*
X125702380Y-118952380D01*
X125845238Y-118904761D01*
X125940476Y-118809523D01*
X125988095Y-118714285D01*
X126035714Y-118523809D01*
X126035714Y-118380952D01*
X125988095Y-118190476D01*
X125940476Y-118095238D01*
X125845238Y-118000000D01*
X125702380Y-117952380D01*
X125607142Y-117952380D01*
X125464285Y-118000000D01*
X125416666Y-118047619D01*
X125083333Y-117952380D02*
X124464285Y-117952380D01*
X124797619Y-118333333D01*
X124654761Y-118333333D01*
X124559523Y-118380952D01*
X124511904Y-118428571D01*
X124464285Y-118523809D01*
X124464285Y-118761904D01*
X124511904Y-118857142D01*
X124559523Y-118904761D01*
X124654761Y-118952380D01*
X124940476Y-118952380D01*
X125035714Y-118904761D01*
X125083333Y-118857142D01*
X125416666Y-121607142D02*
X125464285Y-121654761D01*
X125607142Y-121702380D01*
X125702380Y-121702380D01*
X125845238Y-121654761D01*
X125940476Y-121559523D01*
X125988095Y-121464285D01*
X126035714Y-121273809D01*
X126035714Y-121130952D01*
X125988095Y-120940476D01*
X125940476Y-120845238D01*
X125845238Y-120750000D01*
X125702380Y-120702380D01*
X125607142Y-120702380D01*
X125464285Y-120750000D01*
X125416666Y-120797619D01*
X124559523Y-121035714D02*
X124559523Y-121702380D01*
X124797619Y-120654761D02*
X125035714Y-121369047D01*
X124416666Y-121369047D01*
X134607142Y-160591666D02*
X134654761Y-160544047D01*
X134702380Y-160401190D01*
X134702380Y-160305952D01*
X134654761Y-160163094D01*
X134559523Y-160067856D01*
X134464285Y-160020237D01*
X134273809Y-159972618D01*
X134130952Y-159972618D01*
X133940476Y-160020237D01*
X133845238Y-160067856D01*
X133750000Y-160163094D01*
X133702380Y-160305952D01*
X133702380Y-160401190D01*
X133750000Y-160544047D01*
X133797619Y-160591666D01*
X133702380Y-161496428D02*
X133702380Y-161020237D01*
X134178571Y-160972618D01*
X134130952Y-161020237D01*
X134083333Y-161115475D01*
X134083333Y-161353571D01*
X134130952Y-161448809D01*
X134178571Y-161496428D01*
X134273809Y-161544047D01*
X134511904Y-161544047D01*
X134607142Y-161496428D01*
X134654761Y-161448809D01*
X134702380Y-161353571D01*
X134702380Y-161115475D01*
X134654761Y-161020237D01*
X134607142Y-160972618D01*
X153166666Y-168207142D02*
X153214285Y-168254761D01*
X153357142Y-168302380D01*
X153452380Y-168302380D01*
X153595238Y-168254761D01*
X153690476Y-168159523D01*
X153738095Y-168064285D01*
X153785714Y-167873809D01*
X153785714Y-167730952D01*
X153738095Y-167540476D01*
X153690476Y-167445238D01*
X153595238Y-167350000D01*
X153452380Y-167302380D01*
X153357142Y-167302380D01*
X153214285Y-167350000D01*
X153166666Y-167397619D01*
X152309523Y-167302380D02*
X152500000Y-167302380D01*
X152595238Y-167350000D01*
X152642857Y-167397619D01*
X152738095Y-167540476D01*
X152785714Y-167730952D01*
X152785714Y-168111904D01*
X152738095Y-168207142D01*
X152690476Y-168254761D01*
X152595238Y-168302380D01*
X152404761Y-168302380D01*
X152309523Y-168254761D01*
X152261904Y-168207142D01*
X152214285Y-168111904D01*
X152214285Y-167873809D01*
X152261904Y-167778571D01*
X152309523Y-167730952D01*
X152404761Y-167683333D01*
X152595238Y-167683333D01*
X152690476Y-167730952D01*
X152738095Y-167778571D01*
X152785714Y-167873809D01*
X146207142Y-163333333D02*
X146254761Y-163285714D01*
X146302380Y-163142857D01*
X146302380Y-163047619D01*
X146254761Y-162904761D01*
X146159523Y-162809523D01*
X146064285Y-162761904D01*
X145873809Y-162714285D01*
X145730952Y-162714285D01*
X145540476Y-162761904D01*
X145445238Y-162809523D01*
X145350000Y-162904761D01*
X145302380Y-163047619D01*
X145302380Y-163142857D01*
X145350000Y-163285714D01*
X145397619Y-163333333D01*
X145302380Y-163666666D02*
X145302380Y-164333333D01*
X146302380Y-163904761D01*
X155166666Y-151507142D02*
X155214285Y-151554761D01*
X155357142Y-151602380D01*
X155452380Y-151602380D01*
X155595238Y-151554761D01*
X155690476Y-151459523D01*
X155738095Y-151364285D01*
X155785714Y-151173809D01*
X155785714Y-151030952D01*
X155738095Y-150840476D01*
X155690476Y-150745238D01*
X155595238Y-150650000D01*
X155452380Y-150602380D01*
X155357142Y-150602380D01*
X155214285Y-150650000D01*
X155166666Y-150697619D01*
X154595238Y-151030952D02*
X154690476Y-150983333D01*
X154738095Y-150935714D01*
X154785714Y-150840476D01*
X154785714Y-150792857D01*
X154738095Y-150697619D01*
X154690476Y-150650000D01*
X154595238Y-150602380D01*
X154404761Y-150602380D01*
X154309523Y-150650000D01*
X154261904Y-150697619D01*
X154214285Y-150792857D01*
X154214285Y-150840476D01*
X154261904Y-150935714D01*
X154309523Y-150983333D01*
X154404761Y-151030952D01*
X154595238Y-151030952D01*
X154690476Y-151078571D01*
X154738095Y-151126190D01*
X154785714Y-151221428D01*
X154785714Y-151411904D01*
X154738095Y-151507142D01*
X154690476Y-151554761D01*
X154595238Y-151602380D01*
X154404761Y-151602380D01*
X154309523Y-151554761D01*
X154261904Y-151507142D01*
X154214285Y-151411904D01*
X154214285Y-151221428D01*
X154261904Y-151126190D01*
X154309523Y-151078571D01*
X154404761Y-151030952D01*
X192135416Y-112607142D02*
X192183035Y-112654761D01*
X192325892Y-112702380D01*
X192421130Y-112702380D01*
X192563988Y-112654761D01*
X192659226Y-112559523D01*
X192706845Y-112464285D01*
X192754464Y-112273809D01*
X192754464Y-112130952D01*
X192706845Y-111940476D01*
X192659226Y-111845238D01*
X192563988Y-111750000D01*
X192421130Y-111702380D01*
X192325892Y-111702380D01*
X192183035Y-111750000D01*
X192135416Y-111797619D01*
X191659226Y-112702380D02*
X191468750Y-112702380D01*
X191373511Y-112654761D01*
X191325892Y-112607142D01*
X191230654Y-112464285D01*
X191183035Y-112273809D01*
X191183035Y-111892857D01*
X191230654Y-111797619D01*
X191278273Y-111750000D01*
X191373511Y-111702380D01*
X191563988Y-111702380D01*
X191659226Y-111750000D01*
X191706845Y-111797619D01*
X191754464Y-111892857D01*
X191754464Y-112130952D01*
X191706845Y-112226190D01*
X191659226Y-112273809D01*
X191563988Y-112321428D01*
X191373511Y-112321428D01*
X191278273Y-112273809D01*
X191230654Y-112226190D01*
X191183035Y-112130952D01*
X173452380Y-109711904D02*
X172452380Y-109711904D01*
X172452380Y-109950000D01*
X172500000Y-110092857D01*
X172595238Y-110188095D01*
X172690476Y-110235714D01*
X172880952Y-110283333D01*
X173023809Y-110283333D01*
X173214285Y-110235714D01*
X173309523Y-110188095D01*
X173404761Y-110092857D01*
X173452380Y-109950000D01*
X173452380Y-109711904D01*
X173452380Y-111235714D02*
X173452380Y-110664285D01*
X173452380Y-110950000D02*
X172452380Y-110950000D01*
X172595238Y-110854761D01*
X172690476Y-110759523D01*
X172738095Y-110664285D01*
X171452380Y-109711904D02*
X170452380Y-109711904D01*
X170452380Y-109950000D01*
X170500000Y-110092857D01*
X170595238Y-110188095D01*
X170690476Y-110235714D01*
X170880952Y-110283333D01*
X171023809Y-110283333D01*
X171214285Y-110235714D01*
X171309523Y-110188095D01*
X171404761Y-110092857D01*
X171452380Y-109950000D01*
X171452380Y-109711904D01*
X170547619Y-110664285D02*
X170500000Y-110711904D01*
X170452380Y-110807142D01*
X170452380Y-111045238D01*
X170500000Y-111140476D01*
X170547619Y-111188095D01*
X170642857Y-111235714D01*
X170738095Y-111235714D01*
X170880952Y-111188095D01*
X171452380Y-110616666D01*
X171452380Y-111235714D01*
X123952380Y-158511904D02*
X122952380Y-158511904D01*
X122952380Y-158750000D01*
X123000000Y-158892857D01*
X123095238Y-158988095D01*
X123190476Y-159035714D01*
X123380952Y-159083333D01*
X123523809Y-159083333D01*
X123714285Y-159035714D01*
X123809523Y-158988095D01*
X123904761Y-158892857D01*
X123952380Y-158750000D01*
X123952380Y-158511904D01*
X122952380Y-159416666D02*
X122952380Y-160035714D01*
X123333333Y-159702380D01*
X123333333Y-159845238D01*
X123380952Y-159940476D01*
X123428571Y-159988095D01*
X123523809Y-160035714D01*
X123761904Y-160035714D01*
X123857142Y-159988095D01*
X123904761Y-159940476D01*
X123952380Y-159845238D01*
X123952380Y-159559523D01*
X123904761Y-159464285D01*
X123857142Y-159416666D01*
X161952380Y-98311904D02*
X160952380Y-98311904D01*
X160952380Y-98550000D01*
X161000000Y-98692857D01*
X161095238Y-98788095D01*
X161190476Y-98835714D01*
X161380952Y-98883333D01*
X161523809Y-98883333D01*
X161714285Y-98835714D01*
X161809523Y-98788095D01*
X161904761Y-98692857D01*
X161952380Y-98550000D01*
X161952380Y-98311904D01*
X161285714Y-99740476D02*
X161952380Y-99740476D01*
X160904761Y-99502380D02*
X161619047Y-99264285D01*
X161619047Y-99883333D01*
X163952380Y-98311904D02*
X162952380Y-98311904D01*
X162952380Y-98550000D01*
X163000000Y-98692857D01*
X163095238Y-98788095D01*
X163190476Y-98835714D01*
X163380952Y-98883333D01*
X163523809Y-98883333D01*
X163714285Y-98835714D01*
X163809523Y-98788095D01*
X163904761Y-98692857D01*
X163952380Y-98550000D01*
X163952380Y-98311904D01*
X162952380Y-99788095D02*
X162952380Y-99311904D01*
X163428571Y-99264285D01*
X163380952Y-99311904D01*
X163333333Y-99407142D01*
X163333333Y-99645238D01*
X163380952Y-99740476D01*
X163428571Y-99788095D01*
X163523809Y-99835714D01*
X163761904Y-99835714D01*
X163857142Y-99788095D01*
X163904761Y-99740476D01*
X163952380Y-99645238D01*
X163952380Y-99407142D01*
X163904761Y-99311904D01*
X163857142Y-99264285D01*
X161952380Y-109711904D02*
X160952380Y-109711904D01*
X160952380Y-109950000D01*
X161000000Y-110092857D01*
X161095238Y-110188095D01*
X161190476Y-110235714D01*
X161380952Y-110283333D01*
X161523809Y-110283333D01*
X161714285Y-110235714D01*
X161809523Y-110188095D01*
X161904761Y-110092857D01*
X161952380Y-109950000D01*
X161952380Y-109711904D01*
X160952380Y-111140476D02*
X160952380Y-110950000D01*
X161000000Y-110854761D01*
X161047619Y-110807142D01*
X161190476Y-110711904D01*
X161380952Y-110664285D01*
X161761904Y-110664285D01*
X161857142Y-110711904D01*
X161904761Y-110759523D01*
X161952380Y-110854761D01*
X161952380Y-111045238D01*
X161904761Y-111140476D01*
X161857142Y-111188095D01*
X161761904Y-111235714D01*
X161523809Y-111235714D01*
X161428571Y-111188095D01*
X161380952Y-111140476D01*
X161333333Y-111045238D01*
X161333333Y-110854761D01*
X161380952Y-110759523D01*
X161428571Y-110711904D01*
X161523809Y-110664285D01*
X159952380Y-109761904D02*
X158952380Y-109761904D01*
X158952380Y-110000000D01*
X159000000Y-110142857D01*
X159095238Y-110238095D01*
X159190476Y-110285714D01*
X159380952Y-110333333D01*
X159523809Y-110333333D01*
X159714285Y-110285714D01*
X159809523Y-110238095D01*
X159904761Y-110142857D01*
X159952380Y-110000000D01*
X159952380Y-109761904D01*
X158952380Y-110666666D02*
X158952380Y-111333333D01*
X159952380Y-110904761D01*
X149588095Y-160452380D02*
X149588095Y-159452380D01*
X149350000Y-159452380D01*
X149207142Y-159500000D01*
X149111904Y-159595238D01*
X149064285Y-159690476D01*
X149016666Y-159880952D01*
X149016666Y-160023809D01*
X149064285Y-160214285D01*
X149111904Y-160309523D01*
X149207142Y-160404761D01*
X149350000Y-160452380D01*
X149588095Y-160452380D01*
X148445238Y-159880952D02*
X148540476Y-159833333D01*
X148588095Y-159785714D01*
X148635714Y-159690476D01*
X148635714Y-159642857D01*
X148588095Y-159547619D01*
X148540476Y-159500000D01*
X148445238Y-159452380D01*
X148254761Y-159452380D01*
X148159523Y-159500000D01*
X148111904Y-159547619D01*
X148064285Y-159642857D01*
X148064285Y-159690476D01*
X148111904Y-159785714D01*
X148159523Y-159833333D01*
X148254761Y-159880952D01*
X148445238Y-159880952D01*
X148540476Y-159928571D01*
X148588095Y-159976190D01*
X148635714Y-160071428D01*
X148635714Y-160261904D01*
X148588095Y-160357142D01*
X148540476Y-160404761D01*
X148445238Y-160452380D01*
X148254761Y-160452380D01*
X148159523Y-160404761D01*
X148111904Y-160357142D01*
X148064285Y-160261904D01*
X148064285Y-160071428D01*
X148111904Y-159976190D01*
X148159523Y-159928571D01*
X148254761Y-159880952D01*
X155447619Y-163666666D02*
X155447619Y-164142857D01*
X156447619Y-164142857D01*
X155447619Y-162809523D02*
X155447619Y-163380952D01*
X155447619Y-163095238D02*
X156447619Y-163095238D01*
X156304761Y-163190476D01*
X156209523Y-163285714D01*
X156161904Y-163380952D01*
X181053571Y-116047619D02*
X181148809Y-116000000D01*
X181244047Y-115904761D01*
X181386904Y-115761904D01*
X181482142Y-115714285D01*
X181577380Y-115714285D01*
X181529761Y-115952380D02*
X181624999Y-115904761D01*
X181720237Y-115809523D01*
X181767856Y-115619047D01*
X181767856Y-115285714D01*
X181720237Y-115095238D01*
X181624999Y-115000000D01*
X181529761Y-114952380D01*
X181339285Y-114952380D01*
X181244047Y-115000000D01*
X181148809Y-115095238D01*
X181101190Y-115285714D01*
X181101190Y-115619047D01*
X181148809Y-115809523D01*
X181244047Y-115904761D01*
X181339285Y-115952380D01*
X181529761Y-115952380D01*
X180148809Y-115952380D02*
X180720237Y-115952380D01*
X180434523Y-115952380D02*
X180434523Y-114952380D01*
X180529761Y-115095238D01*
X180624999Y-115190476D01*
X180720237Y-115238095D01*
X181074404Y-109547619D02*
X181169642Y-109500000D01*
X181264880Y-109404761D01*
X181407737Y-109261904D01*
X181502975Y-109214285D01*
X181598213Y-109214285D01*
X181550594Y-109452380D02*
X181645832Y-109404761D01*
X181741070Y-109309523D01*
X181788689Y-109119047D01*
X181788689Y-108785714D01*
X181741070Y-108595238D01*
X181645832Y-108500000D01*
X181550594Y-108452380D01*
X181360118Y-108452380D01*
X181264880Y-108500000D01*
X181169642Y-108595238D01*
X181122023Y-108785714D01*
X181122023Y-109119047D01*
X181169642Y-109309523D01*
X181264880Y-109404761D01*
X181360118Y-109452380D01*
X181550594Y-109452380D01*
X180741070Y-108547619D02*
X180693451Y-108500000D01*
X180598213Y-108452380D01*
X180360118Y-108452380D01*
X180264880Y-108500000D01*
X180217261Y-108547619D01*
X180169642Y-108642857D01*
X180169642Y-108738095D01*
X180217261Y-108880952D01*
X180788689Y-109452380D01*
X180169642Y-109452380D01*
X181416665Y-105452380D02*
X181749999Y-104976190D01*
X181988094Y-105452380D02*
X181988094Y-104452380D01*
X181607141Y-104452380D01*
X181511903Y-104500000D01*
X181464284Y-104547619D01*
X181416665Y-104642857D01*
X181416665Y-104785714D01*
X181464284Y-104880952D01*
X181511903Y-104928571D01*
X181607141Y-104976190D01*
X181988094Y-104976190D01*
X180464284Y-105452380D02*
X181035713Y-105452380D01*
X180749999Y-105452380D02*
X180749999Y-104452380D01*
X180845237Y-104595238D01*
X180940475Y-104690476D01*
X181035713Y-104738095D01*
X181166666Y-112952380D02*
X181500000Y-112476190D01*
X181738095Y-112952380D02*
X181738095Y-111952380D01*
X181357142Y-111952380D01*
X181261904Y-112000000D01*
X181214285Y-112047619D01*
X181166666Y-112142857D01*
X181166666Y-112285714D01*
X181214285Y-112380952D01*
X181261904Y-112428571D01*
X181357142Y-112476190D01*
X181738095Y-112476190D01*
X180785714Y-112047619D02*
X180738095Y-112000000D01*
X180642857Y-111952380D01*
X180404761Y-111952380D01*
X180309523Y-112000000D01*
X180261904Y-112047619D01*
X180214285Y-112142857D01*
X180214285Y-112238095D01*
X180261904Y-112380952D01*
X180833333Y-112952380D01*
X180214285Y-112952380D01*
X159229166Y-156802380D02*
X159562500Y-156326190D01*
X159800595Y-156802380D02*
X159800595Y-155802380D01*
X159419642Y-155802380D01*
X159324404Y-155850000D01*
X159276785Y-155897619D01*
X159229166Y-155992857D01*
X159229166Y-156135714D01*
X159276785Y-156230952D01*
X159324404Y-156278571D01*
X159419642Y-156326190D01*
X159800595Y-156326190D01*
X158895833Y-155802380D02*
X158276785Y-155802380D01*
X158610119Y-156183333D01*
X158467261Y-156183333D01*
X158372023Y-156230952D01*
X158324404Y-156278571D01*
X158276785Y-156373809D01*
X158276785Y-156611904D01*
X158324404Y-156707142D01*
X158372023Y-156754761D01*
X158467261Y-156802380D01*
X158752976Y-156802380D01*
X158848214Y-156754761D01*
X158895833Y-156707142D01*
X155166666Y-156802380D02*
X155500000Y-156326190D01*
X155738095Y-156802380D02*
X155738095Y-155802380D01*
X155357142Y-155802380D01*
X155261904Y-155850000D01*
X155214285Y-155897619D01*
X155166666Y-155992857D01*
X155166666Y-156135714D01*
X155214285Y-156230952D01*
X155261904Y-156278571D01*
X155357142Y-156326190D01*
X155738095Y-156326190D01*
X154309523Y-156135714D02*
X154309523Y-156802380D01*
X154547619Y-155754761D02*
X154785714Y-156469047D01*
X154166666Y-156469047D01*
X191916666Y-115952380D02*
X192250000Y-115476190D01*
X192488095Y-115952380D02*
X192488095Y-114952380D01*
X192107142Y-114952380D01*
X192011904Y-115000000D01*
X191964285Y-115047619D01*
X191916666Y-115142857D01*
X191916666Y-115285714D01*
X191964285Y-115380952D01*
X192011904Y-115428571D01*
X192107142Y-115476190D01*
X192488095Y-115476190D01*
X191011904Y-114952380D02*
X191488095Y-114952380D01*
X191535714Y-115428571D01*
X191488095Y-115380952D01*
X191392857Y-115333333D01*
X191154761Y-115333333D01*
X191059523Y-115380952D01*
X191011904Y-115428571D01*
X190964285Y-115523809D01*
X190964285Y-115761904D01*
X191011904Y-115857142D01*
X191059523Y-115904761D01*
X191154761Y-115952380D01*
X191392857Y-115952380D01*
X191488095Y-115904761D01*
X191535714Y-115857142D01*
X191916666Y-109452380D02*
X192250000Y-108976190D01*
X192488095Y-109452380D02*
X192488095Y-108452380D01*
X192107142Y-108452380D01*
X192011904Y-108500000D01*
X191964285Y-108547619D01*
X191916666Y-108642857D01*
X191916666Y-108785714D01*
X191964285Y-108880952D01*
X192011904Y-108928571D01*
X192107142Y-108976190D01*
X192488095Y-108976190D01*
X191059523Y-108452380D02*
X191250000Y-108452380D01*
X191345238Y-108500000D01*
X191392857Y-108547619D01*
X191488095Y-108690476D01*
X191535714Y-108880952D01*
X191535714Y-109261904D01*
X191488095Y-109357142D01*
X191440476Y-109404761D01*
X191345238Y-109452380D01*
X191154761Y-109452380D01*
X191059523Y-109404761D01*
X191011904Y-109357142D01*
X190964285Y-109261904D01*
X190964285Y-109023809D01*
X191011904Y-108928571D01*
X191059523Y-108880952D01*
X191154761Y-108833333D01*
X191345238Y-108833333D01*
X191440476Y-108880952D01*
X191488095Y-108928571D01*
X191535714Y-109023809D01*
X159952380Y-98695833D02*
X159476190Y-98362500D01*
X159952380Y-98124404D02*
X158952380Y-98124404D01*
X158952380Y-98505357D01*
X159000000Y-98600595D01*
X159047619Y-98648214D01*
X159142857Y-98695833D01*
X159285714Y-98695833D01*
X159380952Y-98648214D01*
X159428571Y-98600595D01*
X159476190Y-98505357D01*
X159476190Y-98124404D01*
X158952380Y-99029166D02*
X158952380Y-99695833D01*
X159952380Y-99267261D01*
X163952380Y-110533333D02*
X163476190Y-110200000D01*
X163952380Y-109961904D02*
X162952380Y-109961904D01*
X162952380Y-110342857D01*
X163000000Y-110438095D01*
X163047619Y-110485714D01*
X163142857Y-110533333D01*
X163285714Y-110533333D01*
X163380952Y-110485714D01*
X163428571Y-110438095D01*
X163476190Y-110342857D01*
X163476190Y-109961904D01*
X163380952Y-111104761D02*
X163333333Y-111009523D01*
X163285714Y-110961904D01*
X163190476Y-110914285D01*
X163142857Y-110914285D01*
X163047619Y-110961904D01*
X163000000Y-111009523D01*
X162952380Y-111104761D01*
X162952380Y-111295238D01*
X163000000Y-111390476D01*
X163047619Y-111438095D01*
X163142857Y-111485714D01*
X163190476Y-111485714D01*
X163285714Y-111438095D01*
X163333333Y-111390476D01*
X163380952Y-111295238D01*
X163380952Y-111104761D01*
X163428571Y-111009523D01*
X163476190Y-110961904D01*
X163571428Y-110914285D01*
X163761904Y-110914285D01*
X163857142Y-110961904D01*
X163904761Y-111009523D01*
X163952380Y-111104761D01*
X163952380Y-111295238D01*
X163904761Y-111390476D01*
X163857142Y-111438095D01*
X163761904Y-111485714D01*
X163571428Y-111485714D01*
X163476190Y-111438095D01*
X163428571Y-111390476D01*
X163380952Y-111295238D01*
X175452380Y-110333333D02*
X174976190Y-110000000D01*
X175452380Y-109761904D02*
X174452380Y-109761904D01*
X174452380Y-110142857D01*
X174500000Y-110238095D01*
X174547619Y-110285714D01*
X174642857Y-110333333D01*
X174785714Y-110333333D01*
X174880952Y-110285714D01*
X174928571Y-110238095D01*
X174976190Y-110142857D01*
X174976190Y-109761904D01*
X175452380Y-110809523D02*
X175452380Y-111000000D01*
X175404761Y-111095238D01*
X175357142Y-111142857D01*
X175214285Y-111238095D01*
X175023809Y-111285714D01*
X174642857Y-111285714D01*
X174547619Y-111238095D01*
X174500000Y-111190476D01*
X174452380Y-111095238D01*
X174452380Y-110904761D01*
X174500000Y-110809523D01*
X174547619Y-110761904D01*
X174642857Y-110714285D01*
X174880952Y-110714285D01*
X174976190Y-110761904D01*
X175023809Y-110809523D01*
X175071428Y-110904761D01*
X175071428Y-111095238D01*
X175023809Y-111190476D01*
X174976190Y-111238095D01*
X174880952Y-111285714D01*
X128452380Y-112318095D02*
X129261904Y-112318095D01*
X129357142Y-112365714D01*
X129404761Y-112413333D01*
X129452380Y-112508571D01*
X129452380Y-112699047D01*
X129404761Y-112794285D01*
X129357142Y-112841904D01*
X129261904Y-112889523D01*
X128452380Y-112889523D01*
X129452380Y-113889523D02*
X129452380Y-113318095D01*
X129452380Y-113603809D02*
X128452380Y-113603809D01*
X128595238Y-113508571D01*
X128690476Y-113413333D01*
X128738095Y-113318095D01*
X153761904Y-165852380D02*
X153761904Y-166661904D01*
X153714285Y-166757142D01*
X153666666Y-166804761D01*
X153571428Y-166852380D01*
X153380952Y-166852380D01*
X153285714Y-166804761D01*
X153238095Y-166757142D01*
X153190476Y-166661904D01*
X153190476Y-165852380D01*
X152761904Y-165947619D02*
X152714285Y-165900000D01*
X152619047Y-165852380D01*
X152380952Y-165852380D01*
X152285714Y-165900000D01*
X152238095Y-165947619D01*
X152190476Y-166042857D01*
X152190476Y-166138095D01*
X152238095Y-166280952D01*
X152809523Y-166852380D01*
X152190476Y-166852380D01*
M02*
