G04 #@! TF.GenerationSoftware,KiCad,Pcbnew,5.1.5*
G04 #@! TF.CreationDate,2020-03-07T10:52:19+01:00*
G04 #@! TF.ProjectId,e-chessboard,652d6368-6573-4736-926f-6172642e6b69,0.2*
G04 #@! TF.SameCoordinates,Original*
G04 #@! TF.FileFunction,Legend,Top*
G04 #@! TF.FilePolarity,Positive*
%FSLAX46Y46*%
G04 Gerber Fmt 4.6, Leading zero omitted, Abs format (unit mm)*
G04 Created by KiCad (PCBNEW 5.1.5) date 2020-03-07 10:52:19*
%MOMM*%
%LPD*%
G04 APERTURE LIST*
%ADD10C,0.300000*%
%ADD11C,0.120000*%
%ADD12C,0.150000*%
G04 APERTURE END LIST*
D10*
X209714285Y-119642857D02*
X209928571Y-119714285D01*
X210000000Y-119785714D01*
X210071428Y-119928571D01*
X210071428Y-120142857D01*
X210000000Y-120285714D01*
X209928571Y-120357142D01*
X209785714Y-120428571D01*
X209214285Y-120428571D01*
X209214285Y-118928571D01*
X209714285Y-118928571D01*
X209857142Y-119000000D01*
X209928571Y-119071428D01*
X210000000Y-119214285D01*
X210000000Y-119357142D01*
X209928571Y-119500000D01*
X209857142Y-119571428D01*
X209714285Y-119642857D01*
X209214285Y-119642857D01*
X211000000Y-118928571D02*
X211285714Y-118928571D01*
X211428571Y-119000000D01*
X211571428Y-119142857D01*
X211642857Y-119428571D01*
X211642857Y-119928571D01*
X211571428Y-120214285D01*
X211428571Y-120357142D01*
X211285714Y-120428571D01*
X211000000Y-120428571D01*
X210857142Y-120357142D01*
X210714285Y-120214285D01*
X210642857Y-119928571D01*
X210642857Y-119428571D01*
X210714285Y-119142857D01*
X210857142Y-119000000D01*
X211000000Y-118928571D01*
X212571428Y-118928571D02*
X212857142Y-118928571D01*
X213000000Y-119000000D01*
X213142857Y-119142857D01*
X213214285Y-119428571D01*
X213214285Y-119928571D01*
X213142857Y-120214285D01*
X213000000Y-120357142D01*
X212857142Y-120428571D01*
X212571428Y-120428571D01*
X212428571Y-120357142D01*
X212285714Y-120214285D01*
X212214285Y-119928571D01*
X212214285Y-119428571D01*
X212285714Y-119142857D01*
X212428571Y-119000000D01*
X212571428Y-118928571D01*
X213642857Y-118928571D02*
X214500000Y-118928571D01*
X214071428Y-120428571D02*
X214071428Y-118928571D01*
X209821428Y-100678571D02*
X209321428Y-99964285D01*
X208964285Y-100678571D02*
X208964285Y-99178571D01*
X209535714Y-99178571D01*
X209678571Y-99250000D01*
X209750000Y-99321428D01*
X209821428Y-99464285D01*
X209821428Y-99678571D01*
X209750000Y-99821428D01*
X209678571Y-99892857D01*
X209535714Y-99964285D01*
X208964285Y-99964285D01*
X210464285Y-99892857D02*
X210964285Y-99892857D01*
X211178571Y-100678571D02*
X210464285Y-100678571D01*
X210464285Y-99178571D01*
X211178571Y-99178571D01*
X211750000Y-100607142D02*
X211964285Y-100678571D01*
X212321428Y-100678571D01*
X212464285Y-100607142D01*
X212535714Y-100535714D01*
X212607142Y-100392857D01*
X212607142Y-100250000D01*
X212535714Y-100107142D01*
X212464285Y-100035714D01*
X212321428Y-99964285D01*
X212035714Y-99892857D01*
X211892857Y-99821428D01*
X211821428Y-99750000D01*
X211750000Y-99607142D01*
X211750000Y-99464285D01*
X211821428Y-99321428D01*
X211892857Y-99250000D01*
X212035714Y-99178571D01*
X212392857Y-99178571D01*
X212607142Y-99250000D01*
X213250000Y-99892857D02*
X213750000Y-99892857D01*
X213964285Y-100678571D02*
X213250000Y-100678571D01*
X213250000Y-99178571D01*
X213964285Y-99178571D01*
X214392857Y-99178571D02*
X215250000Y-99178571D01*
X214821428Y-100678571D02*
X214821428Y-99178571D01*
X194607142Y-111750000D02*
X194464285Y-111678571D01*
X194250000Y-111678571D01*
X194035714Y-111750000D01*
X193892857Y-111892857D01*
X193821428Y-112035714D01*
X193750000Y-112321428D01*
X193750000Y-112535714D01*
X193821428Y-112821428D01*
X193892857Y-112964285D01*
X194035714Y-113107142D01*
X194250000Y-113178571D01*
X194392857Y-113178571D01*
X194607142Y-113107142D01*
X194678571Y-113035714D01*
X194678571Y-112535714D01*
X194392857Y-112535714D01*
X195321428Y-113178571D02*
X195321428Y-111678571D01*
X196178571Y-113178571D01*
X196178571Y-111678571D01*
X196892857Y-113178571D02*
X196892857Y-111678571D01*
X197250000Y-111678571D01*
X197464285Y-111750000D01*
X197607142Y-111892857D01*
X197678571Y-112035714D01*
X197750000Y-112321428D01*
X197750000Y-112535714D01*
X197678571Y-112821428D01*
X197607142Y-112964285D01*
X197464285Y-113107142D01*
X197250000Y-113178571D01*
X196892857Y-113178571D01*
X195357142Y-109178571D02*
X196214285Y-109178571D01*
X195785714Y-110678571D02*
X195785714Y-109178571D01*
X196571428Y-109178571D02*
X197571428Y-110678571D01*
X197571428Y-109178571D02*
X196571428Y-110678571D01*
X194035714Y-108178571D02*
X194035714Y-106678571D01*
X194392857Y-106678571D01*
X194607142Y-106750000D01*
X194750000Y-106892857D01*
X194821428Y-107035714D01*
X194892857Y-107321428D01*
X194892857Y-107535714D01*
X194821428Y-107821428D01*
X194750000Y-107964285D01*
X194607142Y-108107142D01*
X194392857Y-108178571D01*
X194035714Y-108178571D01*
X195321428Y-106678571D02*
X196178571Y-106678571D01*
X195750000Y-108178571D02*
X195750000Y-106678571D01*
X197535714Y-108178571D02*
X197035714Y-107464285D01*
X196678571Y-108178571D02*
X196678571Y-106678571D01*
X197250000Y-106678571D01*
X197392857Y-106750000D01*
X197464285Y-106821428D01*
X197535714Y-106964285D01*
X197535714Y-107178571D01*
X197464285Y-107321428D01*
X197392857Y-107392857D01*
X197250000Y-107464285D01*
X196678571Y-107464285D01*
X205678571Y-108178571D02*
X205178571Y-107464285D01*
X204821428Y-108178571D02*
X204821428Y-106678571D01*
X205392857Y-106678571D01*
X205535714Y-106750000D01*
X205607142Y-106821428D01*
X205678571Y-106964285D01*
X205678571Y-107178571D01*
X205607142Y-107321428D01*
X205535714Y-107392857D01*
X205392857Y-107464285D01*
X204821428Y-107464285D01*
X206107142Y-106678571D02*
X206964285Y-106678571D01*
X206535714Y-108178571D02*
X206535714Y-106678571D01*
X207392857Y-108107142D02*
X207607142Y-108178571D01*
X207964285Y-108178571D01*
X208107142Y-108107142D01*
X208178571Y-108035714D01*
X208250000Y-107892857D01*
X208250000Y-107750000D01*
X208178571Y-107607142D01*
X208107142Y-107535714D01*
X207964285Y-107464285D01*
X207678571Y-107392857D01*
X207535714Y-107321428D01*
X207464285Y-107250000D01*
X207392857Y-107107142D01*
X207392857Y-106964285D01*
X207464285Y-106821428D01*
X207535714Y-106750000D01*
X207678571Y-106678571D01*
X208035714Y-106678571D01*
X208250000Y-106750000D01*
X205750000Y-110678571D02*
X205250000Y-109964285D01*
X204892857Y-110678571D02*
X204892857Y-109178571D01*
X205464285Y-109178571D01*
X205607142Y-109250000D01*
X205678571Y-109321428D01*
X205750000Y-109464285D01*
X205750000Y-109678571D01*
X205678571Y-109821428D01*
X205607142Y-109892857D01*
X205464285Y-109964285D01*
X204892857Y-109964285D01*
X206250000Y-109178571D02*
X207250000Y-110678571D01*
X207250000Y-109178571D02*
X206250000Y-110678571D01*
X204785714Y-111678571D02*
X205714285Y-111678571D01*
X205214285Y-112250000D01*
X205428571Y-112250000D01*
X205571428Y-112321428D01*
X205642857Y-112392857D01*
X205714285Y-112535714D01*
X205714285Y-112892857D01*
X205642857Y-113035714D01*
X205571428Y-113107142D01*
X205428571Y-113178571D01*
X205000000Y-113178571D01*
X204857142Y-113107142D01*
X204785714Y-113035714D01*
X206357142Y-113035714D02*
X206428571Y-113107142D01*
X206357142Y-113178571D01*
X206285714Y-113107142D01*
X206357142Y-113035714D01*
X206357142Y-113178571D01*
X206928571Y-111678571D02*
X207857142Y-111678571D01*
X207357142Y-112250000D01*
X207571428Y-112250000D01*
X207714285Y-112321428D01*
X207785714Y-112392857D01*
X207857142Y-112535714D01*
X207857142Y-112892857D01*
X207785714Y-113035714D01*
X207714285Y-113107142D01*
X207571428Y-113178571D01*
X207142857Y-113178571D01*
X207000000Y-113107142D01*
X206928571Y-113035714D01*
X208285714Y-111678571D02*
X208785714Y-113178571D01*
X209285714Y-111678571D01*
D11*
X205261252Y-97710000D02*
X204738748Y-97710000D01*
X205261252Y-96290000D02*
X204738748Y-96290000D01*
X205261252Y-123460000D02*
X204738748Y-123460000D01*
X205261252Y-122040000D02*
X204738748Y-122040000D01*
X137161252Y-66990000D02*
X136638748Y-66990000D01*
X137161252Y-68410000D02*
X136638748Y-68410000D01*
X123238748Y-56010000D02*
X123761252Y-56010000D01*
X123238748Y-54590000D02*
X123761252Y-54590000D01*
X61650000Y-81600000D02*
X61650000Y-87000000D01*
X58350000Y-81600000D02*
X58350000Y-87000000D01*
X61650000Y-81600000D02*
X58350000Y-81600000D01*
X61650000Y-131600000D02*
X61650000Y-137000000D01*
X58350000Y-131600000D02*
X58350000Y-137000000D01*
X61650000Y-131600000D02*
X58350000Y-131600000D01*
X61650000Y-182100000D02*
X61650000Y-187500000D01*
X58350000Y-182100000D02*
X58350000Y-187500000D01*
X61650000Y-182100000D02*
X58350000Y-182100000D01*
X111650000Y-81600000D02*
X108350000Y-81600000D01*
X108350000Y-81600000D02*
X108350000Y-87000000D01*
X111650000Y-81600000D02*
X111650000Y-87000000D01*
X111650000Y-131600000D02*
X108350000Y-131600000D01*
X108350000Y-131600000D02*
X108350000Y-137000000D01*
X111650000Y-131600000D02*
X111650000Y-137000000D01*
X111650000Y-181600000D02*
X108350000Y-181600000D01*
X108350000Y-181600000D02*
X108350000Y-187000000D01*
X111650000Y-181600000D02*
X111650000Y-187000000D01*
X161650000Y-81600000D02*
X158350000Y-81600000D01*
X158350000Y-81600000D02*
X158350000Y-87000000D01*
X161650000Y-81600000D02*
X161650000Y-87000000D01*
X161650000Y-131600000D02*
X161650000Y-137000000D01*
X158350000Y-131600000D02*
X158350000Y-137000000D01*
X161650000Y-131600000D02*
X158350000Y-131600000D01*
X161650000Y-181600000D02*
X161650000Y-187000000D01*
X158350000Y-181600000D02*
X158350000Y-187000000D01*
X161650000Y-181600000D02*
X158350000Y-181600000D01*
X203840000Y-168410000D02*
X207000000Y-168410000D01*
X210500000Y-168410000D02*
X213660000Y-168410000D01*
X210500000Y-145690000D02*
X213660000Y-145690000D01*
X213660000Y-145690000D02*
X213660000Y-168410000D01*
X203840000Y-145690000D02*
X203840000Y-168410000D01*
X203840000Y-145690000D02*
X207000000Y-145690000D01*
X209800000Y-172900000D02*
X218800000Y-172900000D01*
X218800000Y-172900000D02*
X218800000Y-182100000D01*
X218800000Y-182100000D02*
X204200000Y-182100000D01*
X204200000Y-182100000D02*
X204200000Y-179300000D01*
X204200000Y-175700000D02*
X204200000Y-172900000D01*
X204200000Y-172900000D02*
X206200000Y-172900000D01*
X205700000Y-182340000D02*
X203960000Y-182340000D01*
X203960000Y-182340000D02*
X203960000Y-180600000D01*
X203830000Y-106090000D02*
X198630000Y-106090000D01*
X203830000Y-111230000D02*
X203830000Y-106090000D01*
X198630000Y-113830000D02*
X198630000Y-106090000D01*
X203830000Y-111230000D02*
X201230000Y-111230000D01*
X201230000Y-111230000D02*
X201230000Y-113830000D01*
X201230000Y-113830000D02*
X198630000Y-113830000D01*
X203830000Y-112500000D02*
X203830000Y-113830000D01*
X203830000Y-113830000D02*
X202500000Y-113830000D01*
X95000000Y-85000000D02*
G75*
G03X95000000Y-85000000I-10000000J0D01*
G01*
X95000000Y-135000000D02*
G75*
G03X95000000Y-135000000I-10000000J0D01*
G01*
X95000000Y-185000000D02*
G75*
G03X95000000Y-185000000I-10000000J0D01*
G01*
X145000000Y-85000000D02*
G75*
G03X145000000Y-85000000I-10000000J0D01*
G01*
X145000000Y-135000000D02*
G75*
G03X145000000Y-135000000I-10000000J0D01*
G01*
X145000000Y-185000000D02*
G75*
G03X145000000Y-185000000I-10000000J0D01*
G01*
X195000000Y-85000000D02*
G75*
G03X195000000Y-85000000I-10000000J0D01*
G01*
X195000000Y-135000000D02*
G75*
G03X195000000Y-135000000I-10000000J0D01*
G01*
X195000000Y-185000000D02*
G75*
G03X195000000Y-185000000I-10000000J0D01*
G01*
X208100000Y-98150000D02*
X208100000Y-98800000D01*
X208100000Y-101850000D02*
X208100000Y-101200000D01*
X201900000Y-101200000D02*
X201900000Y-101850000D01*
X201900000Y-98150000D02*
X201900000Y-98800000D01*
X208100000Y-98150000D02*
X201900000Y-98150000D01*
X201900000Y-101850000D02*
X208100000Y-101850000D01*
X201900000Y-121600000D02*
X208100000Y-121600000D01*
X208100000Y-117900000D02*
X201900000Y-117900000D01*
X201900000Y-117900000D02*
X201900000Y-118550000D01*
X201900000Y-120950000D02*
X201900000Y-121600000D01*
X208100000Y-121600000D02*
X208100000Y-120950000D01*
X208100000Y-117900000D02*
X208100000Y-118550000D01*
X144060000Y-60000000D02*
X144060000Y-56140000D01*
X144060000Y-56140000D02*
X143815000Y-56140000D01*
X144060000Y-60000000D02*
X144060000Y-63860000D01*
X144060000Y-63860000D02*
X143815000Y-63860000D01*
X125940000Y-60000000D02*
X125940000Y-56140000D01*
X125940000Y-56140000D02*
X126185000Y-56140000D01*
X125940000Y-60000000D02*
X125940000Y-63860000D01*
X125940000Y-63860000D02*
X126185000Y-63860000D01*
X126185000Y-63860000D02*
X126185000Y-65675000D01*
D12*
X59238095Y-56602380D02*
X59238095Y-55602380D01*
X59238095Y-56078571D02*
X59809523Y-56078571D01*
X59809523Y-56602380D02*
X59809523Y-55602380D01*
X60809523Y-56602380D02*
X60238095Y-56602380D01*
X60523809Y-56602380D02*
X60523809Y-55602380D01*
X60428571Y-55745238D01*
X60333333Y-55840476D01*
X60238095Y-55888095D01*
X209238095Y-56602380D02*
X209238095Y-55602380D01*
X209238095Y-56078571D02*
X209809523Y-56078571D01*
X209809523Y-56602380D02*
X209809523Y-55602380D01*
X210238095Y-55697619D02*
X210285714Y-55650000D01*
X210380952Y-55602380D01*
X210619047Y-55602380D01*
X210714285Y-55650000D01*
X210761904Y-55697619D01*
X210809523Y-55792857D01*
X210809523Y-55888095D01*
X210761904Y-56030952D01*
X210190476Y-56602380D01*
X210809523Y-56602380D01*
X59238095Y-206602380D02*
X59238095Y-205602380D01*
X59238095Y-206078571D02*
X59809523Y-206078571D01*
X59809523Y-206602380D02*
X59809523Y-205602380D01*
X60190476Y-205602380D02*
X60809523Y-205602380D01*
X60476190Y-205983333D01*
X60619047Y-205983333D01*
X60714285Y-206030952D01*
X60761904Y-206078571D01*
X60809523Y-206173809D01*
X60809523Y-206411904D01*
X60761904Y-206507142D01*
X60714285Y-206554761D01*
X60619047Y-206602380D01*
X60333333Y-206602380D01*
X60238095Y-206554761D01*
X60190476Y-206507142D01*
X209238095Y-206602380D02*
X209238095Y-205602380D01*
X209238095Y-206078571D02*
X209809523Y-206078571D01*
X209809523Y-206602380D02*
X209809523Y-205602380D01*
X210714285Y-205935714D02*
X210714285Y-206602380D01*
X210476190Y-205554761D02*
X210238095Y-206269047D01*
X210857142Y-206269047D01*
X204357142Y-95857142D02*
X204309523Y-95904761D01*
X204166666Y-95952380D01*
X204071428Y-95952380D01*
X203928571Y-95904761D01*
X203833333Y-95809523D01*
X203785714Y-95714285D01*
X203738095Y-95523809D01*
X203738095Y-95380952D01*
X203785714Y-95190476D01*
X203833333Y-95095238D01*
X203928571Y-95000000D01*
X204071428Y-94952380D01*
X204166666Y-94952380D01*
X204309523Y-95000000D01*
X204357142Y-95047619D01*
X205309523Y-95952380D02*
X204738095Y-95952380D01*
X205023809Y-95952380D02*
X205023809Y-94952380D01*
X204928571Y-95095238D01*
X204833333Y-95190476D01*
X204738095Y-95238095D01*
X205928571Y-94952380D02*
X206023809Y-94952380D01*
X206119047Y-95000000D01*
X206166666Y-95047619D01*
X206214285Y-95142857D01*
X206261904Y-95333333D01*
X206261904Y-95571428D01*
X206214285Y-95761904D01*
X206166666Y-95857142D01*
X206119047Y-95904761D01*
X206023809Y-95952380D01*
X205928571Y-95952380D01*
X205833333Y-95904761D01*
X205785714Y-95857142D01*
X205738095Y-95761904D01*
X205690476Y-95571428D01*
X205690476Y-95333333D01*
X205738095Y-95142857D01*
X205785714Y-95047619D01*
X205833333Y-95000000D01*
X205928571Y-94952380D01*
X204357142Y-124757142D02*
X204309523Y-124804761D01*
X204166666Y-124852380D01*
X204071428Y-124852380D01*
X203928571Y-124804761D01*
X203833333Y-124709523D01*
X203785714Y-124614285D01*
X203738095Y-124423809D01*
X203738095Y-124280952D01*
X203785714Y-124090476D01*
X203833333Y-123995238D01*
X203928571Y-123900000D01*
X204071428Y-123852380D01*
X204166666Y-123852380D01*
X204309523Y-123900000D01*
X204357142Y-123947619D01*
X205309523Y-124852380D02*
X204738095Y-124852380D01*
X205023809Y-124852380D02*
X205023809Y-123852380D01*
X204928571Y-123995238D01*
X204833333Y-124090476D01*
X204738095Y-124138095D01*
X206261904Y-124852380D02*
X205690476Y-124852380D01*
X205976190Y-124852380D02*
X205976190Y-123852380D01*
X205880952Y-123995238D01*
X205785714Y-124090476D01*
X205690476Y-124138095D01*
X136257142Y-69707142D02*
X136209523Y-69754761D01*
X136066666Y-69802380D01*
X135971428Y-69802380D01*
X135828571Y-69754761D01*
X135733333Y-69659523D01*
X135685714Y-69564285D01*
X135638095Y-69373809D01*
X135638095Y-69230952D01*
X135685714Y-69040476D01*
X135733333Y-68945238D01*
X135828571Y-68850000D01*
X135971428Y-68802380D01*
X136066666Y-68802380D01*
X136209523Y-68850000D01*
X136257142Y-68897619D01*
X137209523Y-69802380D02*
X136638095Y-69802380D01*
X136923809Y-69802380D02*
X136923809Y-68802380D01*
X136828571Y-68945238D01*
X136733333Y-69040476D01*
X136638095Y-69088095D01*
X137590476Y-68897619D02*
X137638095Y-68850000D01*
X137733333Y-68802380D01*
X137971428Y-68802380D01*
X138066666Y-68850000D01*
X138114285Y-68897619D01*
X138161904Y-68992857D01*
X138161904Y-69088095D01*
X138114285Y-69230952D01*
X137542857Y-69802380D01*
X138161904Y-69802380D01*
X122857142Y-54007142D02*
X122809523Y-54054761D01*
X122666666Y-54102380D01*
X122571428Y-54102380D01*
X122428571Y-54054761D01*
X122333333Y-53959523D01*
X122285714Y-53864285D01*
X122238095Y-53673809D01*
X122238095Y-53530952D01*
X122285714Y-53340476D01*
X122333333Y-53245238D01*
X122428571Y-53150000D01*
X122571428Y-53102380D01*
X122666666Y-53102380D01*
X122809523Y-53150000D01*
X122857142Y-53197619D01*
X123809523Y-54102380D02*
X123238095Y-54102380D01*
X123523809Y-54102380D02*
X123523809Y-53102380D01*
X123428571Y-53245238D01*
X123333333Y-53340476D01*
X123238095Y-53388095D01*
X124142857Y-53102380D02*
X124761904Y-53102380D01*
X124428571Y-53483333D01*
X124571428Y-53483333D01*
X124666666Y-53530952D01*
X124714285Y-53578571D01*
X124761904Y-53673809D01*
X124761904Y-53911904D01*
X124714285Y-54007142D01*
X124666666Y-54054761D01*
X124571428Y-54102380D01*
X124285714Y-54102380D01*
X124190476Y-54054761D01*
X124142857Y-54007142D01*
X60452380Y-80738095D02*
X59452380Y-80738095D01*
X59452380Y-80500000D01*
X59500000Y-80357142D01*
X59595238Y-80261904D01*
X59690476Y-80214285D01*
X59880952Y-80166666D01*
X60023809Y-80166666D01*
X60214285Y-80214285D01*
X60309523Y-80261904D01*
X60404761Y-80357142D01*
X60452380Y-80500000D01*
X60452380Y-80738095D01*
X59452380Y-79833333D02*
X59452380Y-79214285D01*
X59833333Y-79547619D01*
X59833333Y-79404761D01*
X59880952Y-79309523D01*
X59928571Y-79261904D01*
X60023809Y-79214285D01*
X60261904Y-79214285D01*
X60357142Y-79261904D01*
X60404761Y-79309523D01*
X60452380Y-79404761D01*
X60452380Y-79690476D01*
X60404761Y-79785714D01*
X60357142Y-79833333D01*
X60452380Y-130738095D02*
X59452380Y-130738095D01*
X59452380Y-130500000D01*
X59500000Y-130357142D01*
X59595238Y-130261904D01*
X59690476Y-130214285D01*
X59880952Y-130166666D01*
X60023809Y-130166666D01*
X60214285Y-130214285D01*
X60309523Y-130261904D01*
X60404761Y-130357142D01*
X60452380Y-130500000D01*
X60452380Y-130738095D01*
X59785714Y-129309523D02*
X60452380Y-129309523D01*
X59404761Y-129547619D02*
X60119047Y-129785714D01*
X60119047Y-129166666D01*
X60452380Y-180738095D02*
X59452380Y-180738095D01*
X59452380Y-180500000D01*
X59500000Y-180357142D01*
X59595238Y-180261904D01*
X59690476Y-180214285D01*
X59880952Y-180166666D01*
X60023809Y-180166666D01*
X60214285Y-180214285D01*
X60309523Y-180261904D01*
X60404761Y-180357142D01*
X60452380Y-180500000D01*
X60452380Y-180738095D01*
X59452380Y-179261904D02*
X59452380Y-179738095D01*
X59928571Y-179785714D01*
X59880952Y-179738095D01*
X59833333Y-179642857D01*
X59833333Y-179404761D01*
X59880952Y-179309523D01*
X59928571Y-179261904D01*
X60023809Y-179214285D01*
X60261904Y-179214285D01*
X60357142Y-179261904D01*
X60404761Y-179309523D01*
X60452380Y-179404761D01*
X60452380Y-179642857D01*
X60404761Y-179738095D01*
X60357142Y-179785714D01*
X110452380Y-80738095D02*
X109452380Y-80738095D01*
X109452380Y-80500000D01*
X109500000Y-80357142D01*
X109595238Y-80261904D01*
X109690476Y-80214285D01*
X109880952Y-80166666D01*
X110023809Y-80166666D01*
X110214285Y-80214285D01*
X110309523Y-80261904D01*
X110404761Y-80357142D01*
X110452380Y-80500000D01*
X110452380Y-80738095D01*
X109452380Y-79309523D02*
X109452380Y-79500000D01*
X109500000Y-79595238D01*
X109547619Y-79642857D01*
X109690476Y-79738095D01*
X109880952Y-79785714D01*
X110261904Y-79785714D01*
X110357142Y-79738095D01*
X110404761Y-79690476D01*
X110452380Y-79595238D01*
X110452380Y-79404761D01*
X110404761Y-79309523D01*
X110357142Y-79261904D01*
X110261904Y-79214285D01*
X110023809Y-79214285D01*
X109928571Y-79261904D01*
X109880952Y-79309523D01*
X109833333Y-79404761D01*
X109833333Y-79595238D01*
X109880952Y-79690476D01*
X109928571Y-79738095D01*
X110023809Y-79785714D01*
X110452380Y-130738095D02*
X109452380Y-130738095D01*
X109452380Y-130500000D01*
X109500000Y-130357142D01*
X109595238Y-130261904D01*
X109690476Y-130214285D01*
X109880952Y-130166666D01*
X110023809Y-130166666D01*
X110214285Y-130214285D01*
X110309523Y-130261904D01*
X110404761Y-130357142D01*
X110452380Y-130500000D01*
X110452380Y-130738095D01*
X109452380Y-129833333D02*
X109452380Y-129166666D01*
X110452380Y-129595238D01*
X110452380Y-180738095D02*
X109452380Y-180738095D01*
X109452380Y-180500000D01*
X109500000Y-180357142D01*
X109595238Y-180261904D01*
X109690476Y-180214285D01*
X109880952Y-180166666D01*
X110023809Y-180166666D01*
X110214285Y-180214285D01*
X110309523Y-180261904D01*
X110404761Y-180357142D01*
X110452380Y-180500000D01*
X110452380Y-180738095D01*
X109880952Y-179595238D02*
X109833333Y-179690476D01*
X109785714Y-179738095D01*
X109690476Y-179785714D01*
X109642857Y-179785714D01*
X109547619Y-179738095D01*
X109500000Y-179690476D01*
X109452380Y-179595238D01*
X109452380Y-179404761D01*
X109500000Y-179309523D01*
X109547619Y-179261904D01*
X109642857Y-179214285D01*
X109690476Y-179214285D01*
X109785714Y-179261904D01*
X109833333Y-179309523D01*
X109880952Y-179404761D01*
X109880952Y-179595238D01*
X109928571Y-179690476D01*
X109976190Y-179738095D01*
X110071428Y-179785714D01*
X110261904Y-179785714D01*
X110357142Y-179738095D01*
X110404761Y-179690476D01*
X110452380Y-179595238D01*
X110452380Y-179404761D01*
X110404761Y-179309523D01*
X110357142Y-179261904D01*
X110261904Y-179214285D01*
X110071428Y-179214285D01*
X109976190Y-179261904D01*
X109928571Y-179309523D01*
X109880952Y-179404761D01*
X160452380Y-80738095D02*
X159452380Y-80738095D01*
X159452380Y-80500000D01*
X159500000Y-80357142D01*
X159595238Y-80261904D01*
X159690476Y-80214285D01*
X159880952Y-80166666D01*
X160023809Y-80166666D01*
X160214285Y-80214285D01*
X160309523Y-80261904D01*
X160404761Y-80357142D01*
X160452380Y-80500000D01*
X160452380Y-80738095D01*
X160452380Y-79690476D02*
X160452380Y-79500000D01*
X160404761Y-79404761D01*
X160357142Y-79357142D01*
X160214285Y-79261904D01*
X160023809Y-79214285D01*
X159642857Y-79214285D01*
X159547619Y-79261904D01*
X159500000Y-79309523D01*
X159452380Y-79404761D01*
X159452380Y-79595238D01*
X159500000Y-79690476D01*
X159547619Y-79738095D01*
X159642857Y-79785714D01*
X159880952Y-79785714D01*
X159976190Y-79738095D01*
X160023809Y-79690476D01*
X160071428Y-79595238D01*
X160071428Y-79404761D01*
X160023809Y-79309523D01*
X159976190Y-79261904D01*
X159880952Y-79214285D01*
X160452380Y-131214285D02*
X159452380Y-131214285D01*
X159452380Y-130976190D01*
X159500000Y-130833333D01*
X159595238Y-130738095D01*
X159690476Y-130690476D01*
X159880952Y-130642857D01*
X160023809Y-130642857D01*
X160214285Y-130690476D01*
X160309523Y-130738095D01*
X160404761Y-130833333D01*
X160452380Y-130976190D01*
X160452380Y-131214285D01*
X160452380Y-129690476D02*
X160452380Y-130261904D01*
X160452380Y-129976190D02*
X159452380Y-129976190D01*
X159595238Y-130071428D01*
X159690476Y-130166666D01*
X159738095Y-130261904D01*
X159452380Y-129071428D02*
X159452380Y-128976190D01*
X159500000Y-128880952D01*
X159547619Y-128833333D01*
X159642857Y-128785714D01*
X159833333Y-128738095D01*
X160071428Y-128738095D01*
X160261904Y-128785714D01*
X160357142Y-128833333D01*
X160404761Y-128880952D01*
X160452380Y-128976190D01*
X160452380Y-129071428D01*
X160404761Y-129166666D01*
X160357142Y-129214285D01*
X160261904Y-129261904D01*
X160071428Y-129309523D01*
X159833333Y-129309523D01*
X159642857Y-129261904D01*
X159547619Y-129214285D01*
X159500000Y-129166666D01*
X159452380Y-129071428D01*
X160452380Y-181214285D02*
X159452380Y-181214285D01*
X159452380Y-180976190D01*
X159500000Y-180833333D01*
X159595238Y-180738095D01*
X159690476Y-180690476D01*
X159880952Y-180642857D01*
X160023809Y-180642857D01*
X160214285Y-180690476D01*
X160309523Y-180738095D01*
X160404761Y-180833333D01*
X160452380Y-180976190D01*
X160452380Y-181214285D01*
X160452380Y-179690476D02*
X160452380Y-180261904D01*
X160452380Y-179976190D02*
X159452380Y-179976190D01*
X159595238Y-180071428D01*
X159690476Y-180166666D01*
X159738095Y-180261904D01*
X160452380Y-178738095D02*
X160452380Y-179309523D01*
X160452380Y-179023809D02*
X159452380Y-179023809D01*
X159595238Y-179119047D01*
X159690476Y-179214285D01*
X159738095Y-179309523D01*
X214678571Y-157383333D02*
X214678571Y-157716666D01*
X215202380Y-157716666D02*
X214202380Y-157716666D01*
X214202380Y-157240476D01*
X215202380Y-156335714D02*
X215202380Y-156907142D01*
X215202380Y-156621428D02*
X214202380Y-156621428D01*
X214345238Y-156716666D01*
X214440476Y-156811904D01*
X214488095Y-156907142D01*
X213116666Y-171202380D02*
X213116666Y-171916666D01*
X213069047Y-172059523D01*
X212973809Y-172154761D01*
X212830952Y-172202380D01*
X212735714Y-172202380D01*
X214116666Y-172202380D02*
X213545238Y-172202380D01*
X213830952Y-172202380D02*
X213830952Y-171202380D01*
X213735714Y-171345238D01*
X213640476Y-171440476D01*
X213545238Y-171488095D01*
X200896666Y-114282380D02*
X200896666Y-114996666D01*
X200849047Y-115139523D01*
X200753809Y-115234761D01*
X200610952Y-115282380D01*
X200515714Y-115282380D01*
X201325238Y-114377619D02*
X201372857Y-114330000D01*
X201468095Y-114282380D01*
X201706190Y-114282380D01*
X201801428Y-114330000D01*
X201849047Y-114377619D01*
X201896666Y-114472857D01*
X201896666Y-114568095D01*
X201849047Y-114710952D01*
X201277619Y-115282380D01*
X201896666Y-115282380D01*
X84833333Y-89302380D02*
X84357142Y-89302380D01*
X84357142Y-88302380D01*
X85119047Y-88397619D02*
X85166666Y-88350000D01*
X85261904Y-88302380D01*
X85500000Y-88302380D01*
X85595238Y-88350000D01*
X85642857Y-88397619D01*
X85690476Y-88492857D01*
X85690476Y-88588095D01*
X85642857Y-88730952D01*
X85071428Y-89302380D01*
X85690476Y-89302380D01*
X84833333Y-139302380D02*
X84357142Y-139302380D01*
X84357142Y-138302380D01*
X85071428Y-138302380D02*
X85690476Y-138302380D01*
X85357142Y-138683333D01*
X85500000Y-138683333D01*
X85595238Y-138730952D01*
X85642857Y-138778571D01*
X85690476Y-138873809D01*
X85690476Y-139111904D01*
X85642857Y-139207142D01*
X85595238Y-139254761D01*
X85500000Y-139302380D01*
X85214285Y-139302380D01*
X85119047Y-139254761D01*
X85071428Y-139207142D01*
X84833333Y-189302380D02*
X84357142Y-189302380D01*
X84357142Y-188302380D01*
X85595238Y-188635714D02*
X85595238Y-189302380D01*
X85357142Y-188254761D02*
X85119047Y-188969047D01*
X85738095Y-188969047D01*
X134833333Y-89302380D02*
X134357142Y-89302380D01*
X134357142Y-88302380D01*
X135642857Y-88302380D02*
X135166666Y-88302380D01*
X135119047Y-88778571D01*
X135166666Y-88730952D01*
X135261904Y-88683333D01*
X135500000Y-88683333D01*
X135595238Y-88730952D01*
X135642857Y-88778571D01*
X135690476Y-88873809D01*
X135690476Y-89111904D01*
X135642857Y-89207142D01*
X135595238Y-89254761D01*
X135500000Y-89302380D01*
X135261904Y-89302380D01*
X135166666Y-89254761D01*
X135119047Y-89207142D01*
X134833333Y-139302380D02*
X134357142Y-139302380D01*
X134357142Y-138302380D01*
X135595238Y-138302380D02*
X135404761Y-138302380D01*
X135309523Y-138350000D01*
X135261904Y-138397619D01*
X135166666Y-138540476D01*
X135119047Y-138730952D01*
X135119047Y-139111904D01*
X135166666Y-139207142D01*
X135214285Y-139254761D01*
X135309523Y-139302380D01*
X135500000Y-139302380D01*
X135595238Y-139254761D01*
X135642857Y-139207142D01*
X135690476Y-139111904D01*
X135690476Y-138873809D01*
X135642857Y-138778571D01*
X135595238Y-138730952D01*
X135500000Y-138683333D01*
X135309523Y-138683333D01*
X135214285Y-138730952D01*
X135166666Y-138778571D01*
X135119047Y-138873809D01*
X134833333Y-189302380D02*
X134357142Y-189302380D01*
X134357142Y-188302380D01*
X135071428Y-188302380D02*
X135738095Y-188302380D01*
X135309523Y-189302380D01*
X184833333Y-89302380D02*
X184357142Y-89302380D01*
X184357142Y-88302380D01*
X185309523Y-88730952D02*
X185214285Y-88683333D01*
X185166666Y-88635714D01*
X185119047Y-88540476D01*
X185119047Y-88492857D01*
X185166666Y-88397619D01*
X185214285Y-88350000D01*
X185309523Y-88302380D01*
X185500000Y-88302380D01*
X185595238Y-88350000D01*
X185642857Y-88397619D01*
X185690476Y-88492857D01*
X185690476Y-88540476D01*
X185642857Y-88635714D01*
X185595238Y-88683333D01*
X185500000Y-88730952D01*
X185309523Y-88730952D01*
X185214285Y-88778571D01*
X185166666Y-88826190D01*
X185119047Y-88921428D01*
X185119047Y-89111904D01*
X185166666Y-89207142D01*
X185214285Y-89254761D01*
X185309523Y-89302380D01*
X185500000Y-89302380D01*
X185595238Y-89254761D01*
X185642857Y-89207142D01*
X185690476Y-89111904D01*
X185690476Y-88921428D01*
X185642857Y-88826190D01*
X185595238Y-88778571D01*
X185500000Y-88730952D01*
X184833333Y-139302380D02*
X184357142Y-139302380D01*
X184357142Y-138302380D01*
X185214285Y-139302380D02*
X185404761Y-139302380D01*
X185500000Y-139254761D01*
X185547619Y-139207142D01*
X185642857Y-139064285D01*
X185690476Y-138873809D01*
X185690476Y-138492857D01*
X185642857Y-138397619D01*
X185595238Y-138350000D01*
X185500000Y-138302380D01*
X185309523Y-138302380D01*
X185214285Y-138350000D01*
X185166666Y-138397619D01*
X185119047Y-138492857D01*
X185119047Y-138730952D01*
X185166666Y-138826190D01*
X185214285Y-138873809D01*
X185309523Y-138921428D01*
X185500000Y-138921428D01*
X185595238Y-138873809D01*
X185642857Y-138826190D01*
X185690476Y-138730952D01*
X184357142Y-189302380D02*
X183880952Y-189302380D01*
X183880952Y-188302380D01*
X185214285Y-189302380D02*
X184642857Y-189302380D01*
X184928571Y-189302380D02*
X184928571Y-188302380D01*
X184833333Y-188445238D01*
X184738095Y-188540476D01*
X184642857Y-188588095D01*
X185833333Y-188302380D02*
X185928571Y-188302380D01*
X186023809Y-188350000D01*
X186071428Y-188397619D01*
X186119047Y-188492857D01*
X186166666Y-188683333D01*
X186166666Y-188921428D01*
X186119047Y-189111904D01*
X186071428Y-189207142D01*
X186023809Y-189254761D01*
X185928571Y-189302380D01*
X185833333Y-189302380D01*
X185738095Y-189254761D01*
X185690476Y-189207142D01*
X185642857Y-189111904D01*
X185595238Y-188921428D01*
X185595238Y-188683333D01*
X185642857Y-188492857D01*
X185690476Y-188397619D01*
X185738095Y-188350000D01*
X185833333Y-188302380D01*
X198166666Y-100404761D02*
X198309523Y-100452380D01*
X198547619Y-100452380D01*
X198642857Y-100404761D01*
X198690476Y-100357142D01*
X198738095Y-100261904D01*
X198738095Y-100166666D01*
X198690476Y-100071428D01*
X198642857Y-100023809D01*
X198547619Y-99976190D01*
X198357142Y-99928571D01*
X198261904Y-99880952D01*
X198214285Y-99833333D01*
X198166666Y-99738095D01*
X198166666Y-99642857D01*
X198214285Y-99547619D01*
X198261904Y-99500000D01*
X198357142Y-99452380D01*
X198595238Y-99452380D01*
X198738095Y-99500000D01*
X199071428Y-99452380D02*
X199309523Y-100452380D01*
X199500000Y-99738095D01*
X199690476Y-100452380D01*
X199928571Y-99452380D01*
X200833333Y-100452380D02*
X200261904Y-100452380D01*
X200547619Y-100452380D02*
X200547619Y-99452380D01*
X200452380Y-99595238D01*
X200357142Y-99690476D01*
X200261904Y-99738095D01*
X198166666Y-120154761D02*
X198309523Y-120202380D01*
X198547619Y-120202380D01*
X198642857Y-120154761D01*
X198690476Y-120107142D01*
X198738095Y-120011904D01*
X198738095Y-119916666D01*
X198690476Y-119821428D01*
X198642857Y-119773809D01*
X198547619Y-119726190D01*
X198357142Y-119678571D01*
X198261904Y-119630952D01*
X198214285Y-119583333D01*
X198166666Y-119488095D01*
X198166666Y-119392857D01*
X198214285Y-119297619D01*
X198261904Y-119250000D01*
X198357142Y-119202380D01*
X198595238Y-119202380D01*
X198738095Y-119250000D01*
X199071428Y-119202380D02*
X199309523Y-120202380D01*
X199500000Y-119488095D01*
X199690476Y-120202380D01*
X199928571Y-119202380D01*
X200261904Y-119297619D02*
X200309523Y-119250000D01*
X200404761Y-119202380D01*
X200642857Y-119202380D01*
X200738095Y-119250000D01*
X200785714Y-119297619D01*
X200833333Y-119392857D01*
X200833333Y-119488095D01*
X200785714Y-119630952D01*
X200214285Y-120202380D01*
X200833333Y-120202380D01*
X124552380Y-60761904D02*
X125361904Y-60761904D01*
X125457142Y-60714285D01*
X125504761Y-60666666D01*
X125552380Y-60571428D01*
X125552380Y-60380952D01*
X125504761Y-60285714D01*
X125457142Y-60238095D01*
X125361904Y-60190476D01*
X124552380Y-60190476D01*
X124552380Y-59809523D02*
X124552380Y-59190476D01*
X124933333Y-59523809D01*
X124933333Y-59380952D01*
X124980952Y-59285714D01*
X125028571Y-59238095D01*
X125123809Y-59190476D01*
X125361904Y-59190476D01*
X125457142Y-59238095D01*
X125504761Y-59285714D01*
X125552380Y-59380952D01*
X125552380Y-59666666D01*
X125504761Y-59761904D01*
X125457142Y-59809523D01*
M02*
