G04 #@! TF.GenerationSoftware,KiCad,Pcbnew,5.1.5*
G04 #@! TF.CreationDate,2020-03-07T10:52:19+01:00*
G04 #@! TF.ProjectId,e-chessboard,652d6368-6573-4736-926f-6172642e6b69,0.2*
G04 #@! TF.SameCoordinates,Original*
G04 #@! TF.FileFunction,Soldermask,Top*
G04 #@! TF.FilePolarity,Negative*
%FSLAX46Y46*%
G04 Gerber Fmt 4.6, Leading zero omitted, Abs format (unit mm)*
G04 Created by KiCad (PCBNEW 5.1.5) date 2020-03-07 10:52:19*
%MOMM*%
%LPD*%
G04 APERTURE LIST*
%ADD10C,0.100000*%
G04 APERTURE END LIST*
D10*
G36*
X210846189Y-207210483D02*
G01*
X210846192Y-207210484D01*
X210846191Y-207210484D01*
X211374139Y-207429167D01*
X211849280Y-207746646D01*
X212253354Y-208150720D01*
X212570833Y-208625861D01*
X212570834Y-208625863D01*
X212789517Y-209153811D01*
X212901000Y-209714275D01*
X212901000Y-210285725D01*
X212789517Y-210846189D01*
X212789516Y-210846191D01*
X212570833Y-211374139D01*
X212253354Y-211849280D01*
X211849280Y-212253354D01*
X211374139Y-212570833D01*
X211374138Y-212570834D01*
X211374137Y-212570834D01*
X210846189Y-212789517D01*
X210285725Y-212901000D01*
X209714275Y-212901000D01*
X209153811Y-212789517D01*
X208625863Y-212570834D01*
X208625862Y-212570834D01*
X208625861Y-212570833D01*
X208150720Y-212253354D01*
X207746646Y-211849280D01*
X207429167Y-211374139D01*
X207210484Y-210846191D01*
X207210483Y-210846189D01*
X207099000Y-210285725D01*
X207099000Y-209714275D01*
X207210483Y-209153811D01*
X207429166Y-208625863D01*
X207429167Y-208625861D01*
X207746646Y-208150720D01*
X208150720Y-207746646D01*
X208625861Y-207429167D01*
X209153809Y-207210484D01*
X209153808Y-207210484D01*
X209153811Y-207210483D01*
X209714275Y-207099000D01*
X210285725Y-207099000D01*
X210846189Y-207210483D01*
G37*
G36*
X60846189Y-207210483D02*
G01*
X60846192Y-207210484D01*
X60846191Y-207210484D01*
X61374139Y-207429167D01*
X61849280Y-207746646D01*
X62253354Y-208150720D01*
X62570833Y-208625861D01*
X62570834Y-208625863D01*
X62789517Y-209153811D01*
X62901000Y-209714275D01*
X62901000Y-210285725D01*
X62789517Y-210846189D01*
X62789516Y-210846191D01*
X62570833Y-211374139D01*
X62253354Y-211849280D01*
X61849280Y-212253354D01*
X61374139Y-212570833D01*
X61374138Y-212570834D01*
X61374137Y-212570834D01*
X60846189Y-212789517D01*
X60285725Y-212901000D01*
X59714275Y-212901000D01*
X59153811Y-212789517D01*
X58625863Y-212570834D01*
X58625862Y-212570834D01*
X58625861Y-212570833D01*
X58150720Y-212253354D01*
X57746646Y-211849280D01*
X57429167Y-211374139D01*
X57210484Y-210846191D01*
X57210483Y-210846189D01*
X57099000Y-210285725D01*
X57099000Y-209714275D01*
X57210483Y-209153811D01*
X57429166Y-208625863D01*
X57429167Y-208625861D01*
X57746646Y-208150720D01*
X58150720Y-207746646D01*
X58625861Y-207429167D01*
X59153809Y-207210484D01*
X59153808Y-207210484D01*
X59153811Y-207210483D01*
X59714275Y-207099000D01*
X60285725Y-207099000D01*
X60846189Y-207210483D01*
G37*
G36*
X72051000Y-190551000D02*
G01*
X61949000Y-190551000D01*
X61949000Y-185449000D01*
X72051000Y-185449000D01*
X72051000Y-190551000D01*
G37*
G36*
X172051000Y-190551000D02*
G01*
X161949000Y-190551000D01*
X161949000Y-185449000D01*
X172051000Y-185449000D01*
X172051000Y-190551000D01*
G37*
G36*
X122051000Y-190551000D02*
G01*
X111949000Y-190551000D01*
X111949000Y-185449000D01*
X122051000Y-185449000D01*
X122051000Y-190551000D01*
G37*
G36*
X60951000Y-188801000D02*
G01*
X59049000Y-188801000D01*
X59049000Y-186199000D01*
X60951000Y-186199000D01*
X60951000Y-188801000D01*
G37*
G36*
X110951000Y-188301000D02*
G01*
X109049000Y-188301000D01*
X109049000Y-185699000D01*
X110951000Y-185699000D01*
X110951000Y-188301000D01*
G37*
G36*
X160951000Y-188301000D02*
G01*
X159049000Y-188301000D01*
X159049000Y-185699000D01*
X160951000Y-185699000D01*
X160951000Y-188301000D01*
G37*
G36*
X85846189Y-182210483D02*
G01*
X85846192Y-182210484D01*
X85846191Y-182210484D01*
X86374139Y-182429167D01*
X86849280Y-182746646D01*
X87253354Y-183150720D01*
X87570833Y-183625861D01*
X87570834Y-183625863D01*
X87789517Y-184153811D01*
X87901000Y-184714275D01*
X87901000Y-185285725D01*
X87789517Y-185846189D01*
X87789516Y-185846191D01*
X87570833Y-186374139D01*
X87253354Y-186849280D01*
X86849280Y-187253354D01*
X86374139Y-187570833D01*
X86374138Y-187570834D01*
X86374137Y-187570834D01*
X85846189Y-187789517D01*
X85285725Y-187901000D01*
X84714275Y-187901000D01*
X84153811Y-187789517D01*
X83625863Y-187570834D01*
X83625862Y-187570834D01*
X83625861Y-187570833D01*
X83150720Y-187253354D01*
X82746646Y-186849280D01*
X82429167Y-186374139D01*
X82210484Y-185846191D01*
X82210483Y-185846189D01*
X82099000Y-185285725D01*
X82099000Y-184714275D01*
X82210483Y-184153811D01*
X82429166Y-183625863D01*
X82429167Y-183625861D01*
X82746646Y-183150720D01*
X83150720Y-182746646D01*
X83625861Y-182429167D01*
X84153809Y-182210484D01*
X84153808Y-182210484D01*
X84153811Y-182210483D01*
X84714275Y-182099000D01*
X85285725Y-182099000D01*
X85846189Y-182210483D01*
G37*
G36*
X135846189Y-182210483D02*
G01*
X135846192Y-182210484D01*
X135846191Y-182210484D01*
X136374139Y-182429167D01*
X136849280Y-182746646D01*
X137253354Y-183150720D01*
X137570833Y-183625861D01*
X137570834Y-183625863D01*
X137789517Y-184153811D01*
X137901000Y-184714275D01*
X137901000Y-185285725D01*
X137789517Y-185846189D01*
X137789516Y-185846191D01*
X137570833Y-186374139D01*
X137253354Y-186849280D01*
X136849280Y-187253354D01*
X136374139Y-187570833D01*
X136374138Y-187570834D01*
X136374137Y-187570834D01*
X135846189Y-187789517D01*
X135285725Y-187901000D01*
X134714275Y-187901000D01*
X134153811Y-187789517D01*
X133625863Y-187570834D01*
X133625862Y-187570834D01*
X133625861Y-187570833D01*
X133150720Y-187253354D01*
X132746646Y-186849280D01*
X132429167Y-186374139D01*
X132210484Y-185846191D01*
X132210483Y-185846189D01*
X132099000Y-185285725D01*
X132099000Y-184714275D01*
X132210483Y-184153811D01*
X132429166Y-183625863D01*
X132429167Y-183625861D01*
X132746646Y-183150720D01*
X133150720Y-182746646D01*
X133625861Y-182429167D01*
X134153809Y-182210484D01*
X134153808Y-182210484D01*
X134153811Y-182210483D01*
X134714275Y-182099000D01*
X135285725Y-182099000D01*
X135846189Y-182210483D01*
G37*
G36*
X185846189Y-182210483D02*
G01*
X185846192Y-182210484D01*
X185846191Y-182210484D01*
X186374139Y-182429167D01*
X186849280Y-182746646D01*
X187253354Y-183150720D01*
X187570833Y-183625861D01*
X187570834Y-183625863D01*
X187789517Y-184153811D01*
X187901000Y-184714275D01*
X187901000Y-185285725D01*
X187789517Y-185846189D01*
X187789516Y-185846191D01*
X187570833Y-186374139D01*
X187253354Y-186849280D01*
X186849280Y-187253354D01*
X186374139Y-187570833D01*
X186374138Y-187570834D01*
X186374137Y-187570834D01*
X185846189Y-187789517D01*
X185285725Y-187901000D01*
X184714275Y-187901000D01*
X184153811Y-187789517D01*
X183625863Y-187570834D01*
X183625862Y-187570834D01*
X183625861Y-187570833D01*
X183150720Y-187253354D01*
X182746646Y-186849280D01*
X182429167Y-186374139D01*
X182210484Y-185846191D01*
X182210483Y-185846189D01*
X182099000Y-185285725D01*
X182099000Y-184714275D01*
X182210483Y-184153811D01*
X182429166Y-183625863D01*
X182429167Y-183625861D01*
X182746646Y-183150720D01*
X183150720Y-182746646D01*
X183625861Y-182429167D01*
X184153809Y-182210484D01*
X184153808Y-182210484D01*
X184153811Y-182210483D01*
X184714275Y-182099000D01*
X185285725Y-182099000D01*
X185846189Y-182210483D01*
G37*
G36*
X60951000Y-184801000D02*
G01*
X59049000Y-184801000D01*
X59049000Y-182199000D01*
X60951000Y-182199000D01*
X60951000Y-184801000D01*
G37*
G36*
X172051000Y-184551000D02*
G01*
X161949000Y-184551000D01*
X161949000Y-179449000D01*
X172051000Y-179449000D01*
X172051000Y-184551000D01*
G37*
G36*
X72051000Y-184551000D02*
G01*
X61949000Y-184551000D01*
X61949000Y-179449000D01*
X72051000Y-179449000D01*
X72051000Y-184551000D01*
G37*
G36*
X122051000Y-184551000D02*
G01*
X111949000Y-184551000D01*
X111949000Y-179449000D01*
X122051000Y-179449000D01*
X122051000Y-184551000D01*
G37*
G36*
X110951000Y-184301000D02*
G01*
X109049000Y-184301000D01*
X109049000Y-181699000D01*
X110951000Y-181699000D01*
X110951000Y-184301000D01*
G37*
G36*
X160951000Y-184301000D02*
G01*
X159049000Y-184301000D01*
X159049000Y-181699000D01*
X160951000Y-181699000D01*
X160951000Y-184301000D01*
G37*
G36*
X211394072Y-176200918D02*
G01*
X211639939Y-176302759D01*
X211861212Y-176450610D01*
X212049390Y-176638788D01*
X212197241Y-176860061D01*
X212299082Y-177105928D01*
X212351000Y-177366938D01*
X212351000Y-177633062D01*
X212299082Y-177894072D01*
X212197241Y-178139939D01*
X212049390Y-178361212D01*
X211861212Y-178549390D01*
X211639939Y-178697241D01*
X211639938Y-178697242D01*
X211639937Y-178697242D01*
X211394072Y-178799082D01*
X211133063Y-178851000D01*
X210866937Y-178851000D01*
X210605928Y-178799082D01*
X210360063Y-178697242D01*
X210360062Y-178697242D01*
X210360061Y-178697241D01*
X210138788Y-178549390D01*
X209950610Y-178361212D01*
X209802759Y-178139939D01*
X209700918Y-177894072D01*
X209649000Y-177633062D01*
X209649000Y-177366938D01*
X209700918Y-177105928D01*
X209802759Y-176860061D01*
X209950610Y-176638788D01*
X210138788Y-176450610D01*
X210360061Y-176302759D01*
X210605928Y-176200918D01*
X210866937Y-176149000D01*
X211133063Y-176149000D01*
X211394072Y-176200918D01*
G37*
G36*
X206351000Y-178851000D02*
G01*
X203649000Y-178851000D01*
X203649000Y-176149000D01*
X206351000Y-176149000D01*
X206351000Y-178851000D01*
G37*
G36*
X208394072Y-171500918D02*
G01*
X208639939Y-171602759D01*
X208861212Y-171750610D01*
X209049390Y-171938788D01*
X209197241Y-172160061D01*
X209299082Y-172405928D01*
X209351000Y-172666938D01*
X209351000Y-172933062D01*
X209299082Y-173194072D01*
X209197241Y-173439939D01*
X209049390Y-173661212D01*
X208861212Y-173849390D01*
X208639939Y-173997241D01*
X208639938Y-173997242D01*
X208639937Y-173997242D01*
X208394072Y-174099082D01*
X208133063Y-174151000D01*
X207866937Y-174151000D01*
X207605928Y-174099082D01*
X207360063Y-173997242D01*
X207360062Y-173997242D01*
X207360061Y-173997241D01*
X207138788Y-173849390D01*
X206950610Y-173661212D01*
X206802759Y-173439939D01*
X206700918Y-173194072D01*
X206649000Y-172933062D01*
X206649000Y-172666938D01*
X206700918Y-172405928D01*
X206802759Y-172160061D01*
X206950610Y-171938788D01*
X207138788Y-171750610D01*
X207360061Y-171602759D01*
X207605928Y-171500918D01*
X207866937Y-171449000D01*
X208133063Y-171449000D01*
X208394072Y-171500918D01*
G37*
G36*
X209052585Y-166778802D02*
G01*
X209202410Y-166808604D01*
X209484674Y-166925521D01*
X209738705Y-167095259D01*
X209954741Y-167311295D01*
X210124479Y-167565326D01*
X210241396Y-167847590D01*
X210301000Y-168147240D01*
X210301000Y-168452760D01*
X210241396Y-168752410D01*
X210124479Y-169034674D01*
X209954741Y-169288705D01*
X209738705Y-169504741D01*
X209484674Y-169674479D01*
X209202410Y-169791396D01*
X209052585Y-169821198D01*
X208902761Y-169851000D01*
X208597239Y-169851000D01*
X208447415Y-169821198D01*
X208297590Y-169791396D01*
X208015326Y-169674479D01*
X207761295Y-169504741D01*
X207545259Y-169288705D01*
X207375521Y-169034674D01*
X207258604Y-168752410D01*
X207199000Y-168452760D01*
X207199000Y-168147240D01*
X207258604Y-167847590D01*
X207375521Y-167565326D01*
X207545259Y-167311295D01*
X207761295Y-167095259D01*
X208015326Y-166925521D01*
X208297590Y-166808604D01*
X208447415Y-166778802D01*
X208597239Y-166749000D01*
X208902761Y-166749000D01*
X209052585Y-166778802D01*
G37*
G36*
X209068433Y-155684893D02*
G01*
X209158657Y-155702839D01*
X209264267Y-155746585D01*
X209413621Y-155808449D01*
X209413622Y-155808450D01*
X209643086Y-155961772D01*
X209838228Y-156156914D01*
X209940675Y-156310237D01*
X209991551Y-156386379D01*
X210097161Y-156641344D01*
X210151000Y-156912012D01*
X210151000Y-157187988D01*
X210097161Y-157458656D01*
X209991551Y-157713621D01*
X209991550Y-157713622D01*
X209838228Y-157943086D01*
X209643086Y-158138228D01*
X209489763Y-158240675D01*
X209413621Y-158291551D01*
X209264267Y-158353415D01*
X209158657Y-158397161D01*
X209068433Y-158415107D01*
X208887988Y-158451000D01*
X208612012Y-158451000D01*
X208431567Y-158415107D01*
X208341343Y-158397161D01*
X208235733Y-158353415D01*
X208086379Y-158291551D01*
X208010237Y-158240675D01*
X207856914Y-158138228D01*
X207661772Y-157943086D01*
X207508450Y-157713622D01*
X207508449Y-157713621D01*
X207402839Y-157458656D01*
X207349000Y-157187988D01*
X207349000Y-156912012D01*
X207402839Y-156641344D01*
X207508449Y-156386379D01*
X207559325Y-156310237D01*
X207661772Y-156156914D01*
X207856914Y-155961772D01*
X208086378Y-155808450D01*
X208086379Y-155808449D01*
X208235733Y-155746585D01*
X208341343Y-155702839D01*
X208431567Y-155684893D01*
X208612012Y-155649000D01*
X208887988Y-155649000D01*
X209068433Y-155684893D01*
G37*
G36*
X209052585Y-144278802D02*
G01*
X209202410Y-144308604D01*
X209484674Y-144425521D01*
X209738705Y-144595259D01*
X209954741Y-144811295D01*
X210124479Y-145065326D01*
X210241396Y-145347590D01*
X210301000Y-145647240D01*
X210301000Y-145952760D01*
X210241396Y-146252410D01*
X210124479Y-146534674D01*
X209954741Y-146788705D01*
X209738705Y-147004741D01*
X209484674Y-147174479D01*
X209202410Y-147291396D01*
X209052585Y-147321198D01*
X208902761Y-147351000D01*
X208597239Y-147351000D01*
X208447415Y-147321198D01*
X208297590Y-147291396D01*
X208015326Y-147174479D01*
X207761295Y-147004741D01*
X207545259Y-146788705D01*
X207375521Y-146534674D01*
X207258604Y-146252410D01*
X207199000Y-145952760D01*
X207199000Y-145647240D01*
X207258604Y-145347590D01*
X207375521Y-145065326D01*
X207545259Y-144811295D01*
X207761295Y-144595259D01*
X208015326Y-144425521D01*
X208297590Y-144308604D01*
X208447415Y-144278802D01*
X208597239Y-144249000D01*
X208902761Y-144249000D01*
X209052585Y-144278802D01*
G37*
G36*
X72051000Y-140551000D02*
G01*
X61949000Y-140551000D01*
X61949000Y-135449000D01*
X72051000Y-135449000D01*
X72051000Y-140551000D01*
G37*
G36*
X172051000Y-140551000D02*
G01*
X161949000Y-140551000D01*
X161949000Y-135449000D01*
X172051000Y-135449000D01*
X172051000Y-140551000D01*
G37*
G36*
X122051000Y-140551000D02*
G01*
X111949000Y-140551000D01*
X111949000Y-135449000D01*
X122051000Y-135449000D01*
X122051000Y-140551000D01*
G37*
G36*
X60951000Y-138301000D02*
G01*
X59049000Y-138301000D01*
X59049000Y-135699000D01*
X60951000Y-135699000D01*
X60951000Y-138301000D01*
G37*
G36*
X160951000Y-138301000D02*
G01*
X159049000Y-138301000D01*
X159049000Y-135699000D01*
X160951000Y-135699000D01*
X160951000Y-138301000D01*
G37*
G36*
X110951000Y-138301000D02*
G01*
X109049000Y-138301000D01*
X109049000Y-135699000D01*
X110951000Y-135699000D01*
X110951000Y-138301000D01*
G37*
G36*
X85846189Y-132210483D02*
G01*
X85846192Y-132210484D01*
X85846191Y-132210484D01*
X86374139Y-132429167D01*
X86849280Y-132746646D01*
X87253354Y-133150720D01*
X87570833Y-133625861D01*
X87570834Y-133625863D01*
X87789517Y-134153811D01*
X87901000Y-134714275D01*
X87901000Y-135285725D01*
X87789517Y-135846189D01*
X87789516Y-135846191D01*
X87570833Y-136374139D01*
X87253354Y-136849280D01*
X86849280Y-137253354D01*
X86374139Y-137570833D01*
X86374138Y-137570834D01*
X86374137Y-137570834D01*
X85846189Y-137789517D01*
X85285725Y-137901000D01*
X84714275Y-137901000D01*
X84153811Y-137789517D01*
X83625863Y-137570834D01*
X83625862Y-137570834D01*
X83625861Y-137570833D01*
X83150720Y-137253354D01*
X82746646Y-136849280D01*
X82429167Y-136374139D01*
X82210484Y-135846191D01*
X82210483Y-135846189D01*
X82099000Y-135285725D01*
X82099000Y-134714275D01*
X82210483Y-134153811D01*
X82429166Y-133625863D01*
X82429167Y-133625861D01*
X82746646Y-133150720D01*
X83150720Y-132746646D01*
X83625861Y-132429167D01*
X84153809Y-132210484D01*
X84153808Y-132210484D01*
X84153811Y-132210483D01*
X84714275Y-132099000D01*
X85285725Y-132099000D01*
X85846189Y-132210483D01*
G37*
G36*
X135846189Y-132210483D02*
G01*
X135846192Y-132210484D01*
X135846191Y-132210484D01*
X136374139Y-132429167D01*
X136849280Y-132746646D01*
X137253354Y-133150720D01*
X137570833Y-133625861D01*
X137570834Y-133625863D01*
X137789517Y-134153811D01*
X137901000Y-134714275D01*
X137901000Y-135285725D01*
X137789517Y-135846189D01*
X137789516Y-135846191D01*
X137570833Y-136374139D01*
X137253354Y-136849280D01*
X136849280Y-137253354D01*
X136374139Y-137570833D01*
X136374138Y-137570834D01*
X136374137Y-137570834D01*
X135846189Y-137789517D01*
X135285725Y-137901000D01*
X134714275Y-137901000D01*
X134153811Y-137789517D01*
X133625863Y-137570834D01*
X133625862Y-137570834D01*
X133625861Y-137570833D01*
X133150720Y-137253354D01*
X132746646Y-136849280D01*
X132429167Y-136374139D01*
X132210484Y-135846191D01*
X132210483Y-135846189D01*
X132099000Y-135285725D01*
X132099000Y-134714275D01*
X132210483Y-134153811D01*
X132429166Y-133625863D01*
X132429167Y-133625861D01*
X132746646Y-133150720D01*
X133150720Y-132746646D01*
X133625861Y-132429167D01*
X134153809Y-132210484D01*
X134153808Y-132210484D01*
X134153811Y-132210483D01*
X134714275Y-132099000D01*
X135285725Y-132099000D01*
X135846189Y-132210483D01*
G37*
G36*
X185846189Y-132210483D02*
G01*
X185846192Y-132210484D01*
X185846191Y-132210484D01*
X186374139Y-132429167D01*
X186849280Y-132746646D01*
X187253354Y-133150720D01*
X187570833Y-133625861D01*
X187570834Y-133625863D01*
X187789517Y-134153811D01*
X187901000Y-134714275D01*
X187901000Y-135285725D01*
X187789517Y-135846189D01*
X187789516Y-135846191D01*
X187570833Y-136374139D01*
X187253354Y-136849280D01*
X186849280Y-137253354D01*
X186374139Y-137570833D01*
X186374138Y-137570834D01*
X186374137Y-137570834D01*
X185846189Y-137789517D01*
X185285725Y-137901000D01*
X184714275Y-137901000D01*
X184153811Y-137789517D01*
X183625863Y-137570834D01*
X183625862Y-137570834D01*
X183625861Y-137570833D01*
X183150720Y-137253354D01*
X182746646Y-136849280D01*
X182429167Y-136374139D01*
X182210484Y-135846191D01*
X182210483Y-135846189D01*
X182099000Y-135285725D01*
X182099000Y-134714275D01*
X182210483Y-134153811D01*
X182429166Y-133625863D01*
X182429167Y-133625861D01*
X182746646Y-133150720D01*
X183150720Y-132746646D01*
X183625861Y-132429167D01*
X184153809Y-132210484D01*
X184153808Y-132210484D01*
X184153811Y-132210483D01*
X184714275Y-132099000D01*
X185285725Y-132099000D01*
X185846189Y-132210483D01*
G37*
G36*
X72051000Y-134551000D02*
G01*
X61949000Y-134551000D01*
X61949000Y-129449000D01*
X72051000Y-129449000D01*
X72051000Y-134551000D01*
G37*
G36*
X172051000Y-134551000D02*
G01*
X161949000Y-134551000D01*
X161949000Y-129449000D01*
X172051000Y-129449000D01*
X172051000Y-134551000D01*
G37*
G36*
X122051000Y-134551000D02*
G01*
X111949000Y-134551000D01*
X111949000Y-129449000D01*
X122051000Y-129449000D01*
X122051000Y-134551000D01*
G37*
G36*
X160951000Y-134301000D02*
G01*
X159049000Y-134301000D01*
X159049000Y-131699000D01*
X160951000Y-131699000D01*
X160951000Y-134301000D01*
G37*
G36*
X60951000Y-134301000D02*
G01*
X59049000Y-134301000D01*
X59049000Y-131699000D01*
X60951000Y-131699000D01*
X60951000Y-134301000D01*
G37*
G36*
X110951000Y-134301000D02*
G01*
X109049000Y-134301000D01*
X109049000Y-131699000D01*
X110951000Y-131699000D01*
X110951000Y-134301000D01*
G37*
G36*
X204438674Y-122003465D02*
G01*
X204476367Y-122014899D01*
X204511103Y-122033466D01*
X204541548Y-122058452D01*
X204566534Y-122088897D01*
X204585101Y-122123633D01*
X204596535Y-122161326D01*
X204601000Y-122206661D01*
X204601000Y-123293339D01*
X204596535Y-123338674D01*
X204585101Y-123376367D01*
X204566534Y-123411103D01*
X204541548Y-123441548D01*
X204511103Y-123466534D01*
X204476367Y-123485101D01*
X204438674Y-123496535D01*
X204393339Y-123501000D01*
X203556661Y-123501000D01*
X203511326Y-123496535D01*
X203473633Y-123485101D01*
X203438897Y-123466534D01*
X203408452Y-123441548D01*
X203383466Y-123411103D01*
X203364899Y-123376367D01*
X203353465Y-123338674D01*
X203349000Y-123293339D01*
X203349000Y-122206661D01*
X203353465Y-122161326D01*
X203364899Y-122123633D01*
X203383466Y-122088897D01*
X203408452Y-122058452D01*
X203438897Y-122033466D01*
X203473633Y-122014899D01*
X203511326Y-122003465D01*
X203556661Y-121999000D01*
X204393339Y-121999000D01*
X204438674Y-122003465D01*
G37*
G36*
X206488674Y-122003465D02*
G01*
X206526367Y-122014899D01*
X206561103Y-122033466D01*
X206591548Y-122058452D01*
X206616534Y-122088897D01*
X206635101Y-122123633D01*
X206646535Y-122161326D01*
X206651000Y-122206661D01*
X206651000Y-123293339D01*
X206646535Y-123338674D01*
X206635101Y-123376367D01*
X206616534Y-123411103D01*
X206591548Y-123441548D01*
X206561103Y-123466534D01*
X206526367Y-123485101D01*
X206488674Y-123496535D01*
X206443339Y-123501000D01*
X205606661Y-123501000D01*
X205561326Y-123496535D01*
X205523633Y-123485101D01*
X205488897Y-123466534D01*
X205458452Y-123441548D01*
X205433466Y-123411103D01*
X205414899Y-123376367D01*
X205403465Y-123338674D01*
X205399000Y-123293339D01*
X205399000Y-122206661D01*
X205403465Y-122161326D01*
X205414899Y-122123633D01*
X205433466Y-122088897D01*
X205458452Y-122058452D01*
X205488897Y-122033466D01*
X205523633Y-122014899D01*
X205561326Y-122003465D01*
X205606661Y-121999000D01*
X206443339Y-121999000D01*
X206488674Y-122003465D01*
G37*
G36*
X203351000Y-120601000D02*
G01*
X201249000Y-120601000D01*
X201249000Y-118899000D01*
X203351000Y-118899000D01*
X203351000Y-120601000D01*
G37*
G36*
X208751000Y-120601000D02*
G01*
X206649000Y-120601000D01*
X206649000Y-118899000D01*
X208751000Y-118899000D01*
X208751000Y-120601000D01*
G37*
G36*
X200073512Y-111603927D02*
G01*
X200222812Y-111633624D01*
X200386784Y-111701544D01*
X200534354Y-111800147D01*
X200659853Y-111925646D01*
X200758456Y-112073216D01*
X200826376Y-112237188D01*
X200861000Y-112411259D01*
X200861000Y-112588741D01*
X200826376Y-112762812D01*
X200758456Y-112926784D01*
X200659853Y-113074354D01*
X200534354Y-113199853D01*
X200386784Y-113298456D01*
X200222812Y-113366376D01*
X200073512Y-113396073D01*
X200048742Y-113401000D01*
X199871258Y-113401000D01*
X199846488Y-113396073D01*
X199697188Y-113366376D01*
X199533216Y-113298456D01*
X199385646Y-113199853D01*
X199260147Y-113074354D01*
X199161544Y-112926784D01*
X199093624Y-112762812D01*
X199059000Y-112588741D01*
X199059000Y-112411259D01*
X199093624Y-112237188D01*
X199161544Y-112073216D01*
X199260147Y-111925646D01*
X199385646Y-111800147D01*
X199533216Y-111701544D01*
X199697188Y-111633624D01*
X199846488Y-111603927D01*
X199871258Y-111599000D01*
X200048742Y-111599000D01*
X200073512Y-111603927D01*
G37*
G36*
X203401000Y-113401000D02*
G01*
X201599000Y-113401000D01*
X201599000Y-111599000D01*
X203401000Y-111599000D01*
X203401000Y-113401000D01*
G37*
G36*
X200073512Y-109063927D02*
G01*
X200222812Y-109093624D01*
X200386784Y-109161544D01*
X200534354Y-109260147D01*
X200659853Y-109385646D01*
X200758456Y-109533216D01*
X200826376Y-109697188D01*
X200861000Y-109871259D01*
X200861000Y-110048741D01*
X200826376Y-110222812D01*
X200758456Y-110386784D01*
X200659853Y-110534354D01*
X200534354Y-110659853D01*
X200386784Y-110758456D01*
X200222812Y-110826376D01*
X200073512Y-110856073D01*
X200048742Y-110861000D01*
X199871258Y-110861000D01*
X199846488Y-110856073D01*
X199697188Y-110826376D01*
X199533216Y-110758456D01*
X199385646Y-110659853D01*
X199260147Y-110534354D01*
X199161544Y-110386784D01*
X199093624Y-110222812D01*
X199059000Y-110048741D01*
X199059000Y-109871259D01*
X199093624Y-109697188D01*
X199161544Y-109533216D01*
X199260147Y-109385646D01*
X199385646Y-109260147D01*
X199533216Y-109161544D01*
X199697188Y-109093624D01*
X199846488Y-109063927D01*
X199871258Y-109059000D01*
X200048742Y-109059000D01*
X200073512Y-109063927D01*
G37*
G36*
X202613512Y-109063927D02*
G01*
X202762812Y-109093624D01*
X202926784Y-109161544D01*
X203074354Y-109260147D01*
X203199853Y-109385646D01*
X203298456Y-109533216D01*
X203366376Y-109697188D01*
X203401000Y-109871259D01*
X203401000Y-110048741D01*
X203366376Y-110222812D01*
X203298456Y-110386784D01*
X203199853Y-110534354D01*
X203074354Y-110659853D01*
X202926784Y-110758456D01*
X202762812Y-110826376D01*
X202613512Y-110856073D01*
X202588742Y-110861000D01*
X202411258Y-110861000D01*
X202386488Y-110856073D01*
X202237188Y-110826376D01*
X202073216Y-110758456D01*
X201925646Y-110659853D01*
X201800147Y-110534354D01*
X201701544Y-110386784D01*
X201633624Y-110222812D01*
X201599000Y-110048741D01*
X201599000Y-109871259D01*
X201633624Y-109697188D01*
X201701544Y-109533216D01*
X201800147Y-109385646D01*
X201925646Y-109260147D01*
X202073216Y-109161544D01*
X202237188Y-109093624D01*
X202386488Y-109063927D01*
X202411258Y-109059000D01*
X202588742Y-109059000D01*
X202613512Y-109063927D01*
G37*
G36*
X202613512Y-106523927D02*
G01*
X202762812Y-106553624D01*
X202926784Y-106621544D01*
X203074354Y-106720147D01*
X203199853Y-106845646D01*
X203298456Y-106993216D01*
X203366376Y-107157188D01*
X203401000Y-107331259D01*
X203401000Y-107508741D01*
X203366376Y-107682812D01*
X203298456Y-107846784D01*
X203199853Y-107994354D01*
X203074354Y-108119853D01*
X202926784Y-108218456D01*
X202762812Y-108286376D01*
X202613512Y-108316073D01*
X202588742Y-108321000D01*
X202411258Y-108321000D01*
X202386488Y-108316073D01*
X202237188Y-108286376D01*
X202073216Y-108218456D01*
X201925646Y-108119853D01*
X201800147Y-107994354D01*
X201701544Y-107846784D01*
X201633624Y-107682812D01*
X201599000Y-107508741D01*
X201599000Y-107331259D01*
X201633624Y-107157188D01*
X201701544Y-106993216D01*
X201800147Y-106845646D01*
X201925646Y-106720147D01*
X202073216Y-106621544D01*
X202237188Y-106553624D01*
X202386488Y-106523927D01*
X202411258Y-106519000D01*
X202588742Y-106519000D01*
X202613512Y-106523927D01*
G37*
G36*
X200073512Y-106523927D02*
G01*
X200222812Y-106553624D01*
X200386784Y-106621544D01*
X200534354Y-106720147D01*
X200659853Y-106845646D01*
X200758456Y-106993216D01*
X200826376Y-107157188D01*
X200861000Y-107331259D01*
X200861000Y-107508741D01*
X200826376Y-107682812D01*
X200758456Y-107846784D01*
X200659853Y-107994354D01*
X200534354Y-108119853D01*
X200386784Y-108218456D01*
X200222812Y-108286376D01*
X200073512Y-108316073D01*
X200048742Y-108321000D01*
X199871258Y-108321000D01*
X199846488Y-108316073D01*
X199697188Y-108286376D01*
X199533216Y-108218456D01*
X199385646Y-108119853D01*
X199260147Y-107994354D01*
X199161544Y-107846784D01*
X199093624Y-107682812D01*
X199059000Y-107508741D01*
X199059000Y-107331259D01*
X199093624Y-107157188D01*
X199161544Y-106993216D01*
X199260147Y-106845646D01*
X199385646Y-106720147D01*
X199533216Y-106621544D01*
X199697188Y-106553624D01*
X199846488Y-106523927D01*
X199871258Y-106519000D01*
X200048742Y-106519000D01*
X200073512Y-106523927D01*
G37*
G36*
X203351000Y-100851000D02*
G01*
X201249000Y-100851000D01*
X201249000Y-99149000D01*
X203351000Y-99149000D01*
X203351000Y-100851000D01*
G37*
G36*
X208751000Y-100851000D02*
G01*
X206649000Y-100851000D01*
X206649000Y-99149000D01*
X208751000Y-99149000D01*
X208751000Y-100851000D01*
G37*
G36*
X206488674Y-96253465D02*
G01*
X206526367Y-96264899D01*
X206561103Y-96283466D01*
X206591548Y-96308452D01*
X206616534Y-96338897D01*
X206635101Y-96373633D01*
X206646535Y-96411326D01*
X206651000Y-96456661D01*
X206651000Y-97543339D01*
X206646535Y-97588674D01*
X206635101Y-97626367D01*
X206616534Y-97661103D01*
X206591548Y-97691548D01*
X206561103Y-97716534D01*
X206526367Y-97735101D01*
X206488674Y-97746535D01*
X206443339Y-97751000D01*
X205606661Y-97751000D01*
X205561326Y-97746535D01*
X205523633Y-97735101D01*
X205488897Y-97716534D01*
X205458452Y-97691548D01*
X205433466Y-97661103D01*
X205414899Y-97626367D01*
X205403465Y-97588674D01*
X205399000Y-97543339D01*
X205399000Y-96456661D01*
X205403465Y-96411326D01*
X205414899Y-96373633D01*
X205433466Y-96338897D01*
X205458452Y-96308452D01*
X205488897Y-96283466D01*
X205523633Y-96264899D01*
X205561326Y-96253465D01*
X205606661Y-96249000D01*
X206443339Y-96249000D01*
X206488674Y-96253465D01*
G37*
G36*
X204438674Y-96253465D02*
G01*
X204476367Y-96264899D01*
X204511103Y-96283466D01*
X204541548Y-96308452D01*
X204566534Y-96338897D01*
X204585101Y-96373633D01*
X204596535Y-96411326D01*
X204601000Y-96456661D01*
X204601000Y-97543339D01*
X204596535Y-97588674D01*
X204585101Y-97626367D01*
X204566534Y-97661103D01*
X204541548Y-97691548D01*
X204511103Y-97716534D01*
X204476367Y-97735101D01*
X204438674Y-97746535D01*
X204393339Y-97751000D01*
X203556661Y-97751000D01*
X203511326Y-97746535D01*
X203473633Y-97735101D01*
X203438897Y-97716534D01*
X203408452Y-97691548D01*
X203383466Y-97661103D01*
X203364899Y-97626367D01*
X203353465Y-97588674D01*
X203349000Y-97543339D01*
X203349000Y-96456661D01*
X203353465Y-96411326D01*
X203364899Y-96373633D01*
X203383466Y-96338897D01*
X203408452Y-96308452D01*
X203438897Y-96283466D01*
X203473633Y-96264899D01*
X203511326Y-96253465D01*
X203556661Y-96249000D01*
X204393339Y-96249000D01*
X204438674Y-96253465D01*
G37*
G36*
X172051000Y-90551000D02*
G01*
X161949000Y-90551000D01*
X161949000Y-85449000D01*
X172051000Y-85449000D01*
X172051000Y-90551000D01*
G37*
G36*
X72051000Y-90551000D02*
G01*
X61949000Y-90551000D01*
X61949000Y-85449000D01*
X72051000Y-85449000D01*
X72051000Y-90551000D01*
G37*
G36*
X122051000Y-90551000D02*
G01*
X111949000Y-90551000D01*
X111949000Y-85449000D01*
X122051000Y-85449000D01*
X122051000Y-90551000D01*
G37*
G36*
X60951000Y-88301000D02*
G01*
X59049000Y-88301000D01*
X59049000Y-85699000D01*
X60951000Y-85699000D01*
X60951000Y-88301000D01*
G37*
G36*
X110951000Y-88301000D02*
G01*
X109049000Y-88301000D01*
X109049000Y-85699000D01*
X110951000Y-85699000D01*
X110951000Y-88301000D01*
G37*
G36*
X160951000Y-88301000D02*
G01*
X159049000Y-88301000D01*
X159049000Y-85699000D01*
X160951000Y-85699000D01*
X160951000Y-88301000D01*
G37*
G36*
X185846189Y-82210483D02*
G01*
X185846192Y-82210484D01*
X185846191Y-82210484D01*
X186374139Y-82429167D01*
X186849280Y-82746646D01*
X187253354Y-83150720D01*
X187570833Y-83625861D01*
X187570834Y-83625863D01*
X187789517Y-84153811D01*
X187901000Y-84714275D01*
X187901000Y-85285725D01*
X187789517Y-85846189D01*
X187789516Y-85846191D01*
X187570833Y-86374139D01*
X187253354Y-86849280D01*
X186849280Y-87253354D01*
X186374139Y-87570833D01*
X186374138Y-87570834D01*
X186374137Y-87570834D01*
X185846189Y-87789517D01*
X185285725Y-87901000D01*
X184714275Y-87901000D01*
X184153811Y-87789517D01*
X183625863Y-87570834D01*
X183625862Y-87570834D01*
X183625861Y-87570833D01*
X183150720Y-87253354D01*
X182746646Y-86849280D01*
X182429167Y-86374139D01*
X182210484Y-85846191D01*
X182210483Y-85846189D01*
X182099000Y-85285725D01*
X182099000Y-84714275D01*
X182210483Y-84153811D01*
X182429166Y-83625863D01*
X182429167Y-83625861D01*
X182746646Y-83150720D01*
X183150720Y-82746646D01*
X183625861Y-82429167D01*
X184153809Y-82210484D01*
X184153808Y-82210484D01*
X184153811Y-82210483D01*
X184714275Y-82099000D01*
X185285725Y-82099000D01*
X185846189Y-82210483D01*
G37*
G36*
X135846189Y-82210483D02*
G01*
X135846192Y-82210484D01*
X135846191Y-82210484D01*
X136374139Y-82429167D01*
X136849280Y-82746646D01*
X137253354Y-83150720D01*
X137570833Y-83625861D01*
X137570834Y-83625863D01*
X137789517Y-84153811D01*
X137901000Y-84714275D01*
X137901000Y-85285725D01*
X137789517Y-85846189D01*
X137789516Y-85846191D01*
X137570833Y-86374139D01*
X137253354Y-86849280D01*
X136849280Y-87253354D01*
X136374139Y-87570833D01*
X136374138Y-87570834D01*
X136374137Y-87570834D01*
X135846189Y-87789517D01*
X135285725Y-87901000D01*
X134714275Y-87901000D01*
X134153811Y-87789517D01*
X133625863Y-87570834D01*
X133625862Y-87570834D01*
X133625861Y-87570833D01*
X133150720Y-87253354D01*
X132746646Y-86849280D01*
X132429167Y-86374139D01*
X132210484Y-85846191D01*
X132210483Y-85846189D01*
X132099000Y-85285725D01*
X132099000Y-84714275D01*
X132210483Y-84153811D01*
X132429166Y-83625863D01*
X132429167Y-83625861D01*
X132746646Y-83150720D01*
X133150720Y-82746646D01*
X133625861Y-82429167D01*
X134153809Y-82210484D01*
X134153808Y-82210484D01*
X134153811Y-82210483D01*
X134714275Y-82099000D01*
X135285725Y-82099000D01*
X135846189Y-82210483D01*
G37*
G36*
X85846189Y-82210483D02*
G01*
X85846192Y-82210484D01*
X85846191Y-82210484D01*
X86374139Y-82429167D01*
X86849280Y-82746646D01*
X87253354Y-83150720D01*
X87570833Y-83625861D01*
X87570834Y-83625863D01*
X87789517Y-84153811D01*
X87901000Y-84714275D01*
X87901000Y-85285725D01*
X87789517Y-85846189D01*
X87789516Y-85846191D01*
X87570833Y-86374139D01*
X87253354Y-86849280D01*
X86849280Y-87253354D01*
X86374139Y-87570833D01*
X86374138Y-87570834D01*
X86374137Y-87570834D01*
X85846189Y-87789517D01*
X85285725Y-87901000D01*
X84714275Y-87901000D01*
X84153811Y-87789517D01*
X83625863Y-87570834D01*
X83625862Y-87570834D01*
X83625861Y-87570833D01*
X83150720Y-87253354D01*
X82746646Y-86849280D01*
X82429167Y-86374139D01*
X82210484Y-85846191D01*
X82210483Y-85846189D01*
X82099000Y-85285725D01*
X82099000Y-84714275D01*
X82210483Y-84153811D01*
X82429166Y-83625863D01*
X82429167Y-83625861D01*
X82746646Y-83150720D01*
X83150720Y-82746646D01*
X83625861Y-82429167D01*
X84153809Y-82210484D01*
X84153808Y-82210484D01*
X84153811Y-82210483D01*
X84714275Y-82099000D01*
X85285725Y-82099000D01*
X85846189Y-82210483D01*
G37*
G36*
X122051000Y-84551000D02*
G01*
X111949000Y-84551000D01*
X111949000Y-79449000D01*
X122051000Y-79449000D01*
X122051000Y-84551000D01*
G37*
G36*
X72051000Y-84551000D02*
G01*
X61949000Y-84551000D01*
X61949000Y-79449000D01*
X72051000Y-79449000D01*
X72051000Y-84551000D01*
G37*
G36*
X172051000Y-84551000D02*
G01*
X161949000Y-84551000D01*
X161949000Y-79449000D01*
X172051000Y-79449000D01*
X172051000Y-84551000D01*
G37*
G36*
X110951000Y-84301000D02*
G01*
X109049000Y-84301000D01*
X109049000Y-81699000D01*
X110951000Y-81699000D01*
X110951000Y-84301000D01*
G37*
G36*
X160951000Y-84301000D02*
G01*
X159049000Y-84301000D01*
X159049000Y-81699000D01*
X160951000Y-81699000D01*
X160951000Y-84301000D01*
G37*
G36*
X60951000Y-84301000D02*
G01*
X59049000Y-84301000D01*
X59049000Y-81699000D01*
X60951000Y-81699000D01*
X60951000Y-84301000D01*
G37*
G36*
X138388674Y-66953465D02*
G01*
X138426367Y-66964899D01*
X138461103Y-66983466D01*
X138491548Y-67008452D01*
X138516534Y-67038897D01*
X138535101Y-67073633D01*
X138546535Y-67111326D01*
X138551000Y-67156661D01*
X138551000Y-68243339D01*
X138546535Y-68288674D01*
X138535101Y-68326367D01*
X138516534Y-68361103D01*
X138491548Y-68391548D01*
X138461103Y-68416534D01*
X138426367Y-68435101D01*
X138388674Y-68446535D01*
X138343339Y-68451000D01*
X137506661Y-68451000D01*
X137461326Y-68446535D01*
X137423633Y-68435101D01*
X137388897Y-68416534D01*
X137358452Y-68391548D01*
X137333466Y-68361103D01*
X137314899Y-68326367D01*
X137303465Y-68288674D01*
X137299000Y-68243339D01*
X137299000Y-67156661D01*
X137303465Y-67111326D01*
X137314899Y-67073633D01*
X137333466Y-67038897D01*
X137358452Y-67008452D01*
X137388897Y-66983466D01*
X137423633Y-66964899D01*
X137461326Y-66953465D01*
X137506661Y-66949000D01*
X138343339Y-66949000D01*
X138388674Y-66953465D01*
G37*
G36*
X136338674Y-66953465D02*
G01*
X136376367Y-66964899D01*
X136411103Y-66983466D01*
X136441548Y-67008452D01*
X136466534Y-67038897D01*
X136485101Y-67073633D01*
X136496535Y-67111326D01*
X136501000Y-67156661D01*
X136501000Y-68243339D01*
X136496535Y-68288674D01*
X136485101Y-68326367D01*
X136466534Y-68361103D01*
X136441548Y-68391548D01*
X136411103Y-68416534D01*
X136376367Y-68435101D01*
X136338674Y-68446535D01*
X136293339Y-68451000D01*
X135456661Y-68451000D01*
X135411326Y-68446535D01*
X135373633Y-68435101D01*
X135338897Y-68416534D01*
X135308452Y-68391548D01*
X135283466Y-68361103D01*
X135264899Y-68326367D01*
X135253465Y-68288674D01*
X135249000Y-68243339D01*
X135249000Y-67156661D01*
X135253465Y-67111326D01*
X135264899Y-67073633D01*
X135283466Y-67038897D01*
X135308452Y-67008452D01*
X135338897Y-66983466D01*
X135373633Y-66964899D01*
X135411326Y-66953465D01*
X135456661Y-66949000D01*
X136293339Y-66949000D01*
X136338674Y-66953465D01*
G37*
G36*
X129544928Y-63576764D02*
G01*
X129566009Y-63583160D01*
X129585445Y-63593548D01*
X129602476Y-63607524D01*
X129616452Y-63624555D01*
X129626840Y-63643991D01*
X129633236Y-63665072D01*
X129636000Y-63693140D01*
X129636000Y-65606860D01*
X129633236Y-65634928D01*
X129626840Y-65656009D01*
X129616452Y-65675445D01*
X129602476Y-65692476D01*
X129585445Y-65706452D01*
X129566009Y-65716840D01*
X129544928Y-65723236D01*
X129516860Y-65726000D01*
X129053140Y-65726000D01*
X129025072Y-65723236D01*
X129003991Y-65716840D01*
X128984555Y-65706452D01*
X128967524Y-65692476D01*
X128953548Y-65675445D01*
X128943160Y-65656009D01*
X128936764Y-65634928D01*
X128934000Y-65606860D01*
X128934000Y-63693140D01*
X128936764Y-63665072D01*
X128943160Y-63643991D01*
X128953548Y-63624555D01*
X128967524Y-63607524D01*
X128984555Y-63593548D01*
X129003991Y-63583160D01*
X129025072Y-63576764D01*
X129053140Y-63574000D01*
X129516860Y-63574000D01*
X129544928Y-63576764D01*
G37*
G36*
X127004928Y-63576764D02*
G01*
X127026009Y-63583160D01*
X127045445Y-63593548D01*
X127062476Y-63607524D01*
X127076452Y-63624555D01*
X127086840Y-63643991D01*
X127093236Y-63665072D01*
X127096000Y-63693140D01*
X127096000Y-65606860D01*
X127093236Y-65634928D01*
X127086840Y-65656009D01*
X127076452Y-65675445D01*
X127062476Y-65692476D01*
X127045445Y-65706452D01*
X127026009Y-65716840D01*
X127004928Y-65723236D01*
X126976860Y-65726000D01*
X126513140Y-65726000D01*
X126485072Y-65723236D01*
X126463991Y-65716840D01*
X126444555Y-65706452D01*
X126427524Y-65692476D01*
X126413548Y-65675445D01*
X126403160Y-65656009D01*
X126396764Y-65634928D01*
X126394000Y-65606860D01*
X126394000Y-63693140D01*
X126396764Y-63665072D01*
X126403160Y-63643991D01*
X126413548Y-63624555D01*
X126427524Y-63607524D01*
X126444555Y-63593548D01*
X126463991Y-63583160D01*
X126485072Y-63576764D01*
X126513140Y-63574000D01*
X126976860Y-63574000D01*
X127004928Y-63576764D01*
G37*
G36*
X143514928Y-63576764D02*
G01*
X143536009Y-63583160D01*
X143555445Y-63593548D01*
X143572476Y-63607524D01*
X143586452Y-63624555D01*
X143596840Y-63643991D01*
X143603236Y-63665072D01*
X143606000Y-63693140D01*
X143606000Y-65606860D01*
X143603236Y-65634928D01*
X143596840Y-65656009D01*
X143586452Y-65675445D01*
X143572476Y-65692476D01*
X143555445Y-65706452D01*
X143536009Y-65716840D01*
X143514928Y-65723236D01*
X143486860Y-65726000D01*
X143023140Y-65726000D01*
X142995072Y-65723236D01*
X142973991Y-65716840D01*
X142954555Y-65706452D01*
X142937524Y-65692476D01*
X142923548Y-65675445D01*
X142913160Y-65656009D01*
X142906764Y-65634928D01*
X142904000Y-65606860D01*
X142904000Y-63693140D01*
X142906764Y-63665072D01*
X142913160Y-63643991D01*
X142923548Y-63624555D01*
X142937524Y-63607524D01*
X142954555Y-63593548D01*
X142973991Y-63583160D01*
X142995072Y-63576764D01*
X143023140Y-63574000D01*
X143486860Y-63574000D01*
X143514928Y-63576764D01*
G37*
G36*
X142244928Y-63576764D02*
G01*
X142266009Y-63583160D01*
X142285445Y-63593548D01*
X142302476Y-63607524D01*
X142316452Y-63624555D01*
X142326840Y-63643991D01*
X142333236Y-63665072D01*
X142336000Y-63693140D01*
X142336000Y-65606860D01*
X142333236Y-65634928D01*
X142326840Y-65656009D01*
X142316452Y-65675445D01*
X142302476Y-65692476D01*
X142285445Y-65706452D01*
X142266009Y-65716840D01*
X142244928Y-65723236D01*
X142216860Y-65726000D01*
X141753140Y-65726000D01*
X141725072Y-65723236D01*
X141703991Y-65716840D01*
X141684555Y-65706452D01*
X141667524Y-65692476D01*
X141653548Y-65675445D01*
X141643160Y-65656009D01*
X141636764Y-65634928D01*
X141634000Y-65606860D01*
X141634000Y-63693140D01*
X141636764Y-63665072D01*
X141643160Y-63643991D01*
X141653548Y-63624555D01*
X141667524Y-63607524D01*
X141684555Y-63593548D01*
X141703991Y-63583160D01*
X141725072Y-63576764D01*
X141753140Y-63574000D01*
X142216860Y-63574000D01*
X142244928Y-63576764D01*
G37*
G36*
X140974928Y-63576764D02*
G01*
X140996009Y-63583160D01*
X141015445Y-63593548D01*
X141032476Y-63607524D01*
X141046452Y-63624555D01*
X141056840Y-63643991D01*
X141063236Y-63665072D01*
X141066000Y-63693140D01*
X141066000Y-65606860D01*
X141063236Y-65634928D01*
X141056840Y-65656009D01*
X141046452Y-65675445D01*
X141032476Y-65692476D01*
X141015445Y-65706452D01*
X140996009Y-65716840D01*
X140974928Y-65723236D01*
X140946860Y-65726000D01*
X140483140Y-65726000D01*
X140455072Y-65723236D01*
X140433991Y-65716840D01*
X140414555Y-65706452D01*
X140397524Y-65692476D01*
X140383548Y-65675445D01*
X140373160Y-65656009D01*
X140366764Y-65634928D01*
X140364000Y-65606860D01*
X140364000Y-63693140D01*
X140366764Y-63665072D01*
X140373160Y-63643991D01*
X140383548Y-63624555D01*
X140397524Y-63607524D01*
X140414555Y-63593548D01*
X140433991Y-63583160D01*
X140455072Y-63576764D01*
X140483140Y-63574000D01*
X140946860Y-63574000D01*
X140974928Y-63576764D01*
G37*
G36*
X139704928Y-63576764D02*
G01*
X139726009Y-63583160D01*
X139745445Y-63593548D01*
X139762476Y-63607524D01*
X139776452Y-63624555D01*
X139786840Y-63643991D01*
X139793236Y-63665072D01*
X139796000Y-63693140D01*
X139796000Y-65606860D01*
X139793236Y-65634928D01*
X139786840Y-65656009D01*
X139776452Y-65675445D01*
X139762476Y-65692476D01*
X139745445Y-65706452D01*
X139726009Y-65716840D01*
X139704928Y-65723236D01*
X139676860Y-65726000D01*
X139213140Y-65726000D01*
X139185072Y-65723236D01*
X139163991Y-65716840D01*
X139144555Y-65706452D01*
X139127524Y-65692476D01*
X139113548Y-65675445D01*
X139103160Y-65656009D01*
X139096764Y-65634928D01*
X139094000Y-65606860D01*
X139094000Y-63693140D01*
X139096764Y-63665072D01*
X139103160Y-63643991D01*
X139113548Y-63624555D01*
X139127524Y-63607524D01*
X139144555Y-63593548D01*
X139163991Y-63583160D01*
X139185072Y-63576764D01*
X139213140Y-63574000D01*
X139676860Y-63574000D01*
X139704928Y-63576764D01*
G37*
G36*
X138434928Y-63576764D02*
G01*
X138456009Y-63583160D01*
X138475445Y-63593548D01*
X138492476Y-63607524D01*
X138506452Y-63624555D01*
X138516840Y-63643991D01*
X138523236Y-63665072D01*
X138526000Y-63693140D01*
X138526000Y-65606860D01*
X138523236Y-65634928D01*
X138516840Y-65656009D01*
X138506452Y-65675445D01*
X138492476Y-65692476D01*
X138475445Y-65706452D01*
X138456009Y-65716840D01*
X138434928Y-65723236D01*
X138406860Y-65726000D01*
X137943140Y-65726000D01*
X137915072Y-65723236D01*
X137893991Y-65716840D01*
X137874555Y-65706452D01*
X137857524Y-65692476D01*
X137843548Y-65675445D01*
X137833160Y-65656009D01*
X137826764Y-65634928D01*
X137824000Y-65606860D01*
X137824000Y-63693140D01*
X137826764Y-63665072D01*
X137833160Y-63643991D01*
X137843548Y-63624555D01*
X137857524Y-63607524D01*
X137874555Y-63593548D01*
X137893991Y-63583160D01*
X137915072Y-63576764D01*
X137943140Y-63574000D01*
X138406860Y-63574000D01*
X138434928Y-63576764D01*
G37*
G36*
X135894928Y-63576764D02*
G01*
X135916009Y-63583160D01*
X135935445Y-63593548D01*
X135952476Y-63607524D01*
X135966452Y-63624555D01*
X135976840Y-63643991D01*
X135983236Y-63665072D01*
X135986000Y-63693140D01*
X135986000Y-65606860D01*
X135983236Y-65634928D01*
X135976840Y-65656009D01*
X135966452Y-65675445D01*
X135952476Y-65692476D01*
X135935445Y-65706452D01*
X135916009Y-65716840D01*
X135894928Y-65723236D01*
X135866860Y-65726000D01*
X135403140Y-65726000D01*
X135375072Y-65723236D01*
X135353991Y-65716840D01*
X135334555Y-65706452D01*
X135317524Y-65692476D01*
X135303548Y-65675445D01*
X135293160Y-65656009D01*
X135286764Y-65634928D01*
X135284000Y-65606860D01*
X135284000Y-63693140D01*
X135286764Y-63665072D01*
X135293160Y-63643991D01*
X135303548Y-63624555D01*
X135317524Y-63607524D01*
X135334555Y-63593548D01*
X135353991Y-63583160D01*
X135375072Y-63576764D01*
X135403140Y-63574000D01*
X135866860Y-63574000D01*
X135894928Y-63576764D01*
G37*
G36*
X134624928Y-63576764D02*
G01*
X134646009Y-63583160D01*
X134665445Y-63593548D01*
X134682476Y-63607524D01*
X134696452Y-63624555D01*
X134706840Y-63643991D01*
X134713236Y-63665072D01*
X134716000Y-63693140D01*
X134716000Y-65606860D01*
X134713236Y-65634928D01*
X134706840Y-65656009D01*
X134696452Y-65675445D01*
X134682476Y-65692476D01*
X134665445Y-65706452D01*
X134646009Y-65716840D01*
X134624928Y-65723236D01*
X134596860Y-65726000D01*
X134133140Y-65726000D01*
X134105072Y-65723236D01*
X134083991Y-65716840D01*
X134064555Y-65706452D01*
X134047524Y-65692476D01*
X134033548Y-65675445D01*
X134023160Y-65656009D01*
X134016764Y-65634928D01*
X134014000Y-65606860D01*
X134014000Y-63693140D01*
X134016764Y-63665072D01*
X134023160Y-63643991D01*
X134033548Y-63624555D01*
X134047524Y-63607524D01*
X134064555Y-63593548D01*
X134083991Y-63583160D01*
X134105072Y-63576764D01*
X134133140Y-63574000D01*
X134596860Y-63574000D01*
X134624928Y-63576764D01*
G37*
G36*
X133354928Y-63576764D02*
G01*
X133376009Y-63583160D01*
X133395445Y-63593548D01*
X133412476Y-63607524D01*
X133426452Y-63624555D01*
X133436840Y-63643991D01*
X133443236Y-63665072D01*
X133446000Y-63693140D01*
X133446000Y-65606860D01*
X133443236Y-65634928D01*
X133436840Y-65656009D01*
X133426452Y-65675445D01*
X133412476Y-65692476D01*
X133395445Y-65706452D01*
X133376009Y-65716840D01*
X133354928Y-65723236D01*
X133326860Y-65726000D01*
X132863140Y-65726000D01*
X132835072Y-65723236D01*
X132813991Y-65716840D01*
X132794555Y-65706452D01*
X132777524Y-65692476D01*
X132763548Y-65675445D01*
X132753160Y-65656009D01*
X132746764Y-65634928D01*
X132744000Y-65606860D01*
X132744000Y-63693140D01*
X132746764Y-63665072D01*
X132753160Y-63643991D01*
X132763548Y-63624555D01*
X132777524Y-63607524D01*
X132794555Y-63593548D01*
X132813991Y-63583160D01*
X132835072Y-63576764D01*
X132863140Y-63574000D01*
X133326860Y-63574000D01*
X133354928Y-63576764D01*
G37*
G36*
X132084928Y-63576764D02*
G01*
X132106009Y-63583160D01*
X132125445Y-63593548D01*
X132142476Y-63607524D01*
X132156452Y-63624555D01*
X132166840Y-63643991D01*
X132173236Y-63665072D01*
X132176000Y-63693140D01*
X132176000Y-65606860D01*
X132173236Y-65634928D01*
X132166840Y-65656009D01*
X132156452Y-65675445D01*
X132142476Y-65692476D01*
X132125445Y-65706452D01*
X132106009Y-65716840D01*
X132084928Y-65723236D01*
X132056860Y-65726000D01*
X131593140Y-65726000D01*
X131565072Y-65723236D01*
X131543991Y-65716840D01*
X131524555Y-65706452D01*
X131507524Y-65692476D01*
X131493548Y-65675445D01*
X131483160Y-65656009D01*
X131476764Y-65634928D01*
X131474000Y-65606860D01*
X131474000Y-63693140D01*
X131476764Y-63665072D01*
X131483160Y-63643991D01*
X131493548Y-63624555D01*
X131507524Y-63607524D01*
X131524555Y-63593548D01*
X131543991Y-63583160D01*
X131565072Y-63576764D01*
X131593140Y-63574000D01*
X132056860Y-63574000D01*
X132084928Y-63576764D01*
G37*
G36*
X128274928Y-63576764D02*
G01*
X128296009Y-63583160D01*
X128315445Y-63593548D01*
X128332476Y-63607524D01*
X128346452Y-63624555D01*
X128356840Y-63643991D01*
X128363236Y-63665072D01*
X128366000Y-63693140D01*
X128366000Y-65606860D01*
X128363236Y-65634928D01*
X128356840Y-65656009D01*
X128346452Y-65675445D01*
X128332476Y-65692476D01*
X128315445Y-65706452D01*
X128296009Y-65716840D01*
X128274928Y-65723236D01*
X128246860Y-65726000D01*
X127783140Y-65726000D01*
X127755072Y-65723236D01*
X127733991Y-65716840D01*
X127714555Y-65706452D01*
X127697524Y-65692476D01*
X127683548Y-65675445D01*
X127673160Y-65656009D01*
X127666764Y-65634928D01*
X127664000Y-65606860D01*
X127664000Y-63693140D01*
X127666764Y-63665072D01*
X127673160Y-63643991D01*
X127683548Y-63624555D01*
X127697524Y-63607524D01*
X127714555Y-63593548D01*
X127733991Y-63583160D01*
X127755072Y-63576764D01*
X127783140Y-63574000D01*
X128246860Y-63574000D01*
X128274928Y-63576764D01*
G37*
G36*
X130814928Y-63576764D02*
G01*
X130836009Y-63583160D01*
X130855445Y-63593548D01*
X130872476Y-63607524D01*
X130886452Y-63624555D01*
X130896840Y-63643991D01*
X130903236Y-63665072D01*
X130906000Y-63693140D01*
X130906000Y-65606860D01*
X130903236Y-65634928D01*
X130896840Y-65656009D01*
X130886452Y-65675445D01*
X130872476Y-65692476D01*
X130855445Y-65706452D01*
X130836009Y-65716840D01*
X130814928Y-65723236D01*
X130786860Y-65726000D01*
X130323140Y-65726000D01*
X130295072Y-65723236D01*
X130273991Y-65716840D01*
X130254555Y-65706452D01*
X130237524Y-65692476D01*
X130223548Y-65675445D01*
X130213160Y-65656009D01*
X130206764Y-65634928D01*
X130204000Y-65606860D01*
X130204000Y-63693140D01*
X130206764Y-63665072D01*
X130213160Y-63643991D01*
X130223548Y-63624555D01*
X130237524Y-63607524D01*
X130254555Y-63593548D01*
X130273991Y-63583160D01*
X130295072Y-63576764D01*
X130323140Y-63574000D01*
X130786860Y-63574000D01*
X130814928Y-63576764D01*
G37*
G36*
X137164928Y-63576764D02*
G01*
X137186009Y-63583160D01*
X137205445Y-63593548D01*
X137222476Y-63607524D01*
X137236452Y-63624555D01*
X137246840Y-63643991D01*
X137253236Y-63665072D01*
X137256000Y-63693140D01*
X137256000Y-65606860D01*
X137253236Y-65634928D01*
X137246840Y-65656009D01*
X137236452Y-65675445D01*
X137222476Y-65692476D01*
X137205445Y-65706452D01*
X137186009Y-65716840D01*
X137164928Y-65723236D01*
X137136860Y-65726000D01*
X136673140Y-65726000D01*
X136645072Y-65723236D01*
X136623991Y-65716840D01*
X136604555Y-65706452D01*
X136587524Y-65692476D01*
X136573548Y-65675445D01*
X136563160Y-65656009D01*
X136556764Y-65634928D01*
X136554000Y-65606860D01*
X136554000Y-63693140D01*
X136556764Y-63665072D01*
X136563160Y-63643991D01*
X136573548Y-63624555D01*
X136587524Y-63607524D01*
X136604555Y-63593548D01*
X136623991Y-63583160D01*
X136645072Y-63576764D01*
X136673140Y-63574000D01*
X137136860Y-63574000D01*
X137164928Y-63576764D01*
G37*
G36*
X60846189Y-57210483D02*
G01*
X60846192Y-57210484D01*
X60846191Y-57210484D01*
X61374139Y-57429167D01*
X61849280Y-57746646D01*
X62253354Y-58150720D01*
X62570833Y-58625861D01*
X62570834Y-58625863D01*
X62789517Y-59153811D01*
X62901000Y-59714275D01*
X62901000Y-60285725D01*
X62789517Y-60846189D01*
X62789516Y-60846191D01*
X62570833Y-61374139D01*
X62253354Y-61849280D01*
X61849280Y-62253354D01*
X61374139Y-62570833D01*
X61374138Y-62570834D01*
X61374137Y-62570834D01*
X60846189Y-62789517D01*
X60285725Y-62901000D01*
X59714275Y-62901000D01*
X59153811Y-62789517D01*
X58625863Y-62570834D01*
X58625862Y-62570834D01*
X58625861Y-62570833D01*
X58150720Y-62253354D01*
X57746646Y-61849280D01*
X57429167Y-61374139D01*
X57210484Y-60846191D01*
X57210483Y-60846189D01*
X57099000Y-60285725D01*
X57099000Y-59714275D01*
X57210483Y-59153811D01*
X57429166Y-58625863D01*
X57429167Y-58625861D01*
X57746646Y-58150720D01*
X58150720Y-57746646D01*
X58625861Y-57429167D01*
X59153809Y-57210484D01*
X59153808Y-57210484D01*
X59153811Y-57210483D01*
X59714275Y-57099000D01*
X60285725Y-57099000D01*
X60846189Y-57210483D01*
G37*
G36*
X210846189Y-57210483D02*
G01*
X210846192Y-57210484D01*
X210846191Y-57210484D01*
X211374139Y-57429167D01*
X211849280Y-57746646D01*
X212253354Y-58150720D01*
X212570833Y-58625861D01*
X212570834Y-58625863D01*
X212789517Y-59153811D01*
X212901000Y-59714275D01*
X212901000Y-60285725D01*
X212789517Y-60846189D01*
X212789516Y-60846191D01*
X212570833Y-61374139D01*
X212253354Y-61849280D01*
X211849280Y-62253354D01*
X211374139Y-62570833D01*
X211374138Y-62570834D01*
X211374137Y-62570834D01*
X210846189Y-62789517D01*
X210285725Y-62901000D01*
X209714275Y-62901000D01*
X209153811Y-62789517D01*
X208625863Y-62570834D01*
X208625862Y-62570834D01*
X208625861Y-62570833D01*
X208150720Y-62253354D01*
X207746646Y-61849280D01*
X207429167Y-61374139D01*
X207210484Y-60846191D01*
X207210483Y-60846189D01*
X207099000Y-60285725D01*
X207099000Y-59714275D01*
X207210483Y-59153811D01*
X207429166Y-58625863D01*
X207429167Y-58625861D01*
X207746646Y-58150720D01*
X208150720Y-57746646D01*
X208625861Y-57429167D01*
X209153809Y-57210484D01*
X209153808Y-57210484D01*
X209153811Y-57210483D01*
X209714275Y-57099000D01*
X210285725Y-57099000D01*
X210846189Y-57210483D01*
G37*
G36*
X140974928Y-54276764D02*
G01*
X140996009Y-54283160D01*
X141015445Y-54293548D01*
X141032476Y-54307524D01*
X141046452Y-54324555D01*
X141056840Y-54343991D01*
X141063236Y-54365072D01*
X141066000Y-54393140D01*
X141066000Y-56306860D01*
X141063236Y-56334928D01*
X141056840Y-56356009D01*
X141046452Y-56375445D01*
X141032476Y-56392476D01*
X141015445Y-56406452D01*
X140996009Y-56416840D01*
X140974928Y-56423236D01*
X140946860Y-56426000D01*
X140483140Y-56426000D01*
X140455072Y-56423236D01*
X140433991Y-56416840D01*
X140414555Y-56406452D01*
X140397524Y-56392476D01*
X140383548Y-56375445D01*
X140373160Y-56356009D01*
X140366764Y-56334928D01*
X140364000Y-56306860D01*
X140364000Y-54393140D01*
X140366764Y-54365072D01*
X140373160Y-54343991D01*
X140383548Y-54324555D01*
X140397524Y-54307524D01*
X140414555Y-54293548D01*
X140433991Y-54283160D01*
X140455072Y-54276764D01*
X140483140Y-54274000D01*
X140946860Y-54274000D01*
X140974928Y-54276764D01*
G37*
G36*
X127004928Y-54276764D02*
G01*
X127026009Y-54283160D01*
X127045445Y-54293548D01*
X127062476Y-54307524D01*
X127076452Y-54324555D01*
X127086840Y-54343991D01*
X127093236Y-54365072D01*
X127096000Y-54393140D01*
X127096000Y-56306860D01*
X127093236Y-56334928D01*
X127086840Y-56356009D01*
X127076452Y-56375445D01*
X127062476Y-56392476D01*
X127045445Y-56406452D01*
X127026009Y-56416840D01*
X127004928Y-56423236D01*
X126976860Y-56426000D01*
X126513140Y-56426000D01*
X126485072Y-56423236D01*
X126463991Y-56416840D01*
X126444555Y-56406452D01*
X126427524Y-56392476D01*
X126413548Y-56375445D01*
X126403160Y-56356009D01*
X126396764Y-56334928D01*
X126394000Y-56306860D01*
X126394000Y-54393140D01*
X126396764Y-54365072D01*
X126403160Y-54343991D01*
X126413548Y-54324555D01*
X126427524Y-54307524D01*
X126444555Y-54293548D01*
X126463991Y-54283160D01*
X126485072Y-54276764D01*
X126513140Y-54274000D01*
X126976860Y-54274000D01*
X127004928Y-54276764D01*
G37*
G36*
X128274928Y-54276764D02*
G01*
X128296009Y-54283160D01*
X128315445Y-54293548D01*
X128332476Y-54307524D01*
X128346452Y-54324555D01*
X128356840Y-54343991D01*
X128363236Y-54365072D01*
X128366000Y-54393140D01*
X128366000Y-56306860D01*
X128363236Y-56334928D01*
X128356840Y-56356009D01*
X128346452Y-56375445D01*
X128332476Y-56392476D01*
X128315445Y-56406452D01*
X128296009Y-56416840D01*
X128274928Y-56423236D01*
X128246860Y-56426000D01*
X127783140Y-56426000D01*
X127755072Y-56423236D01*
X127733991Y-56416840D01*
X127714555Y-56406452D01*
X127697524Y-56392476D01*
X127683548Y-56375445D01*
X127673160Y-56356009D01*
X127666764Y-56334928D01*
X127664000Y-56306860D01*
X127664000Y-54393140D01*
X127666764Y-54365072D01*
X127673160Y-54343991D01*
X127683548Y-54324555D01*
X127697524Y-54307524D01*
X127714555Y-54293548D01*
X127733991Y-54283160D01*
X127755072Y-54276764D01*
X127783140Y-54274000D01*
X128246860Y-54274000D01*
X128274928Y-54276764D01*
G37*
G36*
X129544928Y-54276764D02*
G01*
X129566009Y-54283160D01*
X129585445Y-54293548D01*
X129602476Y-54307524D01*
X129616452Y-54324555D01*
X129626840Y-54343991D01*
X129633236Y-54365072D01*
X129636000Y-54393140D01*
X129636000Y-56306860D01*
X129633236Y-56334928D01*
X129626840Y-56356009D01*
X129616452Y-56375445D01*
X129602476Y-56392476D01*
X129585445Y-56406452D01*
X129566009Y-56416840D01*
X129544928Y-56423236D01*
X129516860Y-56426000D01*
X129053140Y-56426000D01*
X129025072Y-56423236D01*
X129003991Y-56416840D01*
X128984555Y-56406452D01*
X128967524Y-56392476D01*
X128953548Y-56375445D01*
X128943160Y-56356009D01*
X128936764Y-56334928D01*
X128934000Y-56306860D01*
X128934000Y-54393140D01*
X128936764Y-54365072D01*
X128943160Y-54343991D01*
X128953548Y-54324555D01*
X128967524Y-54307524D01*
X128984555Y-54293548D01*
X129003991Y-54283160D01*
X129025072Y-54276764D01*
X129053140Y-54274000D01*
X129516860Y-54274000D01*
X129544928Y-54276764D01*
G37*
G36*
X130814928Y-54276764D02*
G01*
X130836009Y-54283160D01*
X130855445Y-54293548D01*
X130872476Y-54307524D01*
X130886452Y-54324555D01*
X130896840Y-54343991D01*
X130903236Y-54365072D01*
X130906000Y-54393140D01*
X130906000Y-56306860D01*
X130903236Y-56334928D01*
X130896840Y-56356009D01*
X130886452Y-56375445D01*
X130872476Y-56392476D01*
X130855445Y-56406452D01*
X130836009Y-56416840D01*
X130814928Y-56423236D01*
X130786860Y-56426000D01*
X130323140Y-56426000D01*
X130295072Y-56423236D01*
X130273991Y-56416840D01*
X130254555Y-56406452D01*
X130237524Y-56392476D01*
X130223548Y-56375445D01*
X130213160Y-56356009D01*
X130206764Y-56334928D01*
X130204000Y-56306860D01*
X130204000Y-54393140D01*
X130206764Y-54365072D01*
X130213160Y-54343991D01*
X130223548Y-54324555D01*
X130237524Y-54307524D01*
X130254555Y-54293548D01*
X130273991Y-54283160D01*
X130295072Y-54276764D01*
X130323140Y-54274000D01*
X130786860Y-54274000D01*
X130814928Y-54276764D01*
G37*
G36*
X132084928Y-54276764D02*
G01*
X132106009Y-54283160D01*
X132125445Y-54293548D01*
X132142476Y-54307524D01*
X132156452Y-54324555D01*
X132166840Y-54343991D01*
X132173236Y-54365072D01*
X132176000Y-54393140D01*
X132176000Y-56306860D01*
X132173236Y-56334928D01*
X132166840Y-56356009D01*
X132156452Y-56375445D01*
X132142476Y-56392476D01*
X132125445Y-56406452D01*
X132106009Y-56416840D01*
X132084928Y-56423236D01*
X132056860Y-56426000D01*
X131593140Y-56426000D01*
X131565072Y-56423236D01*
X131543991Y-56416840D01*
X131524555Y-56406452D01*
X131507524Y-56392476D01*
X131493548Y-56375445D01*
X131483160Y-56356009D01*
X131476764Y-56334928D01*
X131474000Y-56306860D01*
X131474000Y-54393140D01*
X131476764Y-54365072D01*
X131483160Y-54343991D01*
X131493548Y-54324555D01*
X131507524Y-54307524D01*
X131524555Y-54293548D01*
X131543991Y-54283160D01*
X131565072Y-54276764D01*
X131593140Y-54274000D01*
X132056860Y-54274000D01*
X132084928Y-54276764D01*
G37*
G36*
X133354928Y-54276764D02*
G01*
X133376009Y-54283160D01*
X133395445Y-54293548D01*
X133412476Y-54307524D01*
X133426452Y-54324555D01*
X133436840Y-54343991D01*
X133443236Y-54365072D01*
X133446000Y-54393140D01*
X133446000Y-56306860D01*
X133443236Y-56334928D01*
X133436840Y-56356009D01*
X133426452Y-56375445D01*
X133412476Y-56392476D01*
X133395445Y-56406452D01*
X133376009Y-56416840D01*
X133354928Y-56423236D01*
X133326860Y-56426000D01*
X132863140Y-56426000D01*
X132835072Y-56423236D01*
X132813991Y-56416840D01*
X132794555Y-56406452D01*
X132777524Y-56392476D01*
X132763548Y-56375445D01*
X132753160Y-56356009D01*
X132746764Y-56334928D01*
X132744000Y-56306860D01*
X132744000Y-54393140D01*
X132746764Y-54365072D01*
X132753160Y-54343991D01*
X132763548Y-54324555D01*
X132777524Y-54307524D01*
X132794555Y-54293548D01*
X132813991Y-54283160D01*
X132835072Y-54276764D01*
X132863140Y-54274000D01*
X133326860Y-54274000D01*
X133354928Y-54276764D01*
G37*
G36*
X134624928Y-54276764D02*
G01*
X134646009Y-54283160D01*
X134665445Y-54293548D01*
X134682476Y-54307524D01*
X134696452Y-54324555D01*
X134706840Y-54343991D01*
X134713236Y-54365072D01*
X134716000Y-54393140D01*
X134716000Y-56306860D01*
X134713236Y-56334928D01*
X134706840Y-56356009D01*
X134696452Y-56375445D01*
X134682476Y-56392476D01*
X134665445Y-56406452D01*
X134646009Y-56416840D01*
X134624928Y-56423236D01*
X134596860Y-56426000D01*
X134133140Y-56426000D01*
X134105072Y-56423236D01*
X134083991Y-56416840D01*
X134064555Y-56406452D01*
X134047524Y-56392476D01*
X134033548Y-56375445D01*
X134023160Y-56356009D01*
X134016764Y-56334928D01*
X134014000Y-56306860D01*
X134014000Y-54393140D01*
X134016764Y-54365072D01*
X134023160Y-54343991D01*
X134033548Y-54324555D01*
X134047524Y-54307524D01*
X134064555Y-54293548D01*
X134083991Y-54283160D01*
X134105072Y-54276764D01*
X134133140Y-54274000D01*
X134596860Y-54274000D01*
X134624928Y-54276764D01*
G37*
G36*
X137164928Y-54276764D02*
G01*
X137186009Y-54283160D01*
X137205445Y-54293548D01*
X137222476Y-54307524D01*
X137236452Y-54324555D01*
X137246840Y-54343991D01*
X137253236Y-54365072D01*
X137256000Y-54393140D01*
X137256000Y-56306860D01*
X137253236Y-56334928D01*
X137246840Y-56356009D01*
X137236452Y-56375445D01*
X137222476Y-56392476D01*
X137205445Y-56406452D01*
X137186009Y-56416840D01*
X137164928Y-56423236D01*
X137136860Y-56426000D01*
X136673140Y-56426000D01*
X136645072Y-56423236D01*
X136623991Y-56416840D01*
X136604555Y-56406452D01*
X136587524Y-56392476D01*
X136573548Y-56375445D01*
X136563160Y-56356009D01*
X136556764Y-56334928D01*
X136554000Y-56306860D01*
X136554000Y-54393140D01*
X136556764Y-54365072D01*
X136563160Y-54343991D01*
X136573548Y-54324555D01*
X136587524Y-54307524D01*
X136604555Y-54293548D01*
X136623991Y-54283160D01*
X136645072Y-54276764D01*
X136673140Y-54274000D01*
X137136860Y-54274000D01*
X137164928Y-54276764D01*
G37*
G36*
X138434928Y-54276764D02*
G01*
X138456009Y-54283160D01*
X138475445Y-54293548D01*
X138492476Y-54307524D01*
X138506452Y-54324555D01*
X138516840Y-54343991D01*
X138523236Y-54365072D01*
X138526000Y-54393140D01*
X138526000Y-56306860D01*
X138523236Y-56334928D01*
X138516840Y-56356009D01*
X138506452Y-56375445D01*
X138492476Y-56392476D01*
X138475445Y-56406452D01*
X138456009Y-56416840D01*
X138434928Y-56423236D01*
X138406860Y-56426000D01*
X137943140Y-56426000D01*
X137915072Y-56423236D01*
X137893991Y-56416840D01*
X137874555Y-56406452D01*
X137857524Y-56392476D01*
X137843548Y-56375445D01*
X137833160Y-56356009D01*
X137826764Y-56334928D01*
X137824000Y-56306860D01*
X137824000Y-54393140D01*
X137826764Y-54365072D01*
X137833160Y-54343991D01*
X137843548Y-54324555D01*
X137857524Y-54307524D01*
X137874555Y-54293548D01*
X137893991Y-54283160D01*
X137915072Y-54276764D01*
X137943140Y-54274000D01*
X138406860Y-54274000D01*
X138434928Y-54276764D01*
G37*
G36*
X139704928Y-54276764D02*
G01*
X139726009Y-54283160D01*
X139745445Y-54293548D01*
X139762476Y-54307524D01*
X139776452Y-54324555D01*
X139786840Y-54343991D01*
X139793236Y-54365072D01*
X139796000Y-54393140D01*
X139796000Y-56306860D01*
X139793236Y-56334928D01*
X139786840Y-56356009D01*
X139776452Y-56375445D01*
X139762476Y-56392476D01*
X139745445Y-56406452D01*
X139726009Y-56416840D01*
X139704928Y-56423236D01*
X139676860Y-56426000D01*
X139213140Y-56426000D01*
X139185072Y-56423236D01*
X139163991Y-56416840D01*
X139144555Y-56406452D01*
X139127524Y-56392476D01*
X139113548Y-56375445D01*
X139103160Y-56356009D01*
X139096764Y-56334928D01*
X139094000Y-56306860D01*
X139094000Y-54393140D01*
X139096764Y-54365072D01*
X139103160Y-54343991D01*
X139113548Y-54324555D01*
X139127524Y-54307524D01*
X139144555Y-54293548D01*
X139163991Y-54283160D01*
X139185072Y-54276764D01*
X139213140Y-54274000D01*
X139676860Y-54274000D01*
X139704928Y-54276764D01*
G37*
G36*
X142244928Y-54276764D02*
G01*
X142266009Y-54283160D01*
X142285445Y-54293548D01*
X142302476Y-54307524D01*
X142316452Y-54324555D01*
X142326840Y-54343991D01*
X142333236Y-54365072D01*
X142336000Y-54393140D01*
X142336000Y-56306860D01*
X142333236Y-56334928D01*
X142326840Y-56356009D01*
X142316452Y-56375445D01*
X142302476Y-56392476D01*
X142285445Y-56406452D01*
X142266009Y-56416840D01*
X142244928Y-56423236D01*
X142216860Y-56426000D01*
X141753140Y-56426000D01*
X141725072Y-56423236D01*
X141703991Y-56416840D01*
X141684555Y-56406452D01*
X141667524Y-56392476D01*
X141653548Y-56375445D01*
X141643160Y-56356009D01*
X141636764Y-56334928D01*
X141634000Y-56306860D01*
X141634000Y-54393140D01*
X141636764Y-54365072D01*
X141643160Y-54343991D01*
X141653548Y-54324555D01*
X141667524Y-54307524D01*
X141684555Y-54293548D01*
X141703991Y-54283160D01*
X141725072Y-54276764D01*
X141753140Y-54274000D01*
X142216860Y-54274000D01*
X142244928Y-54276764D01*
G37*
G36*
X143514928Y-54276764D02*
G01*
X143536009Y-54283160D01*
X143555445Y-54293548D01*
X143572476Y-54307524D01*
X143586452Y-54324555D01*
X143596840Y-54343991D01*
X143603236Y-54365072D01*
X143606000Y-54393140D01*
X143606000Y-56306860D01*
X143603236Y-56334928D01*
X143596840Y-56356009D01*
X143586452Y-56375445D01*
X143572476Y-56392476D01*
X143555445Y-56406452D01*
X143536009Y-56416840D01*
X143514928Y-56423236D01*
X143486860Y-56426000D01*
X143023140Y-56426000D01*
X142995072Y-56423236D01*
X142973991Y-56416840D01*
X142954555Y-56406452D01*
X142937524Y-56392476D01*
X142923548Y-56375445D01*
X142913160Y-56356009D01*
X142906764Y-56334928D01*
X142904000Y-56306860D01*
X142904000Y-54393140D01*
X142906764Y-54365072D01*
X142913160Y-54343991D01*
X142923548Y-54324555D01*
X142937524Y-54307524D01*
X142954555Y-54293548D01*
X142973991Y-54283160D01*
X142995072Y-54276764D01*
X143023140Y-54274000D01*
X143486860Y-54274000D01*
X143514928Y-54276764D01*
G37*
G36*
X135894928Y-54276764D02*
G01*
X135916009Y-54283160D01*
X135935445Y-54293548D01*
X135952476Y-54307524D01*
X135966452Y-54324555D01*
X135976840Y-54343991D01*
X135983236Y-54365072D01*
X135986000Y-54393140D01*
X135986000Y-56306860D01*
X135983236Y-56334928D01*
X135976840Y-56356009D01*
X135966452Y-56375445D01*
X135952476Y-56392476D01*
X135935445Y-56406452D01*
X135916009Y-56416840D01*
X135894928Y-56423236D01*
X135866860Y-56426000D01*
X135403140Y-56426000D01*
X135375072Y-56423236D01*
X135353991Y-56416840D01*
X135334555Y-56406452D01*
X135317524Y-56392476D01*
X135303548Y-56375445D01*
X135293160Y-56356009D01*
X135286764Y-56334928D01*
X135284000Y-56306860D01*
X135284000Y-54393140D01*
X135286764Y-54365072D01*
X135293160Y-54343991D01*
X135303548Y-54324555D01*
X135317524Y-54307524D01*
X135334555Y-54293548D01*
X135353991Y-54283160D01*
X135375072Y-54276764D01*
X135403140Y-54274000D01*
X135866860Y-54274000D01*
X135894928Y-54276764D01*
G37*
G36*
X124988674Y-54553465D02*
G01*
X125026367Y-54564899D01*
X125061103Y-54583466D01*
X125091548Y-54608452D01*
X125116534Y-54638897D01*
X125135101Y-54673633D01*
X125146535Y-54711326D01*
X125151000Y-54756661D01*
X125151000Y-55843339D01*
X125146535Y-55888674D01*
X125135101Y-55926367D01*
X125116534Y-55961103D01*
X125091548Y-55991548D01*
X125061103Y-56016534D01*
X125026367Y-56035101D01*
X124988674Y-56046535D01*
X124943339Y-56051000D01*
X124106661Y-56051000D01*
X124061326Y-56046535D01*
X124023633Y-56035101D01*
X123988897Y-56016534D01*
X123958452Y-55991548D01*
X123933466Y-55961103D01*
X123914899Y-55926367D01*
X123903465Y-55888674D01*
X123899000Y-55843339D01*
X123899000Y-54756661D01*
X123903465Y-54711326D01*
X123914899Y-54673633D01*
X123933466Y-54638897D01*
X123958452Y-54608452D01*
X123988897Y-54583466D01*
X124023633Y-54564899D01*
X124061326Y-54553465D01*
X124106661Y-54549000D01*
X124943339Y-54549000D01*
X124988674Y-54553465D01*
G37*
G36*
X122938674Y-54553465D02*
G01*
X122976367Y-54564899D01*
X123011103Y-54583466D01*
X123041548Y-54608452D01*
X123066534Y-54638897D01*
X123085101Y-54673633D01*
X123096535Y-54711326D01*
X123101000Y-54756661D01*
X123101000Y-55843339D01*
X123096535Y-55888674D01*
X123085101Y-55926367D01*
X123066534Y-55961103D01*
X123041548Y-55991548D01*
X123011103Y-56016534D01*
X122976367Y-56035101D01*
X122938674Y-56046535D01*
X122893339Y-56051000D01*
X122056661Y-56051000D01*
X122011326Y-56046535D01*
X121973633Y-56035101D01*
X121938897Y-56016534D01*
X121908452Y-55991548D01*
X121883466Y-55961103D01*
X121864899Y-55926367D01*
X121853465Y-55888674D01*
X121849000Y-55843339D01*
X121849000Y-54756661D01*
X121853465Y-54711326D01*
X121864899Y-54673633D01*
X121883466Y-54638897D01*
X121908452Y-54608452D01*
X121938897Y-54583466D01*
X121973633Y-54564899D01*
X122011326Y-54553465D01*
X122056661Y-54549000D01*
X122893339Y-54549000D01*
X122938674Y-54553465D01*
G37*
M02*
