G04 #@! TF.GenerationSoftware,KiCad,Pcbnew,5.1.5*
G04 #@! TF.CreationDate,2020-03-06T12:13:38+01:00*
G04 #@! TF.ProjectId,e-chessboard,652d6368-6573-4736-926f-6172642e6b69,0.1*
G04 #@! TF.SameCoordinates,Original*
G04 #@! TF.FileFunction,Legend,Top*
G04 #@! TF.FilePolarity,Positive*
%FSLAX46Y46*%
G04 Gerber Fmt 4.6, Leading zero omitted, Abs format (unit mm)*
G04 Created by KiCad (PCBNEW 5.1.5) date 2020-03-06 12:13:38*
%MOMM*%
%LPD*%
G04 APERTURE LIST*
%ADD10C,0.300000*%
%ADD11C,0.120000*%
%ADD12C,0.150000*%
G04 APERTURE END LIST*
D10*
X192714285Y-111892857D02*
X192928571Y-111964285D01*
X193000000Y-112035714D01*
X193071428Y-112178571D01*
X193071428Y-112392857D01*
X193000000Y-112535714D01*
X192928571Y-112607142D01*
X192785714Y-112678571D01*
X192214285Y-112678571D01*
X192214285Y-111178571D01*
X192714285Y-111178571D01*
X192857142Y-111250000D01*
X192928571Y-111321428D01*
X193000000Y-111464285D01*
X193000000Y-111607142D01*
X192928571Y-111750000D01*
X192857142Y-111821428D01*
X192714285Y-111892857D01*
X192214285Y-111892857D01*
X194000000Y-111178571D02*
X194285714Y-111178571D01*
X194428571Y-111250000D01*
X194571428Y-111392857D01*
X194642857Y-111678571D01*
X194642857Y-112178571D01*
X194571428Y-112464285D01*
X194428571Y-112607142D01*
X194285714Y-112678571D01*
X194000000Y-112678571D01*
X193857142Y-112607142D01*
X193714285Y-112464285D01*
X193642857Y-112178571D01*
X193642857Y-111678571D01*
X193714285Y-111392857D01*
X193857142Y-111250000D01*
X194000000Y-111178571D01*
X195571428Y-111178571D02*
X195857142Y-111178571D01*
X196000000Y-111250000D01*
X196142857Y-111392857D01*
X196214285Y-111678571D01*
X196214285Y-112178571D01*
X196142857Y-112464285D01*
X196000000Y-112607142D01*
X195857142Y-112678571D01*
X195571428Y-112678571D01*
X195428571Y-112607142D01*
X195285714Y-112464285D01*
X195214285Y-112178571D01*
X195214285Y-111678571D01*
X195285714Y-111392857D01*
X195428571Y-111250000D01*
X195571428Y-111178571D01*
X196642857Y-111178571D02*
X197500000Y-111178571D01*
X197071428Y-112678571D02*
X197071428Y-111178571D01*
X192071428Y-107928571D02*
X191571428Y-107214285D01*
X191214285Y-107928571D02*
X191214285Y-106428571D01*
X191785714Y-106428571D01*
X191928571Y-106500000D01*
X192000000Y-106571428D01*
X192071428Y-106714285D01*
X192071428Y-106928571D01*
X192000000Y-107071428D01*
X191928571Y-107142857D01*
X191785714Y-107214285D01*
X191214285Y-107214285D01*
X192714285Y-107142857D02*
X193214285Y-107142857D01*
X193428571Y-107928571D02*
X192714285Y-107928571D01*
X192714285Y-106428571D01*
X193428571Y-106428571D01*
X194000000Y-107857142D02*
X194214285Y-107928571D01*
X194571428Y-107928571D01*
X194714285Y-107857142D01*
X194785714Y-107785714D01*
X194857142Y-107642857D01*
X194857142Y-107500000D01*
X194785714Y-107357142D01*
X194714285Y-107285714D01*
X194571428Y-107214285D01*
X194285714Y-107142857D01*
X194142857Y-107071428D01*
X194071428Y-107000000D01*
X194000000Y-106857142D01*
X194000000Y-106714285D01*
X194071428Y-106571428D01*
X194142857Y-106500000D01*
X194285714Y-106428571D01*
X194642857Y-106428571D01*
X194857142Y-106500000D01*
X195500000Y-107142857D02*
X196000000Y-107142857D01*
X196214285Y-107928571D02*
X195500000Y-107928571D01*
X195500000Y-106428571D01*
X196214285Y-106428571D01*
X196642857Y-106428571D02*
X197500000Y-106428571D01*
X197071428Y-107928571D02*
X197071428Y-106428571D01*
X207285714Y-107678571D02*
X207285714Y-106178571D01*
X207642857Y-106178571D01*
X207857142Y-106250000D01*
X208000000Y-106392857D01*
X208071428Y-106535714D01*
X208142857Y-106821428D01*
X208142857Y-107035714D01*
X208071428Y-107321428D01*
X208000000Y-107464285D01*
X207857142Y-107607142D01*
X207642857Y-107678571D01*
X207285714Y-107678571D01*
X208571428Y-106178571D02*
X209428571Y-106178571D01*
X209000000Y-107678571D02*
X209000000Y-106178571D01*
X210785714Y-107678571D02*
X210285714Y-106964285D01*
X209928571Y-107678571D02*
X209928571Y-106178571D01*
X210500000Y-106178571D01*
X210642857Y-106250000D01*
X210714285Y-106321428D01*
X210785714Y-106464285D01*
X210785714Y-106678571D01*
X210714285Y-106821428D01*
X210642857Y-106892857D01*
X210500000Y-106964285D01*
X209928571Y-106964285D01*
X208357142Y-108678571D02*
X209214285Y-108678571D01*
X208785714Y-110178571D02*
X208785714Y-108678571D01*
X209571428Y-108678571D02*
X210571428Y-110178571D01*
X210571428Y-108678571D02*
X209571428Y-110178571D01*
X208107142Y-111500000D02*
X207964285Y-111428571D01*
X207750000Y-111428571D01*
X207535714Y-111500000D01*
X207392857Y-111642857D01*
X207321428Y-111785714D01*
X207250000Y-112071428D01*
X207250000Y-112285714D01*
X207321428Y-112571428D01*
X207392857Y-112714285D01*
X207535714Y-112857142D01*
X207750000Y-112928571D01*
X207892857Y-112928571D01*
X208107142Y-112857142D01*
X208178571Y-112785714D01*
X208178571Y-112285714D01*
X207892857Y-112285714D01*
X208821428Y-112928571D02*
X208821428Y-111428571D01*
X209678571Y-112928571D01*
X209678571Y-111428571D01*
X210392857Y-112928571D02*
X210392857Y-111428571D01*
X210750000Y-111428571D01*
X210964285Y-111500000D01*
X211107142Y-111642857D01*
X211178571Y-111785714D01*
X211250000Y-112071428D01*
X211250000Y-112285714D01*
X211178571Y-112571428D01*
X211107142Y-112714285D01*
X210964285Y-112857142D01*
X210750000Y-112928571D01*
X210392857Y-112928571D01*
X216142857Y-111178571D02*
X217071428Y-111178571D01*
X216571428Y-111750000D01*
X216785714Y-111750000D01*
X216928571Y-111821428D01*
X217000000Y-111892857D01*
X217071428Y-112035714D01*
X217071428Y-112392857D01*
X217000000Y-112535714D01*
X216928571Y-112607142D01*
X216785714Y-112678571D01*
X216357142Y-112678571D01*
X216214285Y-112607142D01*
X216142857Y-112535714D01*
X217500000Y-111178571D02*
X218000000Y-112678571D01*
X218500000Y-111178571D01*
X218857142Y-111178571D02*
X219785714Y-111178571D01*
X219285714Y-111750000D01*
X219500000Y-111750000D01*
X219642857Y-111821428D01*
X219714285Y-111892857D01*
X219785714Y-112035714D01*
X219785714Y-112392857D01*
X219714285Y-112535714D01*
X219642857Y-112607142D01*
X219500000Y-112678571D01*
X219071428Y-112678571D01*
X218928571Y-112607142D01*
X218857142Y-112535714D01*
X217250000Y-110178571D02*
X216750000Y-109464285D01*
X216392857Y-110178571D02*
X216392857Y-108678571D01*
X216964285Y-108678571D01*
X217107142Y-108750000D01*
X217178571Y-108821428D01*
X217250000Y-108964285D01*
X217250000Y-109178571D01*
X217178571Y-109321428D01*
X217107142Y-109392857D01*
X216964285Y-109464285D01*
X216392857Y-109464285D01*
X217750000Y-108678571D02*
X218750000Y-110178571D01*
X218750000Y-108678571D02*
X217750000Y-110178571D01*
X217178571Y-107678571D02*
X216678571Y-106964285D01*
X216321428Y-107678571D02*
X216321428Y-106178571D01*
X216892857Y-106178571D01*
X217035714Y-106250000D01*
X217107142Y-106321428D01*
X217178571Y-106464285D01*
X217178571Y-106678571D01*
X217107142Y-106821428D01*
X217035714Y-106892857D01*
X216892857Y-106964285D01*
X216321428Y-106964285D01*
X217750000Y-107607142D02*
X217964285Y-107678571D01*
X218321428Y-107678571D01*
X218464285Y-107607142D01*
X218535714Y-107535714D01*
X218607142Y-107392857D01*
X218607142Y-107250000D01*
X218535714Y-107107142D01*
X218464285Y-107035714D01*
X218321428Y-106964285D01*
X218035714Y-106892857D01*
X217892857Y-106821428D01*
X217821428Y-106750000D01*
X217750000Y-106607142D01*
X217750000Y-106464285D01*
X217821428Y-106321428D01*
X217892857Y-106250000D01*
X218035714Y-106178571D01*
X218392857Y-106178571D01*
X218607142Y-106250000D01*
X219035714Y-106178571D02*
X219892857Y-106178571D01*
X219464285Y-107678571D02*
X219464285Y-106178571D01*
D11*
X201738748Y-104210000D02*
X202261252Y-104210000D01*
X201738748Y-102790000D02*
X202261252Y-102790000D01*
X201738748Y-114790000D02*
X202261252Y-114790000D01*
X201738748Y-116210000D02*
X202261252Y-116210000D01*
X135040000Y-216011252D02*
X135040000Y-215488748D01*
X136460000Y-216011252D02*
X136460000Y-215488748D01*
X131040000Y-198988748D02*
X131040000Y-199511252D01*
X132460000Y-198988748D02*
X132460000Y-199511252D01*
X54790000Y-137236252D02*
X54790000Y-136713748D01*
X56210000Y-137236252D02*
X56210000Y-136713748D01*
X70210000Y-133286252D02*
X70210000Y-132763748D01*
X68790000Y-133286252D02*
X68790000Y-132763748D01*
X108350000Y-88400000D02*
X108350000Y-83000000D01*
X111650000Y-88400000D02*
X111650000Y-83000000D01*
X108350000Y-88400000D02*
X111650000Y-88400000D01*
X108350000Y-138400000D02*
X111650000Y-138400000D01*
X111650000Y-138400000D02*
X111650000Y-133000000D01*
X108350000Y-138400000D02*
X108350000Y-133000000D01*
X108350000Y-188400000D02*
X111650000Y-188400000D01*
X111650000Y-188400000D02*
X111650000Y-183000000D01*
X108350000Y-188400000D02*
X108350000Y-183000000D01*
X158350000Y-88400000D02*
X161650000Y-88400000D01*
X161650000Y-88400000D02*
X161650000Y-83000000D01*
X158350000Y-88400000D02*
X158350000Y-83000000D01*
X158350000Y-138400000D02*
X158350000Y-133000000D01*
X161650000Y-138400000D02*
X161650000Y-133000000D01*
X158350000Y-138400000D02*
X161650000Y-138400000D01*
X158600000Y-188400000D02*
X158600000Y-183000000D01*
X161900000Y-188400000D02*
X161900000Y-183000000D01*
X158600000Y-188400000D02*
X161900000Y-188400000D01*
X208350000Y-88400000D02*
X208350000Y-83000000D01*
X211650000Y-88400000D02*
X211650000Y-83000000D01*
X208350000Y-88400000D02*
X211650000Y-88400000D01*
X208350000Y-138400000D02*
X211650000Y-138400000D01*
X211650000Y-138400000D02*
X211650000Y-133000000D01*
X208350000Y-138400000D02*
X208350000Y-133000000D01*
X208600000Y-188400000D02*
X211900000Y-188400000D01*
X211900000Y-188400000D02*
X211900000Y-183000000D01*
X208600000Y-188400000D02*
X208600000Y-183000000D01*
X200110000Y-164910000D02*
X200110000Y-161750000D01*
X200110000Y-158250000D02*
X200110000Y-155090000D01*
X177390000Y-158250000D02*
X177390000Y-155090000D01*
X177390000Y-155090000D02*
X200110000Y-155090000D01*
X177390000Y-164910000D02*
X200110000Y-164910000D01*
X177390000Y-164910000D02*
X177390000Y-161750000D01*
X210300000Y-155400000D02*
X219300000Y-155400000D01*
X219300000Y-155400000D02*
X219300000Y-164600000D01*
X219300000Y-164600000D02*
X204700000Y-164600000D01*
X204700000Y-164600000D02*
X204700000Y-161800000D01*
X204700000Y-158200000D02*
X204700000Y-155400000D01*
X204700000Y-155400000D02*
X206700000Y-155400000D01*
X206200000Y-164840000D02*
X204460000Y-164840000D01*
X204460000Y-164840000D02*
X204460000Y-163100000D01*
X216330000Y-105590000D02*
X211130000Y-105590000D01*
X216330000Y-110730000D02*
X216330000Y-105590000D01*
X211130000Y-113330000D02*
X211130000Y-105590000D01*
X216330000Y-110730000D02*
X213730000Y-110730000D01*
X213730000Y-110730000D02*
X213730000Y-113330000D01*
X213730000Y-113330000D02*
X211130000Y-113330000D01*
X216330000Y-112000000D02*
X216330000Y-113330000D01*
X216330000Y-113330000D02*
X215000000Y-113330000D01*
X205100000Y-105150000D02*
X198900000Y-105150000D01*
X198900000Y-108850000D02*
X205100000Y-108850000D01*
X205100000Y-108850000D02*
X205100000Y-108200000D01*
X205100000Y-105800000D02*
X205100000Y-105150000D01*
X198900000Y-105150000D02*
X198900000Y-105800000D01*
X198900000Y-108850000D02*
X198900000Y-108200000D01*
X198900000Y-113850000D02*
X198900000Y-113200000D01*
X198900000Y-110150000D02*
X198900000Y-110800000D01*
X205100000Y-110800000D02*
X205100000Y-110150000D01*
X205100000Y-113850000D02*
X205100000Y-113200000D01*
X198900000Y-113850000D02*
X205100000Y-113850000D01*
X205100000Y-110150000D02*
X198900000Y-110150000D01*
X144060000Y-207500000D02*
X144060000Y-203640000D01*
X144060000Y-203640000D02*
X143815000Y-203640000D01*
X144060000Y-207500000D02*
X144060000Y-211360000D01*
X144060000Y-211360000D02*
X143815000Y-211360000D01*
X125940000Y-207500000D02*
X125940000Y-203640000D01*
X125940000Y-203640000D02*
X126185000Y-203640000D01*
X125940000Y-207500000D02*
X125940000Y-211360000D01*
X125940000Y-211360000D02*
X126185000Y-211360000D01*
X126185000Y-211360000D02*
X126185000Y-213175000D01*
X95000000Y-85000000D02*
G75*
G03X95000000Y-85000000I-10000000J0D01*
G01*
X95000000Y-135000000D02*
G75*
G03X95000000Y-135000000I-10000000J0D01*
G01*
X95000000Y-185000000D02*
G75*
G03X95000000Y-185000000I-10000000J0D01*
G01*
X145000000Y-85000000D02*
G75*
G03X145000000Y-85000000I-10000000J0D01*
G01*
X145000000Y-135000000D02*
G75*
G03X145000000Y-135000000I-10000000J0D01*
G01*
X145000000Y-185000000D02*
G75*
G03X145000000Y-185000000I-10000000J0D01*
G01*
X195000000Y-85000000D02*
G75*
G03X195000000Y-85000000I-10000000J0D01*
G01*
X195000000Y-135000000D02*
G75*
G03X195000000Y-135000000I-10000000J0D01*
G01*
X195000000Y-185000000D02*
G75*
G03X195000000Y-185000000I-10000000J0D01*
G01*
X58640000Y-126185000D02*
X56825000Y-126185000D01*
X58640000Y-125940000D02*
X58640000Y-126185000D01*
X62500000Y-125940000D02*
X58640000Y-125940000D01*
X66360000Y-125940000D02*
X66360000Y-126185000D01*
X62500000Y-125940000D02*
X66360000Y-125940000D01*
X58640000Y-144060000D02*
X58640000Y-143815000D01*
X62500000Y-144060000D02*
X58640000Y-144060000D01*
X66360000Y-144060000D02*
X66360000Y-143815000D01*
X62500000Y-144060000D02*
X66360000Y-144060000D01*
D12*
X201357142Y-102207142D02*
X201309523Y-102254761D01*
X201166666Y-102302380D01*
X201071428Y-102302380D01*
X200928571Y-102254761D01*
X200833333Y-102159523D01*
X200785714Y-102064285D01*
X200738095Y-101873809D01*
X200738095Y-101730952D01*
X200785714Y-101540476D01*
X200833333Y-101445238D01*
X200928571Y-101350000D01*
X201071428Y-101302380D01*
X201166666Y-101302380D01*
X201309523Y-101350000D01*
X201357142Y-101397619D01*
X202309523Y-102302380D02*
X201738095Y-102302380D01*
X202023809Y-102302380D02*
X202023809Y-101302380D01*
X201928571Y-101445238D01*
X201833333Y-101540476D01*
X201738095Y-101588095D01*
X202928571Y-101302380D02*
X203023809Y-101302380D01*
X203119047Y-101350000D01*
X203166666Y-101397619D01*
X203214285Y-101492857D01*
X203261904Y-101683333D01*
X203261904Y-101921428D01*
X203214285Y-102111904D01*
X203166666Y-102207142D01*
X203119047Y-102254761D01*
X203023809Y-102302380D01*
X202928571Y-102302380D01*
X202833333Y-102254761D01*
X202785714Y-102207142D01*
X202738095Y-102111904D01*
X202690476Y-101921428D01*
X202690476Y-101683333D01*
X202738095Y-101492857D01*
X202785714Y-101397619D01*
X202833333Y-101350000D01*
X202928571Y-101302380D01*
X201357142Y-117607142D02*
X201309523Y-117654761D01*
X201166666Y-117702380D01*
X201071428Y-117702380D01*
X200928571Y-117654761D01*
X200833333Y-117559523D01*
X200785714Y-117464285D01*
X200738095Y-117273809D01*
X200738095Y-117130952D01*
X200785714Y-116940476D01*
X200833333Y-116845238D01*
X200928571Y-116750000D01*
X201071428Y-116702380D01*
X201166666Y-116702380D01*
X201309523Y-116750000D01*
X201357142Y-116797619D01*
X202309523Y-117702380D02*
X201738095Y-117702380D01*
X202023809Y-117702380D02*
X202023809Y-116702380D01*
X201928571Y-116845238D01*
X201833333Y-116940476D01*
X201738095Y-116988095D01*
X203261904Y-117702380D02*
X202690476Y-117702380D01*
X202976190Y-117702380D02*
X202976190Y-116702380D01*
X202880952Y-116845238D01*
X202785714Y-116940476D01*
X202690476Y-116988095D01*
X137857142Y-216392857D02*
X137904761Y-216440476D01*
X137952380Y-216583333D01*
X137952380Y-216678571D01*
X137904761Y-216821428D01*
X137809523Y-216916666D01*
X137714285Y-216964285D01*
X137523809Y-217011904D01*
X137380952Y-217011904D01*
X137190476Y-216964285D01*
X137095238Y-216916666D01*
X137000000Y-216821428D01*
X136952380Y-216678571D01*
X136952380Y-216583333D01*
X137000000Y-216440476D01*
X137047619Y-216392857D01*
X137952380Y-215440476D02*
X137952380Y-216011904D01*
X137952380Y-215726190D02*
X136952380Y-215726190D01*
X137095238Y-215821428D01*
X137190476Y-215916666D01*
X137238095Y-216011904D01*
X137047619Y-215059523D02*
X137000000Y-215011904D01*
X136952380Y-214916666D01*
X136952380Y-214678571D01*
X137000000Y-214583333D01*
X137047619Y-214535714D01*
X137142857Y-214488095D01*
X137238095Y-214488095D01*
X137380952Y-214535714D01*
X137952380Y-215107142D01*
X137952380Y-214488095D01*
X130357142Y-199892857D02*
X130404761Y-199940476D01*
X130452380Y-200083333D01*
X130452380Y-200178571D01*
X130404761Y-200321428D01*
X130309523Y-200416666D01*
X130214285Y-200464285D01*
X130023809Y-200511904D01*
X129880952Y-200511904D01*
X129690476Y-200464285D01*
X129595238Y-200416666D01*
X129500000Y-200321428D01*
X129452380Y-200178571D01*
X129452380Y-200083333D01*
X129500000Y-199940476D01*
X129547619Y-199892857D01*
X130452380Y-198940476D02*
X130452380Y-199511904D01*
X130452380Y-199226190D02*
X129452380Y-199226190D01*
X129595238Y-199321428D01*
X129690476Y-199416666D01*
X129738095Y-199511904D01*
X129452380Y-198607142D02*
X129452380Y-197988095D01*
X129833333Y-198321428D01*
X129833333Y-198178571D01*
X129880952Y-198083333D01*
X129928571Y-198035714D01*
X130023809Y-197988095D01*
X130261904Y-197988095D01*
X130357142Y-198035714D01*
X130404761Y-198083333D01*
X130452380Y-198178571D01*
X130452380Y-198464285D01*
X130404761Y-198559523D01*
X130357142Y-198607142D01*
X55857142Y-141142857D02*
X55904761Y-141190476D01*
X55952380Y-141333333D01*
X55952380Y-141428571D01*
X55904761Y-141571428D01*
X55809523Y-141666666D01*
X55714285Y-141714285D01*
X55523809Y-141761904D01*
X55380952Y-141761904D01*
X55190476Y-141714285D01*
X55095238Y-141666666D01*
X55000000Y-141571428D01*
X54952380Y-141428571D01*
X54952380Y-141333333D01*
X55000000Y-141190476D01*
X55047619Y-141142857D01*
X55952380Y-140190476D02*
X55952380Y-140761904D01*
X55952380Y-140476190D02*
X54952380Y-140476190D01*
X55095238Y-140571428D01*
X55190476Y-140666666D01*
X55238095Y-140761904D01*
X55285714Y-139333333D02*
X55952380Y-139333333D01*
X54904761Y-139571428D02*
X55619047Y-139809523D01*
X55619047Y-139190476D01*
X69857142Y-137142857D02*
X69904761Y-137190476D01*
X69952380Y-137333333D01*
X69952380Y-137428571D01*
X69904761Y-137571428D01*
X69809523Y-137666666D01*
X69714285Y-137714285D01*
X69523809Y-137761904D01*
X69380952Y-137761904D01*
X69190476Y-137714285D01*
X69095238Y-137666666D01*
X69000000Y-137571428D01*
X68952380Y-137428571D01*
X68952380Y-137333333D01*
X69000000Y-137190476D01*
X69047619Y-137142857D01*
X69952380Y-136190476D02*
X69952380Y-136761904D01*
X69952380Y-136476190D02*
X68952380Y-136476190D01*
X69095238Y-136571428D01*
X69190476Y-136666666D01*
X69238095Y-136761904D01*
X68952380Y-135285714D02*
X68952380Y-135761904D01*
X69428571Y-135809523D01*
X69380952Y-135761904D01*
X69333333Y-135666666D01*
X69333333Y-135428571D01*
X69380952Y-135333333D01*
X69428571Y-135285714D01*
X69523809Y-135238095D01*
X69761904Y-135238095D01*
X69857142Y-135285714D01*
X69904761Y-135333333D01*
X69952380Y-135428571D01*
X69952380Y-135666666D01*
X69904761Y-135761904D01*
X69857142Y-135809523D01*
X112952380Y-85738095D02*
X111952380Y-85738095D01*
X111952380Y-85500000D01*
X112000000Y-85357142D01*
X112095238Y-85261904D01*
X112190476Y-85214285D01*
X112380952Y-85166666D01*
X112523809Y-85166666D01*
X112714285Y-85214285D01*
X112809523Y-85261904D01*
X112904761Y-85357142D01*
X112952380Y-85500000D01*
X112952380Y-85738095D01*
X112952380Y-84690476D02*
X112952380Y-84500000D01*
X112904761Y-84404761D01*
X112857142Y-84357142D01*
X112714285Y-84261904D01*
X112523809Y-84214285D01*
X112142857Y-84214285D01*
X112047619Y-84261904D01*
X112000000Y-84309523D01*
X111952380Y-84404761D01*
X111952380Y-84595238D01*
X112000000Y-84690476D01*
X112047619Y-84738095D01*
X112142857Y-84785714D01*
X112380952Y-84785714D01*
X112476190Y-84738095D01*
X112523809Y-84690476D01*
X112571428Y-84595238D01*
X112571428Y-84404761D01*
X112523809Y-84309523D01*
X112476190Y-84261904D01*
X112380952Y-84214285D01*
X112952380Y-136214285D02*
X111952380Y-136214285D01*
X111952380Y-135976190D01*
X112000000Y-135833333D01*
X112095238Y-135738095D01*
X112190476Y-135690476D01*
X112380952Y-135642857D01*
X112523809Y-135642857D01*
X112714285Y-135690476D01*
X112809523Y-135738095D01*
X112904761Y-135833333D01*
X112952380Y-135976190D01*
X112952380Y-136214285D01*
X112952380Y-134690476D02*
X112952380Y-135261904D01*
X112952380Y-134976190D02*
X111952380Y-134976190D01*
X112095238Y-135071428D01*
X112190476Y-135166666D01*
X112238095Y-135261904D01*
X111952380Y-134071428D02*
X111952380Y-133976190D01*
X112000000Y-133880952D01*
X112047619Y-133833333D01*
X112142857Y-133785714D01*
X112333333Y-133738095D01*
X112571428Y-133738095D01*
X112761904Y-133785714D01*
X112857142Y-133833333D01*
X112904761Y-133880952D01*
X112952380Y-133976190D01*
X112952380Y-134071428D01*
X112904761Y-134166666D01*
X112857142Y-134214285D01*
X112761904Y-134261904D01*
X112571428Y-134309523D01*
X112333333Y-134309523D01*
X112142857Y-134261904D01*
X112047619Y-134214285D01*
X112000000Y-134166666D01*
X111952380Y-134071428D01*
X112952380Y-186214285D02*
X111952380Y-186214285D01*
X111952380Y-185976190D01*
X112000000Y-185833333D01*
X112095238Y-185738095D01*
X112190476Y-185690476D01*
X112380952Y-185642857D01*
X112523809Y-185642857D01*
X112714285Y-185690476D01*
X112809523Y-185738095D01*
X112904761Y-185833333D01*
X112952380Y-185976190D01*
X112952380Y-186214285D01*
X112952380Y-184690476D02*
X112952380Y-185261904D01*
X112952380Y-184976190D02*
X111952380Y-184976190D01*
X112095238Y-185071428D01*
X112190476Y-185166666D01*
X112238095Y-185261904D01*
X112952380Y-183738095D02*
X112952380Y-184309523D01*
X112952380Y-184023809D02*
X111952380Y-184023809D01*
X112095238Y-184119047D01*
X112190476Y-184214285D01*
X112238095Y-184309523D01*
X162952380Y-86214285D02*
X161952380Y-86214285D01*
X161952380Y-85976190D01*
X162000000Y-85833333D01*
X162095238Y-85738095D01*
X162190476Y-85690476D01*
X162380952Y-85642857D01*
X162523809Y-85642857D01*
X162714285Y-85690476D01*
X162809523Y-85738095D01*
X162904761Y-85833333D01*
X162952380Y-85976190D01*
X162952380Y-86214285D01*
X162952380Y-84690476D02*
X162952380Y-85261904D01*
X162952380Y-84976190D02*
X161952380Y-84976190D01*
X162095238Y-85071428D01*
X162190476Y-85166666D01*
X162238095Y-85261904D01*
X162047619Y-84309523D02*
X162000000Y-84261904D01*
X161952380Y-84166666D01*
X161952380Y-83928571D01*
X162000000Y-83833333D01*
X162047619Y-83785714D01*
X162142857Y-83738095D01*
X162238095Y-83738095D01*
X162380952Y-83785714D01*
X162952380Y-84357142D01*
X162952380Y-83738095D01*
X162952380Y-136214285D02*
X161952380Y-136214285D01*
X161952380Y-135976190D01*
X162000000Y-135833333D01*
X162095238Y-135738095D01*
X162190476Y-135690476D01*
X162380952Y-135642857D01*
X162523809Y-135642857D01*
X162714285Y-135690476D01*
X162809523Y-135738095D01*
X162904761Y-135833333D01*
X162952380Y-135976190D01*
X162952380Y-136214285D01*
X162952380Y-134690476D02*
X162952380Y-135261904D01*
X162952380Y-134976190D02*
X161952380Y-134976190D01*
X162095238Y-135071428D01*
X162190476Y-135166666D01*
X162238095Y-135261904D01*
X161952380Y-134357142D02*
X161952380Y-133738095D01*
X162333333Y-134071428D01*
X162333333Y-133928571D01*
X162380952Y-133833333D01*
X162428571Y-133785714D01*
X162523809Y-133738095D01*
X162761904Y-133738095D01*
X162857142Y-133785714D01*
X162904761Y-133833333D01*
X162952380Y-133928571D01*
X162952380Y-134214285D01*
X162904761Y-134309523D01*
X162857142Y-134357142D01*
X163452380Y-186214285D02*
X162452380Y-186214285D01*
X162452380Y-185976190D01*
X162500000Y-185833333D01*
X162595238Y-185738095D01*
X162690476Y-185690476D01*
X162880952Y-185642857D01*
X163023809Y-185642857D01*
X163214285Y-185690476D01*
X163309523Y-185738095D01*
X163404761Y-185833333D01*
X163452380Y-185976190D01*
X163452380Y-186214285D01*
X163452380Y-184690476D02*
X163452380Y-185261904D01*
X163452380Y-184976190D02*
X162452380Y-184976190D01*
X162595238Y-185071428D01*
X162690476Y-185166666D01*
X162738095Y-185261904D01*
X162785714Y-183833333D02*
X163452380Y-183833333D01*
X162404761Y-184071428D02*
X163119047Y-184309523D01*
X163119047Y-183690476D01*
X212952380Y-86214285D02*
X211952380Y-86214285D01*
X211952380Y-85976190D01*
X212000000Y-85833333D01*
X212095238Y-85738095D01*
X212190476Y-85690476D01*
X212380952Y-85642857D01*
X212523809Y-85642857D01*
X212714285Y-85690476D01*
X212809523Y-85738095D01*
X212904761Y-85833333D01*
X212952380Y-85976190D01*
X212952380Y-86214285D01*
X212952380Y-84690476D02*
X212952380Y-85261904D01*
X212952380Y-84976190D02*
X211952380Y-84976190D01*
X212095238Y-85071428D01*
X212190476Y-85166666D01*
X212238095Y-85261904D01*
X211952380Y-83785714D02*
X211952380Y-84261904D01*
X212428571Y-84309523D01*
X212380952Y-84261904D01*
X212333333Y-84166666D01*
X212333333Y-83928571D01*
X212380952Y-83833333D01*
X212428571Y-83785714D01*
X212523809Y-83738095D01*
X212761904Y-83738095D01*
X212857142Y-83785714D01*
X212904761Y-83833333D01*
X212952380Y-83928571D01*
X212952380Y-84166666D01*
X212904761Y-84261904D01*
X212857142Y-84309523D01*
X212952380Y-136214285D02*
X211952380Y-136214285D01*
X211952380Y-135976190D01*
X212000000Y-135833333D01*
X212095238Y-135738095D01*
X212190476Y-135690476D01*
X212380952Y-135642857D01*
X212523809Y-135642857D01*
X212714285Y-135690476D01*
X212809523Y-135738095D01*
X212904761Y-135833333D01*
X212952380Y-135976190D01*
X212952380Y-136214285D01*
X212952380Y-134690476D02*
X212952380Y-135261904D01*
X212952380Y-134976190D02*
X211952380Y-134976190D01*
X212095238Y-135071428D01*
X212190476Y-135166666D01*
X212238095Y-135261904D01*
X211952380Y-133833333D02*
X211952380Y-134023809D01*
X212000000Y-134119047D01*
X212047619Y-134166666D01*
X212190476Y-134261904D01*
X212380952Y-134309523D01*
X212761904Y-134309523D01*
X212857142Y-134261904D01*
X212904761Y-134214285D01*
X212952380Y-134119047D01*
X212952380Y-133928571D01*
X212904761Y-133833333D01*
X212857142Y-133785714D01*
X212761904Y-133738095D01*
X212523809Y-133738095D01*
X212428571Y-133785714D01*
X212380952Y-133833333D01*
X212333333Y-133928571D01*
X212333333Y-134119047D01*
X212380952Y-134214285D01*
X212428571Y-134261904D01*
X212523809Y-134309523D01*
X213452380Y-186214285D02*
X212452380Y-186214285D01*
X212452380Y-185976190D01*
X212500000Y-185833333D01*
X212595238Y-185738095D01*
X212690476Y-185690476D01*
X212880952Y-185642857D01*
X213023809Y-185642857D01*
X213214285Y-185690476D01*
X213309523Y-185738095D01*
X213404761Y-185833333D01*
X213452380Y-185976190D01*
X213452380Y-186214285D01*
X213452380Y-184690476D02*
X213452380Y-185261904D01*
X213452380Y-184976190D02*
X212452380Y-184976190D01*
X212595238Y-185071428D01*
X212690476Y-185166666D01*
X212738095Y-185261904D01*
X212452380Y-184357142D02*
X212452380Y-183690476D01*
X213452380Y-184119047D01*
X188416666Y-153928571D02*
X188083333Y-153928571D01*
X188083333Y-154452380D02*
X188083333Y-153452380D01*
X188559523Y-153452380D01*
X189464285Y-154452380D02*
X188892857Y-154452380D01*
X189178571Y-154452380D02*
X189178571Y-153452380D01*
X189083333Y-153595238D01*
X188988095Y-153690476D01*
X188892857Y-153738095D01*
X59238095Y-56602380D02*
X59238095Y-55602380D01*
X59238095Y-56078571D02*
X59809523Y-56078571D01*
X59809523Y-56602380D02*
X59809523Y-55602380D01*
X60809523Y-56602380D02*
X60238095Y-56602380D01*
X60523809Y-56602380D02*
X60523809Y-55602380D01*
X60428571Y-55745238D01*
X60333333Y-55840476D01*
X60238095Y-55888095D01*
X209238095Y-56602380D02*
X209238095Y-55602380D01*
X209238095Y-56078571D02*
X209809523Y-56078571D01*
X209809523Y-56602380D02*
X209809523Y-55602380D01*
X210238095Y-55697619D02*
X210285714Y-55650000D01*
X210380952Y-55602380D01*
X210619047Y-55602380D01*
X210714285Y-55650000D01*
X210761904Y-55697619D01*
X210809523Y-55792857D01*
X210809523Y-55888095D01*
X210761904Y-56030952D01*
X210190476Y-56602380D01*
X210809523Y-56602380D01*
X59238095Y-206602380D02*
X59238095Y-205602380D01*
X59238095Y-206078571D02*
X59809523Y-206078571D01*
X59809523Y-206602380D02*
X59809523Y-205602380D01*
X60190476Y-205602380D02*
X60809523Y-205602380D01*
X60476190Y-205983333D01*
X60619047Y-205983333D01*
X60714285Y-206030952D01*
X60761904Y-206078571D01*
X60809523Y-206173809D01*
X60809523Y-206411904D01*
X60761904Y-206507142D01*
X60714285Y-206554761D01*
X60619047Y-206602380D01*
X60333333Y-206602380D01*
X60238095Y-206554761D01*
X60190476Y-206507142D01*
X209238095Y-206602380D02*
X209238095Y-205602380D01*
X209238095Y-206078571D02*
X209809523Y-206078571D01*
X209809523Y-206602380D02*
X209809523Y-205602380D01*
X210714285Y-205935714D02*
X210714285Y-206602380D01*
X210476190Y-205554761D02*
X210238095Y-206269047D01*
X210857142Y-206269047D01*
X213616666Y-153702380D02*
X213616666Y-154416666D01*
X213569047Y-154559523D01*
X213473809Y-154654761D01*
X213330952Y-154702380D01*
X213235714Y-154702380D01*
X214616666Y-154702380D02*
X214045238Y-154702380D01*
X214330952Y-154702380D02*
X214330952Y-153702380D01*
X214235714Y-153845238D01*
X214140476Y-153940476D01*
X214045238Y-153988095D01*
X213396666Y-113782380D02*
X213396666Y-114496666D01*
X213349047Y-114639523D01*
X213253809Y-114734761D01*
X213110952Y-114782380D01*
X213015714Y-114782380D01*
X213825238Y-113877619D02*
X213872857Y-113830000D01*
X213968095Y-113782380D01*
X214206190Y-113782380D01*
X214301428Y-113830000D01*
X214349047Y-113877619D01*
X214396666Y-113972857D01*
X214396666Y-114068095D01*
X214349047Y-114210952D01*
X213777619Y-114782380D01*
X214396666Y-114782380D01*
X212134761Y-104042380D02*
X212134761Y-104851904D01*
X212182380Y-104947142D01*
X212230000Y-104994761D01*
X212325238Y-105042380D01*
X212515714Y-105042380D01*
X212610952Y-104994761D01*
X212658571Y-104947142D01*
X212706190Y-104851904D01*
X212706190Y-104042380D01*
X213134761Y-104756666D02*
X213610952Y-104756666D01*
X213039523Y-105042380D02*
X213372857Y-104042380D01*
X213706190Y-105042380D01*
X214610952Y-105042380D02*
X214277619Y-104566190D01*
X214039523Y-105042380D02*
X214039523Y-104042380D01*
X214420476Y-104042380D01*
X214515714Y-104090000D01*
X214563333Y-104137619D01*
X214610952Y-104232857D01*
X214610952Y-104375714D01*
X214563333Y-104470952D01*
X214515714Y-104518571D01*
X214420476Y-104566190D01*
X214039523Y-104566190D01*
X214896666Y-104042380D02*
X215468095Y-104042380D01*
X215182380Y-105042380D02*
X215182380Y-104042380D01*
X202404761Y-108333333D02*
X202452380Y-108190476D01*
X202452380Y-107952380D01*
X202404761Y-107857142D01*
X202357142Y-107809523D01*
X202261904Y-107761904D01*
X202166666Y-107761904D01*
X202071428Y-107809523D01*
X202023809Y-107857142D01*
X201976190Y-107952380D01*
X201928571Y-108142857D01*
X201880952Y-108238095D01*
X201833333Y-108285714D01*
X201738095Y-108333333D01*
X201642857Y-108333333D01*
X201547619Y-108285714D01*
X201500000Y-108238095D01*
X201452380Y-108142857D01*
X201452380Y-107904761D01*
X201500000Y-107761904D01*
X201452380Y-107428571D02*
X202452380Y-107190476D01*
X201738095Y-107000000D01*
X202452380Y-106809523D01*
X201452380Y-106571428D01*
X202452380Y-105666666D02*
X202452380Y-106238095D01*
X202452380Y-105952380D02*
X201452380Y-105952380D01*
X201595238Y-106047619D01*
X201690476Y-106142857D01*
X201738095Y-106238095D01*
X202404761Y-113333333D02*
X202452380Y-113190476D01*
X202452380Y-112952380D01*
X202404761Y-112857142D01*
X202357142Y-112809523D01*
X202261904Y-112761904D01*
X202166666Y-112761904D01*
X202071428Y-112809523D01*
X202023809Y-112857142D01*
X201976190Y-112952380D01*
X201928571Y-113142857D01*
X201880952Y-113238095D01*
X201833333Y-113285714D01*
X201738095Y-113333333D01*
X201642857Y-113333333D01*
X201547619Y-113285714D01*
X201500000Y-113238095D01*
X201452380Y-113142857D01*
X201452380Y-112904761D01*
X201500000Y-112761904D01*
X201452380Y-112428571D02*
X202452380Y-112190476D01*
X201738095Y-112000000D01*
X202452380Y-111809523D01*
X201452380Y-111571428D01*
X201547619Y-111238095D02*
X201500000Y-111190476D01*
X201452380Y-111095238D01*
X201452380Y-110857142D01*
X201500000Y-110761904D01*
X201547619Y-110714285D01*
X201642857Y-110666666D01*
X201738095Y-110666666D01*
X201880952Y-110714285D01*
X202452380Y-111285714D01*
X202452380Y-110666666D01*
X124552380Y-208261904D02*
X125361904Y-208261904D01*
X125457142Y-208214285D01*
X125504761Y-208166666D01*
X125552380Y-208071428D01*
X125552380Y-207880952D01*
X125504761Y-207785714D01*
X125457142Y-207738095D01*
X125361904Y-207690476D01*
X124552380Y-207690476D01*
X124552380Y-207309523D02*
X124552380Y-206690476D01*
X124933333Y-207023809D01*
X124933333Y-206880952D01*
X124980952Y-206785714D01*
X125028571Y-206738095D01*
X125123809Y-206690476D01*
X125361904Y-206690476D01*
X125457142Y-206738095D01*
X125504761Y-206785714D01*
X125552380Y-206880952D01*
X125552380Y-207166666D01*
X125504761Y-207261904D01*
X125457142Y-207309523D01*
X84238095Y-80602380D02*
X84238095Y-81411904D01*
X84285714Y-81507142D01*
X84333333Y-81554761D01*
X84428571Y-81602380D01*
X84619047Y-81602380D01*
X84714285Y-81554761D01*
X84761904Y-81507142D01*
X84809523Y-81411904D01*
X84809523Y-80602380D01*
X85714285Y-80935714D02*
X85714285Y-81602380D01*
X85476190Y-80554761D02*
X85238095Y-81269047D01*
X85857142Y-81269047D01*
X84238095Y-130602380D02*
X84238095Y-131411904D01*
X84285714Y-131507142D01*
X84333333Y-131554761D01*
X84428571Y-131602380D01*
X84619047Y-131602380D01*
X84714285Y-131554761D01*
X84761904Y-131507142D01*
X84809523Y-131411904D01*
X84809523Y-130602380D01*
X85761904Y-130602380D02*
X85285714Y-130602380D01*
X85238095Y-131078571D01*
X85285714Y-131030952D01*
X85380952Y-130983333D01*
X85619047Y-130983333D01*
X85714285Y-131030952D01*
X85761904Y-131078571D01*
X85809523Y-131173809D01*
X85809523Y-131411904D01*
X85761904Y-131507142D01*
X85714285Y-131554761D01*
X85619047Y-131602380D01*
X85380952Y-131602380D01*
X85285714Y-131554761D01*
X85238095Y-131507142D01*
X84238095Y-180602380D02*
X84238095Y-181411904D01*
X84285714Y-181507142D01*
X84333333Y-181554761D01*
X84428571Y-181602380D01*
X84619047Y-181602380D01*
X84714285Y-181554761D01*
X84761904Y-181507142D01*
X84809523Y-181411904D01*
X84809523Y-180602380D01*
X85714285Y-180602380D02*
X85523809Y-180602380D01*
X85428571Y-180650000D01*
X85380952Y-180697619D01*
X85285714Y-180840476D01*
X85238095Y-181030952D01*
X85238095Y-181411904D01*
X85285714Y-181507142D01*
X85333333Y-181554761D01*
X85428571Y-181602380D01*
X85619047Y-181602380D01*
X85714285Y-181554761D01*
X85761904Y-181507142D01*
X85809523Y-181411904D01*
X85809523Y-181173809D01*
X85761904Y-181078571D01*
X85714285Y-181030952D01*
X85619047Y-180983333D01*
X85428571Y-180983333D01*
X85333333Y-181030952D01*
X85285714Y-181078571D01*
X85238095Y-181173809D01*
X134238095Y-80602380D02*
X134238095Y-81411904D01*
X134285714Y-81507142D01*
X134333333Y-81554761D01*
X134428571Y-81602380D01*
X134619047Y-81602380D01*
X134714285Y-81554761D01*
X134761904Y-81507142D01*
X134809523Y-81411904D01*
X134809523Y-80602380D01*
X135190476Y-80602380D02*
X135857142Y-80602380D01*
X135428571Y-81602380D01*
X134238095Y-130602380D02*
X134238095Y-131411904D01*
X134285714Y-131507142D01*
X134333333Y-131554761D01*
X134428571Y-131602380D01*
X134619047Y-131602380D01*
X134714285Y-131554761D01*
X134761904Y-131507142D01*
X134809523Y-131411904D01*
X134809523Y-130602380D01*
X135428571Y-131030952D02*
X135333333Y-130983333D01*
X135285714Y-130935714D01*
X135238095Y-130840476D01*
X135238095Y-130792857D01*
X135285714Y-130697619D01*
X135333333Y-130650000D01*
X135428571Y-130602380D01*
X135619047Y-130602380D01*
X135714285Y-130650000D01*
X135761904Y-130697619D01*
X135809523Y-130792857D01*
X135809523Y-130840476D01*
X135761904Y-130935714D01*
X135714285Y-130983333D01*
X135619047Y-131030952D01*
X135428571Y-131030952D01*
X135333333Y-131078571D01*
X135285714Y-131126190D01*
X135238095Y-131221428D01*
X135238095Y-131411904D01*
X135285714Y-131507142D01*
X135333333Y-131554761D01*
X135428571Y-131602380D01*
X135619047Y-131602380D01*
X135714285Y-131554761D01*
X135761904Y-131507142D01*
X135809523Y-131411904D01*
X135809523Y-131221428D01*
X135761904Y-131126190D01*
X135714285Y-131078571D01*
X135619047Y-131030952D01*
X134238095Y-180602380D02*
X134238095Y-181411904D01*
X134285714Y-181507142D01*
X134333333Y-181554761D01*
X134428571Y-181602380D01*
X134619047Y-181602380D01*
X134714285Y-181554761D01*
X134761904Y-181507142D01*
X134809523Y-181411904D01*
X134809523Y-180602380D01*
X135333333Y-181602380D02*
X135523809Y-181602380D01*
X135619047Y-181554761D01*
X135666666Y-181507142D01*
X135761904Y-181364285D01*
X135809523Y-181173809D01*
X135809523Y-180792857D01*
X135761904Y-180697619D01*
X135714285Y-180650000D01*
X135619047Y-180602380D01*
X135428571Y-180602380D01*
X135333333Y-180650000D01*
X135285714Y-180697619D01*
X135238095Y-180792857D01*
X135238095Y-181030952D01*
X135285714Y-181126190D01*
X135333333Y-181173809D01*
X135428571Y-181221428D01*
X135619047Y-181221428D01*
X135714285Y-181173809D01*
X135761904Y-181126190D01*
X135809523Y-181030952D01*
X183761904Y-80602380D02*
X183761904Y-81411904D01*
X183809523Y-81507142D01*
X183857142Y-81554761D01*
X183952380Y-81602380D01*
X184142857Y-81602380D01*
X184238095Y-81554761D01*
X184285714Y-81507142D01*
X184333333Y-81411904D01*
X184333333Y-80602380D01*
X185333333Y-81602380D02*
X184761904Y-81602380D01*
X185047619Y-81602380D02*
X185047619Y-80602380D01*
X184952380Y-80745238D01*
X184857142Y-80840476D01*
X184761904Y-80888095D01*
X185952380Y-80602380D02*
X186047619Y-80602380D01*
X186142857Y-80650000D01*
X186190476Y-80697619D01*
X186238095Y-80792857D01*
X186285714Y-80983333D01*
X186285714Y-81221428D01*
X186238095Y-81411904D01*
X186190476Y-81507142D01*
X186142857Y-81554761D01*
X186047619Y-81602380D01*
X185952380Y-81602380D01*
X185857142Y-81554761D01*
X185809523Y-81507142D01*
X185761904Y-81411904D01*
X185714285Y-81221428D01*
X185714285Y-80983333D01*
X185761904Y-80792857D01*
X185809523Y-80697619D01*
X185857142Y-80650000D01*
X185952380Y-80602380D01*
X183761904Y-130452380D02*
X183761904Y-131261904D01*
X183809523Y-131357142D01*
X183857142Y-131404761D01*
X183952380Y-131452380D01*
X184142857Y-131452380D01*
X184238095Y-131404761D01*
X184285714Y-131357142D01*
X184333333Y-131261904D01*
X184333333Y-130452380D01*
X185333333Y-131452380D02*
X184761904Y-131452380D01*
X185047619Y-131452380D02*
X185047619Y-130452380D01*
X184952380Y-130595238D01*
X184857142Y-130690476D01*
X184761904Y-130738095D01*
X186285714Y-131452380D02*
X185714285Y-131452380D01*
X186000000Y-131452380D02*
X186000000Y-130452380D01*
X185904761Y-130595238D01*
X185809523Y-130690476D01*
X185714285Y-130738095D01*
X183761904Y-180602380D02*
X183761904Y-181411904D01*
X183809523Y-181507142D01*
X183857142Y-181554761D01*
X183952380Y-181602380D01*
X184142857Y-181602380D01*
X184238095Y-181554761D01*
X184285714Y-181507142D01*
X184333333Y-181411904D01*
X184333333Y-180602380D01*
X185333333Y-181602380D02*
X184761904Y-181602380D01*
X185047619Y-181602380D02*
X185047619Y-180602380D01*
X184952380Y-180745238D01*
X184857142Y-180840476D01*
X184761904Y-180888095D01*
X185714285Y-180697619D02*
X185761904Y-180650000D01*
X185857142Y-180602380D01*
X186095238Y-180602380D01*
X186190476Y-180650000D01*
X186238095Y-180697619D01*
X186285714Y-180792857D01*
X186285714Y-180888095D01*
X186238095Y-181030952D01*
X185666666Y-181602380D01*
X186285714Y-181602380D01*
X61261904Y-124552380D02*
X61261904Y-125361904D01*
X61309523Y-125457142D01*
X61357142Y-125504761D01*
X61452380Y-125552380D01*
X61642857Y-125552380D01*
X61738095Y-125504761D01*
X61785714Y-125457142D01*
X61833333Y-125361904D01*
X61833333Y-124552380D01*
X62833333Y-125552380D02*
X62261904Y-125552380D01*
X62547619Y-125552380D02*
X62547619Y-124552380D01*
X62452380Y-124695238D01*
X62357142Y-124790476D01*
X62261904Y-124838095D01*
X63166666Y-124552380D02*
X63785714Y-124552380D01*
X63452380Y-124933333D01*
X63595238Y-124933333D01*
X63690476Y-124980952D01*
X63738095Y-125028571D01*
X63785714Y-125123809D01*
X63785714Y-125361904D01*
X63738095Y-125457142D01*
X63690476Y-125504761D01*
X63595238Y-125552380D01*
X63309523Y-125552380D01*
X63214285Y-125504761D01*
X63166666Y-125457142D01*
M02*
