G04 #@! TF.GenerationSoftware,KiCad,Pcbnew,5.1.5*
G04 #@! TF.CreationDate,2020-03-07T10:52:19+01:00*
G04 #@! TF.ProjectId,e-chessboard,652d6368-6573-4736-926f-6172642e6b69,0.2*
G04 #@! TF.SameCoordinates,Original*
G04 #@! TF.FileFunction,Legend,Bot*
G04 #@! TF.FilePolarity,Positive*
%FSLAX46Y46*%
G04 Gerber Fmt 4.6, Leading zero omitted, Abs format (unit mm)*
G04 Created by KiCad (PCBNEW 5.1.5) date 2020-03-07 10:52:19*
%MOMM*%
%LPD*%
G04 APERTURE LIST*
%ADD10C,0.120000*%
%ADD11C,0.150000*%
G04 APERTURE END LIST*
D10*
X185990000Y-160250000D02*
X185990000Y-156040000D01*
X185990000Y-156040000D02*
X189010000Y-156040000D01*
X189010000Y-156040000D02*
X189010000Y-160250000D01*
X183790000Y-158263748D02*
X183790000Y-158786252D01*
X185210000Y-158263748D02*
X185210000Y-158786252D01*
X135250000Y-96740000D02*
X139460000Y-96740000D01*
X139460000Y-96740000D02*
X139460000Y-99760000D01*
X139460000Y-99760000D02*
X135250000Y-99760000D01*
X137238748Y-100290000D02*
X137761252Y-100290000D01*
X137238748Y-101710000D02*
X137761252Y-101710000D01*
X183210000Y-158238748D02*
X183210000Y-158761252D01*
X181790000Y-158238748D02*
X181790000Y-158761252D01*
X101238748Y-114710000D02*
X101761252Y-114710000D01*
X101238748Y-113290000D02*
X101761252Y-113290000D01*
X101263748Y-105290000D02*
X101786252Y-105290000D01*
X101263748Y-106710000D02*
X101786252Y-106710000D01*
X87990000Y-110460000D02*
X87990000Y-106250000D01*
X91010000Y-110460000D02*
X87990000Y-110460000D01*
X91010000Y-106250000D02*
X91010000Y-110460000D01*
X182738748Y-113710000D02*
X183261252Y-113710000D01*
X182738748Y-112290000D02*
X183261252Y-112290000D01*
X189850000Y-155100000D02*
X193150000Y-155100000D01*
X193150000Y-155100000D02*
X193150000Y-160500000D01*
X189850000Y-155100000D02*
X189850000Y-160500000D01*
X98750000Y-105000000D02*
X98750000Y-107000000D01*
X98750000Y-107000000D02*
X94850000Y-107000000D01*
X98750000Y-105000000D02*
X94850000Y-105000000D01*
X97885000Y-107890000D02*
X97885000Y-108915000D01*
X97885000Y-107890000D02*
X96860000Y-107890000D01*
X93115000Y-107890000D02*
X94140000Y-107890000D01*
X93115000Y-107890000D02*
X93115000Y-108915000D01*
X93115000Y-112110000D02*
X93115000Y-111085000D01*
X97885000Y-112110000D02*
X97885000Y-111085000D01*
X93115000Y-112110000D02*
X94140000Y-112110000D01*
X97885000Y-112110000D02*
X96860000Y-112110000D01*
X182240000Y-111580000D02*
X182240000Y-110650000D01*
X182240000Y-108420000D02*
X182240000Y-109350000D01*
X182240000Y-108420000D02*
X184400000Y-108420000D01*
X182240000Y-111580000D02*
X183700000Y-111580000D01*
X187760000Y-108420000D02*
X186300000Y-108420000D01*
X187760000Y-111580000D02*
X185600000Y-111580000D01*
X187760000Y-111580000D02*
X187760000Y-110650000D01*
X187760000Y-108420000D02*
X187760000Y-109350000D01*
X186741422Y-106290000D02*
X187258578Y-106290000D01*
X186741422Y-107710000D02*
X187258578Y-107710000D01*
X186678922Y-113710000D02*
X187196078Y-113710000D01*
X186678922Y-112290000D02*
X187196078Y-112290000D01*
X106210000Y-113196078D02*
X106210000Y-112678922D01*
X104790000Y-113196078D02*
X104790000Y-112678922D01*
X104790000Y-109258578D02*
X104790000Y-108741422D01*
X106210000Y-109258578D02*
X106210000Y-108741422D01*
X182741422Y-107710000D02*
X183258578Y-107710000D01*
X182741422Y-106290000D02*
X183258578Y-106290000D01*
X189290000Y-110258578D02*
X189290000Y-109741422D01*
X190710000Y-110258578D02*
X190710000Y-109741422D01*
X154855000Y-102785000D02*
X155475000Y-102785000D01*
X155475000Y-102785000D02*
X155475000Y-103785000D01*
X154855000Y-121025000D02*
X155475000Y-121025000D01*
X155475000Y-121025000D02*
X155475000Y-120025000D01*
X136035000Y-102785000D02*
X136035000Y-121025000D01*
X136035000Y-121025000D02*
X136455000Y-121025000D01*
X136035000Y-102785000D02*
X136455000Y-102785000D01*
X136455000Y-102785000D02*
X136455000Y-102405000D01*
X102400000Y-111610000D02*
X100600000Y-111610000D01*
X100600000Y-108390000D02*
X103050000Y-108390000D01*
X195908578Y-124940000D02*
X195391422Y-124940000D01*
X195908578Y-126360000D02*
X195391422Y-126360000D01*
D11*
X187857142Y-162333333D02*
X187904761Y-162285714D01*
X187952380Y-162142857D01*
X187952380Y-162047619D01*
X187904761Y-161904761D01*
X187809523Y-161809523D01*
X187714285Y-161761904D01*
X187523809Y-161714285D01*
X187380952Y-161714285D01*
X187190476Y-161761904D01*
X187095238Y-161809523D01*
X187000000Y-161904761D01*
X186952380Y-162047619D01*
X186952380Y-162142857D01*
X187000000Y-162285714D01*
X187047619Y-162333333D01*
X187952380Y-163285714D02*
X187952380Y-162714285D01*
X187952380Y-163000000D02*
X186952380Y-163000000D01*
X187095238Y-162904761D01*
X187190476Y-162809523D01*
X187238095Y-162714285D01*
X184857142Y-161358333D02*
X184904761Y-161310714D01*
X184952380Y-161167857D01*
X184952380Y-161072619D01*
X184904761Y-160929761D01*
X184809523Y-160834523D01*
X184714285Y-160786904D01*
X184523809Y-160739285D01*
X184380952Y-160739285D01*
X184190476Y-160786904D01*
X184095238Y-160834523D01*
X184000000Y-160929761D01*
X183952380Y-161072619D01*
X183952380Y-161167857D01*
X184000000Y-161310714D01*
X184047619Y-161358333D01*
X184047619Y-161739285D02*
X184000000Y-161786904D01*
X183952380Y-161882142D01*
X183952380Y-162120238D01*
X184000000Y-162215476D01*
X184047619Y-162263095D01*
X184142857Y-162310714D01*
X184238095Y-162310714D01*
X184380952Y-162263095D01*
X184952380Y-161691666D01*
X184952380Y-162310714D01*
X133666666Y-98607142D02*
X133714285Y-98654761D01*
X133857142Y-98702380D01*
X133952380Y-98702380D01*
X134095238Y-98654761D01*
X134190476Y-98559523D01*
X134238095Y-98464285D01*
X134285714Y-98273809D01*
X134285714Y-98130952D01*
X134238095Y-97940476D01*
X134190476Y-97845238D01*
X134095238Y-97750000D01*
X133952380Y-97702380D01*
X133857142Y-97702380D01*
X133714285Y-97750000D01*
X133666666Y-97797619D01*
X133333333Y-97702380D02*
X132714285Y-97702380D01*
X133047619Y-98083333D01*
X132904761Y-98083333D01*
X132809523Y-98130952D01*
X132761904Y-98178571D01*
X132714285Y-98273809D01*
X132714285Y-98511904D01*
X132761904Y-98607142D01*
X132809523Y-98654761D01*
X132904761Y-98702380D01*
X133190476Y-98702380D01*
X133285714Y-98654761D01*
X133333333Y-98607142D01*
X134916666Y-101357142D02*
X134964285Y-101404761D01*
X135107142Y-101452380D01*
X135202380Y-101452380D01*
X135345238Y-101404761D01*
X135440476Y-101309523D01*
X135488095Y-101214285D01*
X135535714Y-101023809D01*
X135535714Y-100880952D01*
X135488095Y-100690476D01*
X135440476Y-100595238D01*
X135345238Y-100500000D01*
X135202380Y-100452380D01*
X135107142Y-100452380D01*
X134964285Y-100500000D01*
X134916666Y-100547619D01*
X134059523Y-100785714D02*
X134059523Y-101452380D01*
X134297619Y-100404761D02*
X134535714Y-101119047D01*
X133916666Y-101119047D01*
X182857142Y-161333333D02*
X182904761Y-161285714D01*
X182952380Y-161142857D01*
X182952380Y-161047619D01*
X182904761Y-160904761D01*
X182809523Y-160809523D01*
X182714285Y-160761904D01*
X182523809Y-160714285D01*
X182380952Y-160714285D01*
X182190476Y-160761904D01*
X182095238Y-160809523D01*
X182000000Y-160904761D01*
X181952380Y-161047619D01*
X181952380Y-161142857D01*
X182000000Y-161285714D01*
X182047619Y-161333333D01*
X181952380Y-162238095D02*
X181952380Y-161761904D01*
X182428571Y-161714285D01*
X182380952Y-161761904D01*
X182333333Y-161857142D01*
X182333333Y-162095238D01*
X182380952Y-162190476D01*
X182428571Y-162238095D01*
X182523809Y-162285714D01*
X182761904Y-162285714D01*
X182857142Y-162238095D01*
X182904761Y-162190476D01*
X182952380Y-162095238D01*
X182952380Y-161857142D01*
X182904761Y-161761904D01*
X182857142Y-161714285D01*
X101666666Y-116007142D02*
X101714285Y-116054761D01*
X101857142Y-116102380D01*
X101952380Y-116102380D01*
X102095238Y-116054761D01*
X102190476Y-115959523D01*
X102238095Y-115864285D01*
X102285714Y-115673809D01*
X102285714Y-115530952D01*
X102238095Y-115340476D01*
X102190476Y-115245238D01*
X102095238Y-115150000D01*
X101952380Y-115102380D01*
X101857142Y-115102380D01*
X101714285Y-115150000D01*
X101666666Y-115197619D01*
X100809523Y-115102380D02*
X101000000Y-115102380D01*
X101095238Y-115150000D01*
X101142857Y-115197619D01*
X101238095Y-115340476D01*
X101285714Y-115530952D01*
X101285714Y-115911904D01*
X101238095Y-116007142D01*
X101190476Y-116054761D01*
X101095238Y-116102380D01*
X100904761Y-116102380D01*
X100809523Y-116054761D01*
X100761904Y-116007142D01*
X100714285Y-115911904D01*
X100714285Y-115673809D01*
X100761904Y-115578571D01*
X100809523Y-115530952D01*
X100904761Y-115483333D01*
X101095238Y-115483333D01*
X101190476Y-115530952D01*
X101238095Y-115578571D01*
X101285714Y-115673809D01*
X101691666Y-104357142D02*
X101739285Y-104404761D01*
X101882142Y-104452380D01*
X101977380Y-104452380D01*
X102120238Y-104404761D01*
X102215476Y-104309523D01*
X102263095Y-104214285D01*
X102310714Y-104023809D01*
X102310714Y-103880952D01*
X102263095Y-103690476D01*
X102215476Y-103595238D01*
X102120238Y-103500000D01*
X101977380Y-103452380D01*
X101882142Y-103452380D01*
X101739285Y-103500000D01*
X101691666Y-103547619D01*
X101358333Y-103452380D02*
X100691666Y-103452380D01*
X101120238Y-104452380D01*
X92207142Y-107833333D02*
X92254761Y-107785714D01*
X92302380Y-107642857D01*
X92302380Y-107547619D01*
X92254761Y-107404761D01*
X92159523Y-107309523D01*
X92064285Y-107261904D01*
X91873809Y-107214285D01*
X91730952Y-107214285D01*
X91540476Y-107261904D01*
X91445238Y-107309523D01*
X91350000Y-107404761D01*
X91302380Y-107547619D01*
X91302380Y-107642857D01*
X91350000Y-107785714D01*
X91397619Y-107833333D01*
X91730952Y-108404761D02*
X91683333Y-108309523D01*
X91635714Y-108261904D01*
X91540476Y-108214285D01*
X91492857Y-108214285D01*
X91397619Y-108261904D01*
X91350000Y-108309523D01*
X91302380Y-108404761D01*
X91302380Y-108595238D01*
X91350000Y-108690476D01*
X91397619Y-108738095D01*
X91492857Y-108785714D01*
X91540476Y-108785714D01*
X91635714Y-108738095D01*
X91683333Y-108690476D01*
X91730952Y-108595238D01*
X91730952Y-108404761D01*
X91778571Y-108309523D01*
X91826190Y-108261904D01*
X91921428Y-108214285D01*
X92111904Y-108214285D01*
X92207142Y-108261904D01*
X92254761Y-108309523D01*
X92302380Y-108404761D01*
X92302380Y-108595238D01*
X92254761Y-108690476D01*
X92207142Y-108738095D01*
X92111904Y-108785714D01*
X91921428Y-108785714D01*
X91826190Y-108738095D01*
X91778571Y-108690476D01*
X91730952Y-108595238D01*
X183166666Y-114857142D02*
X183214285Y-114904761D01*
X183357142Y-114952380D01*
X183452380Y-114952380D01*
X183595238Y-114904761D01*
X183690476Y-114809523D01*
X183738095Y-114714285D01*
X183785714Y-114523809D01*
X183785714Y-114380952D01*
X183738095Y-114190476D01*
X183690476Y-114095238D01*
X183595238Y-114000000D01*
X183452380Y-113952380D01*
X183357142Y-113952380D01*
X183214285Y-114000000D01*
X183166666Y-114047619D01*
X182690476Y-114952380D02*
X182500000Y-114952380D01*
X182404761Y-114904761D01*
X182357142Y-114857142D01*
X182261904Y-114714285D01*
X182214285Y-114523809D01*
X182214285Y-114142857D01*
X182261904Y-114047619D01*
X182309523Y-114000000D01*
X182404761Y-113952380D01*
X182595238Y-113952380D01*
X182690476Y-114000000D01*
X182738095Y-114047619D01*
X182785714Y-114142857D01*
X182785714Y-114380952D01*
X182738095Y-114476190D01*
X182690476Y-114523809D01*
X182595238Y-114571428D01*
X182404761Y-114571428D01*
X182309523Y-114523809D01*
X182261904Y-114476190D01*
X182214285Y-114380952D01*
X191952380Y-162761904D02*
X190952380Y-162761904D01*
X190952380Y-163000000D01*
X191000000Y-163142857D01*
X191095238Y-163238095D01*
X191190476Y-163285714D01*
X191380952Y-163333333D01*
X191523809Y-163333333D01*
X191714285Y-163285714D01*
X191809523Y-163238095D01*
X191904761Y-163142857D01*
X191952380Y-163000000D01*
X191952380Y-162761904D01*
X191952380Y-164285714D02*
X191952380Y-163714285D01*
X191952380Y-164000000D02*
X190952380Y-164000000D01*
X191095238Y-163904761D01*
X191190476Y-163809523D01*
X191238095Y-163714285D01*
X97238095Y-104452380D02*
X97238095Y-103452380D01*
X97000000Y-103452380D01*
X96857142Y-103500000D01*
X96761904Y-103595238D01*
X96714285Y-103690476D01*
X96666666Y-103880952D01*
X96666666Y-104023809D01*
X96714285Y-104214285D01*
X96761904Y-104309523D01*
X96857142Y-104404761D01*
X97000000Y-104452380D01*
X97238095Y-104452380D01*
X96285714Y-103547619D02*
X96238095Y-103500000D01*
X96142857Y-103452380D01*
X95904761Y-103452380D01*
X95809523Y-103500000D01*
X95761904Y-103547619D01*
X95714285Y-103642857D01*
X95714285Y-103738095D01*
X95761904Y-103880952D01*
X96333333Y-104452380D01*
X95714285Y-104452380D01*
X95666666Y-113552380D02*
X96142857Y-113552380D01*
X96142857Y-112552380D01*
X94809523Y-113552380D02*
X95380952Y-113552380D01*
X95095238Y-113552380D02*
X95095238Y-112552380D01*
X95190476Y-112695238D01*
X95285714Y-112790476D01*
X95380952Y-112838095D01*
X181047619Y-109904761D02*
X181000000Y-109809523D01*
X180904761Y-109714285D01*
X180761904Y-109571428D01*
X180714285Y-109476190D01*
X180714285Y-109380952D01*
X180952380Y-109428571D02*
X180904761Y-109333333D01*
X180809523Y-109238095D01*
X180619047Y-109190476D01*
X180285714Y-109190476D01*
X180095238Y-109238095D01*
X180000000Y-109333333D01*
X179952380Y-109428571D01*
X179952380Y-109619047D01*
X180000000Y-109714285D01*
X180095238Y-109809523D01*
X180285714Y-109857142D01*
X180619047Y-109857142D01*
X180809523Y-109809523D01*
X180904761Y-109714285D01*
X180952380Y-109619047D01*
X180952380Y-109428571D01*
X180952380Y-110809523D02*
X180952380Y-110238095D01*
X180952380Y-110523809D02*
X179952380Y-110523809D01*
X180095238Y-110428571D01*
X180190476Y-110333333D01*
X180238095Y-110238095D01*
X187547619Y-109904761D02*
X187500000Y-109809523D01*
X187404761Y-109714285D01*
X187261904Y-109571428D01*
X187214285Y-109476190D01*
X187214285Y-109380952D01*
X187452380Y-109428571D02*
X187404761Y-109333333D01*
X187309523Y-109238095D01*
X187119047Y-109190476D01*
X186785714Y-109190476D01*
X186595238Y-109238095D01*
X186500000Y-109333333D01*
X186452380Y-109428571D01*
X186452380Y-109619047D01*
X186500000Y-109714285D01*
X186595238Y-109809523D01*
X186785714Y-109857142D01*
X187119047Y-109857142D01*
X187309523Y-109809523D01*
X187404761Y-109714285D01*
X187452380Y-109619047D01*
X187452380Y-109428571D01*
X186547619Y-110238095D02*
X186500000Y-110285714D01*
X186452380Y-110380952D01*
X186452380Y-110619047D01*
X186500000Y-110714285D01*
X186547619Y-110761904D01*
X186642857Y-110809523D01*
X186738095Y-110809523D01*
X186880952Y-110761904D01*
X187452380Y-110190476D01*
X187452380Y-110809523D01*
X187166666Y-105952380D02*
X187500000Y-105476190D01*
X187738095Y-105952380D02*
X187738095Y-104952380D01*
X187357142Y-104952380D01*
X187261904Y-105000000D01*
X187214285Y-105047619D01*
X187166666Y-105142857D01*
X187166666Y-105285714D01*
X187214285Y-105380952D01*
X187261904Y-105428571D01*
X187357142Y-105476190D01*
X187738095Y-105476190D01*
X186214285Y-105952380D02*
X186785714Y-105952380D01*
X186500000Y-105952380D02*
X186500000Y-104952380D01*
X186595238Y-105095238D01*
X186690476Y-105190476D01*
X186785714Y-105238095D01*
X187166666Y-114952380D02*
X187500000Y-114476190D01*
X187738095Y-114952380D02*
X187738095Y-113952380D01*
X187357142Y-113952380D01*
X187261904Y-114000000D01*
X187214285Y-114047619D01*
X187166666Y-114142857D01*
X187166666Y-114285714D01*
X187214285Y-114380952D01*
X187261904Y-114428571D01*
X187357142Y-114476190D01*
X187738095Y-114476190D01*
X186785714Y-114047619D02*
X186738095Y-114000000D01*
X186642857Y-113952380D01*
X186404761Y-113952380D01*
X186309523Y-114000000D01*
X186261904Y-114047619D01*
X186214285Y-114142857D01*
X186214285Y-114238095D01*
X186261904Y-114380952D01*
X186833333Y-114952380D01*
X186214285Y-114952380D01*
X107602380Y-112770833D02*
X107126190Y-112437500D01*
X107602380Y-112199404D02*
X106602380Y-112199404D01*
X106602380Y-112580357D01*
X106650000Y-112675595D01*
X106697619Y-112723214D01*
X106792857Y-112770833D01*
X106935714Y-112770833D01*
X107030952Y-112723214D01*
X107078571Y-112675595D01*
X107126190Y-112580357D01*
X107126190Y-112199404D01*
X106602380Y-113104166D02*
X106602380Y-113723214D01*
X106983333Y-113389880D01*
X106983333Y-113532738D01*
X107030952Y-113627976D01*
X107078571Y-113675595D01*
X107173809Y-113723214D01*
X107411904Y-113723214D01*
X107507142Y-113675595D01*
X107554761Y-113627976D01*
X107602380Y-113532738D01*
X107602380Y-113247023D01*
X107554761Y-113151785D01*
X107507142Y-113104166D01*
X107602380Y-108833333D02*
X107126190Y-108500000D01*
X107602380Y-108261904D02*
X106602380Y-108261904D01*
X106602380Y-108642857D01*
X106650000Y-108738095D01*
X106697619Y-108785714D01*
X106792857Y-108833333D01*
X106935714Y-108833333D01*
X107030952Y-108785714D01*
X107078571Y-108738095D01*
X107126190Y-108642857D01*
X107126190Y-108261904D01*
X106935714Y-109690476D02*
X107602380Y-109690476D01*
X106554761Y-109452380D02*
X107269047Y-109214285D01*
X107269047Y-109833333D01*
X183166666Y-105952380D02*
X183500000Y-105476190D01*
X183738095Y-105952380D02*
X183738095Y-104952380D01*
X183357142Y-104952380D01*
X183261904Y-105000000D01*
X183214285Y-105047619D01*
X183166666Y-105142857D01*
X183166666Y-105285714D01*
X183214285Y-105380952D01*
X183261904Y-105428571D01*
X183357142Y-105476190D01*
X183738095Y-105476190D01*
X182261904Y-104952380D02*
X182738095Y-104952380D01*
X182785714Y-105428571D01*
X182738095Y-105380952D01*
X182642857Y-105333333D01*
X182404761Y-105333333D01*
X182309523Y-105380952D01*
X182261904Y-105428571D01*
X182214285Y-105523809D01*
X182214285Y-105761904D01*
X182261904Y-105857142D01*
X182309523Y-105904761D01*
X182404761Y-105952380D01*
X182642857Y-105952380D01*
X182738095Y-105904761D01*
X182785714Y-105857142D01*
X190452380Y-106833333D02*
X189976190Y-106500000D01*
X190452380Y-106261904D02*
X189452380Y-106261904D01*
X189452380Y-106642857D01*
X189500000Y-106738095D01*
X189547619Y-106785714D01*
X189642857Y-106833333D01*
X189785714Y-106833333D01*
X189880952Y-106785714D01*
X189928571Y-106738095D01*
X189976190Y-106642857D01*
X189976190Y-106261904D01*
X189452380Y-107690476D02*
X189452380Y-107500000D01*
X189500000Y-107404761D01*
X189547619Y-107357142D01*
X189690476Y-107261904D01*
X189880952Y-107214285D01*
X190261904Y-107214285D01*
X190357142Y-107261904D01*
X190404761Y-107309523D01*
X190452380Y-107404761D01*
X190452380Y-107595238D01*
X190404761Y-107690476D01*
X190357142Y-107738095D01*
X190261904Y-107785714D01*
X190023809Y-107785714D01*
X189928571Y-107738095D01*
X189880952Y-107690476D01*
X189833333Y-107595238D01*
X189833333Y-107404761D01*
X189880952Y-107309523D01*
X189928571Y-107261904D01*
X190023809Y-107214285D01*
X134707380Y-103563095D02*
X135516904Y-103563095D01*
X135612142Y-103610714D01*
X135659761Y-103658333D01*
X135707380Y-103753571D01*
X135707380Y-103944047D01*
X135659761Y-104039285D01*
X135612142Y-104086904D01*
X135516904Y-104134523D01*
X134707380Y-104134523D01*
X135707380Y-105134523D02*
X135707380Y-104563095D01*
X135707380Y-104848809D02*
X134707380Y-104848809D01*
X134850238Y-104753571D01*
X134945476Y-104658333D01*
X134993095Y-104563095D01*
X102261904Y-107452380D02*
X102261904Y-108261904D01*
X102214285Y-108357142D01*
X102166666Y-108404761D01*
X102071428Y-108452380D01*
X101880952Y-108452380D01*
X101785714Y-108404761D01*
X101738095Y-108357142D01*
X101690476Y-108261904D01*
X101690476Y-107452380D01*
X101261904Y-107547619D02*
X101214285Y-107500000D01*
X101119047Y-107452380D01*
X100880952Y-107452380D01*
X100785714Y-107500000D01*
X100738095Y-107547619D01*
X100690476Y-107642857D01*
X100690476Y-107738095D01*
X100738095Y-107880952D01*
X101309523Y-108452380D01*
X100690476Y-108452380D01*
X195716666Y-124302380D02*
X196050000Y-123826190D01*
X196288095Y-124302380D02*
X196288095Y-123302380D01*
X195907142Y-123302380D01*
X195811904Y-123350000D01*
X195764285Y-123397619D01*
X195716666Y-123492857D01*
X195716666Y-123635714D01*
X195764285Y-123730952D01*
X195811904Y-123778571D01*
X195907142Y-123826190D01*
X196288095Y-123826190D01*
X195383333Y-123302380D02*
X194716666Y-123302380D01*
X195145238Y-124302380D01*
M02*
