G04 #@! TF.GenerationSoftware,KiCad,Pcbnew,5.1.5*
G04 #@! TF.CreationDate,2020-03-07T10:52:19+01:00*
G04 #@! TF.ProjectId,e-chessboard,652d6368-6573-4736-926f-6172642e6b69,0.2*
G04 #@! TF.SameCoordinates,Original*
G04 #@! TF.FileFunction,Paste,Top*
G04 #@! TF.FilePolarity,Positive*
%FSLAX46Y46*%
G04 Gerber Fmt 4.6, Leading zero omitted, Abs format (unit mm)*
G04 Created by KiCad (PCBNEW 5.1.5) date 2020-03-07 10:52:19*
%MOMM*%
%LPD*%
G04 APERTURE LIST*
%ADD10C,0.100000*%
%ADD11R,1.800000X2.500000*%
%ADD12R,2.000000X1.600000*%
G04 APERTURE END LIST*
D10*
G36*
X206374505Y-96301204D02*
G01*
X206398773Y-96304804D01*
X206422572Y-96310765D01*
X206445671Y-96319030D01*
X206467850Y-96329520D01*
X206488893Y-96342132D01*
X206508599Y-96356747D01*
X206526777Y-96373223D01*
X206543253Y-96391401D01*
X206557868Y-96411107D01*
X206570480Y-96432150D01*
X206580970Y-96454329D01*
X206589235Y-96477428D01*
X206595196Y-96501227D01*
X206598796Y-96525495D01*
X206600000Y-96549999D01*
X206600000Y-97450001D01*
X206598796Y-97474505D01*
X206595196Y-97498773D01*
X206589235Y-97522572D01*
X206580970Y-97545671D01*
X206570480Y-97567850D01*
X206557868Y-97588893D01*
X206543253Y-97608599D01*
X206526777Y-97626777D01*
X206508599Y-97643253D01*
X206488893Y-97657868D01*
X206467850Y-97670480D01*
X206445671Y-97680970D01*
X206422572Y-97689235D01*
X206398773Y-97695196D01*
X206374505Y-97698796D01*
X206350001Y-97700000D01*
X205699999Y-97700000D01*
X205675495Y-97698796D01*
X205651227Y-97695196D01*
X205627428Y-97689235D01*
X205604329Y-97680970D01*
X205582150Y-97670480D01*
X205561107Y-97657868D01*
X205541401Y-97643253D01*
X205523223Y-97626777D01*
X205506747Y-97608599D01*
X205492132Y-97588893D01*
X205479520Y-97567850D01*
X205469030Y-97545671D01*
X205460765Y-97522572D01*
X205454804Y-97498773D01*
X205451204Y-97474505D01*
X205450000Y-97450001D01*
X205450000Y-96549999D01*
X205451204Y-96525495D01*
X205454804Y-96501227D01*
X205460765Y-96477428D01*
X205469030Y-96454329D01*
X205479520Y-96432150D01*
X205492132Y-96411107D01*
X205506747Y-96391401D01*
X205523223Y-96373223D01*
X205541401Y-96356747D01*
X205561107Y-96342132D01*
X205582150Y-96329520D01*
X205604329Y-96319030D01*
X205627428Y-96310765D01*
X205651227Y-96304804D01*
X205675495Y-96301204D01*
X205699999Y-96300000D01*
X206350001Y-96300000D01*
X206374505Y-96301204D01*
G37*
G36*
X204324505Y-96301204D02*
G01*
X204348773Y-96304804D01*
X204372572Y-96310765D01*
X204395671Y-96319030D01*
X204417850Y-96329520D01*
X204438893Y-96342132D01*
X204458599Y-96356747D01*
X204476777Y-96373223D01*
X204493253Y-96391401D01*
X204507868Y-96411107D01*
X204520480Y-96432150D01*
X204530970Y-96454329D01*
X204539235Y-96477428D01*
X204545196Y-96501227D01*
X204548796Y-96525495D01*
X204550000Y-96549999D01*
X204550000Y-97450001D01*
X204548796Y-97474505D01*
X204545196Y-97498773D01*
X204539235Y-97522572D01*
X204530970Y-97545671D01*
X204520480Y-97567850D01*
X204507868Y-97588893D01*
X204493253Y-97608599D01*
X204476777Y-97626777D01*
X204458599Y-97643253D01*
X204438893Y-97657868D01*
X204417850Y-97670480D01*
X204395671Y-97680970D01*
X204372572Y-97689235D01*
X204348773Y-97695196D01*
X204324505Y-97698796D01*
X204300001Y-97700000D01*
X203649999Y-97700000D01*
X203625495Y-97698796D01*
X203601227Y-97695196D01*
X203577428Y-97689235D01*
X203554329Y-97680970D01*
X203532150Y-97670480D01*
X203511107Y-97657868D01*
X203491401Y-97643253D01*
X203473223Y-97626777D01*
X203456747Y-97608599D01*
X203442132Y-97588893D01*
X203429520Y-97567850D01*
X203419030Y-97545671D01*
X203410765Y-97522572D01*
X203404804Y-97498773D01*
X203401204Y-97474505D01*
X203400000Y-97450001D01*
X203400000Y-96549999D01*
X203401204Y-96525495D01*
X203404804Y-96501227D01*
X203410765Y-96477428D01*
X203419030Y-96454329D01*
X203429520Y-96432150D01*
X203442132Y-96411107D01*
X203456747Y-96391401D01*
X203473223Y-96373223D01*
X203491401Y-96356747D01*
X203511107Y-96342132D01*
X203532150Y-96329520D01*
X203554329Y-96319030D01*
X203577428Y-96310765D01*
X203601227Y-96304804D01*
X203625495Y-96301204D01*
X203649999Y-96300000D01*
X204300001Y-96300000D01*
X204324505Y-96301204D01*
G37*
G36*
X206374505Y-122051204D02*
G01*
X206398773Y-122054804D01*
X206422572Y-122060765D01*
X206445671Y-122069030D01*
X206467850Y-122079520D01*
X206488893Y-122092132D01*
X206508599Y-122106747D01*
X206526777Y-122123223D01*
X206543253Y-122141401D01*
X206557868Y-122161107D01*
X206570480Y-122182150D01*
X206580970Y-122204329D01*
X206589235Y-122227428D01*
X206595196Y-122251227D01*
X206598796Y-122275495D01*
X206600000Y-122299999D01*
X206600000Y-123200001D01*
X206598796Y-123224505D01*
X206595196Y-123248773D01*
X206589235Y-123272572D01*
X206580970Y-123295671D01*
X206570480Y-123317850D01*
X206557868Y-123338893D01*
X206543253Y-123358599D01*
X206526777Y-123376777D01*
X206508599Y-123393253D01*
X206488893Y-123407868D01*
X206467850Y-123420480D01*
X206445671Y-123430970D01*
X206422572Y-123439235D01*
X206398773Y-123445196D01*
X206374505Y-123448796D01*
X206350001Y-123450000D01*
X205699999Y-123450000D01*
X205675495Y-123448796D01*
X205651227Y-123445196D01*
X205627428Y-123439235D01*
X205604329Y-123430970D01*
X205582150Y-123420480D01*
X205561107Y-123407868D01*
X205541401Y-123393253D01*
X205523223Y-123376777D01*
X205506747Y-123358599D01*
X205492132Y-123338893D01*
X205479520Y-123317850D01*
X205469030Y-123295671D01*
X205460765Y-123272572D01*
X205454804Y-123248773D01*
X205451204Y-123224505D01*
X205450000Y-123200001D01*
X205450000Y-122299999D01*
X205451204Y-122275495D01*
X205454804Y-122251227D01*
X205460765Y-122227428D01*
X205469030Y-122204329D01*
X205479520Y-122182150D01*
X205492132Y-122161107D01*
X205506747Y-122141401D01*
X205523223Y-122123223D01*
X205541401Y-122106747D01*
X205561107Y-122092132D01*
X205582150Y-122079520D01*
X205604329Y-122069030D01*
X205627428Y-122060765D01*
X205651227Y-122054804D01*
X205675495Y-122051204D01*
X205699999Y-122050000D01*
X206350001Y-122050000D01*
X206374505Y-122051204D01*
G37*
G36*
X204324505Y-122051204D02*
G01*
X204348773Y-122054804D01*
X204372572Y-122060765D01*
X204395671Y-122069030D01*
X204417850Y-122079520D01*
X204438893Y-122092132D01*
X204458599Y-122106747D01*
X204476777Y-122123223D01*
X204493253Y-122141401D01*
X204507868Y-122161107D01*
X204520480Y-122182150D01*
X204530970Y-122204329D01*
X204539235Y-122227428D01*
X204545196Y-122251227D01*
X204548796Y-122275495D01*
X204550000Y-122299999D01*
X204550000Y-123200001D01*
X204548796Y-123224505D01*
X204545196Y-123248773D01*
X204539235Y-123272572D01*
X204530970Y-123295671D01*
X204520480Y-123317850D01*
X204507868Y-123338893D01*
X204493253Y-123358599D01*
X204476777Y-123376777D01*
X204458599Y-123393253D01*
X204438893Y-123407868D01*
X204417850Y-123420480D01*
X204395671Y-123430970D01*
X204372572Y-123439235D01*
X204348773Y-123445196D01*
X204324505Y-123448796D01*
X204300001Y-123450000D01*
X203649999Y-123450000D01*
X203625495Y-123448796D01*
X203601227Y-123445196D01*
X203577428Y-123439235D01*
X203554329Y-123430970D01*
X203532150Y-123420480D01*
X203511107Y-123407868D01*
X203491401Y-123393253D01*
X203473223Y-123376777D01*
X203456747Y-123358599D01*
X203442132Y-123338893D01*
X203429520Y-123317850D01*
X203419030Y-123295671D01*
X203410765Y-123272572D01*
X203404804Y-123248773D01*
X203401204Y-123224505D01*
X203400000Y-123200001D01*
X203400000Y-122299999D01*
X203401204Y-122275495D01*
X203404804Y-122251227D01*
X203410765Y-122227428D01*
X203419030Y-122204329D01*
X203429520Y-122182150D01*
X203442132Y-122161107D01*
X203456747Y-122141401D01*
X203473223Y-122123223D01*
X203491401Y-122106747D01*
X203511107Y-122092132D01*
X203532150Y-122079520D01*
X203554329Y-122069030D01*
X203577428Y-122060765D01*
X203601227Y-122054804D01*
X203625495Y-122051204D01*
X203649999Y-122050000D01*
X204300001Y-122050000D01*
X204324505Y-122051204D01*
G37*
G36*
X136224505Y-67001204D02*
G01*
X136248773Y-67004804D01*
X136272572Y-67010765D01*
X136295671Y-67019030D01*
X136317850Y-67029520D01*
X136338893Y-67042132D01*
X136358599Y-67056747D01*
X136376777Y-67073223D01*
X136393253Y-67091401D01*
X136407868Y-67111107D01*
X136420480Y-67132150D01*
X136430970Y-67154329D01*
X136439235Y-67177428D01*
X136445196Y-67201227D01*
X136448796Y-67225495D01*
X136450000Y-67249999D01*
X136450000Y-68150001D01*
X136448796Y-68174505D01*
X136445196Y-68198773D01*
X136439235Y-68222572D01*
X136430970Y-68245671D01*
X136420480Y-68267850D01*
X136407868Y-68288893D01*
X136393253Y-68308599D01*
X136376777Y-68326777D01*
X136358599Y-68343253D01*
X136338893Y-68357868D01*
X136317850Y-68370480D01*
X136295671Y-68380970D01*
X136272572Y-68389235D01*
X136248773Y-68395196D01*
X136224505Y-68398796D01*
X136200001Y-68400000D01*
X135549999Y-68400000D01*
X135525495Y-68398796D01*
X135501227Y-68395196D01*
X135477428Y-68389235D01*
X135454329Y-68380970D01*
X135432150Y-68370480D01*
X135411107Y-68357868D01*
X135391401Y-68343253D01*
X135373223Y-68326777D01*
X135356747Y-68308599D01*
X135342132Y-68288893D01*
X135329520Y-68267850D01*
X135319030Y-68245671D01*
X135310765Y-68222572D01*
X135304804Y-68198773D01*
X135301204Y-68174505D01*
X135300000Y-68150001D01*
X135300000Y-67249999D01*
X135301204Y-67225495D01*
X135304804Y-67201227D01*
X135310765Y-67177428D01*
X135319030Y-67154329D01*
X135329520Y-67132150D01*
X135342132Y-67111107D01*
X135356747Y-67091401D01*
X135373223Y-67073223D01*
X135391401Y-67056747D01*
X135411107Y-67042132D01*
X135432150Y-67029520D01*
X135454329Y-67019030D01*
X135477428Y-67010765D01*
X135501227Y-67004804D01*
X135525495Y-67001204D01*
X135549999Y-67000000D01*
X136200001Y-67000000D01*
X136224505Y-67001204D01*
G37*
G36*
X138274505Y-67001204D02*
G01*
X138298773Y-67004804D01*
X138322572Y-67010765D01*
X138345671Y-67019030D01*
X138367850Y-67029520D01*
X138388893Y-67042132D01*
X138408599Y-67056747D01*
X138426777Y-67073223D01*
X138443253Y-67091401D01*
X138457868Y-67111107D01*
X138470480Y-67132150D01*
X138480970Y-67154329D01*
X138489235Y-67177428D01*
X138495196Y-67201227D01*
X138498796Y-67225495D01*
X138500000Y-67249999D01*
X138500000Y-68150001D01*
X138498796Y-68174505D01*
X138495196Y-68198773D01*
X138489235Y-68222572D01*
X138480970Y-68245671D01*
X138470480Y-68267850D01*
X138457868Y-68288893D01*
X138443253Y-68308599D01*
X138426777Y-68326777D01*
X138408599Y-68343253D01*
X138388893Y-68357868D01*
X138367850Y-68370480D01*
X138345671Y-68380970D01*
X138322572Y-68389235D01*
X138298773Y-68395196D01*
X138274505Y-68398796D01*
X138250001Y-68400000D01*
X137599999Y-68400000D01*
X137575495Y-68398796D01*
X137551227Y-68395196D01*
X137527428Y-68389235D01*
X137504329Y-68380970D01*
X137482150Y-68370480D01*
X137461107Y-68357868D01*
X137441401Y-68343253D01*
X137423223Y-68326777D01*
X137406747Y-68308599D01*
X137392132Y-68288893D01*
X137379520Y-68267850D01*
X137369030Y-68245671D01*
X137360765Y-68222572D01*
X137354804Y-68198773D01*
X137351204Y-68174505D01*
X137350000Y-68150001D01*
X137350000Y-67249999D01*
X137351204Y-67225495D01*
X137354804Y-67201227D01*
X137360765Y-67177428D01*
X137369030Y-67154329D01*
X137379520Y-67132150D01*
X137392132Y-67111107D01*
X137406747Y-67091401D01*
X137423223Y-67073223D01*
X137441401Y-67056747D01*
X137461107Y-67042132D01*
X137482150Y-67029520D01*
X137504329Y-67019030D01*
X137527428Y-67010765D01*
X137551227Y-67004804D01*
X137575495Y-67001204D01*
X137599999Y-67000000D01*
X138250001Y-67000000D01*
X138274505Y-67001204D01*
G37*
G36*
X124874505Y-54601204D02*
G01*
X124898773Y-54604804D01*
X124922572Y-54610765D01*
X124945671Y-54619030D01*
X124967850Y-54629520D01*
X124988893Y-54642132D01*
X125008599Y-54656747D01*
X125026777Y-54673223D01*
X125043253Y-54691401D01*
X125057868Y-54711107D01*
X125070480Y-54732150D01*
X125080970Y-54754329D01*
X125089235Y-54777428D01*
X125095196Y-54801227D01*
X125098796Y-54825495D01*
X125100000Y-54849999D01*
X125100000Y-55750001D01*
X125098796Y-55774505D01*
X125095196Y-55798773D01*
X125089235Y-55822572D01*
X125080970Y-55845671D01*
X125070480Y-55867850D01*
X125057868Y-55888893D01*
X125043253Y-55908599D01*
X125026777Y-55926777D01*
X125008599Y-55943253D01*
X124988893Y-55957868D01*
X124967850Y-55970480D01*
X124945671Y-55980970D01*
X124922572Y-55989235D01*
X124898773Y-55995196D01*
X124874505Y-55998796D01*
X124850001Y-56000000D01*
X124199999Y-56000000D01*
X124175495Y-55998796D01*
X124151227Y-55995196D01*
X124127428Y-55989235D01*
X124104329Y-55980970D01*
X124082150Y-55970480D01*
X124061107Y-55957868D01*
X124041401Y-55943253D01*
X124023223Y-55926777D01*
X124006747Y-55908599D01*
X123992132Y-55888893D01*
X123979520Y-55867850D01*
X123969030Y-55845671D01*
X123960765Y-55822572D01*
X123954804Y-55798773D01*
X123951204Y-55774505D01*
X123950000Y-55750001D01*
X123950000Y-54849999D01*
X123951204Y-54825495D01*
X123954804Y-54801227D01*
X123960765Y-54777428D01*
X123969030Y-54754329D01*
X123979520Y-54732150D01*
X123992132Y-54711107D01*
X124006747Y-54691401D01*
X124023223Y-54673223D01*
X124041401Y-54656747D01*
X124061107Y-54642132D01*
X124082150Y-54629520D01*
X124104329Y-54619030D01*
X124127428Y-54610765D01*
X124151227Y-54604804D01*
X124175495Y-54601204D01*
X124199999Y-54600000D01*
X124850001Y-54600000D01*
X124874505Y-54601204D01*
G37*
G36*
X122824505Y-54601204D02*
G01*
X122848773Y-54604804D01*
X122872572Y-54610765D01*
X122895671Y-54619030D01*
X122917850Y-54629520D01*
X122938893Y-54642132D01*
X122958599Y-54656747D01*
X122976777Y-54673223D01*
X122993253Y-54691401D01*
X123007868Y-54711107D01*
X123020480Y-54732150D01*
X123030970Y-54754329D01*
X123039235Y-54777428D01*
X123045196Y-54801227D01*
X123048796Y-54825495D01*
X123050000Y-54849999D01*
X123050000Y-55750001D01*
X123048796Y-55774505D01*
X123045196Y-55798773D01*
X123039235Y-55822572D01*
X123030970Y-55845671D01*
X123020480Y-55867850D01*
X123007868Y-55888893D01*
X122993253Y-55908599D01*
X122976777Y-55926777D01*
X122958599Y-55943253D01*
X122938893Y-55957868D01*
X122917850Y-55970480D01*
X122895671Y-55980970D01*
X122872572Y-55989235D01*
X122848773Y-55995196D01*
X122824505Y-55998796D01*
X122800001Y-56000000D01*
X122149999Y-56000000D01*
X122125495Y-55998796D01*
X122101227Y-55995196D01*
X122077428Y-55989235D01*
X122054329Y-55980970D01*
X122032150Y-55970480D01*
X122011107Y-55957868D01*
X121991401Y-55943253D01*
X121973223Y-55926777D01*
X121956747Y-55908599D01*
X121942132Y-55888893D01*
X121929520Y-55867850D01*
X121919030Y-55845671D01*
X121910765Y-55822572D01*
X121904804Y-55798773D01*
X121901204Y-55774505D01*
X121900000Y-55750001D01*
X121900000Y-54849999D01*
X121901204Y-54825495D01*
X121904804Y-54801227D01*
X121910765Y-54777428D01*
X121919030Y-54754329D01*
X121929520Y-54732150D01*
X121942132Y-54711107D01*
X121956747Y-54691401D01*
X121973223Y-54673223D01*
X121991401Y-54656747D01*
X122011107Y-54642132D01*
X122032150Y-54629520D01*
X122054329Y-54619030D01*
X122077428Y-54610765D01*
X122101227Y-54604804D01*
X122125495Y-54601204D01*
X122149999Y-54600000D01*
X122800001Y-54600000D01*
X122824505Y-54601204D01*
G37*
D11*
X60000000Y-87000000D03*
X60000000Y-83000000D03*
X60000000Y-137000000D03*
X60000000Y-133000000D03*
X60000000Y-187500000D03*
X60000000Y-183500000D03*
X110000000Y-83000000D03*
X110000000Y-87000000D03*
X110000000Y-133000000D03*
X110000000Y-137000000D03*
X110000000Y-183000000D03*
X110000000Y-187000000D03*
X160000000Y-83000000D03*
X160000000Y-87000000D03*
X160000000Y-137000000D03*
X160000000Y-133000000D03*
X160000000Y-187000000D03*
X160000000Y-183000000D03*
D12*
X207700000Y-100000000D03*
X202300000Y-100000000D03*
X202300000Y-119750000D03*
X207700000Y-119750000D03*
D10*
G36*
X126909703Y-63625722D02*
G01*
X126924264Y-63627882D01*
X126938543Y-63631459D01*
X126952403Y-63636418D01*
X126965710Y-63642712D01*
X126978336Y-63650280D01*
X126990159Y-63659048D01*
X127001066Y-63668934D01*
X127010952Y-63679841D01*
X127019720Y-63691664D01*
X127027288Y-63704290D01*
X127033582Y-63717597D01*
X127038541Y-63731457D01*
X127042118Y-63745736D01*
X127044278Y-63760297D01*
X127045000Y-63775000D01*
X127045000Y-65525000D01*
X127044278Y-65539703D01*
X127042118Y-65554264D01*
X127038541Y-65568543D01*
X127033582Y-65582403D01*
X127027288Y-65595710D01*
X127019720Y-65608336D01*
X127010952Y-65620159D01*
X127001066Y-65631066D01*
X126990159Y-65640952D01*
X126978336Y-65649720D01*
X126965710Y-65657288D01*
X126952403Y-65663582D01*
X126938543Y-65668541D01*
X126924264Y-65672118D01*
X126909703Y-65674278D01*
X126895000Y-65675000D01*
X126595000Y-65675000D01*
X126580297Y-65674278D01*
X126565736Y-65672118D01*
X126551457Y-65668541D01*
X126537597Y-65663582D01*
X126524290Y-65657288D01*
X126511664Y-65649720D01*
X126499841Y-65640952D01*
X126488934Y-65631066D01*
X126479048Y-65620159D01*
X126470280Y-65608336D01*
X126462712Y-65595710D01*
X126456418Y-65582403D01*
X126451459Y-65568543D01*
X126447882Y-65554264D01*
X126445722Y-65539703D01*
X126445000Y-65525000D01*
X126445000Y-63775000D01*
X126445722Y-63760297D01*
X126447882Y-63745736D01*
X126451459Y-63731457D01*
X126456418Y-63717597D01*
X126462712Y-63704290D01*
X126470280Y-63691664D01*
X126479048Y-63679841D01*
X126488934Y-63668934D01*
X126499841Y-63659048D01*
X126511664Y-63650280D01*
X126524290Y-63642712D01*
X126537597Y-63636418D01*
X126551457Y-63631459D01*
X126565736Y-63627882D01*
X126580297Y-63625722D01*
X126595000Y-63625000D01*
X126895000Y-63625000D01*
X126909703Y-63625722D01*
G37*
G36*
X128179703Y-63625722D02*
G01*
X128194264Y-63627882D01*
X128208543Y-63631459D01*
X128222403Y-63636418D01*
X128235710Y-63642712D01*
X128248336Y-63650280D01*
X128260159Y-63659048D01*
X128271066Y-63668934D01*
X128280952Y-63679841D01*
X128289720Y-63691664D01*
X128297288Y-63704290D01*
X128303582Y-63717597D01*
X128308541Y-63731457D01*
X128312118Y-63745736D01*
X128314278Y-63760297D01*
X128315000Y-63775000D01*
X128315000Y-65525000D01*
X128314278Y-65539703D01*
X128312118Y-65554264D01*
X128308541Y-65568543D01*
X128303582Y-65582403D01*
X128297288Y-65595710D01*
X128289720Y-65608336D01*
X128280952Y-65620159D01*
X128271066Y-65631066D01*
X128260159Y-65640952D01*
X128248336Y-65649720D01*
X128235710Y-65657288D01*
X128222403Y-65663582D01*
X128208543Y-65668541D01*
X128194264Y-65672118D01*
X128179703Y-65674278D01*
X128165000Y-65675000D01*
X127865000Y-65675000D01*
X127850297Y-65674278D01*
X127835736Y-65672118D01*
X127821457Y-65668541D01*
X127807597Y-65663582D01*
X127794290Y-65657288D01*
X127781664Y-65649720D01*
X127769841Y-65640952D01*
X127758934Y-65631066D01*
X127749048Y-65620159D01*
X127740280Y-65608336D01*
X127732712Y-65595710D01*
X127726418Y-65582403D01*
X127721459Y-65568543D01*
X127717882Y-65554264D01*
X127715722Y-65539703D01*
X127715000Y-65525000D01*
X127715000Y-63775000D01*
X127715722Y-63760297D01*
X127717882Y-63745736D01*
X127721459Y-63731457D01*
X127726418Y-63717597D01*
X127732712Y-63704290D01*
X127740280Y-63691664D01*
X127749048Y-63679841D01*
X127758934Y-63668934D01*
X127769841Y-63659048D01*
X127781664Y-63650280D01*
X127794290Y-63642712D01*
X127807597Y-63636418D01*
X127821457Y-63631459D01*
X127835736Y-63627882D01*
X127850297Y-63625722D01*
X127865000Y-63625000D01*
X128165000Y-63625000D01*
X128179703Y-63625722D01*
G37*
G36*
X129449703Y-63625722D02*
G01*
X129464264Y-63627882D01*
X129478543Y-63631459D01*
X129492403Y-63636418D01*
X129505710Y-63642712D01*
X129518336Y-63650280D01*
X129530159Y-63659048D01*
X129541066Y-63668934D01*
X129550952Y-63679841D01*
X129559720Y-63691664D01*
X129567288Y-63704290D01*
X129573582Y-63717597D01*
X129578541Y-63731457D01*
X129582118Y-63745736D01*
X129584278Y-63760297D01*
X129585000Y-63775000D01*
X129585000Y-65525000D01*
X129584278Y-65539703D01*
X129582118Y-65554264D01*
X129578541Y-65568543D01*
X129573582Y-65582403D01*
X129567288Y-65595710D01*
X129559720Y-65608336D01*
X129550952Y-65620159D01*
X129541066Y-65631066D01*
X129530159Y-65640952D01*
X129518336Y-65649720D01*
X129505710Y-65657288D01*
X129492403Y-65663582D01*
X129478543Y-65668541D01*
X129464264Y-65672118D01*
X129449703Y-65674278D01*
X129435000Y-65675000D01*
X129135000Y-65675000D01*
X129120297Y-65674278D01*
X129105736Y-65672118D01*
X129091457Y-65668541D01*
X129077597Y-65663582D01*
X129064290Y-65657288D01*
X129051664Y-65649720D01*
X129039841Y-65640952D01*
X129028934Y-65631066D01*
X129019048Y-65620159D01*
X129010280Y-65608336D01*
X129002712Y-65595710D01*
X128996418Y-65582403D01*
X128991459Y-65568543D01*
X128987882Y-65554264D01*
X128985722Y-65539703D01*
X128985000Y-65525000D01*
X128985000Y-63775000D01*
X128985722Y-63760297D01*
X128987882Y-63745736D01*
X128991459Y-63731457D01*
X128996418Y-63717597D01*
X129002712Y-63704290D01*
X129010280Y-63691664D01*
X129019048Y-63679841D01*
X129028934Y-63668934D01*
X129039841Y-63659048D01*
X129051664Y-63650280D01*
X129064290Y-63642712D01*
X129077597Y-63636418D01*
X129091457Y-63631459D01*
X129105736Y-63627882D01*
X129120297Y-63625722D01*
X129135000Y-63625000D01*
X129435000Y-63625000D01*
X129449703Y-63625722D01*
G37*
G36*
X130719703Y-63625722D02*
G01*
X130734264Y-63627882D01*
X130748543Y-63631459D01*
X130762403Y-63636418D01*
X130775710Y-63642712D01*
X130788336Y-63650280D01*
X130800159Y-63659048D01*
X130811066Y-63668934D01*
X130820952Y-63679841D01*
X130829720Y-63691664D01*
X130837288Y-63704290D01*
X130843582Y-63717597D01*
X130848541Y-63731457D01*
X130852118Y-63745736D01*
X130854278Y-63760297D01*
X130855000Y-63775000D01*
X130855000Y-65525000D01*
X130854278Y-65539703D01*
X130852118Y-65554264D01*
X130848541Y-65568543D01*
X130843582Y-65582403D01*
X130837288Y-65595710D01*
X130829720Y-65608336D01*
X130820952Y-65620159D01*
X130811066Y-65631066D01*
X130800159Y-65640952D01*
X130788336Y-65649720D01*
X130775710Y-65657288D01*
X130762403Y-65663582D01*
X130748543Y-65668541D01*
X130734264Y-65672118D01*
X130719703Y-65674278D01*
X130705000Y-65675000D01*
X130405000Y-65675000D01*
X130390297Y-65674278D01*
X130375736Y-65672118D01*
X130361457Y-65668541D01*
X130347597Y-65663582D01*
X130334290Y-65657288D01*
X130321664Y-65649720D01*
X130309841Y-65640952D01*
X130298934Y-65631066D01*
X130289048Y-65620159D01*
X130280280Y-65608336D01*
X130272712Y-65595710D01*
X130266418Y-65582403D01*
X130261459Y-65568543D01*
X130257882Y-65554264D01*
X130255722Y-65539703D01*
X130255000Y-65525000D01*
X130255000Y-63775000D01*
X130255722Y-63760297D01*
X130257882Y-63745736D01*
X130261459Y-63731457D01*
X130266418Y-63717597D01*
X130272712Y-63704290D01*
X130280280Y-63691664D01*
X130289048Y-63679841D01*
X130298934Y-63668934D01*
X130309841Y-63659048D01*
X130321664Y-63650280D01*
X130334290Y-63642712D01*
X130347597Y-63636418D01*
X130361457Y-63631459D01*
X130375736Y-63627882D01*
X130390297Y-63625722D01*
X130405000Y-63625000D01*
X130705000Y-63625000D01*
X130719703Y-63625722D01*
G37*
G36*
X131989703Y-63625722D02*
G01*
X132004264Y-63627882D01*
X132018543Y-63631459D01*
X132032403Y-63636418D01*
X132045710Y-63642712D01*
X132058336Y-63650280D01*
X132070159Y-63659048D01*
X132081066Y-63668934D01*
X132090952Y-63679841D01*
X132099720Y-63691664D01*
X132107288Y-63704290D01*
X132113582Y-63717597D01*
X132118541Y-63731457D01*
X132122118Y-63745736D01*
X132124278Y-63760297D01*
X132125000Y-63775000D01*
X132125000Y-65525000D01*
X132124278Y-65539703D01*
X132122118Y-65554264D01*
X132118541Y-65568543D01*
X132113582Y-65582403D01*
X132107288Y-65595710D01*
X132099720Y-65608336D01*
X132090952Y-65620159D01*
X132081066Y-65631066D01*
X132070159Y-65640952D01*
X132058336Y-65649720D01*
X132045710Y-65657288D01*
X132032403Y-65663582D01*
X132018543Y-65668541D01*
X132004264Y-65672118D01*
X131989703Y-65674278D01*
X131975000Y-65675000D01*
X131675000Y-65675000D01*
X131660297Y-65674278D01*
X131645736Y-65672118D01*
X131631457Y-65668541D01*
X131617597Y-65663582D01*
X131604290Y-65657288D01*
X131591664Y-65649720D01*
X131579841Y-65640952D01*
X131568934Y-65631066D01*
X131559048Y-65620159D01*
X131550280Y-65608336D01*
X131542712Y-65595710D01*
X131536418Y-65582403D01*
X131531459Y-65568543D01*
X131527882Y-65554264D01*
X131525722Y-65539703D01*
X131525000Y-65525000D01*
X131525000Y-63775000D01*
X131525722Y-63760297D01*
X131527882Y-63745736D01*
X131531459Y-63731457D01*
X131536418Y-63717597D01*
X131542712Y-63704290D01*
X131550280Y-63691664D01*
X131559048Y-63679841D01*
X131568934Y-63668934D01*
X131579841Y-63659048D01*
X131591664Y-63650280D01*
X131604290Y-63642712D01*
X131617597Y-63636418D01*
X131631457Y-63631459D01*
X131645736Y-63627882D01*
X131660297Y-63625722D01*
X131675000Y-63625000D01*
X131975000Y-63625000D01*
X131989703Y-63625722D01*
G37*
G36*
X133259703Y-63625722D02*
G01*
X133274264Y-63627882D01*
X133288543Y-63631459D01*
X133302403Y-63636418D01*
X133315710Y-63642712D01*
X133328336Y-63650280D01*
X133340159Y-63659048D01*
X133351066Y-63668934D01*
X133360952Y-63679841D01*
X133369720Y-63691664D01*
X133377288Y-63704290D01*
X133383582Y-63717597D01*
X133388541Y-63731457D01*
X133392118Y-63745736D01*
X133394278Y-63760297D01*
X133395000Y-63775000D01*
X133395000Y-65525000D01*
X133394278Y-65539703D01*
X133392118Y-65554264D01*
X133388541Y-65568543D01*
X133383582Y-65582403D01*
X133377288Y-65595710D01*
X133369720Y-65608336D01*
X133360952Y-65620159D01*
X133351066Y-65631066D01*
X133340159Y-65640952D01*
X133328336Y-65649720D01*
X133315710Y-65657288D01*
X133302403Y-65663582D01*
X133288543Y-65668541D01*
X133274264Y-65672118D01*
X133259703Y-65674278D01*
X133245000Y-65675000D01*
X132945000Y-65675000D01*
X132930297Y-65674278D01*
X132915736Y-65672118D01*
X132901457Y-65668541D01*
X132887597Y-65663582D01*
X132874290Y-65657288D01*
X132861664Y-65649720D01*
X132849841Y-65640952D01*
X132838934Y-65631066D01*
X132829048Y-65620159D01*
X132820280Y-65608336D01*
X132812712Y-65595710D01*
X132806418Y-65582403D01*
X132801459Y-65568543D01*
X132797882Y-65554264D01*
X132795722Y-65539703D01*
X132795000Y-65525000D01*
X132795000Y-63775000D01*
X132795722Y-63760297D01*
X132797882Y-63745736D01*
X132801459Y-63731457D01*
X132806418Y-63717597D01*
X132812712Y-63704290D01*
X132820280Y-63691664D01*
X132829048Y-63679841D01*
X132838934Y-63668934D01*
X132849841Y-63659048D01*
X132861664Y-63650280D01*
X132874290Y-63642712D01*
X132887597Y-63636418D01*
X132901457Y-63631459D01*
X132915736Y-63627882D01*
X132930297Y-63625722D01*
X132945000Y-63625000D01*
X133245000Y-63625000D01*
X133259703Y-63625722D01*
G37*
G36*
X134529703Y-63625722D02*
G01*
X134544264Y-63627882D01*
X134558543Y-63631459D01*
X134572403Y-63636418D01*
X134585710Y-63642712D01*
X134598336Y-63650280D01*
X134610159Y-63659048D01*
X134621066Y-63668934D01*
X134630952Y-63679841D01*
X134639720Y-63691664D01*
X134647288Y-63704290D01*
X134653582Y-63717597D01*
X134658541Y-63731457D01*
X134662118Y-63745736D01*
X134664278Y-63760297D01*
X134665000Y-63775000D01*
X134665000Y-65525000D01*
X134664278Y-65539703D01*
X134662118Y-65554264D01*
X134658541Y-65568543D01*
X134653582Y-65582403D01*
X134647288Y-65595710D01*
X134639720Y-65608336D01*
X134630952Y-65620159D01*
X134621066Y-65631066D01*
X134610159Y-65640952D01*
X134598336Y-65649720D01*
X134585710Y-65657288D01*
X134572403Y-65663582D01*
X134558543Y-65668541D01*
X134544264Y-65672118D01*
X134529703Y-65674278D01*
X134515000Y-65675000D01*
X134215000Y-65675000D01*
X134200297Y-65674278D01*
X134185736Y-65672118D01*
X134171457Y-65668541D01*
X134157597Y-65663582D01*
X134144290Y-65657288D01*
X134131664Y-65649720D01*
X134119841Y-65640952D01*
X134108934Y-65631066D01*
X134099048Y-65620159D01*
X134090280Y-65608336D01*
X134082712Y-65595710D01*
X134076418Y-65582403D01*
X134071459Y-65568543D01*
X134067882Y-65554264D01*
X134065722Y-65539703D01*
X134065000Y-65525000D01*
X134065000Y-63775000D01*
X134065722Y-63760297D01*
X134067882Y-63745736D01*
X134071459Y-63731457D01*
X134076418Y-63717597D01*
X134082712Y-63704290D01*
X134090280Y-63691664D01*
X134099048Y-63679841D01*
X134108934Y-63668934D01*
X134119841Y-63659048D01*
X134131664Y-63650280D01*
X134144290Y-63642712D01*
X134157597Y-63636418D01*
X134171457Y-63631459D01*
X134185736Y-63627882D01*
X134200297Y-63625722D01*
X134215000Y-63625000D01*
X134515000Y-63625000D01*
X134529703Y-63625722D01*
G37*
G36*
X135799703Y-63625722D02*
G01*
X135814264Y-63627882D01*
X135828543Y-63631459D01*
X135842403Y-63636418D01*
X135855710Y-63642712D01*
X135868336Y-63650280D01*
X135880159Y-63659048D01*
X135891066Y-63668934D01*
X135900952Y-63679841D01*
X135909720Y-63691664D01*
X135917288Y-63704290D01*
X135923582Y-63717597D01*
X135928541Y-63731457D01*
X135932118Y-63745736D01*
X135934278Y-63760297D01*
X135935000Y-63775000D01*
X135935000Y-65525000D01*
X135934278Y-65539703D01*
X135932118Y-65554264D01*
X135928541Y-65568543D01*
X135923582Y-65582403D01*
X135917288Y-65595710D01*
X135909720Y-65608336D01*
X135900952Y-65620159D01*
X135891066Y-65631066D01*
X135880159Y-65640952D01*
X135868336Y-65649720D01*
X135855710Y-65657288D01*
X135842403Y-65663582D01*
X135828543Y-65668541D01*
X135814264Y-65672118D01*
X135799703Y-65674278D01*
X135785000Y-65675000D01*
X135485000Y-65675000D01*
X135470297Y-65674278D01*
X135455736Y-65672118D01*
X135441457Y-65668541D01*
X135427597Y-65663582D01*
X135414290Y-65657288D01*
X135401664Y-65649720D01*
X135389841Y-65640952D01*
X135378934Y-65631066D01*
X135369048Y-65620159D01*
X135360280Y-65608336D01*
X135352712Y-65595710D01*
X135346418Y-65582403D01*
X135341459Y-65568543D01*
X135337882Y-65554264D01*
X135335722Y-65539703D01*
X135335000Y-65525000D01*
X135335000Y-63775000D01*
X135335722Y-63760297D01*
X135337882Y-63745736D01*
X135341459Y-63731457D01*
X135346418Y-63717597D01*
X135352712Y-63704290D01*
X135360280Y-63691664D01*
X135369048Y-63679841D01*
X135378934Y-63668934D01*
X135389841Y-63659048D01*
X135401664Y-63650280D01*
X135414290Y-63642712D01*
X135427597Y-63636418D01*
X135441457Y-63631459D01*
X135455736Y-63627882D01*
X135470297Y-63625722D01*
X135485000Y-63625000D01*
X135785000Y-63625000D01*
X135799703Y-63625722D01*
G37*
G36*
X137069703Y-63625722D02*
G01*
X137084264Y-63627882D01*
X137098543Y-63631459D01*
X137112403Y-63636418D01*
X137125710Y-63642712D01*
X137138336Y-63650280D01*
X137150159Y-63659048D01*
X137161066Y-63668934D01*
X137170952Y-63679841D01*
X137179720Y-63691664D01*
X137187288Y-63704290D01*
X137193582Y-63717597D01*
X137198541Y-63731457D01*
X137202118Y-63745736D01*
X137204278Y-63760297D01*
X137205000Y-63775000D01*
X137205000Y-65525000D01*
X137204278Y-65539703D01*
X137202118Y-65554264D01*
X137198541Y-65568543D01*
X137193582Y-65582403D01*
X137187288Y-65595710D01*
X137179720Y-65608336D01*
X137170952Y-65620159D01*
X137161066Y-65631066D01*
X137150159Y-65640952D01*
X137138336Y-65649720D01*
X137125710Y-65657288D01*
X137112403Y-65663582D01*
X137098543Y-65668541D01*
X137084264Y-65672118D01*
X137069703Y-65674278D01*
X137055000Y-65675000D01*
X136755000Y-65675000D01*
X136740297Y-65674278D01*
X136725736Y-65672118D01*
X136711457Y-65668541D01*
X136697597Y-65663582D01*
X136684290Y-65657288D01*
X136671664Y-65649720D01*
X136659841Y-65640952D01*
X136648934Y-65631066D01*
X136639048Y-65620159D01*
X136630280Y-65608336D01*
X136622712Y-65595710D01*
X136616418Y-65582403D01*
X136611459Y-65568543D01*
X136607882Y-65554264D01*
X136605722Y-65539703D01*
X136605000Y-65525000D01*
X136605000Y-63775000D01*
X136605722Y-63760297D01*
X136607882Y-63745736D01*
X136611459Y-63731457D01*
X136616418Y-63717597D01*
X136622712Y-63704290D01*
X136630280Y-63691664D01*
X136639048Y-63679841D01*
X136648934Y-63668934D01*
X136659841Y-63659048D01*
X136671664Y-63650280D01*
X136684290Y-63642712D01*
X136697597Y-63636418D01*
X136711457Y-63631459D01*
X136725736Y-63627882D01*
X136740297Y-63625722D01*
X136755000Y-63625000D01*
X137055000Y-63625000D01*
X137069703Y-63625722D01*
G37*
G36*
X138339703Y-63625722D02*
G01*
X138354264Y-63627882D01*
X138368543Y-63631459D01*
X138382403Y-63636418D01*
X138395710Y-63642712D01*
X138408336Y-63650280D01*
X138420159Y-63659048D01*
X138431066Y-63668934D01*
X138440952Y-63679841D01*
X138449720Y-63691664D01*
X138457288Y-63704290D01*
X138463582Y-63717597D01*
X138468541Y-63731457D01*
X138472118Y-63745736D01*
X138474278Y-63760297D01*
X138475000Y-63775000D01*
X138475000Y-65525000D01*
X138474278Y-65539703D01*
X138472118Y-65554264D01*
X138468541Y-65568543D01*
X138463582Y-65582403D01*
X138457288Y-65595710D01*
X138449720Y-65608336D01*
X138440952Y-65620159D01*
X138431066Y-65631066D01*
X138420159Y-65640952D01*
X138408336Y-65649720D01*
X138395710Y-65657288D01*
X138382403Y-65663582D01*
X138368543Y-65668541D01*
X138354264Y-65672118D01*
X138339703Y-65674278D01*
X138325000Y-65675000D01*
X138025000Y-65675000D01*
X138010297Y-65674278D01*
X137995736Y-65672118D01*
X137981457Y-65668541D01*
X137967597Y-65663582D01*
X137954290Y-65657288D01*
X137941664Y-65649720D01*
X137929841Y-65640952D01*
X137918934Y-65631066D01*
X137909048Y-65620159D01*
X137900280Y-65608336D01*
X137892712Y-65595710D01*
X137886418Y-65582403D01*
X137881459Y-65568543D01*
X137877882Y-65554264D01*
X137875722Y-65539703D01*
X137875000Y-65525000D01*
X137875000Y-63775000D01*
X137875722Y-63760297D01*
X137877882Y-63745736D01*
X137881459Y-63731457D01*
X137886418Y-63717597D01*
X137892712Y-63704290D01*
X137900280Y-63691664D01*
X137909048Y-63679841D01*
X137918934Y-63668934D01*
X137929841Y-63659048D01*
X137941664Y-63650280D01*
X137954290Y-63642712D01*
X137967597Y-63636418D01*
X137981457Y-63631459D01*
X137995736Y-63627882D01*
X138010297Y-63625722D01*
X138025000Y-63625000D01*
X138325000Y-63625000D01*
X138339703Y-63625722D01*
G37*
G36*
X139609703Y-63625722D02*
G01*
X139624264Y-63627882D01*
X139638543Y-63631459D01*
X139652403Y-63636418D01*
X139665710Y-63642712D01*
X139678336Y-63650280D01*
X139690159Y-63659048D01*
X139701066Y-63668934D01*
X139710952Y-63679841D01*
X139719720Y-63691664D01*
X139727288Y-63704290D01*
X139733582Y-63717597D01*
X139738541Y-63731457D01*
X139742118Y-63745736D01*
X139744278Y-63760297D01*
X139745000Y-63775000D01*
X139745000Y-65525000D01*
X139744278Y-65539703D01*
X139742118Y-65554264D01*
X139738541Y-65568543D01*
X139733582Y-65582403D01*
X139727288Y-65595710D01*
X139719720Y-65608336D01*
X139710952Y-65620159D01*
X139701066Y-65631066D01*
X139690159Y-65640952D01*
X139678336Y-65649720D01*
X139665710Y-65657288D01*
X139652403Y-65663582D01*
X139638543Y-65668541D01*
X139624264Y-65672118D01*
X139609703Y-65674278D01*
X139595000Y-65675000D01*
X139295000Y-65675000D01*
X139280297Y-65674278D01*
X139265736Y-65672118D01*
X139251457Y-65668541D01*
X139237597Y-65663582D01*
X139224290Y-65657288D01*
X139211664Y-65649720D01*
X139199841Y-65640952D01*
X139188934Y-65631066D01*
X139179048Y-65620159D01*
X139170280Y-65608336D01*
X139162712Y-65595710D01*
X139156418Y-65582403D01*
X139151459Y-65568543D01*
X139147882Y-65554264D01*
X139145722Y-65539703D01*
X139145000Y-65525000D01*
X139145000Y-63775000D01*
X139145722Y-63760297D01*
X139147882Y-63745736D01*
X139151459Y-63731457D01*
X139156418Y-63717597D01*
X139162712Y-63704290D01*
X139170280Y-63691664D01*
X139179048Y-63679841D01*
X139188934Y-63668934D01*
X139199841Y-63659048D01*
X139211664Y-63650280D01*
X139224290Y-63642712D01*
X139237597Y-63636418D01*
X139251457Y-63631459D01*
X139265736Y-63627882D01*
X139280297Y-63625722D01*
X139295000Y-63625000D01*
X139595000Y-63625000D01*
X139609703Y-63625722D01*
G37*
G36*
X140879703Y-63625722D02*
G01*
X140894264Y-63627882D01*
X140908543Y-63631459D01*
X140922403Y-63636418D01*
X140935710Y-63642712D01*
X140948336Y-63650280D01*
X140960159Y-63659048D01*
X140971066Y-63668934D01*
X140980952Y-63679841D01*
X140989720Y-63691664D01*
X140997288Y-63704290D01*
X141003582Y-63717597D01*
X141008541Y-63731457D01*
X141012118Y-63745736D01*
X141014278Y-63760297D01*
X141015000Y-63775000D01*
X141015000Y-65525000D01*
X141014278Y-65539703D01*
X141012118Y-65554264D01*
X141008541Y-65568543D01*
X141003582Y-65582403D01*
X140997288Y-65595710D01*
X140989720Y-65608336D01*
X140980952Y-65620159D01*
X140971066Y-65631066D01*
X140960159Y-65640952D01*
X140948336Y-65649720D01*
X140935710Y-65657288D01*
X140922403Y-65663582D01*
X140908543Y-65668541D01*
X140894264Y-65672118D01*
X140879703Y-65674278D01*
X140865000Y-65675000D01*
X140565000Y-65675000D01*
X140550297Y-65674278D01*
X140535736Y-65672118D01*
X140521457Y-65668541D01*
X140507597Y-65663582D01*
X140494290Y-65657288D01*
X140481664Y-65649720D01*
X140469841Y-65640952D01*
X140458934Y-65631066D01*
X140449048Y-65620159D01*
X140440280Y-65608336D01*
X140432712Y-65595710D01*
X140426418Y-65582403D01*
X140421459Y-65568543D01*
X140417882Y-65554264D01*
X140415722Y-65539703D01*
X140415000Y-65525000D01*
X140415000Y-63775000D01*
X140415722Y-63760297D01*
X140417882Y-63745736D01*
X140421459Y-63731457D01*
X140426418Y-63717597D01*
X140432712Y-63704290D01*
X140440280Y-63691664D01*
X140449048Y-63679841D01*
X140458934Y-63668934D01*
X140469841Y-63659048D01*
X140481664Y-63650280D01*
X140494290Y-63642712D01*
X140507597Y-63636418D01*
X140521457Y-63631459D01*
X140535736Y-63627882D01*
X140550297Y-63625722D01*
X140565000Y-63625000D01*
X140865000Y-63625000D01*
X140879703Y-63625722D01*
G37*
G36*
X142149703Y-63625722D02*
G01*
X142164264Y-63627882D01*
X142178543Y-63631459D01*
X142192403Y-63636418D01*
X142205710Y-63642712D01*
X142218336Y-63650280D01*
X142230159Y-63659048D01*
X142241066Y-63668934D01*
X142250952Y-63679841D01*
X142259720Y-63691664D01*
X142267288Y-63704290D01*
X142273582Y-63717597D01*
X142278541Y-63731457D01*
X142282118Y-63745736D01*
X142284278Y-63760297D01*
X142285000Y-63775000D01*
X142285000Y-65525000D01*
X142284278Y-65539703D01*
X142282118Y-65554264D01*
X142278541Y-65568543D01*
X142273582Y-65582403D01*
X142267288Y-65595710D01*
X142259720Y-65608336D01*
X142250952Y-65620159D01*
X142241066Y-65631066D01*
X142230159Y-65640952D01*
X142218336Y-65649720D01*
X142205710Y-65657288D01*
X142192403Y-65663582D01*
X142178543Y-65668541D01*
X142164264Y-65672118D01*
X142149703Y-65674278D01*
X142135000Y-65675000D01*
X141835000Y-65675000D01*
X141820297Y-65674278D01*
X141805736Y-65672118D01*
X141791457Y-65668541D01*
X141777597Y-65663582D01*
X141764290Y-65657288D01*
X141751664Y-65649720D01*
X141739841Y-65640952D01*
X141728934Y-65631066D01*
X141719048Y-65620159D01*
X141710280Y-65608336D01*
X141702712Y-65595710D01*
X141696418Y-65582403D01*
X141691459Y-65568543D01*
X141687882Y-65554264D01*
X141685722Y-65539703D01*
X141685000Y-65525000D01*
X141685000Y-63775000D01*
X141685722Y-63760297D01*
X141687882Y-63745736D01*
X141691459Y-63731457D01*
X141696418Y-63717597D01*
X141702712Y-63704290D01*
X141710280Y-63691664D01*
X141719048Y-63679841D01*
X141728934Y-63668934D01*
X141739841Y-63659048D01*
X141751664Y-63650280D01*
X141764290Y-63642712D01*
X141777597Y-63636418D01*
X141791457Y-63631459D01*
X141805736Y-63627882D01*
X141820297Y-63625722D01*
X141835000Y-63625000D01*
X142135000Y-63625000D01*
X142149703Y-63625722D01*
G37*
G36*
X143419703Y-63625722D02*
G01*
X143434264Y-63627882D01*
X143448543Y-63631459D01*
X143462403Y-63636418D01*
X143475710Y-63642712D01*
X143488336Y-63650280D01*
X143500159Y-63659048D01*
X143511066Y-63668934D01*
X143520952Y-63679841D01*
X143529720Y-63691664D01*
X143537288Y-63704290D01*
X143543582Y-63717597D01*
X143548541Y-63731457D01*
X143552118Y-63745736D01*
X143554278Y-63760297D01*
X143555000Y-63775000D01*
X143555000Y-65525000D01*
X143554278Y-65539703D01*
X143552118Y-65554264D01*
X143548541Y-65568543D01*
X143543582Y-65582403D01*
X143537288Y-65595710D01*
X143529720Y-65608336D01*
X143520952Y-65620159D01*
X143511066Y-65631066D01*
X143500159Y-65640952D01*
X143488336Y-65649720D01*
X143475710Y-65657288D01*
X143462403Y-65663582D01*
X143448543Y-65668541D01*
X143434264Y-65672118D01*
X143419703Y-65674278D01*
X143405000Y-65675000D01*
X143105000Y-65675000D01*
X143090297Y-65674278D01*
X143075736Y-65672118D01*
X143061457Y-65668541D01*
X143047597Y-65663582D01*
X143034290Y-65657288D01*
X143021664Y-65649720D01*
X143009841Y-65640952D01*
X142998934Y-65631066D01*
X142989048Y-65620159D01*
X142980280Y-65608336D01*
X142972712Y-65595710D01*
X142966418Y-65582403D01*
X142961459Y-65568543D01*
X142957882Y-65554264D01*
X142955722Y-65539703D01*
X142955000Y-65525000D01*
X142955000Y-63775000D01*
X142955722Y-63760297D01*
X142957882Y-63745736D01*
X142961459Y-63731457D01*
X142966418Y-63717597D01*
X142972712Y-63704290D01*
X142980280Y-63691664D01*
X142989048Y-63679841D01*
X142998934Y-63668934D01*
X143009841Y-63659048D01*
X143021664Y-63650280D01*
X143034290Y-63642712D01*
X143047597Y-63636418D01*
X143061457Y-63631459D01*
X143075736Y-63627882D01*
X143090297Y-63625722D01*
X143105000Y-63625000D01*
X143405000Y-63625000D01*
X143419703Y-63625722D01*
G37*
G36*
X143419703Y-54325722D02*
G01*
X143434264Y-54327882D01*
X143448543Y-54331459D01*
X143462403Y-54336418D01*
X143475710Y-54342712D01*
X143488336Y-54350280D01*
X143500159Y-54359048D01*
X143511066Y-54368934D01*
X143520952Y-54379841D01*
X143529720Y-54391664D01*
X143537288Y-54404290D01*
X143543582Y-54417597D01*
X143548541Y-54431457D01*
X143552118Y-54445736D01*
X143554278Y-54460297D01*
X143555000Y-54475000D01*
X143555000Y-56225000D01*
X143554278Y-56239703D01*
X143552118Y-56254264D01*
X143548541Y-56268543D01*
X143543582Y-56282403D01*
X143537288Y-56295710D01*
X143529720Y-56308336D01*
X143520952Y-56320159D01*
X143511066Y-56331066D01*
X143500159Y-56340952D01*
X143488336Y-56349720D01*
X143475710Y-56357288D01*
X143462403Y-56363582D01*
X143448543Y-56368541D01*
X143434264Y-56372118D01*
X143419703Y-56374278D01*
X143405000Y-56375000D01*
X143105000Y-56375000D01*
X143090297Y-56374278D01*
X143075736Y-56372118D01*
X143061457Y-56368541D01*
X143047597Y-56363582D01*
X143034290Y-56357288D01*
X143021664Y-56349720D01*
X143009841Y-56340952D01*
X142998934Y-56331066D01*
X142989048Y-56320159D01*
X142980280Y-56308336D01*
X142972712Y-56295710D01*
X142966418Y-56282403D01*
X142961459Y-56268543D01*
X142957882Y-56254264D01*
X142955722Y-56239703D01*
X142955000Y-56225000D01*
X142955000Y-54475000D01*
X142955722Y-54460297D01*
X142957882Y-54445736D01*
X142961459Y-54431457D01*
X142966418Y-54417597D01*
X142972712Y-54404290D01*
X142980280Y-54391664D01*
X142989048Y-54379841D01*
X142998934Y-54368934D01*
X143009841Y-54359048D01*
X143021664Y-54350280D01*
X143034290Y-54342712D01*
X143047597Y-54336418D01*
X143061457Y-54331459D01*
X143075736Y-54327882D01*
X143090297Y-54325722D01*
X143105000Y-54325000D01*
X143405000Y-54325000D01*
X143419703Y-54325722D01*
G37*
G36*
X142149703Y-54325722D02*
G01*
X142164264Y-54327882D01*
X142178543Y-54331459D01*
X142192403Y-54336418D01*
X142205710Y-54342712D01*
X142218336Y-54350280D01*
X142230159Y-54359048D01*
X142241066Y-54368934D01*
X142250952Y-54379841D01*
X142259720Y-54391664D01*
X142267288Y-54404290D01*
X142273582Y-54417597D01*
X142278541Y-54431457D01*
X142282118Y-54445736D01*
X142284278Y-54460297D01*
X142285000Y-54475000D01*
X142285000Y-56225000D01*
X142284278Y-56239703D01*
X142282118Y-56254264D01*
X142278541Y-56268543D01*
X142273582Y-56282403D01*
X142267288Y-56295710D01*
X142259720Y-56308336D01*
X142250952Y-56320159D01*
X142241066Y-56331066D01*
X142230159Y-56340952D01*
X142218336Y-56349720D01*
X142205710Y-56357288D01*
X142192403Y-56363582D01*
X142178543Y-56368541D01*
X142164264Y-56372118D01*
X142149703Y-56374278D01*
X142135000Y-56375000D01*
X141835000Y-56375000D01*
X141820297Y-56374278D01*
X141805736Y-56372118D01*
X141791457Y-56368541D01*
X141777597Y-56363582D01*
X141764290Y-56357288D01*
X141751664Y-56349720D01*
X141739841Y-56340952D01*
X141728934Y-56331066D01*
X141719048Y-56320159D01*
X141710280Y-56308336D01*
X141702712Y-56295710D01*
X141696418Y-56282403D01*
X141691459Y-56268543D01*
X141687882Y-56254264D01*
X141685722Y-56239703D01*
X141685000Y-56225000D01*
X141685000Y-54475000D01*
X141685722Y-54460297D01*
X141687882Y-54445736D01*
X141691459Y-54431457D01*
X141696418Y-54417597D01*
X141702712Y-54404290D01*
X141710280Y-54391664D01*
X141719048Y-54379841D01*
X141728934Y-54368934D01*
X141739841Y-54359048D01*
X141751664Y-54350280D01*
X141764290Y-54342712D01*
X141777597Y-54336418D01*
X141791457Y-54331459D01*
X141805736Y-54327882D01*
X141820297Y-54325722D01*
X141835000Y-54325000D01*
X142135000Y-54325000D01*
X142149703Y-54325722D01*
G37*
G36*
X140879703Y-54325722D02*
G01*
X140894264Y-54327882D01*
X140908543Y-54331459D01*
X140922403Y-54336418D01*
X140935710Y-54342712D01*
X140948336Y-54350280D01*
X140960159Y-54359048D01*
X140971066Y-54368934D01*
X140980952Y-54379841D01*
X140989720Y-54391664D01*
X140997288Y-54404290D01*
X141003582Y-54417597D01*
X141008541Y-54431457D01*
X141012118Y-54445736D01*
X141014278Y-54460297D01*
X141015000Y-54475000D01*
X141015000Y-56225000D01*
X141014278Y-56239703D01*
X141012118Y-56254264D01*
X141008541Y-56268543D01*
X141003582Y-56282403D01*
X140997288Y-56295710D01*
X140989720Y-56308336D01*
X140980952Y-56320159D01*
X140971066Y-56331066D01*
X140960159Y-56340952D01*
X140948336Y-56349720D01*
X140935710Y-56357288D01*
X140922403Y-56363582D01*
X140908543Y-56368541D01*
X140894264Y-56372118D01*
X140879703Y-56374278D01*
X140865000Y-56375000D01*
X140565000Y-56375000D01*
X140550297Y-56374278D01*
X140535736Y-56372118D01*
X140521457Y-56368541D01*
X140507597Y-56363582D01*
X140494290Y-56357288D01*
X140481664Y-56349720D01*
X140469841Y-56340952D01*
X140458934Y-56331066D01*
X140449048Y-56320159D01*
X140440280Y-56308336D01*
X140432712Y-56295710D01*
X140426418Y-56282403D01*
X140421459Y-56268543D01*
X140417882Y-56254264D01*
X140415722Y-56239703D01*
X140415000Y-56225000D01*
X140415000Y-54475000D01*
X140415722Y-54460297D01*
X140417882Y-54445736D01*
X140421459Y-54431457D01*
X140426418Y-54417597D01*
X140432712Y-54404290D01*
X140440280Y-54391664D01*
X140449048Y-54379841D01*
X140458934Y-54368934D01*
X140469841Y-54359048D01*
X140481664Y-54350280D01*
X140494290Y-54342712D01*
X140507597Y-54336418D01*
X140521457Y-54331459D01*
X140535736Y-54327882D01*
X140550297Y-54325722D01*
X140565000Y-54325000D01*
X140865000Y-54325000D01*
X140879703Y-54325722D01*
G37*
G36*
X139609703Y-54325722D02*
G01*
X139624264Y-54327882D01*
X139638543Y-54331459D01*
X139652403Y-54336418D01*
X139665710Y-54342712D01*
X139678336Y-54350280D01*
X139690159Y-54359048D01*
X139701066Y-54368934D01*
X139710952Y-54379841D01*
X139719720Y-54391664D01*
X139727288Y-54404290D01*
X139733582Y-54417597D01*
X139738541Y-54431457D01*
X139742118Y-54445736D01*
X139744278Y-54460297D01*
X139745000Y-54475000D01*
X139745000Y-56225000D01*
X139744278Y-56239703D01*
X139742118Y-56254264D01*
X139738541Y-56268543D01*
X139733582Y-56282403D01*
X139727288Y-56295710D01*
X139719720Y-56308336D01*
X139710952Y-56320159D01*
X139701066Y-56331066D01*
X139690159Y-56340952D01*
X139678336Y-56349720D01*
X139665710Y-56357288D01*
X139652403Y-56363582D01*
X139638543Y-56368541D01*
X139624264Y-56372118D01*
X139609703Y-56374278D01*
X139595000Y-56375000D01*
X139295000Y-56375000D01*
X139280297Y-56374278D01*
X139265736Y-56372118D01*
X139251457Y-56368541D01*
X139237597Y-56363582D01*
X139224290Y-56357288D01*
X139211664Y-56349720D01*
X139199841Y-56340952D01*
X139188934Y-56331066D01*
X139179048Y-56320159D01*
X139170280Y-56308336D01*
X139162712Y-56295710D01*
X139156418Y-56282403D01*
X139151459Y-56268543D01*
X139147882Y-56254264D01*
X139145722Y-56239703D01*
X139145000Y-56225000D01*
X139145000Y-54475000D01*
X139145722Y-54460297D01*
X139147882Y-54445736D01*
X139151459Y-54431457D01*
X139156418Y-54417597D01*
X139162712Y-54404290D01*
X139170280Y-54391664D01*
X139179048Y-54379841D01*
X139188934Y-54368934D01*
X139199841Y-54359048D01*
X139211664Y-54350280D01*
X139224290Y-54342712D01*
X139237597Y-54336418D01*
X139251457Y-54331459D01*
X139265736Y-54327882D01*
X139280297Y-54325722D01*
X139295000Y-54325000D01*
X139595000Y-54325000D01*
X139609703Y-54325722D01*
G37*
G36*
X138339703Y-54325722D02*
G01*
X138354264Y-54327882D01*
X138368543Y-54331459D01*
X138382403Y-54336418D01*
X138395710Y-54342712D01*
X138408336Y-54350280D01*
X138420159Y-54359048D01*
X138431066Y-54368934D01*
X138440952Y-54379841D01*
X138449720Y-54391664D01*
X138457288Y-54404290D01*
X138463582Y-54417597D01*
X138468541Y-54431457D01*
X138472118Y-54445736D01*
X138474278Y-54460297D01*
X138475000Y-54475000D01*
X138475000Y-56225000D01*
X138474278Y-56239703D01*
X138472118Y-56254264D01*
X138468541Y-56268543D01*
X138463582Y-56282403D01*
X138457288Y-56295710D01*
X138449720Y-56308336D01*
X138440952Y-56320159D01*
X138431066Y-56331066D01*
X138420159Y-56340952D01*
X138408336Y-56349720D01*
X138395710Y-56357288D01*
X138382403Y-56363582D01*
X138368543Y-56368541D01*
X138354264Y-56372118D01*
X138339703Y-56374278D01*
X138325000Y-56375000D01*
X138025000Y-56375000D01*
X138010297Y-56374278D01*
X137995736Y-56372118D01*
X137981457Y-56368541D01*
X137967597Y-56363582D01*
X137954290Y-56357288D01*
X137941664Y-56349720D01*
X137929841Y-56340952D01*
X137918934Y-56331066D01*
X137909048Y-56320159D01*
X137900280Y-56308336D01*
X137892712Y-56295710D01*
X137886418Y-56282403D01*
X137881459Y-56268543D01*
X137877882Y-56254264D01*
X137875722Y-56239703D01*
X137875000Y-56225000D01*
X137875000Y-54475000D01*
X137875722Y-54460297D01*
X137877882Y-54445736D01*
X137881459Y-54431457D01*
X137886418Y-54417597D01*
X137892712Y-54404290D01*
X137900280Y-54391664D01*
X137909048Y-54379841D01*
X137918934Y-54368934D01*
X137929841Y-54359048D01*
X137941664Y-54350280D01*
X137954290Y-54342712D01*
X137967597Y-54336418D01*
X137981457Y-54331459D01*
X137995736Y-54327882D01*
X138010297Y-54325722D01*
X138025000Y-54325000D01*
X138325000Y-54325000D01*
X138339703Y-54325722D01*
G37*
G36*
X137069703Y-54325722D02*
G01*
X137084264Y-54327882D01*
X137098543Y-54331459D01*
X137112403Y-54336418D01*
X137125710Y-54342712D01*
X137138336Y-54350280D01*
X137150159Y-54359048D01*
X137161066Y-54368934D01*
X137170952Y-54379841D01*
X137179720Y-54391664D01*
X137187288Y-54404290D01*
X137193582Y-54417597D01*
X137198541Y-54431457D01*
X137202118Y-54445736D01*
X137204278Y-54460297D01*
X137205000Y-54475000D01*
X137205000Y-56225000D01*
X137204278Y-56239703D01*
X137202118Y-56254264D01*
X137198541Y-56268543D01*
X137193582Y-56282403D01*
X137187288Y-56295710D01*
X137179720Y-56308336D01*
X137170952Y-56320159D01*
X137161066Y-56331066D01*
X137150159Y-56340952D01*
X137138336Y-56349720D01*
X137125710Y-56357288D01*
X137112403Y-56363582D01*
X137098543Y-56368541D01*
X137084264Y-56372118D01*
X137069703Y-56374278D01*
X137055000Y-56375000D01*
X136755000Y-56375000D01*
X136740297Y-56374278D01*
X136725736Y-56372118D01*
X136711457Y-56368541D01*
X136697597Y-56363582D01*
X136684290Y-56357288D01*
X136671664Y-56349720D01*
X136659841Y-56340952D01*
X136648934Y-56331066D01*
X136639048Y-56320159D01*
X136630280Y-56308336D01*
X136622712Y-56295710D01*
X136616418Y-56282403D01*
X136611459Y-56268543D01*
X136607882Y-56254264D01*
X136605722Y-56239703D01*
X136605000Y-56225000D01*
X136605000Y-54475000D01*
X136605722Y-54460297D01*
X136607882Y-54445736D01*
X136611459Y-54431457D01*
X136616418Y-54417597D01*
X136622712Y-54404290D01*
X136630280Y-54391664D01*
X136639048Y-54379841D01*
X136648934Y-54368934D01*
X136659841Y-54359048D01*
X136671664Y-54350280D01*
X136684290Y-54342712D01*
X136697597Y-54336418D01*
X136711457Y-54331459D01*
X136725736Y-54327882D01*
X136740297Y-54325722D01*
X136755000Y-54325000D01*
X137055000Y-54325000D01*
X137069703Y-54325722D01*
G37*
G36*
X135799703Y-54325722D02*
G01*
X135814264Y-54327882D01*
X135828543Y-54331459D01*
X135842403Y-54336418D01*
X135855710Y-54342712D01*
X135868336Y-54350280D01*
X135880159Y-54359048D01*
X135891066Y-54368934D01*
X135900952Y-54379841D01*
X135909720Y-54391664D01*
X135917288Y-54404290D01*
X135923582Y-54417597D01*
X135928541Y-54431457D01*
X135932118Y-54445736D01*
X135934278Y-54460297D01*
X135935000Y-54475000D01*
X135935000Y-56225000D01*
X135934278Y-56239703D01*
X135932118Y-56254264D01*
X135928541Y-56268543D01*
X135923582Y-56282403D01*
X135917288Y-56295710D01*
X135909720Y-56308336D01*
X135900952Y-56320159D01*
X135891066Y-56331066D01*
X135880159Y-56340952D01*
X135868336Y-56349720D01*
X135855710Y-56357288D01*
X135842403Y-56363582D01*
X135828543Y-56368541D01*
X135814264Y-56372118D01*
X135799703Y-56374278D01*
X135785000Y-56375000D01*
X135485000Y-56375000D01*
X135470297Y-56374278D01*
X135455736Y-56372118D01*
X135441457Y-56368541D01*
X135427597Y-56363582D01*
X135414290Y-56357288D01*
X135401664Y-56349720D01*
X135389841Y-56340952D01*
X135378934Y-56331066D01*
X135369048Y-56320159D01*
X135360280Y-56308336D01*
X135352712Y-56295710D01*
X135346418Y-56282403D01*
X135341459Y-56268543D01*
X135337882Y-56254264D01*
X135335722Y-56239703D01*
X135335000Y-56225000D01*
X135335000Y-54475000D01*
X135335722Y-54460297D01*
X135337882Y-54445736D01*
X135341459Y-54431457D01*
X135346418Y-54417597D01*
X135352712Y-54404290D01*
X135360280Y-54391664D01*
X135369048Y-54379841D01*
X135378934Y-54368934D01*
X135389841Y-54359048D01*
X135401664Y-54350280D01*
X135414290Y-54342712D01*
X135427597Y-54336418D01*
X135441457Y-54331459D01*
X135455736Y-54327882D01*
X135470297Y-54325722D01*
X135485000Y-54325000D01*
X135785000Y-54325000D01*
X135799703Y-54325722D01*
G37*
G36*
X134529703Y-54325722D02*
G01*
X134544264Y-54327882D01*
X134558543Y-54331459D01*
X134572403Y-54336418D01*
X134585710Y-54342712D01*
X134598336Y-54350280D01*
X134610159Y-54359048D01*
X134621066Y-54368934D01*
X134630952Y-54379841D01*
X134639720Y-54391664D01*
X134647288Y-54404290D01*
X134653582Y-54417597D01*
X134658541Y-54431457D01*
X134662118Y-54445736D01*
X134664278Y-54460297D01*
X134665000Y-54475000D01*
X134665000Y-56225000D01*
X134664278Y-56239703D01*
X134662118Y-56254264D01*
X134658541Y-56268543D01*
X134653582Y-56282403D01*
X134647288Y-56295710D01*
X134639720Y-56308336D01*
X134630952Y-56320159D01*
X134621066Y-56331066D01*
X134610159Y-56340952D01*
X134598336Y-56349720D01*
X134585710Y-56357288D01*
X134572403Y-56363582D01*
X134558543Y-56368541D01*
X134544264Y-56372118D01*
X134529703Y-56374278D01*
X134515000Y-56375000D01*
X134215000Y-56375000D01*
X134200297Y-56374278D01*
X134185736Y-56372118D01*
X134171457Y-56368541D01*
X134157597Y-56363582D01*
X134144290Y-56357288D01*
X134131664Y-56349720D01*
X134119841Y-56340952D01*
X134108934Y-56331066D01*
X134099048Y-56320159D01*
X134090280Y-56308336D01*
X134082712Y-56295710D01*
X134076418Y-56282403D01*
X134071459Y-56268543D01*
X134067882Y-56254264D01*
X134065722Y-56239703D01*
X134065000Y-56225000D01*
X134065000Y-54475000D01*
X134065722Y-54460297D01*
X134067882Y-54445736D01*
X134071459Y-54431457D01*
X134076418Y-54417597D01*
X134082712Y-54404290D01*
X134090280Y-54391664D01*
X134099048Y-54379841D01*
X134108934Y-54368934D01*
X134119841Y-54359048D01*
X134131664Y-54350280D01*
X134144290Y-54342712D01*
X134157597Y-54336418D01*
X134171457Y-54331459D01*
X134185736Y-54327882D01*
X134200297Y-54325722D01*
X134215000Y-54325000D01*
X134515000Y-54325000D01*
X134529703Y-54325722D01*
G37*
G36*
X133259703Y-54325722D02*
G01*
X133274264Y-54327882D01*
X133288543Y-54331459D01*
X133302403Y-54336418D01*
X133315710Y-54342712D01*
X133328336Y-54350280D01*
X133340159Y-54359048D01*
X133351066Y-54368934D01*
X133360952Y-54379841D01*
X133369720Y-54391664D01*
X133377288Y-54404290D01*
X133383582Y-54417597D01*
X133388541Y-54431457D01*
X133392118Y-54445736D01*
X133394278Y-54460297D01*
X133395000Y-54475000D01*
X133395000Y-56225000D01*
X133394278Y-56239703D01*
X133392118Y-56254264D01*
X133388541Y-56268543D01*
X133383582Y-56282403D01*
X133377288Y-56295710D01*
X133369720Y-56308336D01*
X133360952Y-56320159D01*
X133351066Y-56331066D01*
X133340159Y-56340952D01*
X133328336Y-56349720D01*
X133315710Y-56357288D01*
X133302403Y-56363582D01*
X133288543Y-56368541D01*
X133274264Y-56372118D01*
X133259703Y-56374278D01*
X133245000Y-56375000D01*
X132945000Y-56375000D01*
X132930297Y-56374278D01*
X132915736Y-56372118D01*
X132901457Y-56368541D01*
X132887597Y-56363582D01*
X132874290Y-56357288D01*
X132861664Y-56349720D01*
X132849841Y-56340952D01*
X132838934Y-56331066D01*
X132829048Y-56320159D01*
X132820280Y-56308336D01*
X132812712Y-56295710D01*
X132806418Y-56282403D01*
X132801459Y-56268543D01*
X132797882Y-56254264D01*
X132795722Y-56239703D01*
X132795000Y-56225000D01*
X132795000Y-54475000D01*
X132795722Y-54460297D01*
X132797882Y-54445736D01*
X132801459Y-54431457D01*
X132806418Y-54417597D01*
X132812712Y-54404290D01*
X132820280Y-54391664D01*
X132829048Y-54379841D01*
X132838934Y-54368934D01*
X132849841Y-54359048D01*
X132861664Y-54350280D01*
X132874290Y-54342712D01*
X132887597Y-54336418D01*
X132901457Y-54331459D01*
X132915736Y-54327882D01*
X132930297Y-54325722D01*
X132945000Y-54325000D01*
X133245000Y-54325000D01*
X133259703Y-54325722D01*
G37*
G36*
X131989703Y-54325722D02*
G01*
X132004264Y-54327882D01*
X132018543Y-54331459D01*
X132032403Y-54336418D01*
X132045710Y-54342712D01*
X132058336Y-54350280D01*
X132070159Y-54359048D01*
X132081066Y-54368934D01*
X132090952Y-54379841D01*
X132099720Y-54391664D01*
X132107288Y-54404290D01*
X132113582Y-54417597D01*
X132118541Y-54431457D01*
X132122118Y-54445736D01*
X132124278Y-54460297D01*
X132125000Y-54475000D01*
X132125000Y-56225000D01*
X132124278Y-56239703D01*
X132122118Y-56254264D01*
X132118541Y-56268543D01*
X132113582Y-56282403D01*
X132107288Y-56295710D01*
X132099720Y-56308336D01*
X132090952Y-56320159D01*
X132081066Y-56331066D01*
X132070159Y-56340952D01*
X132058336Y-56349720D01*
X132045710Y-56357288D01*
X132032403Y-56363582D01*
X132018543Y-56368541D01*
X132004264Y-56372118D01*
X131989703Y-56374278D01*
X131975000Y-56375000D01*
X131675000Y-56375000D01*
X131660297Y-56374278D01*
X131645736Y-56372118D01*
X131631457Y-56368541D01*
X131617597Y-56363582D01*
X131604290Y-56357288D01*
X131591664Y-56349720D01*
X131579841Y-56340952D01*
X131568934Y-56331066D01*
X131559048Y-56320159D01*
X131550280Y-56308336D01*
X131542712Y-56295710D01*
X131536418Y-56282403D01*
X131531459Y-56268543D01*
X131527882Y-56254264D01*
X131525722Y-56239703D01*
X131525000Y-56225000D01*
X131525000Y-54475000D01*
X131525722Y-54460297D01*
X131527882Y-54445736D01*
X131531459Y-54431457D01*
X131536418Y-54417597D01*
X131542712Y-54404290D01*
X131550280Y-54391664D01*
X131559048Y-54379841D01*
X131568934Y-54368934D01*
X131579841Y-54359048D01*
X131591664Y-54350280D01*
X131604290Y-54342712D01*
X131617597Y-54336418D01*
X131631457Y-54331459D01*
X131645736Y-54327882D01*
X131660297Y-54325722D01*
X131675000Y-54325000D01*
X131975000Y-54325000D01*
X131989703Y-54325722D01*
G37*
G36*
X130719703Y-54325722D02*
G01*
X130734264Y-54327882D01*
X130748543Y-54331459D01*
X130762403Y-54336418D01*
X130775710Y-54342712D01*
X130788336Y-54350280D01*
X130800159Y-54359048D01*
X130811066Y-54368934D01*
X130820952Y-54379841D01*
X130829720Y-54391664D01*
X130837288Y-54404290D01*
X130843582Y-54417597D01*
X130848541Y-54431457D01*
X130852118Y-54445736D01*
X130854278Y-54460297D01*
X130855000Y-54475000D01*
X130855000Y-56225000D01*
X130854278Y-56239703D01*
X130852118Y-56254264D01*
X130848541Y-56268543D01*
X130843582Y-56282403D01*
X130837288Y-56295710D01*
X130829720Y-56308336D01*
X130820952Y-56320159D01*
X130811066Y-56331066D01*
X130800159Y-56340952D01*
X130788336Y-56349720D01*
X130775710Y-56357288D01*
X130762403Y-56363582D01*
X130748543Y-56368541D01*
X130734264Y-56372118D01*
X130719703Y-56374278D01*
X130705000Y-56375000D01*
X130405000Y-56375000D01*
X130390297Y-56374278D01*
X130375736Y-56372118D01*
X130361457Y-56368541D01*
X130347597Y-56363582D01*
X130334290Y-56357288D01*
X130321664Y-56349720D01*
X130309841Y-56340952D01*
X130298934Y-56331066D01*
X130289048Y-56320159D01*
X130280280Y-56308336D01*
X130272712Y-56295710D01*
X130266418Y-56282403D01*
X130261459Y-56268543D01*
X130257882Y-56254264D01*
X130255722Y-56239703D01*
X130255000Y-56225000D01*
X130255000Y-54475000D01*
X130255722Y-54460297D01*
X130257882Y-54445736D01*
X130261459Y-54431457D01*
X130266418Y-54417597D01*
X130272712Y-54404290D01*
X130280280Y-54391664D01*
X130289048Y-54379841D01*
X130298934Y-54368934D01*
X130309841Y-54359048D01*
X130321664Y-54350280D01*
X130334290Y-54342712D01*
X130347597Y-54336418D01*
X130361457Y-54331459D01*
X130375736Y-54327882D01*
X130390297Y-54325722D01*
X130405000Y-54325000D01*
X130705000Y-54325000D01*
X130719703Y-54325722D01*
G37*
G36*
X129449703Y-54325722D02*
G01*
X129464264Y-54327882D01*
X129478543Y-54331459D01*
X129492403Y-54336418D01*
X129505710Y-54342712D01*
X129518336Y-54350280D01*
X129530159Y-54359048D01*
X129541066Y-54368934D01*
X129550952Y-54379841D01*
X129559720Y-54391664D01*
X129567288Y-54404290D01*
X129573582Y-54417597D01*
X129578541Y-54431457D01*
X129582118Y-54445736D01*
X129584278Y-54460297D01*
X129585000Y-54475000D01*
X129585000Y-56225000D01*
X129584278Y-56239703D01*
X129582118Y-56254264D01*
X129578541Y-56268543D01*
X129573582Y-56282403D01*
X129567288Y-56295710D01*
X129559720Y-56308336D01*
X129550952Y-56320159D01*
X129541066Y-56331066D01*
X129530159Y-56340952D01*
X129518336Y-56349720D01*
X129505710Y-56357288D01*
X129492403Y-56363582D01*
X129478543Y-56368541D01*
X129464264Y-56372118D01*
X129449703Y-56374278D01*
X129435000Y-56375000D01*
X129135000Y-56375000D01*
X129120297Y-56374278D01*
X129105736Y-56372118D01*
X129091457Y-56368541D01*
X129077597Y-56363582D01*
X129064290Y-56357288D01*
X129051664Y-56349720D01*
X129039841Y-56340952D01*
X129028934Y-56331066D01*
X129019048Y-56320159D01*
X129010280Y-56308336D01*
X129002712Y-56295710D01*
X128996418Y-56282403D01*
X128991459Y-56268543D01*
X128987882Y-56254264D01*
X128985722Y-56239703D01*
X128985000Y-56225000D01*
X128985000Y-54475000D01*
X128985722Y-54460297D01*
X128987882Y-54445736D01*
X128991459Y-54431457D01*
X128996418Y-54417597D01*
X129002712Y-54404290D01*
X129010280Y-54391664D01*
X129019048Y-54379841D01*
X129028934Y-54368934D01*
X129039841Y-54359048D01*
X129051664Y-54350280D01*
X129064290Y-54342712D01*
X129077597Y-54336418D01*
X129091457Y-54331459D01*
X129105736Y-54327882D01*
X129120297Y-54325722D01*
X129135000Y-54325000D01*
X129435000Y-54325000D01*
X129449703Y-54325722D01*
G37*
G36*
X128179703Y-54325722D02*
G01*
X128194264Y-54327882D01*
X128208543Y-54331459D01*
X128222403Y-54336418D01*
X128235710Y-54342712D01*
X128248336Y-54350280D01*
X128260159Y-54359048D01*
X128271066Y-54368934D01*
X128280952Y-54379841D01*
X128289720Y-54391664D01*
X128297288Y-54404290D01*
X128303582Y-54417597D01*
X128308541Y-54431457D01*
X128312118Y-54445736D01*
X128314278Y-54460297D01*
X128315000Y-54475000D01*
X128315000Y-56225000D01*
X128314278Y-56239703D01*
X128312118Y-56254264D01*
X128308541Y-56268543D01*
X128303582Y-56282403D01*
X128297288Y-56295710D01*
X128289720Y-56308336D01*
X128280952Y-56320159D01*
X128271066Y-56331066D01*
X128260159Y-56340952D01*
X128248336Y-56349720D01*
X128235710Y-56357288D01*
X128222403Y-56363582D01*
X128208543Y-56368541D01*
X128194264Y-56372118D01*
X128179703Y-56374278D01*
X128165000Y-56375000D01*
X127865000Y-56375000D01*
X127850297Y-56374278D01*
X127835736Y-56372118D01*
X127821457Y-56368541D01*
X127807597Y-56363582D01*
X127794290Y-56357288D01*
X127781664Y-56349720D01*
X127769841Y-56340952D01*
X127758934Y-56331066D01*
X127749048Y-56320159D01*
X127740280Y-56308336D01*
X127732712Y-56295710D01*
X127726418Y-56282403D01*
X127721459Y-56268543D01*
X127717882Y-56254264D01*
X127715722Y-56239703D01*
X127715000Y-56225000D01*
X127715000Y-54475000D01*
X127715722Y-54460297D01*
X127717882Y-54445736D01*
X127721459Y-54431457D01*
X127726418Y-54417597D01*
X127732712Y-54404290D01*
X127740280Y-54391664D01*
X127749048Y-54379841D01*
X127758934Y-54368934D01*
X127769841Y-54359048D01*
X127781664Y-54350280D01*
X127794290Y-54342712D01*
X127807597Y-54336418D01*
X127821457Y-54331459D01*
X127835736Y-54327882D01*
X127850297Y-54325722D01*
X127865000Y-54325000D01*
X128165000Y-54325000D01*
X128179703Y-54325722D01*
G37*
G36*
X126909703Y-54325722D02*
G01*
X126924264Y-54327882D01*
X126938543Y-54331459D01*
X126952403Y-54336418D01*
X126965710Y-54342712D01*
X126978336Y-54350280D01*
X126990159Y-54359048D01*
X127001066Y-54368934D01*
X127010952Y-54379841D01*
X127019720Y-54391664D01*
X127027288Y-54404290D01*
X127033582Y-54417597D01*
X127038541Y-54431457D01*
X127042118Y-54445736D01*
X127044278Y-54460297D01*
X127045000Y-54475000D01*
X127045000Y-56225000D01*
X127044278Y-56239703D01*
X127042118Y-56254264D01*
X127038541Y-56268543D01*
X127033582Y-56282403D01*
X127027288Y-56295710D01*
X127019720Y-56308336D01*
X127010952Y-56320159D01*
X127001066Y-56331066D01*
X126990159Y-56340952D01*
X126978336Y-56349720D01*
X126965710Y-56357288D01*
X126952403Y-56363582D01*
X126938543Y-56368541D01*
X126924264Y-56372118D01*
X126909703Y-56374278D01*
X126895000Y-56375000D01*
X126595000Y-56375000D01*
X126580297Y-56374278D01*
X126565736Y-56372118D01*
X126551457Y-56368541D01*
X126537597Y-56363582D01*
X126524290Y-56357288D01*
X126511664Y-56349720D01*
X126499841Y-56340952D01*
X126488934Y-56331066D01*
X126479048Y-56320159D01*
X126470280Y-56308336D01*
X126462712Y-56295710D01*
X126456418Y-56282403D01*
X126451459Y-56268543D01*
X126447882Y-56254264D01*
X126445722Y-56239703D01*
X126445000Y-56225000D01*
X126445000Y-54475000D01*
X126445722Y-54460297D01*
X126447882Y-54445736D01*
X126451459Y-54431457D01*
X126456418Y-54417597D01*
X126462712Y-54404290D01*
X126470280Y-54391664D01*
X126479048Y-54379841D01*
X126488934Y-54368934D01*
X126499841Y-54359048D01*
X126511664Y-54350280D01*
X126524290Y-54342712D01*
X126537597Y-54336418D01*
X126551457Y-54331459D01*
X126565736Y-54327882D01*
X126580297Y-54325722D01*
X126595000Y-54325000D01*
X126895000Y-54325000D01*
X126909703Y-54325722D01*
G37*
M02*
